<svg xmlns="http://www.w3.org/2000/svg" xmlns:xlink="http://www.w3.org/1999/xlink" contentStyleType="text/css" height="1299px" preserveAspectRatio="none" style="width:1200px;height:1299px;background:#FFFFFF;" version="1.1" viewBox="0 0 1200 1299" width="1200px" zoomAndPan="magnify"><defs/><g><rect fill="#ADD8E6" height="38.6211" rx="12.5" ry="12.5" style="stroke:#181818;stroke-width:1.5;" width="237.1299" x="10" y="78.6211"/><text fill="#000000" font-family="sans-serif" font-size="14" lengthAdjust="spacing" textLength="217.1299" x="20" y="103.7285">Do you want to create a coroutine?</text><rect fill="#90EE90" height="38.6211" rx="12.5" ry="12.5" style="stroke:#181818;stroke-width:1.5;" width="200.5166" x="297.1299" y="20"/><text fill="#000000" font-family="sans-serif" font-size="14" lengthAdjust="spacing" textLength="180.5166" x="307.1299" y="45.1074">Use spawn functionName(...)</text><path d="M247.1299,97.9316 L257.1299,97.9316 C272.1299,97.9316 272.1299,39.3105 287.1299,39.3105 L297.1299,39.3105 " fill="none" style="stroke:#181818;stroke-width:1.0;"/><rect fill="#87CEEB" height="38.6211" rx="12.5" ry="12.5" style="stroke:#181818;stroke-width:1.5;" width="329.7158" x="297.1299" y="78.6211"/><text fill="#000000" font-family="sans-serif" font-size="14" lengthAdjust="spacing" textLength="309.7158" x="307.1299" y="103.7285">Do you want to create a coroutine from a closure?</text><rect fill="#90EE90" height="38.6211" rx="12.5" ry="12.5" style="stroke:#181818;stroke-width:1.5;" width="121.9443" x="676.8457" y="78.6211"/><text fill="#000000" font-family="sans-serif" font-size="14" lengthAdjust="spacing" textLength="101.9443" x="686.8457" y="103.7285">Use spawn { ... }</text><path d="M626.8457,97.9316 L636.8457,97.9316 C651.8457,97.9316 651.8457,97.9316 666.8457,97.9316 L676.8457,97.9316 " fill="none" style="stroke:#181818;stroke-width:1.0;"/><path d="M247.1299,97.9316 L257.1299,97.9316 C272.1299,97.9316 272.1299,97.9316 287.1299,97.9316 L297.1299,97.9316 " fill="none" style="stroke:#181818;stroke-width:1.0;"/><rect fill="#87CEEB" height="38.6211" rx="12.5" ry="12.5" style="stroke:#181818;stroke-width:1.5;" width="251.8887" x="297.1299" y="137.2422"/><text fill="#000000" font-family="sans-serif" font-size="14" lengthAdjust="spacing" textLength="231.8887" x="307.1299" y="162.3496">Do you want structured concurrency?</text><rect fill="#90EE90" height="38.6211" rx="12.5" ry="12.5" style="stroke:#181818;stroke-width:1.5;" width="167.082" x="599.0186" y="137.2422"/><text fill="#000000" font-family="sans-serif" font-size="14" lengthAdjust="spacing" textLength="147.082" x="609.0186" y="162.3496">Use async $scope { ... }</text><path d="M549.0186,156.5527 L559.0186,156.5527 C574.0186,156.5527 574.0186,156.5527 589.0186,156.5527 L599.0186,156.5527 " fill="none" style="stroke:#181818;stroke-width:1.0;"/><path d="M247.1299,97.9316 L257.1299,97.9316 C272.1299,97.9316 272.1299,156.5527 287.1299,156.5527 L297.1299,156.5527 " fill="none" style="stroke:#181818;stroke-width:1.0;"/><rect fill="#ADD8E6" height="38.6211" rx="12.5" ry="12.5" style="stroke:#181818;stroke-width:1.5;" width="219.9854" x="10" y="336.3818"/><text fill="#000000" font-family="sans-serif" font-size="14" lengthAdjust="spacing" textLength="199.9854" x="20" y="361.4893">Do you want to wait for a result?</text><rect fill="#90EE90" height="38.6211" rx="12.5" ry="12.5" style="stroke:#181818;stroke-width:1.5;" width="204.4268" x="279.9854" y="195.8633"/><text fill="#000000" font-family="sans-serif" font-size="14" lengthAdjust="spacing" textLength="184.4268" x="289.9854" y="220.9707">Use await &lt;Async\Awaitable&gt;</text><path d="M229.9854,355.6924 L239.9854,355.6924 C254.9854,355.6924 254.9854,215.1738 269.9854,215.1738 L279.9854,215.1738 " fill="none" style="stroke:#181818;stroke-width:1.0;"/><rect fill="#87CEEB" height="38.6211" rx="12.5" ry="12.5" style="stroke:#181818;stroke-width:1.5;" width="258.8818" x="279.9854" y="254.4844"/><text fill="#000000" font-family="sans-serif" font-size="14" lengthAdjust="spacing" textLength="238.8818" x="289.9854" y="279.5918">Do you want to wait for multiple tasks?</text><rect fill="#90EE90" height="131.7266" rx="12.5" ry="12.5" style="stroke:#181818;stroke-width:1.5;" width="258.4854" x="588.8672" y="207.9316"/><text fill="#000000" font-family="sans-serif" font-size="14" lengthAdjust="spacing" textLength="24.8965" x="602.7568" y="233.0391">Use</text><text fill="#000000" font-family="sans-serif" font-size="14" font-weight="bold" lengthAdjust="spacing" textLength="73.9033" x="631.543" y="233.0391">TaskGroup</text><text fill="#000000" font-family="sans-serif" font-size="14" lengthAdjust="spacing" textLength="3.8896" x="598.8672" y="251.6602">&#160;</text><text fill="#000000" font-family="sans-serif" font-size="14" lengthAdjust="spacing" textLength="238.4854" x="598.8672" y="270.2813">$taskGroup = new Async\TaskGroup()</text><text fill="#000000" font-family="sans-serif" font-size="14" lengthAdjust="spacing" textLength="161.0752" x="598.8672" y="288.9023">spawn with $taskGroup ...</text><text fill="#000000" font-family="sans-serif" font-size="14" lengthAdjust="spacing" textLength="108.9443" x="598.8672" y="307.5234">await $taskGroup</text><text fill="#000000" font-family="sans-serif" font-size="14" lengthAdjust="spacing" textLength="3.8896" x="598.8672" y="326.1445">&#160;</text><path d="M538.8672,273.7949 L548.8672,273.7949 C563.8672,273.7949 563.8672,273.7949 578.8672,273.7949 L588.8672,273.7949 " fill="none" style="stroke:#181818;stroke-width:1.0;"/><path d="M229.9854,355.6924 L239.9854,355.6924 C254.9854,355.6924 254.9854,273.7949 269.9854,273.7949 L279.9854,273.7949 " fill="none" style="stroke:#181818;stroke-width:1.0;"/><rect fill="#87CEEB" height="38.6211" rx="12.5" ry="12.5" style="stroke:#181818;stroke-width:1.5;" width="332.792" x="279.9854" y="359.6582"/><text fill="#000000" font-family="sans-serif" font-size="14" lengthAdjust="spacing" textLength="312.792" x="289.9854" y="384.7656">Do you want to wait for multiple tasks with results?</text><rect fill="#90EE90" height="38.6211" rx="12.5" ry="12.5" style="stroke:#181818;stroke-width:1.5;" width="324.2266" x="662.7773" y="359.6582"/><text fill="#000000" font-family="sans-serif" font-size="14" lengthAdjust="spacing" textLength="304.2266" x="672.7773" y="384.7656">Use new Async\TaskGroup(captureResults: true)</text><path d="M612.7773,378.9688 L622.7773,378.9688 C637.7773,378.9688 637.7773,378.9688 652.7773,378.9688 L662.7773,378.9688 " fill="none" style="stroke:#181818;stroke-width:1.0;"/><path d="M229.9854,355.6924 L239.9854,355.6924 C254.9854,355.6924 254.9854,378.9688 269.9854,378.9688 L279.9854,378.9688 " fill="none" style="stroke:#181818;stroke-width:1.0;"/><rect fill="#87CEEB" height="38.6211" rx="12.5" ry="12.5" style="stroke:#181818;stroke-width:1.5;" width="358.4746" x="279.9854" y="418.2793"/><text fill="#000000" font-family="sans-serif" font-size="14" lengthAdjust="spacing" textLength="338.4746" x="289.9854" y="443.3867">Do you want to wait for the first completed task (race)?</text><rect fill="#90EE90" height="38.6211" rx="12.5" ry="12.5" style="stroke:#181818;stroke-width:1.5;" width="341.3027" x="688.46" y="418.2793"/><text fill="#000000" font-family="sans-serif" font-size="14" lengthAdjust="spacing" textLength="321.3027" x="698.46" y="443.3867">Use TaskGroup-&gt;race() or TaskGroup-&gt;firstResult()</text><path d="M638.46,437.5898 L648.46,437.5898 C663.46,437.5898 663.46,437.5898 678.46,437.5898 L688.46,437.5898 " fill="none" style="stroke:#181818;stroke-width:1.0;"/><path d="M229.9854,355.6924 L239.9854,355.6924 C254.9854,355.6924 254.9854,437.5898 269.9854,437.5898 L279.9854,437.5898 " fill="none" style="stroke:#181818;stroke-width:1.0;"/><rect fill="#87CEEB" height="38.6211" rx="12.5" ry="12.5" style="stroke:#181818;stroke-width:1.5;" width="256.5713" x="279.9854" y="476.9004"/><text fill="#000000" font-family="sans-serif" font-size="14" lengthAdjust="spacing" textLength="236.5713" x="289.9854" y="502.0078">Do you want to wait with cancellation?</text><rect fill="#90EE90" height="38.6211" rx="12.5" ry="12.5" style="stroke:#181818;stroke-width:1.5;" width="142.1582" x="586.5566" y="476.9004"/><text fill="#000000" font-family="sans-serif" font-size="14" lengthAdjust="spacing" textLength="122.1582" x="596.5566" y="502.0078">Use await ... until ...</text><path d="M536.5566,496.2109 L546.5566,496.2109 C561.5566,496.2109 561.5566,496.2109 576.5566,496.2109 L586.5566,496.2109 " fill="none" style="stroke:#181818;stroke-width:1.0;"/><path d="M229.9854,355.6924 L239.9854,355.6924 C254.9854,355.6924 254.9854,496.2109 269.9854,496.2109 L279.9854,496.2109 " fill="none" style="stroke:#181818;stroke-width:1.0;"/><rect fill="#ADD8E6" height="38.6211" rx="12.5" ry="12.5" style="stroke:#181818;stroke-width:1.5;" width="203.668" x="10" y="623.4531"/><text fill="#000000" font-family="sans-serif" font-size="14" lengthAdjust="spacing" textLength="183.668" x="20" y="648.5605">Do you need to cancel tasks?</text><rect fill="#87CEEB" height="38.6211" rx="12.5" ry="12.5" style="stroke:#181818;stroke-width:1.5;" width="128.1855" x="263.668" y="535.5215"/><text fill="#000000" font-family="sans-serif" font-size="14" lengthAdjust="spacing" textLength="108.1855" x="273.668" y="560.6289">Single coroutine?</text><rect fill="#90EE90" height="38.6211" rx="12.5" ry="12.5" style="stroke:#181818;stroke-width:1.5;" width="167.0615" x="441.8535" y="535.5215"/><text fill="#000000" font-family="sans-serif" font-size="14" lengthAdjust="spacing" textLength="147.0615" x="451.8535" y="560.6289">Use Coroutine::cancel()</text><path d="M391.8535,554.832 L401.8535,554.832 C416.8535,554.832 416.8535,554.832 431.8535,554.832 L441.8535,554.832 " fill="none" style="stroke:#181818;stroke-width:1.0;"/><path d="M213.668,642.7637 L223.668,642.7637 C238.668,642.7637 238.668,554.832 253.668,554.832 L263.668,554.832 " fill="none" style="stroke:#181818;stroke-width:1.0;"/><rect fill="#87CEEB" height="38.6211" rx="12.5" ry="12.5" style="stroke:#181818;stroke-width:1.5;" width="147.6201" x="263.668" y="594.1426"/><text fill="#000000" font-family="sans-serif" font-size="14" lengthAdjust="spacing" textLength="127.6201" x="273.668" y="619.25">All tasks in a scope?</text><rect fill="#90EE90" height="38.6211" rx="12.5" ry="12.5" style="stroke:#181818;stroke-width:1.5;" width="281.4541" x="461.2881" y="594.1426"/><text fill="#000000" font-family="sans-serif" font-size="14" lengthAdjust="spacing" textLength="261.4541" x="471.2881" y="619.25">Use Scope-&gt;cancel() or Scope-&gt;dispose()</text><path d="M411.2881,613.4531 L421.2881,613.4531 C436.2881,613.4531 436.2881,613.4531 451.2881,613.4531 L461.2881,613.4531 " fill="none" style="stroke:#181818;stroke-width:1.0;"/><path d="M213.668,642.7637 L223.668,642.7637 C238.668,642.7637 238.668,613.4531 253.668,613.4531 L263.668,613.4531 " fill="none" style="stroke:#181818;stroke-width:1.0;"/><rect fill="#87CEEB" height="38.6211" rx="12.5" ry="12.5" style="stroke:#181818;stroke-width:1.5;" width="179.5098" x="263.668" y="652.7637"/><text fill="#000000" font-family="sans-serif" font-size="14" lengthAdjust="spacing" textLength="159.5098" x="273.668" y="677.8711">All tasks in a TaskGroup?</text><rect fill="#90EE90" height="38.6211" rx="12.5" ry="12.5" style="stroke:#181818;stroke-width:1.5;" width="340.5576" x="493.1777" y="652.7637"/><text fill="#000000" font-family="sans-serif" font-size="14" lengthAdjust="spacing" textLength="320.5576" x="503.1777" y="677.8711">Use TaskGroup-&gt;dispose() or TaskGroup-&gt;cancel()</text><path d="M443.1777,672.0742 L453.1777,672.0742 C468.1777,672.0742 468.1777,672.0742 483.1777,672.0742 L493.1777,672.0742 " fill="none" style="stroke:#181818;stroke-width:1.0;"/><path d="M213.668,642.7637 L223.668,642.7637 C238.668,642.7637 238.668,672.0742 253.668,672.0742 L263.668,672.0742 " fill="none" style="stroke:#181818;stroke-width:1.0;"/><rect fill="#87CEEB" height="38.6211" rx="12.5" ry="12.5" style="stroke:#181818;stroke-width:1.5;" width="227.7783" x="263.668" y="711.3848"/><text fill="#000000" font-family="sans-serif" font-size="14" lengthAdjust="spacing" textLength="207.7783" x="273.668" y="736.4922">Timed or safe disposal of Scope?</text><rect fill="#90EE90" height="38.6211" rx="12.5" ry="12.5" style="stroke:#181818;stroke-width:1.5;" width="423.0742" x="541.4463" y="711.3848"/><text fill="#000000" font-family="sans-serif" font-size="14" lengthAdjust="spacing" textLength="403.0742" x="551.4463" y="736.4922">Use Scope-&gt;disposeSafely() or Scope-&gt;disposeAfterTimeout(int)</text><path d="M491.4463,730.6953 L501.4463,730.6953 C516.4463,730.6953 516.4463,730.6953 531.4463,730.6953 L541.4463,730.6953 " fill="none" style="stroke:#181818;stroke-width:1.0;"/><path d="M213.668,642.7637 L223.668,642.7637 C238.668,642.7637 238.668,730.6953 253.668,730.6953 L263.668,730.6953 " fill="none" style="stroke:#181818;stroke-width:1.0;"/><rect fill="#ADD8E6" height="38.6211" rx="12.5" ry="12.5" style="stroke:#181818;stroke-width:1.5;" width="197.4541" x="10" y="799.3164"/><text fill="#000000" font-family="sans-serif" font-size="14" lengthAdjust="spacing" textLength="177.4541" x="20" y="824.4238">Do you need error handling?</text><rect fill="#87CEEB" height="38.6211" rx="12.5" ry="12.5" style="stroke:#181818;stroke-width:1.5;" width="204.4541" x="257.4541" y="770.0059"/><text fill="#000000" font-family="sans-serif" font-size="14" lengthAdjust="spacing" textLength="184.4541" x="267.4541" y="795.1133">Handle coroutine exceptions?</text><rect fill="#90EE90" height="38.6211" rx="12.5" ry="12.5" style="stroke:#181818;stroke-width:1.5;" width="278.3438" x="511.9082" y="770.0059"/><text fill="#000000" font-family="sans-serif" font-size="14" lengthAdjust="spacing" textLength="258.3438" x="521.9082" y="795.1133">Use try { await $coroutine } catch(...) { ... }</text><path d="M461.9082,789.3164 L471.9082,789.3164 C486.9082,789.3164 486.9082,789.3164 501.9082,789.3164 L511.9082,789.3164 " fill="none" style="stroke:#181818;stroke-width:1.0;"/><path d="M207.4541,818.627 L217.4541,818.627 C232.4541,818.627 232.4541,789.3164 247.4541,789.3164 L257.4541,789.3164 " fill="none" style="stroke:#181818;stroke-width:1.0;"/><rect fill="#87CEEB" height="38.6211" rx="12.5" ry="12.5" style="stroke:#181818;stroke-width:1.5;" width="230.916" x="257.4541" y="828.627"/><text fill="#000000" font-family="sans-serif" font-size="14" lengthAdjust="spacing" textLength="210.916" x="267.4541" y="853.7344">Handle all exceptions in a Scope?</text><rect fill="#90EE90" height="38.6211" rx="12.5" ry="12.5" style="stroke:#181818;stroke-width:1.5;" width="239.8301" x="538.3701" y="828.627"/><text fill="#000000" font-family="sans-serif" font-size="14" lengthAdjust="spacing" textLength="219.8301" x="548.3701" y="853.7344">Use Scope-&gt;setExceptionHandler()</text><path d="M488.3701,847.9375 L498.3701,847.9375 C513.3701,847.9375 513.3701,847.9375 528.3701,847.9375 L538.3701,847.9375 " fill="none" style="stroke:#181818;stroke-width:1.0;"/><path d="M207.4541,818.627 L217.4541,818.627 C232.4541,818.627 232.4541,847.9375 247.4541,847.9375 L257.4541,847.9375 " fill="none" style="stroke:#181818;stroke-width:1.0;"/><rect fill="#ADD8E6" height="38.6211" rx="12.5" ry="12.5" style="stroke:#181818;stroke-width:1.5;" width="224.6953" x="10" y="887.248"/><text fill="#000000" font-family="sans-serif" font-size="14" lengthAdjust="spacing" textLength="204.6953" x="20" y="912.3555">Do you need graceful shutdown?</text><rect fill="#90EE90" height="38.6211" rx="12.5" ry="12.5" style="stroke:#181818;stroke-width:1.5;" width="212.1992" x="284.6953" y="887.248"/><text fill="#000000" font-family="sans-serif" font-size="14" lengthAdjust="spacing" textLength="192.1992" x="294.6953" y="912.3555">Use Async\gracefulShutdown()</text><path d="M234.6953,906.5586 L244.6953,906.5586 C259.6953,906.5586 259.6953,906.5586 274.6953,906.5586 L284.6953,906.5586 " fill="none" style="stroke:#181818;stroke-width:1.0;"/><rect fill="#ADD8E6" height="38.6211" rx="12.5" ry="12.5" style="stroke:#181818;stroke-width:1.5;" width="170.9443" x="10" y="945.8691"/><text fill="#000000" font-family="sans-serif" font-size="14" lengthAdjust="spacing" textLength="150.9443" x="20" y="970.9766">Protect critical sections?</text><rect fill="#90EE90" height="38.6211" rx="12.5" ry="12.5" style="stroke:#181818;stroke-width:1.5;" width="293.0957" x="230.9443" y="945.8691"/><text fill="#000000" font-family="sans-serif" font-size="14" lengthAdjust="spacing" textLength="273.0957" x="240.9443" y="970.9766">Use Async\protect(\Closure $criticalSection)</text><path d="M180.9443,965.1797 L190.9443,965.1797 C205.9443,965.1797 205.9443,965.1797 220.9443,965.1797 L230.9443,965.1797 " fill="none" style="stroke:#181818;stroke-width:1.0;"/><rect fill="#ADD8E6" height="38.6211" rx="12.5" ry="12.5" style="stroke:#181818;stroke-width:1.5;" width="297.833" x="10" y="1033.8008"/><text fill="#000000" font-family="sans-serif" font-size="14" lengthAdjust="spacing" textLength="277.833" x="20" y="1058.9082">Do you want to execute logic on completion?</text><rect fill="#90EE90" height="38.6211" rx="12.5" ry="12.5" style="stroke:#181818;stroke-width:1.5;" width="212.9785" x="357.833" y="1004.4902"/><text fill="#000000" font-family="sans-serif" font-size="14" lengthAdjust="spacing" textLength="192.9785" x="367.833" y="1029.5977">Use Coroutine::onFinally()</text><path d="M307.833,1053.1113 L317.833,1053.1113 C332.833,1053.1113 332.833,1023.8008 347.833,1023.8008 L357.833,1023.8008 " fill="none" style="stroke:#181818;stroke-width:1.0;"/><rect fill="#87CEEB" height="38.6211" rx="12.5" ry="12.5" style="stroke:#181818;stroke-width:1.5;" width="124.2891" x="357.833" y="1063.1113"/><text fill="#000000" font-family="sans-serif" font-size="14" lengthAdjust="spacing" textLength="104.2891" x="367.833" y="1088.2188">Need a fallback?</text><rect fill="#90EE90" height="38.6211" rx="12.5" ry="12.5" style="stroke:#181818;stroke-width:1.5;" width="132.8271" x="532.1221" y="1063.1113"/><text fill="#000000" font-family="sans-serif" font-size="14" lengthAdjust="spacing" textLength="112.8271" x="542.1221" y="1088.2188">Use a finally block</text><path d="M482.1221,1082.4219 L492.1221,1082.4219 C507.1221,1082.4219 507.1221,1082.4219 522.1221,1082.4219 L532.1221,1082.4219 " fill="none" style="stroke:#181818;stroke-width:1.0;"/><path d="M307.833,1053.1113 L317.833,1053.1113 C332.833,1053.1113 332.833,1082.4219 347.833,1082.4219 L357.833,1082.4219 " fill="none" style="stroke:#181818;stroke-width:1.0;"/><rect fill="#ADD8E6" height="38.6211" rx="12.5" ry="12.5" style="stroke:#181818;stroke-width:1.5;" width="367.1152" x="10" y="1121.7324"/><text fill="#000000" font-family="sans-serif" font-size="14" lengthAdjust="spacing" textLength="347.1152" x="20" y="1146.8398">Do you need to pass data across coroutine boundaries?</text><rect fill="#90EE90" height="38.6211" rx="12.5" ry="12.5" style="stroke:#181818;stroke-width:1.5;" width="289.9854" x="427.1152" y="1121.7324"/><text fill="#000000" font-family="sans-serif" font-size="14" lengthAdjust="spacing" textLength="269.9854" x="437.1152" y="1146.8398">Use Async\Context, Async\currentContext()</text><path d="M377.1152,1141.043 L387.1152,1141.043 C402.1152,1141.043 402.1152,1141.043 417.1152,1141.043 L427.1152,1141.043 " fill="none" style="stroke:#181818;stroke-width:1.0;"/><rect fill="#ADD8E6" height="38.6211" rx="12.5" ry="12.5" style="stroke:#181818;stroke-width:1.5;" width="228.585" x="10" y="1180.3535"/><text fill="#000000" font-family="sans-serif" font-size="14" lengthAdjust="spacing" textLength="208.585" x="20" y="1205.4609">Do you need context inheritance?</text><rect fill="#90EE90" height="38.6211" rx="12.5" ry="12.5" style="stroke:#181818;stroke-width:1.5;" width="143.7168" x="288.585" y="1180.3535"/><text fill="#000000" font-family="sans-serif" font-size="14" lengthAdjust="spacing" textLength="123.7168" x="298.585" y="1205.4609">Use Scope::inherit()</text><path d="M238.585,1199.6641 L248.585,1199.6641 C263.585,1199.6641 263.585,1199.6641 278.585,1199.6641 L288.585,1199.6641 " fill="none" style="stroke:#181818;stroke-width:1.0;"/><rect fill="#ADD8E6" height="38.6211" rx="12.5" ry="12.5" style="stroke:#181818;stroke-width:1.5;" width="479.1221" x="10" y="1238.9746"/><text fill="#000000" font-family="sans-serif" font-size="14" lengthAdjust="spacing" textLength="459.1221" x="20" y="1264.082">Are you managing implicit coroutines or worried about zombie coroutines?</text><rect fill="#87CEEB" height="38.6211" rx="12.5" ry="12.5" style="stroke:#181818;stroke-width:1.5;" width="201.3232" x="539.1221" y="1238.9746"/><text fill="#000000" font-family="sans-serif" font-size="14" lengthAdjust="spacing" textLength="181.3232" x="549.1221" y="1264.082">Need safe or timed disposal?</text><rect fill="#90EE90" height="38.6211" rx="12.5" ry="12.5" style="stroke:#181818;stroke-width:1.5;" width="398.1709" x="790.4453" y="1238.9746"/><text fill="#000000" font-family="sans-serif" font-size="14" lengthAdjust="spacing" textLength="378.1709" x="800.4453" y="1264.082">Use Scope::disposeSafely() or Scope::disposeAfterTimeout()</text><path d="M740.4453,1258.2852 L750.4453,1258.2852 C765.4453,1258.2852 765.4453,1258.2852 780.4453,1258.2852 L790.4453,1258.2852 " fill="none" style="stroke:#181818;stroke-width:1.0;"/><path d="M489.1221,1258.2852 L499.1221,1258.2852 C514.1221,1258.2852 514.1221,1258.2852 529.1221,1258.2852 L539.1221,1258.2852 " fill="none" style="stroke:#181818;stroke-width:1.0;"/><!--SRC=[dLRRRjiu47tNLmomVP2CncYAO1EetMnTntj9csuHEttPze6cHpOHYHHuYUCM_VSTYfASYwG4-sQJCsTcpfmPwfsnJDj2o5N1ocZqxo-vM6_iCdVu3SuKx9I3BPCMh0AkaLa41bnfvQoG-7iqQZpM6b5-Wok3O4gsbP0voQrGyXChC1wFnqbbUt8ydStUFmCQCgqAVv0hutGLgJVK3o1y-DaRm5Zjk2MK5U5BxhH6oNSzaCpi98SNXgiIM-HXOhPCMCYKfdGr6fVRRbvOPVTsuWDydVW_R9dZwH0lBN91gABC4Impr-PnwcaLOJHQqFMVH64v6aNH2zlyWzz0uXP2wDOcJg90u5RO3TonfgAZaEt-C7hpFn8Do84KqqDuLsASbRvVby4n1MeW9i-ARpSa7Q6DfLONb8UbfljK8DQCOzAJGnlvuDIRnGaGr9t32Z5a4p-THrKqPv9ZdZC_0trIgwozmfoq8gzexrQQH5-6ga7t8jZdCHToJQpV6ysEaDFcFaq3reDo9dcD3aAIdAifw86Q-xk3qmR6CrOVhOGfbS5Xw9RTfrlIuZteIcS52r4GLsHeM8OGN5aEAWlP3HTJHvgJQxxhgccIMTG-1B4O2scJeOQXrWImONALKtVkz-ilVtgdNu2t74ilbhuviNf7-wWUoxtVJnA5vPjgnNPkmZeI8_htCK8Fdi68GJjhl0AIZWUBNli1obmEPkFiIcrbzp8C4zyOpslRnz2VjRB8QPgri89J8mtobgK-s38unL-duVKWlchtUV1EdjZeU8lSqOEKgxNWe6IpJEfP7fmh9QUjyGDjVl84CSYe5ql6h_lM0YqmIIOxMEQANp-n4afc3AoOPS2uLlHxBusbSdB5jC11igPAMhorB-k_uNcqzUbmhtam8Z5ja0ZsuzWTgH9JcjPsZq4dr2EFMZ39rZGh88X1mONTLsFyC6wLfdA8GohDmdTLBCMT6Ngm4YksgotWtuLgBJJhO4ZpQTgt1TgRUriWYTuXVJtLNr3HvvmqT7Nn4MvG6v8078vVltfzD3wEvyp274juTGo7H-dXINfu3BFPV07-FedYYxyNO9JJl5fRLekb2rezPpSCBlqRKM0A_vGepyy-D0SmapT2ArbGqwBpBnTxWr-F3juB7r9JAl3b8Zh3ZD4BHXvShOXb-cXO_75m4draSktOch2rYwOa6berALnU_GS0]--></g></svg>