<svg xmlns="http://www.w3.org/2000/svg" xmlns:xlink="http://www.w3.org/1999/xlink" contentStyleType="text/css" height="1689px" preserveAspectRatio="none" style="width:1309px;height:1689px;background:#FFFFFF;" version="1.1" viewBox="0 0 1309 1689" width="1309px" zoomAndPan="magnify"><defs/><g><rect fill="#ADD8E6" height="38.6211" rx="12.5" ry="12.5" style="stroke:#181818;stroke-width:1.5;" width="237.1299" x="10" y="97.2422"/><text fill="#000000" font-family="sans-serif" font-size="14" lengthAdjust="spacing" textLength="217.1299" x="20" y="122.3496">Do you want to create a coroutine?</text><rect fill="#90EE90" height="38.6211" rx="12.5" ry="12.5" style="stroke:#181818;stroke-width:1.5;" width="237.0957" x="297.1299" y="20"/><text fill="#000000" font-family="sans-serif" font-size="14" lengthAdjust="spacing" textLength="217.0957" x="307.1299" y="45.1074">Use spawn: spawn functionName()</text><path d="M247.1299,116.5527 L257.1299,116.5527 C272.1299,116.5527 272.1299,39.3105 287.1299,39.3105 L297.1299,39.3105 " fill="none" style="stroke:#181818;stroke-width:1.0;"/><rect fill="#87CEEB" height="38.6211" rx="12.5" ry="12.5" style="stroke:#181818;stroke-width:1.5;" width="329.7158" x="297.1299" y="78.6211"/><text fill="#000000" font-family="sans-serif" font-size="14" lengthAdjust="spacing" textLength="309.7158" x="307.1299" y="103.7285">Do you want to create a coroutine from a closure?</text><rect fill="#90EE90" height="113.1055" rx="12.5" ry="12.5" style="stroke:#181818;stroke-width:1.5;" width="180.3027" x="676.8457" y="41.3789"/><text fill="#000000" font-family="sans-serif" font-size="14" lengthAdjust="spacing" textLength="109.7168" x="690.7354" y="66.4863">Use spawn block:</text><text fill="#000000" font-family="sans-serif" font-size="14" lengthAdjust="spacing" textLength="3.8896" x="686.8457" y="85.1074">&#160;</text><text fill="#000000" font-family="sans-serif" font-size="14" lengthAdjust="spacing" textLength="160.3027" x="686.8457" y="103.7285">spawn use($some): void {</text><text fill="#000000" font-family="sans-serif" font-size="14" lengthAdjust="spacing" textLength="4.6758" x="686.8457" y="122.3496">}</text><text fill="#000000" font-family="sans-serif" font-size="14" lengthAdjust="spacing" textLength="3.8896" x="686.8457" y="140.9707">&#160;</text><path d="M626.8457,97.9316 L636.8457,97.9316 C651.8457,97.9316 651.8457,97.9316 666.8457,97.9316 L676.8457,97.9316 " fill="none" style="stroke:#181818;stroke-width:1.0;"/><path d="M247.1299,116.5527 L257.1299,116.5527 C272.1299,116.5527 272.1299,97.9316 287.1299,97.9316 L297.1299,97.9316 " fill="none" style="stroke:#181818;stroke-width:1.0;"/><rect fill="#87CEEB" height="38.6211" rx="12.5" ry="12.5" style="stroke:#181818;stroke-width:1.5;" width="293.916" x="297.1299" y="174.4844"/><text fill="#000000" font-family="sans-serif" font-size="14" lengthAdjust="spacing" textLength="273.916" x="307.1299" y="199.5918">Do you want to use structured concurrency?</text><rect fill="#90EE90" height="38.6211" rx="12.5" ry="12.5" style="stroke:#181818;stroke-width:1.5;" width="228.5576" x="641.0459" y="174.4844"/><text fill="#000000" font-family="sans-serif" font-size="14" lengthAdjust="spacing" textLength="208.5576" x="651.0459" y="199.5918">Use async block: async $scope {}</text><path d="M591.0459,193.7949 L601.0459,193.7949 C616.0459,193.7949 616.0459,193.7949 631.0459,193.7949 L641.0459,193.7949 " fill="none" style="stroke:#181818;stroke-width:1.0;"/><path d="M247.1299,116.5527 L257.1299,116.5527 C272.1299,116.5527 272.1299,193.7949 287.1299,193.7949 L297.1299,193.7949 " fill="none" style="stroke:#181818;stroke-width:1.0;"/><rect fill="#ADD8E6" height="38.6211" rx="12.5" ry="12.5" style="stroke:#181818;stroke-width:1.5;" width="219.9854" x="10" y="350.3477"/><text fill="#000000" font-family="sans-serif" font-size="14" lengthAdjust="spacing" textLength="199.9854" x="20" y="375.4551">Do you want to wait for a result?</text><rect fill="#90EE90" height="38.6211" rx="12.5" ry="12.5" style="stroke:#181818;stroke-width:1.5;" width="244.8887" x="279.9854" y="233.1055"/><text fill="#000000" font-family="sans-serif" font-size="14" lengthAdjust="spacing" textLength="224.8887" x="289.9854" y="258.2129">Use await: await &lt;Async\Awaitable&gt;</text><path d="M229.9854,369.6582 L239.9854,369.6582 C254.9854,369.6582 254.9854,252.416 269.9854,252.416 L279.9854,252.416 " fill="none" style="stroke:#181818;stroke-width:1.0;"/><rect fill="#87CEEB" height="38.6211" rx="12.5" ry="12.5" style="stroke:#181818;stroke-width:1.5;" width="232.4268" x="279.9854" y="291.7266"/><text fill="#000000" font-family="sans-serif" font-size="14" lengthAdjust="spacing" textLength="212.4268" x="289.9854" y="316.834">Are you waiting for multiple tasks?</text><rect fill="#90EE90" height="38.6211" rx="12.5" ry="12.5" style="stroke:#181818;stroke-width:1.5;" width="150.7031" x="562.4121" y="291.7266"/><text fill="#000000" font-family="sans-serif" font-size="14" lengthAdjust="spacing" textLength="130.7031" x="572.4121" y="316.834">Use await Async\all()</text><path d="M512.4121,311.0371 L522.4121,311.0371 C537.4121,311.0371 537.4121,311.0371 552.4121,311.0371 L562.4121,311.0371 " fill="none" style="stroke:#181818;stroke-width:1.0;"/><path d="M229.9854,369.6582 L239.9854,369.6582 C254.9854,369.6582 254.9854,311.0371 269.9854,311.0371 L279.9854,311.0371 " fill="none" style="stroke:#181818;stroke-width:1.0;"/><rect fill="#87CEEB" height="38.6211" rx="12.5" ry="12.5" style="stroke:#181818;stroke-width:1.5;" width="230.875" x="279.9854" y="350.3477"/><text fill="#000000" font-family="sans-serif" font-size="14" lengthAdjust="spacing" textLength="210.875" x="289.9854" y="375.4551">Are you waiting for all child tasks?</text><rect fill="#90EE90" height="38.6211" rx="12.5" ry="12.5" style="stroke:#181818;stroke-width:1.5;" width="156.9307" x="560.8604" y="350.3477"/><text fill="#000000" font-family="sans-serif" font-size="14" lengthAdjust="spacing" textLength="136.9307" x="570.8604" y="375.4551">Use Scope::allTasks()</text><path d="M510.8604,369.6582 L520.8604,369.6582 C535.8604,369.6582 535.8604,369.6582 550.8604,369.6582 L560.8604,369.6582 " fill="none" style="stroke:#181818;stroke-width:1.0;"/><path d="M229.9854,369.6582 L239.9854,369.6582 C254.9854,369.6582 254.9854,369.6582 269.9854,369.6582 L279.9854,369.6582 " fill="none" style="stroke:#181818;stroke-width:1.0;"/><rect fill="#87CEEB" height="38.6211" rx="12.5" ry="12.5" style="stroke:#181818;stroke-width:1.5;" width="251.1025" x="279.9854" y="408.9688"/><text fill="#000000" font-family="sans-serif" font-size="14" lengthAdjust="spacing" textLength="231.1025" x="289.9854" y="434.0762">Are you waiting for direct child tasks?</text><rect fill="#90EE90" height="38.6211" rx="12.5" ry="12.5" style="stroke:#181818;stroke-width:1.5;" width="177.1582" x="581.0879" y="408.9688"/><text fill="#000000" font-family="sans-serif" font-size="14" lengthAdjust="spacing" textLength="157.1582" x="591.0879" y="434.0762">Use Scope::directTasks()</text><path d="M531.0879,428.2793 L541.0879,428.2793 C556.0879,428.2793 556.0879,428.2793 571.0879,428.2793 L581.0879,428.2793 " fill="none" style="stroke:#181818;stroke-width:1.0;"/><path d="M229.9854,369.6582 L239.9854,369.6582 C254.9854,369.6582 254.9854,428.2793 269.9854,428.2793 L279.9854,428.2793 " fill="none" style="stroke:#181818;stroke-width:1.0;"/><rect fill="#87CEEB" height="38.6211" rx="12.5" ry="12.5" style="stroke:#181818;stroke-width:1.5;" width="237.123" x="279.9854" y="467.5898"/><text fill="#000000" font-family="sans-serif" font-size="14" lengthAdjust="spacing" textLength="217.123" x="289.9854" y="492.6973">You want to wait with cancellation?</text><rect fill="#90EE90" height="38.6211" rx="12.5" ry="12.5" style="stroke:#181818;stroke-width:1.5;" width="335.957" x="567.1084" y="467.5898"/><text fill="#000000" font-family="sans-serif" font-size="14" lengthAdjust="spacing" textLength="315.957" x="577.1084" y="492.6973">Use await until: await $coroutine until $cancellation</text><path d="M517.1084,486.9004 L527.1084,486.9004 C542.1084,486.9004 542.1084,486.9004 557.1084,486.9004 L567.1084,486.9004 " fill="none" style="stroke:#181818;stroke-width:1.0;"/><path d="M229.9854,369.6582 L239.9854,369.6582 C254.9854,369.6582 254.9854,486.9004 269.9854,486.9004 L279.9854,486.9004 " fill="none" style="stroke:#181818;stroke-width:1.0;"/><rect fill="#ADD8E6" height="38.6211" rx="12.5" ry="12.5" style="stroke:#181818;stroke-width:1.5;" width="203.668" x="10" y="614.1426"/><text fill="#000000" font-family="sans-serif" font-size="14" lengthAdjust="spacing" textLength="183.668" x="20" y="639.25">Do you need to cancel tasks?</text><rect fill="#87CEEB" height="38.6211" rx="12.5" ry="12.5" style="stroke:#181818;stroke-width:1.5;" width="279.1572" x="263.668" y="526.2109"/><text fill="#000000" font-family="sans-serif" font-size="14" lengthAdjust="spacing" textLength="259.1572" x="273.668" y="551.3184">Do you want to cancel a single coroutine?</text><rect fill="#90EE90" height="38.6211" rx="12.5" ry="12.5" style="stroke:#181818;stroke-width:1.5;" width="167.0615" x="592.8252" y="526.2109"/><text fill="#000000" font-family="sans-serif" font-size="14" lengthAdjust="spacing" textLength="147.0615" x="602.8252" y="551.3184">Use Coroutine::cancel()</text><path d="M542.8252,545.5215 L552.8252,545.5215 C567.8252,545.5215 567.8252,545.5215 582.8252,545.5215 L592.8252,545.5215 " fill="none" style="stroke:#181818;stroke-width:1.0;"/><path d="M213.668,633.4531 L223.668,633.4531 C238.668,633.4531 238.668,545.5215 253.668,545.5215 L263.668,545.5215 " fill="none" style="stroke:#181818;stroke-width:1.0;"/><rect fill="#87CEEB" height="38.6211" rx="12.5" ry="12.5" style="stroke:#181818;stroke-width:1.5;" width="308.709" x="263.668" y="643.4531"/><text fill="#000000" font-family="sans-serif" font-size="14" lengthAdjust="spacing" textLength="288.709" x="273.668" y="668.5605">Do you want to cancel all child tasks in scope?</text><rect fill="#90EE90" height="38.6211" rx="12.5" ry="12.5" style="stroke:#181818;stroke-width:1.5;" width="153.8408" x="622.377" y="584.832"/><text fill="#000000" font-family="sans-serif" font-size="14" lengthAdjust="spacing" textLength="133.8408" x="632.377" y="609.9395">Use Scope::dispose()</text><path d="M572.377,662.7637 L582.377,662.7637 C597.377,662.7637 597.377,604.1426 612.377,604.1426 L622.377,604.1426 " fill="none" style="stroke:#181818;stroke-width:1.0;"/><rect fill="#87CEEB" height="38.6211" rx="12.5" ry="12.5" style="stroke:#181818;stroke-width:1.5;" width="267.4951" x="622.377" y="643.4531"/><text fill="#000000" font-family="sans-serif" font-size="14" lengthAdjust="spacing" textLength="247.4951" x="632.377" y="668.5605">Do you need a timeout before disposal?</text><rect fill="#90EE90" height="38.6211" rx="12.5" ry="12.5" style="stroke:#181818;stroke-width:1.5;" width="357.709" x="939.8721" y="643.4531"/><text fill="#000000" font-family="sans-serif" font-size="14" lengthAdjust="spacing" textLength="337.709" x="949.8721" y="668.5605">Use Scope::disposeAfterTimeout(positive int $timeout)</text><path d="M889.8721,662.7637 L899.8721,662.7637 C914.8721,662.7637 914.8721,662.7637 929.8721,662.7637 L939.8721,662.7637 " fill="none" style="stroke:#181818;stroke-width:1.0;"/><path d="M572.377,662.7637 L582.377,662.7637 C597.377,662.7637 597.377,662.7637 612.377,662.7637 L622.377,662.7637 " fill="none" style="stroke:#181818;stroke-width:1.0;"/><rect fill="#87CEEB" height="38.6211" rx="12.5" ry="12.5" style="stroke:#181818;stroke-width:1.5;" width="255.0469" x="622.377" y="702.0742"/><text fill="#000000" font-family="sans-serif" font-size="14" lengthAdjust="spacing" textLength="235.0469" x="632.377" y="727.1816">Do you need a safe disposal method?</text><rect fill="#90EE90" height="38.6211" rx="12.5" ry="12.5" style="stroke:#181818;stroke-width:1.5;" width="192.751" x="927.4238" y="702.0742"/><text fill="#000000" font-family="sans-serif" font-size="14" lengthAdjust="spacing" textLength="172.751" x="937.4238" y="727.1816">Use Scope::disposeSafely()</text><path d="M877.4238,721.3848 L887.4238,721.3848 C902.4238,721.3848 902.4238,721.3848 917.4238,721.3848 L927.4238,721.3848 " fill="none" style="stroke:#181818;stroke-width:1.0;"/><path d="M572.377,662.7637 L582.377,662.7637 C597.377,662.7637 597.377,721.3848 612.377,721.3848 L622.377,721.3848 " fill="none" style="stroke:#181818;stroke-width:1.0;"/><path d="M213.668,633.4531 L223.668,633.4531 C238.668,633.4531 238.668,662.7637 253.668,662.7637 L263.668,662.7637 " fill="none" style="stroke:#181818;stroke-width:1.0;"/><rect fill="#ADD8E6" height="38.6211" rx="12.5" ry="12.5" style="stroke:#181818;stroke-width:1.5;" width="253.4609" x="10" y="760.6953"/><text fill="#000000" font-family="sans-serif" font-size="14" lengthAdjust="spacing" textLength="233.4609" x="20" y="785.8027">Do you need structured concurrency?</text><rect fill="#90EE90" height="38.6211" rx="12.5" ry="12.5" style="stroke:#181818;stroke-width:1.5;" width="228.5576" x="313.4609" y="760.6953"/><text fill="#000000" font-family="sans-serif" font-size="14" lengthAdjust="spacing" textLength="208.5576" x="323.4609" y="785.8027">Use async block: async $scope {}</text><path d="M263.4609,780.0059 L273.4609,780.0059 C288.4609,780.0059 288.4609,780.0059 303.4609,780.0059 L313.4609,780.0059 " fill="none" style="stroke:#181818;stroke-width:1.0;"/><rect fill="#ADD8E6" height="38.6211" rx="12.5" ry="12.5" style="stroke:#181818;stroke-width:1.5;" width="332.8262" x="10" y="819.3164"/><text fill="#000000" font-family="sans-serif" font-size="14" lengthAdjust="spacing" textLength="312.8262" x="20" y="844.4238">Do you want to group tasks with a shared lifetime?</text><rect fill="#90EE90" height="38.6211" rx="12.5" ry="12.5" style="stroke:#181818;stroke-width:1.5;" width="88.4824" x="392.8262" y="819.3164"/><text fill="#000000" font-family="sans-serif" font-size="14" lengthAdjust="spacing" textLength="68.4824" x="402.8262" y="844.4238">Use Scope</text><path d="M342.8262,838.627 L352.8262,838.627 C367.8262,838.627 367.8262,838.627 382.8262,838.627 L392.8262,838.627 " fill="none" style="stroke:#181818;stroke-width:1.0;"/><rect fill="#ADD8E6" height="38.6211" rx="12.5" ry="12.5" style="stroke:#181818;stroke-width:1.5;" width="197.4541" x="10" y="963.1113"/><text fill="#000000" font-family="sans-serif" font-size="14" lengthAdjust="spacing" textLength="177.4541" x="20" y="988.2188">Do you need error handling?</text><rect fill="#87CEEB" height="38.6211" rx="12.5" ry="12.5" style="stroke:#181818;stroke-width:1.5;" width="299.4053" x="257.4541" y="933.8008"/><text fill="#000000" font-family="sans-serif" font-size="14" lengthAdjust="spacing" textLength="279.4053" x="267.4541" y="958.9082">Do you want to handle coroutine exceptions?</text><rect fill="#90EE90" height="150.3477" rx="12.5" ry="12.5" style="stroke:#181818;stroke-width:1.5;" width="171.71" x="606.8594" y="877.9375"/><text fill="#000000" font-family="sans-serif" font-size="14" lengthAdjust="spacing" textLength="147.8203" x="620.749" y="903.0449">Use try-catch with await</text><text fill="#000000" font-family="sans-serif" font-size="14" lengthAdjust="spacing" textLength="3.8896" x="616.8594" y="921.666">&#160;</text><text fill="#000000" font-family="sans-serif" font-size="14" lengthAdjust="spacing" textLength="24.1172" x="616.8594" y="940.2871">try {</text><text fill="#000000" font-family="sans-serif" font-size="14" lengthAdjust="spacing" textLength="101.9512" x="647.9766" y="958.9082">await $coroutine</text><text fill="#000000" font-family="sans-serif" font-size="14" lengthAdjust="spacing" textLength="148.6406" x="616.8594" y="977.5293">} catch (\Exception $e) {</text><text fill="#000000" font-family="sans-serif" font-size="14" lengthAdjust="spacing" textLength="119.8545" x="647.9766" y="996.1504">// Handle exception</text><text fill="#000000" font-family="sans-serif" font-size="14" lengthAdjust="spacing" textLength="4.6758" x="616.8594" y="1014.7715">}</text><path d="M556.8594,953.1113 L566.8594,953.1113 C581.8594,953.1113 581.8594,953.1113 596.8594,953.1113 L606.8594,953.1113 " fill="none" style="stroke:#181818;stroke-width:1.0;"/><path d="M207.4541,982.4219 L217.4541,982.4219 C232.4541,982.4219 232.4541,953.1113 247.4541,953.1113 L257.4541,953.1113 " fill="none" style="stroke:#181818;stroke-width:1.0;"/><rect fill="#87CEEB" height="38.6211" rx="12.5" ry="12.5" style="stroke:#181818;stroke-width:1.5;" width="298.6396" x="257.4541" y="1048.2852"/><text fill="#000000" font-family="sans-serif" font-size="14" lengthAdjust="spacing" textLength="278.6396" x="267.4541" y="1073.3926">Do you need to handle all scope exceptions?</text><rect fill="#90EE90" height="38.6211" rx="12.5" ry="12.5" style="stroke:#181818;stroke-width:1.5;" width="234.7715" x="606.0938" y="1048.2852"/><text fill="#000000" font-family="sans-serif" font-size="14" lengthAdjust="spacing" textLength="214.7715" x="616.0938" y="1073.3926">Use Scope::setExceptionHandler()</text><path d="M556.0938,1067.5957 L566.0938,1067.5957 C581.0938,1067.5957 581.0938,1067.5957 596.0938,1067.5957 L606.0938,1067.5957 " fill="none" style="stroke:#181818;stroke-width:1.0;"/><path d="M207.4541,982.4219 L217.4541,982.4219 C232.4541,982.4219 232.4541,1067.5957 247.4541,1067.5957 L257.4541,1067.5957 " fill="none" style="stroke:#181818;stroke-width:1.0;"/><rect fill="#ADD8E6" height="38.6211" rx="12.5" ry="12.5" style="stroke:#181818;stroke-width:1.5;" width="224.6953" x="10" y="1106.9063"/><text fill="#000000" font-family="sans-serif" font-size="14" lengthAdjust="spacing" textLength="204.6953" x="20" y="1132.0137">Do you need graceful shutdown?</text><rect fill="#90EE90" height="38.6211" rx="12.5" ry="12.5" style="stroke:#181818;stroke-width:1.5;" width="212.1992" x="284.6953" y="1106.9063"/><text fill="#000000" font-family="sans-serif" font-size="14" lengthAdjust="spacing" textLength="192.1992" x="294.6953" y="1132.0137">Use Async\gracefulShutdown()</text><path d="M234.6953,1126.2168 L244.6953,1126.2168 C259.6953,1126.2168 259.6953,1126.2168 274.6953,1126.2168 L284.6953,1126.2168 " fill="none" style="stroke:#181818;stroke-width:1.0;"/><rect fill="#ADD8E6" height="38.6211" rx="12.5" ry="12.5" style="stroke:#181818;stroke-width:1.5;" width="266.668" x="10" y="1165.5273"/><text fill="#000000" font-family="sans-serif" font-size="14" lengthAdjust="spacing" textLength="246.668" x="20" y="1190.6348">Do you want to protect critical sections?</text><rect fill="#90EE90" height="38.6211" rx="12.5" ry="12.5" style="stroke:#181818;stroke-width:1.5;" width="293.0957" x="326.668" y="1165.5273"/><text fill="#000000" font-family="sans-serif" font-size="14" lengthAdjust="spacing" textLength="273.0957" x="336.668" y="1190.6348">Use Async\protect(\Closure $criticalSection)</text><path d="M276.668,1184.8379 L286.668,1184.8379 C301.668,1184.8379 301.668,1184.8379 316.668,1184.8379 L326.668,1184.8379 " fill="none" style="stroke:#181818;stroke-width:1.0;"/><rect fill="#ADD8E6" height="38.6211" rx="12.5" ry="12.5" style="stroke:#181818;stroke-width:1.5;" width="297.833" x="10" y="1309.3223"/><text fill="#000000" font-family="sans-serif" font-size="14" lengthAdjust="spacing" textLength="277.833" x="20" y="1334.4297">Do you want to execute logic on completion?</text><rect fill="#90EE90" height="38.6211" rx="12.5" ry="12.5" style="stroke:#181818;stroke-width:1.5;" width="212.9785" x="357.833" y="1224.1484"/><text fill="#000000" font-family="sans-serif" font-size="14" lengthAdjust="spacing" textLength="192.9785" x="367.833" y="1249.2559">Use Coroutine::onCompletion()</text><path d="M307.833,1328.6328 L317.833,1328.6328 C332.833,1328.6328 332.833,1243.459 347.833,1243.459 L357.833,1243.459 " fill="none" style="stroke:#181818;stroke-width:1.0;"/><rect fill="#87CEEB" height="38.6211" rx="12.5" ry="12.5" style="stroke:#181818;stroke-width:1.5;" width="170.2129" x="357.833" y="1338.6328"/><text fill="#000000" font-family="sans-serif" font-size="14" lengthAdjust="spacing" textLength="150.2129" x="367.833" y="1363.7402">Do you need a fallback?</text><rect fill="#90EE90" height="150.3477" rx="12.5" ry="12.5" style="stroke:#181818;stroke-width:1.5;" width="153.0684" x="578.0459" y="1282.7695"/><text fill="#000000" font-family="sans-serif" font-size="14" lengthAdjust="spacing" textLength="101.1514" x="591.9355" y="1307.877">Use finally block</text><text fill="#000000" font-family="sans-serif" font-size="14" lengthAdjust="spacing" textLength="3.8896" x="588.0459" y="1326.498">&#160;</text><text fill="#000000" font-family="sans-serif" font-size="14" lengthAdjust="spacing" textLength="24.1172" x="588.0459" y="1345.1191">try {</text><text fill="#000000" font-family="sans-serif" font-size="14" lengthAdjust="spacing" textLength="101.9512" x="619.1631" y="1363.7402">await $coroutine</text><text fill="#000000" font-family="sans-serif" font-size="14" lengthAdjust="spacing" textLength="52.9238" x="588.0459" y="1382.3613">} finally {</text><text fill="#000000" font-family="sans-serif" font-size="14" lengthAdjust="spacing" textLength="3.8896" x="588.0459" y="1400.9824">&#160;</text><text fill="#000000" font-family="sans-serif" font-size="14" lengthAdjust="spacing" textLength="4.6758" x="588.0459" y="1419.6035">}</text><path d="M528.0459,1357.9434 L538.0459,1357.9434 C553.0459,1357.9434 553.0459,1357.9434 568.0459,1357.9434 L578.0459,1357.9434 " fill="none" style="stroke:#181818;stroke-width:1.0;"/><path d="M307.833,1328.6328 L317.833,1328.6328 C332.833,1328.6328 332.833,1357.9434 347.833,1357.9434 L357.833,1357.9434 " fill="none" style="stroke:#181818;stroke-width:1.0;"/><rect fill="#ADD8E6" height="38.6211" rx="12.5" ry="12.5" style="stroke:#181818;stroke-width:1.5;" width="367.1152" x="10" y="1453.1172"/><text fill="#000000" font-family="sans-serif" font-size="14" lengthAdjust="spacing" textLength="347.1152" x="20" y="1478.2246">Do you need to pass data across coroutine boundaries?</text><rect fill="#90EE90" height="38.6211" rx="12.5" ry="12.5" style="stroke:#181818;stroke-width:1.5;" width="289.9854" x="427.1152" y="1453.1172"/><text fill="#000000" font-family="sans-serif" font-size="14" lengthAdjust="spacing" textLength="269.9854" x="437.1152" y="1478.2246">Use Async\Context, Async\currentContext()</text><path d="M377.1152,1472.4277 L387.1152,1472.4277 C402.1152,1472.4277 402.1152,1472.4277 417.1152,1472.4277 L427.1152,1472.4277 " fill="none" style="stroke:#181818;stroke-width:1.0;"/><rect fill="#ADD8E6" height="38.6211" rx="12.5" ry="12.5" style="stroke:#181818;stroke-width:1.5;" width="228.585" x="10" y="1511.7383"/><text fill="#000000" font-family="sans-serif" font-size="14" lengthAdjust="spacing" textLength="208.585" x="20" y="1536.8457">Do you need context inheritance?</text><rect fill="#90EE90" height="38.6211" rx="12.5" ry="12.5" style="stroke:#181818;stroke-width:1.5;" width="147.6064" x="288.585" y="1511.7383"/><text fill="#000000" font-family="sans-serif" font-size="14" lengthAdjust="spacing" textLength="127.6064" x="298.585" y="1536.8457">Use Scope::inherit();</text><path d="M238.585,1531.0488 L248.585,1531.0488 C263.585,1531.0488 263.585,1531.0488 278.585,1531.0488 L288.585,1531.0488 " fill="none" style="stroke:#181818;stroke-width:1.0;"/><rect fill="#ADD8E6" height="38.6211" rx="12.5" ry="12.5" style="stroke:#181818;stroke-width:1.5;" width="256.5645" x="10" y="1599.6699"/><text fill="#000000" font-family="sans-serif" font-size="14" lengthAdjust="spacing" textLength="236.5645" x="20" y="1624.7773">Are you managing implicit coroutines?</text><rect fill="#87CEEB" height="38.6211" rx="12.5" ry="12.5" style="stroke:#181818;stroke-width:1.5;" width="284.6055" x="316.5645" y="1599.6699"/><text fill="#000000" font-family="sans-serif" font-size="14" lengthAdjust="spacing" textLength="264.6055" x="326.5645" y="1624.7773">Do you want to handle zombie coroutines?</text><rect fill="#90EE90" height="38.6211" rx="12.5" ry="12.5" style="stroke:#181818;stroke-width:1.5;" width="192.751" x="651.1699" y="1570.3594"/><text fill="#000000" font-family="sans-serif" font-size="14" lengthAdjust="spacing" textLength="172.751" x="661.1699" y="1595.4668">Use Scope::disposeSafely()</text><path d="M601.1699,1618.9805 L611.1699,1618.9805 C626.1699,1618.9805 626.1699,1589.6699 641.1699,1589.6699 L651.1699,1589.6699 " fill="none" style="stroke:#181818;stroke-width:1.0;"/><rect fill="#90EE90" height="38.6211" rx="12.5" ry="12.5" style="stroke:#181818;stroke-width:1.5;" width="233.9785" x="651.1699" y="1628.9805"/><text fill="#000000" font-family="sans-serif" font-size="14" lengthAdjust="spacing" textLength="213.9785" x="661.1699" y="1654.0879">Use Scope::disposeAfterTimeout()</text><path d="M601.1699,1618.9805 L611.1699,1618.9805 C626.1699,1618.9805 626.1699,1648.291 641.1699,1648.291 L651.1699,1648.291 " fill="none" style="stroke:#181818;stroke-width:1.0;"/><path d="M266.5645,1618.9805 L276.5645,1618.9805 C291.5645,1618.9805 291.5645,1618.9805 306.5645,1618.9805 L316.5645,1618.9805 " fill="none" style="stroke:#181818;stroke-width:1.0;"/><!--SRC=[hLRRRjj647qklsA0-a4AwYGEZDXWYZQEhA9ruZQ8v015dOVLSYWklDmbzY9PCVplcUMIagrGj0BqIU9ovfovd9dbM-kOSQLGMScgvDb_FqinBznCUlm2vnfMsiEIAGTE0pV87083hetsJYZyFNdMUimDele2LnR1LcofqlW3kLVS2Qt-PYKEXhNzwSbeF7wt1ppaHfVXG6hhJStsc2xTyC5CQdwJ9abyyXO71rQNE4nXeKK6TybzygQFtWSaPpntH9LH48fxOr3nrVUyDIspAyKRskRXm79T8TpTznTooOI3N1jApQ3rqdNNaGMxDFx0hsU1uVeiFB2PnDyUvN9ci64GLBXv3LuIiAWaWcFsnkvAeWQFs4pAhGvrmP8Ly4B8h1Tt4WgHfcGy3LPxu6R287VxGqVxBlH_jqkz5Au0pXH7ALaGOsynl792jcK_s8YnFgU31pZTRLP8-Wc2hYqtkUnMVZHaOAaOrB17yzKHvwXzdwRHzOd1Qk0VDmw4WbgkJvNPLjh6qVsUeawLWHCbKaGmG-eaGlHXiaP-4leiTsYc4M501oI91L9qLFm6jvVRidp322MwGcVx4K_8Kwv2PZkxk7iX_9_xO4xjh9gkr5gbh0eMIAN8CHIXcx5EfoTwD8O6gs0gaoIiNWdMHW-K1tZBiGeQjxlMhZEhGyuSBvgOmxma2PtIhlrfUtgIUuYsW-jnYmm7E0osBrx0dv5-JPhST-xgThAQQ8EYOuNxedtOUOjkJHyvJM__vuPnp3tH5DvbUgcw6n7tPsiyQMnt8RSrhunszSep97bEuhN8rpdi8ccS1jUZU2bIZHltIVH-WXHlaNkwPgMU2mxK1AvBkYJQhTYxRBGQhOsxLqupapbrPiRupIxfv4AHnIeEIvzcMiExf5P4txQjcBMGCSU0SQFf_qRBC-rLnep0tigEj79uwtvf7kEmk-QqLoKysj3EAf2Q4TPjpy2cQMCt66wdrDwB9LDi7Yv6GUKMdAgoJiRkCyPVTJaJkENq0_lm1vVsC7cBzFtOV4Cc7oL5StNv0HPeR9Zpe-UlNhuwVduoc3074wpWvGaS7QT7f-dH2Op7aoc4zyDaSFdN5ApsXjSRtHanyr7I5sp1u5EuWKjCuPyArSNv-_O0nceXZ5ObjIkv-7ovCNXzVFXE14f3eS3do-GSSqQVHUJ1TKO59ZbE_pWyJJumDVTiJjZ69oEI2qaoXKzNtm00]--></g></svg>