<svg xmlns="http://www.w3.org/2000/svg" xmlns:xlink="http://www.w3.org/1999/xlink" contentStyleType="text/css" height="1311px" preserveAspectRatio="none" style="width:1358px;height:1311px;background:#FFFFFF;" version="1.1" viewBox="0 0 1358 1311" width="1358px" zoomAndPan="magnify"><defs/><g><rect fill="#F1F1F1" height="38.6211" rx="12.5" ry="12.5" style="stroke:#181818;stroke-width:1.5;" width="106.3652" x="10" y="635.5215"/><text fill="#000000" font-family="sans-serif" font-size="14" lengthAdjust="spacing" textLength="86.3652" x="20" y="660.6289">Decision Tree</text><rect fill="#F1F1F1" height="38.6211" rx="12.5" ry="12.5" style="stroke:#181818;stroke-width:1.5;" width="237.1299" x="166.3652" y="49.3105"/><text fill="#000000" font-family="sans-serif" font-size="14" lengthAdjust="spacing" textLength="217.1299" x="176.3652" y="74.418">Do you want to create a coroutine?</text><rect fill="#F1F1F1" height="38.6211" rx="12.5" ry="12.5" style="stroke:#181818;stroke-width:1.5;" width="89.2549" x="453.4951" y="20"/><text fill="#000000" font-family="sans-serif" font-size="14" lengthAdjust="spacing" textLength="69.2549" x="463.4951" y="45.1074">Use spawn</text><path d="M403.4951,68.6211 L413.4951,68.6211 C428.4951,68.6211 428.4951,39.3105 443.4951,39.3105 L453.4951,39.3105 " fill="none" style="stroke:#181818;stroke-width:1.0;"/><rect fill="#F1F1F1" height="38.6211" rx="12.5" ry="12.5" style="stroke:#181818;stroke-width:1.5;" width="293.916" x="453.4951" y="78.6211"/><text fill="#000000" font-family="sans-serif" font-size="14" lengthAdjust="spacing" textLength="273.916" x="463.4951" y="103.7285">Do you want to use structured concurrency?</text><rect fill="#F1F1F1" height="38.6211" rx="12.5" ry="12.5" style="stroke:#181818;stroke-width:1.5;" width="121.9307" x="797.4111" y="78.6211"/><text fill="#000000" font-family="sans-serif" font-size="14" lengthAdjust="spacing" textLength="101.9307" x="807.4111" y="103.7285">Use async block</text><path d="M747.4111,97.9316 L757.4111,97.9316 C772.4111,97.9316 772.4111,97.9316 787.4111,97.9316 L797.4111,97.9316 " fill="none" style="stroke:#181818;stroke-width:1.0;"/><path d="M403.4951,68.6211 L413.4951,68.6211 C428.4951,68.6211 428.4951,97.9316 443.4951,97.9316 L453.4951,97.9316 " fill="none" style="stroke:#181818;stroke-width:1.0;"/><path d="M116.3652,654.832 L126.3652,654.832 C141.3652,654.832 141.3652,68.6211 156.3652,68.6211 L166.3652,68.6211 " fill="none" style="stroke:#181818;stroke-width:1.0;"/><rect fill="#F1F1F1" height="38.6211" rx="12.5" ry="12.5" style="stroke:#181818;stroke-width:1.5;" width="219.9854" x="166.3652" y="225.1738"/><text fill="#000000" font-family="sans-serif" font-size="14" lengthAdjust="spacing" textLength="199.9854" x="176.3652" y="250.2813">Do you want to wait for a result?</text><rect fill="#F1F1F1" height="38.6211" rx="12.5" ry="12.5" style="stroke:#181818;stroke-width:1.5;" width="81.4688" x="436.3506" y="137.2422"/><text fill="#000000" font-family="sans-serif" font-size="14" lengthAdjust="spacing" textLength="61.4688" x="446.3506" y="162.3496">Use await</text><path d="M386.3506,244.4844 L396.3506,244.4844 C411.3506,244.4844 411.3506,156.5527 426.3506,156.5527 L436.3506,156.5527 " fill="none" style="stroke:#181818;stroke-width:1.0;"/><rect fill="#F1F1F1" height="38.6211" rx="12.5" ry="12.5" style="stroke:#181818;stroke-width:1.5;" width="232.4268" x="436.3506" y="195.8633"/><text fill="#000000" font-family="sans-serif" font-size="14" lengthAdjust="spacing" textLength="212.4268" x="446.3506" y="220.9707">Are you waiting for multiple tasks?</text><rect fill="#F1F1F1" height="38.6211" rx="12.5" ry="12.5" style="stroke:#181818;stroke-width:1.5;" width="150.7031" x="718.7773" y="195.8633"/><text fill="#000000" font-family="sans-serif" font-size="14" lengthAdjust="spacing" textLength="130.7031" x="728.7773" y="220.9707">Use await Async\all()</text><path d="M668.7773,215.1738 L678.7773,215.1738 C693.7773,215.1738 693.7773,215.1738 708.7773,215.1738 L718.7773,215.1738 " fill="none" style="stroke:#181818;stroke-width:1.0;"/><path d="M386.3506,244.4844 L396.3506,244.4844 C411.3506,244.4844 411.3506,215.1738 426.3506,215.1738 L436.3506,215.1738 " fill="none" style="stroke:#181818;stroke-width:1.0;"/><rect fill="#F1F1F1" height="38.6211" rx="12.5" ry="12.5" style="stroke:#181818;stroke-width:1.5;" width="230.875" x="436.3506" y="254.4844"/><text fill="#000000" font-family="sans-serif" font-size="14" lengthAdjust="spacing" textLength="210.875" x="446.3506" y="279.5918">Are you waiting for all child tasks?</text><rect fill="#F1F1F1" height="38.6211" rx="12.5" ry="12.5" style="stroke:#181818;stroke-width:1.5;" width="156.9307" x="717.2256" y="254.4844"/><text fill="#000000" font-family="sans-serif" font-size="14" lengthAdjust="spacing" textLength="136.9307" x="727.2256" y="279.5918">Use Scope::allTasks()</text><path d="M667.2256,273.7949 L677.2256,273.7949 C692.2256,273.7949 692.2256,273.7949 707.2256,273.7949 L717.2256,273.7949 " fill="none" style="stroke:#181818;stroke-width:1.0;"/><path d="M386.3506,244.4844 L396.3506,244.4844 C411.3506,244.4844 411.3506,273.7949 426.3506,273.7949 L436.3506,273.7949 " fill="none" style="stroke:#181818;stroke-width:1.0;"/><rect fill="#F1F1F1" height="38.6211" rx="12.5" ry="12.5" style="stroke:#181818;stroke-width:1.5;" width="251.1025" x="436.3506" y="313.1055"/><text fill="#000000" font-family="sans-serif" font-size="14" lengthAdjust="spacing" textLength="231.1025" x="446.3506" y="338.2129">Are you waiting for direct child tasks?</text><rect fill="#F1F1F1" height="38.6211" rx="12.5" ry="12.5" style="stroke:#181818;stroke-width:1.5;" width="177.1582" x="737.4531" y="313.1055"/><text fill="#000000" font-family="sans-serif" font-size="14" lengthAdjust="spacing" textLength="157.1582" x="747.4531" y="338.2129">Use Scope::directTasks()</text><path d="M687.4531,332.416 L697.4531,332.416 C712.4531,332.416 712.4531,332.416 727.4531,332.416 L737.4531,332.416 " fill="none" style="stroke:#181818;stroke-width:1.0;"/><path d="M386.3506,244.4844 L396.3506,244.4844 C411.3506,244.4844 411.3506,332.416 426.3506,332.416 L436.3506,332.416 " fill="none" style="stroke:#181818;stroke-width:1.0;"/><path d="M116.3652,654.832 L126.3652,654.832 C141.3652,654.832 141.3652,244.4844 156.3652,244.4844 L166.3652,244.4844 " fill="none" style="stroke:#181818;stroke-width:1.0;"/><rect fill="#F1F1F1" height="38.6211" rx="12.5" ry="12.5" style="stroke:#181818;stroke-width:1.5;" width="203.668" x="166.3652" y="459.6582"/><text fill="#000000" font-family="sans-serif" font-size="14" lengthAdjust="spacing" textLength="183.668" x="176.3652" y="484.7656">Do you need to cancel tasks?</text><rect fill="#F1F1F1" height="38.6211" rx="12.5" ry="12.5" style="stroke:#181818;stroke-width:1.5;" width="279.1572" x="420.0332" y="371.7266"/><text fill="#000000" font-family="sans-serif" font-size="14" lengthAdjust="spacing" textLength="259.1572" x="430.0332" y="396.834">Do you want to cancel a single coroutine?</text><rect fill="#F1F1F1" height="38.6211" rx="12.5" ry="12.5" style="stroke:#181818;stroke-width:1.5;" width="98.5791" x="749.1904" y="371.7266"/><text fill="#000000" font-family="sans-serif" font-size="14" lengthAdjust="spacing" textLength="78.5791" x="759.1904" y="396.834">Use cancel()</text><path d="M699.1904,391.0371 L709.1904,391.0371 C724.1904,391.0371 724.1904,391.0371 739.1904,391.0371 L749.1904,391.0371 " fill="none" style="stroke:#181818;stroke-width:1.0;"/><path d="M370.0332,478.9688 L380.0332,478.9688 C395.0332,478.9688 395.0332,391.0371 410.0332,391.0371 L420.0332,391.0371 " fill="none" style="stroke:#181818;stroke-width:1.0;"/><rect fill="#F1F1F1" height="38.6211" rx="12.5" ry="12.5" style="stroke:#181818;stroke-width:1.5;" width="308.709" x="420.0332" y="488.9688"/><text fill="#000000" font-family="sans-serif" font-size="14" lengthAdjust="spacing" textLength="288.709" x="430.0332" y="514.0762">Do you want to cancel all child tasks in scope?</text><rect fill="#F1F1F1" height="38.6211" rx="12.5" ry="12.5" style="stroke:#181818;stroke-width:1.5;" width="106.3652" x="778.7422" y="430.3477"/><text fill="#000000" font-family="sans-serif" font-size="14" lengthAdjust="spacing" textLength="86.3652" x="788.7422" y="455.4551">Use dispose()</text><path d="M728.7422,508.2793 L738.7422,508.2793 C753.7422,508.2793 753.7422,449.6582 768.7422,449.6582 L778.7422,449.6582 " fill="none" style="stroke:#181818;stroke-width:1.0;"/><rect fill="#F1F1F1" height="38.6211" rx="12.5" ry="12.5" style="stroke:#181818;stroke-width:1.5;" width="267.4951" x="778.7422" y="488.9688"/><text fill="#000000" font-family="sans-serif" font-size="14" lengthAdjust="spacing" textLength="247.4951" x="788.7422" y="514.0762">Do you need a timeout before disposal?</text><rect fill="#F1F1F1" height="38.6211" rx="12.5" ry="12.5" style="stroke:#181818;stroke-width:1.5;" width="186.5029" x="1096.2373" y="488.9688"/><text fill="#000000" font-family="sans-serif" font-size="14" lengthAdjust="spacing" textLength="166.5029" x="1106.2373" y="514.0762">Use disposeAfterTimeout()</text><path d="M1046.2373,508.2793 L1056.2373,508.2793 C1071.2373,508.2793 1071.2373,508.2793 1086.2373,508.2793 L1096.2373,508.2793 " fill="none" style="stroke:#181818;stroke-width:1.0;"/><path d="M728.7422,508.2793 L738.7422,508.2793 C753.7422,508.2793 753.7422,508.2793 768.7422,508.2793 L778.7422,508.2793 " fill="none" style="stroke:#181818;stroke-width:1.0;"/><rect fill="#F1F1F1" height="38.6211" rx="12.5" ry="12.5" style="stroke:#181818;stroke-width:1.5;" width="255.0469" x="778.7422" y="547.5898"/><text fill="#000000" font-family="sans-serif" font-size="14" lengthAdjust="spacing" textLength="235.0469" x="788.7422" y="572.6973">Do you need a safe disposal method?</text><rect fill="#F1F1F1" height="38.6211" rx="12.5" ry="12.5" style="stroke:#181818;stroke-width:1.5;" width="145.2754" x="1083.7891" y="547.5898"/><text fill="#000000" font-family="sans-serif" font-size="14" lengthAdjust="spacing" textLength="125.2754" x="1093.7891" y="572.6973">Use disposeSafely()</text><path d="M1033.7891,566.9004 L1043.7891,566.9004 C1058.7891,566.9004 1058.7891,566.9004 1073.7891,566.9004 L1083.7891,566.9004 " fill="none" style="stroke:#181818;stroke-width:1.0;"/><path d="M728.7422,508.2793 L738.7422,508.2793 C753.7422,508.2793 753.7422,566.9004 768.7422,566.9004 L778.7422,566.9004 " fill="none" style="stroke:#181818;stroke-width:1.0;"/><path d="M370.0332,478.9688 L380.0332,478.9688 C395.0332,478.9688 395.0332,508.2793 410.0332,508.2793 L420.0332,508.2793 " fill="none" style="stroke:#181818;stroke-width:1.0;"/><path d="M116.3652,654.832 L126.3652,654.832 C141.3652,654.832 141.3652,478.9688 156.3652,478.9688 L166.3652,478.9688 " fill="none" style="stroke:#181818;stroke-width:1.0;"/><rect fill="#F1F1F1" height="38.6211" rx="12.5" ry="12.5" style="stroke:#181818;stroke-width:1.5;" width="253.4609" x="166.3652" y="606.2109"/><text fill="#000000" font-family="sans-serif" font-size="14" lengthAdjust="spacing" textLength="233.4609" x="176.3652" y="631.3184">Do you need structured concurrency?</text><rect fill="#F1F1F1" height="38.6211" rx="12.5" ry="12.5" style="stroke:#181818;stroke-width:1.5;" width="121.9307" x="469.8262" y="606.2109"/><text fill="#000000" font-family="sans-serif" font-size="14" lengthAdjust="spacing" textLength="101.9307" x="479.8262" y="631.3184">Use async block</text><path d="M419.8262,625.5215 L429.8262,625.5215 C444.8262,625.5215 444.8262,625.5215 459.8262,625.5215 L469.8262,625.5215 " fill="none" style="stroke:#181818;stroke-width:1.0;"/><path d="M116.3652,654.832 L126.3652,654.832 C141.3652,654.832 141.3652,625.5215 156.3652,625.5215 L166.3652,625.5215 " fill="none" style="stroke:#181818;stroke-width:1.0;"/><rect fill="#F1F1F1" height="38.6211" rx="12.5" ry="12.5" style="stroke:#181818;stroke-width:1.5;" width="332.8262" x="166.3652" y="664.832"/><text fill="#000000" font-family="sans-serif" font-size="14" lengthAdjust="spacing" textLength="312.8262" x="176.3652" y="689.9395">Do you want to group tasks with a shared lifetime?</text><rect fill="#F1F1F1" height="38.6211" rx="12.5" ry="12.5" style="stroke:#181818;stroke-width:1.5;" width="88.4824" x="549.1914" y="664.832"/><text fill="#000000" font-family="sans-serif" font-size="14" lengthAdjust="spacing" textLength="68.4824" x="559.1914" y="689.9395">Use Scope</text><path d="M499.1914,684.1426 L509.1914,684.1426 C524.1914,684.1426 524.1914,684.1426 539.1914,684.1426 L549.1914,684.1426 " fill="none" style="stroke:#181818;stroke-width:1.0;"/><path d="M116.3652,654.832 L126.3652,654.832 C141.3652,654.832 141.3652,684.1426 156.3652,684.1426 L166.3652,684.1426 " fill="none" style="stroke:#181818;stroke-width:1.0;"/><rect fill="#F1F1F1" height="38.6211" rx="12.5" ry="12.5" style="stroke:#181818;stroke-width:1.5;" width="197.4541" x="166.3652" y="752.7637"/><text fill="#000000" font-family="sans-serif" font-size="14" lengthAdjust="spacing" textLength="177.4541" x="176.3652" y="777.8711">Do you need error handling?</text><rect fill="#F1F1F1" height="38.6211" rx="12.5" ry="12.5" style="stroke:#181818;stroke-width:1.5;" width="299.4053" x="413.8193" y="752.7637"/><text fill="#000000" font-family="sans-serif" font-size="14" lengthAdjust="spacing" textLength="279.4053" x="423.8193" y="777.8711">Do you want to handle coroutine exceptions?</text><rect fill="#F1F1F1" height="38.6211" rx="12.5" ry="12.5" style="stroke:#181818;stroke-width:1.5;" width="167.8203" x="763.2246" y="723.4531"/><text fill="#000000" font-family="sans-serif" font-size="14" lengthAdjust="spacing" textLength="147.8203" x="773.2246" y="748.5605">Use try-catch with await</text><path d="M713.2246,772.0742 L723.2246,772.0742 C738.2246,772.0742 738.2246,742.7637 753.2246,742.7637 L763.2246,742.7637 " fill="none" style="stroke:#181818;stroke-width:1.0;"/><rect fill="#F1F1F1" height="38.6211" rx="12.5" ry="12.5" style="stroke:#181818;stroke-width:1.5;" width="298.6396" x="763.2246" y="782.0742"/><text fill="#000000" font-family="sans-serif" font-size="14" lengthAdjust="spacing" textLength="278.6396" x="773.2246" y="807.1816">Do you need to handle all scope exceptions?</text><rect fill="#F1F1F1" height="38.6211" rx="12.5" ry="12.5" style="stroke:#181818;stroke-width:1.5;" width="234.7715" x="1111.8643" y="782.0742"/><text fill="#000000" font-family="sans-serif" font-size="14" lengthAdjust="spacing" textLength="214.7715" x="1121.8643" y="807.1816">Use Scope::setExceptionHandler()</text><path d="M1061.8643,801.3848 L1071.8643,801.3848 C1086.8643,801.3848 1086.8643,801.3848 1101.8643,801.3848 L1111.8643,801.3848 " fill="none" style="stroke:#181818;stroke-width:1.0;"/><path d="M713.2246,772.0742 L723.2246,772.0742 C738.2246,772.0742 738.2246,801.3848 753.2246,801.3848 L763.2246,801.3848 " fill="none" style="stroke:#181818;stroke-width:1.0;"/><path d="M363.8193,772.0742 L373.8193,772.0742 C388.8193,772.0742 388.8193,772.0742 403.8193,772.0742 L413.8193,772.0742 " fill="none" style="stroke:#181818;stroke-width:1.0;"/><path d="M116.3652,654.832 L126.3652,654.832 C141.3652,654.832 141.3652,772.0742 156.3652,772.0742 L166.3652,772.0742 " fill="none" style="stroke:#181818;stroke-width:1.0;"/><rect fill="#F1F1F1" height="38.6211" rx="12.5" ry="12.5" style="stroke:#181818;stroke-width:1.5;" width="224.6953" x="166.3652" y="840.6953"/><text fill="#000000" font-family="sans-serif" font-size="14" lengthAdjust="spacing" textLength="204.6953" x="176.3652" y="865.8027">Do you need graceful shutdown?</text><rect fill="#F1F1F1" height="38.6211" rx="12.5" ry="12.5" style="stroke:#181818;stroke-width:1.5;" width="170.1855" x="441.0605" y="840.6953"/><text fill="#000000" font-family="sans-serif" font-size="14" lengthAdjust="spacing" textLength="150.1855" x="451.0605" y="865.8027">Use gracefulShutdown()</text><path d="M391.0605,860.0059 L401.0605,860.0059 C416.0605,860.0059 416.0605,860.0059 431.0605,860.0059 L441.0605,860.0059 " fill="none" style="stroke:#181818;stroke-width:1.0;"/><path d="M116.3652,654.832 L126.3652,654.832 C141.3652,654.832 141.3652,860.0059 156.3652,860.0059 L166.3652,860.0059 " fill="none" style="stroke:#181818;stroke-width:1.0;"/><rect fill="#F1F1F1" height="38.6211" rx="12.5" ry="12.5" style="stroke:#181818;stroke-width:1.5;" width="266.668" x="166.3652" y="899.3164"/><text fill="#000000" font-family="sans-serif" font-size="14" lengthAdjust="spacing" textLength="246.668" x="176.3652" y="924.4238">Do you want to protect critical sections?</text><rect fill="#F1F1F1" height="38.6211" rx="12.5" ry="12.5" style="stroke:#181818;stroke-width:1.5;" width="100.9102" x="483.0332" y="899.3164"/><text fill="#000000" font-family="sans-serif" font-size="14" lengthAdjust="spacing" textLength="80.9102" x="493.0332" y="924.4238">Use protect()</text><path d="M433.0332,918.627 L443.0332,918.627 C458.0332,918.627 458.0332,918.627 473.0332,918.627 L483.0332,918.627 " fill="none" style="stroke:#181818;stroke-width:1.0;"/><path d="M116.3652,654.832 L126.3652,654.832 C141.3652,654.832 141.3652,918.627 156.3652,918.627 L166.3652,918.627 " fill="none" style="stroke:#181818;stroke-width:1.0;"/><rect fill="#F1F1F1" height="38.6211" rx="12.5" ry="12.5" style="stroke:#181818;stroke-width:1.5;" width="297.833" x="166.3652" y="987.248"/><text fill="#000000" font-family="sans-serif" font-size="14" lengthAdjust="spacing" textLength="277.833" x="176.3652" y="1012.3555">Do you want to execute logic on completion?</text><rect fill="#F1F1F1" height="38.6211" rx="12.5" ry="12.5" style="stroke:#181818;stroke-width:1.5;" width="144.4961" x="514.1982" y="957.9375"/><text fill="#000000" font-family="sans-serif" font-size="14" lengthAdjust="spacing" textLength="124.4961" x="524.1982" y="983.0449">Use onCompletion()</text><path d="M464.1982,1006.5586 L474.1982,1006.5586 C489.1982,1006.5586 489.1982,977.248 504.1982,977.248 L514.1982,977.248 " fill="none" style="stroke:#181818;stroke-width:1.0;"/><rect fill="#F1F1F1" height="38.6211" rx="12.5" ry="12.5" style="stroke:#181818;stroke-width:1.5;" width="170.2129" x="514.1982" y="1016.5586"/><text fill="#000000" font-family="sans-serif" font-size="14" lengthAdjust="spacing" textLength="150.2129" x="524.1982" y="1041.666">Do you need a fallback?</text><rect fill="#F1F1F1" height="38.6211" rx="12.5" ry="12.5" style="stroke:#181818;stroke-width:1.5;" width="121.1514" x="734.4111" y="1016.5586"/><text fill="#000000" font-family="sans-serif" font-size="14" lengthAdjust="spacing" textLength="101.1514" x="744.4111" y="1041.666">Use finally block</text><path d="M684.4111,1035.8691 L694.4111,1035.8691 C709.4111,1035.8691 709.4111,1035.8691 724.4111,1035.8691 L734.4111,1035.8691 " fill="none" style="stroke:#181818;stroke-width:1.0;"/><path d="M464.1982,1006.5586 L474.1982,1006.5586 C489.1982,1006.5586 489.1982,1035.8691 504.1982,1035.8691 L514.1982,1035.8691 " fill="none" style="stroke:#181818;stroke-width:1.0;"/><path d="M116.3652,654.832 L126.3652,654.832 C141.3652,654.832 141.3652,1006.5586 156.3652,1006.5586 L166.3652,1006.5586 " fill="none" style="stroke:#181818;stroke-width:1.0;"/><rect fill="#F1F1F1" height="38.6211" rx="12.5" ry="12.5" style="stroke:#181818;stroke-width:1.5;" width="367.1152" x="166.3652" y="1075.1797"/><text fill="#000000" font-family="sans-serif" font-size="14" lengthAdjust="spacing" textLength="347.1152" x="176.3652" y="1100.2871">Do you need to pass data across coroutine boundaries?</text><rect fill="#F1F1F1" height="38.6211" rx="12.5" ry="12.5" style="stroke:#181818;stroke-width:1.5;" width="97.0342" x="583.4805" y="1075.1797"/><text fill="#000000" font-family="sans-serif" font-size="14" lengthAdjust="spacing" textLength="77.0342" x="593.4805" y="1100.2871">Use Context</text><path d="M533.4805,1094.4902 L543.4805,1094.4902 C558.4805,1094.4902 558.4805,1094.4902 573.4805,1094.4902 L583.4805,1094.4902 " fill="none" style="stroke:#181818;stroke-width:1.0;"/><path d="M116.3652,654.832 L126.3652,654.832 C141.3652,654.832 141.3652,1094.4902 156.3652,1094.4902 L166.3652,1094.4902 " fill="none" style="stroke:#181818;stroke-width:1.0;"/><rect fill="#F1F1F1" height="38.6211" rx="12.5" ry="12.5" style="stroke:#181818;stroke-width:1.5;" width="228.585" x="166.3652" y="1133.8008"/><text fill="#000000" font-family="sans-serif" font-size="14" lengthAdjust="spacing" textLength="208.585" x="176.3652" y="1158.9082">Do you need context inheritance?</text><rect fill="#F1F1F1" height="38.6211" rx="12.5" ry="12.5" style="stroke:#181818;stroke-width:1.5;" width="170.1924" x="444.9502" y="1133.8008"/><text fill="#000000" font-family="sans-serif" font-size="14" lengthAdjust="spacing" textLength="150.1924" x="454.9502" y="1158.9082">Use Context Inheritance</text><path d="M394.9502,1153.1113 L404.9502,1153.1113 C419.9502,1153.1113 419.9502,1153.1113 434.9502,1153.1113 L444.9502,1153.1113 " fill="none" style="stroke:#181818;stroke-width:1.0;"/><path d="M116.3652,654.832 L126.3652,654.832 C141.3652,654.832 141.3652,1153.1113 156.3652,1153.1113 L166.3652,1153.1113 " fill="none" style="stroke:#181818;stroke-width:1.0;"/><rect fill="#F1F1F1" height="38.6211" rx="12.5" ry="12.5" style="stroke:#181818;stroke-width:1.5;" width="256.5645" x="166.3652" y="1221.7324"/><text fill="#000000" font-family="sans-serif" font-size="14" lengthAdjust="spacing" textLength="236.5645" x="176.3652" y="1246.8398">Are you managing implicit coroutines?</text><rect fill="#F1F1F1" height="38.6211" rx="12.5" ry="12.5" style="stroke:#181818;stroke-width:1.5;" width="284.6055" x="472.9297" y="1221.7324"/><text fill="#000000" font-family="sans-serif" font-size="14" lengthAdjust="spacing" textLength="264.6055" x="482.9297" y="1246.8398">Do you want to handle zombie coroutines?</text><rect fill="#F1F1F1" height="38.6211" rx="12.5" ry="12.5" style="stroke:#181818;stroke-width:1.5;" width="192.751" x="807.5352" y="1192.4219"/><text fill="#000000" font-family="sans-serif" font-size="14" lengthAdjust="spacing" textLength="172.751" x="817.5352" y="1217.5293">Use Scope::disposeSafely()</text><path d="M757.5352,1241.043 L767.5352,1241.043 C782.5352,1241.043 782.5352,1211.7324 797.5352,1211.7324 L807.5352,1211.7324 " fill="none" style="stroke:#181818;stroke-width:1.0;"/><rect fill="#F1F1F1" height="38.6211" rx="12.5" ry="12.5" style="stroke:#181818;stroke-width:1.5;" width="233.9785" x="807.5352" y="1251.043"/><text fill="#000000" font-family="sans-serif" font-size="14" lengthAdjust="spacing" textLength="213.9785" x="817.5352" y="1276.1504">Use Scope::disposeAfterTimeout()</text><path d="M757.5352,1241.043 L767.5352,1241.043 C782.5352,1241.043 782.5352,1270.3535 797.5352,1270.3535 L807.5352,1270.3535 " fill="none" style="stroke:#181818;stroke-width:1.0;"/><path d="M422.9297,1241.043 L432.9297,1241.043 C447.9297,1241.043 447.9297,1241.043 462.9297,1241.043 L472.9297,1241.043 " fill="none" style="stroke:#181818;stroke-width:1.0;"/><path d="M116.3652,654.832 L126.3652,654.832 C141.3652,654.832 141.3652,1241.043 156.3652,1241.043 L166.3652,1241.043 " fill="none" style="stroke:#181818;stroke-width:1.0;"/><!--SRC=[ZLLBJzj04BxxLymHa404eO9yAHHI5KhKYYISUfcin_4AUzVQ1o7zzPtr0pjsY7gpT-Rxvl7DxDvOXyOLKYK5bj49t9EGLce52qCKdV21Xgtsi47bm6aGXj0H80Xjj7TIqLVsEe6b9R0bRbJrDm3vO7J62-SD9GnLmXj3IcmhS8r6krK2LhaMhtlYRb0wIBNXo8QiprqN5eEj-hirr80aPxQk_0lsbMLEuD2-sdwyYl8sHFs3UNvq_2a5Mq5aCaz677EXIufZTbW4om6EH1eIxZ1DxTCnjJrGn4qBlKSbAE-XH-BK3WYMmtB9knhLiMgV9jDFyBlrWbHWGuOzbaJQKbkgQNOJHN2o88uBA-BAMr_CQ_WE_ZPrP1Qr-tukYsd700MvJ2TxYERibc_7NJimTVynT6jkNzaqOIDT5lB9C93bCgLGPiTKQJWCJyQmzXcg96T5zcfM6NjI0RqBAXslO7z2dDcU2dGYQ_9eHtuq8mrTaB3IR4ItCt6MtBIr_wYGPjp3jK51gMV2pBj4RrHNT6kQDvOTS5jXQRIhPj_mEWXMqVBVHq8LJ-Eo5qxl93nVERbUIm5yCmbTy3u7Xev0gxkFqztPRkOevOwiKBpsUffAnOVRaVfjAqkq5X9q22YCvkzEevNsAa4ZgLV3dLQEtjsGIDJ7l4GPSGF2XeqmyD0Pezu5Kg32TRX19DSc1LzN7odOGyFqLnShIKFdmLqpt9kzzi62tX2_4yrR4VtEEUfozWHlPAedOt9sSNvnUNPrD4S7SohX_0ecb_7aEfvSmNGwNq2m7qT7iuS5MEsDgFRN6RdoGRZZw17V49wz2giLmw-IrEFzp_O0fkfD6gqAKYvwV9br3bykJx_94D9mAl0oY-ufHRxt6I5qmWsCORduVdeTFQ5QUrmpj_7H7Ol8UnN3y_8V]--></g></svg>