<svg xmlns="http://www.w3.org/2000/svg" xmlns:xlink="http://www.w3.org/1999/xlink" contentStyleType="text/css" height="1282px" preserveAspectRatio="none" style="width:1200px;height:1282px;background:#FFFFFF;" version="1.1" viewBox="0 0 1200 1282" width="1200px" zoomAndPan="magnify"><defs/><g><rect fill="#ADD8E6" height="38.6211" rx="12.5" ry="12.5" style="stroke:#181818;stroke-width:1.5;" width="237.1299" x="10" y="78.6211"/><text fill="#000000" font-family="sans-serif" font-size="14" lengthAdjust="spacing" textLength="217.1299" x="20" y="103.7285">Do you want to create a coroutine?</text><rect fill="#90EE90" height="38.6211" rx="12.5" ry="12.5" style="stroke:#181818;stroke-width:1.5;" width="200.5166" x="297.1299" y="20"/><text fill="#000000" font-family="sans-serif" font-size="14" lengthAdjust="spacing" textLength="180.5166" x="307.1299" y="45.1074">Use spawn functionName(...)</text><path d="M247.1299,97.9316 L257.1299,97.9316 C272.1299,97.9316 272.1299,39.3105 287.1299,39.3105 L297.1299,39.3105 " fill="none" style="stroke:#181818;stroke-width:1.0;"/><rect fill="#87CEEB" height="38.6211" rx="12.5" ry="12.5" style="stroke:#181818;stroke-width:1.5;" width="329.7158" x="297.1299" y="78.6211"/><text fill="#000000" font-family="sans-serif" font-size="14" lengthAdjust="spacing" textLength="309.7158" x="307.1299" y="103.7285">Do you want to create a coroutine from a closure?</text><rect fill="#90EE90" height="38.6211" rx="12.5" ry="12.5" style="stroke:#181818;stroke-width:1.5;" width="121.9443" x="676.8457" y="78.6211"/><text fill="#000000" font-family="sans-serif" font-size="14" lengthAdjust="spacing" textLength="101.9443" x="686.8457" y="103.7285">Use spawn { ... }</text><path d="M626.8457,97.9316 L636.8457,97.9316 C651.8457,97.9316 651.8457,97.9316 666.8457,97.9316 L676.8457,97.9316 " fill="none" style="stroke:#181818;stroke-width:1.0;"/><path d="M247.1299,97.9316 L257.1299,97.9316 C272.1299,97.9316 272.1299,97.9316 287.1299,97.9316 L297.1299,97.9316 " fill="none" style="stroke:#181818;stroke-width:1.0;"/><rect fill="#87CEEB" height="38.6211" rx="12.5" ry="12.5" style="stroke:#181818;stroke-width:1.5;" width="251.8887" x="297.1299" y="137.2422"/><text fill="#000000" font-family="sans-serif" font-size="14" lengthAdjust="spacing" textLength="231.8887" x="307.1299" y="162.3496">Do you want structured concurrency?</text><rect fill="#90EE90" height="38.6211" rx="12.5" ry="12.5" style="stroke:#181818;stroke-width:1.5;" width="167.082" x="599.0186" y="137.2422"/><text fill="#000000" font-family="sans-serif" font-size="14" lengthAdjust="spacing" textLength="147.082" x="609.0186" y="162.3496">Use async $scope { ... }</text><path d="M549.0186,156.5527 L559.0186,156.5527 C574.0186,156.5527 574.0186,156.5527 589.0186,156.5527 L599.0186,156.5527 " fill="none" style="stroke:#181818;stroke-width:1.0;"/><path d="M247.1299,97.9316 L257.1299,97.9316 C272.1299,97.9316 272.1299,156.5527 287.1299,156.5527 L297.1299,156.5527 " fill="none" style="stroke:#181818;stroke-width:1.0;"/><rect fill="#ADD8E6" height="38.6211" rx="12.5" ry="12.5" style="stroke:#181818;stroke-width:1.5;" width="219.9854" x="10" y="327.7607"/><text fill="#000000" font-family="sans-serif" font-size="14" lengthAdjust="spacing" textLength="199.9854" x="20" y="352.8682">Do you want to wait for a result?</text><rect fill="#90EE90" height="38.6211" rx="12.5" ry="12.5" style="stroke:#181818;stroke-width:1.5;" width="204.4268" x="279.9854" y="195.8633"/><text fill="#000000" font-family="sans-serif" font-size="14" lengthAdjust="spacing" textLength="184.4268" x="289.9854" y="220.9707">Use await &lt;Async\Awaitable&gt;</text><path d="M229.9854,347.0713 L239.9854,347.0713 C254.9854,347.0713 254.9854,215.1738 269.9854,215.1738 L279.9854,215.1738 " fill="none" style="stroke:#181818;stroke-width:1.0;"/><rect fill="#87CEEB" height="38.6211" rx="12.5" ry="12.5" style="stroke:#181818;stroke-width:1.5;" width="258.8818" x="279.9854" y="254.4844"/><text fill="#000000" font-family="sans-serif" font-size="14" lengthAdjust="spacing" textLength="238.8818" x="289.9854" y="279.5918">Do you want to wait for multiple tasks?</text><rect fill="#90EE90" height="38.6211" rx="12.5" ry="12.5" style="stroke:#181818;stroke-width:1.5;" width="126.5791" x="588.8672" y="254.4844"/><text fill="#000000" font-family="sans-serif" font-size="14" lengthAdjust="spacing" textLength="24.8965" x="598.8672" y="279.5918">Use</text><text fill="#000000" font-family="sans-serif" font-size="14" font-weight="bold" lengthAdjust="spacing" textLength="73.9033" x="627.6533" y="279.5918">TaskGroup</text><text fill="#000000" font-family="sans-serif" font-size="14" lengthAdjust="spacing" textLength="3.8896" x="701.5566" y="279.5918">:</text><rect fill="#F1F1F1" height="38.6211" rx="12.5" ry="12.5" style="stroke:#181818;stroke-width:1.5;" width="190.7959" x="765.4463" y="225.1738"/><text fill="#000000" font-family="sans-serif" font-size="14" lengthAdjust="spacing" textLength="170.7959" x="775.4463" y="250.2813">TaskGroup-&gt;add(spawn ...)</text><path d="M715.4463,273.7949 L725.4463,273.7949 C740.4463,273.7949 740.4463,244.4844 755.4463,244.4844 L765.4463,244.4844 " fill="none" style="stroke:#181818;stroke-width:1.0;"/><rect fill="#F1F1F1" height="38.6211" rx="12.5" ry="12.5" style="stroke:#181818;stroke-width:1.5;" width="128.9443" x="765.4463" y="283.7949"/><text fill="#000000" font-family="sans-serif" font-size="14" lengthAdjust="spacing" textLength="108.9443" x="775.4463" y="308.9023">await $taskGroup</text><path d="M715.4463,273.7949 L725.4463,273.7949 C740.4463,273.7949 740.4463,303.1055 755.4463,303.1055 L765.4463,303.1055 " fill="none" style="stroke:#181818;stroke-width:1.0;"/><path d="M538.8672,273.7949 L548.8672,273.7949 C563.8672,273.7949 563.8672,273.7949 578.8672,273.7949 L588.8672,273.7949 " fill="none" style="stroke:#181818;stroke-width:1.0;"/><path d="M229.9854,347.0713 L239.9854,347.0713 C254.9854,347.0713 254.9854,273.7949 269.9854,273.7949 L279.9854,273.7949 " fill="none" style="stroke:#181818;stroke-width:1.0;"/><rect fill="#87CEEB" height="38.6211" rx="12.5" ry="12.5" style="stroke:#181818;stroke-width:1.5;" width="332.792" x="279.9854" y="342.416"/><text fill="#000000" font-family="sans-serif" font-size="14" lengthAdjust="spacing" textLength="312.792" x="289.9854" y="367.5234">Do you want to wait for multiple tasks with results?</text><rect fill="#90EE90" height="38.6211" rx="12.5" ry="12.5" style="stroke:#181818;stroke-width:1.5;" width="324.2266" x="662.7773" y="342.416"/><text fill="#000000" font-family="sans-serif" font-size="14" lengthAdjust="spacing" textLength="304.2266" x="672.7773" y="367.5234">Use new Async\TaskGroup(captureResults: true)</text><path d="M612.7773,361.7266 L622.7773,361.7266 C637.7773,361.7266 637.7773,361.7266 652.7773,361.7266 L662.7773,361.7266 " fill="none" style="stroke:#181818;stroke-width:1.0;"/><path d="M229.9854,347.0713 L239.9854,347.0713 C254.9854,347.0713 254.9854,361.7266 269.9854,361.7266 L279.9854,361.7266 " fill="none" style="stroke:#181818;stroke-width:1.0;"/><rect fill="#87CEEB" height="38.6211" rx="12.5" ry="12.5" style="stroke:#181818;stroke-width:1.5;" width="358.4746" x="279.9854" y="401.0371"/><text fill="#000000" font-family="sans-serif" font-size="14" lengthAdjust="spacing" textLength="338.4746" x="289.9854" y="426.1445">Do you want to wait for the first completed task (race)?</text><rect fill="#90EE90" height="38.6211" rx="12.5" ry="12.5" style="stroke:#181818;stroke-width:1.5;" width="341.3027" x="688.46" y="401.0371"/><text fill="#000000" font-family="sans-serif" font-size="14" lengthAdjust="spacing" textLength="321.3027" x="698.46" y="426.1445">Use TaskGroup-&gt;race() or TaskGroup-&gt;firstResult()</text><path d="M638.46,420.3477 L648.46,420.3477 C663.46,420.3477 663.46,420.3477 678.46,420.3477 L688.46,420.3477 " fill="none" style="stroke:#181818;stroke-width:1.0;"/><path d="M229.9854,347.0713 L239.9854,347.0713 C254.9854,347.0713 254.9854,420.3477 269.9854,420.3477 L279.9854,420.3477 " fill="none" style="stroke:#181818;stroke-width:1.0;"/><rect fill="#87CEEB" height="38.6211" rx="12.5" ry="12.5" style="stroke:#181818;stroke-width:1.5;" width="256.5713" x="279.9854" y="459.6582"/><text fill="#000000" font-family="sans-serif" font-size="14" lengthAdjust="spacing" textLength="236.5713" x="289.9854" y="484.7656">Do you want to wait with cancellation?</text><rect fill="#90EE90" height="38.6211" rx="12.5" ry="12.5" style="stroke:#181818;stroke-width:1.5;" width="142.1582" x="586.5566" y="459.6582"/><text fill="#000000" font-family="sans-serif" font-size="14" lengthAdjust="spacing" textLength="122.1582" x="596.5566" y="484.7656">Use await ... until ...</text><path d="M536.5566,478.9688 L546.5566,478.9688 C561.5566,478.9688 561.5566,478.9688 576.5566,478.9688 L586.5566,478.9688 " fill="none" style="stroke:#181818;stroke-width:1.0;"/><path d="M229.9854,347.0713 L239.9854,347.0713 C254.9854,347.0713 254.9854,478.9688 269.9854,478.9688 L279.9854,478.9688 " fill="none" style="stroke:#181818;stroke-width:1.0;"/><rect fill="#ADD8E6" height="38.6211" rx="12.5" ry="12.5" style="stroke:#181818;stroke-width:1.5;" width="203.668" x="10" y="606.2109"/><text fill="#000000" font-family="sans-serif" font-size="14" lengthAdjust="spacing" textLength="183.668" x="20" y="631.3184">Do you need to cancel tasks?</text><rect fill="#87CEEB" height="38.6211" rx="12.5" ry="12.5" style="stroke:#181818;stroke-width:1.5;" width="128.1855" x="263.668" y="518.2793"/><text fill="#000000" font-family="sans-serif" font-size="14" lengthAdjust="spacing" textLength="108.1855" x="273.668" y="543.3867">Single coroutine?</text><rect fill="#90EE90" height="38.6211" rx="12.5" ry="12.5" style="stroke:#181818;stroke-width:1.5;" width="167.0615" x="441.8535" y="518.2793"/><text fill="#000000" font-family="sans-serif" font-size="14" lengthAdjust="spacing" textLength="147.0615" x="451.8535" y="543.3867">Use Coroutine::cancel()</text><path d="M391.8535,537.5898 L401.8535,537.5898 C416.8535,537.5898 416.8535,537.5898 431.8535,537.5898 L441.8535,537.5898 " fill="none" style="stroke:#181818;stroke-width:1.0;"/><path d="M213.668,625.5215 L223.668,625.5215 C238.668,625.5215 238.668,537.5898 253.668,537.5898 L263.668,537.5898 " fill="none" style="stroke:#181818;stroke-width:1.0;"/><rect fill="#87CEEB" height="38.6211" rx="12.5" ry="12.5" style="stroke:#181818;stroke-width:1.5;" width="147.6201" x="263.668" y="576.9004"/><text fill="#000000" font-family="sans-serif" font-size="14" lengthAdjust="spacing" textLength="127.6201" x="273.668" y="602.0078">All tasks in a scope?</text><rect fill="#90EE90" height="38.6211" rx="12.5" ry="12.5" style="stroke:#181818;stroke-width:1.5;" width="281.4541" x="461.2881" y="576.9004"/><text fill="#000000" font-family="sans-serif" font-size="14" lengthAdjust="spacing" textLength="261.4541" x="471.2881" y="602.0078">Use Scope-&gt;cancel() or Scope-&gt;dispose()</text><path d="M411.2881,596.2109 L421.2881,596.2109 C436.2881,596.2109 436.2881,596.2109 451.2881,596.2109 L461.2881,596.2109 " fill="none" style="stroke:#181818;stroke-width:1.0;"/><path d="M213.668,625.5215 L223.668,625.5215 C238.668,625.5215 238.668,596.2109 253.668,596.2109 L263.668,596.2109 " fill="none" style="stroke:#181818;stroke-width:1.0;"/><rect fill="#87CEEB" height="38.6211" rx="12.5" ry="12.5" style="stroke:#181818;stroke-width:1.5;" width="179.5098" x="263.668" y="635.5215"/><text fill="#000000" font-family="sans-serif" font-size="14" lengthAdjust="spacing" textLength="159.5098" x="273.668" y="660.6289">All tasks in a TaskGroup?</text><rect fill="#90EE90" height="38.6211" rx="12.5" ry="12.5" style="stroke:#181818;stroke-width:1.5;" width="340.5576" x="493.1777" y="635.5215"/><text fill="#000000" font-family="sans-serif" font-size="14" lengthAdjust="spacing" textLength="320.5576" x="503.1777" y="660.6289">Use TaskGroup-&gt;dispose() or TaskGroup-&gt;cancel()</text><path d="M443.1777,654.832 L453.1777,654.832 C468.1777,654.832 468.1777,654.832 483.1777,654.832 L493.1777,654.832 " fill="none" style="stroke:#181818;stroke-width:1.0;"/><path d="M213.668,625.5215 L223.668,625.5215 C238.668,625.5215 238.668,654.832 253.668,654.832 L263.668,654.832 " fill="none" style="stroke:#181818;stroke-width:1.0;"/><rect fill="#87CEEB" height="38.6211" rx="12.5" ry="12.5" style="stroke:#181818;stroke-width:1.5;" width="227.7783" x="263.668" y="694.1426"/><text fill="#000000" font-family="sans-serif" font-size="14" lengthAdjust="spacing" textLength="207.7783" x="273.668" y="719.25">Timed or safe disposal of Scope?</text><rect fill="#90EE90" height="38.6211" rx="12.5" ry="12.5" style="stroke:#181818;stroke-width:1.5;" width="423.0742" x="541.4463" y="694.1426"/><text fill="#000000" font-family="sans-serif" font-size="14" lengthAdjust="spacing" textLength="403.0742" x="551.4463" y="719.25">Use Scope-&gt;disposeSafely() or Scope-&gt;disposeAfterTimeout(int)</text><path d="M491.4463,713.4531 L501.4463,713.4531 C516.4463,713.4531 516.4463,713.4531 531.4463,713.4531 L541.4463,713.4531 " fill="none" style="stroke:#181818;stroke-width:1.0;"/><path d="M213.668,625.5215 L223.668,625.5215 C238.668,625.5215 238.668,713.4531 253.668,713.4531 L263.668,713.4531 " fill="none" style="stroke:#181818;stroke-width:1.0;"/><rect fill="#ADD8E6" height="38.6211" rx="12.5" ry="12.5" style="stroke:#181818;stroke-width:1.5;" width="197.4541" x="10" y="782.0742"/><text fill="#000000" font-family="sans-serif" font-size="14" lengthAdjust="spacing" textLength="177.4541" x="20" y="807.1816">Do you need error handling?</text><rect fill="#87CEEB" height="38.6211" rx="12.5" ry="12.5" style="stroke:#181818;stroke-width:1.5;" width="204.4541" x="257.4541" y="752.7637"/><text fill="#000000" font-family="sans-serif" font-size="14" lengthAdjust="spacing" textLength="184.4541" x="267.4541" y="777.8711">Handle coroutine exceptions?</text><rect fill="#90EE90" height="38.6211" rx="12.5" ry="12.5" style="stroke:#181818;stroke-width:1.5;" width="278.3438" x="511.9082" y="752.7637"/><text fill="#000000" font-family="sans-serif" font-size="14" lengthAdjust="spacing" textLength="258.3438" x="521.9082" y="777.8711">Use try { await $coroutine } catch(...) { ... }</text><path d="M461.9082,772.0742 L471.9082,772.0742 C486.9082,772.0742 486.9082,772.0742 501.9082,772.0742 L511.9082,772.0742 " fill="none" style="stroke:#181818;stroke-width:1.0;"/><path d="M207.4541,801.3848 L217.4541,801.3848 C232.4541,801.3848 232.4541,772.0742 247.4541,772.0742 L257.4541,772.0742 " fill="none" style="stroke:#181818;stroke-width:1.0;"/><rect fill="#87CEEB" height="38.6211" rx="12.5" ry="12.5" style="stroke:#181818;stroke-width:1.5;" width="230.916" x="257.4541" y="811.3848"/><text fill="#000000" font-family="sans-serif" font-size="14" lengthAdjust="spacing" textLength="210.916" x="267.4541" y="836.4922">Handle all exceptions in a Scope?</text><rect fill="#90EE90" height="38.6211" rx="12.5" ry="12.5" style="stroke:#181818;stroke-width:1.5;" width="239.8301" x="538.3701" y="811.3848"/><text fill="#000000" font-family="sans-serif" font-size="14" lengthAdjust="spacing" textLength="219.8301" x="548.3701" y="836.4922">Use Scope-&gt;setExceptionHandler()</text><path d="M488.3701,830.6953 L498.3701,830.6953 C513.3701,830.6953 513.3701,830.6953 528.3701,830.6953 L538.3701,830.6953 " fill="none" style="stroke:#181818;stroke-width:1.0;"/><path d="M207.4541,801.3848 L217.4541,801.3848 C232.4541,801.3848 232.4541,830.6953 247.4541,830.6953 L257.4541,830.6953 " fill="none" style="stroke:#181818;stroke-width:1.0;"/><rect fill="#ADD8E6" height="38.6211" rx="12.5" ry="12.5" style="stroke:#181818;stroke-width:1.5;" width="224.6953" x="10" y="870.0059"/><text fill="#000000" font-family="sans-serif" font-size="14" lengthAdjust="spacing" textLength="204.6953" x="20" y="895.1133">Do you need graceful shutdown?</text><rect fill="#90EE90" height="38.6211" rx="12.5" ry="12.5" style="stroke:#181818;stroke-width:1.5;" width="212.1992" x="284.6953" y="870.0059"/><text fill="#000000" font-family="sans-serif" font-size="14" lengthAdjust="spacing" textLength="192.1992" x="294.6953" y="895.1133">Use Async\gracefulShutdown()</text><path d="M234.6953,889.3164 L244.6953,889.3164 C259.6953,889.3164 259.6953,889.3164 274.6953,889.3164 L284.6953,889.3164 " fill="none" style="stroke:#181818;stroke-width:1.0;"/><rect fill="#ADD8E6" height="38.6211" rx="12.5" ry="12.5" style="stroke:#181818;stroke-width:1.5;" width="170.9443" x="10" y="928.627"/><text fill="#000000" font-family="sans-serif" font-size="14" lengthAdjust="spacing" textLength="150.9443" x="20" y="953.7344">Protect critical sections?</text><rect fill="#90EE90" height="38.6211" rx="12.5" ry="12.5" style="stroke:#181818;stroke-width:1.5;" width="293.0957" x="230.9443" y="928.627"/><text fill="#000000" font-family="sans-serif" font-size="14" lengthAdjust="spacing" textLength="273.0957" x="240.9443" y="953.7344">Use Async\protect(\Closure $criticalSection)</text><path d="M180.9443,947.9375 L190.9443,947.9375 C205.9443,947.9375 205.9443,947.9375 220.9443,947.9375 L230.9443,947.9375 " fill="none" style="stroke:#181818;stroke-width:1.0;"/><rect fill="#ADD8E6" height="38.6211" rx="12.5" ry="12.5" style="stroke:#181818;stroke-width:1.5;" width="297.833" x="10" y="1016.5586"/><text fill="#000000" font-family="sans-serif" font-size="14" lengthAdjust="spacing" textLength="277.833" x="20" y="1041.666">Do you want to execute logic on completion?</text><rect fill="#90EE90" height="38.6211" rx="12.5" ry="12.5" style="stroke:#181818;stroke-width:1.5;" width="212.9785" x="357.833" y="987.248"/><text fill="#000000" font-family="sans-serif" font-size="14" lengthAdjust="spacing" textLength="192.9785" x="367.833" y="1012.3555">Use Coroutine::onCompletion()</text><path d="M307.833,1035.8691 L317.833,1035.8691 C332.833,1035.8691 332.833,1006.5586 347.833,1006.5586 L357.833,1006.5586 " fill="none" style="stroke:#181818;stroke-width:1.0;"/><rect fill="#87CEEB" height="38.6211" rx="12.5" ry="12.5" style="stroke:#181818;stroke-width:1.5;" width="124.2891" x="357.833" y="1045.8691"/><text fill="#000000" font-family="sans-serif" font-size="14" lengthAdjust="spacing" textLength="104.2891" x="367.833" y="1070.9766">Need a fallback?</text><rect fill="#90EE90" height="38.6211" rx="12.5" ry="12.5" style="stroke:#181818;stroke-width:1.5;" width="132.8271" x="532.1221" y="1045.8691"/><text fill="#000000" font-family="sans-serif" font-size="14" lengthAdjust="spacing" textLength="112.8271" x="542.1221" y="1070.9766">Use a finally block</text><path d="M482.1221,1065.1797 L492.1221,1065.1797 C507.1221,1065.1797 507.1221,1065.1797 522.1221,1065.1797 L532.1221,1065.1797 " fill="none" style="stroke:#181818;stroke-width:1.0;"/><path d="M307.833,1035.8691 L317.833,1035.8691 C332.833,1035.8691 332.833,1065.1797 347.833,1065.1797 L357.833,1065.1797 " fill="none" style="stroke:#181818;stroke-width:1.0;"/><rect fill="#ADD8E6" height="38.6211" rx="12.5" ry="12.5" style="stroke:#181818;stroke-width:1.5;" width="367.1152" x="10" y="1104.4902"/><text fill="#000000" font-family="sans-serif" font-size="14" lengthAdjust="spacing" textLength="347.1152" x="20" y="1129.5977">Do you need to pass data across coroutine boundaries?</text><rect fill="#90EE90" height="38.6211" rx="12.5" ry="12.5" style="stroke:#181818;stroke-width:1.5;" width="289.9854" x="427.1152" y="1104.4902"/><text fill="#000000" font-family="sans-serif" font-size="14" lengthAdjust="spacing" textLength="269.9854" x="437.1152" y="1129.5977">Use Async\Context, Async\currentContext()</text><path d="M377.1152,1123.8008 L387.1152,1123.8008 C402.1152,1123.8008 402.1152,1123.8008 417.1152,1123.8008 L427.1152,1123.8008 " fill="none" style="stroke:#181818;stroke-width:1.0;"/><rect fill="#ADD8E6" height="38.6211" rx="12.5" ry="12.5" style="stroke:#181818;stroke-width:1.5;" width="228.585" x="10" y="1163.1113"/><text fill="#000000" font-family="sans-serif" font-size="14" lengthAdjust="spacing" textLength="208.585" x="20" y="1188.2188">Do you need context inheritance?</text><rect fill="#90EE90" height="38.6211" rx="12.5" ry="12.5" style="stroke:#181818;stroke-width:1.5;" width="143.7168" x="288.585" y="1163.1113"/><text fill="#000000" font-family="sans-serif" font-size="14" lengthAdjust="spacing" textLength="123.7168" x="298.585" y="1188.2188">Use Scope::inherit()</text><path d="M238.585,1182.4219 L248.585,1182.4219 C263.585,1182.4219 263.585,1182.4219 278.585,1182.4219 L288.585,1182.4219 " fill="none" style="stroke:#181818;stroke-width:1.0;"/><rect fill="#ADD8E6" height="38.6211" rx="12.5" ry="12.5" style="stroke:#181818;stroke-width:1.5;" width="479.1221" x="10" y="1221.7324"/><text fill="#000000" font-family="sans-serif" font-size="14" lengthAdjust="spacing" textLength="459.1221" x="20" y="1246.8398">Are you managing implicit coroutines or worried about zombie coroutines?</text><rect fill="#87CEEB" height="38.6211" rx="12.5" ry="12.5" style="stroke:#181818;stroke-width:1.5;" width="201.3232" x="539.1221" y="1221.7324"/><text fill="#000000" font-family="sans-serif" font-size="14" lengthAdjust="spacing" textLength="181.3232" x="549.1221" y="1246.8398">Need safe or timed disposal?</text><rect fill="#90EE90" height="38.6211" rx="12.5" ry="12.5" style="stroke:#181818;stroke-width:1.5;" width="398.1709" x="790.4453" y="1221.7324"/><text fill="#000000" font-family="sans-serif" font-size="14" lengthAdjust="spacing" textLength="378.1709" x="800.4453" y="1246.8398">Use Scope::disposeSafely() or Scope::disposeAfterTimeout()</text><path d="M740.4453,1241.043 L750.4453,1241.043 C765.4453,1241.043 765.4453,1241.043 780.4453,1241.043 L790.4453,1241.043 " fill="none" style="stroke:#181818;stroke-width:1.0;"/><path d="M489.1221,1241.043 L499.1221,1241.043 C514.1221,1241.043 514.1221,1241.043 529.1221,1241.043 L539.1221,1241.043 " fill="none" style="stroke:#181818;stroke-width:1.0;"/><!--SRC=[dLRRRjj837tNLn3OFiZ6ncYAO1C8YsnTntl9DcqHEttPze4UKVOWqemmbpZUHV-z7DsSf9OIx9izGnwIvv0SlRKEZIkaIWiie_4_F-LolN6htDDNkD2mqnwsg1mu3S8GEW84eOtsJYhwBHgt7cj3fBx2ZIMm9MuLP5u99xNwW0N5aybaLDcUdSxcytSlW8RCw28SvDfwKqNg3VKVC3vywmrWdV72CKhA-4fuOqY9NGyasfqIyCeANLA7F4pC5gM3J1jErv3rkJlC2rPslqv3W2_Jy0TNEPqFyT8X5umgovp0eRsrFQcFnqk-_OCPBCVZ9DYCeJivEiSqZMl26ZdukixfbMkj_aSoi9LkqnJUbvcYBTHrT_d40ikWoNNjc02BHACNnNSRRWzfh6Cv2yx3iR0X5OWD2XhrvF20YM0MZu2X7XnMY7KsyVDvL4KBL8Bo74EVzxLJPHswo2idy_2hfviKXJ9q0xeNUf_7Ggeri_ve_0w4dBNtIL9ZFIbdcZVe81MtRDNfFL2BS7Tqti84nfgZLDfIMng6xjXzNf8Exuag1ojOoeAvOaEB6K7jYZdehCvkk9Wcqe9TyzsXcgQP8nD2C8knL6uq91WPmm0RL6dEwZpMwyzm-a0le7j1PMYMlZbnPiSxfndAlTytRWedDjKQFRZjcaZ8zEzZr1gyW15BRjvwrKWc7Ynw7GOeypdOZNUftgh32w-U-DPuqTZ-2Ft9Q4U2fzb89mKBQKbqBFN1bhLJ_6LMln3CL-E-gBr7psnjkYVX-T79zLeAqAfT9iqi3ywLLhFE-4blVWW48MIinGh5RTzQu0Mcs6G7groBssTMGedMGeeE0ONH_7lV6YljLOf6qY1PCwqStRkVcx_r4-YQqs6jHMt4pRGX9ZYCu-58LJCbIMFt8-YKDGge1IfSywo0P0Qba6vVZGt3kDM6os4EkJG7_-fY9H_Cq9ELMB5TRO7mBbHheLq7GpsV97rReBjvj0L6qLlYBwJcAodwb7CFtLozXpiobbi0ZYTlNhyvcPp62tIme19UdyBnIN9ybXoVmdo-M4Au7qNnrLzBiDeRKQqjP-JArxrwYNS8r-6DA2Y1ZoMfouk_smEOgpjfj2fOjEZoyzNUu9UJetSoX3IS2do-YYueGtx1s4Feb5bEu6Rv-z5Pz1xLskEQiOsFPjmql6eIkBxv3W00]--></g></svg>