<svg xmlns="http://www.w3.org/2000/svg" xmlns:xlink="http://www.w3.org/1999/xlink" contentStyleType="text/css" height="745px" preserveAspectRatio="none" style="width:728px;height:745px;background:#FFFFFF;" version="1.1" viewBox="0 0 728 745" width="728px" zoomAndPan="magnify"><defs/><g><ellipse cx="309.1521" cy="20" fill="#222222" rx="10" ry="10" style="stroke:#222222;stroke-width:1.0;"/><rect fill="#F1F1F1" height="35.9609" rx="12.5" ry="12.5" style="stroke:#181818;stroke-width:0.5;" width="186.7637" x="215.7703" y="50"/><text fill="#000000" font-family="sans-serif" font-size="12" lengthAdjust="spacing" textLength="166.7637" x="225.7703" y="72.9492">Unhandled Exception Occurred</text><polygon fill="#F1F1F1" points="251.676,105.9609,366.6282,105.9609,378.6282,117.9609,366.6282,129.9609,251.676,129.9609,239.676,117.9609,251.676,105.9609" style="stroke:#181818;stroke-width:0.5;"/><text fill="#000000" font-family="sans-serif" font-size="11" lengthAdjust="spacing" textLength="114.9521" x="251.676" y="122.5156">Await operator is used?</text><text fill="#000000" font-family="sans-serif" font-size="11" lengthAdjust="spacing" textLength="18.9546" x="220.7214" y="115.2002">Yes</text><text fill="#000000" font-family="sans-serif" font-size="11" lengthAdjust="spacing" textLength="14.0615" x="378.6282" y="115.2002">No</text><rect fill="#F1F1F1" height="35.9609" rx="12.5" ry="12.5" style="stroke:#181818;stroke-width:0.5;" width="228.7988" x="11" y="139.9609"/><text fill="#000000" font-family="sans-serif" font-size="12" lengthAdjust="spacing" textLength="208.7988" x="21" y="162.9102">Exception is propagated to await points</text><rect fill="#F1F1F1" height="35.9609" rx="12.5" ry="12.5" style="stroke:#181818;stroke-width:0.5;" width="177.4297" x="404.1899" y="187.9609"/><text fill="#000000" font-family="sans-serif" font-size="12" lengthAdjust="spacing" textLength="157.4297" x="414.1899" y="210.9102">Exception is passed to Scope</text><polygon fill="#F1F1F1" points="411.2615,243.9219,574.5481,243.9219,586.5481,255.9219,574.5481,267.9219,411.2615,267.9219,399.2615,255.9219,411.2615,243.9219" style="stroke:#181818;stroke-width:0.5;"/><text fill="#000000" font-family="sans-serif" font-size="11" lengthAdjust="spacing" textLength="163.2866" x="411.2615" y="260.4766">Scope has an exception handler?</text><text fill="#000000" font-family="sans-serif" font-size="11" lengthAdjust="spacing" textLength="18.9546" x="380.3069" y="253.1611">Yes</text><text fill="#000000" font-family="sans-serif" font-size="11" lengthAdjust="spacing" textLength="14.0615" x="586.5481" y="253.1611">No</text><rect fill="#F1F1F1" height="35.9609" rx="12.5" ry="12.5" style="stroke:#181818;stroke-width:0.5;" width="153.4238" x="312.5496" y="277.9219"/><text fill="#000000" font-family="sans-serif" font-size="12" lengthAdjust="spacing" textLength="133.4238" x="322.5496" y="300.8711">Invoke exception handler</text><ellipse cx="389.2615" cy="344.8828" fill="none" rx="11" ry="11" style="stroke:#222222;stroke-width:1.0;"/><ellipse cx="389.2615" cy="344.8828" fill="#222222" rx="6" ry="6" style="stroke:#222222;stroke-width:1.0;"/><rect fill="#F1F1F1" height="35.9609" rx="12.5" ry="12.5" style="stroke:#181818;stroke-width:0.5;" width="103.373" x="544.8616" y="277.9219"/><text fill="#000000" font-family="sans-serif" font-size="12" lengthAdjust="spacing" textLength="83.373" x="554.8616" y="300.8711">Scope::cancel()</text><rect fill="#F1F1F1" height="35.9609" rx="12.5" ry="12.5" style="stroke:#181818;stroke-width:0.5;" width="258.125" x="363.8423" y="425.1982"/><text fill="#000000" font-family="sans-serif" font-size="12" lengthAdjust="spacing" textLength="238.125" x="373.8423" y="448.1475">All responsibility points receive the exception</text><ellipse cx="492.9048" cy="499.6787" fill="none" rx="11" ry="11" style="stroke:#222222;stroke-width:1.0;"/><ellipse cx="492.9048" cy="499.6787" fill="#222222" rx="6" ry="6" style="stroke:#222222;stroke-width:1.0;"/><polygon fill="#F1F1F1" points="414.3311,375.8828,571.4785,375.8828,583.4785,387.8828,571.4785,399.8828,414.3311,399.8828,402.3311,387.8828,414.3311,375.8828" style="stroke:#181818;stroke-width:0.5;"/><text fill="#000000" font-family="sans-serif" font-size="11" lengthAdjust="spacing" textLength="18.9546" x="496.9048" y="411.7529">Yes</text><text fill="#000000" font-family="sans-serif" font-size="11" lengthAdjust="spacing" textLength="157.1475" x="414.3311" y="392.4375">Scope has responsibility points?</text><polygon fill="#F1F1F1" points="440.9314,552.6787,544.8782,552.6787,556.8782,564.6787,544.8782,576.6787,440.9314,576.6787,428.9314,564.6787,440.9314,552.6787" style="stroke:#181818;stroke-width:0.5;"/><text fill="#000000" font-family="sans-serif" font-size="11" lengthAdjust="spacing" textLength="103.9468" x="440.9314" y="569.2334">Parent Scope exists?</text><text fill="#000000" font-family="sans-serif" font-size="11" lengthAdjust="spacing" textLength="18.9546" x="409.9768" y="561.918">Yes</text><text fill="#000000" font-family="sans-serif" font-size="11" lengthAdjust="spacing" textLength="14.0615" x="556.8782" y="561.918">No</text><rect fill="#F1F1F1" height="35.9609" rx="12.5" ry="12.5" style="stroke:#181818;stroke-width:0.5;" width="190.7715" x="293.7988" y="586.6787"/><text fill="#000000" font-family="sans-serif" font-size="12" lengthAdjust="spacing" textLength="170.7715" x="303.7988" y="609.6279">Pass exception to Parent Scope</text><rect fill="#F1F1F1" height="35.9609" rx="12.5" ry="12.5" style="stroke:#181818;stroke-width:0.5;" width="184.1094" x="504.5703" y="586.6787"/><text fill="#000000" font-family="sans-serif" font-size="12" lengthAdjust="spacing" textLength="164.1094" x="514.5703" y="609.6279">Pass exception to globalScope</text><polygon fill="#F1F1F1" points="458.6641,139.9609,527.1455,139.9609,539.1455,151.9609,527.1455,163.9609,458.6641,163.9609,446.6641,151.9609,458.6641,139.9609" style="stroke:#181818;stroke-width:0.5;"/><text fill="#000000" font-family="sans-serif" font-size="11" lengthAdjust="spacing" textLength="68.4814" x="458.6641" y="156.5156">Scope exists?</text><polygon fill="#F1F1F1" points="309.1521,668.6396,321.1521,680.6396,309.1521,692.6396,297.1521,680.6396,309.1521,668.6396" style="stroke:#181818;stroke-width:0.5;"/><ellipse cx="309.1521" cy="723.6396" fill="none" rx="11" ry="11" style="stroke:#222222;stroke-width:1.0;"/><ellipse cx="309.1521" cy="723.6396" fill="#222222" rx="6" ry="6" style="stroke:#222222;stroke-width:1.0;"/><line style="stroke:#181818;stroke-width:1.0;" x1="309.1521" x2="309.1521" y1="30" y2="50"/><polygon fill="#181818" points="305.1521,40,309.1521,50,313.1521,40,309.1521,44" style="stroke:#181818;stroke-width:1.0;"/><line style="stroke:#181818;stroke-width:1.0;" x1="389.2615" x2="389.2615" y1="313.8828" y2="333.8828"/><polygon fill="#181818" points="385.2615,323.8828,389.2615,333.8828,393.2615,323.8828,389.2615,327.8828" style="stroke:#181818;stroke-width:1.0;"/><line style="stroke:#181818;stroke-width:1.0;" x1="399.2615" x2="389.2615" y1="255.9219" y2="255.9219"/><line style="stroke:#181818;stroke-width:1.0;" x1="389.2615" x2="389.2615" y1="255.9219" y2="277.9219"/><polygon fill="#181818" points="385.2615,267.9219,389.2615,277.9219,393.2615,267.9219,389.2615,271.9219" style="stroke:#181818;stroke-width:1.0;"/><line style="stroke:#181818;stroke-width:1.0;" x1="586.5481" x2="596.5481" y1="255.9219" y2="255.9219"/><line style="stroke:#181818;stroke-width:1.0;" x1="596.5481" x2="596.5481" y1="255.9219" y2="277.9219"/><polygon fill="#181818" points="592.5481,267.9219,596.5481,277.9219,600.5481,267.9219,596.5481,271.9219" style="stroke:#181818;stroke-width:1.0;"/><line style="stroke:#181818;stroke-width:1.0;" x1="596.5481" x2="596.5481" y1="313.8828" y2="360.8828"/><line style="stroke:#181818;stroke-width:1.0;" x1="596.5481" x2="492.9048" y1="360.8828" y2="360.8828"/><line style="stroke:#181818;stroke-width:1.0;" x1="492.9048" x2="492.9048" y1="360.8828" y2="375.8828"/><polygon fill="#181818" points="488.9048,365.8828,492.9048,375.8828,496.9048,365.8828,492.9048,369.8828" style="stroke:#181818;stroke-width:1.0;"/><line style="stroke:#181818;stroke-width:1.0;" x1="492.9048" x2="492.9048" y1="223.9219" y2="243.9219"/><polygon fill="#181818" points="488.9048,233.9219,492.9048,243.9219,496.9048,233.9219,492.9048,237.9219" style="stroke:#181818;stroke-width:1.0;"/><line style="stroke:#181818;stroke-width:1.0;" x1="492.9048" x2="492.9048" y1="461.1592" y2="488.6787"/><polygon fill="#181818" points="488.9048,478.6787,492.9048,488.6787,496.9048,478.6787,492.9048,482.6787" style="stroke:#181818;stroke-width:1.0;"/><line style="stroke:#181818;stroke-width:1.0;" x1="492.9048" x2="492.9048" y1="399.8828" y2="425.1982"/><polygon fill="#181818" points="488.9048,415.1982,492.9048,425.1982,496.9048,415.1982,492.9048,419.1982" style="stroke:#181818;stroke-width:1.0;"/><line style="stroke:#181818;stroke-width:1.0;" x1="583.4785" x2="631.9673" y1="387.8828" y2="387.8828"/><polygon fill="#181818" points="627.9673,458.6787,631.9673,468.6787,635.9673,458.6787,631.9673,462.6787" style="stroke:#181818;stroke-width:1.0;"/><line style="stroke:#181818;stroke-width:1.0;" x1="631.9673" x2="631.9673" y1="387.8828" y2="532.6787"/><line style="stroke:#181818;stroke-width:1.0;" x1="631.9673" x2="492.9048" y1="532.6787" y2="532.6787"/><line style="stroke:#181818;stroke-width:1.0;" x1="492.9048" x2="492.9048" y1="532.6787" y2="552.6787"/><polygon fill="#181818" points="488.9048,542.6787,492.9048,552.6787,496.9048,542.6787,492.9048,546.6787" style="stroke:#181818;stroke-width:1.0;"/><line style="stroke:#181818;stroke-width:1.0;" x1="596.625" x2="596.625" y1="622.6396" y2="636.6396"/><line style="stroke:#181818;stroke-width:1.0;" x1="596.625" x2="271.7988" y1="636.6396" y2="636.6396"/><polygon fill="#181818" points="281.7988,632.6396,271.7988,636.6396,281.7988,640.6396,277.7988,636.6396" style="stroke:#181818;stroke-width:1.0;"/><line style="stroke:#181818;stroke-width:1.0;" x1="428.9314" x2="389.1846" y1="564.6787" y2="564.6787"/><line style="stroke:#181818;stroke-width:1.0;" x1="389.1846" x2="389.1846" y1="564.6787" y2="586.6787"/><polygon fill="#181818" points="385.1846,576.6787,389.1846,586.6787,393.1846,576.6787,389.1846,580.6787" style="stroke:#181818;stroke-width:1.0;"/><line style="stroke:#181818;stroke-width:1.0;" x1="556.8782" x2="596.625" y1="564.6787" y2="564.6787"/><line style="stroke:#181818;stroke-width:1.0;" x1="596.625" x2="596.625" y1="564.6787" y2="586.6787"/><polygon fill="#181818" points="592.625,576.6787,596.625,586.6787,600.625,576.6787,596.625,580.6787" style="stroke:#181818;stroke-width:1.0;"/><line style="stroke:#181818;stroke-width:1.0;" x1="389.1846" x2="389.1846" y1="622.6396" y2="642.6396"/><line style="stroke:#181818;stroke-width:1.0;" x1="389.1846" x2="702.6797" y1="642.6396" y2="642.6396"/><polygon fill="#181818" points="698.6797,408.1982,702.6797,398.1982,706.6797,408.1982,702.6797,404.1982" style="stroke:#181818;stroke-width:1.0;"/><line style="stroke:#181818;stroke-width:1.0;" x1="702.6797" x2="702.6797" y1="151.9609" y2="642.6396"/><line style="stroke:#181818;stroke-width:1.0;" x1="702.6797" x2="539.1455" y1="151.9609" y2="151.9609"/><polygon fill="#181818" points="549.1455,147.9609,539.1455,151.9609,549.1455,155.9609,545.1455,151.9609" style="stroke:#181818;stroke-width:1.0;"/><line style="stroke:#181818;stroke-width:1.0;" x1="492.9048" x2="492.9048" y1="163.9609" y2="187.9609"/><polygon fill="#181818" points="488.9048,177.9609,492.9048,187.9609,496.9048,177.9609,492.9048,181.9609" style="stroke:#181818;stroke-width:1.0;"/><line style="stroke:#181818;stroke-width:1.0;" x1="446.6641" x2="271.7988" y1="151.9609" y2="151.9609"/><polygon fill="#181818" points="267.7988,400.1982,271.7988,410.1982,275.7988,400.1982,271.7988,404.1982" style="stroke:#181818;stroke-width:1.0;"/><line style="stroke:#181818;stroke-width:1.0;" x1="271.7988" x2="271.7988" y1="151.9609" y2="662.6396"/><line style="stroke:#181818;stroke-width:1.0;" x1="271.7988" x2="492.9048" y1="662.6396" y2="662.6396"/><line style="stroke:#181818;stroke-width:1.0;" x1="492.9048" x2="492.9048" y1="662.6396" y2="680.6396"/><line style="stroke:#181818;stroke-width:1.0;" x1="492.9048" x2="321.1521" y1="680.6396" y2="680.6396"/><polygon fill="#181818" points="331.1521,676.6396,321.1521,680.6396,331.1521,684.6396,327.1521,680.6396" style="stroke:#181818;stroke-width:1.0;"/><line style="stroke:#181818;stroke-width:1.0;" x1="239.676" x2="125.3994" y1="117.9609" y2="117.9609"/><line style="stroke:#181818;stroke-width:1.0;" x1="125.3994" x2="125.3994" y1="117.9609" y2="139.9609"/><polygon fill="#181818" points="121.3994,129.9609,125.3994,139.9609,129.3994,129.9609,125.3994,133.9609" style="stroke:#181818;stroke-width:1.0;"/><line style="stroke:#181818;stroke-width:1.0;" x1="378.6282" x2="492.9048" y1="117.9609" y2="117.9609"/><line style="stroke:#181818;stroke-width:1.0;" x1="492.9048" x2="492.9048" y1="117.9609" y2="139.9609"/><polygon fill="#181818" points="488.9048,129.9609,492.9048,139.9609,496.9048,129.9609,492.9048,133.9609" style="stroke:#181818;stroke-width:1.0;"/><line style="stroke:#181818;stroke-width:1.0;" x1="125.3994" x2="125.3994" y1="175.9219" y2="680.6396"/><line style="stroke:#181818;stroke-width:1.0;" x1="125.3994" x2="297.1521" y1="680.6396" y2="680.6396"/><polygon fill="#181818" points="287.1521,676.6396,297.1521,680.6396,287.1521,684.6396,291.1521,680.6396" style="stroke:#181818;stroke-width:1.0;"/><line style="stroke:#181818;stroke-width:1.0;" x1="309.1521" x2="309.1521" y1="85.9609" y2="105.9609"/><polygon fill="#181818" points="305.1521,95.9609,309.1521,105.9609,313.1521,95.9609,309.1521,99.9609" style="stroke:#181818;stroke-width:1.0;"/><line style="stroke:#181818;stroke-width:1.0;" x1="309.1521" x2="309.1521" y1="692.6396" y2="712.6396"/><polygon fill="#181818" points="305.1521,702.6396,309.1521,712.6396,313.1521,702.6396,309.1521,706.6396" style="stroke:#181818;stroke-width:1.0;"/><!--SRC=[XPA_SeCm3CPtda8Zl08CkGmTkhIvwtN8A8mITF7PFalvqxUlWHP28Qad4Ff-_Zu9KOoQbP-kHTTOQk3bPYWeUmVlnfnZfARA-03vzegiu0D5L1-11Sv2pQO0RSb1lYSfCaYdd02f9qGVy8YQmEe1UqRmx5IgZAmGv6z-q5rRjkdrmwGhW6uiAflXomeLHGPYtrwDRPtHWT2Y0Be4-fKD-UBIy7Z5gxlu4oqbrQnDr8UnC8ymadeBPMdG6R9vCG78DNnuu3QI1E-4QxQiNpzJUc9tQ-sw9bKDyOKwvPJcMOg5gnr6SWhpPJnqialhk1jRMikzllflMalvqVeQxHzrT-f8U5hndPxw_oSRIbswRm00]--></g></svg>