<svg xmlns="http://www.w3.org/2000/svg" xmlns:xlink="http://www.w3.org/1999/xlink" contentStyleType="text/css" height="544px" preserveAspectRatio="none" style="width:2498px;height:544px;background:#FFFFFF;" version="1.1" viewBox="0 0 2498 544" width="2498px" zoomAndPan="magnify"><defs/><g><!--cluster PHP True Async RFC--><g id="cluster_PHP True Async RFC"><path d="M8.5,6.0137 L151.0859,6.0137 A3.75,3.75 0 0 1 153.5859,8.5137 L160.5859,30.6348 L2488.5,30.6348 A2.5,2.5 0 0 1 2491,33.1348 L2491,534.5137 A2.5,2.5 0 0 1 2488.5,537.0137 L8.5,537.0137 A2.5,2.5 0 0 1 6,534.5137 L6,8.5137 A2.5,2.5 0 0 1 8.5,6.0137 " fill="none" style="stroke:#000000;stroke-width:1.5;"/><line style="stroke:#000000;stroke-width:1.5;" x1="6" x2="160.5859" y1="30.6348" y2="30.6348"/><text fill="#000000" font-family="sans-serif" font-size="14" font-weight="bold" lengthAdjust="spacing" textLength="141.5859" x="10" y="23.1211">PHP True Async RFC</text></g><!--cluster Requirements--><g id="cluster_Requirements"><path d="M474.5,51.0137 L568.8584,51.0137 A3.75,3.75 0 0 1 571.3584,53.5137 L578.3584,75.6348 L1766.5,75.6348 A2.5,2.5 0 0 1 1769,78.1348 L1769,168.5137 A2.5,2.5 0 0 1 1766.5,171.0137 L474.5,171.0137 A2.5,2.5 0 0 1 472,168.5137 L472,53.5137 A2.5,2.5 0 0 1 474.5,51.0137 " fill="none" style="stroke:#000000;stroke-width:1.5;"/><line style="stroke:#000000;stroke-width:1.5;" x1="472" x2="578.3584" y1="75.6348" y2="75.6348"/><text fill="#000000" font-family="sans-serif" font-size="14" font-weight="bold" lengthAdjust="spacing" textLength="93.3584" x="476" y="68.1211">Requirements</text></g><!--cluster Features--><g id="cluster_Features"><path d="M587.5,222.0137 L646.8584,222.0137 A3.75,3.75 0 0 1 649.3584,224.5137 L656.3584,246.6348 L2124.5,246.6348 A2.5,2.5 0 0 1 2127,249.1348 L2127,339.5137 A2.5,2.5 0 0 1 2124.5,342.0137 L587.5,342.0137 A2.5,2.5 0 0 1 585,339.5137 L585,224.5137 A2.5,2.5 0 0 1 587.5,222.0137 " fill="none" style="stroke:#000000;stroke-width:1.5;"/><line style="stroke:#000000;stroke-width:1.5;" x1="585" x2="656.3584" y1="246.6348" y2="246.6348"/><text fill="#000000" font-family="sans-serif" font-size="14" font-weight="bold" lengthAdjust="spacing" textLength="58.3584" x="589" y="239.1211">Features</text></g><!--cluster Architectural Changes--><g id="cluster_Architectural Changes"><path d="M500.5,393.0137 L650.8721,393.0137 A3.75,3.75 0 0 1 653.3721,395.5137 L660.3721,417.6348 L1736.5,417.6348 A2.5,2.5 0 0 1 1739,420.1348 L1739,510.5137 A2.5,2.5 0 0 1 1736.5,513.0137 L500.5,513.0137 A2.5,2.5 0 0 1 498,510.5137 L498,395.5137 A2.5,2.5 0 0 1 500.5,393.0137 " fill="none" style="stroke:#000000;stroke-width:1.5;"/><line style="stroke:#000000;stroke-width:1.5;" x1="498" x2="660.3721" y1="417.6348" y2="417.6348"/><text fill="#000000" font-family="sans-serif" font-size="14" font-weight="bold" lengthAdjust="spacing" textLength="149.3721" x="502" y="410.1211">Architectural Changes</text></g><!--class R1--><g id="elem_R1"><rect fill="#F1F1F1" height="66.6211" id="R1" rx="2.5" ry="2.5" style="stroke:#181818;stroke-width:0.5;" width="169.1924" x="488.5" y="88.0137"/><ellipse cx="559.8979" cy="104.0137" fill="#ADD1B2" rx="11" ry="11" style="stroke:#181818;stroke-width:1.0;"/><path d="M562.6636,99.8887 Q562.8198,99.6699 563.0073,99.5605 Q563.1948,99.4512 563.4136,99.4512 Q563.7886,99.4512 564.0229,99.7168 Q564.2573,99.9668 564.2573,100.5762 L564.2573,102.0293 Q564.2573,102.6387 564.0229,102.9043 Q563.7886,103.1699 563.4136,103.1699 Q563.0698,103.1699 562.8667,102.9668 Q562.6636,102.7793 562.5542,102.2637 Q562.5073,101.9043 562.3198,101.7168 Q561.9917,101.3418 561.3823,101.123 Q560.7729,100.9043 560.1479,100.9043 Q559.3823,100.9043 558.7417,101.2324 Q558.1167,101.5605 557.6167,102.3105 Q557.1323,103.0605 557.1323,104.0918 L557.1323,105.1855 Q557.1323,106.4199 558.0229,107.248 Q558.9136,108.0605 560.5073,108.0605 Q561.4448,108.0605 562.1011,107.8105 Q562.4917,107.6543 562.9136,107.2168 Q563.1792,106.9512 563.3198,106.873 Q563.4761,106.7949 563.6792,106.7949 Q564.0073,106.7949 564.2573,107.0605 Q564.5229,107.3105 564.5229,107.6543 Q564.5229,107.998 564.1792,108.4043 Q563.6792,108.9824 562.8823,109.3105 Q561.8042,109.7637 560.5073,109.7637 Q558.9917,109.7637 557.7886,109.1387 Q556.8042,108.6387 556.1167,107.5762 Q555.4292,106.498 555.4292,105.2168 L555.4292,104.0605 Q555.4292,102.7324 556.0386,101.5918 Q556.6636,100.4355 557.7573,99.8262 Q558.8511,99.2012 560.0854,99.2012 Q560.8198,99.2012 561.4604,99.373 Q562.1167,99.5293 562.6636,99.8887 Z " fill="#000000"/><text fill="#000000" font-family="sans-serif" font-size="14" lengthAdjust="spacing" textLength="17.8965" x="580.3979" y="109.8105">R1</text><line style="stroke:#181818;stroke-width:0.5;" x1="489.5" x2="656.6924" y1="120.0137" y2="120.0137"/><text fill="#000000" font-family="sans-serif" font-size="14" lengthAdjust="spacing" textLength="157.1924" x="494.5" y="139.1211">Non-blocking I/O Support</text><line style="stroke:#181818;stroke-width:0.5;" x1="489.5" x2="656.6924" y1="146.6348" y2="146.6348"/></g><!--class R2--><g id="elem_R2"><rect fill="#F1F1F1" height="66.6211" id="R2" rx="2.5" ry="2.5" style="stroke:#181818;stroke-width:0.5;" width="159.8408" x="887" y="88.0137"/><ellipse cx="953.7222" cy="104.0137" fill="#ADD1B2" rx="11" ry="11" style="stroke:#181818;stroke-width:1.0;"/><path d="M956.4878,99.8887 Q956.644,99.6699 956.8315,99.5605 Q957.019,99.4512 957.2378,99.4512 Q957.6128,99.4512 957.8472,99.7168 Q958.0815,99.9668 958.0815,100.5762 L958.0815,102.0293 Q958.0815,102.6387 957.8472,102.9043 Q957.6128,103.1699 957.2378,103.1699 Q956.894,103.1699 956.6909,102.9668 Q956.4878,102.7793 956.3784,102.2637 Q956.3315,101.9043 956.144,101.7168 Q955.8159,101.3418 955.2065,101.123 Q954.5972,100.9043 953.9722,100.9043 Q953.2065,100.9043 952.5659,101.2324 Q951.9409,101.5605 951.4409,102.3105 Q950.9565,103.0605 950.9565,104.0918 L950.9565,105.1855 Q950.9565,106.4199 951.8472,107.248 Q952.7378,108.0605 954.3315,108.0605 Q955.269,108.0605 955.9253,107.8105 Q956.3159,107.6543 956.7378,107.2168 Q957.0034,106.9512 957.144,106.873 Q957.3003,106.7949 957.5034,106.7949 Q957.8315,106.7949 958.0815,107.0605 Q958.3472,107.3105 958.3472,107.6543 Q958.3472,107.998 958.0034,108.4043 Q957.5034,108.9824 956.7065,109.3105 Q955.6284,109.7637 954.3315,109.7637 Q952.8159,109.7637 951.6128,109.1387 Q950.6284,108.6387 949.9409,107.5762 Q949.2534,106.498 949.2534,105.2168 L949.2534,104.0605 Q949.2534,102.7324 949.8628,101.5918 Q950.4878,100.4355 951.5815,99.8262 Q952.6753,99.2012 953.9097,99.2012 Q954.644,99.2012 955.2847,99.373 Q955.9409,99.5293 956.4878,99.8887 Z " fill="#000000"/><text fill="#000000" font-family="sans-serif" font-size="14" lengthAdjust="spacing" textLength="17.8965" x="974.2222" y="109.8105">R2</text><line style="stroke:#181818;stroke-width:0.5;" x1="888" x2="1045.8408" y1="120.0137" y2="120.0137"/><text fill="#000000" font-family="sans-serif" font-size="14" lengthAdjust="spacing" textLength="147.8408" x="893" y="139.1211">Structured Concurrency</text><line style="stroke:#181818;stroke-width:0.5;" x1="888" x2="1045.8408" y1="146.6348" y2="146.6348"/></g><!--class R3--><g id="elem_R3"><rect fill="#F1F1F1" height="66.6211" id="R3" rx="2.5" ry="2.5" style="stroke:#181818;stroke-width:0.5;" width="159.0752" x="692.5" y="88.0137"/><ellipse cx="758.8394" cy="104.0137" fill="#ADD1B2" rx="11" ry="11" style="stroke:#181818;stroke-width:1.0;"/><path d="M761.605,99.8887 Q761.7612,99.6699 761.9487,99.5605 Q762.1362,99.4512 762.355,99.4512 Q762.73,99.4512 762.9644,99.7168 Q763.1987,99.9668 763.1987,100.5762 L763.1987,102.0293 Q763.1987,102.6387 762.9644,102.9043 Q762.73,103.1699 762.355,103.1699 Q762.0112,103.1699 761.8081,102.9668 Q761.605,102.7793 761.4956,102.2637 Q761.4487,101.9043 761.2612,101.7168 Q760.9331,101.3418 760.3237,101.123 Q759.7144,100.9043 759.0894,100.9043 Q758.3237,100.9043 757.6831,101.2324 Q757.0581,101.5605 756.5581,102.3105 Q756.0737,103.0605 756.0737,104.0918 L756.0737,105.1855 Q756.0737,106.4199 756.9644,107.248 Q757.855,108.0605 759.4487,108.0605 Q760.3862,108.0605 761.0425,107.8105 Q761.4331,107.6543 761.855,107.2168 Q762.1206,106.9512 762.2612,106.873 Q762.4175,106.7949 762.6206,106.7949 Q762.9487,106.7949 763.1987,107.0605 Q763.4644,107.3105 763.4644,107.6543 Q763.4644,107.998 763.1206,108.4043 Q762.6206,108.9824 761.8237,109.3105 Q760.7456,109.7637 759.4487,109.7637 Q757.9331,109.7637 756.73,109.1387 Q755.7456,108.6387 755.0581,107.5762 Q754.3706,106.498 754.3706,105.2168 L754.3706,104.0605 Q754.3706,102.7324 754.98,101.5918 Q755.605,100.4355 756.6987,99.8262 Q757.7925,99.2012 759.0269,99.2012 Q759.7612,99.2012 760.4019,99.373 Q761.0581,99.5293 761.605,99.8887 Z " fill="#000000"/><text fill="#000000" font-family="sans-serif" font-size="14" lengthAdjust="spacing" textLength="17.8965" x="779.3394" y="109.8105">R3</text><line style="stroke:#181818;stroke-width:0.5;" x1="693.5" x2="850.5752" y1="120.0137" y2="120.0137"/><text fill="#000000" font-family="sans-serif" font-size="14" lengthAdjust="spacing" textLength="147.0752" x="698.5" y="139.1211">Transparent Coroutines</text><line style="stroke:#181818;stroke-width:0.5;" x1="693.5" x2="850.5752" y1="146.6348" y2="146.6348"/></g><!--class R4--><g id="elem_R4"><rect fill="#F1F1F1" height="66.6211" id="R4" rx="2.5" ry="2.5" style="stroke:#181818;stroke-width:0.5;" width="138.0684" x="1293" y="88.0137"/><ellipse cx="1348.8359" cy="104.0137" fill="#ADD1B2" rx="11" ry="11" style="stroke:#181818;stroke-width:1.0;"/><path d="M1351.6016,99.8887 Q1351.7578,99.6699 1351.9453,99.5605 Q1352.1328,99.4512 1352.3516,99.4512 Q1352.7266,99.4512 1352.9609,99.7168 Q1353.1953,99.9668 1353.1953,100.5762 L1353.1953,102.0293 Q1353.1953,102.6387 1352.9609,102.9043 Q1352.7266,103.1699 1352.3516,103.1699 Q1352.0078,103.1699 1351.8047,102.9668 Q1351.6016,102.7793 1351.4922,102.2637 Q1351.4453,101.9043 1351.2578,101.7168 Q1350.9297,101.3418 1350.3203,101.123 Q1349.7109,100.9043 1349.0859,100.9043 Q1348.3203,100.9043 1347.6797,101.2324 Q1347.0547,101.5605 1346.5547,102.3105 Q1346.0703,103.0605 1346.0703,104.0918 L1346.0703,105.1855 Q1346.0703,106.4199 1346.9609,107.248 Q1347.8516,108.0605 1349.4453,108.0605 Q1350.3828,108.0605 1351.0391,107.8105 Q1351.4297,107.6543 1351.8516,107.2168 Q1352.1172,106.9512 1352.2578,106.873 Q1352.4141,106.7949 1352.6172,106.7949 Q1352.9453,106.7949 1353.1953,107.0605 Q1353.4609,107.3105 1353.4609,107.6543 Q1353.4609,107.998 1353.1172,108.4043 Q1352.6172,108.9824 1351.8203,109.3105 Q1350.7422,109.7637 1349.4453,109.7637 Q1347.9297,109.7637 1346.7266,109.1387 Q1345.7422,108.6387 1345.0547,107.5762 Q1344.3672,106.498 1344.3672,105.2168 L1344.3672,104.0605 Q1344.3672,102.7324 1344.9766,101.5918 Q1345.6016,100.4355 1346.6953,99.8262 Q1347.7891,99.2012 1349.0234,99.2012 Q1349.7578,99.2012 1350.3984,99.373 Q1351.0547,99.5293 1351.6016,99.8887 Z " fill="#000000"/><text fill="#000000" font-family="sans-serif" font-size="14" lengthAdjust="spacing" textLength="17.8965" x="1369.3359" y="109.8105">R4</text><line style="stroke:#181818;stroke-width:0.5;" x1="1294" x2="1430.0684" y1="120.0137" y2="120.0137"/><text fill="#000000" font-family="sans-serif" font-size="14" lengthAdjust="spacing" textLength="126.0684" x="1299" y="139.1211">Cancellation Control</text><line style="stroke:#181818;stroke-width:0.5;" x1="1294" x2="1430.0684" y1="146.6348" y2="146.6348"/></g><!--class R5--><g id="elem_R5"><rect fill="#F1F1F1" height="66.6211" id="R5" rx="2.5" ry="2.5" style="stroke:#181818;stroke-width:0.5;" width="145.8545" x="1466" y="88.0137"/><ellipse cx="1525.729" cy="104.0137" fill="#ADD1B2" rx="11" ry="11" style="stroke:#181818;stroke-width:1.0;"/><path d="M1528.4946,99.8887 Q1528.6509,99.6699 1528.8384,99.5605 Q1529.0259,99.4512 1529.2446,99.4512 Q1529.6196,99.4512 1529.854,99.7168 Q1530.0884,99.9668 1530.0884,100.5762 L1530.0884,102.0293 Q1530.0884,102.6387 1529.854,102.9043 Q1529.6196,103.1699 1529.2446,103.1699 Q1528.9009,103.1699 1528.6978,102.9668 Q1528.4946,102.7793 1528.3853,102.2637 Q1528.3384,101.9043 1528.1509,101.7168 Q1527.8228,101.3418 1527.2134,101.123 Q1526.604,100.9043 1525.979,100.9043 Q1525.2134,100.9043 1524.5728,101.2324 Q1523.9478,101.5605 1523.4478,102.3105 Q1522.9634,103.0605 1522.9634,104.0918 L1522.9634,105.1855 Q1522.9634,106.4199 1523.854,107.248 Q1524.7446,108.0605 1526.3384,108.0605 Q1527.2759,108.0605 1527.9321,107.8105 Q1528.3228,107.6543 1528.7446,107.2168 Q1529.0103,106.9512 1529.1509,106.873 Q1529.3071,106.7949 1529.5103,106.7949 Q1529.8384,106.7949 1530.0884,107.0605 Q1530.354,107.3105 1530.354,107.6543 Q1530.354,107.998 1530.0103,108.4043 Q1529.5103,108.9824 1528.7134,109.3105 Q1527.6353,109.7637 1526.3384,109.7637 Q1524.8228,109.7637 1523.6196,109.1387 Q1522.6353,108.6387 1521.9478,107.5762 Q1521.2603,106.498 1521.2603,105.2168 L1521.2603,104.0605 Q1521.2603,102.7324 1521.8696,101.5918 Q1522.4946,100.4355 1523.5884,99.8262 Q1524.6821,99.2012 1525.9165,99.2012 Q1526.6509,99.2012 1527.2915,99.373 Q1527.9478,99.5293 1528.4946,99.8887 Z " fill="#000000"/><text fill="#000000" font-family="sans-serif" font-size="14" lengthAdjust="spacing" textLength="17.8965" x="1546.229" y="109.8105">R5</text><line style="stroke:#181818;stroke-width:0.5;" x1="1467" x2="1610.8545" y1="120.0137" y2="120.0137"/><text fill="#000000" font-family="sans-serif" font-size="14" lengthAdjust="spacing" textLength="133.8545" x="1472" y="139.1211">Context Management</text><line style="stroke:#181818;stroke-width:0.5;" x1="1467" x2="1610.8545" y1="146.6348" y2="146.6348"/></g><!--class R6--><g id="elem_R6"><rect fill="#F1F1F1" height="66.6211" id="R6" rx="2.5" ry="2.5" style="stroke:#181818;stroke-width:0.5;" width="174.6543" x="1082.5" y="88.0137"/><ellipse cx="1156.6289" cy="104.0137" fill="#ADD1B2" rx="11" ry="11" style="stroke:#181818;stroke-width:1.0;"/><path d="M1159.3945,99.8887 Q1159.5508,99.6699 1159.7383,99.5605 Q1159.9258,99.4512 1160.1445,99.4512 Q1160.5195,99.4512 1160.7539,99.7168 Q1160.9883,99.9668 1160.9883,100.5762 L1160.9883,102.0293 Q1160.9883,102.6387 1160.7539,102.9043 Q1160.5195,103.1699 1160.1445,103.1699 Q1159.8008,103.1699 1159.5977,102.9668 Q1159.3945,102.7793 1159.2852,102.2637 Q1159.2383,101.9043 1159.0508,101.7168 Q1158.7227,101.3418 1158.1133,101.123 Q1157.5039,100.9043 1156.8789,100.9043 Q1156.1133,100.9043 1155.4727,101.2324 Q1154.8477,101.5605 1154.3477,102.3105 Q1153.8633,103.0605 1153.8633,104.0918 L1153.8633,105.1855 Q1153.8633,106.4199 1154.7539,107.248 Q1155.6445,108.0605 1157.2383,108.0605 Q1158.1758,108.0605 1158.832,107.8105 Q1159.2227,107.6543 1159.6445,107.2168 Q1159.9102,106.9512 1160.0508,106.873 Q1160.207,106.7949 1160.4102,106.7949 Q1160.7383,106.7949 1160.9883,107.0605 Q1161.2539,107.3105 1161.2539,107.6543 Q1161.2539,107.998 1160.9102,108.4043 Q1160.4102,108.9824 1159.6133,109.3105 Q1158.5352,109.7637 1157.2383,109.7637 Q1155.7227,109.7637 1154.5195,109.1387 Q1153.5352,108.6387 1152.8477,107.5762 Q1152.1602,106.498 1152.1602,105.2168 L1152.1602,104.0605 Q1152.1602,102.7324 1152.7695,101.5918 Q1153.3945,100.4355 1154.4883,99.8262 Q1155.582,99.2012 1156.8164,99.2012 Q1157.5508,99.2012 1158.1914,99.373 Q1158.8477,99.5293 1159.3945,99.8887 Z " fill="#000000"/><text fill="#000000" font-family="sans-serif" font-size="14" lengthAdjust="spacing" textLength="17.8965" x="1177.1289" y="109.8105">R6</text><line style="stroke:#181818;stroke-width:0.5;" x1="1083.5" x2="1256.1543" y1="120.0137" y2="120.0137"/><text fill="#000000" font-family="sans-serif" font-size="14" lengthAdjust="spacing" textLength="162.6543" x="1088.5" y="139.1211">Task Grouping and Scope</text><line style="stroke:#181818;stroke-width:0.5;" x1="1083.5" x2="1256.1543" y1="146.6348" y2="146.6348"/></g><!--class R7--><g id="elem_R7"><rect fill="#F1F1F1" height="66.6211" id="R7" rx="2.5" ry="2.5" style="stroke:#181818;stroke-width:0.5;" width="106.1445" x="1647" y="88.0137"/><ellipse cx="1687.3116" cy="104.0137" fill="#ADD1B2" rx="11" ry="11" style="stroke:#181818;stroke-width:1.0;"/><path d="M1690.0772,99.8887 Q1690.2335,99.6699 1690.421,99.5605 Q1690.6085,99.4512 1690.8272,99.4512 Q1691.2022,99.4512 1691.4366,99.7168 Q1691.671,99.9668 1691.671,100.5762 L1691.671,102.0293 Q1691.671,102.6387 1691.4366,102.9043 Q1691.2022,103.1699 1690.8272,103.1699 Q1690.4835,103.1699 1690.2804,102.9668 Q1690.0772,102.7793 1689.9679,102.2637 Q1689.921,101.9043 1689.7335,101.7168 Q1689.4054,101.3418 1688.796,101.123 Q1688.1866,100.9043 1687.5616,100.9043 Q1686.796,100.9043 1686.1554,101.2324 Q1685.5304,101.5605 1685.0304,102.3105 Q1684.546,103.0605 1684.546,104.0918 L1684.546,105.1855 Q1684.546,106.4199 1685.4366,107.248 Q1686.3272,108.0605 1687.921,108.0605 Q1688.8585,108.0605 1689.5147,107.8105 Q1689.9054,107.6543 1690.3272,107.2168 Q1690.5929,106.9512 1690.7335,106.873 Q1690.8897,106.7949 1691.0929,106.7949 Q1691.421,106.7949 1691.671,107.0605 Q1691.9366,107.3105 1691.9366,107.6543 Q1691.9366,107.998 1691.5929,108.4043 Q1691.0929,108.9824 1690.296,109.3105 Q1689.2179,109.7637 1687.921,109.7637 Q1686.4054,109.7637 1685.2022,109.1387 Q1684.2179,108.6387 1683.5304,107.5762 Q1682.8429,106.498 1682.8429,105.2168 L1682.8429,104.0605 Q1682.8429,102.7324 1683.4522,101.5918 Q1684.0772,100.4355 1685.171,99.8262 Q1686.2647,99.2012 1687.4991,99.2012 Q1688.2335,99.2012 1688.8741,99.373 Q1689.5304,99.5293 1690.0772,99.8887 Z " fill="#000000"/><text fill="#000000" font-family="sans-serif" font-size="14" lengthAdjust="spacing" textLength="17.8965" x="1706.9364" y="109.8105">R7</text><line style="stroke:#181818;stroke-width:0.5;" x1="1648" x2="1752.1445" y1="120.0137" y2="120.0137"/><text fill="#000000" font-family="sans-serif" font-size="14" lengthAdjust="spacing" textLength="94.1445" x="1653" y="139.1211">Error Detection</text><line style="stroke:#181818;stroke-width:0.5;" x1="1648" x2="1752.1445" y1="146.6348" y2="146.6348"/></g><!--class F1--><g id="elem_F1"><rect fill="#F1F1F1" height="66.6211" id="F1" rx="2.5" ry="2.5" style="stroke:#181818;stroke-width:0.5;" width="52.4688" x="684" y="259.0137"/><ellipse cx="700.8589" cy="275.0137" fill="#ADD1B2" rx="11" ry="11" style="stroke:#181818;stroke-width:1.0;"/><path d="M703.6245,270.8887 Q703.7808,270.6699 703.9683,270.5605 Q704.1558,270.4512 704.3745,270.4512 Q704.7495,270.4512 704.9839,270.7168 Q705.2183,270.9668 705.2183,271.5762 L705.2183,273.0293 Q705.2183,273.6387 704.9839,273.9043 Q704.7495,274.1699 704.3745,274.1699 Q704.0308,274.1699 703.8276,273.9668 Q703.6245,273.7793 703.5151,273.2637 Q703.4683,272.9043 703.2808,272.7168 Q702.9526,272.3418 702.3433,272.123 Q701.7339,271.9043 701.1089,271.9043 Q700.3433,271.9043 699.7026,272.2324 Q699.0776,272.5605 698.5776,273.3105 Q698.0933,274.0605 698.0933,275.0918 L698.0933,276.1855 Q698.0933,277.4199 698.9839,278.248 Q699.8745,279.0605 701.4683,279.0605 Q702.4058,279.0605 703.062,278.8105 Q703.4526,278.6543 703.8745,278.2168 Q704.1401,277.9512 704.2808,277.873 Q704.437,277.7949 704.6401,277.7949 Q704.9683,277.7949 705.2183,278.0605 Q705.4839,278.3105 705.4839,278.6543 Q705.4839,278.998 705.1401,279.4043 Q704.6401,279.9824 703.8433,280.3105 Q702.7651,280.7637 701.4683,280.7637 Q699.9526,280.7637 698.7495,280.1387 Q697.7651,279.6387 697.0776,278.5762 Q696.3901,277.498 696.3901,276.2168 L696.3901,275.0605 Q696.3901,273.7324 696.9995,272.5918 Q697.6245,271.4355 698.7183,270.8262 Q699.812,270.2012 701.0464,270.2012 Q701.7808,270.2012 702.4214,270.373 Q703.0776,270.5293 703.6245,270.8887 Z " fill="#000000"/><text fill="#000000" font-family="sans-serif" font-size="14" lengthAdjust="spacing" textLength="16.3379" x="715.272" y="280.8105">F1</text><line style="stroke:#181818;stroke-width:0.5;" x1="685" x2="735.4688" y1="291.0137" y2="291.0137"/><text fill="#000000" font-family="sans-serif" font-size="14" lengthAdjust="spacing" textLength="40.4688" x="690" y="310.1211">spawn</text><line style="stroke:#181818;stroke-width:0.5;" x1="685" x2="735.4688" y1="317.6348" y2="317.6348"/></g><!--class F2--><g id="elem_F2"><rect fill="#F1F1F1" height="66.6211" id="F2" rx="2.5" ry="2.5" style="stroke:#181818;stroke-width:0.5;" width="48.3379" x="601" y="259.0137"/><ellipse cx="616" cy="275.0137" fill="#ADD1B2" rx="11" ry="11" style="stroke:#181818;stroke-width:1.0;"/><path d="M618.7656,270.8887 Q618.9219,270.6699 619.1094,270.5605 Q619.2969,270.4512 619.5156,270.4512 Q619.8906,270.4512 620.125,270.7168 Q620.3594,270.9668 620.3594,271.5762 L620.3594,273.0293 Q620.3594,273.6387 620.125,273.9043 Q619.8906,274.1699 619.5156,274.1699 Q619.1719,274.1699 618.9688,273.9668 Q618.7656,273.7793 618.6563,273.2637 Q618.6094,272.9043 618.4219,272.7168 Q618.0938,272.3418 617.4844,272.123 Q616.875,271.9043 616.25,271.9043 Q615.4844,271.9043 614.8438,272.2324 Q614.2188,272.5605 613.7188,273.3105 Q613.2344,274.0605 613.2344,275.0918 L613.2344,276.1855 Q613.2344,277.4199 614.125,278.248 Q615.0156,279.0605 616.6094,279.0605 Q617.5469,279.0605 618.2031,278.8105 Q618.5938,278.6543 619.0156,278.2168 Q619.2813,277.9512 619.4219,277.873 Q619.5781,277.7949 619.7813,277.7949 Q620.1094,277.7949 620.3594,278.0605 Q620.625,278.3105 620.625,278.6543 Q620.625,278.998 620.2813,279.4043 Q619.7813,279.9824 618.9844,280.3105 Q617.9063,280.7637 616.6094,280.7637 Q615.0938,280.7637 613.8906,280.1387 Q612.9063,279.6387 612.2188,278.5762 Q611.5313,277.498 611.5313,276.2168 L611.5313,275.0605 Q611.5313,273.7324 612.1406,272.5918 Q612.7656,271.4355 613.8594,270.8262 Q614.9531,270.2012 616.1875,270.2012 Q616.9219,270.2012 617.5625,270.373 Q618.2188,270.5293 618.7656,270.8887 Z " fill="#000000"/><text fill="#000000" font-family="sans-serif" font-size="14" lengthAdjust="spacing" textLength="16.3379" x="630" y="280.8105">F2</text><line style="stroke:#181818;stroke-width:0.5;" x1="602" x2="648.3379" y1="291.0137" y2="291.0137"/><text fill="#000000" font-family="sans-serif" font-size="14" lengthAdjust="spacing" textLength="32.6826" x="607" y="310.1211">await</text><line style="stroke:#181818;stroke-width:0.5;" x1="602" x2="648.3379" y1="317.6348" y2="317.6348"/></g><!--class F3--><g id="elem_F3"><rect fill="#F1F1F1" height="66.6211" id="F3" rx="2.5" ry="2.5" style="stroke:#181818;stroke-width:0.5;" width="64.9307" x="771.5" y="259.0137"/><ellipse cx="793.9667" cy="275.0137" fill="#ADD1B2" rx="11" ry="11" style="stroke:#181818;stroke-width:1.0;"/><path d="M796.7324,270.8887 Q796.8886,270.6699 797.0761,270.5605 Q797.2636,270.4512 797.4824,270.4512 Q797.8574,270.4512 798.0917,270.7168 Q798.3261,270.9668 798.3261,271.5762 L798.3261,273.0293 Q798.3261,273.6387 798.0917,273.9043 Q797.8574,274.1699 797.4824,274.1699 Q797.1386,274.1699 796.9355,273.9668 Q796.7324,273.7793 796.623,273.2637 Q796.5761,272.9043 796.3886,272.7168 Q796.0605,272.3418 795.4511,272.123 Q794.8417,271.9043 794.2167,271.9043 Q793.4511,271.9043 792.8105,272.2324 Q792.1855,272.5605 791.6855,273.3105 Q791.2011,274.0605 791.2011,275.0918 L791.2011,276.1855 Q791.2011,277.4199 792.0917,278.248 Q792.9824,279.0605 794.5761,279.0605 Q795.5136,279.0605 796.1699,278.8105 Q796.5605,278.6543 796.9824,278.2168 Q797.248,277.9512 797.3886,277.873 Q797.5449,277.7949 797.748,277.7949 Q798.0761,277.7949 798.3261,278.0605 Q798.5917,278.3105 798.5917,278.6543 Q798.5917,278.998 798.248,279.4043 Q797.748,279.9824 796.9511,280.3105 Q795.873,280.7637 794.5761,280.7637 Q793.0605,280.7637 791.8574,280.1387 Q790.873,279.6387 790.1855,278.5762 Q789.498,277.498 789.498,276.2168 L789.498,275.0605 Q789.498,273.7324 790.1074,272.5918 Q790.7324,271.4355 791.8261,270.8262 Q792.9199,270.2012 794.1542,270.2012 Q794.8886,270.2012 795.5292,270.373 Q796.1855,270.5293 796.7324,270.8887 Z " fill="#000000"/><text fill="#000000" font-family="sans-serif" font-size="14" lengthAdjust="spacing" textLength="16.3379" x="809.626" y="280.8105">F3</text><line style="stroke:#181818;stroke-width:0.5;" x1="772.5" x2="835.4307" y1="291.0137" y2="291.0137"/><text fill="#000000" font-family="sans-serif" font-size="14" lengthAdjust="spacing" textLength="52.9307" x="777.5" y="310.1211">suspend</text><line style="stroke:#181818;stroke-width:0.5;" x1="772.5" x2="835.4307" y1="317.6348" y2="317.6348"/></g><!--class F4--><g id="elem_F4"><rect fill="#F1F1F1" height="66.6211" id="F4" rx="2.5" ry="2.5" style="stroke:#181818;stroke-width:0.5;" width="51.6963" x="872" y="259.0137"/><ellipse cx="888.5113" cy="275.0137" fill="#ADD1B2" rx="11" ry="11" style="stroke:#181818;stroke-width:1.0;"/><path d="M891.2769,270.8887 Q891.4332,270.6699 891.6207,270.5605 Q891.8082,270.4512 892.0269,270.4512 Q892.4019,270.4512 892.6363,270.7168 Q892.8707,270.9668 892.8707,271.5762 L892.8707,273.0293 Q892.8707,273.6387 892.6363,273.9043 Q892.4019,274.1699 892.0269,274.1699 Q891.6832,274.1699 891.48,273.9668 Q891.2769,273.7793 891.1675,273.2637 Q891.1207,272.9043 890.9332,272.7168 Q890.605,272.3418 889.9957,272.123 Q889.3863,271.9043 888.7613,271.9043 Q887.9957,271.9043 887.355,272.2324 Q886.73,272.5605 886.23,273.3105 Q885.7457,274.0605 885.7457,275.0918 L885.7457,276.1855 Q885.7457,277.4199 886.6363,278.248 Q887.5269,279.0605 889.1207,279.0605 Q890.0582,279.0605 890.7144,278.8105 Q891.105,278.6543 891.5269,278.2168 Q891.7925,277.9512 891.9332,277.873 Q892.0894,277.7949 892.2925,277.7949 Q892.6207,277.7949 892.8707,278.0605 Q893.1363,278.3105 893.1363,278.6543 Q893.1363,278.998 892.7925,279.4043 Q892.2925,279.9824 891.4957,280.3105 Q890.4175,280.7637 889.1207,280.7637 Q887.605,280.7637 886.4019,280.1387 Q885.4175,279.6387 884.73,278.5762 Q884.0425,277.498 884.0425,276.2168 L884.0425,275.0605 Q884.0425,273.7324 884.6519,272.5918 Q885.2769,271.4355 886.3707,270.8262 Q887.4644,270.2012 888.6988,270.2012 Q889.4332,270.2012 890.0738,270.373 Q890.73,270.5293 891.2769,270.8887 Z " fill="#000000"/><text fill="#000000" font-family="sans-serif" font-size="14" lengthAdjust="spacing" textLength="16.3379" x="902.8471" y="280.8105">F4</text><line style="stroke:#181818;stroke-width:0.5;" x1="873" x2="922.6963" y1="291.0137" y2="291.0137"/><text fill="#000000" font-family="sans-serif" font-size="14" lengthAdjust="spacing" textLength="39.6963" x="878" y="310.1211">Scope</text><line style="stroke:#181818;stroke-width:0.5;" x1="873" x2="922.6963" y1="317.6348" y2="317.6348"/></g><!--class F5--><g id="elem_F5"><rect fill="#F1F1F1" height="66.6211" id="F5" rx="2.5" ry="2.5" style="stroke:#181818;stroke-width:0.5;" width="60.248" x="1886" y="259.0137"/><ellipse cx="1906.3596" cy="275.0137" fill="#ADD1B2" rx="11" ry="11" style="stroke:#181818;stroke-width:1.0;"/><path d="M1909.1252,270.8887 Q1909.2814,270.6699 1909.4689,270.5605 Q1909.6564,270.4512 1909.8752,270.4512 Q1910.2502,270.4512 1910.4846,270.7168 Q1910.7189,270.9668 1910.7189,271.5762 L1910.7189,273.0293 Q1910.7189,273.6387 1910.4846,273.9043 Q1910.2502,274.1699 1909.8752,274.1699 Q1909.5314,274.1699 1909.3283,273.9668 Q1909.1252,273.7793 1909.0158,273.2637 Q1908.9689,272.9043 1908.7814,272.7168 Q1908.4533,272.3418 1907.8439,272.123 Q1907.2346,271.9043 1906.6096,271.9043 Q1905.8439,271.9043 1905.2033,272.2324 Q1904.5783,272.5605 1904.0783,273.3105 Q1903.5939,274.0605 1903.5939,275.0918 L1903.5939,276.1855 Q1903.5939,277.4199 1904.4846,278.248 Q1905.3752,279.0605 1906.9689,279.0605 Q1907.9064,279.0605 1908.5627,278.8105 Q1908.9533,278.6543 1909.3752,278.2168 Q1909.6408,277.9512 1909.7814,277.873 Q1909.9377,277.7949 1910.1408,277.7949 Q1910.4689,277.7949 1910.7189,278.0605 Q1910.9846,278.3105 1910.9846,278.6543 Q1910.9846,278.998 1910.6408,279.4043 Q1910.1408,279.9824 1909.3439,280.3105 Q1908.2658,280.7637 1906.9689,280.7637 Q1905.4533,280.7637 1904.2502,280.1387 Q1903.2658,279.6387 1902.5783,278.5762 Q1901.8908,277.498 1901.8908,276.2168 L1901.8908,275.0605 Q1901.8908,273.7324 1902.5002,272.5918 Q1903.1252,271.4355 1904.2189,270.8262 Q1905.3127,270.2012 1906.5471,270.2012 Q1907.2814,270.2012 1907.9221,270.373 Q1908.5783,270.5293 1909.1252,270.8887 Z " fill="#000000"/><text fill="#000000" font-family="sans-serif" font-size="14" lengthAdjust="spacing" textLength="16.3379" x="1921.5506" y="280.8105">F5</text><line style="stroke:#181818;stroke-width:0.5;" x1="1887" x2="1945.248" y1="291.0137" y2="291.0137"/><text fill="#000000" font-family="sans-serif" font-size="14" lengthAdjust="spacing" textLength="48.248" x="1892" y="310.1211">Context</text><line style="stroke:#181818;stroke-width:0.5;" x1="1887" x2="1945.248" y1="317.6348" y2="317.6348"/></g><!--class F6--><g id="elem_F6"><rect fill="#F1F1F1" height="66.6211" id="F6" rx="2.5" ry="2.5" style="stroke:#181818;stroke-width:0.5;" width="115.5029" x="1490" y="259.0137"/><ellipse cx="1535.3325" cy="275.0137" fill="#ADD1B2" rx="11" ry="11" style="stroke:#181818;stroke-width:1.0;"/><path d="M1538.0981,270.8887 Q1538.2544,270.6699 1538.4419,270.5605 Q1538.6294,270.4512 1538.8481,270.4512 Q1539.2231,270.4512 1539.4575,270.7168 Q1539.6919,270.9668 1539.6919,271.5762 L1539.6919,273.0293 Q1539.6919,273.6387 1539.4575,273.9043 Q1539.2231,274.1699 1538.8481,274.1699 Q1538.5044,274.1699 1538.3013,273.9668 Q1538.0981,273.7793 1537.9888,273.2637 Q1537.9419,272.9043 1537.7544,272.7168 Q1537.4263,272.3418 1536.8169,272.123 Q1536.2075,271.9043 1535.5825,271.9043 Q1534.8169,271.9043 1534.1763,272.2324 Q1533.5513,272.5605 1533.0513,273.3105 Q1532.5669,274.0605 1532.5669,275.0918 L1532.5669,276.1855 Q1532.5669,277.4199 1533.4575,278.248 Q1534.3481,279.0605 1535.9419,279.0605 Q1536.8794,279.0605 1537.5356,278.8105 Q1537.9263,278.6543 1538.3481,278.2168 Q1538.6138,277.9512 1538.7544,277.873 Q1538.9106,277.7949 1539.1138,277.7949 Q1539.4419,277.7949 1539.6919,278.0605 Q1539.9575,278.3105 1539.9575,278.6543 Q1539.9575,278.998 1539.6138,279.4043 Q1539.1138,279.9824 1538.3169,280.3105 Q1537.2388,280.7637 1535.9419,280.7637 Q1534.4263,280.7637 1533.2231,280.1387 Q1532.2388,279.6387 1531.5513,278.5762 Q1530.8638,277.498 1530.8638,276.2168 L1530.8638,275.0605 Q1530.8638,273.7324 1531.4731,272.5918 Q1532.0981,271.4355 1533.1919,270.8262 Q1534.2856,270.2012 1535.52,270.2012 Q1536.2544,270.2012 1536.895,270.373 Q1537.5513,270.5293 1538.0981,270.8887 Z " fill="#000000"/><text fill="#000000" font-family="sans-serif" font-size="14" lengthAdjust="spacing" textLength="16.3379" x="1555.8325" y="280.8105">F6</text><line style="stroke:#181818;stroke-width:0.5;" x1="1491" x2="1604.5029" y1="291.0137" y2="291.0137"/><text fill="#000000" font-family="sans-serif" font-size="14" lengthAdjust="spacing" textLength="103.5029" x="1496" y="310.1211">Cancellation API</text><line style="stroke:#181818;stroke-width:0.5;" x1="1491" x2="1604.5029" y1="317.6348" y2="317.6348"/></g><!--class F7--><g id="elem_F7"><rect fill="#F1F1F1" height="66.6211" id="F7" rx="2.5" ry="2.5" style="stroke:#181818;stroke-width:0.5;" width="212.7646" x="959.5" y="259.0137"/><ellipse cx="1053.4634" cy="275.0137" fill="#ADD1B2" rx="11" ry="11" style="stroke:#181818;stroke-width:1.0;"/><path d="M1056.229,270.8887 Q1056.3853,270.6699 1056.5728,270.5605 Q1056.7603,270.4512 1056.979,270.4512 Q1057.354,270.4512 1057.5884,270.7168 Q1057.8228,270.9668 1057.8228,271.5762 L1057.8228,273.0293 Q1057.8228,273.6387 1057.5884,273.9043 Q1057.354,274.1699 1056.979,274.1699 Q1056.6353,274.1699 1056.4321,273.9668 Q1056.229,273.7793 1056.1196,273.2637 Q1056.0728,272.9043 1055.8853,272.7168 Q1055.5571,272.3418 1054.9478,272.123 Q1054.3384,271.9043 1053.7134,271.9043 Q1052.9478,271.9043 1052.3071,272.2324 Q1051.6821,272.5605 1051.1821,273.3105 Q1050.6978,274.0605 1050.6978,275.0918 L1050.6978,276.1855 Q1050.6978,277.4199 1051.5884,278.248 Q1052.479,279.0605 1054.0728,279.0605 Q1055.0103,279.0605 1055.6665,278.8105 Q1056.0571,278.6543 1056.479,278.2168 Q1056.7446,277.9512 1056.8853,277.873 Q1057.0415,277.7949 1057.2446,277.7949 Q1057.5728,277.7949 1057.8228,278.0605 Q1058.0884,278.3105 1058.0884,278.6543 Q1058.0884,278.998 1057.7446,279.4043 Q1057.2446,279.9824 1056.4478,280.3105 Q1055.3696,280.7637 1054.0728,280.7637 Q1052.5571,280.7637 1051.354,280.1387 Q1050.3696,279.6387 1049.6821,278.5762 Q1048.9946,277.498 1048.9946,276.2168 L1048.9946,275.0605 Q1048.9946,273.7324 1049.604,272.5918 Q1050.229,271.4355 1051.3228,270.8262 Q1052.4165,270.2012 1053.6509,270.2012 Q1054.3853,270.2012 1055.0259,270.373 Q1055.6821,270.5293 1056.229,270.8887 Z " fill="#000000"/><text fill="#000000" font-family="sans-serif" font-size="14" lengthAdjust="spacing" textLength="16.3379" x="1073.9634" y="280.8105">F7</text><line style="stroke:#181818;stroke-width:0.5;" x1="960.5" x2="1171.2646" y1="291.0137" y2="291.0137"/><text fill="#000000" font-family="sans-serif" font-size="14" lengthAdjust="spacing" textLength="200.7646" x="965.5" y="310.1211">Structured Concurrency Support</text><line style="stroke:#181818;stroke-width:0.5;" x1="960.5" x2="1171.2646" y1="317.6348" y2="317.6348"/></g><!--class F8--><g id="elem_F8"><rect fill="#F1F1F1" height="66.6211" id="F8" rx="2.5" ry="2.5" style="stroke:#181818;stroke-width:0.5;" width="208.9023" x="1641.5" y="259.0137"/><ellipse cx="1733.5322" cy="275.0137" fill="#ADD1B2" rx="11" ry="11" style="stroke:#181818;stroke-width:1.0;"/><path d="M1736.2979,270.8887 Q1736.4541,270.6699 1736.6416,270.5605 Q1736.8291,270.4512 1737.0479,270.4512 Q1737.4229,270.4512 1737.6572,270.7168 Q1737.8916,270.9668 1737.8916,271.5762 L1737.8916,273.0293 Q1737.8916,273.6387 1737.6572,273.9043 Q1737.4229,274.1699 1737.0479,274.1699 Q1736.7041,274.1699 1736.501,273.9668 Q1736.2979,273.7793 1736.1885,273.2637 Q1736.1416,272.9043 1735.9541,272.7168 Q1735.626,272.3418 1735.0166,272.123 Q1734.4072,271.9043 1733.7822,271.9043 Q1733.0166,271.9043 1732.376,272.2324 Q1731.751,272.5605 1731.251,273.3105 Q1730.7666,274.0605 1730.7666,275.0918 L1730.7666,276.1855 Q1730.7666,277.4199 1731.6572,278.248 Q1732.5479,279.0605 1734.1416,279.0605 Q1735.0791,279.0605 1735.7354,278.8105 Q1736.126,278.6543 1736.5479,278.2168 Q1736.8135,277.9512 1736.9541,277.873 Q1737.1104,277.7949 1737.3135,277.7949 Q1737.6416,277.7949 1737.8916,278.0605 Q1738.1572,278.3105 1738.1572,278.6543 Q1738.1572,278.998 1737.8135,279.4043 Q1737.3135,279.9824 1736.5166,280.3105 Q1735.4385,280.7637 1734.1416,280.7637 Q1732.626,280.7637 1731.4229,280.1387 Q1730.4385,279.6387 1729.751,278.5762 Q1729.0635,277.498 1729.0635,276.2168 L1729.0635,275.0605 Q1729.0635,273.7324 1729.6729,272.5918 Q1730.2979,271.4355 1731.3916,270.8262 Q1732.4854,270.2012 1733.7197,270.2012 Q1734.4541,270.2012 1735.0947,270.373 Q1735.751,270.5293 1736.2979,270.8887 Z " fill="#000000"/><text fill="#000000" font-family="sans-serif" font-size="14" lengthAdjust="spacing" textLength="16.3379" x="1754.0322" y="280.8105">F8</text><line style="stroke:#181818;stroke-width:0.5;" x1="1642.5" x2="1849.4023" y1="291.0137" y2="291.0137"/><text fill="#000000" font-family="sans-serif" font-size="14" lengthAdjust="spacing" textLength="196.9023" x="1647.5" y="310.1211">Error Propagation and Handling</text><line style="stroke:#181818;stroke-width:0.5;" x1="1642.5" x2="1849.4023" y1="317.6348" y2="317.6348"/></g><!--class F9--><g id="elem_F9"><rect fill="#F1F1F1" height="66.6211" id="F9" rx="2.5" ry="2.5" style="stroke:#181818;stroke-width:0.5;" width="131.0684" x="1323.5" y="259.0137"/><ellipse cx="1376.6152" cy="275.0137" fill="#ADD1B2" rx="11" ry="11" style="stroke:#181818;stroke-width:1.0;"/><path d="M1379.3809,270.8887 Q1379.5371,270.6699 1379.7246,270.5605 Q1379.9121,270.4512 1380.1309,270.4512 Q1380.5059,270.4512 1380.7402,270.7168 Q1380.9746,270.9668 1380.9746,271.5762 L1380.9746,273.0293 Q1380.9746,273.6387 1380.7402,273.9043 Q1380.5059,274.1699 1380.1309,274.1699 Q1379.7871,274.1699 1379.584,273.9668 Q1379.3809,273.7793 1379.2715,273.2637 Q1379.2246,272.9043 1379.0371,272.7168 Q1378.709,272.3418 1378.0996,272.123 Q1377.4902,271.9043 1376.8652,271.9043 Q1376.0996,271.9043 1375.459,272.2324 Q1374.834,272.5605 1374.334,273.3105 Q1373.8496,274.0605 1373.8496,275.0918 L1373.8496,276.1855 Q1373.8496,277.4199 1374.7402,278.248 Q1375.6309,279.0605 1377.2246,279.0605 Q1378.1621,279.0605 1378.8184,278.8105 Q1379.209,278.6543 1379.6309,278.2168 Q1379.8965,277.9512 1380.0371,277.873 Q1380.1934,277.7949 1380.3965,277.7949 Q1380.7246,277.7949 1380.9746,278.0605 Q1381.2402,278.3105 1381.2402,278.6543 Q1381.2402,278.998 1380.8965,279.4043 Q1380.3965,279.9824 1379.5996,280.3105 Q1378.5215,280.7637 1377.2246,280.7637 Q1375.709,280.7637 1374.5059,280.1387 Q1373.5215,279.6387 1372.834,278.5762 Q1372.1465,277.498 1372.1465,276.2168 L1372.1465,275.0605 Q1372.1465,273.7324 1372.7559,272.5918 Q1373.3809,271.4355 1374.4746,270.8262 Q1375.5684,270.2012 1376.8027,270.2012 Q1377.5371,270.2012 1378.1777,270.373 Q1378.834,270.5293 1379.3809,270.8887 Z " fill="#000000"/><text fill="#000000" font-family="sans-serif" font-size="14" lengthAdjust="spacing" textLength="16.3379" x="1397.1152" y="280.8105">F9</text><line style="stroke:#181818;stroke-width:0.5;" x1="1324.5" x2="1453.5684" y1="291.0137" y2="291.0137"/><text fill="#000000" font-family="sans-serif" font-size="14" lengthAdjust="spacing" textLength="119.0684" x="1329.5" y="310.1211">Graceful Shutdown</text><line style="stroke:#181818;stroke-width:0.5;" x1="1324.5" x2="1453.5684" y1="317.6348" y2="317.6348"/></g><!--class F10--><g id="elem_F10"><rect fill="#F1F1F1" height="66.6211" id="F10" rx="2.5" ry="2.5" style="stroke:#181818;stroke-width:0.5;" width="130.2754" x="1981" y="259.0137"/><ellipse cx="2029.8257" cy="275.0137" fill="#ADD1B2" rx="11" ry="11" style="stroke:#181818;stroke-width:1.0;"/><path d="M2032.5913,270.8887 Q2032.7476,270.6699 2032.9351,270.5605 Q2033.1226,270.4512 2033.3413,270.4512 Q2033.7163,270.4512 2033.9507,270.7168 Q2034.1851,270.9668 2034.1851,271.5762 L2034.1851,273.0293 Q2034.1851,273.6387 2033.9507,273.9043 Q2033.7163,274.1699 2033.3413,274.1699 Q2032.9976,274.1699 2032.7944,273.9668 Q2032.5913,273.7793 2032.4819,273.2637 Q2032.4351,272.9043 2032.2476,272.7168 Q2031.9194,272.3418 2031.3101,272.123 Q2030.7007,271.9043 2030.0757,271.9043 Q2029.3101,271.9043 2028.6694,272.2324 Q2028.0444,272.5605 2027.5444,273.3105 Q2027.0601,274.0605 2027.0601,275.0918 L2027.0601,276.1855 Q2027.0601,277.4199 2027.9507,278.248 Q2028.8413,279.0605 2030.4351,279.0605 Q2031.3726,279.0605 2032.0288,278.8105 Q2032.4194,278.6543 2032.8413,278.2168 Q2033.1069,277.9512 2033.2476,277.873 Q2033.4038,277.7949 2033.6069,277.7949 Q2033.9351,277.7949 2034.1851,278.0605 Q2034.4507,278.3105 2034.4507,278.6543 Q2034.4507,278.998 2034.1069,279.4043 Q2033.6069,279.9824 2032.8101,280.3105 Q2031.7319,280.7637 2030.4351,280.7637 Q2028.9194,280.7637 2027.7163,280.1387 Q2026.7319,279.6387 2026.0444,278.5762 Q2025.3569,277.498 2025.3569,276.2168 L2025.3569,275.0605 Q2025.3569,273.7324 2025.9663,272.5918 Q2026.5913,271.4355 2027.6851,270.8262 Q2028.7788,270.2012 2030.0132,270.2012 Q2030.7476,270.2012 2031.3882,270.373 Q2032.0444,270.5293 2032.5913,270.8887 Z " fill="#000000"/><text fill="#000000" font-family="sans-serif" font-size="14" lengthAdjust="spacing" textLength="24.124" x="2050.3257" y="280.8105">F10</text><line style="stroke:#181818;stroke-width:0.5;" x1="1982" x2="2110.2754" y1="291.0137" y2="291.0137"/><text fill="#000000" font-family="sans-serif" font-size="14" lengthAdjust="spacing" textLength="118.2754" x="1987" y="310.1211">Zombie Coroutines</text><line style="stroke:#181818;stroke-width:0.5;" x1="1982" x2="2110.2754" y1="317.6348" y2="317.6348"/></g><!--class F11--><g id="elem_F11"><rect fill="#F1F1F1" height="66.6211" id="F11" rx="2.5" ry="2.5" style="stroke:#181818;stroke-width:0.5;" width="81.248" x="1207.5" y="259.0137"/><ellipse cx="1233.8058" cy="275.0137" fill="#ADD1B2" rx="11" ry="11" style="stroke:#181818;stroke-width:1.0;"/><path d="M1236.5714,270.8887 Q1236.7277,270.6699 1236.9152,270.5605 Q1237.1027,270.4512 1237.3214,270.4512 Q1237.6964,270.4512 1237.9308,270.7168 Q1238.1652,270.9668 1238.1652,271.5762 L1238.1652,273.0293 Q1238.1652,273.6387 1237.9308,273.9043 Q1237.6964,274.1699 1237.3214,274.1699 Q1236.9777,274.1699 1236.7746,273.9668 Q1236.5714,273.7793 1236.4621,273.2637 Q1236.4152,272.9043 1236.2277,272.7168 Q1235.8996,272.3418 1235.2902,272.123 Q1234.6808,271.9043 1234.0558,271.9043 Q1233.2902,271.9043 1232.6496,272.2324 Q1232.0246,272.5605 1231.5246,273.3105 Q1231.0402,274.0605 1231.0402,275.0918 L1231.0402,276.1855 Q1231.0402,277.4199 1231.9308,278.248 Q1232.8214,279.0605 1234.4152,279.0605 Q1235.3527,279.0605 1236.0089,278.8105 Q1236.3996,278.6543 1236.8214,278.2168 Q1237.0871,277.9512 1237.2277,277.873 Q1237.3839,277.7949 1237.5871,277.7949 Q1237.9152,277.7949 1238.1652,278.0605 Q1238.4308,278.3105 1238.4308,278.6543 Q1238.4308,278.998 1238.0871,279.4043 Q1237.5871,279.9824 1236.7902,280.3105 Q1235.7121,280.7637 1234.4152,280.7637 Q1232.8996,280.7637 1231.6964,280.1387 Q1230.7121,279.6387 1230.0246,278.5762 Q1229.3371,277.498 1229.3371,276.2168 L1229.3371,275.0605 Q1229.3371,273.7324 1229.9464,272.5918 Q1230.5714,271.4355 1231.6652,270.8262 Q1232.7589,270.2012 1233.9933,270.2012 Q1234.7277,270.2012 1235.3683,270.373 Q1236.0246,270.5293 1236.5714,270.8887 Z " fill="#000000"/><text fill="#000000" font-family="sans-serif" font-size="14" lengthAdjust="spacing" textLength="24.124" x="1250.3182" y="280.8105">F11</text><line style="stroke:#181818;stroke-width:0.5;" x1="1208.5" x2="1287.748" y1="291.0137" y2="291.0137"/><text fill="#000000" font-family="sans-serif" font-size="14" lengthAdjust="spacing" textLength="69.248" x="1213.5" y="310.1211">TaskGroup</text><line style="stroke:#181818;stroke-width:0.5;" x1="1208.5" x2="1287.748" y1="317.6348" y2="317.6348"/></g><!--class A1--><g id="elem_A1"><rect fill="#F1F1F1" height="66.6211" id="A1" rx="2.5" ry="2.5" style="stroke:#181818;stroke-width:0.5;" width="101.4961" x="514.5" y="430.0137"/><ellipse cx="553.0674" cy="446.0137" fill="#ADD1B2" rx="11" ry="11" style="stroke:#181818;stroke-width:1.0;"/><path d="M555.8331,441.8887 Q555.9893,441.6699 556.1768,441.5605 Q556.3643,441.4512 556.5831,441.4512 Q556.9581,441.4512 557.1924,441.7168 Q557.4268,441.9668 557.4268,442.5762 L557.4268,444.0293 Q557.4268,444.6387 557.1924,444.9043 Q556.9581,445.1699 556.5831,445.1699 Q556.2393,445.1699 556.0362,444.9668 Q555.8331,444.7793 555.7237,444.2637 Q555.6768,443.9043 555.4893,443.7168 Q555.1612,443.3418 554.5518,443.123 Q553.9424,442.9043 553.3174,442.9043 Q552.5518,442.9043 551.9112,443.2324 Q551.2862,443.5605 550.7862,444.3105 Q550.3018,445.0605 550.3018,446.0918 L550.3018,447.1855 Q550.3018,448.4199 551.1924,449.248 Q552.0831,450.0605 553.6768,450.0605 Q554.6143,450.0605 555.2706,449.8105 Q555.6612,449.6543 556.0831,449.2168 Q556.3487,448.9512 556.4893,448.873 Q556.6456,448.7949 556.8487,448.7949 Q557.1768,448.7949 557.4268,449.0605 Q557.6924,449.3105 557.6924,449.6543 Q557.6924,449.998 557.3487,450.4043 Q556.8487,450.9824 556.0518,451.3105 Q554.9737,451.7637 553.6768,451.7637 Q552.1612,451.7637 550.9581,451.1387 Q549.9737,450.6387 549.2862,449.5762 Q548.5987,448.498 548.5987,447.2168 L548.5987,446.0605 Q548.5987,444.7324 549.2081,443.5918 Q549.8331,442.4355 550.9268,441.8262 Q552.0206,441.2012 553.2549,441.2012 Q553.9893,441.2012 554.6299,441.373 Q555.2862,441.5293 555.8331,441.8887 Z " fill="#000000"/><text fill="#000000" font-family="sans-serif" font-size="14" lengthAdjust="spacing" textLength="17.124" x="572.3046" y="451.8105">A1</text><line style="stroke:#181818;stroke-width:0.5;" x1="515.5" x2="614.9961" y1="462.0137" y2="462.0137"/><text fill="#000000" font-family="sans-serif" font-size="14" lengthAdjust="spacing" textLength="89.4961" x="520.5" y="481.1211">Scheduler API</text><line style="stroke:#181818;stroke-width:0.5;" x1="515.5" x2="614.9961" y1="488.6348" y2="488.6348"/></g><!--class A2--><g id="elem_A2"><rect fill="#F1F1F1" height="66.6211" id="A2" rx="2.5" ry="2.5" style="stroke:#181818;stroke-width:0.5;" width="143.5234" x="651" y="430.0137"/><ellipse cx="709.9497" cy="446.0137" fill="#ADD1B2" rx="11" ry="11" style="stroke:#181818;stroke-width:1.0;"/><path d="M712.7153,441.8887 Q712.8716,441.6699 713.0591,441.5605 Q713.2466,441.4512 713.4653,441.4512 Q713.8403,441.4512 714.0747,441.7168 Q714.3091,441.9668 714.3091,442.5762 L714.3091,444.0293 Q714.3091,444.6387 714.0747,444.9043 Q713.8403,445.1699 713.4653,445.1699 Q713.1216,445.1699 712.9185,444.9668 Q712.7153,444.7793 712.606,444.2637 Q712.5591,443.9043 712.3716,443.7168 Q712.0435,443.3418 711.4341,443.123 Q710.8247,442.9043 710.1997,442.9043 Q709.4341,442.9043 708.7935,443.2324 Q708.1685,443.5605 707.6685,444.3105 Q707.1841,445.0605 707.1841,446.0918 L707.1841,447.1855 Q707.1841,448.4199 708.0747,449.248 Q708.9653,450.0605 710.5591,450.0605 Q711.4966,450.0605 712.1528,449.8105 Q712.5435,449.6543 712.9653,449.2168 Q713.231,448.9512 713.3716,448.873 Q713.5278,448.7949 713.731,448.7949 Q714.0591,448.7949 714.3091,449.0605 Q714.5747,449.3105 714.5747,449.6543 Q714.5747,449.998 714.231,450.4043 Q713.731,450.9824 712.9341,451.3105 Q711.856,451.7637 710.5591,451.7637 Q709.0435,451.7637 707.8403,451.1387 Q706.856,450.6387 706.1685,449.5762 Q705.481,448.498 705.481,447.2168 L705.481,446.0605 Q705.481,444.7324 706.0903,443.5918 Q706.7153,442.4355 707.8091,441.8262 Q708.9028,441.2012 710.1372,441.2012 Q710.8716,441.2012 711.5122,441.373 Q712.1685,441.5293 712.7153,441.8887 Z " fill="#000000"/><text fill="#000000" font-family="sans-serif" font-size="14" lengthAdjust="spacing" textLength="17.124" x="730.4497" y="451.8105">A2</text><line style="stroke:#181818;stroke-width:0.5;" x1="652" x2="793.5234" y1="462.0137" y2="462.0137"/><text fill="#000000" font-family="sans-serif" font-size="14" lengthAdjust="spacing" textLength="131.5234" x="657" y="481.1211">Reactor / Event Loop</text><line style="stroke:#181818;stroke-width:0.5;" x1="652" x2="793.5234" y1="488.6348" y2="488.6348"/></g><!--class A3--><g id="elem_A3"><rect fill="#F1F1F1" height="66.6211" id="A3" rx="2.5" ry="2.5" style="stroke:#181818;stroke-width:0.5;" width="158.3096" x="830" y="430.0137"/><ellipse cx="896.3428" cy="446.0137" fill="#ADD1B2" rx="11" ry="11" style="stroke:#181818;stroke-width:1.0;"/><path d="M899.1084,441.8887 Q899.2646,441.6699 899.4521,441.5605 Q899.6396,441.4512 899.8584,441.4512 Q900.2334,441.4512 900.4678,441.7168 Q900.7021,441.9668 900.7021,442.5762 L900.7021,444.0293 Q900.7021,444.6387 900.4678,444.9043 Q900.2334,445.1699 899.8584,445.1699 Q899.5146,445.1699 899.3115,444.9668 Q899.1084,444.7793 898.999,444.2637 Q898.9521,443.9043 898.7646,443.7168 Q898.4365,443.3418 897.8271,443.123 Q897.2178,442.9043 896.5928,442.9043 Q895.8271,442.9043 895.1865,443.2324 Q894.5615,443.5605 894.0615,444.3105 Q893.5771,445.0605 893.5771,446.0918 L893.5771,447.1855 Q893.5771,448.4199 894.4678,449.248 Q895.3584,450.0605 896.9521,450.0605 Q897.8896,450.0605 898.5459,449.8105 Q898.9365,449.6543 899.3584,449.2168 Q899.624,448.9512 899.7646,448.873 Q899.9209,448.7949 900.124,448.7949 Q900.4521,448.7949 900.7021,449.0605 Q900.9678,449.3105 900.9678,449.6543 Q900.9678,449.998 900.624,450.4043 Q900.124,450.9824 899.3271,451.3105 Q898.249,451.7637 896.9521,451.7637 Q895.4365,451.7637 894.2334,451.1387 Q893.249,450.6387 892.5615,449.5762 Q891.874,448.498 891.874,447.2168 L891.874,446.0605 Q891.874,444.7324 892.4834,443.5918 Q893.1084,442.4355 894.2021,441.8262 Q895.2959,441.2012 896.5303,441.2012 Q897.2646,441.2012 897.9053,441.373 Q898.5615,441.5293 899.1084,441.8887 Z " fill="#000000"/><text fill="#000000" font-family="sans-serif" font-size="14" lengthAdjust="spacing" textLength="17.124" x="916.8428" y="451.8105">A3</text><line style="stroke:#181818;stroke-width:0.5;" x1="831" x2="987.3096" y1="462.0137" y2="462.0137"/><text fill="#000000" font-family="sans-serif" font-size="14" lengthAdjust="spacing" textLength="146.3096" x="836" y="481.1211">Coroutine Management</text><line style="stroke:#181818;stroke-width:0.5;" x1="831" x2="987.3096" y1="488.6348" y2="488.6348"/></g><!--class A4--><g id="elem_A4"><rect fill="#F1F1F1" height="66.6211" id="A4" rx="2.5" ry="2.5" style="stroke:#181818;stroke-width:0.5;" width="115.4893" x="1023.5" y="430.0137"/><ellipse cx="1068.4326" cy="446.0137" fill="#ADD1B2" rx="11" ry="11" style="stroke:#181818;stroke-width:1.0;"/><path d="M1071.1982,441.8887 Q1071.3545,441.6699 1071.542,441.5605 Q1071.7295,441.4512 1071.9482,441.4512 Q1072.3232,441.4512 1072.5576,441.7168 Q1072.792,441.9668 1072.792,442.5762 L1072.792,444.0293 Q1072.792,444.6387 1072.5576,444.9043 Q1072.3232,445.1699 1071.9482,445.1699 Q1071.6045,445.1699 1071.4014,444.9668 Q1071.1982,444.7793 1071.0889,444.2637 Q1071.042,443.9043 1070.8545,443.7168 Q1070.5264,443.3418 1069.917,443.123 Q1069.3076,442.9043 1068.6826,442.9043 Q1067.917,442.9043 1067.2764,443.2324 Q1066.6514,443.5605 1066.1514,444.3105 Q1065.667,445.0605 1065.667,446.0918 L1065.667,447.1855 Q1065.667,448.4199 1066.5576,449.248 Q1067.4482,450.0605 1069.042,450.0605 Q1069.9795,450.0605 1070.6357,449.8105 Q1071.0264,449.6543 1071.4482,449.2168 Q1071.7139,448.9512 1071.8545,448.873 Q1072.0107,448.7949 1072.2139,448.7949 Q1072.542,448.7949 1072.792,449.0605 Q1073.0576,449.3105 1073.0576,449.6543 Q1073.0576,449.998 1072.7139,450.4043 Q1072.2139,450.9824 1071.417,451.3105 Q1070.3389,451.7637 1069.042,451.7637 Q1067.5264,451.7637 1066.3232,451.1387 Q1065.3389,450.6387 1064.6514,449.5762 Q1063.9639,448.498 1063.9639,447.2168 L1063.9639,446.0605 Q1063.9639,444.7324 1064.5732,443.5918 Q1065.1982,442.4355 1066.292,441.8262 Q1067.3857,441.2012 1068.6201,441.2012 Q1069.3545,441.2012 1069.9951,441.373 Q1070.6514,441.5293 1071.1982,441.8887 Z " fill="#000000"/><text fill="#000000" font-family="sans-serif" font-size="14" lengthAdjust="spacing" textLength="17.124" x="1088.9326" y="451.8105">A4</text><line style="stroke:#181818;stroke-width:0.5;" x1="1024.5" x2="1137.9893" y1="462.0137" y2="462.0137"/><text fill="#000000" font-family="sans-serif" font-size="14" lengthAdjust="spacing" textLength="103.4893" x="1029.5" y="481.1211">Scope Hierarchy</text><line style="stroke:#181818;stroke-width:0.5;" x1="1024.5" x2="1137.9893" y1="488.6348" y2="488.6348"/></g><!--class A5--><g id="elem_A5"><rect fill="#F1F1F1" height="66.6211" id="A5" rx="2.5" ry="2.5" style="stroke:#181818;stroke-width:0.5;" width="133.4063" x="1389.5" y="430.0137"/><ellipse cx="1443.3911" cy="446.0137" fill="#ADD1B2" rx="11" ry="11" style="stroke:#181818;stroke-width:1.0;"/><path d="M1446.1567,441.8887 Q1446.313,441.6699 1446.5005,441.5605 Q1446.688,441.4512 1446.9067,441.4512 Q1447.2817,441.4512 1447.5161,441.7168 Q1447.7505,441.9668 1447.7505,442.5762 L1447.7505,444.0293 Q1447.7505,444.6387 1447.5161,444.9043 Q1447.2817,445.1699 1446.9067,445.1699 Q1446.563,445.1699 1446.3599,444.9668 Q1446.1567,444.7793 1446.0474,444.2637 Q1446.0005,443.9043 1445.813,443.7168 Q1445.4849,443.3418 1444.8755,443.123 Q1444.2661,442.9043 1443.6411,442.9043 Q1442.8755,442.9043 1442.2349,443.2324 Q1441.6099,443.5605 1441.1099,444.3105 Q1440.6255,445.0605 1440.6255,446.0918 L1440.6255,447.1855 Q1440.6255,448.4199 1441.5161,449.248 Q1442.4067,450.0605 1444.0005,450.0605 Q1444.938,450.0605 1445.5942,449.8105 Q1445.9849,449.6543 1446.4067,449.2168 Q1446.6724,448.9512 1446.813,448.873 Q1446.9692,448.7949 1447.1724,448.7949 Q1447.5005,448.7949 1447.7505,449.0605 Q1448.0161,449.3105 1448.0161,449.6543 Q1448.0161,449.998 1447.6724,450.4043 Q1447.1724,450.9824 1446.3755,451.3105 Q1445.2974,451.7637 1444.0005,451.7637 Q1442.4849,451.7637 1441.2817,451.1387 Q1440.2974,450.6387 1439.6099,449.5762 Q1438.9224,448.498 1438.9224,447.2168 L1438.9224,446.0605 Q1438.9224,444.7324 1439.5317,443.5918 Q1440.1567,442.4355 1441.2505,441.8262 Q1442.3442,441.2012 1443.5786,441.2012 Q1444.313,441.2012 1444.9536,441.373 Q1445.6099,441.5293 1446.1567,441.8887 Z " fill="#000000"/><text fill="#000000" font-family="sans-serif" font-size="14" lengthAdjust="spacing" textLength="17.124" x="1463.8911" y="451.8105">A5</text><line style="stroke:#181818;stroke-width:0.5;" x1="1390.5" x2="1521.9063" y1="462.0137" y2="462.0137"/><text fill="#000000" font-family="sans-serif" font-size="14" lengthAdjust="spacing" textLength="121.4063" x="1395.5" y="481.1211">Context Inheritance</text><line style="stroke:#181818;stroke-width:0.5;" x1="1390.5" x2="1521.9063" y1="488.6348" y2="488.6348"/></g><!--class A6--><g id="elem_A6"><rect fill="#F1F1F1" height="66.6211" id="A6" rx="2.5" ry="2.5" style="stroke:#181818;stroke-width:0.5;" width="180.8477" x="1173.5" y="430.0137"/><ellipse cx="1251.1118" cy="446.0137" fill="#ADD1B2" rx="11" ry="11" style="stroke:#181818;stroke-width:1.0;"/><path d="M1253.8774,441.8887 Q1254.0337,441.6699 1254.2212,441.5605 Q1254.4087,441.4512 1254.6274,441.4512 Q1255.0024,441.4512 1255.2368,441.7168 Q1255.4712,441.9668 1255.4712,442.5762 L1255.4712,444.0293 Q1255.4712,444.6387 1255.2368,444.9043 Q1255.0024,445.1699 1254.6274,445.1699 Q1254.2837,445.1699 1254.0806,444.9668 Q1253.8774,444.7793 1253.7681,444.2637 Q1253.7212,443.9043 1253.5337,443.7168 Q1253.2056,443.3418 1252.5962,443.123 Q1251.9868,442.9043 1251.3618,442.9043 Q1250.5962,442.9043 1249.9556,443.2324 Q1249.3306,443.5605 1248.8306,444.3105 Q1248.3462,445.0605 1248.3462,446.0918 L1248.3462,447.1855 Q1248.3462,448.4199 1249.2368,449.248 Q1250.1274,450.0605 1251.7212,450.0605 Q1252.6587,450.0605 1253.3149,449.8105 Q1253.7056,449.6543 1254.1274,449.2168 Q1254.3931,448.9512 1254.5337,448.873 Q1254.6899,448.7949 1254.8931,448.7949 Q1255.2212,448.7949 1255.4712,449.0605 Q1255.7368,449.3105 1255.7368,449.6543 Q1255.7368,449.998 1255.3931,450.4043 Q1254.8931,450.9824 1254.0962,451.3105 Q1253.0181,451.7637 1251.7212,451.7637 Q1250.2056,451.7637 1249.0024,451.1387 Q1248.0181,450.6387 1247.3306,449.5762 Q1246.6431,448.498 1246.6431,447.2168 L1246.6431,446.0605 Q1246.6431,444.7324 1247.2524,443.5918 Q1247.8774,442.4355 1248.9712,441.8262 Q1250.0649,441.2012 1251.2993,441.2012 Q1252.0337,441.2012 1252.6743,441.373 Q1253.3306,441.5293 1253.8774,441.8887 Z " fill="#000000"/><text fill="#000000" font-family="sans-serif" font-size="14" lengthAdjust="spacing" textLength="17.124" x="1271.6118" y="451.8105">A6</text><line style="stroke:#181818;stroke-width:0.5;" x1="1174.5" x2="1353.3477" y1="462.0137" y2="462.0137"/><text fill="#000000" font-family="sans-serif" font-size="14" lengthAdjust="spacing" textLength="168.8477" x="1179.5" y="481.1211">Error Handler / Supervision</text><line style="stroke:#181818;stroke-width:0.5;" x1="1174.5" x2="1353.3477" y1="488.6348" y2="488.6348"/></g><!--class A7--><g id="elem_A7"><rect fill="#F1F1F1" height="66.6211" id="A7" rx="2.5" ry="2.5" style="stroke:#181818;stroke-width:0.5;" width="164.5098" x="1557.5" y="430.0137"/><ellipse cx="1626.9429" cy="446.0137" fill="#ADD1B2" rx="11" ry="11" style="stroke:#181818;stroke-width:1.0;"/><path d="M1629.7085,441.8887 Q1629.8647,441.6699 1630.0522,441.5605 Q1630.2397,441.4512 1630.4585,441.4512 Q1630.8335,441.4512 1631.0679,441.7168 Q1631.3022,441.9668 1631.3022,442.5762 L1631.3022,444.0293 Q1631.3022,444.6387 1631.0679,444.9043 Q1630.8335,445.1699 1630.4585,445.1699 Q1630.1147,445.1699 1629.9116,444.9668 Q1629.7085,444.7793 1629.5991,444.2637 Q1629.5522,443.9043 1629.3647,443.7168 Q1629.0366,443.3418 1628.4272,443.123 Q1627.8179,442.9043 1627.1929,442.9043 Q1626.4272,442.9043 1625.7866,443.2324 Q1625.1616,443.5605 1624.6616,444.3105 Q1624.1772,445.0605 1624.1772,446.0918 L1624.1772,447.1855 Q1624.1772,448.4199 1625.0679,449.248 Q1625.9585,450.0605 1627.5522,450.0605 Q1628.4897,450.0605 1629.146,449.8105 Q1629.5366,449.6543 1629.9585,449.2168 Q1630.2241,448.9512 1630.3647,448.873 Q1630.521,448.7949 1630.7241,448.7949 Q1631.0522,448.7949 1631.3022,449.0605 Q1631.5679,449.3105 1631.5679,449.6543 Q1631.5679,449.998 1631.2241,450.4043 Q1630.7241,450.9824 1629.9272,451.3105 Q1628.8491,451.7637 1627.5522,451.7637 Q1626.0366,451.7637 1624.8335,451.1387 Q1623.8491,450.6387 1623.1616,449.5762 Q1622.4741,448.498 1622.4741,447.2168 L1622.4741,446.0605 Q1622.4741,444.7324 1623.0835,443.5918 Q1623.7085,442.4355 1624.8022,441.8262 Q1625.896,441.2012 1627.1304,441.2012 Q1627.8647,441.2012 1628.5054,441.373 Q1629.1616,441.5293 1629.7085,441.8887 Z " fill="#000000"/><text fill="#000000" font-family="sans-serif" font-size="14" lengthAdjust="spacing" textLength="17.124" x="1647.4429" y="451.8105">A7</text><line style="stroke:#181818;stroke-width:0.5;" x1="1558.5" x2="1721.0098" y1="462.0137" y2="462.0137"/><text fill="#000000" font-family="sans-serif" font-size="14" lengthAdjust="spacing" textLength="152.5098" x="1563.5" y="481.1211">Zombie Coroutine Policy</text><line style="stroke:#181818;stroke-width:0.5;" x1="1558.5" x2="1721.0098" y1="488.6348" y2="488.6348"/></g><!--link R1 to F1--><g id="link_R1_F1"><path codeLine="42" d="M488.4,147.5437 C427.13,165.6737 355,187.0137 355,187.0137 C355,187.0137 355,206.0137 355,206.0137 C355,206.0137 667,214.0137 667,214.0137 C667,214.0137 677.1287,232.2773 688.8487,253.3973 " fill="none" id="R1-to-F1" style="stroke:#181818;stroke-width:1.0;"/><polygon fill="#181818" points="691.76,258.6437,690.8906,248.8333,689.3339,254.2717,683.8954,252.715,691.76,258.6437" style="stroke:#181818;stroke-width:1.0;"/><text fill="#000000" font-family="sans-serif" font-size="13" lengthAdjust="spacing" textLength="138.7534" x="356" y="202.042">Enable non-blocking I/O</text></g><!--link R1 to F2--><g id="link_R1_F2"><path codeLine="43" d="M488.43,134.1937 C353.85,152.7837 106,187.0137 106,187.0137 C106,187.0137 106,206.0137 106,206.0137 C106,206.0137 492.1398,269.6285 594.7398,286.5285 " fill="none" id="R1-to-F2" style="stroke:#181818;stroke-width:1.0;"/><polygon fill="#181818" points="600.66,287.5037,592.4298,282.0941,595.7265,286.691,591.1296,289.9877,600.66,287.5037" style="stroke:#181818;stroke-width:1.0;"/><text fill="#000000" font-family="sans-serif" font-size="13" lengthAdjust="spacing" textLength="143.7744" x="107" y="202.042">Wait for coroutine results</text></g><!--link R2 to F4--><g id="link_R2_F4"><path codeLine="44" d="M919.96,155.1437 C896.89,171.1437 874,187.0137 874,187.0137 C874,187.0137 874,206.0137 874,206.0137 C874,206.0137 880.398,228.8171 887.168,252.9271 " fill="none" id="R2-to-F4" style="stroke:#181818;stroke-width:1.0;"/><polygon fill="#181818" points="888.79,258.7037,890.208,248.9574,887.4383,253.8898,882.5059,251.1202,888.79,258.7037" style="stroke:#181818;stroke-width:1.0;"/><text fill="#000000" font-family="sans-serif" font-size="13" lengthAdjust="spacing" textLength="148.8589" x="875" y="202.042">Manage coroutine lifetime</text></g><!--link R3 to F1--><g id="link_R3_F1"><path codeLine="45" d="M716.14,155.0537 C694.57,167.6137 675,179.0137 675,179.0137 C675,179.0137 503,187.0137 503,187.0137 C503,187.0137 503,206.0137 503,206.0137 C503,206.0137 667,214.0137 667,214.0137 C667,214.0137 677.1287,232.2773 688.8487,253.3973 " fill="none" id="R3-to-F1" style="stroke:#181818;stroke-width:1.0;"/><polygon fill="#181818" points="691.76,258.6437,690.8906,248.8333,689.3339,254.2717,683.8954,252.715,691.76,258.6437" style="stroke:#181818;stroke-width:1.0;"/><text fill="#000000" font-family="sans-serif" font-size="13" lengthAdjust="spacing" textLength="179.2261" x="504" y="202.042">Launch functions as coroutines</text></g><!--link R3 to F3--><g id="link_R3_F3"><path codeLine="46" d="M731.53,155.1437 C711.69,171.1437 692,187.0137 692,187.0137 C692,187.0137 692,206.0137 692,206.0137 C692,206.0137 754,214.0137 754,214.0137 C754,214.0137 765.9165,232.4823 779.5465,253.6023 " fill="none" id="R3-to-F3" style="stroke:#181818;stroke-width:1.0;"/><polygon fill="#181818" points="782.8,258.6437,781.2807,248.9127,780.0888,254.4426,774.5589,253.2507,782.8,258.6437" style="stroke:#181818;stroke-width:1.0;"/><text fill="#000000" font-family="sans-serif" font-size="13" lengthAdjust="spacing" textLength="140.9116" x="693" y="202.042">Suspend/resume control</text></g><!--link R4 to F6--><g id="link_R4_F6"><path codeLine="47" d="M1412.1,155.0537 C1431.44,167.6137 1449,179.0137 1449,179.0137 C1449,179.0137 1553,187.0137 1553,187.0137 C1553,187.0137 1553,206.0137 1553,206.0137 C1553,206.0137 1551.6803,228.6039 1550.2703,252.7139 " fill="none" id="R4-to-F6" style="stroke:#181818;stroke-width:1.0;"/><polygon fill="#181818" points="1549.92,258.7037,1554.4386,249.9526,1550.2119,253.7122,1546.4523,249.4855,1549.92,258.7037" style="stroke:#181818;stroke-width:1.0;"/><text fill="#000000" font-family="sans-serif" font-size="13" lengthAdjust="spacing" textLength="121.3989" x="1554" y="202.042">Cancel running tasks</text></g><!--link R4 to F9--><g id="link_R4_F9"><path codeLine="48" d="M1388.81,155.1437 C1401.96,171.1437 1415,187.0137 1415,187.0137 C1415,187.0137 1415,206.0137 1415,206.0137 C1415,206.0137 1408.0553,228.8531 1400.7253,252.9631 " fill="none" id="R4-to-F9" style="stroke:#181818;stroke-width:1.0;"/><polygon fill="#181818" points="1398.98,258.7037,1405.4249,251.2563,1400.4344,253.9199,1397.7709,248.9293,1398.98,258.7037" style="stroke:#181818;stroke-width:1.0;"/><text fill="#000000" font-family="sans-serif" font-size="13" lengthAdjust="spacing" textLength="128.6479" x="1416" y="202.042">Unhandled exceptions</text></g><!--link R4 to F8--><g id="link_R4_F8"><path codeLine="49" d="M1412.1,155.0537 C1431.44,167.6137 1449,179.0137 1449,179.0137 C1449,179.0137 1684,187.0137 1684,187.0137 C1684,187.0137 1705.3083,222.9336 1723.4883,253.5736 " fill="none" id="R4-to-F8" style="stroke:#181818;stroke-width:1.0;"/><polygon fill="#181818" points="1726.55,258.7337,1725.3975,248.9525,1723.9986,254.4336,1718.5175,253.0347,1726.55,258.7337" style="stroke:#181818;stroke-width:1.0;"/><text fill="#000000" font-family="sans-serif" font-size="13" lengthAdjust="spacing" textLength="106.958" x="1695" y="202.042">Handle exceptions</text></g><!--link R5 to F5--><g id="link_R5_F5"><path codeLine="50" d="M1591.41,155.0537 C1611.64,167.6137 1630,179.0137 1630,179.0137 C1630,179.0137 1896,187.0137 1896,187.0137 C1896,187.0137 1902.7311,222.2008 1908.6011,252.8408 " fill="none" id="R5-to-F5" style="stroke:#181818;stroke-width:1.0;"/><polygon fill="#181818" points="1909.73,258.7337,1911.9651,249.1418,1908.7892,253.823,1904.108,250.6471,1909.73,258.7337" style="stroke:#181818;stroke-width:1.0;"/><text fill="#000000" font-family="sans-serif" font-size="13" lengthAdjust="spacing" textLength="150.3062" x="1900" y="202.042">Associate data with scope</text></g><!--link R6 to F7--><g id="link_R6_F7"><path codeLine="51" d="M1114.36,155.1437 C1087.07,171.1437 1060,187.0137 1060,187.0137 C1060,187.0137 1060,206.0137 1060,206.0137 C1060,206.0137 1061.5905,228.6084 1063.2805,252.7184 " fill="none" id="R6-to-F7" style="stroke:#181818;stroke-width:1.0;"/><polygon fill="#181818" points="1063.7,258.7037,1067.0609,249.446,1063.3504,253.7159,1059.0805,250.0054,1063.7,258.7037" style="stroke:#181818;stroke-width:1.0;"/><text fill="#000000" font-family="sans-serif" font-size="13" lengthAdjust="spacing" textLength="139.458" x="1061" y="202.042">Group tasks into scopes</text></g><!--link R6 to F11--><g id="link_R6_F11"><path codeLine="52" d="M1189.73,155.1437 C1199.4,171.1437 1209,187.0137 1209,187.0137 C1209,187.0137 1222.2313,222.4727 1233.6713,253.1127 " fill="none" id="R6-to-F11" style="stroke:#181818;stroke-width:1.0;"/><polygon fill="#181818" points="1235.77,258.7337,1236.3693,248.9031,1234.0211,254.0495,1228.8746,251.7013,1235.77,258.7337" style="stroke:#181818;stroke-width:1.0;"/><text fill="#000000" font-family="sans-serif" font-size="13" lengthAdjust="spacing" textLength="164.728" x="1216" y="202.042">Group tasks with TaskGroup</text></g><!--link R7 to F10--><g id="link_R7_F10"><path codeLine="53" d="M1753.14,131.3437 C1859.4,149.0137 2088,187.0137 2088,187.0137 C2088,187.0137 2088,206.0137 2088,206.0137 C2088,206.0137 2076.6048,229.208 2064.7648,253.318 " fill="none" id="R7-to-F10" style="stroke:#181818;stroke-width:1.0;"/><polygon fill="#181818" points="2062.12,258.7037,2069.6776,252.3884,2064.324,254.2156,2062.4968,248.862,2062.12,258.7037" style="stroke:#181818;stroke-width:1.0;"/><text fill="#000000" font-family="sans-serif" font-size="13" lengthAdjust="spacing" textLength="187.1606" x="2089" y="202.042">Introduce zombie coroutine logic</text></g><!--link F1 to A1--><g id="link_F1_A1"><path codeLine="56" d="M685.24,326.0537 C675.68,338.6137 667,350.0137 667,350.0137 C667,350.0137 283,358.0137 283,358.0137 C283,358.0137 283,377.0137 283,377.0137 C283,377.0137 427.3282,420.7725 508.5182,445.3925 " fill="none" id="F1-to-A1" style="stroke:#181818;stroke-width:1.0;"/><polygon fill="#181818" points="514.26,447.1337,506.808,440.6941,509.4752,445.6827,504.4865,448.3498,514.26,447.1337" style="stroke:#181818;stroke-width:1.0;"/><text fill="#000000" font-family="sans-serif" font-size="13" lengthAdjust="spacing" textLength="188.6206" x="284" y="373.042">Launch coroutines via Scheduler</text></g><!--link F1 to A2--><g id="link_F1_A2"><path codeLine="57" d="M685.24,326.0537 C675.68,338.6137 667,350.0137 667,350.0137 C667,350.0137 481,358.0137 481,358.0137 C481,358.0137 481,377.0137 481,377.0137 C481,377.0137 633,385.0137 633,385.0137 C633,385.0137 655.9539,404.778 680.5439,425.958 " fill="none" id="F1-to-A2" style="stroke:#181818;stroke-width:1.0;"/><polygon fill="#181818" points="685.09,429.8737,680.8813,420.9694,681.3016,426.6106,675.6603,427.0309,685.09,429.8737" style="stroke:#181818;stroke-width:1.0;"/><text fill="#000000" font-family="sans-serif" font-size="13" lengthAdjust="spacing" textLength="166.1816" x="482" y="373.042">Non-blocking I/O via Reactor</text></g><!--link F2 to A1--><g id="link_F2_A1"><path codeLine="58" d="M600.83,296.2437 C492.15,308.5237 54,358.0137 54,358.0137 C54,358.0137 54,377.0137 54,377.0137 C54,377.0137 378.9623,431.3834 508.2223,453.0134 " fill="none" id="F2-to-A1" style="stroke:#181818;stroke-width:1.0;"/><polygon fill="#181818" points="514.14,454.0037,505.9236,448.5731,509.2086,453.1785,504.6033,456.4634,514.14,454.0037" style="stroke:#181818;stroke-width:1.0;"/><text fill="#000000" font-family="sans-serif" font-size="13" lengthAdjust="spacing" textLength="155.3589" x="55" y="373.042">Await coroutine completion</text></g><!--link F3 to A3--><g id="link_F3_A3"><path codeLine="59" d="M775.2,326.0537 C764.09,338.6137 754,350.0137 754,350.0137 C754,350.0137 689,358.0137 689,358.0137 C689,358.0137 689,377.0137 689,377.0137 C689,377.0137 813,385.0137 813,385.0137 C813,385.0137 837.6611,404.9251 863.9011,426.1051 " fill="none" id="F3-to-A3" style="stroke:#181818;stroke-width:1.0;"/><polygon fill="#181818" points="868.57,429.8737,864.0791,421.1083,864.6793,426.7332,859.0544,427.3334,868.57,429.8737" style="stroke:#181818;stroke-width:1.0;"/><text fill="#000000" font-family="sans-serif" font-size="13" lengthAdjust="spacing" textLength="164.7725" x="690" y="373.042">Suspend control in coroutine</text></g><!--link F4 to A4--><g id="link_F4_A4"><path codeLine="60" d="M906.96,326.0337 C913.42,349.4837 921,377.0137 921,377.0137 C921,377.0137 1006,385.0137 1006,385.0137 C1006,385.0137 1024.5773,404.2122 1045.0173,425.3322 " fill="none" id="F4-to-A4" style="stroke:#181818;stroke-width:1.0;"/><polygon fill="#181818" points="1049.19,429.6437,1045.8053,420.3947,1045.7128,426.0508,1040.0567,425.9582,1049.19,429.6437" style="stroke:#181818;stroke-width:1.0;"/><text fill="#000000" font-family="sans-serif" font-size="13" lengthAdjust="spacing" textLength="141.6162" x="922" y="373.042">Control Scope Hierarchy</text></g><!--link F5 to A5--><g id="link_F5_A5"><path codeLine="61" d="M1943.64,326.0537 C1954.31,338.6137 1964,350.0137 1964,350.0137 C1964,350.0137 1973,358.0137 1973,358.0137 C1973,358.0137 1973,377.0137 1973,377.0137 C1973,377.0137 1540,385.0137 1540,385.0137 C1540,385.0137 1518.9306,404.4559 1496.0306,425.5759 " fill="none" id="F5-to-A5" style="stroke:#181818;stroke-width:1.0;"/><polygon fill="#181818" points="1491.62,429.6437,1500.9477,426.4824,1495.2955,426.2539,1495.524,420.6016,1491.62,429.6437" style="stroke:#181818;stroke-width:1.0;"/><text fill="#000000" font-family="sans-serif" font-size="13" lengthAdjust="spacing" textLength="203.7852" x="1974" y="373.042">Context propagation across scopes</text></g><!--link F6 to A6--><g id="link_F6_A6"><path codeLine="62" d="M1541.77,326.0337 C1537.28,349.4837 1532,377.0137 1532,377.0137 C1532,377.0137 1372,385.0137 1372,385.0137 C1372,385.0137 1343.8745,405.1952 1314.3645,426.3752 " fill="none" id="F6-to-A6" style="stroke:#181818;stroke-width:1.0;"/><polygon fill="#181818" points="1309.49,429.8737,1319.134,427.8755,1313.5521,426.9582,1314.4694,421.3763,1309.49,429.8737" style="stroke:#181818;stroke-width:1.0;"/><text fill="#000000" font-family="sans-serif" font-size="13" lengthAdjust="spacing" textLength="192.2388" x="1536" y="373.042">Propagate CancellationException</text></g><!--link F7 to A4--><g id="link_F7_A4"><path codeLine="63" d="M1068.89,326.0937 C1071.54,355.9337 1074.9101,393.8771 1077.5601,423.7671 " fill="none" id="F7-to-A4" style="stroke:#181818;stroke-width:1.0;"/><polygon fill="#181818" points="1078.09,429.7437,1081.2796,420.4256,1077.6484,424.7632,1073.3108,421.1321,1078.09,429.7437" style="stroke:#181818;stroke-width:1.0;"/><text fill="#000000" font-family="sans-serif" font-size="13" lengthAdjust="spacing" textLength="222.5679" x="1074" y="373.042">Structured concurrency through Scope</text></g><!--link F8 to A6--><g id="link_F8_A6"><path codeLine="64" d="M1742.49,326.0337 C1739.97,349.4837 1737,377.0137 1737,377.0137 C1737,377.0137 1372,385.0137 1372,385.0137 C1372,385.0137 1343.8745,405.1952 1314.3645,426.3752 " fill="none" id="F8-to-A6" style="stroke:#181818;stroke-width:1.0;"/><polygon fill="#181818" points="1309.49,429.8737,1319.134,427.8755,1313.5521,426.9582,1314.4694,421.3763,1309.49,429.8737" style="stroke:#181818;stroke-width:1.0;"/><text fill="#000000" font-family="sans-serif" font-size="13" lengthAdjust="spacing" textLength="164.0615" x="1739" y="373.042">Handle uncaught exceptions</text></g><!--link F9 to A6--><g id="link_F9_A6"><path codeLine="65" d="M1364.9,326.0937 C1342.84,355.9337 1313.9182,395.03 1291.8082,424.92 " fill="none" id="F9-to-A6" style="stroke:#181818;stroke-width:1.0;"/><polygon fill="#181818" points="1288.24,429.7437,1296.8081,424.8869,1291.2135,425.7239,1290.3764,420.1293,1288.24,429.7437" style="stroke:#181818;stroke-width:1.0;"/><text fill="#000000" font-family="sans-serif" font-size="13" lengthAdjust="spacing" textLength="185.707" x="1338" y="373.042">Graceful shutdown on fatal error</text></g><!--link F10 to A7--><g id="link_F10_A7"><path codeLine="66" d="M2111.03,317.8937 C2159.73,336.1637 2218,358.0137 2218,358.0137 C2218,358.0137 2218,377.0137 2218,377.0137 C2218,377.0137 1888.1454,425.8054 1728.4454,449.4354 " fill="none" id="F10-to-A7" style="stroke:#181818;stroke-width:1.0;"/><polygon fill="#181818" points="1722.51,450.3137,1731.9986,452.9532,1727.4561,449.5818,1730.8276,445.0394,1722.51,450.3137" style="stroke:#181818;stroke-width:1.0;"/><text fill="#000000" font-family="sans-serif" font-size="13" lengthAdjust="spacing" textLength="216.0679" x="2219" y="373.042">Implement zombie coroutine handling</text></g><!--SRC=[VLJVRzCm47xFNt7Q2q_JQCTMu04fAirMQK3L3Y7nvhdNnbfg1zlPLj3-T-xi94wtGX-gDlvollj-dBjNkXPMxA1I6ls-HgXDjUS_MVO6FkE6Ve4l4NP2QQY5l1TRT5dx0quMrmkujGr2xlPQmhAOdi2V3EZJGvRugr4MTwYzwmxvinp1H_XgzEbTPIJriONvsJTODNLjh4-eCQ5MtZRIDnRNC3LQDjQYblk4EIVChHNQqInq3O6iQJorxXBc7M6cGakiAk6LqLp9MrCbn0KZw24-UVWYD3NFFQVpIxv5k7kuekerDopq6bRIr9X04mBDh3MMoFCe-QPm-9mTibAWu84E62cO4PhXKQT7FBvu52hrKV2qhd4rwdLwoECTjb8CvaaFBr_Ia2_cwNJoJx9V2LEyxoTTM5EBRIp7b5pJ5rbecx0V27jbXSHDKy6gRFpQ38SSlQNpdsPtf_2OTiLer58Vc3_APsvbgPZmneeAfgNGsqDoyr5WgCHrKw4z63jdafSefATXpc3sm1wwCQPEYFF0PTlPCNValG1mhT0AQYSPD1zQQwvBjCgp1WbmsPCPo4FkWnX7-w1SPw40d1nX2XQcKcqUdhFdGN8jHfLTgMe76sjsC8mZU0ET4JFAu-dffsZ2cHPt5O9-aSuUmuJz85F2XZgMVHzKfgaybHf767CIkHg0AhL1htQOKMpx2sz4esK96_eE_O9mwHNNGrc6LRJ-6L-suy8nnXJm04a61zjepPrxSexh0Up5xxeCDAy1doJMuSeUmCQEAXoSNiHJbZ9tpaWbFC9QU06FofVWGlXeIGJK91YUp1el1wM9wW1nFIQuUWWATPBDQPT47ATZpbEk6udmEwe_8DHibVo_w9t8BFZHf6H5L3OVY97uXmSbKdPwxFZO0cTecwMi6AUYEI-nGTVIxEeAmtuiehhvGDrELY8klPCLKQ6GjNPzlyfS4NKwY5mzN53I6kSwBOgeHSXVjyRmO47EEWjanIJTFbYISh0aVKcjRijs4vEJ-kAjeOXOGG0_T1OvieVrIzArInAevGsPh0BazP2n6mAQ7JPd2Zd9hqrHTZluBm00]--></g></svg>