<svg xmlns="http://www.w3.org/2000/svg" xmlns:xlink="http://www.w3.org/1999/xlink" contentStyleType="text/css" height="544px" preserveAspectRatio="none" style="width:2750px;height:544px;background:#FFFFFF;" version="1.1" viewBox="0 0 2750 544" width="2750px" zoomAndPan="magnify"><defs/><g><!--cluster PHP True Async RFC--><g id="cluster_PHP True Async RFC"><path d="M260.5,6.0137 L403.0859,6.0137 A3.75,3.75 0 0 1 405.5859,8.5137 L412.5859,30.6348 L2740.5,30.6348 A2.5,2.5 0 0 1 2743,33.1348 L2743,534.5137 A2.5,2.5 0 0 1 2740.5,537.0137 L260.5,537.0137 A2.5,2.5 0 0 1 258,534.5137 L258,8.5137 A2.5,2.5 0 0 1 260.5,6.0137 " fill="none" style="stroke:#000000;stroke-width:1.5;"/><line style="stroke:#000000;stroke-width:1.5;" x1="258" x2="412.5859" y1="30.6348" y2="30.6348"/><text fill="#000000" font-family="sans-serif" font-size="14" font-weight="bold" lengthAdjust="spacing" textLength="141.5859" x="262" y="23.1211">PHP True Async RFC</text></g><!--cluster Requirements--><g id="cluster_Requirements"><path d="M735.5,51.0137 L829.8584,51.0137 A3.75,3.75 0 0 1 832.3584,53.5137 L839.3584,75.6348 L2027.5,75.6348 A2.5,2.5 0 0 1 2030,78.1348 L2030,168.5137 A2.5,2.5 0 0 1 2027.5,171.0137 L735.5,171.0137 A2.5,2.5 0 0 1 733,168.5137 L733,53.5137 A2.5,2.5 0 0 1 735.5,51.0137 " fill="none" style="stroke:#000000;stroke-width:1.5;"/><line style="stroke:#000000;stroke-width:1.5;" x1="733" x2="839.3584" y1="75.6348" y2="75.6348"/><text fill="#000000" font-family="sans-serif" font-size="14" font-weight="bold" lengthAdjust="spacing" textLength="93.3584" x="737" y="68.1211">Requirements</text></g><!--cluster Features--><g id="cluster_Features"><path d="M838.5,222.0137 L897.8584,222.0137 A3.75,3.75 0 0 1 900.3584,224.5137 L907.3584,246.6348 L2375.5,246.6348 A2.5,2.5 0 0 1 2378,249.1348 L2378,339.5137 A2.5,2.5 0 0 1 2375.5,342.0137 L838.5,342.0137 A2.5,2.5 0 0 1 836,339.5137 L836,224.5137 A2.5,2.5 0 0 1 838.5,222.0137 " fill="none" style="stroke:#000000;stroke-width:1.5;"/><line style="stroke:#000000;stroke-width:1.5;" x1="836" x2="907.3584" y1="246.6348" y2="246.6348"/><text fill="#000000" font-family="sans-serif" font-size="14" font-weight="bold" lengthAdjust="spacing" textLength="58.3584" x="840" y="239.1211">Features</text></g><!--cluster Architectural Changes--><g id="cluster_Architectural Changes"><path d="M660.5,393.0137 L810.8721,393.0137 A3.75,3.75 0 0 1 813.3721,395.5137 L820.3721,417.6348 L1896.5,417.6348 A2.5,2.5 0 0 1 1899,420.1348 L1899,510.5137 A2.5,2.5 0 0 1 1896.5,513.0137 L660.5,513.0137 A2.5,2.5 0 0 1 658,510.5137 L658,395.5137 A2.5,2.5 0 0 1 660.5,393.0137 " fill="none" style="stroke:#000000;stroke-width:1.5;"/><line style="stroke:#000000;stroke-width:1.5;" x1="658" x2="820.3721" y1="417.6348" y2="417.6348"/><text fill="#000000" font-family="sans-serif" font-size="14" font-weight="bold" lengthAdjust="spacing" textLength="149.3721" x="662" y="410.1211">Architectural Changes</text></g><!--class R1--><g id="elem_R1"><rect fill="#F1F1F1" height="66.6211" id="R1" rx="2.5" ry="2.5" style="stroke:#181818;stroke-width:0.5;" width="169.1924" x="749.5" y="88.0137"/><ellipse cx="820.8979" cy="104.0137" fill="#ADD1B2" rx="11" ry="11" style="stroke:#181818;stroke-width:1.0;"/><path d="M823.6636,99.8887 Q823.8198,99.6699 824.0073,99.5605 Q824.1948,99.4512 824.4136,99.4512 Q824.7886,99.4512 825.0229,99.7168 Q825.2573,99.9668 825.2573,100.5762 L825.2573,102.0293 Q825.2573,102.6387 825.0229,102.9043 Q824.7886,103.1699 824.4136,103.1699 Q824.0698,103.1699 823.8667,102.9668 Q823.6636,102.7793 823.5542,102.2637 Q823.5073,101.9043 823.3198,101.7168 Q822.9917,101.3418 822.3823,101.123 Q821.7729,100.9043 821.1479,100.9043 Q820.3823,100.9043 819.7417,101.2324 Q819.1167,101.5605 818.6167,102.3105 Q818.1323,103.0605 818.1323,104.0918 L818.1323,105.1855 Q818.1323,106.4199 819.0229,107.248 Q819.9136,108.0605 821.5073,108.0605 Q822.4448,108.0605 823.1011,107.8105 Q823.4917,107.6543 823.9136,107.2168 Q824.1792,106.9512 824.3198,106.873 Q824.4761,106.7949 824.6792,106.7949 Q825.0073,106.7949 825.2573,107.0605 Q825.5229,107.3105 825.5229,107.6543 Q825.5229,107.998 825.1792,108.4043 Q824.6792,108.9824 823.8823,109.3105 Q822.8042,109.7637 821.5073,109.7637 Q819.9917,109.7637 818.7886,109.1387 Q817.8042,108.6387 817.1167,107.5762 Q816.4292,106.498 816.4292,105.2168 L816.4292,104.0605 Q816.4292,102.7324 817.0386,101.5918 Q817.6636,100.4355 818.7573,99.8262 Q819.8511,99.2012 821.0854,99.2012 Q821.8198,99.2012 822.4604,99.373 Q823.1167,99.5293 823.6636,99.8887 Z " fill="#000000"/><text fill="#000000" font-family="sans-serif" font-size="14" lengthAdjust="spacing" textLength="17.8965" x="841.3979" y="109.8105">R1</text><line style="stroke:#181818;stroke-width:0.5;" x1="750.5" x2="917.6924" y1="120.0137" y2="120.0137"/><text fill="#000000" font-family="sans-serif" font-size="14" lengthAdjust="spacing" textLength="157.1924" x="755.5" y="139.1211">Non-blocking I/O Support</text><line style="stroke:#181818;stroke-width:0.5;" x1="750.5" x2="917.6924" y1="146.6348" y2="146.6348"/></g><!--class R2--><g id="elem_R2"><rect fill="#F1F1F1" height="66.6211" id="R2" rx="2.5" ry="2.5" style="stroke:#181818;stroke-width:0.5;" width="159.8408" x="1148" y="88.0137"/><ellipse cx="1214.7222" cy="104.0137" fill="#ADD1B2" rx="11" ry="11" style="stroke:#181818;stroke-width:1.0;"/><path d="M1217.4878,99.8887 Q1217.644,99.6699 1217.8315,99.5605 Q1218.019,99.4512 1218.2378,99.4512 Q1218.6128,99.4512 1218.8472,99.7168 Q1219.0815,99.9668 1219.0815,100.5762 L1219.0815,102.0293 Q1219.0815,102.6387 1218.8472,102.9043 Q1218.6128,103.1699 1218.2378,103.1699 Q1217.894,103.1699 1217.6909,102.9668 Q1217.4878,102.7793 1217.3784,102.2637 Q1217.3315,101.9043 1217.144,101.7168 Q1216.8159,101.3418 1216.2065,101.123 Q1215.5972,100.9043 1214.9722,100.9043 Q1214.2065,100.9043 1213.5659,101.2324 Q1212.9409,101.5605 1212.4409,102.3105 Q1211.9565,103.0605 1211.9565,104.0918 L1211.9565,105.1855 Q1211.9565,106.4199 1212.8472,107.248 Q1213.7378,108.0605 1215.3315,108.0605 Q1216.269,108.0605 1216.9253,107.8105 Q1217.3159,107.6543 1217.7378,107.2168 Q1218.0034,106.9512 1218.144,106.873 Q1218.3003,106.7949 1218.5034,106.7949 Q1218.8315,106.7949 1219.0815,107.0605 Q1219.3472,107.3105 1219.3472,107.6543 Q1219.3472,107.998 1219.0034,108.4043 Q1218.5034,108.9824 1217.7065,109.3105 Q1216.6284,109.7637 1215.3315,109.7637 Q1213.8159,109.7637 1212.6128,109.1387 Q1211.6284,108.6387 1210.9409,107.5762 Q1210.2534,106.498 1210.2534,105.2168 L1210.2534,104.0605 Q1210.2534,102.7324 1210.8628,101.5918 Q1211.4878,100.4355 1212.5815,99.8262 Q1213.6753,99.2012 1214.9097,99.2012 Q1215.644,99.2012 1216.2847,99.373 Q1216.9409,99.5293 1217.4878,99.8887 Z " fill="#000000"/><text fill="#000000" font-family="sans-serif" font-size="14" lengthAdjust="spacing" textLength="17.8965" x="1235.2222" y="109.8105">R2</text><line style="stroke:#181818;stroke-width:0.5;" x1="1149" x2="1306.8408" y1="120.0137" y2="120.0137"/><text fill="#000000" font-family="sans-serif" font-size="14" lengthAdjust="spacing" textLength="147.8408" x="1154" y="139.1211">Structured Concurrency</text><line style="stroke:#181818;stroke-width:0.5;" x1="1149" x2="1306.8408" y1="146.6348" y2="146.6348"/></g><!--class R3--><g id="elem_R3"><rect fill="#F1F1F1" height="66.6211" id="R3" rx="2.5" ry="2.5" style="stroke:#181818;stroke-width:0.5;" width="159.0752" x="953.5" y="88.0137"/><ellipse cx="1019.8394" cy="104.0137" fill="#ADD1B2" rx="11" ry="11" style="stroke:#181818;stroke-width:1.0;"/><path d="M1022.605,99.8887 Q1022.7612,99.6699 1022.9487,99.5605 Q1023.1362,99.4512 1023.355,99.4512 Q1023.73,99.4512 1023.9644,99.7168 Q1024.1987,99.9668 1024.1987,100.5762 L1024.1987,102.0293 Q1024.1987,102.6387 1023.9644,102.9043 Q1023.73,103.1699 1023.355,103.1699 Q1023.0112,103.1699 1022.8081,102.9668 Q1022.605,102.7793 1022.4956,102.2637 Q1022.4487,101.9043 1022.2612,101.7168 Q1021.9331,101.3418 1021.3237,101.123 Q1020.7144,100.9043 1020.0894,100.9043 Q1019.3237,100.9043 1018.6831,101.2324 Q1018.0581,101.5605 1017.5581,102.3105 Q1017.0737,103.0605 1017.0737,104.0918 L1017.0737,105.1855 Q1017.0737,106.4199 1017.9644,107.248 Q1018.855,108.0605 1020.4487,108.0605 Q1021.3862,108.0605 1022.0425,107.8105 Q1022.4331,107.6543 1022.855,107.2168 Q1023.1206,106.9512 1023.2612,106.873 Q1023.4175,106.7949 1023.6206,106.7949 Q1023.9487,106.7949 1024.1987,107.0605 Q1024.4644,107.3105 1024.4644,107.6543 Q1024.4644,107.998 1024.1206,108.4043 Q1023.6206,108.9824 1022.8237,109.3105 Q1021.7456,109.7637 1020.4487,109.7637 Q1018.9331,109.7637 1017.73,109.1387 Q1016.7456,108.6387 1016.0581,107.5762 Q1015.3706,106.498 1015.3706,105.2168 L1015.3706,104.0605 Q1015.3706,102.7324 1015.98,101.5918 Q1016.605,100.4355 1017.6987,99.8262 Q1018.7925,99.2012 1020.0269,99.2012 Q1020.7612,99.2012 1021.4019,99.373 Q1022.0581,99.5293 1022.605,99.8887 Z " fill="#000000"/><text fill="#000000" font-family="sans-serif" font-size="14" lengthAdjust="spacing" textLength="17.8965" x="1040.3394" y="109.8105">R3</text><line style="stroke:#181818;stroke-width:0.5;" x1="954.5" x2="1111.5752" y1="120.0137" y2="120.0137"/><text fill="#000000" font-family="sans-serif" font-size="14" lengthAdjust="spacing" textLength="147.0752" x="959.5" y="139.1211">Transparent Coroutines</text><line style="stroke:#181818;stroke-width:0.5;" x1="954.5" x2="1111.5752" y1="146.6348" y2="146.6348"/></g><!--class R4--><g id="elem_R4"><rect fill="#F1F1F1" height="66.6211" id="R4" rx="2.5" ry="2.5" style="stroke:#181818;stroke-width:0.5;" width="138.0684" x="1554" y="88.0137"/><ellipse cx="1609.8359" cy="104.0137" fill="#ADD1B2" rx="11" ry="11" style="stroke:#181818;stroke-width:1.0;"/><path d="M1612.6016,99.8887 Q1612.7578,99.6699 1612.9453,99.5605 Q1613.1328,99.4512 1613.3516,99.4512 Q1613.7266,99.4512 1613.9609,99.7168 Q1614.1953,99.9668 1614.1953,100.5762 L1614.1953,102.0293 Q1614.1953,102.6387 1613.9609,102.9043 Q1613.7266,103.1699 1613.3516,103.1699 Q1613.0078,103.1699 1612.8047,102.9668 Q1612.6016,102.7793 1612.4922,102.2637 Q1612.4453,101.9043 1612.2578,101.7168 Q1611.9297,101.3418 1611.3203,101.123 Q1610.7109,100.9043 1610.0859,100.9043 Q1609.3203,100.9043 1608.6797,101.2324 Q1608.0547,101.5605 1607.5547,102.3105 Q1607.0703,103.0605 1607.0703,104.0918 L1607.0703,105.1855 Q1607.0703,106.4199 1607.9609,107.248 Q1608.8516,108.0605 1610.4453,108.0605 Q1611.3828,108.0605 1612.0391,107.8105 Q1612.4297,107.6543 1612.8516,107.2168 Q1613.1172,106.9512 1613.2578,106.873 Q1613.4141,106.7949 1613.6172,106.7949 Q1613.9453,106.7949 1614.1953,107.0605 Q1614.4609,107.3105 1614.4609,107.6543 Q1614.4609,107.998 1614.1172,108.4043 Q1613.6172,108.9824 1612.8203,109.3105 Q1611.7422,109.7637 1610.4453,109.7637 Q1608.9297,109.7637 1607.7266,109.1387 Q1606.7422,108.6387 1606.0547,107.5762 Q1605.3672,106.498 1605.3672,105.2168 L1605.3672,104.0605 Q1605.3672,102.7324 1605.9766,101.5918 Q1606.6016,100.4355 1607.6953,99.8262 Q1608.7891,99.2012 1610.0234,99.2012 Q1610.7578,99.2012 1611.3984,99.373 Q1612.0547,99.5293 1612.6016,99.8887 Z " fill="#000000"/><text fill="#000000" font-family="sans-serif" font-size="14" lengthAdjust="spacing" textLength="17.8965" x="1630.3359" y="109.8105">R4</text><line style="stroke:#181818;stroke-width:0.5;" x1="1555" x2="1691.0684" y1="120.0137" y2="120.0137"/><text fill="#000000" font-family="sans-serif" font-size="14" lengthAdjust="spacing" textLength="126.0684" x="1560" y="139.1211">Cancellation Control</text><line style="stroke:#181818;stroke-width:0.5;" x1="1555" x2="1691.0684" y1="146.6348" y2="146.6348"/></g><!--class R5--><g id="elem_R5"><rect fill="#F1F1F1" height="66.6211" id="R5" rx="2.5" ry="2.5" style="stroke:#181818;stroke-width:0.5;" width="145.8545" x="1727" y="88.0137"/><ellipse cx="1786.729" cy="104.0137" fill="#ADD1B2" rx="11" ry="11" style="stroke:#181818;stroke-width:1.0;"/><path d="M1789.4946,99.8887 Q1789.6509,99.6699 1789.8384,99.5605 Q1790.0259,99.4512 1790.2446,99.4512 Q1790.6196,99.4512 1790.854,99.7168 Q1791.0884,99.9668 1791.0884,100.5762 L1791.0884,102.0293 Q1791.0884,102.6387 1790.854,102.9043 Q1790.6196,103.1699 1790.2446,103.1699 Q1789.9009,103.1699 1789.6978,102.9668 Q1789.4946,102.7793 1789.3853,102.2637 Q1789.3384,101.9043 1789.1509,101.7168 Q1788.8228,101.3418 1788.2134,101.123 Q1787.604,100.9043 1786.979,100.9043 Q1786.2134,100.9043 1785.5728,101.2324 Q1784.9478,101.5605 1784.4478,102.3105 Q1783.9634,103.0605 1783.9634,104.0918 L1783.9634,105.1855 Q1783.9634,106.4199 1784.854,107.248 Q1785.7446,108.0605 1787.3384,108.0605 Q1788.2759,108.0605 1788.9321,107.8105 Q1789.3228,107.6543 1789.7446,107.2168 Q1790.0103,106.9512 1790.1509,106.873 Q1790.3071,106.7949 1790.5103,106.7949 Q1790.8384,106.7949 1791.0884,107.0605 Q1791.354,107.3105 1791.354,107.6543 Q1791.354,107.998 1791.0103,108.4043 Q1790.5103,108.9824 1789.7134,109.3105 Q1788.6353,109.7637 1787.3384,109.7637 Q1785.8228,109.7637 1784.6196,109.1387 Q1783.6353,108.6387 1782.9478,107.5762 Q1782.2603,106.498 1782.2603,105.2168 L1782.2603,104.0605 Q1782.2603,102.7324 1782.8696,101.5918 Q1783.4946,100.4355 1784.5884,99.8262 Q1785.6821,99.2012 1786.9165,99.2012 Q1787.6509,99.2012 1788.2915,99.373 Q1788.9478,99.5293 1789.4946,99.8887 Z " fill="#000000"/><text fill="#000000" font-family="sans-serif" font-size="14" lengthAdjust="spacing" textLength="17.8965" x="1807.229" y="109.8105">R5</text><line style="stroke:#181818;stroke-width:0.5;" x1="1728" x2="1871.8545" y1="120.0137" y2="120.0137"/><text fill="#000000" font-family="sans-serif" font-size="14" lengthAdjust="spacing" textLength="133.8545" x="1733" y="139.1211">Context Management</text><line style="stroke:#181818;stroke-width:0.5;" x1="1728" x2="1871.8545" y1="146.6348" y2="146.6348"/></g><!--class R6--><g id="elem_R6"><rect fill="#F1F1F1" height="66.6211" id="R6" rx="2.5" ry="2.5" style="stroke:#181818;stroke-width:0.5;" width="174.6543" x="1343.5" y="88.0137"/><ellipse cx="1417.6289" cy="104.0137" fill="#ADD1B2" rx="11" ry="11" style="stroke:#181818;stroke-width:1.0;"/><path d="M1420.3945,99.8887 Q1420.5508,99.6699 1420.7383,99.5605 Q1420.9258,99.4512 1421.1445,99.4512 Q1421.5195,99.4512 1421.7539,99.7168 Q1421.9883,99.9668 1421.9883,100.5762 L1421.9883,102.0293 Q1421.9883,102.6387 1421.7539,102.9043 Q1421.5195,103.1699 1421.1445,103.1699 Q1420.8008,103.1699 1420.5977,102.9668 Q1420.3945,102.7793 1420.2852,102.2637 Q1420.2383,101.9043 1420.0508,101.7168 Q1419.7227,101.3418 1419.1133,101.123 Q1418.5039,100.9043 1417.8789,100.9043 Q1417.1133,100.9043 1416.4727,101.2324 Q1415.8477,101.5605 1415.3477,102.3105 Q1414.8633,103.0605 1414.8633,104.0918 L1414.8633,105.1855 Q1414.8633,106.4199 1415.7539,107.248 Q1416.6445,108.0605 1418.2383,108.0605 Q1419.1758,108.0605 1419.832,107.8105 Q1420.2227,107.6543 1420.6445,107.2168 Q1420.9102,106.9512 1421.0508,106.873 Q1421.207,106.7949 1421.4102,106.7949 Q1421.7383,106.7949 1421.9883,107.0605 Q1422.2539,107.3105 1422.2539,107.6543 Q1422.2539,107.998 1421.9102,108.4043 Q1421.4102,108.9824 1420.6133,109.3105 Q1419.5352,109.7637 1418.2383,109.7637 Q1416.7227,109.7637 1415.5195,109.1387 Q1414.5352,108.6387 1413.8477,107.5762 Q1413.1602,106.498 1413.1602,105.2168 L1413.1602,104.0605 Q1413.1602,102.7324 1413.7695,101.5918 Q1414.3945,100.4355 1415.4883,99.8262 Q1416.582,99.2012 1417.8164,99.2012 Q1418.5508,99.2012 1419.1914,99.373 Q1419.8477,99.5293 1420.3945,99.8887 Z " fill="#000000"/><text fill="#000000" font-family="sans-serif" font-size="14" lengthAdjust="spacing" textLength="17.8965" x="1438.1289" y="109.8105">R6</text><line style="stroke:#181818;stroke-width:0.5;" x1="1344.5" x2="1517.1543" y1="120.0137" y2="120.0137"/><text fill="#000000" font-family="sans-serif" font-size="14" lengthAdjust="spacing" textLength="162.6543" x="1349.5" y="139.1211">Task Grouping and Scope</text><line style="stroke:#181818;stroke-width:0.5;" x1="1344.5" x2="1517.1543" y1="146.6348" y2="146.6348"/></g><!--class R7--><g id="elem_R7"><rect fill="#F1F1F1" height="66.6211" id="R7" rx="2.5" ry="2.5" style="stroke:#181818;stroke-width:0.5;" width="106.1445" x="1908" y="88.0137"/><ellipse cx="1948.3116" cy="104.0137" fill="#ADD1B2" rx="11" ry="11" style="stroke:#181818;stroke-width:1.0;"/><path d="M1951.0772,99.8887 Q1951.2335,99.6699 1951.421,99.5605 Q1951.6085,99.4512 1951.8272,99.4512 Q1952.2022,99.4512 1952.4366,99.7168 Q1952.671,99.9668 1952.671,100.5762 L1952.671,102.0293 Q1952.671,102.6387 1952.4366,102.9043 Q1952.2022,103.1699 1951.8272,103.1699 Q1951.4835,103.1699 1951.2804,102.9668 Q1951.0772,102.7793 1950.9679,102.2637 Q1950.921,101.9043 1950.7335,101.7168 Q1950.4054,101.3418 1949.796,101.123 Q1949.1866,100.9043 1948.5616,100.9043 Q1947.796,100.9043 1947.1554,101.2324 Q1946.5304,101.5605 1946.0304,102.3105 Q1945.546,103.0605 1945.546,104.0918 L1945.546,105.1855 Q1945.546,106.4199 1946.4366,107.248 Q1947.3272,108.0605 1948.921,108.0605 Q1949.8585,108.0605 1950.5147,107.8105 Q1950.9054,107.6543 1951.3272,107.2168 Q1951.5929,106.9512 1951.7335,106.873 Q1951.8897,106.7949 1952.0929,106.7949 Q1952.421,106.7949 1952.671,107.0605 Q1952.9366,107.3105 1952.9366,107.6543 Q1952.9366,107.998 1952.5929,108.4043 Q1952.0929,108.9824 1951.296,109.3105 Q1950.2179,109.7637 1948.921,109.7637 Q1947.4054,109.7637 1946.2022,109.1387 Q1945.2179,108.6387 1944.5304,107.5762 Q1943.8429,106.498 1943.8429,105.2168 L1943.8429,104.0605 Q1943.8429,102.7324 1944.4522,101.5918 Q1945.0772,100.4355 1946.171,99.8262 Q1947.2647,99.2012 1948.4991,99.2012 Q1949.2335,99.2012 1949.8741,99.373 Q1950.5304,99.5293 1951.0772,99.8887 Z " fill="#000000"/><text fill="#000000" font-family="sans-serif" font-size="14" lengthAdjust="spacing" textLength="17.8965" x="1967.9364" y="109.8105">R7</text><line style="stroke:#181818;stroke-width:0.5;" x1="1909" x2="2013.1445" y1="120.0137" y2="120.0137"/><text fill="#000000" font-family="sans-serif" font-size="14" lengthAdjust="spacing" textLength="94.1445" x="1914" y="139.1211">Error Detection</text><line style="stroke:#181818;stroke-width:0.5;" x1="1909" x2="2013.1445" y1="146.6348" y2="146.6348"/></g><!--class F1--><g id="elem_F1"><rect fill="#F1F1F1" height="66.6211" id="F1" rx="2.5" ry="2.5" style="stroke:#181818;stroke-width:0.5;" width="52.4688" x="935" y="259.0137"/><ellipse cx="951.8589" cy="275.0137" fill="#ADD1B2" rx="11" ry="11" style="stroke:#181818;stroke-width:1.0;"/><path d="M954.6245,270.8887 Q954.7808,270.6699 954.9683,270.5605 Q955.1558,270.4512 955.3745,270.4512 Q955.7495,270.4512 955.9839,270.7168 Q956.2183,270.9668 956.2183,271.5762 L956.2183,273.0293 Q956.2183,273.6387 955.9839,273.9043 Q955.7495,274.1699 955.3745,274.1699 Q955.0308,274.1699 954.8276,273.9668 Q954.6245,273.7793 954.5151,273.2637 Q954.4683,272.9043 954.2808,272.7168 Q953.9526,272.3418 953.3433,272.123 Q952.7339,271.9043 952.1089,271.9043 Q951.3433,271.9043 950.7026,272.2324 Q950.0776,272.5605 949.5776,273.3105 Q949.0933,274.0605 949.0933,275.0918 L949.0933,276.1855 Q949.0933,277.4199 949.9839,278.248 Q950.8745,279.0605 952.4683,279.0605 Q953.4058,279.0605 954.062,278.8105 Q954.4526,278.6543 954.8745,278.2168 Q955.1401,277.9512 955.2808,277.873 Q955.437,277.7949 955.6401,277.7949 Q955.9683,277.7949 956.2183,278.0605 Q956.4839,278.3105 956.4839,278.6543 Q956.4839,278.998 956.1401,279.4043 Q955.6401,279.9824 954.8433,280.3105 Q953.7651,280.7637 952.4683,280.7637 Q950.9526,280.7637 949.7495,280.1387 Q948.7651,279.6387 948.0776,278.5762 Q947.3901,277.498 947.3901,276.2168 L947.3901,275.0605 Q947.3901,273.7324 947.9995,272.5918 Q948.6245,271.4355 949.7183,270.8262 Q950.812,270.2012 952.0464,270.2012 Q952.7808,270.2012 953.4214,270.373 Q954.0776,270.5293 954.6245,270.8887 Z " fill="#000000"/><text fill="#000000" font-family="sans-serif" font-size="14" lengthAdjust="spacing" textLength="16.3379" x="966.272" y="280.8105">F1</text><line style="stroke:#181818;stroke-width:0.5;" x1="936" x2="986.4688" y1="291.0137" y2="291.0137"/><text fill="#000000" font-family="sans-serif" font-size="14" lengthAdjust="spacing" textLength="40.4688" x="941" y="310.1211">spawn</text><line style="stroke:#181818;stroke-width:0.5;" x1="936" x2="986.4688" y1="317.6348" y2="317.6348"/></g><!--class F2--><g id="elem_F2"><rect fill="#F1F1F1" height="66.6211" id="F2" rx="2.5" ry="2.5" style="stroke:#181818;stroke-width:0.5;" width="48.3379" x="852" y="259.0137"/><ellipse cx="867" cy="275.0137" fill="#ADD1B2" rx="11" ry="11" style="stroke:#181818;stroke-width:1.0;"/><path d="M869.7656,270.8887 Q869.9219,270.6699 870.1094,270.5605 Q870.2969,270.4512 870.5156,270.4512 Q870.8906,270.4512 871.125,270.7168 Q871.3594,270.9668 871.3594,271.5762 L871.3594,273.0293 Q871.3594,273.6387 871.125,273.9043 Q870.8906,274.1699 870.5156,274.1699 Q870.1719,274.1699 869.9688,273.9668 Q869.7656,273.7793 869.6563,273.2637 Q869.6094,272.9043 869.4219,272.7168 Q869.0938,272.3418 868.4844,272.123 Q867.875,271.9043 867.25,271.9043 Q866.4844,271.9043 865.8438,272.2324 Q865.2188,272.5605 864.7188,273.3105 Q864.2344,274.0605 864.2344,275.0918 L864.2344,276.1855 Q864.2344,277.4199 865.125,278.248 Q866.0156,279.0605 867.6094,279.0605 Q868.5469,279.0605 869.2031,278.8105 Q869.5938,278.6543 870.0156,278.2168 Q870.2813,277.9512 870.4219,277.873 Q870.5781,277.7949 870.7813,277.7949 Q871.1094,277.7949 871.3594,278.0605 Q871.625,278.3105 871.625,278.6543 Q871.625,278.998 871.2813,279.4043 Q870.7813,279.9824 869.9844,280.3105 Q868.9063,280.7637 867.6094,280.7637 Q866.0938,280.7637 864.8906,280.1387 Q863.9063,279.6387 863.2188,278.5762 Q862.5313,277.498 862.5313,276.2168 L862.5313,275.0605 Q862.5313,273.7324 863.1406,272.5918 Q863.7656,271.4355 864.8594,270.8262 Q865.9531,270.2012 867.1875,270.2012 Q867.9219,270.2012 868.5625,270.373 Q869.2188,270.5293 869.7656,270.8887 Z " fill="#000000"/><text fill="#000000" font-family="sans-serif" font-size="14" lengthAdjust="spacing" textLength="16.3379" x="881" y="280.8105">F2</text><line style="stroke:#181818;stroke-width:0.5;" x1="853" x2="899.3379" y1="291.0137" y2="291.0137"/><text fill="#000000" font-family="sans-serif" font-size="14" lengthAdjust="spacing" textLength="32.6826" x="858" y="310.1211">await</text><line style="stroke:#181818;stroke-width:0.5;" x1="853" x2="899.3379" y1="317.6348" y2="317.6348"/></g><!--class F3--><g id="elem_F3"><rect fill="#F1F1F1" height="66.6211" id="F3" rx="2.5" ry="2.5" style="stroke:#181818;stroke-width:0.5;" width="64.9307" x="1022.5" y="259.0137"/><ellipse cx="1044.9667" cy="275.0137" fill="#ADD1B2" rx="11" ry="11" style="stroke:#181818;stroke-width:1.0;"/><path d="M1047.7324,270.8887 Q1047.8886,270.6699 1048.0761,270.5605 Q1048.2636,270.4512 1048.4824,270.4512 Q1048.8574,270.4512 1049.0917,270.7168 Q1049.3261,270.9668 1049.3261,271.5762 L1049.3261,273.0293 Q1049.3261,273.6387 1049.0917,273.9043 Q1048.8574,274.1699 1048.4824,274.1699 Q1048.1386,274.1699 1047.9355,273.9668 Q1047.7324,273.7793 1047.623,273.2637 Q1047.5761,272.9043 1047.3886,272.7168 Q1047.0605,272.3418 1046.4511,272.123 Q1045.8417,271.9043 1045.2167,271.9043 Q1044.4511,271.9043 1043.8105,272.2324 Q1043.1855,272.5605 1042.6855,273.3105 Q1042.2011,274.0605 1042.2011,275.0918 L1042.2011,276.1855 Q1042.2011,277.4199 1043.0917,278.248 Q1043.9824,279.0605 1045.5761,279.0605 Q1046.5136,279.0605 1047.1699,278.8105 Q1047.5605,278.6543 1047.9824,278.2168 Q1048.248,277.9512 1048.3886,277.873 Q1048.5449,277.7949 1048.748,277.7949 Q1049.0761,277.7949 1049.3261,278.0605 Q1049.5917,278.3105 1049.5917,278.6543 Q1049.5917,278.998 1049.248,279.4043 Q1048.748,279.9824 1047.9511,280.3105 Q1046.873,280.7637 1045.5761,280.7637 Q1044.0605,280.7637 1042.8574,280.1387 Q1041.873,279.6387 1041.1855,278.5762 Q1040.498,277.498 1040.498,276.2168 L1040.498,275.0605 Q1040.498,273.7324 1041.1074,272.5918 Q1041.7324,271.4355 1042.8261,270.8262 Q1043.9199,270.2012 1045.1542,270.2012 Q1045.8886,270.2012 1046.5292,270.373 Q1047.1855,270.5293 1047.7324,270.8887 Z " fill="#000000"/><text fill="#000000" font-family="sans-serif" font-size="14" lengthAdjust="spacing" textLength="16.3379" x="1060.626" y="280.8105">F3</text><line style="stroke:#181818;stroke-width:0.5;" x1="1023.5" x2="1086.4307" y1="291.0137" y2="291.0137"/><text fill="#000000" font-family="sans-serif" font-size="14" lengthAdjust="spacing" textLength="52.9307" x="1028.5" y="310.1211">suspend</text><line style="stroke:#181818;stroke-width:0.5;" x1="1023.5" x2="1086.4307" y1="317.6348" y2="317.6348"/></g><!--class F4--><g id="elem_F4"><rect fill="#F1F1F1" height="66.6211" id="F4" rx="2.5" ry="2.5" style="stroke:#181818;stroke-width:0.5;" width="51.6963" x="1123" y="259.0137"/><ellipse cx="1139.5113" cy="275.0137" fill="#ADD1B2" rx="11" ry="11" style="stroke:#181818;stroke-width:1.0;"/><path d="M1142.2769,270.8887 Q1142.4332,270.6699 1142.6207,270.5605 Q1142.8082,270.4512 1143.0269,270.4512 Q1143.4019,270.4512 1143.6363,270.7168 Q1143.8707,270.9668 1143.8707,271.5762 L1143.8707,273.0293 Q1143.8707,273.6387 1143.6363,273.9043 Q1143.4019,274.1699 1143.0269,274.1699 Q1142.6832,274.1699 1142.48,273.9668 Q1142.2769,273.7793 1142.1675,273.2637 Q1142.1207,272.9043 1141.9332,272.7168 Q1141.605,272.3418 1140.9957,272.123 Q1140.3863,271.9043 1139.7613,271.9043 Q1138.9957,271.9043 1138.355,272.2324 Q1137.73,272.5605 1137.23,273.3105 Q1136.7457,274.0605 1136.7457,275.0918 L1136.7457,276.1855 Q1136.7457,277.4199 1137.6363,278.248 Q1138.5269,279.0605 1140.1207,279.0605 Q1141.0582,279.0605 1141.7144,278.8105 Q1142.105,278.6543 1142.5269,278.2168 Q1142.7925,277.9512 1142.9332,277.873 Q1143.0894,277.7949 1143.2925,277.7949 Q1143.6207,277.7949 1143.8707,278.0605 Q1144.1363,278.3105 1144.1363,278.6543 Q1144.1363,278.998 1143.7925,279.4043 Q1143.2925,279.9824 1142.4957,280.3105 Q1141.4175,280.7637 1140.1207,280.7637 Q1138.605,280.7637 1137.4019,280.1387 Q1136.4175,279.6387 1135.73,278.5762 Q1135.0425,277.498 1135.0425,276.2168 L1135.0425,275.0605 Q1135.0425,273.7324 1135.6519,272.5918 Q1136.2769,271.4355 1137.3707,270.8262 Q1138.4644,270.2012 1139.6988,270.2012 Q1140.4332,270.2012 1141.0738,270.373 Q1141.73,270.5293 1142.2769,270.8887 Z " fill="#000000"/><text fill="#000000" font-family="sans-serif" font-size="14" lengthAdjust="spacing" textLength="16.3379" x="1153.8471" y="280.8105">F4</text><line style="stroke:#181818;stroke-width:0.5;" x1="1124" x2="1173.6963" y1="291.0137" y2="291.0137"/><text fill="#000000" font-family="sans-serif" font-size="14" lengthAdjust="spacing" textLength="39.6963" x="1129" y="310.1211">Scope</text><line style="stroke:#181818;stroke-width:0.5;" x1="1124" x2="1173.6963" y1="317.6348" y2="317.6348"/></g><!--class F5--><g id="elem_F5"><rect fill="#F1F1F1" height="66.6211" id="F5" rx="2.5" ry="2.5" style="stroke:#181818;stroke-width:0.5;" width="60.248" x="2137" y="259.0137"/><ellipse cx="2157.3596" cy="275.0137" fill="#ADD1B2" rx="11" ry="11" style="stroke:#181818;stroke-width:1.0;"/><path d="M2160.1252,270.8887 Q2160.2814,270.6699 2160.4689,270.5605 Q2160.6564,270.4512 2160.8752,270.4512 Q2161.2502,270.4512 2161.4846,270.7168 Q2161.7189,270.9668 2161.7189,271.5762 L2161.7189,273.0293 Q2161.7189,273.6387 2161.4846,273.9043 Q2161.2502,274.1699 2160.8752,274.1699 Q2160.5314,274.1699 2160.3283,273.9668 Q2160.1252,273.7793 2160.0158,273.2637 Q2159.9689,272.9043 2159.7814,272.7168 Q2159.4533,272.3418 2158.8439,272.123 Q2158.2346,271.9043 2157.6096,271.9043 Q2156.8439,271.9043 2156.2033,272.2324 Q2155.5783,272.5605 2155.0783,273.3105 Q2154.5939,274.0605 2154.5939,275.0918 L2154.5939,276.1855 Q2154.5939,277.4199 2155.4846,278.248 Q2156.3752,279.0605 2157.9689,279.0605 Q2158.9064,279.0605 2159.5627,278.8105 Q2159.9533,278.6543 2160.3752,278.2168 Q2160.6408,277.9512 2160.7814,277.873 Q2160.9377,277.7949 2161.1408,277.7949 Q2161.4689,277.7949 2161.7189,278.0605 Q2161.9846,278.3105 2161.9846,278.6543 Q2161.9846,278.998 2161.6408,279.4043 Q2161.1408,279.9824 2160.3439,280.3105 Q2159.2658,280.7637 2157.9689,280.7637 Q2156.4533,280.7637 2155.2502,280.1387 Q2154.2658,279.6387 2153.5783,278.5762 Q2152.8908,277.498 2152.8908,276.2168 L2152.8908,275.0605 Q2152.8908,273.7324 2153.5002,272.5918 Q2154.1252,271.4355 2155.2189,270.8262 Q2156.3127,270.2012 2157.5471,270.2012 Q2158.2814,270.2012 2158.9221,270.373 Q2159.5783,270.5293 2160.1252,270.8887 Z " fill="#000000"/><text fill="#000000" font-family="sans-serif" font-size="14" lengthAdjust="spacing" textLength="16.3379" x="2172.5506" y="280.8105">F5</text><line style="stroke:#181818;stroke-width:0.5;" x1="2138" x2="2196.248" y1="291.0137" y2="291.0137"/><text fill="#000000" font-family="sans-serif" font-size="14" lengthAdjust="spacing" textLength="48.248" x="2143" y="310.1211">Context</text><line style="stroke:#181818;stroke-width:0.5;" x1="2138" x2="2196.248" y1="317.6348" y2="317.6348"/></g><!--class F6--><g id="elem_F6"><rect fill="#F1F1F1" height="66.6211" id="F6" rx="2.5" ry="2.5" style="stroke:#181818;stroke-width:0.5;" width="115.5029" x="1575" y="259.0137"/><ellipse cx="1620.3325" cy="275.0137" fill="#ADD1B2" rx="11" ry="11" style="stroke:#181818;stroke-width:1.0;"/><path d="M1623.0981,270.8887 Q1623.2544,270.6699 1623.4419,270.5605 Q1623.6294,270.4512 1623.8481,270.4512 Q1624.2231,270.4512 1624.4575,270.7168 Q1624.6919,270.9668 1624.6919,271.5762 L1624.6919,273.0293 Q1624.6919,273.6387 1624.4575,273.9043 Q1624.2231,274.1699 1623.8481,274.1699 Q1623.5044,274.1699 1623.3013,273.9668 Q1623.0981,273.7793 1622.9888,273.2637 Q1622.9419,272.9043 1622.7544,272.7168 Q1622.4263,272.3418 1621.8169,272.123 Q1621.2075,271.9043 1620.5825,271.9043 Q1619.8169,271.9043 1619.1763,272.2324 Q1618.5513,272.5605 1618.0513,273.3105 Q1617.5669,274.0605 1617.5669,275.0918 L1617.5669,276.1855 Q1617.5669,277.4199 1618.4575,278.248 Q1619.3481,279.0605 1620.9419,279.0605 Q1621.8794,279.0605 1622.5356,278.8105 Q1622.9263,278.6543 1623.3481,278.2168 Q1623.6138,277.9512 1623.7544,277.873 Q1623.9106,277.7949 1624.1138,277.7949 Q1624.4419,277.7949 1624.6919,278.0605 Q1624.9575,278.3105 1624.9575,278.6543 Q1624.9575,278.998 1624.6138,279.4043 Q1624.1138,279.9824 1623.3169,280.3105 Q1622.2388,280.7637 1620.9419,280.7637 Q1619.4263,280.7637 1618.2231,280.1387 Q1617.2388,279.6387 1616.5513,278.5762 Q1615.8638,277.498 1615.8638,276.2168 L1615.8638,275.0605 Q1615.8638,273.7324 1616.4731,272.5918 Q1617.0981,271.4355 1618.1919,270.8262 Q1619.2856,270.2012 1620.52,270.2012 Q1621.2544,270.2012 1621.895,270.373 Q1622.5513,270.5293 1623.0981,270.8887 Z " fill="#000000"/><text fill="#000000" font-family="sans-serif" font-size="14" lengthAdjust="spacing" textLength="16.3379" x="1640.8325" y="280.8105">F6</text><line style="stroke:#181818;stroke-width:0.5;" x1="1576" x2="1689.5029" y1="291.0137" y2="291.0137"/><text fill="#000000" font-family="sans-serif" font-size="14" lengthAdjust="spacing" textLength="103.5029" x="1581" y="310.1211">Cancellation API</text><line style="stroke:#181818;stroke-width:0.5;" x1="1576" x2="1689.5029" y1="317.6348" y2="317.6348"/></g><!--class F7--><g id="elem_F7"><rect fill="#F1F1F1" height="66.6211" id="F7" rx="2.5" ry="2.5" style="stroke:#181818;stroke-width:0.5;" width="212.7646" x="1210.5" y="259.0137"/><ellipse cx="1304.4634" cy="275.0137" fill="#ADD1B2" rx="11" ry="11" style="stroke:#181818;stroke-width:1.0;"/><path d="M1307.229,270.8887 Q1307.3853,270.6699 1307.5728,270.5605 Q1307.7603,270.4512 1307.979,270.4512 Q1308.354,270.4512 1308.5884,270.7168 Q1308.8228,270.9668 1308.8228,271.5762 L1308.8228,273.0293 Q1308.8228,273.6387 1308.5884,273.9043 Q1308.354,274.1699 1307.979,274.1699 Q1307.6353,274.1699 1307.4321,273.9668 Q1307.229,273.7793 1307.1196,273.2637 Q1307.0728,272.9043 1306.8853,272.7168 Q1306.5571,272.3418 1305.9478,272.123 Q1305.3384,271.9043 1304.7134,271.9043 Q1303.9478,271.9043 1303.3071,272.2324 Q1302.6821,272.5605 1302.1821,273.3105 Q1301.6978,274.0605 1301.6978,275.0918 L1301.6978,276.1855 Q1301.6978,277.4199 1302.5884,278.248 Q1303.479,279.0605 1305.0728,279.0605 Q1306.0103,279.0605 1306.6665,278.8105 Q1307.0571,278.6543 1307.479,278.2168 Q1307.7446,277.9512 1307.8853,277.873 Q1308.0415,277.7949 1308.2446,277.7949 Q1308.5728,277.7949 1308.8228,278.0605 Q1309.0884,278.3105 1309.0884,278.6543 Q1309.0884,278.998 1308.7446,279.4043 Q1308.2446,279.9824 1307.4478,280.3105 Q1306.3696,280.7637 1305.0728,280.7637 Q1303.5571,280.7637 1302.354,280.1387 Q1301.3696,279.6387 1300.6821,278.5762 Q1299.9946,277.498 1299.9946,276.2168 L1299.9946,275.0605 Q1299.9946,273.7324 1300.604,272.5918 Q1301.229,271.4355 1302.3228,270.8262 Q1303.4165,270.2012 1304.6509,270.2012 Q1305.3853,270.2012 1306.0259,270.373 Q1306.6821,270.5293 1307.229,270.8887 Z " fill="#000000"/><text fill="#000000" font-family="sans-serif" font-size="14" lengthAdjust="spacing" textLength="16.3379" x="1324.9634" y="280.8105">F7</text><line style="stroke:#181818;stroke-width:0.5;" x1="1211.5" x2="1422.2646" y1="291.0137" y2="291.0137"/><text fill="#000000" font-family="sans-serif" font-size="14" lengthAdjust="spacing" textLength="200.7646" x="1216.5" y="310.1211">Structured Concurrency Support</text><line style="stroke:#181818;stroke-width:0.5;" x1="1211.5" x2="1422.2646" y1="317.6348" y2="317.6348"/></g><!--class F8--><g id="elem_F8"><rect fill="#F1F1F1" height="66.6211" id="F8" rx="2.5" ry="2.5" style="stroke:#181818;stroke-width:0.5;" width="208.9023" x="1726.5" y="259.0137"/><ellipse cx="1818.5322" cy="275.0137" fill="#ADD1B2" rx="11" ry="11" style="stroke:#181818;stroke-width:1.0;"/><path d="M1821.2979,270.8887 Q1821.4541,270.6699 1821.6416,270.5605 Q1821.8291,270.4512 1822.0479,270.4512 Q1822.4229,270.4512 1822.6572,270.7168 Q1822.8916,270.9668 1822.8916,271.5762 L1822.8916,273.0293 Q1822.8916,273.6387 1822.6572,273.9043 Q1822.4229,274.1699 1822.0479,274.1699 Q1821.7041,274.1699 1821.501,273.9668 Q1821.2979,273.7793 1821.1885,273.2637 Q1821.1416,272.9043 1820.9541,272.7168 Q1820.626,272.3418 1820.0166,272.123 Q1819.4072,271.9043 1818.7822,271.9043 Q1818.0166,271.9043 1817.376,272.2324 Q1816.751,272.5605 1816.251,273.3105 Q1815.7666,274.0605 1815.7666,275.0918 L1815.7666,276.1855 Q1815.7666,277.4199 1816.6572,278.248 Q1817.5479,279.0605 1819.1416,279.0605 Q1820.0791,279.0605 1820.7354,278.8105 Q1821.126,278.6543 1821.5479,278.2168 Q1821.8135,277.9512 1821.9541,277.873 Q1822.1104,277.7949 1822.3135,277.7949 Q1822.6416,277.7949 1822.8916,278.0605 Q1823.1572,278.3105 1823.1572,278.6543 Q1823.1572,278.998 1822.8135,279.4043 Q1822.3135,279.9824 1821.5166,280.3105 Q1820.4385,280.7637 1819.1416,280.7637 Q1817.626,280.7637 1816.4229,280.1387 Q1815.4385,279.6387 1814.751,278.5762 Q1814.0635,277.498 1814.0635,276.2168 L1814.0635,275.0605 Q1814.0635,273.7324 1814.6729,272.5918 Q1815.2979,271.4355 1816.3916,270.8262 Q1817.4854,270.2012 1818.7197,270.2012 Q1819.4541,270.2012 1820.0947,270.373 Q1820.751,270.5293 1821.2979,270.8887 Z " fill="#000000"/><text fill="#000000" font-family="sans-serif" font-size="14" lengthAdjust="spacing" textLength="16.3379" x="1839.0322" y="280.8105">F8</text><line style="stroke:#181818;stroke-width:0.5;" x1="1727.5" x2="1934.4023" y1="291.0137" y2="291.0137"/><text fill="#000000" font-family="sans-serif" font-size="14" lengthAdjust="spacing" textLength="196.9023" x="1732.5" y="310.1211">Error Propagation and Handling</text><line style="stroke:#181818;stroke-width:0.5;" x1="1727.5" x2="1934.4023" y1="317.6348" y2="317.6348"/></g><!--class F9--><g id="elem_F9"><rect fill="#F1F1F1" height="66.6211" id="F9" rx="2.5" ry="2.5" style="stroke:#181818;stroke-width:0.5;" width="131.0684" x="1970.5" y="259.0137"/><ellipse cx="2023.6152" cy="275.0137" fill="#ADD1B2" rx="11" ry="11" style="stroke:#181818;stroke-width:1.0;"/><path d="M2026.3809,270.8887 Q2026.5371,270.6699 2026.7246,270.5605 Q2026.9121,270.4512 2027.1309,270.4512 Q2027.5059,270.4512 2027.7402,270.7168 Q2027.9746,270.9668 2027.9746,271.5762 L2027.9746,273.0293 Q2027.9746,273.6387 2027.7402,273.9043 Q2027.5059,274.1699 2027.1309,274.1699 Q2026.7871,274.1699 2026.584,273.9668 Q2026.3809,273.7793 2026.2715,273.2637 Q2026.2246,272.9043 2026.0371,272.7168 Q2025.709,272.3418 2025.0996,272.123 Q2024.4902,271.9043 2023.8652,271.9043 Q2023.0996,271.9043 2022.459,272.2324 Q2021.834,272.5605 2021.334,273.3105 Q2020.8496,274.0605 2020.8496,275.0918 L2020.8496,276.1855 Q2020.8496,277.4199 2021.7402,278.248 Q2022.6309,279.0605 2024.2246,279.0605 Q2025.1621,279.0605 2025.8184,278.8105 Q2026.209,278.6543 2026.6309,278.2168 Q2026.8965,277.9512 2027.0371,277.873 Q2027.1934,277.7949 2027.3965,277.7949 Q2027.7246,277.7949 2027.9746,278.0605 Q2028.2402,278.3105 2028.2402,278.6543 Q2028.2402,278.998 2027.8965,279.4043 Q2027.3965,279.9824 2026.5996,280.3105 Q2025.5215,280.7637 2024.2246,280.7637 Q2022.709,280.7637 2021.5059,280.1387 Q2020.5215,279.6387 2019.834,278.5762 Q2019.1465,277.498 2019.1465,276.2168 L2019.1465,275.0605 Q2019.1465,273.7324 2019.7559,272.5918 Q2020.3809,271.4355 2021.4746,270.8262 Q2022.5684,270.2012 2023.8027,270.2012 Q2024.5371,270.2012 2025.1777,270.373 Q2025.834,270.5293 2026.3809,270.8887 Z " fill="#000000"/><text fill="#000000" font-family="sans-serif" font-size="14" lengthAdjust="spacing" textLength="16.3379" x="2044.1152" y="280.8105">F9</text><line style="stroke:#181818;stroke-width:0.5;" x1="1971.5" x2="2100.5684" y1="291.0137" y2="291.0137"/><text fill="#000000" font-family="sans-serif" font-size="14" lengthAdjust="spacing" textLength="119.0684" x="1976.5" y="310.1211">Graceful Shutdown</text><line style="stroke:#181818;stroke-width:0.5;" x1="1971.5" x2="2100.5684" y1="317.6348" y2="317.6348"/></g><!--class F10--><g id="elem_F10"><rect fill="#F1F1F1" height="66.6211" id="F10" rx="2.5" ry="2.5" style="stroke:#181818;stroke-width:0.5;" width="130.2754" x="2232" y="259.0137"/><ellipse cx="2280.8257" cy="275.0137" fill="#ADD1B2" rx="11" ry="11" style="stroke:#181818;stroke-width:1.0;"/><path d="M2283.5913,270.8887 Q2283.7476,270.6699 2283.9351,270.5605 Q2284.1226,270.4512 2284.3413,270.4512 Q2284.7163,270.4512 2284.9507,270.7168 Q2285.1851,270.9668 2285.1851,271.5762 L2285.1851,273.0293 Q2285.1851,273.6387 2284.9507,273.9043 Q2284.7163,274.1699 2284.3413,274.1699 Q2283.9976,274.1699 2283.7944,273.9668 Q2283.5913,273.7793 2283.4819,273.2637 Q2283.4351,272.9043 2283.2476,272.7168 Q2282.9194,272.3418 2282.3101,272.123 Q2281.7007,271.9043 2281.0757,271.9043 Q2280.3101,271.9043 2279.6694,272.2324 Q2279.0444,272.5605 2278.5444,273.3105 Q2278.0601,274.0605 2278.0601,275.0918 L2278.0601,276.1855 Q2278.0601,277.4199 2278.9507,278.248 Q2279.8413,279.0605 2281.4351,279.0605 Q2282.3726,279.0605 2283.0288,278.8105 Q2283.4194,278.6543 2283.8413,278.2168 Q2284.1069,277.9512 2284.2476,277.873 Q2284.4038,277.7949 2284.6069,277.7949 Q2284.9351,277.7949 2285.1851,278.0605 Q2285.4507,278.3105 2285.4507,278.6543 Q2285.4507,278.998 2285.1069,279.4043 Q2284.6069,279.9824 2283.8101,280.3105 Q2282.7319,280.7637 2281.4351,280.7637 Q2279.9194,280.7637 2278.7163,280.1387 Q2277.7319,279.6387 2277.0444,278.5762 Q2276.3569,277.498 2276.3569,276.2168 L2276.3569,275.0605 Q2276.3569,273.7324 2276.9663,272.5918 Q2277.5913,271.4355 2278.6851,270.8262 Q2279.7788,270.2012 2281.0132,270.2012 Q2281.7476,270.2012 2282.3882,270.373 Q2283.0444,270.5293 2283.5913,270.8887 Z " fill="#000000"/><text fill="#000000" font-family="sans-serif" font-size="14" lengthAdjust="spacing" textLength="24.124" x="2301.3257" y="280.8105">F10</text><line style="stroke:#181818;stroke-width:0.5;" x1="2233" x2="2361.2754" y1="291.0137" y2="291.0137"/><text fill="#000000" font-family="sans-serif" font-size="14" lengthAdjust="spacing" textLength="118.2754" x="2238" y="310.1211">Zombie Coroutines</text><line style="stroke:#181818;stroke-width:0.5;" x1="2233" x2="2361.2754" y1="317.6348" y2="317.6348"/></g><!--class F11--><g id="elem_F11"><rect fill="#F1F1F1" height="66.6211" id="F11" rx="2.5" ry="2.5" style="stroke:#181818;stroke-width:0.5;" width="81.248" x="1458.5" y="259.0137"/><ellipse cx="1484.8058" cy="275.0137" fill="#ADD1B2" rx="11" ry="11" style="stroke:#181818;stroke-width:1.0;"/><path d="M1487.5714,270.8887 Q1487.7277,270.6699 1487.9152,270.5605 Q1488.1027,270.4512 1488.3214,270.4512 Q1488.6964,270.4512 1488.9308,270.7168 Q1489.1652,270.9668 1489.1652,271.5762 L1489.1652,273.0293 Q1489.1652,273.6387 1488.9308,273.9043 Q1488.6964,274.1699 1488.3214,274.1699 Q1487.9777,274.1699 1487.7746,273.9668 Q1487.5714,273.7793 1487.4621,273.2637 Q1487.4152,272.9043 1487.2277,272.7168 Q1486.8996,272.3418 1486.2902,272.123 Q1485.6808,271.9043 1485.0558,271.9043 Q1484.2902,271.9043 1483.6496,272.2324 Q1483.0246,272.5605 1482.5246,273.3105 Q1482.0402,274.0605 1482.0402,275.0918 L1482.0402,276.1855 Q1482.0402,277.4199 1482.9308,278.248 Q1483.8214,279.0605 1485.4152,279.0605 Q1486.3527,279.0605 1487.0089,278.8105 Q1487.3996,278.6543 1487.8214,278.2168 Q1488.0871,277.9512 1488.2277,277.873 Q1488.3839,277.7949 1488.5871,277.7949 Q1488.9152,277.7949 1489.1652,278.0605 Q1489.4308,278.3105 1489.4308,278.6543 Q1489.4308,278.998 1489.0871,279.4043 Q1488.5871,279.9824 1487.7902,280.3105 Q1486.7121,280.7637 1485.4152,280.7637 Q1483.8996,280.7637 1482.6964,280.1387 Q1481.7121,279.6387 1481.0246,278.5762 Q1480.3371,277.498 1480.3371,276.2168 L1480.3371,275.0605 Q1480.3371,273.7324 1480.9464,272.5918 Q1481.5714,271.4355 1482.6652,270.8262 Q1483.7589,270.2012 1484.9933,270.2012 Q1485.7277,270.2012 1486.3683,270.373 Q1487.0246,270.5293 1487.5714,270.8887 Z " fill="#000000"/><text fill="#000000" font-family="sans-serif" font-size="14" lengthAdjust="spacing" textLength="24.124" x="1501.3182" y="280.8105">F11</text><line style="stroke:#181818;stroke-width:0.5;" x1="1459.5" x2="1538.748" y1="291.0137" y2="291.0137"/><text fill="#000000" font-family="sans-serif" font-size="14" lengthAdjust="spacing" textLength="69.248" x="1464.5" y="310.1211">TaskGroup</text><line style="stroke:#181818;stroke-width:0.5;" x1="1459.5" x2="1538.748" y1="317.6348" y2="317.6348"/></g><!--class A1--><g id="elem_A1"><rect fill="#F1F1F1" height="66.6211" id="A1" rx="2.5" ry="2.5" style="stroke:#181818;stroke-width:0.5;" width="101.4961" x="674.5" y="430.0137"/><ellipse cx="713.0674" cy="446.0137" fill="#ADD1B2" rx="11" ry="11" style="stroke:#181818;stroke-width:1.0;"/><path d="M715.8331,441.8887 Q715.9893,441.6699 716.1768,441.5605 Q716.3643,441.4512 716.5831,441.4512 Q716.9581,441.4512 717.1924,441.7168 Q717.4268,441.9668 717.4268,442.5762 L717.4268,444.0293 Q717.4268,444.6387 717.1924,444.9043 Q716.9581,445.1699 716.5831,445.1699 Q716.2393,445.1699 716.0362,444.9668 Q715.8331,444.7793 715.7237,444.2637 Q715.6768,443.9043 715.4893,443.7168 Q715.1612,443.3418 714.5518,443.123 Q713.9424,442.9043 713.3174,442.9043 Q712.5518,442.9043 711.9112,443.2324 Q711.2862,443.5605 710.7862,444.3105 Q710.3018,445.0605 710.3018,446.0918 L710.3018,447.1855 Q710.3018,448.4199 711.1924,449.248 Q712.0831,450.0605 713.6768,450.0605 Q714.6143,450.0605 715.2706,449.8105 Q715.6612,449.6543 716.0831,449.2168 Q716.3487,448.9512 716.4893,448.873 Q716.6456,448.7949 716.8487,448.7949 Q717.1768,448.7949 717.4268,449.0605 Q717.6924,449.3105 717.6924,449.6543 Q717.6924,449.998 717.3487,450.4043 Q716.8487,450.9824 716.0518,451.3105 Q714.9737,451.7637 713.6768,451.7637 Q712.1612,451.7637 710.9581,451.1387 Q709.9737,450.6387 709.2862,449.5762 Q708.5987,448.498 708.5987,447.2168 L708.5987,446.0605 Q708.5987,444.7324 709.2081,443.5918 Q709.8331,442.4355 710.9268,441.8262 Q712.0206,441.2012 713.2549,441.2012 Q713.9893,441.2012 714.6299,441.373 Q715.2862,441.5293 715.8331,441.8887 Z " fill="#000000"/><text fill="#000000" font-family="sans-serif" font-size="14" lengthAdjust="spacing" textLength="17.124" x="732.3046" y="451.8105">A1</text><line style="stroke:#181818;stroke-width:0.5;" x1="675.5" x2="774.9961" y1="462.0137" y2="462.0137"/><text fill="#000000" font-family="sans-serif" font-size="14" lengthAdjust="spacing" textLength="89.4961" x="680.5" y="481.1211">Scheduler API</text><line style="stroke:#181818;stroke-width:0.5;" x1="675.5" x2="774.9961" y1="488.6348" y2="488.6348"/></g><!--class A2--><g id="elem_A2"><rect fill="#F1F1F1" height="66.6211" id="A2" rx="2.5" ry="2.5" style="stroke:#181818;stroke-width:0.5;" width="143.5234" x="811" y="430.0137"/><ellipse cx="869.9497" cy="446.0137" fill="#ADD1B2" rx="11" ry="11" style="stroke:#181818;stroke-width:1.0;"/><path d="M872.7153,441.8887 Q872.8716,441.6699 873.0591,441.5605 Q873.2466,441.4512 873.4653,441.4512 Q873.8403,441.4512 874.0747,441.7168 Q874.3091,441.9668 874.3091,442.5762 L874.3091,444.0293 Q874.3091,444.6387 874.0747,444.9043 Q873.8403,445.1699 873.4653,445.1699 Q873.1216,445.1699 872.9185,444.9668 Q872.7153,444.7793 872.606,444.2637 Q872.5591,443.9043 872.3716,443.7168 Q872.0435,443.3418 871.4341,443.123 Q870.8247,442.9043 870.1997,442.9043 Q869.4341,442.9043 868.7935,443.2324 Q868.1685,443.5605 867.6685,444.3105 Q867.1841,445.0605 867.1841,446.0918 L867.1841,447.1855 Q867.1841,448.4199 868.0747,449.248 Q868.9653,450.0605 870.5591,450.0605 Q871.4966,450.0605 872.1528,449.8105 Q872.5435,449.6543 872.9653,449.2168 Q873.231,448.9512 873.3716,448.873 Q873.5278,448.7949 873.731,448.7949 Q874.0591,448.7949 874.3091,449.0605 Q874.5747,449.3105 874.5747,449.6543 Q874.5747,449.998 874.231,450.4043 Q873.731,450.9824 872.9341,451.3105 Q871.856,451.7637 870.5591,451.7637 Q869.0435,451.7637 867.8403,451.1387 Q866.856,450.6387 866.1685,449.5762 Q865.481,448.498 865.481,447.2168 L865.481,446.0605 Q865.481,444.7324 866.0903,443.5918 Q866.7153,442.4355 867.8091,441.8262 Q868.9028,441.2012 870.1372,441.2012 Q870.8716,441.2012 871.5122,441.373 Q872.1685,441.5293 872.7153,441.8887 Z " fill="#000000"/><text fill="#000000" font-family="sans-serif" font-size="14" lengthAdjust="spacing" textLength="17.124" x="890.4497" y="451.8105">A2</text><line style="stroke:#181818;stroke-width:0.5;" x1="812" x2="953.5234" y1="462.0137" y2="462.0137"/><text fill="#000000" font-family="sans-serif" font-size="14" lengthAdjust="spacing" textLength="131.5234" x="817" y="481.1211">Reactor / Event Loop</text><line style="stroke:#181818;stroke-width:0.5;" x1="812" x2="953.5234" y1="488.6348" y2="488.6348"/></g><!--class A3--><g id="elem_A3"><rect fill="#F1F1F1" height="66.6211" id="A3" rx="2.5" ry="2.5" style="stroke:#181818;stroke-width:0.5;" width="158.3096" x="990" y="430.0137"/><ellipse cx="1056.3428" cy="446.0137" fill="#ADD1B2" rx="11" ry="11" style="stroke:#181818;stroke-width:1.0;"/><path d="M1059.1084,441.8887 Q1059.2646,441.6699 1059.4521,441.5605 Q1059.6396,441.4512 1059.8584,441.4512 Q1060.2334,441.4512 1060.4678,441.7168 Q1060.7021,441.9668 1060.7021,442.5762 L1060.7021,444.0293 Q1060.7021,444.6387 1060.4678,444.9043 Q1060.2334,445.1699 1059.8584,445.1699 Q1059.5146,445.1699 1059.3115,444.9668 Q1059.1084,444.7793 1058.999,444.2637 Q1058.9521,443.9043 1058.7646,443.7168 Q1058.4365,443.3418 1057.8271,443.123 Q1057.2178,442.9043 1056.5928,442.9043 Q1055.8271,442.9043 1055.1865,443.2324 Q1054.5615,443.5605 1054.0615,444.3105 Q1053.5771,445.0605 1053.5771,446.0918 L1053.5771,447.1855 Q1053.5771,448.4199 1054.4678,449.248 Q1055.3584,450.0605 1056.9521,450.0605 Q1057.8896,450.0605 1058.5459,449.8105 Q1058.9365,449.6543 1059.3584,449.2168 Q1059.624,448.9512 1059.7646,448.873 Q1059.9209,448.7949 1060.124,448.7949 Q1060.4521,448.7949 1060.7021,449.0605 Q1060.9678,449.3105 1060.9678,449.6543 Q1060.9678,449.998 1060.624,450.4043 Q1060.124,450.9824 1059.3271,451.3105 Q1058.249,451.7637 1056.9521,451.7637 Q1055.4365,451.7637 1054.2334,451.1387 Q1053.249,450.6387 1052.5615,449.5762 Q1051.874,448.498 1051.874,447.2168 L1051.874,446.0605 Q1051.874,444.7324 1052.4834,443.5918 Q1053.1084,442.4355 1054.2021,441.8262 Q1055.2959,441.2012 1056.5303,441.2012 Q1057.2646,441.2012 1057.9053,441.373 Q1058.5615,441.5293 1059.1084,441.8887 Z " fill="#000000"/><text fill="#000000" font-family="sans-serif" font-size="14" lengthAdjust="spacing" textLength="17.124" x="1076.8428" y="451.8105">A3</text><line style="stroke:#181818;stroke-width:0.5;" x1="991" x2="1147.3096" y1="462.0137" y2="462.0137"/><text fill="#000000" font-family="sans-serif" font-size="14" lengthAdjust="spacing" textLength="146.3096" x="996" y="481.1211">Coroutine Management</text><line style="stroke:#181818;stroke-width:0.5;" x1="991" x2="1147.3096" y1="488.6348" y2="488.6348"/></g><!--class A4--><g id="elem_A4"><rect fill="#F1F1F1" height="66.6211" id="A4" rx="2.5" ry="2.5" style="stroke:#181818;stroke-width:0.5;" width="115.4893" x="1183.5" y="430.0137"/><ellipse cx="1228.4326" cy="446.0137" fill="#ADD1B2" rx="11" ry="11" style="stroke:#181818;stroke-width:1.0;"/><path d="M1231.1982,441.8887 Q1231.3545,441.6699 1231.542,441.5605 Q1231.7295,441.4512 1231.9482,441.4512 Q1232.3232,441.4512 1232.5576,441.7168 Q1232.792,441.9668 1232.792,442.5762 L1232.792,444.0293 Q1232.792,444.6387 1232.5576,444.9043 Q1232.3232,445.1699 1231.9482,445.1699 Q1231.6045,445.1699 1231.4014,444.9668 Q1231.1982,444.7793 1231.0889,444.2637 Q1231.042,443.9043 1230.8545,443.7168 Q1230.5264,443.3418 1229.917,443.123 Q1229.3076,442.9043 1228.6826,442.9043 Q1227.917,442.9043 1227.2764,443.2324 Q1226.6514,443.5605 1226.1514,444.3105 Q1225.667,445.0605 1225.667,446.0918 L1225.667,447.1855 Q1225.667,448.4199 1226.5576,449.248 Q1227.4482,450.0605 1229.042,450.0605 Q1229.9795,450.0605 1230.6357,449.8105 Q1231.0264,449.6543 1231.4482,449.2168 Q1231.7139,448.9512 1231.8545,448.873 Q1232.0107,448.7949 1232.2139,448.7949 Q1232.542,448.7949 1232.792,449.0605 Q1233.0576,449.3105 1233.0576,449.6543 Q1233.0576,449.998 1232.7139,450.4043 Q1232.2139,450.9824 1231.417,451.3105 Q1230.3389,451.7637 1229.042,451.7637 Q1227.5264,451.7637 1226.3232,451.1387 Q1225.3389,450.6387 1224.6514,449.5762 Q1223.9639,448.498 1223.9639,447.2168 L1223.9639,446.0605 Q1223.9639,444.7324 1224.5732,443.5918 Q1225.1982,442.4355 1226.292,441.8262 Q1227.3857,441.2012 1228.6201,441.2012 Q1229.3545,441.2012 1229.9951,441.373 Q1230.6514,441.5293 1231.1982,441.8887 Z " fill="#000000"/><text fill="#000000" font-family="sans-serif" font-size="14" lengthAdjust="spacing" textLength="17.124" x="1248.9326" y="451.8105">A4</text><line style="stroke:#181818;stroke-width:0.5;" x1="1184.5" x2="1297.9893" y1="462.0137" y2="462.0137"/><text fill="#000000" font-family="sans-serif" font-size="14" lengthAdjust="spacing" textLength="103.4893" x="1189.5" y="481.1211">Scope Hierarchy</text><line style="stroke:#181818;stroke-width:0.5;" x1="1184.5" x2="1297.9893" y1="488.6348" y2="488.6348"/></g><!--class A5--><g id="elem_A5"><rect fill="#F1F1F1" height="66.6211" id="A5" rx="2.5" ry="2.5" style="stroke:#181818;stroke-width:0.5;" width="133.4063" x="1549.5" y="430.0137"/><ellipse cx="1603.3911" cy="446.0137" fill="#ADD1B2" rx="11" ry="11" style="stroke:#181818;stroke-width:1.0;"/><path d="M1606.1567,441.8887 Q1606.313,441.6699 1606.5005,441.5605 Q1606.688,441.4512 1606.9067,441.4512 Q1607.2817,441.4512 1607.5161,441.7168 Q1607.7505,441.9668 1607.7505,442.5762 L1607.7505,444.0293 Q1607.7505,444.6387 1607.5161,444.9043 Q1607.2817,445.1699 1606.9067,445.1699 Q1606.563,445.1699 1606.3599,444.9668 Q1606.1567,444.7793 1606.0474,444.2637 Q1606.0005,443.9043 1605.813,443.7168 Q1605.4849,443.3418 1604.8755,443.123 Q1604.2661,442.9043 1603.6411,442.9043 Q1602.8755,442.9043 1602.2349,443.2324 Q1601.6099,443.5605 1601.1099,444.3105 Q1600.6255,445.0605 1600.6255,446.0918 L1600.6255,447.1855 Q1600.6255,448.4199 1601.5161,449.248 Q1602.4067,450.0605 1604.0005,450.0605 Q1604.938,450.0605 1605.5942,449.8105 Q1605.9849,449.6543 1606.4067,449.2168 Q1606.6724,448.9512 1606.813,448.873 Q1606.9692,448.7949 1607.1724,448.7949 Q1607.5005,448.7949 1607.7505,449.0605 Q1608.0161,449.3105 1608.0161,449.6543 Q1608.0161,449.998 1607.6724,450.4043 Q1607.1724,450.9824 1606.3755,451.3105 Q1605.2974,451.7637 1604.0005,451.7637 Q1602.4849,451.7637 1601.2817,451.1387 Q1600.2974,450.6387 1599.6099,449.5762 Q1598.9224,448.498 1598.9224,447.2168 L1598.9224,446.0605 Q1598.9224,444.7324 1599.5317,443.5918 Q1600.1567,442.4355 1601.2505,441.8262 Q1602.3442,441.2012 1603.5786,441.2012 Q1604.313,441.2012 1604.9536,441.373 Q1605.6099,441.5293 1606.1567,441.8887 Z " fill="#000000"/><text fill="#000000" font-family="sans-serif" font-size="14" lengthAdjust="spacing" textLength="17.124" x="1623.8911" y="451.8105">A5</text><line style="stroke:#181818;stroke-width:0.5;" x1="1550.5" x2="1681.9063" y1="462.0137" y2="462.0137"/><text fill="#000000" font-family="sans-serif" font-size="14" lengthAdjust="spacing" textLength="121.4063" x="1555.5" y="481.1211">Context Inheritance</text><line style="stroke:#181818;stroke-width:0.5;" x1="1550.5" x2="1681.9063" y1="488.6348" y2="488.6348"/></g><!--class A6--><g id="elem_A6"><rect fill="#F1F1F1" height="66.6211" id="A6" rx="2.5" ry="2.5" style="stroke:#181818;stroke-width:0.5;" width="180.8477" x="1333.5" y="430.0137"/><ellipse cx="1411.1118" cy="446.0137" fill="#ADD1B2" rx="11" ry="11" style="stroke:#181818;stroke-width:1.0;"/><path d="M1413.8774,441.8887 Q1414.0337,441.6699 1414.2212,441.5605 Q1414.4087,441.4512 1414.6274,441.4512 Q1415.0024,441.4512 1415.2368,441.7168 Q1415.4712,441.9668 1415.4712,442.5762 L1415.4712,444.0293 Q1415.4712,444.6387 1415.2368,444.9043 Q1415.0024,445.1699 1414.6274,445.1699 Q1414.2837,445.1699 1414.0806,444.9668 Q1413.8774,444.7793 1413.7681,444.2637 Q1413.7212,443.9043 1413.5337,443.7168 Q1413.2056,443.3418 1412.5962,443.123 Q1411.9868,442.9043 1411.3618,442.9043 Q1410.5962,442.9043 1409.9556,443.2324 Q1409.3306,443.5605 1408.8306,444.3105 Q1408.3462,445.0605 1408.3462,446.0918 L1408.3462,447.1855 Q1408.3462,448.4199 1409.2368,449.248 Q1410.1274,450.0605 1411.7212,450.0605 Q1412.6587,450.0605 1413.3149,449.8105 Q1413.7056,449.6543 1414.1274,449.2168 Q1414.3931,448.9512 1414.5337,448.873 Q1414.6899,448.7949 1414.8931,448.7949 Q1415.2212,448.7949 1415.4712,449.0605 Q1415.7368,449.3105 1415.7368,449.6543 Q1415.7368,449.998 1415.3931,450.4043 Q1414.8931,450.9824 1414.0962,451.3105 Q1413.0181,451.7637 1411.7212,451.7637 Q1410.2056,451.7637 1409.0024,451.1387 Q1408.0181,450.6387 1407.3306,449.5762 Q1406.6431,448.498 1406.6431,447.2168 L1406.6431,446.0605 Q1406.6431,444.7324 1407.2524,443.5918 Q1407.8774,442.4355 1408.9712,441.8262 Q1410.0649,441.2012 1411.2993,441.2012 Q1412.0337,441.2012 1412.6743,441.373 Q1413.3306,441.5293 1413.8774,441.8887 Z " fill="#000000"/><text fill="#000000" font-family="sans-serif" font-size="14" lengthAdjust="spacing" textLength="17.124" x="1431.6118" y="451.8105">A6</text><line style="stroke:#181818;stroke-width:0.5;" x1="1334.5" x2="1513.3477" y1="462.0137" y2="462.0137"/><text fill="#000000" font-family="sans-serif" font-size="14" lengthAdjust="spacing" textLength="168.8477" x="1339.5" y="481.1211">Error Handler / Supervision</text><line style="stroke:#181818;stroke-width:0.5;" x1="1334.5" x2="1513.3477" y1="488.6348" y2="488.6348"/></g><!--class A7--><g id="elem_A7"><rect fill="#F1F1F1" height="66.6211" id="A7" rx="2.5" ry="2.5" style="stroke:#181818;stroke-width:0.5;" width="164.5098" x="1717.5" y="430.0137"/><ellipse cx="1786.9429" cy="446.0137" fill="#ADD1B2" rx="11" ry="11" style="stroke:#181818;stroke-width:1.0;"/><path d="M1789.7085,441.8887 Q1789.8647,441.6699 1790.0522,441.5605 Q1790.2397,441.4512 1790.4585,441.4512 Q1790.8335,441.4512 1791.0679,441.7168 Q1791.3022,441.9668 1791.3022,442.5762 L1791.3022,444.0293 Q1791.3022,444.6387 1791.0679,444.9043 Q1790.8335,445.1699 1790.4585,445.1699 Q1790.1147,445.1699 1789.9116,444.9668 Q1789.7085,444.7793 1789.5991,444.2637 Q1789.5522,443.9043 1789.3647,443.7168 Q1789.0366,443.3418 1788.4272,443.123 Q1787.8179,442.9043 1787.1929,442.9043 Q1786.4272,442.9043 1785.7866,443.2324 Q1785.1616,443.5605 1784.6616,444.3105 Q1784.1772,445.0605 1784.1772,446.0918 L1784.1772,447.1855 Q1784.1772,448.4199 1785.0679,449.248 Q1785.9585,450.0605 1787.5522,450.0605 Q1788.4897,450.0605 1789.146,449.8105 Q1789.5366,449.6543 1789.9585,449.2168 Q1790.2241,448.9512 1790.3647,448.873 Q1790.521,448.7949 1790.7241,448.7949 Q1791.0522,448.7949 1791.3022,449.0605 Q1791.5679,449.3105 1791.5679,449.6543 Q1791.5679,449.998 1791.2241,450.4043 Q1790.7241,450.9824 1789.9272,451.3105 Q1788.8491,451.7637 1787.5522,451.7637 Q1786.0366,451.7637 1784.8335,451.1387 Q1783.8491,450.6387 1783.1616,449.5762 Q1782.4741,448.498 1782.4741,447.2168 L1782.4741,446.0605 Q1782.4741,444.7324 1783.0835,443.5918 Q1783.7085,442.4355 1784.8022,441.8262 Q1785.896,441.2012 1787.1304,441.2012 Q1787.8647,441.2012 1788.5054,441.373 Q1789.1616,441.5293 1789.7085,441.8887 Z " fill="#000000"/><text fill="#000000" font-family="sans-serif" font-size="14" lengthAdjust="spacing" textLength="17.124" x="1807.4429" y="451.8105">A7</text><line style="stroke:#181818;stroke-width:0.5;" x1="1718.5" x2="1881.0098" y1="462.0137" y2="462.0137"/><text fill="#000000" font-family="sans-serif" font-size="14" lengthAdjust="spacing" textLength="152.5098" x="1723.5" y="481.1211">Zombie Coroutine Policy</text><line style="stroke:#181818;stroke-width:0.5;" x1="1718.5" x2="1881.0098" y1="488.6348" y2="488.6348"/></g><!--class F12--><g id="elem_F12"><rect fill="#F1F1F1" height="48" id="F12" rx="2.5" ry="2.5" style="stroke:#181818;stroke-width:0.5;" width="56.124" x="7" y="268.5137"/><ellipse cx="22" cy="284.5137" fill="#ADD1B2" rx="11" ry="11" style="stroke:#181818;stroke-width:1.0;"/><path d="M24.7656,280.3887 Q24.9219,280.1699 25.1094,280.0605 Q25.2969,279.9512 25.5156,279.9512 Q25.8906,279.9512 26.125,280.2168 Q26.3594,280.4668 26.3594,281.0762 L26.3594,282.5293 Q26.3594,283.1387 26.125,283.4043 Q25.8906,283.6699 25.5156,283.6699 Q25.1719,283.6699 24.9688,283.4668 Q24.7656,283.2793 24.6563,282.7637 Q24.6094,282.4043 24.4219,282.2168 Q24.0938,281.8418 23.4844,281.623 Q22.875,281.4043 22.25,281.4043 Q21.4844,281.4043 20.8438,281.7324 Q20.2188,282.0605 19.7188,282.8105 Q19.2344,283.5605 19.2344,284.5918 L19.2344,285.6855 Q19.2344,286.9199 20.125,287.748 Q21.0156,288.5605 22.6094,288.5605 Q23.5469,288.5605 24.2031,288.3105 Q24.5938,288.1543 25.0156,287.7168 Q25.2813,287.4512 25.4219,287.373 Q25.5781,287.2949 25.7813,287.2949 Q26.1094,287.2949 26.3594,287.5605 Q26.625,287.8105 26.625,288.1543 Q26.625,288.498 26.2813,288.9043 Q25.7813,289.4824 24.9844,289.8105 Q23.9063,290.2637 22.6094,290.2637 Q21.0938,290.2637 19.8906,289.6387 Q18.9063,289.1387 18.2188,288.0762 Q17.5313,286.998 17.5313,285.7168 L17.5313,284.5605 Q17.5313,283.2324 18.1406,282.0918 Q18.7656,280.9355 19.8594,280.3262 Q20.9531,279.7012 22.1875,279.7012 Q22.9219,279.7012 23.5625,279.873 Q24.2188,280.0293 24.7656,280.3887 Z " fill="#000000"/><text fill="#000000" font-family="sans-serif" font-size="14" lengthAdjust="spacing" textLength="24.124" x="36" y="290.3105">F12</text><line style="stroke:#181818;stroke-width:0.5;" x1="8" x2="62.124" y1="300.5137" y2="300.5137"/><line style="stroke:#181818;stroke-width:0.5;" x1="8" x2="62.124" y1="308.5137" y2="308.5137"/></g><!--link R1 to F1--><g id="link_R1_F1"><path codeLine="42" d="M749.4,147.5437 C688.13,165.6737 616,187.0137 616,187.0137 C616,187.0137 616,206.0137 616,206.0137 C616,206.0137 918,214.0137 918,214.0137 C918,214.0137 928.1287,232.2773 939.8487,253.3973 " fill="none" id="R1-to-F1" style="stroke:#181818;stroke-width:1.0;"/><polygon fill="#181818" points="942.76,258.6437,941.8906,248.8333,940.3339,254.2717,934.8954,252.715,942.76,258.6437" style="stroke:#181818;stroke-width:1.0;"/><text fill="#000000" font-family="sans-serif" font-size="13" lengthAdjust="spacing" textLength="138.7534" x="617" y="202.042">Enable non-blocking I/O</text></g><!--link R1 to F2--><g id="link_R1_F2"><path codeLine="43" d="M749.43,134.1937 C614.85,152.7837 367,187.0137 367,187.0137 C367,187.0137 367,206.0137 367,206.0137 C367,206.0137 744.7229,269.4598 845.8729,286.4498 " fill="none" id="R1-to-F2" style="stroke:#181818;stroke-width:1.0;"/><polygon fill="#181818" points="851.79,287.4437,843.5769,282.0081,846.8591,286.6154,842.2517,289.8976,851.79,287.4437" style="stroke:#181818;stroke-width:1.0;"/><text fill="#000000" font-family="sans-serif" font-size="13" lengthAdjust="spacing" textLength="143.7744" x="368" y="202.042">Wait for coroutine results</text></g><!--link R2 to F4--><g id="link_R2_F4"><path codeLine="44" d="M1180.96,155.1437 C1157.89,171.1437 1135,187.0137 1135,187.0137 C1135,187.0137 1135,206.0137 1135,206.0137 C1135,206.0137 1138.7099,228.6726 1142.6599,252.7826 " fill="none" id="R2-to-F4" style="stroke:#181818;stroke-width:1.0;"/><polygon fill="#181818" points="1143.63,258.7037,1146.1223,249.1754,1142.8216,253.7695,1138.2275,250.4688,1143.63,258.7037" style="stroke:#181818;stroke-width:1.0;"/><text fill="#000000" font-family="sans-serif" font-size="13" lengthAdjust="spacing" textLength="148.8589" x="1136" y="202.042">Manage coroutine lifetime</text></g><!--link R3 to F1--><g id="link_R3_F1"><path codeLine="45" d="M977.14,155.0537 C955.57,167.6137 936,179.0137 936,179.0137 C936,179.0137 764,187.0137 764,187.0137 C764,187.0137 764,206.0137 764,206.0137 C764,206.0137 918,214.0137 918,214.0137 C918,214.0137 928.1287,232.2773 939.8487,253.3973 " fill="none" id="R3-to-F1" style="stroke:#181818;stroke-width:1.0;"/><polygon fill="#181818" points="942.76,258.6437,941.8906,248.8333,940.3339,254.2717,934.8954,252.715,942.76,258.6437" style="stroke:#181818;stroke-width:1.0;"/><text fill="#000000" font-family="sans-serif" font-size="13" lengthAdjust="spacing" textLength="179.2261" x="765" y="202.042">Launch functions as coroutines</text></g><!--link R3 to F3--><g id="link_R3_F3"><path codeLine="46" d="M992.53,155.1437 C972.69,171.1437 953,187.0137 953,187.0137 C953,187.0137 953,206.0137 953,206.0137 C953,206.0137 1005,214.0137 1005,214.0137 C1005,214.0137 1016.9165,232.4823 1030.5465,253.6023 " fill="none" id="R3-to-F3" style="stroke:#181818;stroke-width:1.0;"/><polygon fill="#181818" points="1033.8,258.6437,1032.2807,248.9127,1031.0888,254.4426,1025.5589,253.2507,1033.8,258.6437" style="stroke:#181818;stroke-width:1.0;"/><text fill="#000000" font-family="sans-serif" font-size="13" lengthAdjust="spacing" textLength="140.9116" x="954" y="202.042">Suspend/resume control</text></g><!--link R4 to F6--><g id="link_R4_F6"><path codeLine="47" d="M1649.81,155.1437 C1662.96,171.1437 1676,187.0137 1676,187.0137 C1676,187.0137 1676,206.0137 1676,206.0137 C1676,206.0137 1664.3266,229.2338 1652.1966,253.3438 " fill="none" id="R4-to-F6" style="stroke:#181818;stroke-width:1.0;"/><polygon fill="#181818" points="1649.5,258.7037,1657.1182,252.4616,1651.7472,254.2371,1649.9717,248.8661,1649.5,258.7037" style="stroke:#181818;stroke-width:1.0;"/><text fill="#000000" font-family="sans-serif" font-size="13" lengthAdjust="spacing" textLength="121.3989" x="1677" y="202.042">Cancel running tasks</text></g><!--link R4 to F9--><g id="link_R4_F9"><path codeLine="48" d="M1673.1,155.0537 C1692.44,167.6137 1710,179.0137 1710,179.0137 C1710,179.0137 1927,187.0137 1927,187.0137 C1927,187.0137 1965.5082,223.9421 1997.4782,254.5821 " fill="none" id="R4-to-F9" style="stroke:#181818;stroke-width:1.0;"/><polygon fill="#181818" points="2001.81,258.7337,1998.08,249.6184,1998.2002,255.274,1992.5446,255.3942,2001.81,258.7337" style="stroke:#181818;stroke-width:1.0;"/><text fill="#000000" font-family="sans-serif" font-size="13" lengthAdjust="spacing" textLength="128.6479" x="1946" y="202.042">Unhandled exceptions</text></g><!--link R4 to F8--><g id="link_R4_F8"><path codeLine="49" d="M1673.1,155.0537 C1692.44,167.6137 1710,179.0137 1710,179.0137 C1710,179.0137 1807,187.0137 1807,187.0137 C1807,187.0137 1815.0864,222.246 1822.1264,252.886 " fill="none" id="R4-to-F8" style="stroke:#181818;stroke-width:1.0;"/><polygon fill="#181818" points="1823.47,258.7337,1825.353,249.0665,1822.3503,253.8606,1817.5562,250.8579,1823.47,258.7337" style="stroke:#181818;stroke-width:1.0;"/><text fill="#000000" font-family="sans-serif" font-size="13" lengthAdjust="spacing" textLength="106.958" x="1812" y="202.042">Handle exceptions</text></g><!--link R5 to F5--><g id="link_R5_F5"><path codeLine="50" d="M1852.41,155.0537 C1872.64,167.6137 1891,179.0137 1891,179.0137 C1891,179.0137 2157,187.0137 2157,187.0137 C2157,187.0137 2160.3588,222.1209 2163.2888,252.7609 " fill="none" id="R5-to-F5" style="stroke:#181818;stroke-width:1.0;"/><polygon fill="#181818" points="2163.86,258.7337,2166.9851,249.3938,2163.384,253.7564,2159.0214,250.1553,2163.86,258.7337" style="stroke:#181818;stroke-width:1.0;"/><text fill="#000000" font-family="sans-serif" font-size="13" lengthAdjust="spacing" textLength="150.3062" x="2159" y="202.042">Associate data with scope</text></g><!--link R6 to F7--><g id="link_R6_F7"><path codeLine="51" d="M1375.36,155.1437 C1348.07,171.1437 1321,187.0137 1321,187.0137 C1321,187.0137 1319.6609,222.0981 1318.4809,252.7381 " fill="none" id="R6-to-F7" style="stroke:#181818;stroke-width:1.0;"/><polygon fill="#181818" points="1318.25,258.7337,1322.5934,249.8943,1318.4424,253.7374,1314.5993,249.5864,1318.25,258.7337" style="stroke:#181818;stroke-width:1.0;"/><text fill="#000000" font-family="sans-serif" font-size="13" lengthAdjust="spacing" textLength="139.458" x="1322" y="202.042">Group tasks into scopes</text></g><!--link R6 to F11--><g id="link_R6_F11"><path codeLine="52" d="M1450.73,155.1437 C1460.4,171.1437 1470,187.0137 1470,187.0137 C1470,187.0137 1479.7961,222.312 1488.2961,252.952 " fill="none" id="R6-to-F11" style="stroke:#181818;stroke-width:1.0;"/><polygon fill="#181818" points="1489.9,258.7337,1491.3486,248.9919,1488.5634,253.9156,1483.6397,251.1305,1489.9,258.7337" style="stroke:#181818;stroke-width:1.0;"/><text fill="#000000" font-family="sans-serif" font-size="13" lengthAdjust="spacing" textLength="164.728" x="1475" y="202.042">Group tasks with TaskGroup</text></g><!--link R7 to F10--><g id="link_R7_F10"><path codeLine="53" d="M2014.14,131.3437 C2120.4,149.0137 2349,187.0137 2349,187.0137 C2349,187.0137 2349,206.0137 2349,206.0137 C2349,206.0137 2334.7373,229.467 2320.0773,253.577 " fill="none" id="R7-to-F10" style="stroke:#181818;stroke-width:1.0;"/><polygon fill="#181818" points="2316.96,258.7037,2325.0537,253.0918,2319.5577,254.4314,2318.2181,248.9355,2316.96,258.7037" style="stroke:#181818;stroke-width:1.0;"/><text fill="#000000" font-family="sans-serif" font-size="13" lengthAdjust="spacing" textLength="187.1606" x="2350" y="202.042">Introduce zombie coroutine logic</text></g><!--link F1 to A1--><g id="link_F1_A1"><path codeLine="56" d="M936.24,326.0537 C926.68,338.6137 918,350.0137 918,350.0137 C918,350.0137 567,358.0137 567,358.0137 C567,358.0137 567,377.0137 567,377.0137 C567,377.0137 622.6733,407.1377 668.8633,432.1377 " fill="none" id="F1-to-A1" style="stroke:#181818;stroke-width:1.0;"/><polygon fill="#181818" points="674.14,434.9937,668.1289,427.1919,669.7428,432.6137,664.321,434.2275,674.14,434.9937" style="stroke:#181818;stroke-width:1.0;"/><text fill="#000000" font-family="sans-serif" font-size="13" lengthAdjust="spacing" textLength="188.6206" x="568" y="373.042">Launch coroutines via Scheduler</text></g><!--link F1 to A2--><g id="link_F1_A2"><path codeLine="57" d="M936.24,326.0537 C926.68,338.6137 918,350.0137 918,350.0137 C918,350.0137 765,358.0137 765,358.0137 C765,358.0137 765,377.0137 765,377.0137 C765,377.0137 793,385.0137 793,385.0137 C793,385.0137 815.9539,404.778 840.5439,425.958 " fill="none" id="F1-to-A2" style="stroke:#181818;stroke-width:1.0;"/><polygon fill="#181818" points="845.09,429.8737,840.8813,420.9694,841.3016,426.6106,835.6603,427.0309,845.09,429.8737" style="stroke:#181818;stroke-width:1.0;"/><text fill="#000000" font-family="sans-serif" font-size="13" lengthAdjust="spacing" textLength="166.1816" x="766" y="373.042">Non-blocking I/O via Reactor</text></g><!--link F2 to A1--><g id="link_F2_A1"><path codeLine="58" d="M851.87,296.2437 C743.38,308.5237 306,358.0137 306,358.0137 C306,358.0137 306,377.0137 306,377.0137 C306,377.0137 557.1411,428.2641 668.5811,451.0041 " fill="none" id="F2-to-A1" style="stroke:#181818;stroke-width:1.0;"/><polygon fill="#181818" points="674.46,452.2037,666.4415,446.485,669.561,451.204,664.842,454.3235,674.46,452.2037" style="stroke:#181818;stroke-width:1.0;"/><text fill="#000000" font-family="sans-serif" font-size="13" lengthAdjust="spacing" textLength="155.3589" x="307" y="373.042">Await coroutine completion</text></g><!--link F3 to A3--><g id="link_F3_A3"><path codeLine="59" d="M1026.2,326.0537 C1015.09,338.6137 1005,350.0137 1005,350.0137 C1005,350.0137 941,358.0137 941,358.0137 C941,358.0137 941,377.0137 941,377.0137 C941,377.0137 973,385.0137 973,385.0137 C973,385.0137 997.6611,404.9251 1023.9011,426.1051 " fill="none" id="F3-to-A3" style="stroke:#181818;stroke-width:1.0;"/><polygon fill="#181818" points="1028.57,429.8737,1024.0791,421.1083,1024.6793,426.7332,1019.0544,427.3334,1028.57,429.8737" style="stroke:#181818;stroke-width:1.0;"/><text fill="#000000" font-family="sans-serif" font-size="13" lengthAdjust="spacing" textLength="164.7725" x="942" y="373.042">Suspend control in coroutine</text></g><!--link F4 to A4--><g id="link_F4_A4"><path codeLine="60" d="M1145.96,326.1437 C1144.48,342.1437 1143,358.0137 1143,358.0137 C1143,358.0137 1143,377.0137 1143,377.0137 C1143,377.0137 1166,385.0137 1166,385.0137 C1166,385.0137 1184.5773,404.2122 1205.0173,425.3322 " fill="none" id="F4-to-A4" style="stroke:#181818;stroke-width:1.0;"/><polygon fill="#181818" points="1209.19,429.6437,1205.8053,420.3947,1205.7128,426.0508,1200.0567,425.9582,1209.19,429.6437" style="stroke:#181818;stroke-width:1.0;"/><text fill="#000000" font-family="sans-serif" font-size="13" lengthAdjust="spacing" textLength="141.6162" x="1144" y="373.042">Control Scope Hierarchy</text></g><!--link F5 to A5--><g id="link_F5_A5"><path codeLine="61" d="M2194.64,326.0537 C2205.31,338.6137 2215,350.0137 2215,350.0137 C2215,350.0137 2225,358.0137 2225,358.0137 C2225,358.0137 2225,377.0137 2225,377.0137 C2225,377.0137 1700,385.0137 1700,385.0137 C1700,385.0137 1678.9306,404.4559 1656.0306,425.5759 " fill="none" id="F5-to-A5" style="stroke:#181818;stroke-width:1.0;"/><polygon fill="#181818" points="1651.62,429.6437,1660.9477,426.4824,1655.2955,426.2539,1655.524,420.6016,1651.62,429.6437" style="stroke:#181818;stroke-width:1.0;"/><text fill="#000000" font-family="sans-serif" font-size="13" lengthAdjust="spacing" textLength="203.7852" x="2226" y="373.042">Context propagation across scopes</text></g><!--link F6 to A6--><g id="link_F6_A6"><path codeLine="62" d="M1592.88,326.0337 C1563.96,349.4837 1530,377.0137 1530,377.0137 C1530,377.0137 1499,402.0165 1469.05,426.1765 " fill="none" id="F6-to-A6" style="stroke:#181818;stroke-width:1.0;"/><polygon fill="#181818" points="1464.38,429.9437,1473.8964,427.4062,1468.2716,426.8044,1468.8735,421.1796,1464.38,429.9437" style="stroke:#181818;stroke-width:1.0;"/><text fill="#000000" font-family="sans-serif" font-size="13" lengthAdjust="spacing" textLength="192.2388" x="1553" y="373.042">Propagate CancellationException</text></g><!--link F7 to A4--><g id="link_F7_A4"><path codeLine="63" d="M1308.04,326.0337 C1301.58,349.4837 1294,377.0137 1294,377.0137 C1294,377.0137 1279.4519,400.4944 1264.5019,424.6044 " fill="none" id="F7-to-A4" style="stroke:#181818;stroke-width:1.0;"/><polygon fill="#181818" points="1261.34,429.7037,1269.4824,424.1627,1263.9749,425.4543,1262.6834,419.9469,1261.34,429.7037" style="stroke:#181818;stroke-width:1.0;"/><text fill="#000000" font-family="sans-serif" font-size="13" lengthAdjust="spacing" textLength="222.5679" x="1299" y="373.042">Structured concurrency through Scope</text></g><!--link F12 to A4--><g id="link_F12_A4"><path codeLine="64" d="M43.08,316.7737 C51.66,341.4837 64,377.0137 64,377.0137 C64,377.0137 1166,385.0137 1166,385.0137 C1166,385.0137 1184.5773,404.2122 1205.0173,425.3322 " fill="none" id="F12-to-A4" style="stroke:#181818;stroke-width:1.0;"/><polygon fill="#181818" points="1209.19,429.6437,1205.8053,420.3947,1205.7128,426.0508,1200.0567,425.9582,1209.19,429.6437" style="stroke:#181818;stroke-width:1.0;"/><text fill="#000000" font-family="sans-serif" font-size="13" lengthAdjust="spacing" textLength="232.6543" x="65" y="373.042">Structured concurrency with async block</text></g><!--link F8 to A6--><g id="link_F8_A6"><path codeLine="65" d="M1801.01,326.0337 C1779.39,349.4837 1754,377.0137 1754,377.0137 C1754,377.0137 1532,385.0137 1532,385.0137 C1532,385.0137 1503.8745,405.1952 1474.3645,426.3752 " fill="none" id="F8-to-A6" style="stroke:#181818;stroke-width:1.0;"/><polygon fill="#181818" points="1469.49,429.8737,1479.134,427.8755,1473.5521,426.9582,1474.4694,421.3763,1469.49,429.8737" style="stroke:#181818;stroke-width:1.0;"/><text fill="#000000" font-family="sans-serif" font-size="13" lengthAdjust="spacing" textLength="164.0615" x="1771" y="373.042">Handle uncaught exceptions</text></g><!--link F9 to A6--><g id="link_F9_A6"><path codeLine="66" d="M2000.17,326.0337 C1974.33,349.4837 1944,377.0137 1944,377.0137 C1944,377.0137 1532,385.0137 1532,385.0137 C1532,385.0137 1503.8745,405.1952 1474.3645,426.3752 " fill="none" id="F9-to-A6" style="stroke:#181818;stroke-width:1.0;"/><polygon fill="#181818" points="1469.49,429.8737,1479.134,427.8755,1473.5521,426.9582,1474.4694,421.3763,1469.49,429.8737" style="stroke:#181818;stroke-width:1.0;"/><text fill="#000000" font-family="sans-serif" font-size="13" lengthAdjust="spacing" textLength="185.707" x="1964" y="373.042">Graceful shutdown on fatal error</text></g><!--link F10 to A7--><g id="link_F10_A7"><path codeLine="67" d="M2362.4,317.8937 C2411.39,336.1637 2470,358.0137 2470,358.0137 C2470,358.0137 2470,377.0137 2470,377.0137 C2470,377.0137 2068.0417,428.304 1888.7817,451.184 " fill="none" id="F10-to-A7" style="stroke:#181818;stroke-width:1.0;"/><polygon fill="#181818" points="1882.83,451.9437,1892.264,454.772,1887.7898,451.3106,1891.2511,446.8364,1882.83,451.9437" style="stroke:#181818;stroke-width:1.0;"/><text fill="#000000" font-family="sans-serif" font-size="13" lengthAdjust="spacing" textLength="216.0679" x="2471" y="373.042">Implement zombie coroutine handling</text></g><!--SRC=[XLNVRzCm47xFNt7YXQTfj6Chy80KbMQhDA1gXv1uyznhOosrW-riAsZ_EtTs4gTRWJvKNVpbVFVzkBaxfMjXnGugfT7lQuJQL7l-8yjUmoVSq2_m9S9EA0sra7TYYovhVy2hnTK2Rco3aBkzbh0ifg_WTmRqwI5B_DaeYplKtdM7_5cEu0DyCVhajZAI-jZ2_FGhh9gwDjOdr9XGAsyRwHkBQvWQBHjhKSjzmfmHviOAxMWMkeP0rZIUMdS9yvOmKw4bLfNmocYkvAsf4kAS4VGG7pry5fgQvvxJ-GNV8jmTN5BrcXiMUWqhQMfCe0c1PjOQI-Hvb7nJE7pA3bafKF101umKp0ZDyA3J8nvVF0YL-YXuMjUu6lKwFUJn3bif1lEaXnVFQSWNytGw-IlPBuGftlMJBgofnJQMOqgkw8iij4tOzuIzj4BYfgbWLJP-ROP3ZjxG-G-pkrLuJBjYD6gf3ymVvJEtibHCU6D51TDIwEqXkVaeC5JYkgdG7eoTCybB5DBJCASmksSFNHjJ9yHPuBBjx9Wxybu0k59e1RMJ39eFhJNN9LhbMOC4kEZ93EGXzq6CexrNhhDG04wEC0KBKwas3q_Pqo2v5gFAhbIrWuqrEnZ64Ro1peWPvV7av6CquKoBsmf1FqjdZs72lfCfOKCToxuFAjDKdagD8umvYLmDG9NQe5Sxp2Ys_ONNej6oX0rzXtv1kFIAww4imofQ_vGlst7X66CAU80aWuDjjEREFJd7zG3suZTT1fhNW8yIwt1b3s1ZHnKEJi_ZAKkPEsUa4XvXBRo01-LBS25yj2G2QX8CJsQDbuFIH7M0k1uJN3q4XJh9vhHB8exJCUSfrur4-1NL7n1gjah-M_HEP1RyQ5Ao8YgR3yH8_CEz4YaxFNPyR84pjCrILenJqPoNsA1hQNPrXM4_5b7TVA1k9oiHbzx9YgXGo5gxlbzaheWw7KIk7YueQOrpdHP5r2BahrjZUB0WPvq5icAIRXyiIJbOahwaLhTbkucBqVY_RmJDHVZd6MZCo7vzHwqBIGr1LVtGZcJZ7jPlLjTkLg0vD-JC2f1tIiOM2cYsvPnvv_Y_T5BPBUu_]--></g></svg>