<svg xmlns="http://www.w3.org/2000/svg" xmlns:xlink="http://www.w3.org/1999/xlink" contentStyleType="text/css" height="544px" preserveAspectRatio="none" style="width:3025px;height:544px;background:#FFFFFF;" version="1.1" viewBox="0 0 3025 544" width="3025px" zoomAndPan="magnify"><defs/><g><!--cluster PHP True Async RFC--><g id="cluster_PHP True Async RFC"><path d="M8.5,6.0137 L151.0859,6.0137 A3.75,3.75 0 0 1 153.5859,8.5137 L160.5859,30.6348 L3015.5,30.6348 A2.5,2.5 0 0 1 3018,33.1348 L3018,534.5137 A2.5,2.5 0 0 1 3015.5,537.0137 L8.5,537.0137 A2.5,2.5 0 0 1 6,534.5137 L6,8.5137 A2.5,2.5 0 0 1 8.5,6.0137 " fill="none" style="stroke:#000000;stroke-width:1.5;"/><line style="stroke:#000000;stroke-width:1.5;" x1="6" x2="160.5859" y1="30.6348" y2="30.6348"/><text fill="#000000" font-family="sans-serif" font-size="14" font-weight="bold" lengthAdjust="spacing" textLength="141.5859" x="10" y="23.1211">PHP True Async RFC</text></g><!--cluster Requirements--><g id="cluster_Requirements"><path d="M504.5,51.0137 L598.8584,51.0137 A3.75,3.75 0 0 1 601.3584,53.5137 L608.3584,75.6348 L1977.5,75.6348 A2.5,2.5 0 0 1 1980,78.1348 L1980,168.5137 A2.5,2.5 0 0 1 1977.5,171.0137 L504.5,171.0137 A2.5,2.5 0 0 1 502,168.5137 L502,53.5137 A2.5,2.5 0 0 1 504.5,51.0137 " fill="none" style="stroke:#000000;stroke-width:1.5;"/><line style="stroke:#000000;stroke-width:1.5;" x1="502" x2="608.3584" y1="75.6348" y2="75.6348"/><text fill="#000000" font-family="sans-serif" font-size="14" font-weight="bold" lengthAdjust="spacing" textLength="93.3584" x="506" y="68.1211">Requirements</text></g><!--cluster Features--><g id="cluster_Features"><path d="M583.5,222.0137 L642.8584,222.0137 A3.75,3.75 0 0 1 645.3584,224.5137 L652.3584,246.6348 L2333.5,246.6348 A2.5,2.5 0 0 1 2336,249.1348 L2336,339.5137 A2.5,2.5 0 0 1 2333.5,342.0137 L583.5,342.0137 A2.5,2.5 0 0 1 581,339.5137 L581,224.5137 A2.5,2.5 0 0 1 583.5,222.0137 " fill="none" style="stroke:#000000;stroke-width:1.5;"/><line style="stroke:#000000;stroke-width:1.5;" x1="581" x2="652.3584" y1="246.6348" y2="246.6348"/><text fill="#000000" font-family="sans-serif" font-size="14" font-weight="bold" lengthAdjust="spacing" textLength="58.3584" x="585" y="239.1211">Features</text></g><!--cluster Architectural Changes--><g id="cluster_Architectural Changes"><path d="M746.5,393.0137 L896.8721,393.0137 A3.75,3.75 0 0 1 899.3721,395.5137 L906.3721,417.6348 L1983.5,417.6348 A2.5,2.5 0 0 1 1986,420.1348 L1986,510.5137 A2.5,2.5 0 0 1 1983.5,513.0137 L746.5,513.0137 A2.5,2.5 0 0 1 744,510.5137 L744,395.5137 A2.5,2.5 0 0 1 746.5,393.0137 " fill="none" style="stroke:#000000;stroke-width:1.5;"/><line style="stroke:#000000;stroke-width:1.5;" x1="744" x2="906.3721" y1="417.6348" y2="417.6348"/><text fill="#000000" font-family="sans-serif" font-size="14" font-weight="bold" lengthAdjust="spacing" textLength="149.3721" x="748" y="410.1211">Architectural Changes</text></g><!--class R1--><g id="elem_R1"><rect fill="#F1F1F1" height="66.6211" id="R1" rx="2.5" ry="2.5" style="stroke:#181818;stroke-width:0.5;" width="169.1924" x="518.5" y="88.0137"/><ellipse cx="589.8979" cy="104.0137" fill="#ADD1B2" rx="11" ry="11" style="stroke:#181818;stroke-width:1.0;"/><path d="M592.6636,99.8887 Q592.8198,99.6699 593.0073,99.5605 Q593.1948,99.4512 593.4136,99.4512 Q593.7886,99.4512 594.0229,99.7168 Q594.2573,99.9668 594.2573,100.5762 L594.2573,102.0293 Q594.2573,102.6387 594.0229,102.9043 Q593.7886,103.1699 593.4136,103.1699 Q593.0698,103.1699 592.8667,102.9668 Q592.6636,102.7793 592.5542,102.2637 Q592.5073,101.9043 592.3198,101.7168 Q591.9917,101.3418 591.3823,101.123 Q590.7729,100.9043 590.1479,100.9043 Q589.3823,100.9043 588.7417,101.2324 Q588.1167,101.5605 587.6167,102.3105 Q587.1323,103.0605 587.1323,104.0918 L587.1323,105.1855 Q587.1323,106.4199 588.0229,107.248 Q588.9136,108.0605 590.5073,108.0605 Q591.4448,108.0605 592.1011,107.8105 Q592.4917,107.6543 592.9136,107.2168 Q593.1792,106.9512 593.3198,106.873 Q593.4761,106.7949 593.6792,106.7949 Q594.0073,106.7949 594.2573,107.0605 Q594.5229,107.3105 594.5229,107.6543 Q594.5229,107.998 594.1792,108.4043 Q593.6792,108.9824 592.8823,109.3105 Q591.8042,109.7637 590.5073,109.7637 Q588.9917,109.7637 587.7886,109.1387 Q586.8042,108.6387 586.1167,107.5762 Q585.4292,106.498 585.4292,105.2168 L585.4292,104.0605 Q585.4292,102.7324 586.0386,101.5918 Q586.6636,100.4355 587.7573,99.8262 Q588.8511,99.2012 590.0854,99.2012 Q590.8198,99.2012 591.4604,99.373 Q592.1167,99.5293 592.6636,99.8887 Z " fill="#000000"/><text fill="#000000" font-family="sans-serif" font-size="14" lengthAdjust="spacing" textLength="17.8965" x="610.3979" y="109.8105">R1</text><line style="stroke:#181818;stroke-width:0.5;" x1="519.5" x2="686.6924" y1="120.0137" y2="120.0137"/><text fill="#000000" font-family="sans-serif" font-size="14" lengthAdjust="spacing" textLength="157.1924" x="524.5" y="139.1211">Non-blocking I/O Support</text><line style="stroke:#181818;stroke-width:0.5;" x1="519.5" x2="686.6924" y1="146.6348" y2="146.6348"/></g><!--class R2--><g id="elem_R2"><rect fill="#F1F1F1" height="66.6211" id="R2" rx="2.5" ry="2.5" style="stroke:#181818;stroke-width:0.5;" width="159.8408" x="1334" y="88.0137"/><ellipse cx="1400.7222" cy="104.0137" fill="#ADD1B2" rx="11" ry="11" style="stroke:#181818;stroke-width:1.0;"/><path d="M1403.4878,99.8887 Q1403.644,99.6699 1403.8315,99.5605 Q1404.019,99.4512 1404.2378,99.4512 Q1404.6128,99.4512 1404.8472,99.7168 Q1405.0815,99.9668 1405.0815,100.5762 L1405.0815,102.0293 Q1405.0815,102.6387 1404.8472,102.9043 Q1404.6128,103.1699 1404.2378,103.1699 Q1403.894,103.1699 1403.6909,102.9668 Q1403.4878,102.7793 1403.3784,102.2637 Q1403.3315,101.9043 1403.144,101.7168 Q1402.8159,101.3418 1402.2065,101.123 Q1401.5972,100.9043 1400.9722,100.9043 Q1400.2065,100.9043 1399.5659,101.2324 Q1398.9409,101.5605 1398.4409,102.3105 Q1397.9565,103.0605 1397.9565,104.0918 L1397.9565,105.1855 Q1397.9565,106.4199 1398.8472,107.248 Q1399.7378,108.0605 1401.3315,108.0605 Q1402.269,108.0605 1402.9253,107.8105 Q1403.3159,107.6543 1403.7378,107.2168 Q1404.0034,106.9512 1404.144,106.873 Q1404.3003,106.7949 1404.5034,106.7949 Q1404.8315,106.7949 1405.0815,107.0605 Q1405.3472,107.3105 1405.3472,107.6543 Q1405.3472,107.998 1405.0034,108.4043 Q1404.5034,108.9824 1403.7065,109.3105 Q1402.6284,109.7637 1401.3315,109.7637 Q1399.8159,109.7637 1398.6128,109.1387 Q1397.6284,108.6387 1396.9409,107.5762 Q1396.2534,106.498 1396.2534,105.2168 L1396.2534,104.0605 Q1396.2534,102.7324 1396.8628,101.5918 Q1397.4878,100.4355 1398.5815,99.8262 Q1399.6753,99.2012 1400.9097,99.2012 Q1401.644,99.2012 1402.2847,99.373 Q1402.9409,99.5293 1403.4878,99.8887 Z " fill="#000000"/><text fill="#000000" font-family="sans-serif" font-size="14" lengthAdjust="spacing" textLength="17.8965" x="1421.2222" y="109.8105">R2</text><line style="stroke:#181818;stroke-width:0.5;" x1="1335" x2="1492.8408" y1="120.0137" y2="120.0137"/><text fill="#000000" font-family="sans-serif" font-size="14" lengthAdjust="spacing" textLength="147.8408" x="1340" y="139.1211">Structured Concurrency</text><line style="stroke:#181818;stroke-width:0.5;" x1="1335" x2="1492.8408" y1="146.6348" y2="146.6348"/></g><!--class R3--><g id="elem_R3"><rect fill="#F1F1F1" height="66.6211" id="R3" rx="2.5" ry="2.5" style="stroke:#181818;stroke-width:0.5;" width="159.0752" x="958.5" y="88.0137"/><ellipse cx="1024.8394" cy="104.0137" fill="#ADD1B2" rx="11" ry="11" style="stroke:#181818;stroke-width:1.0;"/><path d="M1027.605,99.8887 Q1027.7612,99.6699 1027.9487,99.5605 Q1028.1362,99.4512 1028.355,99.4512 Q1028.73,99.4512 1028.9644,99.7168 Q1029.1987,99.9668 1029.1987,100.5762 L1029.1987,102.0293 Q1029.1987,102.6387 1028.9644,102.9043 Q1028.73,103.1699 1028.355,103.1699 Q1028.0112,103.1699 1027.8081,102.9668 Q1027.605,102.7793 1027.4956,102.2637 Q1027.4487,101.9043 1027.2612,101.7168 Q1026.9331,101.3418 1026.3237,101.123 Q1025.7144,100.9043 1025.0894,100.9043 Q1024.3237,100.9043 1023.6831,101.2324 Q1023.0581,101.5605 1022.5581,102.3105 Q1022.0737,103.0605 1022.0737,104.0918 L1022.0737,105.1855 Q1022.0737,106.4199 1022.9644,107.248 Q1023.855,108.0605 1025.4487,108.0605 Q1026.3862,108.0605 1027.0425,107.8105 Q1027.4331,107.6543 1027.855,107.2168 Q1028.1206,106.9512 1028.2612,106.873 Q1028.4175,106.7949 1028.6206,106.7949 Q1028.9487,106.7949 1029.1987,107.0605 Q1029.4644,107.3105 1029.4644,107.6543 Q1029.4644,107.998 1029.1206,108.4043 Q1028.6206,108.9824 1027.8237,109.3105 Q1026.7456,109.7637 1025.4487,109.7637 Q1023.9331,109.7637 1022.73,109.1387 Q1021.7456,108.6387 1021.0581,107.5762 Q1020.3706,106.498 1020.3706,105.2168 L1020.3706,104.0605 Q1020.3706,102.7324 1020.98,101.5918 Q1021.605,100.4355 1022.6987,99.8262 Q1023.7925,99.2012 1025.0269,99.2012 Q1025.7612,99.2012 1026.4019,99.373 Q1027.0581,99.5293 1027.605,99.8887 Z " fill="#000000"/><text fill="#000000" font-family="sans-serif" font-size="14" lengthAdjust="spacing" textLength="17.8965" x="1045.3394" y="109.8105">R3</text><line style="stroke:#181818;stroke-width:0.5;" x1="959.5" x2="1116.5752" y1="120.0137" y2="120.0137"/><text fill="#000000" font-family="sans-serif" font-size="14" lengthAdjust="spacing" textLength="147.0752" x="964.5" y="139.1211">Transparent Coroutines</text><line style="stroke:#181818;stroke-width:0.5;" x1="959.5" x2="1116.5752" y1="146.6348" y2="146.6348"/></g><!--class R4--><g id="elem_R4"><rect fill="#F1F1F1" height="66.6211" id="R4" rx="2.5" ry="2.5" style="stroke:#181818;stroke-width:0.5;" width="200.3164" x="723" y="88.0137"/><ellipse cx="809.96" cy="104.0137" fill="#ADD1B2" rx="11" ry="11" style="stroke:#181818;stroke-width:1.0;"/><path d="M812.7256,99.8887 Q812.8818,99.6699 813.0693,99.5605 Q813.2568,99.4512 813.4756,99.4512 Q813.8506,99.4512 814.085,99.7168 Q814.3193,99.9668 814.3193,100.5762 L814.3193,102.0293 Q814.3193,102.6387 814.085,102.9043 Q813.8506,103.1699 813.4756,103.1699 Q813.1318,103.1699 812.9287,102.9668 Q812.7256,102.7793 812.6162,102.2637 Q812.5693,101.9043 812.3818,101.7168 Q812.0537,101.3418 811.4443,101.123 Q810.835,100.9043 810.21,100.9043 Q809.4443,100.9043 808.8037,101.2324 Q808.1787,101.5605 807.6787,102.3105 Q807.1943,103.0605 807.1943,104.0918 L807.1943,105.1855 Q807.1943,106.4199 808.085,107.248 Q808.9756,108.0605 810.5693,108.0605 Q811.5068,108.0605 812.1631,107.8105 Q812.5537,107.6543 812.9756,107.2168 Q813.2412,106.9512 813.3818,106.873 Q813.5381,106.7949 813.7412,106.7949 Q814.0693,106.7949 814.3193,107.0605 Q814.585,107.3105 814.585,107.6543 Q814.585,107.998 814.2412,108.4043 Q813.7412,108.9824 812.9443,109.3105 Q811.8662,109.7637 810.5693,109.7637 Q809.0537,109.7637 807.8506,109.1387 Q806.8662,108.6387 806.1787,107.5762 Q805.4912,106.498 805.4912,105.2168 L805.4912,104.0605 Q805.4912,102.7324 806.1006,101.5918 Q806.7256,100.4355 807.8193,99.8262 Q808.9131,99.2012 810.1475,99.2012 Q810.8818,99.2012 811.5225,99.373 Q812.1787,99.5293 812.7256,99.8887 Z " fill="#000000"/><text fill="#000000" font-family="sans-serif" font-size="14" lengthAdjust="spacing" textLength="17.8965" x="830.46" y="109.8105">R4</text><line style="stroke:#181818;stroke-width:0.5;" x1="724" x2="922.3164" y1="120.0137" y2="120.0137"/><text fill="#000000" font-family="sans-serif" font-size="14" lengthAdjust="spacing" textLength="188.3164" x="729" y="139.1211">Error and Cancellation Control</text><line style="stroke:#181818;stroke-width:0.5;" x1="724" x2="922.3164" y1="146.6348" y2="146.6348"/></g><!--class R5--><g id="elem_R5"><rect fill="#F1F1F1" height="66.6211" id="R5" rx="2.5" ry="2.5" style="stroke:#181818;stroke-width:0.5;" width="145.8545" x="1153" y="88.0137"/><ellipse cx="1212.729" cy="104.0137" fill="#ADD1B2" rx="11" ry="11" style="stroke:#181818;stroke-width:1.0;"/><path d="M1215.4946,99.8887 Q1215.6509,99.6699 1215.8384,99.5605 Q1216.0259,99.4512 1216.2446,99.4512 Q1216.6196,99.4512 1216.854,99.7168 Q1217.0884,99.9668 1217.0884,100.5762 L1217.0884,102.0293 Q1217.0884,102.6387 1216.854,102.9043 Q1216.6196,103.1699 1216.2446,103.1699 Q1215.9009,103.1699 1215.6978,102.9668 Q1215.4946,102.7793 1215.3853,102.2637 Q1215.3384,101.9043 1215.1509,101.7168 Q1214.8228,101.3418 1214.2134,101.123 Q1213.604,100.9043 1212.979,100.9043 Q1212.2134,100.9043 1211.5728,101.2324 Q1210.9478,101.5605 1210.4478,102.3105 Q1209.9634,103.0605 1209.9634,104.0918 L1209.9634,105.1855 Q1209.9634,106.4199 1210.854,107.248 Q1211.7446,108.0605 1213.3384,108.0605 Q1214.2759,108.0605 1214.9321,107.8105 Q1215.3228,107.6543 1215.7446,107.2168 Q1216.0103,106.9512 1216.1509,106.873 Q1216.3071,106.7949 1216.5103,106.7949 Q1216.8384,106.7949 1217.0884,107.0605 Q1217.354,107.3105 1217.354,107.6543 Q1217.354,107.998 1217.0103,108.4043 Q1216.5103,108.9824 1215.7134,109.3105 Q1214.6353,109.7637 1213.3384,109.7637 Q1211.8228,109.7637 1210.6196,109.1387 Q1209.6353,108.6387 1208.9478,107.5762 Q1208.2603,106.498 1208.2603,105.2168 L1208.2603,104.0605 Q1208.2603,102.7324 1208.8696,101.5918 Q1209.4946,100.4355 1210.5884,99.8262 Q1211.6821,99.2012 1212.9165,99.2012 Q1213.6509,99.2012 1214.2915,99.373 Q1214.9478,99.5293 1215.4946,99.8887 Z " fill="#000000"/><text fill="#000000" font-family="sans-serif" font-size="14" lengthAdjust="spacing" textLength="17.8965" x="1233.229" y="109.8105">R5</text><line style="stroke:#181818;stroke-width:0.5;" x1="1154" x2="1297.8545" y1="120.0137" y2="120.0137"/><text fill="#000000" font-family="sans-serif" font-size="14" lengthAdjust="spacing" textLength="133.8545" x="1159" y="139.1211">Context Management</text><line style="stroke:#181818;stroke-width:0.5;" x1="1154" x2="1297.8545" y1="146.6348" y2="146.6348"/></g><!--class R6--><g id="elem_R6"><rect fill="#F1F1F1" height="66.6211" id="R6" rx="2.5" ry="2.5" style="stroke:#181818;stroke-width:0.5;" width="174.6543" x="1529.5" y="88.0137"/><ellipse cx="1603.6289" cy="104.0137" fill="#ADD1B2" rx="11" ry="11" style="stroke:#181818;stroke-width:1.0;"/><path d="M1606.3945,99.8887 Q1606.5508,99.6699 1606.7383,99.5605 Q1606.9258,99.4512 1607.1445,99.4512 Q1607.5195,99.4512 1607.7539,99.7168 Q1607.9883,99.9668 1607.9883,100.5762 L1607.9883,102.0293 Q1607.9883,102.6387 1607.7539,102.9043 Q1607.5195,103.1699 1607.1445,103.1699 Q1606.8008,103.1699 1606.5977,102.9668 Q1606.3945,102.7793 1606.2852,102.2637 Q1606.2383,101.9043 1606.0508,101.7168 Q1605.7227,101.3418 1605.1133,101.123 Q1604.5039,100.9043 1603.8789,100.9043 Q1603.1133,100.9043 1602.4727,101.2324 Q1601.8477,101.5605 1601.3477,102.3105 Q1600.8633,103.0605 1600.8633,104.0918 L1600.8633,105.1855 Q1600.8633,106.4199 1601.7539,107.248 Q1602.6445,108.0605 1604.2383,108.0605 Q1605.1758,108.0605 1605.832,107.8105 Q1606.2227,107.6543 1606.6445,107.2168 Q1606.9102,106.9512 1607.0508,106.873 Q1607.207,106.7949 1607.4102,106.7949 Q1607.7383,106.7949 1607.9883,107.0605 Q1608.2539,107.3105 1608.2539,107.6543 Q1608.2539,107.998 1607.9102,108.4043 Q1607.4102,108.9824 1606.6133,109.3105 Q1605.5352,109.7637 1604.2383,109.7637 Q1602.7227,109.7637 1601.5195,109.1387 Q1600.5352,108.6387 1599.8477,107.5762 Q1599.1602,106.498 1599.1602,105.2168 L1599.1602,104.0605 Q1599.1602,102.7324 1599.7695,101.5918 Q1600.3945,100.4355 1601.4883,99.8262 Q1602.582,99.2012 1603.8164,99.2012 Q1604.5508,99.2012 1605.1914,99.373 Q1605.8477,99.5293 1606.3945,99.8887 Z " fill="#000000"/><text fill="#000000" font-family="sans-serif" font-size="14" lengthAdjust="spacing" textLength="17.8965" x="1624.1289" y="109.8105">R6</text><line style="stroke:#181818;stroke-width:0.5;" x1="1530.5" x2="1703.1543" y1="120.0137" y2="120.0137"/><text fill="#000000" font-family="sans-serif" font-size="14" lengthAdjust="spacing" textLength="162.6543" x="1535.5" y="139.1211">Task Grouping and Scope</text><line style="stroke:#181818;stroke-width:0.5;" x1="1530.5" x2="1703.1543" y1="146.6348" y2="146.6348"/></g><!--class R7--><g id="elem_R7"><rect fill="#F1F1F1" height="66.6211" id="R7" rx="2.5" ry="2.5" style="stroke:#181818;stroke-width:0.5;" width="223.6611" x="1740" y="88.0137"/><ellipse cx="1838.6323" cy="104.0137" fill="#ADD1B2" rx="11" ry="11" style="stroke:#181818;stroke-width:1.0;"/><path d="M1841.3979,99.8887 Q1841.5542,99.6699 1841.7417,99.5605 Q1841.9292,99.4512 1842.1479,99.4512 Q1842.5229,99.4512 1842.7573,99.7168 Q1842.9917,99.9668 1842.9917,100.5762 L1842.9917,102.0293 Q1842.9917,102.6387 1842.7573,102.9043 Q1842.5229,103.1699 1842.1479,103.1699 Q1841.8042,103.1699 1841.6011,102.9668 Q1841.3979,102.7793 1841.2886,102.2637 Q1841.2417,101.9043 1841.0542,101.7168 Q1840.7261,101.3418 1840.1167,101.123 Q1839.5073,100.9043 1838.8823,100.9043 Q1838.1167,100.9043 1837.4761,101.2324 Q1836.8511,101.5605 1836.3511,102.3105 Q1835.8667,103.0605 1835.8667,104.0918 L1835.8667,105.1855 Q1835.8667,106.4199 1836.7573,107.248 Q1837.6479,108.0605 1839.2417,108.0605 Q1840.1792,108.0605 1840.8354,107.8105 Q1841.2261,107.6543 1841.6479,107.2168 Q1841.9136,106.9512 1842.0542,106.873 Q1842.2104,106.7949 1842.4136,106.7949 Q1842.7417,106.7949 1842.9917,107.0605 Q1843.2573,107.3105 1843.2573,107.6543 Q1843.2573,107.998 1842.9136,108.4043 Q1842.4136,108.9824 1841.6167,109.3105 Q1840.5386,109.7637 1839.2417,109.7637 Q1837.7261,109.7637 1836.5229,109.1387 Q1835.5386,108.6387 1834.8511,107.5762 Q1834.1636,106.498 1834.1636,105.2168 L1834.1636,104.0605 Q1834.1636,102.7324 1834.7729,101.5918 Q1835.3979,100.4355 1836.4917,99.8262 Q1837.5854,99.2012 1838.8198,99.2012 Q1839.5542,99.2012 1840.1948,99.373 Q1840.8511,99.5293 1841.3979,99.8887 Z " fill="#000000"/><text fill="#000000" font-family="sans-serif" font-size="14" lengthAdjust="spacing" textLength="17.8965" x="1859.1323" y="109.8105">R7</text><line style="stroke:#181818;stroke-width:0.5;" x1="1741" x2="1962.6611" y1="120.0137" y2="120.0137"/><text fill="#000000" font-family="sans-serif" font-size="14" lengthAdjust="spacing" textLength="211.6611" x="1746" y="139.1211">Control Coroutines Without Scope</text><line style="stroke:#181818;stroke-width:0.5;" x1="1741" x2="1962.6611" y1="146.6348" y2="146.6348"/></g><!--class F1--><g id="elem_F1"><rect fill="#F1F1F1" height="66.6211" id="F1" rx="2.5" ry="2.5" style="stroke:#181818;stroke-width:0.5;" width="52.4688" x="680" y="259.0137"/><ellipse cx="696.8589" cy="275.0137" fill="#ADD1B2" rx="11" ry="11" style="stroke:#181818;stroke-width:1.0;"/><path d="M699.6245,270.8887 Q699.7808,270.6699 699.9683,270.5605 Q700.1558,270.4512 700.3745,270.4512 Q700.7495,270.4512 700.9839,270.7168 Q701.2183,270.9668 701.2183,271.5762 L701.2183,273.0293 Q701.2183,273.6387 700.9839,273.9043 Q700.7495,274.1699 700.3745,274.1699 Q700.0308,274.1699 699.8276,273.9668 Q699.6245,273.7793 699.5151,273.2637 Q699.4683,272.9043 699.2808,272.7168 Q698.9526,272.3418 698.3433,272.123 Q697.7339,271.9043 697.1089,271.9043 Q696.3433,271.9043 695.7026,272.2324 Q695.0776,272.5605 694.5776,273.3105 Q694.0933,274.0605 694.0933,275.0918 L694.0933,276.1855 Q694.0933,277.4199 694.9839,278.248 Q695.8745,279.0605 697.4683,279.0605 Q698.4058,279.0605 699.062,278.8105 Q699.4526,278.6543 699.8745,278.2168 Q700.1401,277.9512 700.2808,277.873 Q700.437,277.7949 700.6401,277.7949 Q700.9683,277.7949 701.2183,278.0605 Q701.4839,278.3105 701.4839,278.6543 Q701.4839,278.998 701.1401,279.4043 Q700.6401,279.9824 699.8433,280.3105 Q698.7651,280.7637 697.4683,280.7637 Q695.9526,280.7637 694.7495,280.1387 Q693.7651,279.6387 693.0776,278.5762 Q692.3901,277.498 692.3901,276.2168 L692.3901,275.0605 Q692.3901,273.7324 692.9995,272.5918 Q693.6245,271.4355 694.7183,270.8262 Q695.812,270.2012 697.0464,270.2012 Q697.7808,270.2012 698.4214,270.373 Q699.0776,270.5293 699.6245,270.8887 Z " fill="#000000"/><text fill="#000000" font-family="sans-serif" font-size="14" lengthAdjust="spacing" textLength="16.3379" x="711.272" y="280.8105">F1</text><line style="stroke:#181818;stroke-width:0.5;" x1="681" x2="731.4688" y1="291.0137" y2="291.0137"/><text fill="#000000" font-family="sans-serif" font-size="14" lengthAdjust="spacing" textLength="40.4688" x="686" y="310.1211">spawn</text><line style="stroke:#181818;stroke-width:0.5;" x1="681" x2="731.4688" y1="317.6348" y2="317.6348"/></g><!--class F2--><g id="elem_F2"><rect fill="#F1F1F1" height="66.6211" id="F2" rx="2.5" ry="2.5" style="stroke:#181818;stroke-width:0.5;" width="48.3379" x="597" y="259.0137"/><ellipse cx="612" cy="275.0137" fill="#ADD1B2" rx="11" ry="11" style="stroke:#181818;stroke-width:1.0;"/><path d="M614.7656,270.8887 Q614.9219,270.6699 615.1094,270.5605 Q615.2969,270.4512 615.5156,270.4512 Q615.8906,270.4512 616.125,270.7168 Q616.3594,270.9668 616.3594,271.5762 L616.3594,273.0293 Q616.3594,273.6387 616.125,273.9043 Q615.8906,274.1699 615.5156,274.1699 Q615.1719,274.1699 614.9688,273.9668 Q614.7656,273.7793 614.6563,273.2637 Q614.6094,272.9043 614.4219,272.7168 Q614.0938,272.3418 613.4844,272.123 Q612.875,271.9043 612.25,271.9043 Q611.4844,271.9043 610.8438,272.2324 Q610.2188,272.5605 609.7188,273.3105 Q609.2344,274.0605 609.2344,275.0918 L609.2344,276.1855 Q609.2344,277.4199 610.125,278.248 Q611.0156,279.0605 612.6094,279.0605 Q613.5469,279.0605 614.2031,278.8105 Q614.5938,278.6543 615.0156,278.2168 Q615.2813,277.9512 615.4219,277.873 Q615.5781,277.7949 615.7813,277.7949 Q616.1094,277.7949 616.3594,278.0605 Q616.625,278.3105 616.625,278.6543 Q616.625,278.998 616.2813,279.4043 Q615.7813,279.9824 614.9844,280.3105 Q613.9063,280.7637 612.6094,280.7637 Q611.0938,280.7637 609.8906,280.1387 Q608.9063,279.6387 608.2188,278.5762 Q607.5313,277.498 607.5313,276.2168 L607.5313,275.0605 Q607.5313,273.7324 608.1406,272.5918 Q608.7656,271.4355 609.8594,270.8262 Q610.9531,270.2012 612.1875,270.2012 Q612.9219,270.2012 613.5625,270.373 Q614.2188,270.5293 614.7656,270.8887 Z " fill="#000000"/><text fill="#000000" font-family="sans-serif" font-size="14" lengthAdjust="spacing" textLength="16.3379" x="626" y="280.8105">F2</text><line style="stroke:#181818;stroke-width:0.5;" x1="598" x2="644.3379" y1="291.0137" y2="291.0137"/><text fill="#000000" font-family="sans-serif" font-size="14" lengthAdjust="spacing" textLength="32.6826" x="603" y="310.1211">await</text><line style="stroke:#181818;stroke-width:0.5;" x1="598" x2="644.3379" y1="317.6348" y2="317.6348"/></g><!--class F3--><g id="elem_F3"><rect fill="#F1F1F1" height="66.6211" id="F3" rx="2.5" ry="2.5" style="stroke:#181818;stroke-width:0.5;" width="64.9307" x="1631.5" y="259.0137"/><ellipse cx="1653.9667" cy="275.0137" fill="#ADD1B2" rx="11" ry="11" style="stroke:#181818;stroke-width:1.0;"/><path d="M1656.7324,270.8887 Q1656.8886,270.6699 1657.0761,270.5605 Q1657.2636,270.4512 1657.4824,270.4512 Q1657.8574,270.4512 1658.0917,270.7168 Q1658.3261,270.9668 1658.3261,271.5762 L1658.3261,273.0293 Q1658.3261,273.6387 1658.0917,273.9043 Q1657.8574,274.1699 1657.4824,274.1699 Q1657.1386,274.1699 1656.9355,273.9668 Q1656.7324,273.7793 1656.623,273.2637 Q1656.5761,272.9043 1656.3886,272.7168 Q1656.0605,272.3418 1655.4511,272.123 Q1654.8417,271.9043 1654.2167,271.9043 Q1653.4511,271.9043 1652.8105,272.2324 Q1652.1855,272.5605 1651.6855,273.3105 Q1651.2011,274.0605 1651.2011,275.0918 L1651.2011,276.1855 Q1651.2011,277.4199 1652.0917,278.248 Q1652.9824,279.0605 1654.5761,279.0605 Q1655.5136,279.0605 1656.1699,278.8105 Q1656.5605,278.6543 1656.9824,278.2168 Q1657.248,277.9512 1657.3886,277.873 Q1657.5449,277.7949 1657.748,277.7949 Q1658.0761,277.7949 1658.3261,278.0605 Q1658.5917,278.3105 1658.5917,278.6543 Q1658.5917,278.998 1658.248,279.4043 Q1657.748,279.9824 1656.9511,280.3105 Q1655.873,280.7637 1654.5761,280.7637 Q1653.0605,280.7637 1651.8574,280.1387 Q1650.873,279.6387 1650.1855,278.5762 Q1649.498,277.498 1649.498,276.2168 L1649.498,275.0605 Q1649.498,273.7324 1650.1074,272.5918 Q1650.7324,271.4355 1651.8261,270.8262 Q1652.9199,270.2012 1654.1542,270.2012 Q1654.8886,270.2012 1655.5292,270.373 Q1656.1855,270.5293 1656.7324,270.8887 Z " fill="#000000"/><text fill="#000000" font-family="sans-serif" font-size="14" lengthAdjust="spacing" textLength="16.3379" x="1669.626" y="280.8105">F3</text><line style="stroke:#181818;stroke-width:0.5;" x1="1632.5" x2="1695.4307" y1="291.0137" y2="291.0137"/><text fill="#000000" font-family="sans-serif" font-size="14" lengthAdjust="spacing" textLength="52.9307" x="1637.5" y="310.1211">suspend</text><line style="stroke:#181818;stroke-width:0.5;" x1="1632.5" x2="1695.4307" y1="317.6348" y2="317.6348"/></g><!--class F4--><g id="elem_F4"><rect fill="#F1F1F1" height="66.6211" id="F4" rx="2.5" ry="2.5" style="stroke:#181818;stroke-width:0.5;" width="51.6963" x="1424" y="259.0137"/><ellipse cx="1440.5113" cy="275.0137" fill="#ADD1B2" rx="11" ry="11" style="stroke:#181818;stroke-width:1.0;"/><path d="M1443.2769,270.8887 Q1443.4332,270.6699 1443.6207,270.5605 Q1443.8082,270.4512 1444.0269,270.4512 Q1444.4019,270.4512 1444.6363,270.7168 Q1444.8707,270.9668 1444.8707,271.5762 L1444.8707,273.0293 Q1444.8707,273.6387 1444.6363,273.9043 Q1444.4019,274.1699 1444.0269,274.1699 Q1443.6832,274.1699 1443.48,273.9668 Q1443.2769,273.7793 1443.1675,273.2637 Q1443.1207,272.9043 1442.9332,272.7168 Q1442.605,272.3418 1441.9957,272.123 Q1441.3863,271.9043 1440.7613,271.9043 Q1439.9957,271.9043 1439.355,272.2324 Q1438.73,272.5605 1438.23,273.3105 Q1437.7457,274.0605 1437.7457,275.0918 L1437.7457,276.1855 Q1437.7457,277.4199 1438.6363,278.248 Q1439.5269,279.0605 1441.1207,279.0605 Q1442.0582,279.0605 1442.7144,278.8105 Q1443.105,278.6543 1443.5269,278.2168 Q1443.7925,277.9512 1443.9332,277.873 Q1444.0894,277.7949 1444.2925,277.7949 Q1444.6207,277.7949 1444.8707,278.0605 Q1445.1363,278.3105 1445.1363,278.6543 Q1445.1363,278.998 1444.7925,279.4043 Q1444.2925,279.9824 1443.4957,280.3105 Q1442.4175,280.7637 1441.1207,280.7637 Q1439.605,280.7637 1438.4019,280.1387 Q1437.4175,279.6387 1436.73,278.5762 Q1436.0425,277.498 1436.0425,276.2168 L1436.0425,275.0605 Q1436.0425,273.7324 1436.6519,272.5918 Q1437.2769,271.4355 1438.3707,270.8262 Q1439.4644,270.2012 1440.6988,270.2012 Q1441.4332,270.2012 1442.0738,270.373 Q1442.73,270.5293 1443.2769,270.8887 Z " fill="#000000"/><text fill="#000000" font-family="sans-serif" font-size="14" lengthAdjust="spacing" textLength="16.3379" x="1454.8471" y="280.8105">F4</text><line style="stroke:#181818;stroke-width:0.5;" x1="1425" x2="1474.6963" y1="291.0137" y2="291.0137"/><text fill="#000000" font-family="sans-serif" font-size="14" lengthAdjust="spacing" textLength="39.6963" x="1430" y="310.1211">Scope</text><line style="stroke:#181818;stroke-width:0.5;" x1="1425" x2="1474.6963" y1="317.6348" y2="317.6348"/></g><!--class F5--><g id="elem_F5"><rect fill="#F1F1F1" height="66.6211" id="F5" rx="2.5" ry="2.5" style="stroke:#181818;stroke-width:0.5;" width="60.248" x="1329" y="259.0137"/><ellipse cx="1349.3596" cy="275.0137" fill="#ADD1B2" rx="11" ry="11" style="stroke:#181818;stroke-width:1.0;"/><path d="M1352.1252,270.8887 Q1352.2814,270.6699 1352.4689,270.5605 Q1352.6564,270.4512 1352.8752,270.4512 Q1353.2502,270.4512 1353.4846,270.7168 Q1353.7189,270.9668 1353.7189,271.5762 L1353.7189,273.0293 Q1353.7189,273.6387 1353.4846,273.9043 Q1353.2502,274.1699 1352.8752,274.1699 Q1352.5314,274.1699 1352.3283,273.9668 Q1352.1252,273.7793 1352.0158,273.2637 Q1351.9689,272.9043 1351.7814,272.7168 Q1351.4533,272.3418 1350.8439,272.123 Q1350.2346,271.9043 1349.6096,271.9043 Q1348.8439,271.9043 1348.2033,272.2324 Q1347.5783,272.5605 1347.0783,273.3105 Q1346.5939,274.0605 1346.5939,275.0918 L1346.5939,276.1855 Q1346.5939,277.4199 1347.4846,278.248 Q1348.3752,279.0605 1349.9689,279.0605 Q1350.9064,279.0605 1351.5627,278.8105 Q1351.9533,278.6543 1352.3752,278.2168 Q1352.6408,277.9512 1352.7814,277.873 Q1352.9377,277.7949 1353.1408,277.7949 Q1353.4689,277.7949 1353.7189,278.0605 Q1353.9846,278.3105 1353.9846,278.6543 Q1353.9846,278.998 1353.6408,279.4043 Q1353.1408,279.9824 1352.3439,280.3105 Q1351.2658,280.7637 1349.9689,280.7637 Q1348.4533,280.7637 1347.2502,280.1387 Q1346.2658,279.6387 1345.5783,278.5762 Q1344.8908,277.498 1344.8908,276.2168 L1344.8908,275.0605 Q1344.8908,273.7324 1345.5002,272.5918 Q1346.1252,271.4355 1347.2189,270.8262 Q1348.3127,270.2012 1349.5471,270.2012 Q1350.2814,270.2012 1350.9221,270.373 Q1351.5783,270.5293 1352.1252,270.8887 Z " fill="#000000"/><text fill="#000000" font-family="sans-serif" font-size="14" lengthAdjust="spacing" textLength="16.3379" x="1364.5506" y="280.8105">F5</text><line style="stroke:#181818;stroke-width:0.5;" x1="1330" x2="1388.248" y1="291.0137" y2="291.0137"/><text fill="#000000" font-family="sans-serif" font-size="14" lengthAdjust="spacing" textLength="48.248" x="1335" y="310.1211">Context</text><line style="stroke:#181818;stroke-width:0.5;" x1="1330" x2="1388.248" y1="317.6348" y2="317.6348"/></g><!--class F6--><g id="elem_F6"><rect fill="#F1F1F1" height="66.6211" id="F6" rx="2.5" ry="2.5" style="stroke:#181818;stroke-width:0.5;" width="115.5029" x="1178" y="259.0137"/><ellipse cx="1223.3325" cy="275.0137" fill="#ADD1B2" rx="11" ry="11" style="stroke:#181818;stroke-width:1.0;"/><path d="M1226.0981,270.8887 Q1226.2544,270.6699 1226.4419,270.5605 Q1226.6294,270.4512 1226.8481,270.4512 Q1227.2231,270.4512 1227.4575,270.7168 Q1227.6919,270.9668 1227.6919,271.5762 L1227.6919,273.0293 Q1227.6919,273.6387 1227.4575,273.9043 Q1227.2231,274.1699 1226.8481,274.1699 Q1226.5044,274.1699 1226.3013,273.9668 Q1226.0981,273.7793 1225.9888,273.2637 Q1225.9419,272.9043 1225.7544,272.7168 Q1225.4263,272.3418 1224.8169,272.123 Q1224.2075,271.9043 1223.5825,271.9043 Q1222.8169,271.9043 1222.1763,272.2324 Q1221.5513,272.5605 1221.0513,273.3105 Q1220.5669,274.0605 1220.5669,275.0918 L1220.5669,276.1855 Q1220.5669,277.4199 1221.4575,278.248 Q1222.3481,279.0605 1223.9419,279.0605 Q1224.8794,279.0605 1225.5356,278.8105 Q1225.9263,278.6543 1226.3481,278.2168 Q1226.6138,277.9512 1226.7544,277.873 Q1226.9106,277.7949 1227.1138,277.7949 Q1227.4419,277.7949 1227.6919,278.0605 Q1227.9575,278.3105 1227.9575,278.6543 Q1227.9575,278.998 1227.6138,279.4043 Q1227.1138,279.9824 1226.3169,280.3105 Q1225.2388,280.7637 1223.9419,280.7637 Q1222.4263,280.7637 1221.2231,280.1387 Q1220.2388,279.6387 1219.5513,278.5762 Q1218.8638,277.498 1218.8638,276.2168 L1218.8638,275.0605 Q1218.8638,273.7324 1219.4731,272.5918 Q1220.0981,271.4355 1221.1919,270.8262 Q1222.2856,270.2012 1223.52,270.2012 Q1224.2544,270.2012 1224.895,270.373 Q1225.5513,270.5293 1226.0981,270.8887 Z " fill="#000000"/><text fill="#000000" font-family="sans-serif" font-size="14" lengthAdjust="spacing" textLength="16.3379" x="1243.8325" y="280.8105">F6</text><line style="stroke:#181818;stroke-width:0.5;" x1="1179" x2="1292.5029" y1="291.0137" y2="291.0137"/><text fill="#000000" font-family="sans-serif" font-size="14" lengthAdjust="spacing" textLength="103.5029" x="1184" y="310.1211">Cancellation API</text><line style="stroke:#181818;stroke-width:0.5;" x1="1179" x2="1292.5029" y1="317.6348" y2="317.6348"/></g><!--class F7--><g id="elem_F7"><rect fill="#F1F1F1" height="66.6211" id="F7" rx="2.5" ry="2.5" style="stroke:#181818;stroke-width:0.5;" width="212.7646" x="1731.5" y="259.0137"/><ellipse cx="1825.4634" cy="275.0137" fill="#ADD1B2" rx="11" ry="11" style="stroke:#181818;stroke-width:1.0;"/><path d="M1828.229,270.8887 Q1828.3853,270.6699 1828.5728,270.5605 Q1828.7603,270.4512 1828.979,270.4512 Q1829.354,270.4512 1829.5884,270.7168 Q1829.8228,270.9668 1829.8228,271.5762 L1829.8228,273.0293 Q1829.8228,273.6387 1829.5884,273.9043 Q1829.354,274.1699 1828.979,274.1699 Q1828.6353,274.1699 1828.4321,273.9668 Q1828.229,273.7793 1828.1196,273.2637 Q1828.0728,272.9043 1827.8853,272.7168 Q1827.5571,272.3418 1826.9478,272.123 Q1826.3384,271.9043 1825.7134,271.9043 Q1824.9478,271.9043 1824.3071,272.2324 Q1823.6821,272.5605 1823.1821,273.3105 Q1822.6978,274.0605 1822.6978,275.0918 L1822.6978,276.1855 Q1822.6978,277.4199 1823.5884,278.248 Q1824.479,279.0605 1826.0728,279.0605 Q1827.0103,279.0605 1827.6665,278.8105 Q1828.0571,278.6543 1828.479,278.2168 Q1828.7446,277.9512 1828.8853,277.873 Q1829.0415,277.7949 1829.2446,277.7949 Q1829.5728,277.7949 1829.8228,278.0605 Q1830.0884,278.3105 1830.0884,278.6543 Q1830.0884,278.998 1829.7446,279.4043 Q1829.2446,279.9824 1828.4478,280.3105 Q1827.3696,280.7637 1826.0728,280.7637 Q1824.5571,280.7637 1823.354,280.1387 Q1822.3696,279.6387 1821.6821,278.5762 Q1820.9946,277.498 1820.9946,276.2168 L1820.9946,275.0605 Q1820.9946,273.7324 1821.604,272.5918 Q1822.229,271.4355 1823.3228,270.8262 Q1824.4165,270.2012 1825.6509,270.2012 Q1826.3853,270.2012 1827.0259,270.373 Q1827.6821,270.5293 1828.229,270.8887 Z " fill="#000000"/><text fill="#000000" font-family="sans-serif" font-size="14" lengthAdjust="spacing" textLength="16.3379" x="1845.9634" y="280.8105">F7</text><line style="stroke:#181818;stroke-width:0.5;" x1="1732.5" x2="1943.2646" y1="291.0137" y2="291.0137"/><text fill="#000000" font-family="sans-serif" font-size="14" lengthAdjust="spacing" textLength="200.7646" x="1737.5" y="310.1211">Structured Concurrency Support</text><line style="stroke:#181818;stroke-width:0.5;" x1="1732.5" x2="1943.2646" y1="317.6348" y2="317.6348"/></g><!--class F8--><g id="elem_F8"><rect fill="#F1F1F1" height="66.6211" id="F8" rx="2.5" ry="2.5" style="stroke:#181818;stroke-width:0.5;" width="208.9023" x="767.5" y="259.0137"/><ellipse cx="859.5322" cy="275.0137" fill="#ADD1B2" rx="11" ry="11" style="stroke:#181818;stroke-width:1.0;"/><path d="M862.2979,270.8887 Q862.4541,270.6699 862.6416,270.5605 Q862.8291,270.4512 863.0479,270.4512 Q863.4229,270.4512 863.6572,270.7168 Q863.8916,270.9668 863.8916,271.5762 L863.8916,273.0293 Q863.8916,273.6387 863.6572,273.9043 Q863.4229,274.1699 863.0479,274.1699 Q862.7041,274.1699 862.501,273.9668 Q862.2979,273.7793 862.1885,273.2637 Q862.1416,272.9043 861.9541,272.7168 Q861.626,272.3418 861.0166,272.123 Q860.4072,271.9043 859.7822,271.9043 Q859.0166,271.9043 858.376,272.2324 Q857.751,272.5605 857.251,273.3105 Q856.7666,274.0605 856.7666,275.0918 L856.7666,276.1855 Q856.7666,277.4199 857.6572,278.248 Q858.5479,279.0605 860.1416,279.0605 Q861.0791,279.0605 861.7354,278.8105 Q862.126,278.6543 862.5479,278.2168 Q862.8135,277.9512 862.9541,277.873 Q863.1104,277.7949 863.3135,277.7949 Q863.6416,277.7949 863.8916,278.0605 Q864.1572,278.3105 864.1572,278.6543 Q864.1572,278.998 863.8135,279.4043 Q863.3135,279.9824 862.5166,280.3105 Q861.4385,280.7637 860.1416,280.7637 Q858.626,280.7637 857.4229,280.1387 Q856.4385,279.6387 855.751,278.5762 Q855.0635,277.498 855.0635,276.2168 L855.0635,275.0605 Q855.0635,273.7324 855.6729,272.5918 Q856.2979,271.4355 857.3916,270.8262 Q858.4854,270.2012 859.7197,270.2012 Q860.4541,270.2012 861.0947,270.373 Q861.751,270.5293 862.2979,270.8887 Z " fill="#000000"/><text fill="#000000" font-family="sans-serif" font-size="14" lengthAdjust="spacing" textLength="16.3379" x="880.0322" y="280.8105">F8</text><line style="stroke:#181818;stroke-width:0.5;" x1="768.5" x2="975.4023" y1="291.0137" y2="291.0137"/><text fill="#000000" font-family="sans-serif" font-size="14" lengthAdjust="spacing" textLength="196.9023" x="773.5" y="310.1211">Error Propagation and Handling</text><line style="stroke:#181818;stroke-width:0.5;" x1="768.5" x2="975.4023" y1="317.6348" y2="317.6348"/></g><!--class F9--><g id="elem_F9"><rect fill="#F1F1F1" height="66.6211" id="F9" rx="2.5" ry="2.5" style="stroke:#181818;stroke-width:0.5;" width="131.0684" x="1011.5" y="259.0137"/><ellipse cx="1064.6152" cy="275.0137" fill="#ADD1B2" rx="11" ry="11" style="stroke:#181818;stroke-width:1.0;"/><path d="M1067.3809,270.8887 Q1067.5371,270.6699 1067.7246,270.5605 Q1067.9121,270.4512 1068.1309,270.4512 Q1068.5059,270.4512 1068.7402,270.7168 Q1068.9746,270.9668 1068.9746,271.5762 L1068.9746,273.0293 Q1068.9746,273.6387 1068.7402,273.9043 Q1068.5059,274.1699 1068.1309,274.1699 Q1067.7871,274.1699 1067.584,273.9668 Q1067.3809,273.7793 1067.2715,273.2637 Q1067.2246,272.9043 1067.0371,272.7168 Q1066.709,272.3418 1066.0996,272.123 Q1065.4902,271.9043 1064.8652,271.9043 Q1064.0996,271.9043 1063.459,272.2324 Q1062.834,272.5605 1062.334,273.3105 Q1061.8496,274.0605 1061.8496,275.0918 L1061.8496,276.1855 Q1061.8496,277.4199 1062.7402,278.248 Q1063.6309,279.0605 1065.2246,279.0605 Q1066.1621,279.0605 1066.8184,278.8105 Q1067.209,278.6543 1067.6309,278.2168 Q1067.8965,277.9512 1068.0371,277.873 Q1068.1934,277.7949 1068.3965,277.7949 Q1068.7246,277.7949 1068.9746,278.0605 Q1069.2402,278.3105 1069.2402,278.6543 Q1069.2402,278.998 1068.8965,279.4043 Q1068.3965,279.9824 1067.5996,280.3105 Q1066.5215,280.7637 1065.2246,280.7637 Q1063.709,280.7637 1062.5059,280.1387 Q1061.5215,279.6387 1060.834,278.5762 Q1060.1465,277.498 1060.1465,276.2168 L1060.1465,275.0605 Q1060.1465,273.7324 1060.7559,272.5918 Q1061.3809,271.4355 1062.4746,270.8262 Q1063.5684,270.2012 1064.8027,270.2012 Q1065.5371,270.2012 1066.1777,270.373 Q1066.834,270.5293 1067.3809,270.8887 Z " fill="#000000"/><text fill="#000000" font-family="sans-serif" font-size="14" lengthAdjust="spacing" textLength="16.3379" x="1085.1152" y="280.8105">F9</text><line style="stroke:#181818;stroke-width:0.5;" x1="1012.5" x2="1141.5684" y1="291.0137" y2="291.0137"/><text fill="#000000" font-family="sans-serif" font-size="14" lengthAdjust="spacing" textLength="119.0684" x="1017.5" y="310.1211">Graceful Shutdown</text><line style="stroke:#181818;stroke-width:0.5;" x1="1012.5" x2="1141.5684" y1="317.6348" y2="317.6348"/></g><!--class F10--><g id="elem_F10"><rect fill="#F1F1F1" height="66.6211" id="F10" rx="2.5" ry="2.5" style="stroke:#181818;stroke-width:0.5;" width="175.3857" x="1979.5" y="259.0137"/><ellipse cx="2050.8809" cy="275.0137" fill="#ADD1B2" rx="11" ry="11" style="stroke:#181818;stroke-width:1.0;"/><path d="M2053.6465,270.8887 Q2053.8027,270.6699 2053.9902,270.5605 Q2054.1777,270.4512 2054.3965,270.4512 Q2054.7715,270.4512 2055.0059,270.7168 Q2055.2402,270.9668 2055.2402,271.5762 L2055.2402,273.0293 Q2055.2402,273.6387 2055.0059,273.9043 Q2054.7715,274.1699 2054.3965,274.1699 Q2054.0527,274.1699 2053.8496,273.9668 Q2053.6465,273.7793 2053.5371,273.2637 Q2053.4902,272.9043 2053.3027,272.7168 Q2052.9746,272.3418 2052.3652,272.123 Q2051.7559,271.9043 2051.1309,271.9043 Q2050.3652,271.9043 2049.7246,272.2324 Q2049.0996,272.5605 2048.5996,273.3105 Q2048.1152,274.0605 2048.1152,275.0918 L2048.1152,276.1855 Q2048.1152,277.4199 2049.0059,278.248 Q2049.8965,279.0605 2051.4902,279.0605 Q2052.4277,279.0605 2053.084,278.8105 Q2053.4746,278.6543 2053.8965,278.2168 Q2054.1621,277.9512 2054.3027,277.873 Q2054.459,277.7949 2054.6621,277.7949 Q2054.9902,277.7949 2055.2402,278.0605 Q2055.5059,278.3105 2055.5059,278.6543 Q2055.5059,278.998 2055.1621,279.4043 Q2054.6621,279.9824 2053.8652,280.3105 Q2052.7871,280.7637 2051.4902,280.7637 Q2049.9746,280.7637 2048.7715,280.1387 Q2047.7871,279.6387 2047.0996,278.5762 Q2046.4121,277.498 2046.4121,276.2168 L2046.4121,275.0605 Q2046.4121,273.7324 2047.0215,272.5918 Q2047.6465,271.4355 2048.7402,270.8262 Q2049.834,270.2012 2051.0684,270.2012 Q2051.8027,270.2012 2052.4434,270.373 Q2053.0996,270.5293 2053.6465,270.8887 Z " fill="#000000"/><text fill="#000000" font-family="sans-serif" font-size="14" lengthAdjust="spacing" textLength="24.124" x="2071.3809" y="280.8105">F10</text><line style="stroke:#181818;stroke-width:0.5;" x1="1980.5" x2="2153.8857" y1="291.0137" y2="291.0137"/><text fill="#000000" font-family="sans-serif" font-size="14" lengthAdjust="spacing" textLength="163.3857" x="1985.5" y="310.1211">Explicit/Implicit Coroutines</text><line style="stroke:#181818;stroke-width:0.5;" x1="1980.5" x2="2153.8857" y1="317.6348" y2="317.6348"/></g><!--class F11--><g id="elem_F11"><rect fill="#F1F1F1" height="66.6211" id="F11" rx="2.5" ry="2.5" style="stroke:#181818;stroke-width:0.5;" width="130.2754" x="2190" y="259.0137"/><ellipse cx="2238.8257" cy="275.0137" fill="#ADD1B2" rx="11" ry="11" style="stroke:#181818;stroke-width:1.0;"/><path d="M2241.5913,270.8887 Q2241.7476,270.6699 2241.9351,270.5605 Q2242.1226,270.4512 2242.3413,270.4512 Q2242.7163,270.4512 2242.9507,270.7168 Q2243.1851,270.9668 2243.1851,271.5762 L2243.1851,273.0293 Q2243.1851,273.6387 2242.9507,273.9043 Q2242.7163,274.1699 2242.3413,274.1699 Q2241.9976,274.1699 2241.7944,273.9668 Q2241.5913,273.7793 2241.4819,273.2637 Q2241.4351,272.9043 2241.2476,272.7168 Q2240.9194,272.3418 2240.3101,272.123 Q2239.7007,271.9043 2239.0757,271.9043 Q2238.3101,271.9043 2237.6694,272.2324 Q2237.0444,272.5605 2236.5444,273.3105 Q2236.0601,274.0605 2236.0601,275.0918 L2236.0601,276.1855 Q2236.0601,277.4199 2236.9507,278.248 Q2237.8413,279.0605 2239.4351,279.0605 Q2240.3726,279.0605 2241.0288,278.8105 Q2241.4194,278.6543 2241.8413,278.2168 Q2242.1069,277.9512 2242.2476,277.873 Q2242.4038,277.7949 2242.6069,277.7949 Q2242.9351,277.7949 2243.1851,278.0605 Q2243.4507,278.3105 2243.4507,278.6543 Q2243.4507,278.998 2243.1069,279.4043 Q2242.6069,279.9824 2241.8101,280.3105 Q2240.7319,280.7637 2239.4351,280.7637 Q2237.9194,280.7637 2236.7163,280.1387 Q2235.7319,279.6387 2235.0444,278.5762 Q2234.3569,277.498 2234.3569,276.2168 L2234.3569,275.0605 Q2234.3569,273.7324 2234.9663,272.5918 Q2235.5913,271.4355 2236.6851,270.8262 Q2237.7788,270.2012 2239.0132,270.2012 Q2239.7476,270.2012 2240.3882,270.373 Q2241.0444,270.5293 2241.5913,270.8887 Z " fill="#000000"/><text fill="#000000" font-family="sans-serif" font-size="14" lengthAdjust="spacing" textLength="24.124" x="2259.3257" y="280.8105">F11</text><line style="stroke:#181818;stroke-width:0.5;" x1="2191" x2="2319.2754" y1="291.0137" y2="291.0137"/><text fill="#000000" font-family="sans-serif" font-size="14" lengthAdjust="spacing" textLength="118.2754" x="2196" y="310.1211">Zombie Coroutines</text><line style="stroke:#181818;stroke-width:0.5;" x1="2191" x2="2319.2754" y1="317.6348" y2="317.6348"/></g><!--class F12--><g id="elem_F12"><rect fill="#F1F1F1" height="66.6211" id="F12" rx="2.5" ry="2.5" style="stroke:#181818;stroke-width:0.5;" width="85.1445" x="1511.5" y="259.0137"/><ellipse cx="1539.5592" cy="275.0137" fill="#ADD1B2" rx="11" ry="11" style="stroke:#181818;stroke-width:1.0;"/><path d="M1542.3249,270.8887 Q1542.4811,270.6699 1542.6686,270.5605 Q1542.8561,270.4512 1543.0749,270.4512 Q1543.4499,270.4512 1543.6842,270.7168 Q1543.9186,270.9668 1543.9186,271.5762 L1543.9186,273.0293 Q1543.9186,273.6387 1543.6842,273.9043 Q1543.4499,274.1699 1543.0749,274.1699 Q1542.7311,274.1699 1542.528,273.9668 Q1542.3249,273.7793 1542.2155,273.2637 Q1542.1686,272.9043 1541.9811,272.7168 Q1541.653,272.3418 1541.0436,272.123 Q1540.4342,271.9043 1539.8092,271.9043 Q1539.0436,271.9043 1538.403,272.2324 Q1537.778,272.5605 1537.278,273.3105 Q1536.7936,274.0605 1536.7936,275.0918 L1536.7936,276.1855 Q1536.7936,277.4199 1537.6842,278.248 Q1538.5749,279.0605 1540.1686,279.0605 Q1541.1061,279.0605 1541.7624,278.8105 Q1542.153,278.6543 1542.5749,278.2168 Q1542.8405,277.9512 1542.9811,277.873 Q1543.1374,277.7949 1543.3405,277.7949 Q1543.6686,277.7949 1543.9186,278.0605 Q1544.1842,278.3105 1544.1842,278.6543 Q1544.1842,278.998 1543.8405,279.4043 Q1543.3405,279.9824 1542.5436,280.3105 Q1541.4655,280.7637 1540.1686,280.7637 Q1538.653,280.7637 1537.4499,280.1387 Q1536.4655,279.6387 1535.778,278.5762 Q1535.0905,277.498 1535.0905,276.2168 L1535.0905,275.0605 Q1535.0905,273.7324 1535.6999,272.5918 Q1536.3249,271.4355 1537.4186,270.8262 Q1538.5124,270.2012 1539.7467,270.2012 Q1540.4811,270.2012 1541.1217,270.373 Q1541.778,270.5293 1542.3249,270.8887 Z " fill="#000000"/><text fill="#000000" font-family="sans-serif" font-size="14" lengthAdjust="spacing" textLength="24.124" x="1556.4613" y="280.8105">F12</text><line style="stroke:#181818;stroke-width:0.5;" x1="1512.5" x2="1595.6445" y1="291.0137" y2="291.0137"/><text fill="#000000" font-family="sans-serif" font-size="14" lengthAdjust="spacing" textLength="73.1445" x="1517.5" y="310.1211">async block</text><line style="stroke:#181818;stroke-width:0.5;" x1="1512.5" x2="1595.6445" y1="317.6348" y2="317.6348"/></g><!--class A1--><g id="elem_A1"><rect fill="#F1F1F1" height="66.6211" id="A1" rx="2.5" ry="2.5" style="stroke:#181818;stroke-width:0.5;" width="101.4961" x="760.5" y="430.0137"/><ellipse cx="799.0674" cy="446.0137" fill="#ADD1B2" rx="11" ry="11" style="stroke:#181818;stroke-width:1.0;"/><path d="M801.8331,441.8887 Q801.9893,441.6699 802.1768,441.5605 Q802.3643,441.4512 802.5831,441.4512 Q802.9581,441.4512 803.1924,441.7168 Q803.4268,441.9668 803.4268,442.5762 L803.4268,444.0293 Q803.4268,444.6387 803.1924,444.9043 Q802.9581,445.1699 802.5831,445.1699 Q802.2393,445.1699 802.0362,444.9668 Q801.8331,444.7793 801.7237,444.2637 Q801.6768,443.9043 801.4893,443.7168 Q801.1612,443.3418 800.5518,443.123 Q799.9424,442.9043 799.3174,442.9043 Q798.5518,442.9043 797.9112,443.2324 Q797.2862,443.5605 796.7862,444.3105 Q796.3018,445.0605 796.3018,446.0918 L796.3018,447.1855 Q796.3018,448.4199 797.1924,449.248 Q798.0831,450.0605 799.6768,450.0605 Q800.6143,450.0605 801.2706,449.8105 Q801.6612,449.6543 802.0831,449.2168 Q802.3487,448.9512 802.4893,448.873 Q802.6456,448.7949 802.8487,448.7949 Q803.1768,448.7949 803.4268,449.0605 Q803.6924,449.3105 803.6924,449.6543 Q803.6924,449.998 803.3487,450.4043 Q802.8487,450.9824 802.0518,451.3105 Q800.9737,451.7637 799.6768,451.7637 Q798.1612,451.7637 796.9581,451.1387 Q795.9737,450.6387 795.2862,449.5762 Q794.5987,448.498 794.5987,447.2168 L794.5987,446.0605 Q794.5987,444.7324 795.2081,443.5918 Q795.8331,442.4355 796.9268,441.8262 Q798.0206,441.2012 799.2549,441.2012 Q799.9893,441.2012 800.6299,441.373 Q801.2862,441.5293 801.8331,441.8887 Z " fill="#000000"/><text fill="#000000" font-family="sans-serif" font-size="14" lengthAdjust="spacing" textLength="17.124" x="818.3046" y="451.8105">A1</text><line style="stroke:#181818;stroke-width:0.5;" x1="761.5" x2="860.9961" y1="462.0137" y2="462.0137"/><text fill="#000000" font-family="sans-serif" font-size="14" lengthAdjust="spacing" textLength="89.4961" x="766.5" y="481.1211">Scheduler API</text><line style="stroke:#181818;stroke-width:0.5;" x1="761.5" x2="860.9961" y1="488.6348" y2="488.6348"/></g><!--class A2--><g id="elem_A2"><rect fill="#F1F1F1" height="66.6211" id="A2" rx="2.5" ry="2.5" style="stroke:#181818;stroke-width:0.5;" width="143.5234" x="897" y="430.0137"/><ellipse cx="955.9497" cy="446.0137" fill="#ADD1B2" rx="11" ry="11" style="stroke:#181818;stroke-width:1.0;"/><path d="M958.7153,441.8887 Q958.8716,441.6699 959.0591,441.5605 Q959.2466,441.4512 959.4653,441.4512 Q959.8403,441.4512 960.0747,441.7168 Q960.3091,441.9668 960.3091,442.5762 L960.3091,444.0293 Q960.3091,444.6387 960.0747,444.9043 Q959.8403,445.1699 959.4653,445.1699 Q959.1216,445.1699 958.9185,444.9668 Q958.7153,444.7793 958.606,444.2637 Q958.5591,443.9043 958.3716,443.7168 Q958.0435,443.3418 957.4341,443.123 Q956.8247,442.9043 956.1997,442.9043 Q955.4341,442.9043 954.7935,443.2324 Q954.1685,443.5605 953.6685,444.3105 Q953.1841,445.0605 953.1841,446.0918 L953.1841,447.1855 Q953.1841,448.4199 954.0747,449.248 Q954.9653,450.0605 956.5591,450.0605 Q957.4966,450.0605 958.1528,449.8105 Q958.5435,449.6543 958.9653,449.2168 Q959.231,448.9512 959.3716,448.873 Q959.5278,448.7949 959.731,448.7949 Q960.0591,448.7949 960.3091,449.0605 Q960.5747,449.3105 960.5747,449.6543 Q960.5747,449.998 960.231,450.4043 Q959.731,450.9824 958.9341,451.3105 Q957.856,451.7637 956.5591,451.7637 Q955.0435,451.7637 953.8403,451.1387 Q952.856,450.6387 952.1685,449.5762 Q951.481,448.498 951.481,447.2168 L951.481,446.0605 Q951.481,444.7324 952.0903,443.5918 Q952.7153,442.4355 953.8091,441.8262 Q954.9028,441.2012 956.1372,441.2012 Q956.8716,441.2012 957.5122,441.373 Q958.1685,441.5293 958.7153,441.8887 Z " fill="#000000"/><text fill="#000000" font-family="sans-serif" font-size="14" lengthAdjust="spacing" textLength="17.124" x="976.4497" y="451.8105">A2</text><line style="stroke:#181818;stroke-width:0.5;" x1="898" x2="1039.5234" y1="462.0137" y2="462.0137"/><text fill="#000000" font-family="sans-serif" font-size="14" lengthAdjust="spacing" textLength="131.5234" x="903" y="481.1211">Reactor / Event Loop</text><line style="stroke:#181818;stroke-width:0.5;" x1="898" x2="1039.5234" y1="488.6348" y2="488.6348"/></g><!--class A3--><g id="elem_A3"><rect fill="#F1F1F1" height="66.6211" id="A3" rx="2.5" ry="2.5" style="stroke:#181818;stroke-width:0.5;" width="158.3096" x="1611" y="430.0137"/><ellipse cx="1677.3428" cy="446.0137" fill="#ADD1B2" rx="11" ry="11" style="stroke:#181818;stroke-width:1.0;"/><path d="M1680.1084,441.8887 Q1680.2646,441.6699 1680.4521,441.5605 Q1680.6396,441.4512 1680.8584,441.4512 Q1681.2334,441.4512 1681.4678,441.7168 Q1681.7021,441.9668 1681.7021,442.5762 L1681.7021,444.0293 Q1681.7021,444.6387 1681.4678,444.9043 Q1681.2334,445.1699 1680.8584,445.1699 Q1680.5146,445.1699 1680.3115,444.9668 Q1680.1084,444.7793 1679.999,444.2637 Q1679.9521,443.9043 1679.7646,443.7168 Q1679.4365,443.3418 1678.8271,443.123 Q1678.2178,442.9043 1677.5928,442.9043 Q1676.8271,442.9043 1676.1865,443.2324 Q1675.5615,443.5605 1675.0615,444.3105 Q1674.5771,445.0605 1674.5771,446.0918 L1674.5771,447.1855 Q1674.5771,448.4199 1675.4678,449.248 Q1676.3584,450.0605 1677.9521,450.0605 Q1678.8896,450.0605 1679.5459,449.8105 Q1679.9365,449.6543 1680.3584,449.2168 Q1680.624,448.9512 1680.7646,448.873 Q1680.9209,448.7949 1681.124,448.7949 Q1681.4521,448.7949 1681.7021,449.0605 Q1681.9678,449.3105 1681.9678,449.6543 Q1681.9678,449.998 1681.624,450.4043 Q1681.124,450.9824 1680.3271,451.3105 Q1679.249,451.7637 1677.9521,451.7637 Q1676.4365,451.7637 1675.2334,451.1387 Q1674.249,450.6387 1673.5615,449.5762 Q1672.874,448.498 1672.874,447.2168 L1672.874,446.0605 Q1672.874,444.7324 1673.4834,443.5918 Q1674.1084,442.4355 1675.2021,441.8262 Q1676.2959,441.2012 1677.5303,441.2012 Q1678.2646,441.2012 1678.9053,441.373 Q1679.5615,441.5293 1680.1084,441.8887 Z " fill="#000000"/><text fill="#000000" font-family="sans-serif" font-size="14" lengthAdjust="spacing" textLength="17.124" x="1697.8428" y="451.8105">A3</text><line style="stroke:#181818;stroke-width:0.5;" x1="1612" x2="1768.3096" y1="462.0137" y2="462.0137"/><text fill="#000000" font-family="sans-serif" font-size="14" lengthAdjust="spacing" textLength="146.3096" x="1617" y="481.1211">Coroutine Management</text><line style="stroke:#181818;stroke-width:0.5;" x1="1612" x2="1768.3096" y1="488.6348" y2="488.6348"/></g><!--class A4--><g id="elem_A4"><rect fill="#F1F1F1" height="66.6211" id="A4" rx="2.5" ry="2.5" style="stroke:#181818;stroke-width:0.5;" width="115.4893" x="1460.5" y="430.0137"/><ellipse cx="1505.4326" cy="446.0137" fill="#ADD1B2" rx="11" ry="11" style="stroke:#181818;stroke-width:1.0;"/><path d="M1508.1982,441.8887 Q1508.3545,441.6699 1508.542,441.5605 Q1508.7295,441.4512 1508.9482,441.4512 Q1509.3232,441.4512 1509.5576,441.7168 Q1509.792,441.9668 1509.792,442.5762 L1509.792,444.0293 Q1509.792,444.6387 1509.5576,444.9043 Q1509.3232,445.1699 1508.9482,445.1699 Q1508.6045,445.1699 1508.4014,444.9668 Q1508.1982,444.7793 1508.0889,444.2637 Q1508.042,443.9043 1507.8545,443.7168 Q1507.5264,443.3418 1506.917,443.123 Q1506.3076,442.9043 1505.6826,442.9043 Q1504.917,442.9043 1504.2764,443.2324 Q1503.6514,443.5605 1503.1514,444.3105 Q1502.667,445.0605 1502.667,446.0918 L1502.667,447.1855 Q1502.667,448.4199 1503.5576,449.248 Q1504.4482,450.0605 1506.042,450.0605 Q1506.9795,450.0605 1507.6357,449.8105 Q1508.0264,449.6543 1508.4482,449.2168 Q1508.7139,448.9512 1508.8545,448.873 Q1509.0107,448.7949 1509.2139,448.7949 Q1509.542,448.7949 1509.792,449.0605 Q1510.0576,449.3105 1510.0576,449.6543 Q1510.0576,449.998 1509.7139,450.4043 Q1509.2139,450.9824 1508.417,451.3105 Q1507.3389,451.7637 1506.042,451.7637 Q1504.5264,451.7637 1503.3232,451.1387 Q1502.3389,450.6387 1501.6514,449.5762 Q1500.9639,448.498 1500.9639,447.2168 L1500.9639,446.0605 Q1500.9639,444.7324 1501.5732,443.5918 Q1502.1982,442.4355 1503.292,441.8262 Q1504.3857,441.2012 1505.6201,441.2012 Q1506.3545,441.2012 1506.9951,441.373 Q1507.6514,441.5293 1508.1982,441.8887 Z " fill="#000000"/><text fill="#000000" font-family="sans-serif" font-size="14" lengthAdjust="spacing" textLength="17.124" x="1525.9326" y="451.8105">A4</text><line style="stroke:#181818;stroke-width:0.5;" x1="1461.5" x2="1574.9893" y1="462.0137" y2="462.0137"/><text fill="#000000" font-family="sans-serif" font-size="14" lengthAdjust="spacing" textLength="103.4893" x="1466.5" y="481.1211">Scope Hierarchy</text><line style="stroke:#181818;stroke-width:0.5;" x1="1461.5" x2="1574.9893" y1="488.6348" y2="488.6348"/></g><!--class A5--><g id="elem_A5"><rect fill="#F1F1F1" height="66.6211" id="A5" rx="2.5" ry="2.5" style="stroke:#181818;stroke-width:0.5;" width="133.4063" x="1292.5" y="430.0137"/><ellipse cx="1346.3911" cy="446.0137" fill="#ADD1B2" rx="11" ry="11" style="stroke:#181818;stroke-width:1.0;"/><path d="M1349.1567,441.8887 Q1349.313,441.6699 1349.5005,441.5605 Q1349.688,441.4512 1349.9067,441.4512 Q1350.2817,441.4512 1350.5161,441.7168 Q1350.7505,441.9668 1350.7505,442.5762 L1350.7505,444.0293 Q1350.7505,444.6387 1350.5161,444.9043 Q1350.2817,445.1699 1349.9067,445.1699 Q1349.563,445.1699 1349.3599,444.9668 Q1349.1567,444.7793 1349.0474,444.2637 Q1349.0005,443.9043 1348.813,443.7168 Q1348.4849,443.3418 1347.8755,443.123 Q1347.2661,442.9043 1346.6411,442.9043 Q1345.8755,442.9043 1345.2349,443.2324 Q1344.6099,443.5605 1344.1099,444.3105 Q1343.6255,445.0605 1343.6255,446.0918 L1343.6255,447.1855 Q1343.6255,448.4199 1344.5161,449.248 Q1345.4067,450.0605 1347.0005,450.0605 Q1347.938,450.0605 1348.5942,449.8105 Q1348.9849,449.6543 1349.4067,449.2168 Q1349.6724,448.9512 1349.813,448.873 Q1349.9692,448.7949 1350.1724,448.7949 Q1350.5005,448.7949 1350.7505,449.0605 Q1351.0161,449.3105 1351.0161,449.6543 Q1351.0161,449.998 1350.6724,450.4043 Q1350.1724,450.9824 1349.3755,451.3105 Q1348.2974,451.7637 1347.0005,451.7637 Q1345.4849,451.7637 1344.2817,451.1387 Q1343.2974,450.6387 1342.6099,449.5762 Q1341.9224,448.498 1341.9224,447.2168 L1341.9224,446.0605 Q1341.9224,444.7324 1342.5317,443.5918 Q1343.1567,442.4355 1344.2505,441.8262 Q1345.3442,441.2012 1346.5786,441.2012 Q1347.313,441.2012 1347.9536,441.373 Q1348.6099,441.5293 1349.1567,441.8887 Z " fill="#000000"/><text fill="#000000" font-family="sans-serif" font-size="14" lengthAdjust="spacing" textLength="17.124" x="1366.8911" y="451.8105">A5</text><line style="stroke:#181818;stroke-width:0.5;" x1="1293.5" x2="1424.9063" y1="462.0137" y2="462.0137"/><text fill="#000000" font-family="sans-serif" font-size="14" lengthAdjust="spacing" textLength="121.4063" x="1298.5" y="481.1211">Context Inheritance</text><line style="stroke:#181818;stroke-width:0.5;" x1="1293.5" x2="1424.9063" y1="488.6348" y2="488.6348"/></g><!--class A6--><g id="elem_A6"><rect fill="#F1F1F1" height="66.6211" id="A6" rx="2.5" ry="2.5" style="stroke:#181818;stroke-width:0.5;" width="180.8477" x="1076.5" y="430.0137"/><ellipse cx="1154.1118" cy="446.0137" fill="#ADD1B2" rx="11" ry="11" style="stroke:#181818;stroke-width:1.0;"/><path d="M1156.8774,441.8887 Q1157.0337,441.6699 1157.2212,441.5605 Q1157.4087,441.4512 1157.6274,441.4512 Q1158.0024,441.4512 1158.2368,441.7168 Q1158.4712,441.9668 1158.4712,442.5762 L1158.4712,444.0293 Q1158.4712,444.6387 1158.2368,444.9043 Q1158.0024,445.1699 1157.6274,445.1699 Q1157.2837,445.1699 1157.0806,444.9668 Q1156.8774,444.7793 1156.7681,444.2637 Q1156.7212,443.9043 1156.5337,443.7168 Q1156.2056,443.3418 1155.5962,443.123 Q1154.9868,442.9043 1154.3618,442.9043 Q1153.5962,442.9043 1152.9556,443.2324 Q1152.3306,443.5605 1151.8306,444.3105 Q1151.3462,445.0605 1151.3462,446.0918 L1151.3462,447.1855 Q1151.3462,448.4199 1152.2368,449.248 Q1153.1274,450.0605 1154.7212,450.0605 Q1155.6587,450.0605 1156.3149,449.8105 Q1156.7056,449.6543 1157.1274,449.2168 Q1157.3931,448.9512 1157.5337,448.873 Q1157.6899,448.7949 1157.8931,448.7949 Q1158.2212,448.7949 1158.4712,449.0605 Q1158.7368,449.3105 1158.7368,449.6543 Q1158.7368,449.998 1158.3931,450.4043 Q1157.8931,450.9824 1157.0962,451.3105 Q1156.0181,451.7637 1154.7212,451.7637 Q1153.2056,451.7637 1152.0024,451.1387 Q1151.0181,450.6387 1150.3306,449.5762 Q1149.6431,448.498 1149.6431,447.2168 L1149.6431,446.0605 Q1149.6431,444.7324 1150.2524,443.5918 Q1150.8774,442.4355 1151.9712,441.8262 Q1153.0649,441.2012 1154.2993,441.2012 Q1155.0337,441.2012 1155.6743,441.373 Q1156.3306,441.5293 1156.8774,441.8887 Z " fill="#000000"/><text fill="#000000" font-family="sans-serif" font-size="14" lengthAdjust="spacing" textLength="17.124" x="1174.6118" y="451.8105">A6</text><line style="stroke:#181818;stroke-width:0.5;" x1="1077.5" x2="1256.3477" y1="462.0137" y2="462.0137"/><text fill="#000000" font-family="sans-serif" font-size="14" lengthAdjust="spacing" textLength="168.8477" x="1082.5" y="481.1211">Error Handler / Supervision</text><line style="stroke:#181818;stroke-width:0.5;" x1="1077.5" x2="1256.3477" y1="488.6348" y2="488.6348"/></g><!--class A7--><g id="elem_A7"><rect fill="#F1F1F1" height="66.6211" id="A7" rx="2.5" ry="2.5" style="stroke:#181818;stroke-width:0.5;" width="164.5098" x="1804.5" y="430.0137"/><ellipse cx="1873.9429" cy="446.0137" fill="#ADD1B2" rx="11" ry="11" style="stroke:#181818;stroke-width:1.0;"/><path d="M1876.7085,441.8887 Q1876.8647,441.6699 1877.0522,441.5605 Q1877.2397,441.4512 1877.4585,441.4512 Q1877.8335,441.4512 1878.0679,441.7168 Q1878.3022,441.9668 1878.3022,442.5762 L1878.3022,444.0293 Q1878.3022,444.6387 1878.0679,444.9043 Q1877.8335,445.1699 1877.4585,445.1699 Q1877.1147,445.1699 1876.9116,444.9668 Q1876.7085,444.7793 1876.5991,444.2637 Q1876.5522,443.9043 1876.3647,443.7168 Q1876.0366,443.3418 1875.4272,443.123 Q1874.8179,442.9043 1874.1929,442.9043 Q1873.4272,442.9043 1872.7866,443.2324 Q1872.1616,443.5605 1871.6616,444.3105 Q1871.1772,445.0605 1871.1772,446.0918 L1871.1772,447.1855 Q1871.1772,448.4199 1872.0679,449.248 Q1872.9585,450.0605 1874.5522,450.0605 Q1875.4897,450.0605 1876.146,449.8105 Q1876.5366,449.6543 1876.9585,449.2168 Q1877.2241,448.9512 1877.3647,448.873 Q1877.521,448.7949 1877.7241,448.7949 Q1878.0522,448.7949 1878.3022,449.0605 Q1878.5679,449.3105 1878.5679,449.6543 Q1878.5679,449.998 1878.2241,450.4043 Q1877.7241,450.9824 1876.9272,451.3105 Q1875.8491,451.7637 1874.5522,451.7637 Q1873.0366,451.7637 1871.8335,451.1387 Q1870.8491,450.6387 1870.1616,449.5762 Q1869.4741,448.498 1869.4741,447.2168 L1869.4741,446.0605 Q1869.4741,444.7324 1870.0835,443.5918 Q1870.7085,442.4355 1871.8022,441.8262 Q1872.896,441.2012 1874.1304,441.2012 Q1874.8647,441.2012 1875.5054,441.373 Q1876.1616,441.5293 1876.7085,441.8887 Z " fill="#000000"/><text fill="#000000" font-family="sans-serif" font-size="14" lengthAdjust="spacing" textLength="17.124" x="1894.4429" y="451.8105">A7</text><line style="stroke:#181818;stroke-width:0.5;" x1="1805.5" x2="1968.0098" y1="462.0137" y2="462.0137"/><text fill="#000000" font-family="sans-serif" font-size="14" lengthAdjust="spacing" textLength="152.5098" x="1810.5" y="481.1211">Zombie Coroutine Policy</text><line style="stroke:#181818;stroke-width:0.5;" x1="1805.5" x2="1968.0098" y1="488.6348" y2="488.6348"/></g><!--link R1 to F1--><g id="link_R1_F1"><path codeLine="43" d="M567.08,155.1437 C549.47,171.1437 532,187.0137 532,187.0137 C532,187.0137 532,206.0137 532,206.0137 C532,206.0137 663,214.0137 663,214.0137 C663,214.0137 673.1287,232.2773 684.8487,253.3973 " fill="none" id="R1-to-F1" style="stroke:#181818;stroke-width:1.0;"/><polygon fill="#181818" points="687.76,258.6437,686.8906,248.8333,685.3339,254.2717,679.8954,252.715,687.76,258.6437" style="stroke:#181818;stroke-width:1.0;"/><text fill="#000000" font-family="sans-serif" font-size="13" lengthAdjust="spacing" textLength="138.7534" x="533" y="202.042">Enable non-blocking I/O</text></g><!--link R1 to F2--><g id="link_R1_F2"><path codeLine="44" d="M518.15,141.5137 C433.2,160.5437 315,187.0137 315,187.0137 C315,187.0137 315,206.0137 315,206.0137 C315,206.0137 519.0712,263.0395 591.2112,283.1895 " fill="none" id="R1-to-F2" style="stroke:#181818;stroke-width:1.0;"/><polygon fill="#181818" points="596.99,284.8037,589.3979,278.5299,592.1743,283.4586,587.2457,286.235,596.99,284.8037" style="stroke:#181818;stroke-width:1.0;"/><text fill="#000000" font-family="sans-serif" font-size="13" lengthAdjust="spacing" textLength="143.7744" x="316" y="202.042">Wait for coroutine results</text></g><!--link R2 to F4--><g id="link_R2_F4"><path codeLine="45" d="M1408.94,155.1437 C1406.46,171.1437 1404,187.0137 1404,187.0137 C1404,187.0137 1404,206.0137 1404,206.0137 C1404,206.0137 1416.5258,229.3106 1429.5058,253.4206 " fill="none" id="R2-to-F4" style="stroke:#181818;stroke-width:1.0;"/><polygon fill="#181818" points="1432.35,258.7037,1431.6057,248.883,1429.9798,254.3011,1424.5617,252.6753,1432.35,258.7037" style="stroke:#181818;stroke-width:1.0;"/><text fill="#000000" font-family="sans-serif" font-size="13" lengthAdjust="spacing" textLength="148.8589" x="1405" y="202.042">Manage coroutine lifetime</text></g><!--link R2 to F12--><g id="link_R2_F12"><path codeLine="46" d="M1470.44,155.0537 C1492.22,167.6137 1512,179.0137 1512,179.0137 C1512,179.0137 1558,187.0137 1558,187.0137 C1558,187.0137 1558,206.0137 1558,206.0137 C1558,206.0137 1556.9384,228.6001 1555.8184,252.7101 " fill="none" id="R2-to-F12" style="stroke:#181818;stroke-width:1.0;"/><polygon fill="#181818" points="1555.54,258.7037,1559.9533,249.899,1555.772,253.7091,1551.9619,249.5278,1555.54,258.7037" style="stroke:#181818;stroke-width:1.0;"/><text fill="#000000" font-family="sans-serif" font-size="13" lengthAdjust="spacing" textLength="168.3462" x="1559" y="202.042">Group tasks with async block</text></g><!--link R3 to F1--><g id="link_R3_F1"><path codeLine="47" d="M1005.67,155.0337 C982.37,178.4837 955,206.0137 955,206.0137 C955,206.0137 750,214.0137 750,214.0137 C750,214.0137 739.6122,232.3059 727.6222,253.4259 " fill="none" id="R3-to-F1" style="stroke:#181818;stroke-width:1.0;"/><polygon fill="#181818" points="724.66,258.6437,732.5818,252.7918,727.1285,254.2955,725.6247,248.8422,724.66,258.6437" style="stroke:#181818;stroke-width:1.0;"/><text fill="#000000" font-family="sans-serif" font-size="13" lengthAdjust="spacing" textLength="179.2261" x="973" y="202.042">Launch functions as coroutines</text></g><!--link R3 to F3--><g id="link_R3_F3"><path codeLine="48" d="M1094.44,155.0537 C1116.22,167.6137 1136,179.0137 1136,179.0137 C1136,179.0137 1736,187.0137 1736,187.0137 C1736,187.0137 1736,206.0137 1736,206.0137 C1736,206.0137 1714,214.0137 1714,214.0137 C1714,214.0137 1702.0835,232.4823 1688.4535,253.6023 " fill="none" id="R3-to-F3" style="stroke:#181818;stroke-width:1.0;"/><polygon fill="#181818" points="1685.2,258.6437,1693.4411,253.2507,1687.9112,254.4426,1686.7193,248.9127,1685.2,258.6437" style="stroke:#181818;stroke-width:1.0;"/><text fill="#000000" font-family="sans-serif" font-size="13" lengthAdjust="spacing" textLength="140.9116" x="1737" y="202.042">Suspend/resume control</text></g><!--link R4 to F6--><g id="link_R4_F6"><path codeLine="49" d="M823.39,155.0337 C823.67,178.4837 824,206.0137 824,206.0137 C824,206.0137 1160,214.0137 1160,214.0137 C1160,214.0137 1178.8591,233.2397 1199.5691,254.3597 " fill="none" id="R4-to-F6" style="stroke:#181818;stroke-width:1.0;"/><polygon fill="#181818" points="1203.77,258.6437,1200.3247,249.4171,1200.2693,255.0737,1194.6127,255.0182,1203.77,258.6437" style="stroke:#181818;stroke-width:1.0;"/><text fill="#000000" font-family="sans-serif" font-size="13" lengthAdjust="spacing" textLength="121.3989" x="825" y="202.042">Cancel running tasks</text></g><!--link R4 to F8--><g id="link_R4_F8"><path codeLine="50" d="M755.04,155.0537 C728.81,167.6137 705,179.0137 705,179.0137 C705,179.0137 680,187.0137 680,187.0137 C680,187.0137 680,206.0137 680,206.0137 C680,206.0137 750,214.0137 750,214.0137 C750,214.0137 782.2055,234.4764 815.5455,255.6564 " fill="none" id="R4-to-F8" style="stroke:#181818;stroke-width:1.0;"/><polygon fill="#181818" points="820.61,258.8737,815.1582,250.6714,816.3896,256.1926,810.8684,257.424,820.61,258.8737" style="stroke:#181818;stroke-width:1.0;"/><text fill="#000000" font-family="sans-serif" font-size="13" lengthAdjust="spacing" textLength="106.958" x="681" y="202.042">Handle exceptions</text></g><!--link R5 to F5--><g id="link_R5_F5"><path codeLine="51" d="M1233.01,155.0337 C1238.06,178.4837 1244,206.0137 1244,206.0137 C1244,206.0137 1312,214.0137 1312,214.0137 C1312,214.0137 1323.1484,232.3936 1335.9584,253.5136 " fill="none" id="R5-to-F5" style="stroke:#181818;stroke-width:1.0;"/><polygon fill="#181818" points="1339.07,258.6437,1337.8227,248.8741,1336.477,254.3686,1330.9825,253.0229,1339.07,258.6437" style="stroke:#181818;stroke-width:1.0;"/><text fill="#000000" font-family="sans-serif" font-size="13" lengthAdjust="spacing" textLength="150.3062" x="1245" y="202.042">Associate data with scope</text></g><!--link R6 to F7--><g id="link_R6_F7"><path codeLine="52" d="M1678.05,155.0537 C1701.61,167.6137 1723,179.0137 1723,179.0137 C1723,179.0137 1950,187.0137 1950,187.0137 C1950,187.0137 1950,206.0137 1950,206.0137 C1950,206.0137 1917.0793,231.1431 1885.4293,255.3031 " fill="none" id="R6-to-F7" style="stroke:#181818;stroke-width:1.0;"/><polygon fill="#181818" points="1880.66,258.9437,1890.241,256.6623,1884.6344,255.9098,1885.3868,250.3032,1880.66,258.9437" style="stroke:#181818;stroke-width:1.0;"/><text fill="#000000" font-family="sans-serif" font-size="13" lengthAdjust="spacing" textLength="139.458" x="1951" y="202.042">Group tasks into scopes</text></g><!--link R7 to F10--><g id="link_R7_F10"><path codeLine="53" d="M1964.27,148.4737 C2041.8,166.3937 2131,187.0137 2131,187.0137 C2131,187.0137 2131,206.0137 2131,206.0137 C2131,206.0137 2113.2059,229.7906 2095.1559,253.9006 " fill="none" id="R7-to-F10" style="stroke:#181818;stroke-width:1.0;"/><polygon fill="#181818" points="2091.56,258.7037,2100.1559,253.8962,2094.5565,254.7011,2093.7517,249.1018,2091.56,258.7037" style="stroke:#181818;stroke-width:1.0;"/><text fill="#000000" font-family="sans-serif" font-size="13" lengthAdjust="spacing" textLength="187.8525" x="2132" y="202.042">Define explicit/implicit coroutines</text></g><!--link R7 to F11--><g id="link_R7_F11"><path codeLine="54" d="M1964.2,137.7137 C2104.93,156.7837 2328,187.0137 2328,187.0137 C2328,187.0137 2328,206.0137 2328,206.0137 C2328,206.0137 2307.4965,230.0311 2286.9065,254.1411 " fill="none" id="R7-to-F11" style="stroke:#181818;stroke-width:1.0;"/><polygon fill="#181818" points="2283.01,258.7037,2291.8965,254.4574,2286.2571,254.9015,2285.813,249.2621,2283.01,258.7037" style="stroke:#181818;stroke-width:1.0;"/><text fill="#000000" font-family="sans-serif" font-size="13" lengthAdjust="spacing" textLength="187.1606" x="2329" y="202.042">Introduce zombie coroutine logic</text></g><!--link F1 to A1--><g id="link_F1_A1"><path codeLine="57" d="M681.24,326.0537 C671.68,338.6137 663,350.0137 663,350.0137 C663,350.0137 251,358.0137 251,358.0137 C251,358.0137 251,377.0137 251,377.0137 C251,377.0137 616.5387,432.8284 754.3887,453.8684 " fill="none" id="F1-to-A1" style="stroke:#181818;stroke-width:1.0;"/><polygon fill="#181818" points="760.32,454.7737,752.0266,449.4615,755.3772,454.0193,750.8195,457.3699,760.32,454.7737" style="stroke:#181818;stroke-width:1.0;"/><text fill="#000000" font-family="sans-serif" font-size="13" lengthAdjust="spacing" textLength="188.6206" x="252" y="373.042">Launch coroutines via Scheduler</text></g><!--link F1 to A2--><g id="link_F1_A2"><path codeLine="58" d="M681.24,326.0537 C671.68,338.6137 663,350.0137 663,350.0137 C663,350.0137 481,358.0137 481,358.0137 C481,358.0137 481,377.0137 481,377.0137 C481,377.0137 879,385.0137 879,385.0137 C879,385.0137 901.9539,404.778 926.5439,425.958 " fill="none" id="F1-to-A2" style="stroke:#181818;stroke-width:1.0;"/><polygon fill="#181818" points="931.09,429.8737,926.8813,420.9694,927.3016,426.6106,921.6603,427.0309,931.09,429.8737" style="stroke:#181818;stroke-width:1.0;"/><text fill="#000000" font-family="sans-serif" font-size="13" lengthAdjust="spacing" textLength="166.1816" x="482" y="373.042">Non-blocking I/O via Reactor</text></g><!--link F2 to A1--><g id="link_F2_A1"><path codeLine="59" d="M596.97,296.4137 C492.87,308.9637 86,358.0137 86,358.0137 C86,358.0137 86,377.0137 86,377.0137 C86,377.0137 589.6313,436.4112 754.3513,455.8312 " fill="none" id="F2-to-A1" style="stroke:#181818;stroke-width:1.0;"/><polygon fill="#181818" points="760.31,456.5337,751.8402,451.5074,755.3444,455.9482,750.9036,459.4524,760.31,456.5337" style="stroke:#181818;stroke-width:1.0;"/><text fill="#000000" font-family="sans-serif" font-size="13" lengthAdjust="spacing" textLength="155.3589" x="87" y="373.042">Await coroutine completion</text></g><!--link F3 to A3--><g id="link_F3_A3"><path codeLine="60" d="M1692.8,326.0537 C1703.91,338.6137 1714,350.0137 1714,350.0137 C1714,350.0137 2022,358.0137 2022,358.0137 C2022,358.0137 2022,377.0137 2022,377.0137 C2022,377.0137 1787,385.0137 1787,385.0137 C1787,385.0137 1762.0576,404.9485 1735.5476,426.1285 " fill="none" id="F3-to-A3" style="stroke:#181818;stroke-width:1.0;"/><polygon fill="#181818" points="1730.86,429.8737,1740.3882,427.381,1734.7664,426.7527,1735.3947,421.1309,1730.86,429.8737" style="stroke:#181818;stroke-width:1.0;"/><text fill="#000000" font-family="sans-serif" font-size="13" lengthAdjust="spacing" textLength="164.7725" x="2023" y="373.042">Suspend control in coroutine</text></g><!--link F4 to A4--><g id="link_F4_A4"><path codeLine="61" d="M1475.34,326.0537 C1485.12,338.6137 1494,350.0137 1494,350.0137 C1494,350.0137 1565,358.0137 1565,358.0137 C1565,358.0137 1565,377.0137 1565,377.0137 C1565,377.0137 1552.1798,400.3354 1538.9298,424.4454 " fill="none" id="F4-to-A4" style="stroke:#181818;stroke-width:1.0;"/><polygon fill="#181818" points="1536.04,429.7037,1543.8801,423.7428,1538.4481,425.3218,1536.8691,419.8898,1536.04,429.7037" style="stroke:#181818;stroke-width:1.0;"/><text fill="#000000" font-family="sans-serif" font-size="13" lengthAdjust="spacing" textLength="141.6162" x="1566" y="373.042">Control Scope Hierarchy</text></g><!--link F5 to A5--><g id="link_F5_A5"><path codeLine="62" d="M1357.48,326.1437 C1356.74,342.1437 1356,358.0137 1356,358.0137 C1356,358.0137 1356,377.0137 1356,377.0137 C1356,377.0137 1356.7886,399.5974 1357.6386,423.7074 " fill="none" id="F5-to-A5" style="stroke:#181818;stroke-width:1.0;"/><polygon fill="#181818" points="1357.85,429.7037,1361.5304,420.5683,1357.6738,424.7068,1353.5354,420.8502,1357.85,429.7037" style="stroke:#181818;stroke-width:1.0;"/><text fill="#000000" font-family="sans-serif" font-size="13" lengthAdjust="spacing" textLength="203.7852" x="1357" y="373.042">Context propagation across scopes</text></g><!--link F6 to A6--><g id="link_F6_A6"><path codeLine="63" d="M1194.52,326.1437 C1174.18,342.1437 1154,358.0137 1154,358.0137 C1154,358.0137 1154,377.0137 1154,377.0137 C1154,377.0137 1157.4371,399.662 1161.1071,423.772 " fill="none" id="F6-to-A6" style="stroke:#181818;stroke-width:1.0;"/><polygon fill="#181818" points="1162.01,429.7037,1164.6101,420.2042,1161.2576,424.7606,1156.7012,421.4081,1162.01,429.7037" style="stroke:#181818;stroke-width:1.0;"/><text fill="#000000" font-family="sans-serif" font-size="13" lengthAdjust="spacing" textLength="192.2388" x="1155" y="373.042">Propagate CancellationException</text></g><!--link F8 to A6--><g id="link_F8_A6"><path codeLine="64" d="M827.99,326.1437 C806.41,342.1437 785,358.0137 785,358.0137 C785,358.0137 785,377.0137 785,377.0137 C785,377.0137 1059,385.0137 1059,385.0137 C1059,385.0137 1087.1255,405.1952 1116.6355,426.3752 " fill="none" id="F8-to-A6" style="stroke:#181818;stroke-width:1.0;"/><polygon fill="#181818" points="1121.51,429.8737,1116.5306,421.3763,1117.4479,426.9582,1111.866,427.8755,1121.51,429.8737" style="stroke:#181818;stroke-width:1.0;"/><text fill="#000000" font-family="sans-serif" font-size="13" lengthAdjust="spacing" textLength="164.0615" x="786" y="373.042">Handle uncaught exceptions</text></g><!--link F7 to A4--><g id="link_F7_A4"><path codeLine="65" d="M1909.41,326.0537 C1936.98,338.6137 1962,350.0137 1962,350.0137 C1962,350.0137 2196,358.0137 2196,358.0137 C2196,358.0137 2196,377.0137 2196,377.0137 C2196,377.0137 1594,385.0137 1594,385.0137 C1594,385.0137 1575.1409,404.2397 1554.4309,425.3597 " fill="none" id="F7-to-A4" style="stroke:#181818;stroke-width:1.0;"/><polygon fill="#181818" points="1550.23,429.6437,1559.3873,426.0182,1553.7307,426.0737,1553.6753,420.4171,1550.23,429.6437" style="stroke:#181818;stroke-width:1.0;"/><text fill="#000000" font-family="sans-serif" font-size="13" lengthAdjust="spacing" textLength="222.5679" x="2197" y="373.042">Structured concurrency through Scope</text></g><!--link F12 to A4--><g id="link_F12_A4"><path codeLine="66" d="M1588.55,326.0537 C1601.89,338.6137 1614,350.0137 1614,350.0137 C1614,350.0137 1748,358.0137 1748,358.0137 C1748,358.0137 1748,377.0137 1748,377.0137 C1748,377.0137 1594,385.0137 1594,385.0137 C1594,385.0137 1575.1409,404.2397 1554.4309,425.3597 " fill="none" id="F12-to-A4" style="stroke:#181818;stroke-width:1.0;"/><polygon fill="#181818" points="1550.23,429.6437,1559.3873,426.0182,1553.7307,426.0737,1553.6753,420.4171,1550.23,429.6437" style="stroke:#181818;stroke-width:1.0;"/><text fill="#000000" font-family="sans-serif" font-size="13" lengthAdjust="spacing" textLength="232.6543" x="1749" y="373.042">Structured concurrency with async block</text></g><!--link F9 to A6--><g id="link_F9_A6"><path codeLine="67" d="M1029.2,326.0537 C1010.75,338.6137 994,350.0137 994,350.0137 C994,350.0137 959,358.0137 959,358.0137 C959,358.0137 959,377.0137 959,377.0137 C959,377.0137 1059,385.0137 1059,385.0137 C1059,385.0137 1087.1255,405.1952 1116.6355,426.3752 " fill="none" id="F9-to-A6" style="stroke:#181818;stroke-width:1.0;"/><polygon fill="#181818" points="1121.51,429.8737,1116.5306,421.3763,1117.4479,426.9582,1111.866,427.8755,1121.51,429.8737" style="stroke:#181818;stroke-width:1.0;"/><text fill="#000000" font-family="sans-serif" font-size="13" lengthAdjust="spacing" textLength="185.707" x="960" y="373.042">Graceful shutdown on fatal error</text></g><!--link F10 to A3--><g id="link_F10_A3"><path codeLine="68" d="M2128.05,326.0537 C2151.61,338.6137 2173,350.0137 2173,350.0137 C2173,350.0137 2428,358.0137 2428,358.0137 C2428,358.0137 2428,377.0137 2428,377.0137 C2428,377.0137 1787,385.0137 1787,385.0137 C1787,385.0137 1762.0576,404.9485 1735.5476,426.1285 " fill="none" id="F10-to-A3" style="stroke:#181818;stroke-width:1.0;"/><polygon fill="#181818" points="1730.86,429.8737,1740.3882,427.381,1734.7664,426.7527,1735.3947,421.1309,1730.86,429.8737" style="stroke:#181818;stroke-width:1.0;"/><text fill="#000000" font-family="sans-serif" font-size="13" lengthAdjust="spacing" textLength="211.0088" x="2429" y="373.042">Define coroutine management policy</text></g><!--link F11 to A7--><g id="link_F11_A7"><path codeLine="69" d="M2320.07,302.0837 C2453.36,319.6237 2745,358.0137 2745,358.0137 C2745,358.0137 2745,377.0137 2745,377.0137 C2745,377.0137 2190.6704,432.2487 1975.6304,453.6787 " fill="none" id="F11-to-A7" style="stroke:#181818;stroke-width:1.0;"/><polygon fill="#181818" points="1969.66,454.2737,1979.0123,457.3615,1974.6354,453.7778,1978.219,449.4009,1969.66,454.2737" style="stroke:#181818;stroke-width:1.0;"/><text fill="#000000" font-family="sans-serif" font-size="13" lengthAdjust="spacing" textLength="216.0679" x="2746" y="373.042">Implement zombie coroutine handling</text></g><!--SRC=[XLPBRzGm4BxdLuouSAfAMs210r84JRiIZrMt4X8trpkxiPhOmNRQBeZ_peoTn4wxm1vMQV9bFFCzPkjkbUw45IqqIgFVTmYTQVRyHr4yXu-ufIlmDK8hb8PEo5knGrSC5_1iTRc2QziZb6wl9LnL7vx1hmBeCq6ky4UlBBQelHiVykVg1Dx15wEFRXeZgOyTB8-_mhhlEcDzGfqIQkrjBtrlSGCVZ9QzjQZbFc7E27DjXNOq2nr386jwJwsxX7b9c7DhZGMXgOpG4fj6U6Kqr_JMD0dxYh1y4nyyV1QQnk3kq_FNV9vmjt11vtJSEjTSIzDX0Ys68bGvQmY-AL_JTOR-NSm9gr3mh3EoAYQBnhlNwHOp8-w5IerLJ8JhNOTwasxovFFUgcp0T9Edcl5IhfRfwUAlEZpHh7epSRsofXExM8uvkgGlSjSkOTyIzi8AYTk-WNNT-ut9XpnvmRKUkaP9vO-NRRmuf71rmXnzD-sDmiFF0s71fy5o1yalhQoLHvvIa6wrqBkv4kL9eBF6JT-WdN5KyW5NAAIdoO_X_8wz-CcOBY7E0l53RuUyLKvgmQL2AwYTPFGoD-PIrsYLPy4IuFN4V60QkG-I1-sTSgH10YuES0KhG-pk1rv-Pnl0OhI4grNdO6jD2tcimHiONLjGhe-EtaV7dcjnqo3eHocVC4pODt8mRAbZEVL1PVh6KwdJ26DE8bSPg55RzAh52HNq3Oa4J-5qS4zHcmbEYs9gxPFejQnXIzzXCWAcucw2ic3hcAXZRglb5kAwe9KI82atO7kjUSPm_WJWE4Gv01yaTk6yWhPCUCgQbiuPgOH7s0WlOkCkH9PsJK0j7iscD74U85HfCOp5MHaKmp4oQenCFjpu0XEnv6aslKJu6VsGKMnsIlxR1gFiR863sIcgg7MPaPvQWJibKfecxEcXdmQ63kaggjDKjEGTc7Kj3OsCt6THHHNBJCLHFc8mlLDKKQgGld5fFqvX5GMRXR3BzvkqnhbHb2eA5n8vRa6SxTVpqGi5EMJ23aOXdaI_gttkc6gHcinMiSnMiQzfebqzx7kEnF_UU18IsiXJCzDYTiDY1ffpInPj07dB5EovYU719Kc9Tjfl_6y5hnQsNC2pdtcRnwTFd5UFlnD_0000]--></g></svg>