<svg xmlns="http://www.w3.org/2000/svg" xmlns:xlink="http://www.w3.org/1999/xlink" contentStyleType="text/css" height="544px" preserveAspectRatio="none" style="width:3445px;height:544px;background:#FFFFFF;" version="1.1" viewBox="0 0 3445 544" width="3445px" zoomAndPan="magnify"><defs/><g><!--cluster PHP True Async RFC--><g id="cluster_PHP True Async RFC"><path d="M8.5,6.0137 L151.0859,6.0137 A3.75,3.75 0 0 1 153.5859,8.5137 L160.5859,30.6348 L3435.5,30.6348 A2.5,2.5 0 0 1 3438,33.1348 L3438,534.5137 A2.5,2.5 0 0 1 3435.5,537.0137 L8.5,537.0137 A2.5,2.5 0 0 1 6,534.5137 L6,8.5137 A2.5,2.5 0 0 1 8.5,6.0137 " fill="none" style="stroke:#000000;stroke-width:1.5;"/><line style="stroke:#000000;stroke-width:1.5;" x1="6" x2="160.5859" y1="30.6348" y2="30.6348"/><text fill="#000000" font-family="sans-serif" font-size="14" font-weight="bold" lengthAdjust="spacing" textLength="141.5859" x="10" y="23.1211">PHP True Async RFC</text></g><!--cluster Requirements--><g id="cluster_Requirements"><path d="M688.5,51.0137 L782.8584,51.0137 A3.75,3.75 0 0 1 785.3584,53.5137 L792.3584,75.6348 L2161.5,75.6348 A2.5,2.5 0 0 1 2164,78.1348 L2164,168.5137 A2.5,2.5 0 0 1 2161.5,171.0137 L688.5,171.0137 A2.5,2.5 0 0 1 686,168.5137 L686,53.5137 A2.5,2.5 0 0 1 688.5,51.0137 " fill="none" style="stroke:#000000;stroke-width:1.5;"/><line style="stroke:#000000;stroke-width:1.5;" x1="686" x2="792.3584" y1="75.6348" y2="75.6348"/><text fill="#000000" font-family="sans-serif" font-size="14" font-weight="bold" lengthAdjust="spacing" textLength="93.3584" x="690" y="68.1211">Requirements</text></g><!--cluster Features--><g id="cluster_Features"><path d="M721.5,222.0137 L780.8584,222.0137 A3.75,3.75 0 0 1 783.3584,224.5137 L790.3584,246.6348 L2589.5,246.6348 A2.5,2.5 0 0 1 2592,249.1348 L2592,339.5137 A2.5,2.5 0 0 1 2589.5,342.0137 L721.5,342.0137 A2.5,2.5 0 0 1 719,339.5137 L719,224.5137 A2.5,2.5 0 0 1 721.5,222.0137 " fill="none" style="stroke:#000000;stroke-width:1.5;"/><line style="stroke:#000000;stroke-width:1.5;" x1="719" x2="790.3584" y1="246.6348" y2="246.6348"/><text fill="#000000" font-family="sans-serif" font-size="14" font-weight="bold" lengthAdjust="spacing" textLength="58.3584" x="723" y="239.1211">Features</text></g><!--cluster Architectural Changes--><g id="cluster_Architectural Changes"><path d="M1025.5,393.0137 L1175.8721,393.0137 A3.75,3.75 0 0 1 1178.3721,395.5137 L1185.3721,417.6348 L2262.5,417.6348 A2.5,2.5 0 0 1 2265,420.1348 L2265,510.5137 A2.5,2.5 0 0 1 2262.5,513.0137 L1025.5,513.0137 A2.5,2.5 0 0 1 1023,510.5137 L1023,395.5137 A2.5,2.5 0 0 1 1025.5,393.0137 " fill="none" style="stroke:#000000;stroke-width:1.5;"/><line style="stroke:#000000;stroke-width:1.5;" x1="1023" x2="1185.3721" y1="417.6348" y2="417.6348"/><text fill="#000000" font-family="sans-serif" font-size="14" font-weight="bold" lengthAdjust="spacing" textLength="149.3721" x="1027" y="410.1211">Architectural Changes</text></g><!--class R1--><g id="elem_R1"><rect fill="#F1F1F1" height="66.6211" id="R1" rx="2.5" ry="2.5" style="stroke:#181818;stroke-width:0.5;" width="169.1924" x="702.5" y="88.0137"/><ellipse cx="773.8979" cy="104.0137" fill="#ADD1B2" rx="11" ry="11" style="stroke:#181818;stroke-width:1.0;"/><path d="M776.6636,99.8887 Q776.8198,99.6699 777.0073,99.5605 Q777.1948,99.4512 777.4136,99.4512 Q777.7886,99.4512 778.0229,99.7168 Q778.2573,99.9668 778.2573,100.5762 L778.2573,102.0293 Q778.2573,102.6387 778.0229,102.9043 Q777.7886,103.1699 777.4136,103.1699 Q777.0698,103.1699 776.8667,102.9668 Q776.6636,102.7793 776.5542,102.2637 Q776.5073,101.9043 776.3198,101.7168 Q775.9917,101.3418 775.3823,101.123 Q774.7729,100.9043 774.1479,100.9043 Q773.3823,100.9043 772.7417,101.2324 Q772.1167,101.5605 771.6167,102.3105 Q771.1323,103.0605 771.1323,104.0918 L771.1323,105.1855 Q771.1323,106.4199 772.0229,107.248 Q772.9136,108.0605 774.5073,108.0605 Q775.4448,108.0605 776.1011,107.8105 Q776.4917,107.6543 776.9136,107.2168 Q777.1792,106.9512 777.3198,106.873 Q777.4761,106.7949 777.6792,106.7949 Q778.0073,106.7949 778.2573,107.0605 Q778.5229,107.3105 778.5229,107.6543 Q778.5229,107.998 778.1792,108.4043 Q777.6792,108.9824 776.8823,109.3105 Q775.8042,109.7637 774.5073,109.7637 Q772.9917,109.7637 771.7886,109.1387 Q770.8042,108.6387 770.1167,107.5762 Q769.4292,106.498 769.4292,105.2168 L769.4292,104.0605 Q769.4292,102.7324 770.0386,101.5918 Q770.6636,100.4355 771.7573,99.8262 Q772.8511,99.2012 774.0854,99.2012 Q774.8198,99.2012 775.4604,99.373 Q776.1167,99.5293 776.6636,99.8887 Z " fill="#000000"/><text fill="#000000" font-family="sans-serif" font-size="14" lengthAdjust="spacing" textLength="17.8965" x="794.3979" y="109.8105">R1</text><line style="stroke:#181818;stroke-width:0.5;" x1="703.5" x2="870.6924" y1="120.0137" y2="120.0137"/><text fill="#000000" font-family="sans-serif" font-size="14" lengthAdjust="spacing" textLength="157.1924" x="708.5" y="139.1211">Non-blocking I/O Support</text><line style="stroke:#181818;stroke-width:0.5;" x1="703.5" x2="870.6924" y1="146.6348" y2="146.6348"/></g><!--class R2--><g id="elem_R2"><rect fill="#F1F1F1" height="66.6211" id="R2" rx="2.5" ry="2.5" style="stroke:#181818;stroke-width:0.5;" width="159.8408" x="1729" y="88.0137"/><ellipse cx="1795.7222" cy="104.0137" fill="#ADD1B2" rx="11" ry="11" style="stroke:#181818;stroke-width:1.0;"/><path d="M1798.4878,99.8887 Q1798.644,99.6699 1798.8315,99.5605 Q1799.019,99.4512 1799.2378,99.4512 Q1799.6128,99.4512 1799.8472,99.7168 Q1800.0815,99.9668 1800.0815,100.5762 L1800.0815,102.0293 Q1800.0815,102.6387 1799.8472,102.9043 Q1799.6128,103.1699 1799.2378,103.1699 Q1798.894,103.1699 1798.6909,102.9668 Q1798.4878,102.7793 1798.3784,102.2637 Q1798.3315,101.9043 1798.144,101.7168 Q1797.8159,101.3418 1797.2065,101.123 Q1796.5972,100.9043 1795.9722,100.9043 Q1795.2065,100.9043 1794.5659,101.2324 Q1793.9409,101.5605 1793.4409,102.3105 Q1792.9565,103.0605 1792.9565,104.0918 L1792.9565,105.1855 Q1792.9565,106.4199 1793.8472,107.248 Q1794.7378,108.0605 1796.3315,108.0605 Q1797.269,108.0605 1797.9253,107.8105 Q1798.3159,107.6543 1798.7378,107.2168 Q1799.0034,106.9512 1799.144,106.873 Q1799.3003,106.7949 1799.5034,106.7949 Q1799.8315,106.7949 1800.0815,107.0605 Q1800.3472,107.3105 1800.3472,107.6543 Q1800.3472,107.998 1800.0034,108.4043 Q1799.5034,108.9824 1798.7065,109.3105 Q1797.6284,109.7637 1796.3315,109.7637 Q1794.8159,109.7637 1793.6128,109.1387 Q1792.6284,108.6387 1791.9409,107.5762 Q1791.2534,106.498 1791.2534,105.2168 L1791.2534,104.0605 Q1791.2534,102.7324 1791.8628,101.5918 Q1792.4878,100.4355 1793.5815,99.8262 Q1794.6753,99.2012 1795.9097,99.2012 Q1796.644,99.2012 1797.2847,99.373 Q1797.9409,99.5293 1798.4878,99.8887 Z " fill="#000000"/><text fill="#000000" font-family="sans-serif" font-size="14" lengthAdjust="spacing" textLength="17.8965" x="1816.2222" y="109.8105">R2</text><line style="stroke:#181818;stroke-width:0.5;" x1="1730" x2="1887.8408" y1="120.0137" y2="120.0137"/><text fill="#000000" font-family="sans-serif" font-size="14" lengthAdjust="spacing" textLength="147.8408" x="1735" y="139.1211">Structured Concurrency</text><line style="stroke:#181818;stroke-width:0.5;" x1="1730" x2="1887.8408" y1="146.6348" y2="146.6348"/></g><!--class R3--><g id="elem_R3"><rect fill="#F1F1F1" height="66.6211" id="R3" rx="2.5" ry="2.5" style="stroke:#181818;stroke-width:0.5;" width="159.0752" x="1142.5" y="88.0137"/><ellipse cx="1208.8394" cy="104.0137" fill="#ADD1B2" rx="11" ry="11" style="stroke:#181818;stroke-width:1.0;"/><path d="M1211.605,99.8887 Q1211.7612,99.6699 1211.9487,99.5605 Q1212.1362,99.4512 1212.355,99.4512 Q1212.73,99.4512 1212.9644,99.7168 Q1213.1987,99.9668 1213.1987,100.5762 L1213.1987,102.0293 Q1213.1987,102.6387 1212.9644,102.9043 Q1212.73,103.1699 1212.355,103.1699 Q1212.0112,103.1699 1211.8081,102.9668 Q1211.605,102.7793 1211.4956,102.2637 Q1211.4487,101.9043 1211.2612,101.7168 Q1210.9331,101.3418 1210.3237,101.123 Q1209.7144,100.9043 1209.0894,100.9043 Q1208.3237,100.9043 1207.6831,101.2324 Q1207.0581,101.5605 1206.5581,102.3105 Q1206.0737,103.0605 1206.0737,104.0918 L1206.0737,105.1855 Q1206.0737,106.4199 1206.9644,107.248 Q1207.855,108.0605 1209.4487,108.0605 Q1210.3862,108.0605 1211.0425,107.8105 Q1211.4331,107.6543 1211.855,107.2168 Q1212.1206,106.9512 1212.2612,106.873 Q1212.4175,106.7949 1212.6206,106.7949 Q1212.9487,106.7949 1213.1987,107.0605 Q1213.4644,107.3105 1213.4644,107.6543 Q1213.4644,107.998 1213.1206,108.4043 Q1212.6206,108.9824 1211.8237,109.3105 Q1210.7456,109.7637 1209.4487,109.7637 Q1207.9331,109.7637 1206.73,109.1387 Q1205.7456,108.6387 1205.0581,107.5762 Q1204.3706,106.498 1204.3706,105.2168 L1204.3706,104.0605 Q1204.3706,102.7324 1204.98,101.5918 Q1205.605,100.4355 1206.6987,99.8262 Q1207.7925,99.2012 1209.0269,99.2012 Q1209.7612,99.2012 1210.4019,99.373 Q1211.0581,99.5293 1211.605,99.8887 Z " fill="#000000"/><text fill="#000000" font-family="sans-serif" font-size="14" lengthAdjust="spacing" textLength="17.8965" x="1229.3394" y="109.8105">R3</text><line style="stroke:#181818;stroke-width:0.5;" x1="1143.5" x2="1300.5752" y1="120.0137" y2="120.0137"/><text fill="#000000" font-family="sans-serif" font-size="14" lengthAdjust="spacing" textLength="147.0752" x="1148.5" y="139.1211">Transparent Coroutines</text><line style="stroke:#181818;stroke-width:0.5;" x1="1143.5" x2="1300.5752" y1="146.6348" y2="146.6348"/></g><!--class R4--><g id="elem_R4"><rect fill="#F1F1F1" height="66.6211" id="R4" rx="2.5" ry="2.5" style="stroke:#181818;stroke-width:0.5;" width="200.3164" x="907" y="88.0137"/><ellipse cx="993.96" cy="104.0137" fill="#ADD1B2" rx="11" ry="11" style="stroke:#181818;stroke-width:1.0;"/><path d="M996.7256,99.8887 Q996.8818,99.6699 997.0693,99.5605 Q997.2568,99.4512 997.4756,99.4512 Q997.8506,99.4512 998.085,99.7168 Q998.3193,99.9668 998.3193,100.5762 L998.3193,102.0293 Q998.3193,102.6387 998.085,102.9043 Q997.8506,103.1699 997.4756,103.1699 Q997.1318,103.1699 996.9287,102.9668 Q996.7256,102.7793 996.6162,102.2637 Q996.5693,101.9043 996.3818,101.7168 Q996.0537,101.3418 995.4443,101.123 Q994.835,100.9043 994.21,100.9043 Q993.4443,100.9043 992.8037,101.2324 Q992.1787,101.5605 991.6787,102.3105 Q991.1943,103.0605 991.1943,104.0918 L991.1943,105.1855 Q991.1943,106.4199 992.085,107.248 Q992.9756,108.0605 994.5693,108.0605 Q995.5068,108.0605 996.1631,107.8105 Q996.5537,107.6543 996.9756,107.2168 Q997.2412,106.9512 997.3818,106.873 Q997.5381,106.7949 997.7412,106.7949 Q998.0693,106.7949 998.3193,107.0605 Q998.585,107.3105 998.585,107.6543 Q998.585,107.998 998.2412,108.4043 Q997.7412,108.9824 996.9443,109.3105 Q995.8662,109.7637 994.5693,109.7637 Q993.0537,109.7637 991.8506,109.1387 Q990.8662,108.6387 990.1787,107.5762 Q989.4912,106.498 989.4912,105.2168 L989.4912,104.0605 Q989.4912,102.7324 990.1006,101.5918 Q990.7256,100.4355 991.8193,99.8262 Q992.9131,99.2012 994.1475,99.2012 Q994.8818,99.2012 995.5225,99.373 Q996.1787,99.5293 996.7256,99.8887 Z " fill="#000000"/><text fill="#000000" font-family="sans-serif" font-size="14" lengthAdjust="spacing" textLength="17.8965" x="1014.46" y="109.8105">R4</text><line style="stroke:#181818;stroke-width:0.5;" x1="908" x2="1106.3164" y1="120.0137" y2="120.0137"/><text fill="#000000" font-family="sans-serif" font-size="14" lengthAdjust="spacing" textLength="188.3164" x="913" y="139.1211">Error and Cancellation Control</text><line style="stroke:#181818;stroke-width:0.5;" x1="908" x2="1106.3164" y1="146.6348" y2="146.6348"/></g><!--class R5--><g id="elem_R5"><rect fill="#F1F1F1" height="66.6211" id="R5" rx="2.5" ry="2.5" style="stroke:#181818;stroke-width:0.5;" width="145.8545" x="1337" y="88.0137"/><ellipse cx="1396.729" cy="104.0137" fill="#ADD1B2" rx="11" ry="11" style="stroke:#181818;stroke-width:1.0;"/><path d="M1399.4946,99.8887 Q1399.6509,99.6699 1399.8384,99.5605 Q1400.0259,99.4512 1400.2446,99.4512 Q1400.6196,99.4512 1400.854,99.7168 Q1401.0884,99.9668 1401.0884,100.5762 L1401.0884,102.0293 Q1401.0884,102.6387 1400.854,102.9043 Q1400.6196,103.1699 1400.2446,103.1699 Q1399.9009,103.1699 1399.6978,102.9668 Q1399.4946,102.7793 1399.3853,102.2637 Q1399.3384,101.9043 1399.1509,101.7168 Q1398.8228,101.3418 1398.2134,101.123 Q1397.604,100.9043 1396.979,100.9043 Q1396.2134,100.9043 1395.5728,101.2324 Q1394.9478,101.5605 1394.4478,102.3105 Q1393.9634,103.0605 1393.9634,104.0918 L1393.9634,105.1855 Q1393.9634,106.4199 1394.854,107.248 Q1395.7446,108.0605 1397.3384,108.0605 Q1398.2759,108.0605 1398.9321,107.8105 Q1399.3228,107.6543 1399.7446,107.2168 Q1400.0103,106.9512 1400.1509,106.873 Q1400.3071,106.7949 1400.5103,106.7949 Q1400.8384,106.7949 1401.0884,107.0605 Q1401.354,107.3105 1401.354,107.6543 Q1401.354,107.998 1401.0103,108.4043 Q1400.5103,108.9824 1399.7134,109.3105 Q1398.6353,109.7637 1397.3384,109.7637 Q1395.8228,109.7637 1394.6196,109.1387 Q1393.6353,108.6387 1392.9478,107.5762 Q1392.2603,106.498 1392.2603,105.2168 L1392.2603,104.0605 Q1392.2603,102.7324 1392.8696,101.5918 Q1393.4946,100.4355 1394.5884,99.8262 Q1395.6821,99.2012 1396.9165,99.2012 Q1397.6509,99.2012 1398.2915,99.373 Q1398.9478,99.5293 1399.4946,99.8887 Z " fill="#000000"/><text fill="#000000" font-family="sans-serif" font-size="14" lengthAdjust="spacing" textLength="17.8965" x="1417.229" y="109.8105">R5</text><line style="stroke:#181818;stroke-width:0.5;" x1="1338" x2="1481.8545" y1="120.0137" y2="120.0137"/><text fill="#000000" font-family="sans-serif" font-size="14" lengthAdjust="spacing" textLength="133.8545" x="1343" y="139.1211">Context Management</text><line style="stroke:#181818;stroke-width:0.5;" x1="1338" x2="1481.8545" y1="146.6348" y2="146.6348"/></g><!--class R6--><g id="elem_R6"><rect fill="#F1F1F1" height="66.6211" id="R6" rx="2.5" ry="2.5" style="stroke:#181818;stroke-width:0.5;" width="174.6543" x="1518.5" y="88.0137"/><ellipse cx="1592.6289" cy="104.0137" fill="#ADD1B2" rx="11" ry="11" style="stroke:#181818;stroke-width:1.0;"/><path d="M1595.3945,99.8887 Q1595.5508,99.6699 1595.7383,99.5605 Q1595.9258,99.4512 1596.1445,99.4512 Q1596.5195,99.4512 1596.7539,99.7168 Q1596.9883,99.9668 1596.9883,100.5762 L1596.9883,102.0293 Q1596.9883,102.6387 1596.7539,102.9043 Q1596.5195,103.1699 1596.1445,103.1699 Q1595.8008,103.1699 1595.5977,102.9668 Q1595.3945,102.7793 1595.2852,102.2637 Q1595.2383,101.9043 1595.0508,101.7168 Q1594.7227,101.3418 1594.1133,101.123 Q1593.5039,100.9043 1592.8789,100.9043 Q1592.1133,100.9043 1591.4727,101.2324 Q1590.8477,101.5605 1590.3477,102.3105 Q1589.8633,103.0605 1589.8633,104.0918 L1589.8633,105.1855 Q1589.8633,106.4199 1590.7539,107.248 Q1591.6445,108.0605 1593.2383,108.0605 Q1594.1758,108.0605 1594.832,107.8105 Q1595.2227,107.6543 1595.6445,107.2168 Q1595.9102,106.9512 1596.0508,106.873 Q1596.207,106.7949 1596.4102,106.7949 Q1596.7383,106.7949 1596.9883,107.0605 Q1597.2539,107.3105 1597.2539,107.6543 Q1597.2539,107.998 1596.9102,108.4043 Q1596.4102,108.9824 1595.6133,109.3105 Q1594.5352,109.7637 1593.2383,109.7637 Q1591.7227,109.7637 1590.5195,109.1387 Q1589.5352,108.6387 1588.8477,107.5762 Q1588.1602,106.498 1588.1602,105.2168 L1588.1602,104.0605 Q1588.1602,102.7324 1588.7695,101.5918 Q1589.3945,100.4355 1590.4883,99.8262 Q1591.582,99.2012 1592.8164,99.2012 Q1593.5508,99.2012 1594.1914,99.373 Q1594.8477,99.5293 1595.3945,99.8887 Z " fill="#000000"/><text fill="#000000" font-family="sans-serif" font-size="14" lengthAdjust="spacing" textLength="17.8965" x="1613.1289" y="109.8105">R6</text><line style="stroke:#181818;stroke-width:0.5;" x1="1519.5" x2="1692.1543" y1="120.0137" y2="120.0137"/><text fill="#000000" font-family="sans-serif" font-size="14" lengthAdjust="spacing" textLength="162.6543" x="1524.5" y="139.1211">Task Grouping and Scope</text><line style="stroke:#181818;stroke-width:0.5;" x1="1519.5" x2="1692.1543" y1="146.6348" y2="146.6348"/></g><!--class R7--><g id="elem_R7"><rect fill="#F1F1F1" height="66.6211" id="R7" rx="2.5" ry="2.5" style="stroke:#181818;stroke-width:0.5;" width="223.6611" x="1924" y="88.0137"/><ellipse cx="2022.6323" cy="104.0137" fill="#ADD1B2" rx="11" ry="11" style="stroke:#181818;stroke-width:1.0;"/><path d="M2025.3979,99.8887 Q2025.5542,99.6699 2025.7417,99.5605 Q2025.9292,99.4512 2026.1479,99.4512 Q2026.5229,99.4512 2026.7573,99.7168 Q2026.9917,99.9668 2026.9917,100.5762 L2026.9917,102.0293 Q2026.9917,102.6387 2026.7573,102.9043 Q2026.5229,103.1699 2026.1479,103.1699 Q2025.8042,103.1699 2025.6011,102.9668 Q2025.3979,102.7793 2025.2886,102.2637 Q2025.2417,101.9043 2025.0542,101.7168 Q2024.7261,101.3418 2024.1167,101.123 Q2023.5073,100.9043 2022.8823,100.9043 Q2022.1167,100.9043 2021.4761,101.2324 Q2020.8511,101.5605 2020.3511,102.3105 Q2019.8667,103.0605 2019.8667,104.0918 L2019.8667,105.1855 Q2019.8667,106.4199 2020.7573,107.248 Q2021.6479,108.0605 2023.2417,108.0605 Q2024.1792,108.0605 2024.8354,107.8105 Q2025.2261,107.6543 2025.6479,107.2168 Q2025.9136,106.9512 2026.0542,106.873 Q2026.2104,106.7949 2026.4136,106.7949 Q2026.7417,106.7949 2026.9917,107.0605 Q2027.2573,107.3105 2027.2573,107.6543 Q2027.2573,107.998 2026.9136,108.4043 Q2026.4136,108.9824 2025.6167,109.3105 Q2024.5386,109.7637 2023.2417,109.7637 Q2021.7261,109.7637 2020.5229,109.1387 Q2019.5386,108.6387 2018.8511,107.5762 Q2018.1636,106.498 2018.1636,105.2168 L2018.1636,104.0605 Q2018.1636,102.7324 2018.7729,101.5918 Q2019.3979,100.4355 2020.4917,99.8262 Q2021.5854,99.2012 2022.8198,99.2012 Q2023.5542,99.2012 2024.1948,99.373 Q2024.8511,99.5293 2025.3979,99.8887 Z " fill="#000000"/><text fill="#000000" font-family="sans-serif" font-size="14" lengthAdjust="spacing" textLength="17.8965" x="2043.1323" y="109.8105">R7</text><line style="stroke:#181818;stroke-width:0.5;" x1="1925" x2="2146.6611" y1="120.0137" y2="120.0137"/><text fill="#000000" font-family="sans-serif" font-size="14" lengthAdjust="spacing" textLength="211.6611" x="1930" y="139.1211">Control Coroutines Without Scope</text><line style="stroke:#181818;stroke-width:0.5;" x1="1925" x2="2146.6611" y1="146.6348" y2="146.6348"/></g><!--class F1--><g id="elem_F1"><rect fill="#F1F1F1" height="66.6211" id="F1" rx="2.5" ry="2.5" style="stroke:#181818;stroke-width:0.5;" width="52.4688" x="818" y="259.0137"/><ellipse cx="834.8589" cy="275.0137" fill="#ADD1B2" rx="11" ry="11" style="stroke:#181818;stroke-width:1.0;"/><path d="M837.6245,270.8887 Q837.7808,270.6699 837.9683,270.5605 Q838.1558,270.4512 838.3745,270.4512 Q838.7495,270.4512 838.9839,270.7168 Q839.2183,270.9668 839.2183,271.5762 L839.2183,273.0293 Q839.2183,273.6387 838.9839,273.9043 Q838.7495,274.1699 838.3745,274.1699 Q838.0308,274.1699 837.8276,273.9668 Q837.6245,273.7793 837.5151,273.2637 Q837.4683,272.9043 837.2808,272.7168 Q836.9526,272.3418 836.3433,272.123 Q835.7339,271.9043 835.1089,271.9043 Q834.3433,271.9043 833.7026,272.2324 Q833.0776,272.5605 832.5776,273.3105 Q832.0933,274.0605 832.0933,275.0918 L832.0933,276.1855 Q832.0933,277.4199 832.9839,278.248 Q833.8745,279.0605 835.4683,279.0605 Q836.4058,279.0605 837.062,278.8105 Q837.4526,278.6543 837.8745,278.2168 Q838.1401,277.9512 838.2808,277.873 Q838.437,277.7949 838.6401,277.7949 Q838.9683,277.7949 839.2183,278.0605 Q839.4839,278.3105 839.4839,278.6543 Q839.4839,278.998 839.1401,279.4043 Q838.6401,279.9824 837.8433,280.3105 Q836.7651,280.7637 835.4683,280.7637 Q833.9526,280.7637 832.7495,280.1387 Q831.7651,279.6387 831.0776,278.5762 Q830.3901,277.498 830.3901,276.2168 L830.3901,275.0605 Q830.3901,273.7324 830.9995,272.5918 Q831.6245,271.4355 832.7183,270.8262 Q833.812,270.2012 835.0464,270.2012 Q835.7808,270.2012 836.4214,270.373 Q837.0776,270.5293 837.6245,270.8887 Z " fill="#000000"/><text fill="#000000" font-family="sans-serif" font-size="14" lengthAdjust="spacing" textLength="16.3379" x="849.272" y="280.8105">F1</text><line style="stroke:#181818;stroke-width:0.5;" x1="819" x2="869.4688" y1="291.0137" y2="291.0137"/><text fill="#000000" font-family="sans-serif" font-size="14" lengthAdjust="spacing" textLength="40.4688" x="824" y="310.1211">spawn</text><line style="stroke:#181818;stroke-width:0.5;" x1="819" x2="869.4688" y1="317.6348" y2="317.6348"/></g><!--class F2--><g id="elem_F2"><rect fill="#F1F1F1" height="66.6211" id="F2" rx="2.5" ry="2.5" style="stroke:#181818;stroke-width:0.5;" width="48.3379" x="735" y="259.0137"/><ellipse cx="750" cy="275.0137" fill="#ADD1B2" rx="11" ry="11" style="stroke:#181818;stroke-width:1.0;"/><path d="M752.7656,270.8887 Q752.9219,270.6699 753.1094,270.5605 Q753.2969,270.4512 753.5156,270.4512 Q753.8906,270.4512 754.125,270.7168 Q754.3594,270.9668 754.3594,271.5762 L754.3594,273.0293 Q754.3594,273.6387 754.125,273.9043 Q753.8906,274.1699 753.5156,274.1699 Q753.1719,274.1699 752.9688,273.9668 Q752.7656,273.7793 752.6563,273.2637 Q752.6094,272.9043 752.4219,272.7168 Q752.0938,272.3418 751.4844,272.123 Q750.875,271.9043 750.25,271.9043 Q749.4844,271.9043 748.8438,272.2324 Q748.2188,272.5605 747.7188,273.3105 Q747.2344,274.0605 747.2344,275.0918 L747.2344,276.1855 Q747.2344,277.4199 748.125,278.248 Q749.0156,279.0605 750.6094,279.0605 Q751.5469,279.0605 752.2031,278.8105 Q752.5938,278.6543 753.0156,278.2168 Q753.2813,277.9512 753.4219,277.873 Q753.5781,277.7949 753.7813,277.7949 Q754.1094,277.7949 754.3594,278.0605 Q754.625,278.3105 754.625,278.6543 Q754.625,278.998 754.2813,279.4043 Q753.7813,279.9824 752.9844,280.3105 Q751.9063,280.7637 750.6094,280.7637 Q749.0938,280.7637 747.8906,280.1387 Q746.9063,279.6387 746.2188,278.5762 Q745.5313,277.498 745.5313,276.2168 L745.5313,275.0605 Q745.5313,273.7324 746.1406,272.5918 Q746.7656,271.4355 747.8594,270.8262 Q748.9531,270.2012 750.1875,270.2012 Q750.9219,270.2012 751.5625,270.373 Q752.2188,270.5293 752.7656,270.8887 Z " fill="#000000"/><text fill="#000000" font-family="sans-serif" font-size="14" lengthAdjust="spacing" textLength="16.3379" x="764" y="280.8105">F2</text><line style="stroke:#181818;stroke-width:0.5;" x1="736" x2="782.3379" y1="291.0137" y2="291.0137"/><text fill="#000000" font-family="sans-serif" font-size="14" lengthAdjust="spacing" textLength="32.6826" x="741" y="310.1211">await</text><line style="stroke:#181818;stroke-width:0.5;" x1="736" x2="782.3379" y1="317.6348" y2="317.6348"/></g><!--class F3--><g id="elem_F3"><rect fill="#F1F1F1" height="66.6211" id="F3" rx="2.5" ry="2.5" style="stroke:#181818;stroke-width:0.5;" width="64.9307" x="2047.5" y="259.0137"/><ellipse cx="2069.9667" cy="275.0137" fill="#ADD1B2" rx="11" ry="11" style="stroke:#181818;stroke-width:1.0;"/><path d="M2072.7324,270.8887 Q2072.8886,270.6699 2073.0761,270.5605 Q2073.2636,270.4512 2073.4824,270.4512 Q2073.8574,270.4512 2074.0917,270.7168 Q2074.3261,270.9668 2074.3261,271.5762 L2074.3261,273.0293 Q2074.3261,273.6387 2074.0917,273.9043 Q2073.8574,274.1699 2073.4824,274.1699 Q2073.1386,274.1699 2072.9355,273.9668 Q2072.7324,273.7793 2072.623,273.2637 Q2072.5761,272.9043 2072.3886,272.7168 Q2072.0605,272.3418 2071.4511,272.123 Q2070.8417,271.9043 2070.2167,271.9043 Q2069.4511,271.9043 2068.8105,272.2324 Q2068.1855,272.5605 2067.6855,273.3105 Q2067.2011,274.0605 2067.2011,275.0918 L2067.2011,276.1855 Q2067.2011,277.4199 2068.0917,278.248 Q2068.9824,279.0605 2070.5761,279.0605 Q2071.5136,279.0605 2072.1699,278.8105 Q2072.5605,278.6543 2072.9824,278.2168 Q2073.248,277.9512 2073.3886,277.873 Q2073.5449,277.7949 2073.748,277.7949 Q2074.0761,277.7949 2074.3261,278.0605 Q2074.5917,278.3105 2074.5917,278.6543 Q2074.5917,278.998 2074.248,279.4043 Q2073.748,279.9824 2072.9511,280.3105 Q2071.873,280.7637 2070.5761,280.7637 Q2069.0605,280.7637 2067.8574,280.1387 Q2066.873,279.6387 2066.1855,278.5762 Q2065.498,277.498 2065.498,276.2168 L2065.498,275.0605 Q2065.498,273.7324 2066.1074,272.5918 Q2066.7324,271.4355 2067.8261,270.8262 Q2068.9199,270.2012 2070.1542,270.2012 Q2070.8886,270.2012 2071.5292,270.373 Q2072.1855,270.5293 2072.7324,270.8887 Z " fill="#000000"/><text fill="#000000" font-family="sans-serif" font-size="14" lengthAdjust="spacing" textLength="16.3379" x="2085.626" y="280.8105">F3</text><line style="stroke:#181818;stroke-width:0.5;" x1="2048.5" x2="2111.4307" y1="291.0137" y2="291.0137"/><text fill="#000000" font-family="sans-serif" font-size="14" lengthAdjust="spacing" textLength="52.9307" x="2053.5" y="310.1211">suspend</text><line style="stroke:#181818;stroke-width:0.5;" x1="2048.5" x2="2111.4307" y1="317.6348" y2="317.6348"/></g><!--class F4--><g id="elem_F4"><rect fill="#F1F1F1" height="66.6211" id="F4" rx="2.5" ry="2.5" style="stroke:#181818;stroke-width:0.5;" width="51.6963" x="2148" y="259.0137"/><ellipse cx="2164.5113" cy="275.0137" fill="#ADD1B2" rx="11" ry="11" style="stroke:#181818;stroke-width:1.0;"/><path d="M2167.2769,270.8887 Q2167.4332,270.6699 2167.6207,270.5605 Q2167.8082,270.4512 2168.0269,270.4512 Q2168.4019,270.4512 2168.6363,270.7168 Q2168.8707,270.9668 2168.8707,271.5762 L2168.8707,273.0293 Q2168.8707,273.6387 2168.6363,273.9043 Q2168.4019,274.1699 2168.0269,274.1699 Q2167.6832,274.1699 2167.48,273.9668 Q2167.2769,273.7793 2167.1675,273.2637 Q2167.1207,272.9043 2166.9332,272.7168 Q2166.605,272.3418 2165.9957,272.123 Q2165.3863,271.9043 2164.7613,271.9043 Q2163.9957,271.9043 2163.355,272.2324 Q2162.73,272.5605 2162.23,273.3105 Q2161.7457,274.0605 2161.7457,275.0918 L2161.7457,276.1855 Q2161.7457,277.4199 2162.6363,278.248 Q2163.5269,279.0605 2165.1207,279.0605 Q2166.0582,279.0605 2166.7144,278.8105 Q2167.105,278.6543 2167.5269,278.2168 Q2167.7925,277.9512 2167.9332,277.873 Q2168.0894,277.7949 2168.2925,277.7949 Q2168.6207,277.7949 2168.8707,278.0605 Q2169.1363,278.3105 2169.1363,278.6543 Q2169.1363,278.998 2168.7925,279.4043 Q2168.2925,279.9824 2167.4957,280.3105 Q2166.4175,280.7637 2165.1207,280.7637 Q2163.605,280.7637 2162.4019,280.1387 Q2161.4175,279.6387 2160.73,278.5762 Q2160.0425,277.498 2160.0425,276.2168 L2160.0425,275.0605 Q2160.0425,273.7324 2160.6519,272.5918 Q2161.2769,271.4355 2162.3707,270.8262 Q2163.4644,270.2012 2164.6988,270.2012 Q2165.4332,270.2012 2166.0738,270.373 Q2166.73,270.5293 2167.2769,270.8887 Z " fill="#000000"/><text fill="#000000" font-family="sans-serif" font-size="14" lengthAdjust="spacing" textLength="16.3379" x="2178.8471" y="280.8105">F4</text><line style="stroke:#181818;stroke-width:0.5;" x1="2149" x2="2198.6963" y1="291.0137" y2="291.0137"/><text fill="#000000" font-family="sans-serif" font-size="14" lengthAdjust="spacing" textLength="39.6963" x="2154" y="310.1211">Scope</text><line style="stroke:#181818;stroke-width:0.5;" x1="2149" x2="2198.6963" y1="317.6348" y2="317.6348"/></g><!--class F5--><g id="elem_F5"><rect fill="#F1F1F1" height="66.6211" id="F5" rx="2.5" ry="2.5" style="stroke:#181818;stroke-width:0.5;" width="60.248" x="1468" y="259.0137"/><ellipse cx="1488.3596" cy="275.0137" fill="#ADD1B2" rx="11" ry="11" style="stroke:#181818;stroke-width:1.0;"/><path d="M1491.1252,270.8887 Q1491.2814,270.6699 1491.4689,270.5605 Q1491.6564,270.4512 1491.8752,270.4512 Q1492.2502,270.4512 1492.4846,270.7168 Q1492.7189,270.9668 1492.7189,271.5762 L1492.7189,273.0293 Q1492.7189,273.6387 1492.4846,273.9043 Q1492.2502,274.1699 1491.8752,274.1699 Q1491.5314,274.1699 1491.3283,273.9668 Q1491.1252,273.7793 1491.0158,273.2637 Q1490.9689,272.9043 1490.7814,272.7168 Q1490.4533,272.3418 1489.8439,272.123 Q1489.2346,271.9043 1488.6096,271.9043 Q1487.8439,271.9043 1487.2033,272.2324 Q1486.5783,272.5605 1486.0783,273.3105 Q1485.5939,274.0605 1485.5939,275.0918 L1485.5939,276.1855 Q1485.5939,277.4199 1486.4846,278.248 Q1487.3752,279.0605 1488.9689,279.0605 Q1489.9064,279.0605 1490.5627,278.8105 Q1490.9533,278.6543 1491.3752,278.2168 Q1491.6408,277.9512 1491.7814,277.873 Q1491.9377,277.7949 1492.1408,277.7949 Q1492.4689,277.7949 1492.7189,278.0605 Q1492.9846,278.3105 1492.9846,278.6543 Q1492.9846,278.998 1492.6408,279.4043 Q1492.1408,279.9824 1491.3439,280.3105 Q1490.2658,280.7637 1488.9689,280.7637 Q1487.4533,280.7637 1486.2502,280.1387 Q1485.2658,279.6387 1484.5783,278.5762 Q1483.8908,277.498 1483.8908,276.2168 L1483.8908,275.0605 Q1483.8908,273.7324 1484.5002,272.5918 Q1485.1252,271.4355 1486.2189,270.8262 Q1487.3127,270.2012 1488.5471,270.2012 Q1489.2814,270.2012 1489.9221,270.373 Q1490.5783,270.5293 1491.1252,270.8887 Z " fill="#000000"/><text fill="#000000" font-family="sans-serif" font-size="14" lengthAdjust="spacing" textLength="16.3379" x="1503.5506" y="280.8105">F5</text><line style="stroke:#181818;stroke-width:0.5;" x1="1469" x2="1527.248" y1="291.0137" y2="291.0137"/><text fill="#000000" font-family="sans-serif" font-size="14" lengthAdjust="spacing" textLength="48.248" x="1474" y="310.1211">Context</text><line style="stroke:#181818;stroke-width:0.5;" x1="1469" x2="1527.248" y1="317.6348" y2="317.6348"/></g><!--class F6--><g id="elem_F6"><rect fill="#F1F1F1" height="66.6211" id="F6" rx="2.5" ry="2.5" style="stroke:#181818;stroke-width:0.5;" width="115.5029" x="1150" y="259.0137"/><ellipse cx="1195.3325" cy="275.0137" fill="#ADD1B2" rx="11" ry="11" style="stroke:#181818;stroke-width:1.0;"/><path d="M1198.0981,270.8887 Q1198.2544,270.6699 1198.4419,270.5605 Q1198.6294,270.4512 1198.8481,270.4512 Q1199.2231,270.4512 1199.4575,270.7168 Q1199.6919,270.9668 1199.6919,271.5762 L1199.6919,273.0293 Q1199.6919,273.6387 1199.4575,273.9043 Q1199.2231,274.1699 1198.8481,274.1699 Q1198.5044,274.1699 1198.3013,273.9668 Q1198.0981,273.7793 1197.9888,273.2637 Q1197.9419,272.9043 1197.7544,272.7168 Q1197.4263,272.3418 1196.8169,272.123 Q1196.2075,271.9043 1195.5825,271.9043 Q1194.8169,271.9043 1194.1763,272.2324 Q1193.5513,272.5605 1193.0513,273.3105 Q1192.5669,274.0605 1192.5669,275.0918 L1192.5669,276.1855 Q1192.5669,277.4199 1193.4575,278.248 Q1194.3481,279.0605 1195.9419,279.0605 Q1196.8794,279.0605 1197.5356,278.8105 Q1197.9263,278.6543 1198.3481,278.2168 Q1198.6138,277.9512 1198.7544,277.873 Q1198.9106,277.7949 1199.1138,277.7949 Q1199.4419,277.7949 1199.6919,278.0605 Q1199.9575,278.3105 1199.9575,278.6543 Q1199.9575,278.998 1199.6138,279.4043 Q1199.1138,279.9824 1198.3169,280.3105 Q1197.2388,280.7637 1195.9419,280.7637 Q1194.4263,280.7637 1193.2231,280.1387 Q1192.2388,279.6387 1191.5513,278.5762 Q1190.8638,277.498 1190.8638,276.2168 L1190.8638,275.0605 Q1190.8638,273.7324 1191.4731,272.5918 Q1192.0981,271.4355 1193.1919,270.8262 Q1194.2856,270.2012 1195.52,270.2012 Q1196.2544,270.2012 1196.895,270.373 Q1197.5513,270.5293 1198.0981,270.8887 Z " fill="#000000"/><text fill="#000000" font-family="sans-serif" font-size="14" lengthAdjust="spacing" textLength="16.3379" x="1215.8325" y="280.8105">F6</text><line style="stroke:#181818;stroke-width:0.5;" x1="1151" x2="1264.5029" y1="291.0137" y2="291.0137"/><text fill="#000000" font-family="sans-serif" font-size="14" lengthAdjust="spacing" textLength="103.5029" x="1156" y="310.1211">Cancellation API</text><line style="stroke:#181818;stroke-width:0.5;" x1="1151" x2="1264.5029" y1="317.6348" y2="317.6348"/></g><!--class F7--><g id="elem_F7"><rect fill="#F1F1F1" height="66.6211" id="F7" rx="2.5" ry="2.5" style="stroke:#181818;stroke-width:0.5;" width="212.7646" x="1679.5" y="259.0137"/><ellipse cx="1773.4634" cy="275.0137" fill="#ADD1B2" rx="11" ry="11" style="stroke:#181818;stroke-width:1.0;"/><path d="M1776.229,270.8887 Q1776.3853,270.6699 1776.5728,270.5605 Q1776.7603,270.4512 1776.979,270.4512 Q1777.354,270.4512 1777.5884,270.7168 Q1777.8228,270.9668 1777.8228,271.5762 L1777.8228,273.0293 Q1777.8228,273.6387 1777.5884,273.9043 Q1777.354,274.1699 1776.979,274.1699 Q1776.6353,274.1699 1776.4321,273.9668 Q1776.229,273.7793 1776.1196,273.2637 Q1776.0728,272.9043 1775.8853,272.7168 Q1775.5571,272.3418 1774.9478,272.123 Q1774.3384,271.9043 1773.7134,271.9043 Q1772.9478,271.9043 1772.3071,272.2324 Q1771.6821,272.5605 1771.1821,273.3105 Q1770.6978,274.0605 1770.6978,275.0918 L1770.6978,276.1855 Q1770.6978,277.4199 1771.5884,278.248 Q1772.479,279.0605 1774.0728,279.0605 Q1775.0103,279.0605 1775.6665,278.8105 Q1776.0571,278.6543 1776.479,278.2168 Q1776.7446,277.9512 1776.8853,277.873 Q1777.0415,277.7949 1777.2446,277.7949 Q1777.5728,277.7949 1777.8228,278.0605 Q1778.0884,278.3105 1778.0884,278.6543 Q1778.0884,278.998 1777.7446,279.4043 Q1777.2446,279.9824 1776.4478,280.3105 Q1775.3696,280.7637 1774.0728,280.7637 Q1772.5571,280.7637 1771.354,280.1387 Q1770.3696,279.6387 1769.6821,278.5762 Q1768.9946,277.498 1768.9946,276.2168 L1768.9946,275.0605 Q1768.9946,273.7324 1769.604,272.5918 Q1770.229,271.4355 1771.3228,270.8262 Q1772.4165,270.2012 1773.6509,270.2012 Q1774.3853,270.2012 1775.0259,270.373 Q1775.6821,270.5293 1776.229,270.8887 Z " fill="#000000"/><text fill="#000000" font-family="sans-serif" font-size="14" lengthAdjust="spacing" textLength="16.3379" x="1793.9634" y="280.8105">F7</text><line style="stroke:#181818;stroke-width:0.5;" x1="1680.5" x2="1891.2646" y1="291.0137" y2="291.0137"/><text fill="#000000" font-family="sans-serif" font-size="14" lengthAdjust="spacing" textLength="200.7646" x="1685.5" y="310.1211">Structured Concurrency Support</text><line style="stroke:#181818;stroke-width:0.5;" x1="1680.5" x2="1891.2646" y1="317.6348" y2="317.6348"/></g><!--class F8--><g id="elem_F8"><rect fill="#F1F1F1" height="66.6211" id="F8" rx="2.5" ry="2.5" style="stroke:#181818;stroke-width:0.5;" width="208.9023" x="905.5" y="259.0137"/><ellipse cx="997.5322" cy="275.0137" fill="#ADD1B2" rx="11" ry="11" style="stroke:#181818;stroke-width:1.0;"/><path d="M1000.2979,270.8887 Q1000.4541,270.6699 1000.6416,270.5605 Q1000.8291,270.4512 1001.0479,270.4512 Q1001.4229,270.4512 1001.6572,270.7168 Q1001.8916,270.9668 1001.8916,271.5762 L1001.8916,273.0293 Q1001.8916,273.6387 1001.6572,273.9043 Q1001.4229,274.1699 1001.0479,274.1699 Q1000.7041,274.1699 1000.501,273.9668 Q1000.2979,273.7793 1000.1885,273.2637 Q1000.1416,272.9043 999.9541,272.7168 Q999.626,272.3418 999.0166,272.123 Q998.4072,271.9043 997.7822,271.9043 Q997.0166,271.9043 996.376,272.2324 Q995.751,272.5605 995.251,273.3105 Q994.7666,274.0605 994.7666,275.0918 L994.7666,276.1855 Q994.7666,277.4199 995.6572,278.248 Q996.5479,279.0605 998.1416,279.0605 Q999.0791,279.0605 999.7354,278.8105 Q1000.126,278.6543 1000.5479,278.2168 Q1000.8135,277.9512 1000.9541,277.873 Q1001.1104,277.7949 1001.3135,277.7949 Q1001.6416,277.7949 1001.8916,278.0605 Q1002.1572,278.3105 1002.1572,278.6543 Q1002.1572,278.998 1001.8135,279.4043 Q1001.3135,279.9824 1000.5166,280.3105 Q999.4385,280.7637 998.1416,280.7637 Q996.626,280.7637 995.4229,280.1387 Q994.4385,279.6387 993.751,278.5762 Q993.0635,277.498 993.0635,276.2168 L993.0635,275.0605 Q993.0635,273.7324 993.6729,272.5918 Q994.2979,271.4355 995.3916,270.8262 Q996.4854,270.2012 997.7197,270.2012 Q998.4541,270.2012 999.0947,270.373 Q999.751,270.5293 1000.2979,270.8887 Z " fill="#000000"/><text fill="#000000" font-family="sans-serif" font-size="14" lengthAdjust="spacing" textLength="16.3379" x="1018.0322" y="280.8105">F8</text><line style="stroke:#181818;stroke-width:0.5;" x1="906.5" x2="1113.4023" y1="291.0137" y2="291.0137"/><text fill="#000000" font-family="sans-serif" font-size="14" lengthAdjust="spacing" textLength="196.9023" x="911.5" y="310.1211">Error Propagation and Handling</text><line style="stroke:#181818;stroke-width:0.5;" x1="906.5" x2="1113.4023" y1="317.6348" y2="317.6348"/></g><!--class F9--><g id="elem_F9"><rect fill="#F1F1F1" height="66.6211" id="F9" rx="2.5" ry="2.5" style="stroke:#181818;stroke-width:0.5;" width="131.0684" x="1301.5" y="259.0137"/><ellipse cx="1354.6152" cy="275.0137" fill="#ADD1B2" rx="11" ry="11" style="stroke:#181818;stroke-width:1.0;"/><path d="M1357.3809,270.8887 Q1357.5371,270.6699 1357.7246,270.5605 Q1357.9121,270.4512 1358.1309,270.4512 Q1358.5059,270.4512 1358.7402,270.7168 Q1358.9746,270.9668 1358.9746,271.5762 L1358.9746,273.0293 Q1358.9746,273.6387 1358.7402,273.9043 Q1358.5059,274.1699 1358.1309,274.1699 Q1357.7871,274.1699 1357.584,273.9668 Q1357.3809,273.7793 1357.2715,273.2637 Q1357.2246,272.9043 1357.0371,272.7168 Q1356.709,272.3418 1356.0996,272.123 Q1355.4902,271.9043 1354.8652,271.9043 Q1354.0996,271.9043 1353.459,272.2324 Q1352.834,272.5605 1352.334,273.3105 Q1351.8496,274.0605 1351.8496,275.0918 L1351.8496,276.1855 Q1351.8496,277.4199 1352.7402,278.248 Q1353.6309,279.0605 1355.2246,279.0605 Q1356.1621,279.0605 1356.8184,278.8105 Q1357.209,278.6543 1357.6309,278.2168 Q1357.8965,277.9512 1358.0371,277.873 Q1358.1934,277.7949 1358.3965,277.7949 Q1358.7246,277.7949 1358.9746,278.0605 Q1359.2402,278.3105 1359.2402,278.6543 Q1359.2402,278.998 1358.8965,279.4043 Q1358.3965,279.9824 1357.5996,280.3105 Q1356.5215,280.7637 1355.2246,280.7637 Q1353.709,280.7637 1352.5059,280.1387 Q1351.5215,279.6387 1350.834,278.5762 Q1350.1465,277.498 1350.1465,276.2168 L1350.1465,275.0605 Q1350.1465,273.7324 1350.7559,272.5918 Q1351.3809,271.4355 1352.4746,270.8262 Q1353.5684,270.2012 1354.8027,270.2012 Q1355.5371,270.2012 1356.1777,270.373 Q1356.834,270.5293 1357.3809,270.8887 Z " fill="#000000"/><text fill="#000000" font-family="sans-serif" font-size="14" lengthAdjust="spacing" textLength="16.3379" x="1375.1152" y="280.8105">F9</text><line style="stroke:#181818;stroke-width:0.5;" x1="1302.5" x2="1431.5684" y1="291.0137" y2="291.0137"/><text fill="#000000" font-family="sans-serif" font-size="14" lengthAdjust="spacing" textLength="119.0684" x="1307.5" y="310.1211">Graceful Shutdown</text><line style="stroke:#181818;stroke-width:0.5;" x1="1302.5" x2="1431.5684" y1="317.6348" y2="317.6348"/></g><!--class F10--><g id="elem_F10"><rect fill="#F1F1F1" height="66.6211" id="F10" rx="2.5" ry="2.5" style="stroke:#181818;stroke-width:0.5;" width="175.3857" x="2235.5" y="259.0137"/><ellipse cx="2306.8809" cy="275.0137" fill="#ADD1B2" rx="11" ry="11" style="stroke:#181818;stroke-width:1.0;"/><path d="M2309.6465,270.8887 Q2309.8027,270.6699 2309.9902,270.5605 Q2310.1777,270.4512 2310.3965,270.4512 Q2310.7715,270.4512 2311.0059,270.7168 Q2311.2402,270.9668 2311.2402,271.5762 L2311.2402,273.0293 Q2311.2402,273.6387 2311.0059,273.9043 Q2310.7715,274.1699 2310.3965,274.1699 Q2310.0527,274.1699 2309.8496,273.9668 Q2309.6465,273.7793 2309.5371,273.2637 Q2309.4902,272.9043 2309.3027,272.7168 Q2308.9746,272.3418 2308.3652,272.123 Q2307.7559,271.9043 2307.1309,271.9043 Q2306.3652,271.9043 2305.7246,272.2324 Q2305.0996,272.5605 2304.5996,273.3105 Q2304.1152,274.0605 2304.1152,275.0918 L2304.1152,276.1855 Q2304.1152,277.4199 2305.0059,278.248 Q2305.8965,279.0605 2307.4902,279.0605 Q2308.4277,279.0605 2309.084,278.8105 Q2309.4746,278.6543 2309.8965,278.2168 Q2310.1621,277.9512 2310.3027,277.873 Q2310.459,277.7949 2310.6621,277.7949 Q2310.9902,277.7949 2311.2402,278.0605 Q2311.5059,278.3105 2311.5059,278.6543 Q2311.5059,278.998 2311.1621,279.4043 Q2310.6621,279.9824 2309.8652,280.3105 Q2308.7871,280.7637 2307.4902,280.7637 Q2305.9746,280.7637 2304.7715,280.1387 Q2303.7871,279.6387 2303.0996,278.5762 Q2302.4121,277.498 2302.4121,276.2168 L2302.4121,275.0605 Q2302.4121,273.7324 2303.0215,272.5918 Q2303.6465,271.4355 2304.7402,270.8262 Q2305.834,270.2012 2307.0684,270.2012 Q2307.8027,270.2012 2308.4434,270.373 Q2309.0996,270.5293 2309.6465,270.8887 Z " fill="#000000"/><text fill="#000000" font-family="sans-serif" font-size="14" lengthAdjust="spacing" textLength="24.124" x="2327.3809" y="280.8105">F10</text><line style="stroke:#181818;stroke-width:0.5;" x1="2236.5" x2="2409.8857" y1="291.0137" y2="291.0137"/><text fill="#000000" font-family="sans-serif" font-size="14" lengthAdjust="spacing" textLength="163.3857" x="2241.5" y="310.1211">Explicit/Implicit Coroutines</text><line style="stroke:#181818;stroke-width:0.5;" x1="2236.5" x2="2409.8857" y1="317.6348" y2="317.6348"/></g><!--class F11--><g id="elem_F11"><rect fill="#F1F1F1" height="66.6211" id="F11" rx="2.5" ry="2.5" style="stroke:#181818;stroke-width:0.5;" width="130.2754" x="2446" y="259.0137"/><ellipse cx="2494.8257" cy="275.0137" fill="#ADD1B2" rx="11" ry="11" style="stroke:#181818;stroke-width:1.0;"/><path d="M2497.5913,270.8887 Q2497.7476,270.6699 2497.9351,270.5605 Q2498.1226,270.4512 2498.3413,270.4512 Q2498.7163,270.4512 2498.9507,270.7168 Q2499.1851,270.9668 2499.1851,271.5762 L2499.1851,273.0293 Q2499.1851,273.6387 2498.9507,273.9043 Q2498.7163,274.1699 2498.3413,274.1699 Q2497.9976,274.1699 2497.7944,273.9668 Q2497.5913,273.7793 2497.4819,273.2637 Q2497.4351,272.9043 2497.2476,272.7168 Q2496.9194,272.3418 2496.3101,272.123 Q2495.7007,271.9043 2495.0757,271.9043 Q2494.3101,271.9043 2493.6694,272.2324 Q2493.0444,272.5605 2492.5444,273.3105 Q2492.0601,274.0605 2492.0601,275.0918 L2492.0601,276.1855 Q2492.0601,277.4199 2492.9507,278.248 Q2493.8413,279.0605 2495.4351,279.0605 Q2496.3726,279.0605 2497.0288,278.8105 Q2497.4194,278.6543 2497.8413,278.2168 Q2498.1069,277.9512 2498.2476,277.873 Q2498.4038,277.7949 2498.6069,277.7949 Q2498.9351,277.7949 2499.1851,278.0605 Q2499.4507,278.3105 2499.4507,278.6543 Q2499.4507,278.998 2499.1069,279.4043 Q2498.6069,279.9824 2497.8101,280.3105 Q2496.7319,280.7637 2495.4351,280.7637 Q2493.9194,280.7637 2492.7163,280.1387 Q2491.7319,279.6387 2491.0444,278.5762 Q2490.3569,277.498 2490.3569,276.2168 L2490.3569,275.0605 Q2490.3569,273.7324 2490.9663,272.5918 Q2491.5913,271.4355 2492.6851,270.8262 Q2493.7788,270.2012 2495.0132,270.2012 Q2495.7476,270.2012 2496.3882,270.373 Q2497.0444,270.5293 2497.5913,270.8887 Z " fill="#000000"/><text fill="#000000" font-family="sans-serif" font-size="14" lengthAdjust="spacing" textLength="24.124" x="2515.3257" y="280.8105">F11</text><line style="stroke:#181818;stroke-width:0.5;" x1="2447" x2="2575.2754" y1="291.0137" y2="291.0137"/><text fill="#000000" font-family="sans-serif" font-size="14" lengthAdjust="spacing" textLength="118.2754" x="2452" y="310.1211">Zombie Coroutines</text><line style="stroke:#181818;stroke-width:0.5;" x1="2447" x2="2575.2754" y1="317.6348" y2="317.6348"/></g><!--class F12--><g id="elem_F12"><rect fill="#F1F1F1" height="66.6211" id="F12" rx="2.5" ry="2.5" style="stroke:#181818;stroke-width:0.5;" width="85.1445" x="1927.5" y="259.0137"/><ellipse cx="1955.5592" cy="275.0137" fill="#ADD1B2" rx="11" ry="11" style="stroke:#181818;stroke-width:1.0;"/><path d="M1958.3249,270.8887 Q1958.4811,270.6699 1958.6686,270.5605 Q1958.8561,270.4512 1959.0749,270.4512 Q1959.4499,270.4512 1959.6842,270.7168 Q1959.9186,270.9668 1959.9186,271.5762 L1959.9186,273.0293 Q1959.9186,273.6387 1959.6842,273.9043 Q1959.4499,274.1699 1959.0749,274.1699 Q1958.7311,274.1699 1958.528,273.9668 Q1958.3249,273.7793 1958.2155,273.2637 Q1958.1686,272.9043 1957.9811,272.7168 Q1957.653,272.3418 1957.0436,272.123 Q1956.4342,271.9043 1955.8092,271.9043 Q1955.0436,271.9043 1954.403,272.2324 Q1953.778,272.5605 1953.278,273.3105 Q1952.7936,274.0605 1952.7936,275.0918 L1952.7936,276.1855 Q1952.7936,277.4199 1953.6842,278.248 Q1954.5749,279.0605 1956.1686,279.0605 Q1957.1061,279.0605 1957.7624,278.8105 Q1958.153,278.6543 1958.5749,278.2168 Q1958.8405,277.9512 1958.9811,277.873 Q1959.1374,277.7949 1959.3405,277.7949 Q1959.6686,277.7949 1959.9186,278.0605 Q1960.1842,278.3105 1960.1842,278.6543 Q1960.1842,278.998 1959.8405,279.4043 Q1959.3405,279.9824 1958.5436,280.3105 Q1957.4655,280.7637 1956.1686,280.7637 Q1954.653,280.7637 1953.4499,280.1387 Q1952.4655,279.6387 1951.778,278.5762 Q1951.0905,277.498 1951.0905,276.2168 L1951.0905,275.0605 Q1951.0905,273.7324 1951.6999,272.5918 Q1952.3249,271.4355 1953.4186,270.8262 Q1954.5124,270.2012 1955.7467,270.2012 Q1956.4811,270.2012 1957.1217,270.373 Q1957.778,270.5293 1958.3249,270.8887 Z " fill="#000000"/><text fill="#000000" font-family="sans-serif" font-size="14" lengthAdjust="spacing" textLength="24.124" x="1972.4613" y="280.8105">F12</text><line style="stroke:#181818;stroke-width:0.5;" x1="1928.5" x2="2011.6445" y1="291.0137" y2="291.0137"/><text fill="#000000" font-family="sans-serif" font-size="14" lengthAdjust="spacing" textLength="73.1445" x="1933.5" y="310.1211">async block</text><line style="stroke:#181818;stroke-width:0.5;" x1="1928.5" x2="2011.6445" y1="317.6348" y2="317.6348"/></g><!--class F13--><g id="elem_F13"><rect fill="#F1F1F1" height="66.6211" id="F13" rx="2.5" ry="2.5" style="stroke:#181818;stroke-width:0.5;" width="81.248" x="1563.5" y="259.0137"/><ellipse cx="1589.8058" cy="275.0137" fill="#ADD1B2" rx="11" ry="11" style="stroke:#181818;stroke-width:1.0;"/><path d="M1592.5714,270.8887 Q1592.7277,270.6699 1592.9152,270.5605 Q1593.1027,270.4512 1593.3214,270.4512 Q1593.6964,270.4512 1593.9308,270.7168 Q1594.1652,270.9668 1594.1652,271.5762 L1594.1652,273.0293 Q1594.1652,273.6387 1593.9308,273.9043 Q1593.6964,274.1699 1593.3214,274.1699 Q1592.9777,274.1699 1592.7746,273.9668 Q1592.5714,273.7793 1592.4621,273.2637 Q1592.4152,272.9043 1592.2277,272.7168 Q1591.8996,272.3418 1591.2902,272.123 Q1590.6808,271.9043 1590.0558,271.9043 Q1589.2902,271.9043 1588.6496,272.2324 Q1588.0246,272.5605 1587.5246,273.3105 Q1587.0402,274.0605 1587.0402,275.0918 L1587.0402,276.1855 Q1587.0402,277.4199 1587.9308,278.248 Q1588.8214,279.0605 1590.4152,279.0605 Q1591.3527,279.0605 1592.0089,278.8105 Q1592.3996,278.6543 1592.8214,278.2168 Q1593.0871,277.9512 1593.2277,277.873 Q1593.3839,277.7949 1593.5871,277.7949 Q1593.9152,277.7949 1594.1652,278.0605 Q1594.4308,278.3105 1594.4308,278.6543 Q1594.4308,278.998 1594.0871,279.4043 Q1593.5871,279.9824 1592.7902,280.3105 Q1591.7121,280.7637 1590.4152,280.7637 Q1588.8996,280.7637 1587.6964,280.1387 Q1586.7121,279.6387 1586.0246,278.5762 Q1585.3371,277.498 1585.3371,276.2168 L1585.3371,275.0605 Q1585.3371,273.7324 1585.9464,272.5918 Q1586.5714,271.4355 1587.6652,270.8262 Q1588.7589,270.2012 1589.9933,270.2012 Q1590.7277,270.2012 1591.3683,270.373 Q1592.0246,270.5293 1592.5714,270.8887 Z " fill="#000000"/><text fill="#000000" font-family="sans-serif" font-size="14" lengthAdjust="spacing" textLength="24.124" x="1606.3182" y="280.8105">F13</text><line style="stroke:#181818;stroke-width:0.5;" x1="1564.5" x2="1643.748" y1="291.0137" y2="291.0137"/><text fill="#000000" font-family="sans-serif" font-size="14" lengthAdjust="spacing" textLength="69.248" x="1569.5" y="310.1211">TaskGroup</text><line style="stroke:#181818;stroke-width:0.5;" x1="1564.5" x2="1643.748" y1="317.6348" y2="317.6348"/></g><!--class A1--><g id="elem_A1"><rect fill="#F1F1F1" height="66.6211" id="A1" rx="2.5" ry="2.5" style="stroke:#181818;stroke-width:0.5;" width="101.4961" x="1039.5" y="430.0137"/><ellipse cx="1078.0674" cy="446.0137" fill="#ADD1B2" rx="11" ry="11" style="stroke:#181818;stroke-width:1.0;"/><path d="M1080.8331,441.8887 Q1080.9893,441.6699 1081.1768,441.5605 Q1081.3643,441.4512 1081.5831,441.4512 Q1081.9581,441.4512 1082.1924,441.7168 Q1082.4268,441.9668 1082.4268,442.5762 L1082.4268,444.0293 Q1082.4268,444.6387 1082.1924,444.9043 Q1081.9581,445.1699 1081.5831,445.1699 Q1081.2393,445.1699 1081.0362,444.9668 Q1080.8331,444.7793 1080.7237,444.2637 Q1080.6768,443.9043 1080.4893,443.7168 Q1080.1612,443.3418 1079.5518,443.123 Q1078.9424,442.9043 1078.3174,442.9043 Q1077.5518,442.9043 1076.9112,443.2324 Q1076.2862,443.5605 1075.7862,444.3105 Q1075.3018,445.0605 1075.3018,446.0918 L1075.3018,447.1855 Q1075.3018,448.4199 1076.1924,449.248 Q1077.0831,450.0605 1078.6768,450.0605 Q1079.6143,450.0605 1080.2706,449.8105 Q1080.6612,449.6543 1081.0831,449.2168 Q1081.3487,448.9512 1081.4893,448.873 Q1081.6456,448.7949 1081.8487,448.7949 Q1082.1768,448.7949 1082.4268,449.0605 Q1082.6924,449.3105 1082.6924,449.6543 Q1082.6924,449.998 1082.3487,450.4043 Q1081.8487,450.9824 1081.0518,451.3105 Q1079.9737,451.7637 1078.6768,451.7637 Q1077.1612,451.7637 1075.9581,451.1387 Q1074.9737,450.6387 1074.2862,449.5762 Q1073.5987,448.498 1073.5987,447.2168 L1073.5987,446.0605 Q1073.5987,444.7324 1074.2081,443.5918 Q1074.8331,442.4355 1075.9268,441.8262 Q1077.0206,441.2012 1078.2549,441.2012 Q1078.9893,441.2012 1079.6299,441.373 Q1080.2862,441.5293 1080.8331,441.8887 Z " fill="#000000"/><text fill="#000000" font-family="sans-serif" font-size="14" lengthAdjust="spacing" textLength="17.124" x="1097.3046" y="451.8105">A1</text><line style="stroke:#181818;stroke-width:0.5;" x1="1040.5" x2="1139.9961" y1="462.0137" y2="462.0137"/><text fill="#000000" font-family="sans-serif" font-size="14" lengthAdjust="spacing" textLength="89.4961" x="1045.5" y="481.1211">Scheduler API</text><line style="stroke:#181818;stroke-width:0.5;" x1="1040.5" x2="1139.9961" y1="488.6348" y2="488.6348"/></g><!--class A2--><g id="elem_A2"><rect fill="#F1F1F1" height="66.6211" id="A2" rx="2.5" ry="2.5" style="stroke:#181818;stroke-width:0.5;" width="143.5234" x="1176" y="430.0137"/><ellipse cx="1234.9497" cy="446.0137" fill="#ADD1B2" rx="11" ry="11" style="stroke:#181818;stroke-width:1.0;"/><path d="M1237.7153,441.8887 Q1237.8716,441.6699 1238.0591,441.5605 Q1238.2466,441.4512 1238.4653,441.4512 Q1238.8403,441.4512 1239.0747,441.7168 Q1239.3091,441.9668 1239.3091,442.5762 L1239.3091,444.0293 Q1239.3091,444.6387 1239.0747,444.9043 Q1238.8403,445.1699 1238.4653,445.1699 Q1238.1216,445.1699 1237.9185,444.9668 Q1237.7153,444.7793 1237.606,444.2637 Q1237.5591,443.9043 1237.3716,443.7168 Q1237.0435,443.3418 1236.4341,443.123 Q1235.8247,442.9043 1235.1997,442.9043 Q1234.4341,442.9043 1233.7935,443.2324 Q1233.1685,443.5605 1232.6685,444.3105 Q1232.1841,445.0605 1232.1841,446.0918 L1232.1841,447.1855 Q1232.1841,448.4199 1233.0747,449.248 Q1233.9653,450.0605 1235.5591,450.0605 Q1236.4966,450.0605 1237.1528,449.8105 Q1237.5435,449.6543 1237.9653,449.2168 Q1238.231,448.9512 1238.3716,448.873 Q1238.5278,448.7949 1238.731,448.7949 Q1239.0591,448.7949 1239.3091,449.0605 Q1239.5747,449.3105 1239.5747,449.6543 Q1239.5747,449.998 1239.231,450.4043 Q1238.731,450.9824 1237.9341,451.3105 Q1236.856,451.7637 1235.5591,451.7637 Q1234.0435,451.7637 1232.8403,451.1387 Q1231.856,450.6387 1231.1685,449.5762 Q1230.481,448.498 1230.481,447.2168 L1230.481,446.0605 Q1230.481,444.7324 1231.0903,443.5918 Q1231.7153,442.4355 1232.8091,441.8262 Q1233.9028,441.2012 1235.1372,441.2012 Q1235.8716,441.2012 1236.5122,441.373 Q1237.1685,441.5293 1237.7153,441.8887 Z " fill="#000000"/><text fill="#000000" font-family="sans-serif" font-size="14" lengthAdjust="spacing" textLength="17.124" x="1255.4497" y="451.8105">A2</text><line style="stroke:#181818;stroke-width:0.5;" x1="1177" x2="1318.5234" y1="462.0137" y2="462.0137"/><text fill="#000000" font-family="sans-serif" font-size="14" lengthAdjust="spacing" textLength="131.5234" x="1182" y="481.1211">Reactor / Event Loop</text><line style="stroke:#181818;stroke-width:0.5;" x1="1177" x2="1318.5234" y1="488.6348" y2="488.6348"/></g><!--class A3--><g id="elem_A3"><rect fill="#F1F1F1" height="66.6211" id="A3" rx="2.5" ry="2.5" style="stroke:#181818;stroke-width:0.5;" width="158.3096" x="1890" y="430.0137"/><ellipse cx="1956.3428" cy="446.0137" fill="#ADD1B2" rx="11" ry="11" style="stroke:#181818;stroke-width:1.0;"/><path d="M1959.1084,441.8887 Q1959.2646,441.6699 1959.4521,441.5605 Q1959.6396,441.4512 1959.8584,441.4512 Q1960.2334,441.4512 1960.4678,441.7168 Q1960.7021,441.9668 1960.7021,442.5762 L1960.7021,444.0293 Q1960.7021,444.6387 1960.4678,444.9043 Q1960.2334,445.1699 1959.8584,445.1699 Q1959.5146,445.1699 1959.3115,444.9668 Q1959.1084,444.7793 1958.999,444.2637 Q1958.9521,443.9043 1958.7646,443.7168 Q1958.4365,443.3418 1957.8271,443.123 Q1957.2178,442.9043 1956.5928,442.9043 Q1955.8271,442.9043 1955.1865,443.2324 Q1954.5615,443.5605 1954.0615,444.3105 Q1953.5771,445.0605 1953.5771,446.0918 L1953.5771,447.1855 Q1953.5771,448.4199 1954.4678,449.248 Q1955.3584,450.0605 1956.9521,450.0605 Q1957.8896,450.0605 1958.5459,449.8105 Q1958.9365,449.6543 1959.3584,449.2168 Q1959.624,448.9512 1959.7646,448.873 Q1959.9209,448.7949 1960.124,448.7949 Q1960.4521,448.7949 1960.7021,449.0605 Q1960.9678,449.3105 1960.9678,449.6543 Q1960.9678,449.998 1960.624,450.4043 Q1960.124,450.9824 1959.3271,451.3105 Q1958.249,451.7637 1956.9521,451.7637 Q1955.4365,451.7637 1954.2334,451.1387 Q1953.249,450.6387 1952.5615,449.5762 Q1951.874,448.498 1951.874,447.2168 L1951.874,446.0605 Q1951.874,444.7324 1952.4834,443.5918 Q1953.1084,442.4355 1954.2021,441.8262 Q1955.2959,441.2012 1956.5303,441.2012 Q1957.2646,441.2012 1957.9053,441.373 Q1958.5615,441.5293 1959.1084,441.8887 Z " fill="#000000"/><text fill="#000000" font-family="sans-serif" font-size="14" lengthAdjust="spacing" textLength="17.124" x="1976.8428" y="451.8105">A3</text><line style="stroke:#181818;stroke-width:0.5;" x1="1891" x2="2047.3096" y1="462.0137" y2="462.0137"/><text fill="#000000" font-family="sans-serif" font-size="14" lengthAdjust="spacing" textLength="146.3096" x="1896" y="481.1211">Coroutine Management</text><line style="stroke:#181818;stroke-width:0.5;" x1="1891" x2="2047.3096" y1="488.6348" y2="488.6348"/></g><!--class A4--><g id="elem_A4"><rect fill="#F1F1F1" height="66.6211" id="A4" rx="2.5" ry="2.5" style="stroke:#181818;stroke-width:0.5;" width="115.4893" x="1739.5" y="430.0137"/><ellipse cx="1784.4326" cy="446.0137" fill="#ADD1B2" rx="11" ry="11" style="stroke:#181818;stroke-width:1.0;"/><path d="M1787.1982,441.8887 Q1787.3545,441.6699 1787.542,441.5605 Q1787.7295,441.4512 1787.9482,441.4512 Q1788.3232,441.4512 1788.5576,441.7168 Q1788.792,441.9668 1788.792,442.5762 L1788.792,444.0293 Q1788.792,444.6387 1788.5576,444.9043 Q1788.3232,445.1699 1787.9482,445.1699 Q1787.6045,445.1699 1787.4014,444.9668 Q1787.1982,444.7793 1787.0889,444.2637 Q1787.042,443.9043 1786.8545,443.7168 Q1786.5264,443.3418 1785.917,443.123 Q1785.3076,442.9043 1784.6826,442.9043 Q1783.917,442.9043 1783.2764,443.2324 Q1782.6514,443.5605 1782.1514,444.3105 Q1781.667,445.0605 1781.667,446.0918 L1781.667,447.1855 Q1781.667,448.4199 1782.5576,449.248 Q1783.4482,450.0605 1785.042,450.0605 Q1785.9795,450.0605 1786.6357,449.8105 Q1787.0264,449.6543 1787.4482,449.2168 Q1787.7139,448.9512 1787.8545,448.873 Q1788.0107,448.7949 1788.2139,448.7949 Q1788.542,448.7949 1788.792,449.0605 Q1789.0576,449.3105 1789.0576,449.6543 Q1789.0576,449.998 1788.7139,450.4043 Q1788.2139,450.9824 1787.417,451.3105 Q1786.3389,451.7637 1785.042,451.7637 Q1783.5264,451.7637 1782.3232,451.1387 Q1781.3389,450.6387 1780.6514,449.5762 Q1779.9639,448.498 1779.9639,447.2168 L1779.9639,446.0605 Q1779.9639,444.7324 1780.5732,443.5918 Q1781.1982,442.4355 1782.292,441.8262 Q1783.3857,441.2012 1784.6201,441.2012 Q1785.3545,441.2012 1785.9951,441.373 Q1786.6514,441.5293 1787.1982,441.8887 Z " fill="#000000"/><text fill="#000000" font-family="sans-serif" font-size="14" lengthAdjust="spacing" textLength="17.124" x="1804.9326" y="451.8105">A4</text><line style="stroke:#181818;stroke-width:0.5;" x1="1740.5" x2="1853.9893" y1="462.0137" y2="462.0137"/><text fill="#000000" font-family="sans-serif" font-size="14" lengthAdjust="spacing" textLength="103.4893" x="1745.5" y="481.1211">Scope Hierarchy</text><line style="stroke:#181818;stroke-width:0.5;" x1="1740.5" x2="1853.9893" y1="488.6348" y2="488.6348"/></g><!--class A5--><g id="elem_A5"><rect fill="#F1F1F1" height="66.6211" id="A5" rx="2.5" ry="2.5" style="stroke:#181818;stroke-width:0.5;" width="133.4063" x="1571.5" y="430.0137"/><ellipse cx="1625.3911" cy="446.0137" fill="#ADD1B2" rx="11" ry="11" style="stroke:#181818;stroke-width:1.0;"/><path d="M1628.1567,441.8887 Q1628.313,441.6699 1628.5005,441.5605 Q1628.688,441.4512 1628.9067,441.4512 Q1629.2817,441.4512 1629.5161,441.7168 Q1629.7505,441.9668 1629.7505,442.5762 L1629.7505,444.0293 Q1629.7505,444.6387 1629.5161,444.9043 Q1629.2817,445.1699 1628.9067,445.1699 Q1628.563,445.1699 1628.3599,444.9668 Q1628.1567,444.7793 1628.0474,444.2637 Q1628.0005,443.9043 1627.813,443.7168 Q1627.4849,443.3418 1626.8755,443.123 Q1626.2661,442.9043 1625.6411,442.9043 Q1624.8755,442.9043 1624.2349,443.2324 Q1623.6099,443.5605 1623.1099,444.3105 Q1622.6255,445.0605 1622.6255,446.0918 L1622.6255,447.1855 Q1622.6255,448.4199 1623.5161,449.248 Q1624.4067,450.0605 1626.0005,450.0605 Q1626.938,450.0605 1627.5942,449.8105 Q1627.9849,449.6543 1628.4067,449.2168 Q1628.6724,448.9512 1628.813,448.873 Q1628.9692,448.7949 1629.1724,448.7949 Q1629.5005,448.7949 1629.7505,449.0605 Q1630.0161,449.3105 1630.0161,449.6543 Q1630.0161,449.998 1629.6724,450.4043 Q1629.1724,450.9824 1628.3755,451.3105 Q1627.2974,451.7637 1626.0005,451.7637 Q1624.4849,451.7637 1623.2817,451.1387 Q1622.2974,450.6387 1621.6099,449.5762 Q1620.9224,448.498 1620.9224,447.2168 L1620.9224,446.0605 Q1620.9224,444.7324 1621.5317,443.5918 Q1622.1567,442.4355 1623.2505,441.8262 Q1624.3442,441.2012 1625.5786,441.2012 Q1626.313,441.2012 1626.9536,441.373 Q1627.6099,441.5293 1628.1567,441.8887 Z " fill="#000000"/><text fill="#000000" font-family="sans-serif" font-size="14" lengthAdjust="spacing" textLength="17.124" x="1645.8911" y="451.8105">A5</text><line style="stroke:#181818;stroke-width:0.5;" x1="1572.5" x2="1703.9063" y1="462.0137" y2="462.0137"/><text fill="#000000" font-family="sans-serif" font-size="14" lengthAdjust="spacing" textLength="121.4063" x="1577.5" y="481.1211">Context Inheritance</text><line style="stroke:#181818;stroke-width:0.5;" x1="1572.5" x2="1703.9063" y1="488.6348" y2="488.6348"/></g><!--class A6--><g id="elem_A6"><rect fill="#F1F1F1" height="66.6211" id="A6" rx="2.5" ry="2.5" style="stroke:#181818;stroke-width:0.5;" width="180.8477" x="1355.5" y="430.0137"/><ellipse cx="1433.1118" cy="446.0137" fill="#ADD1B2" rx="11" ry="11" style="stroke:#181818;stroke-width:1.0;"/><path d="M1435.8774,441.8887 Q1436.0337,441.6699 1436.2212,441.5605 Q1436.4087,441.4512 1436.6274,441.4512 Q1437.0024,441.4512 1437.2368,441.7168 Q1437.4712,441.9668 1437.4712,442.5762 L1437.4712,444.0293 Q1437.4712,444.6387 1437.2368,444.9043 Q1437.0024,445.1699 1436.6274,445.1699 Q1436.2837,445.1699 1436.0806,444.9668 Q1435.8774,444.7793 1435.7681,444.2637 Q1435.7212,443.9043 1435.5337,443.7168 Q1435.2056,443.3418 1434.5962,443.123 Q1433.9868,442.9043 1433.3618,442.9043 Q1432.5962,442.9043 1431.9556,443.2324 Q1431.3306,443.5605 1430.8306,444.3105 Q1430.3462,445.0605 1430.3462,446.0918 L1430.3462,447.1855 Q1430.3462,448.4199 1431.2368,449.248 Q1432.1274,450.0605 1433.7212,450.0605 Q1434.6587,450.0605 1435.3149,449.8105 Q1435.7056,449.6543 1436.1274,449.2168 Q1436.3931,448.9512 1436.5337,448.873 Q1436.6899,448.7949 1436.8931,448.7949 Q1437.2212,448.7949 1437.4712,449.0605 Q1437.7368,449.3105 1437.7368,449.6543 Q1437.7368,449.998 1437.3931,450.4043 Q1436.8931,450.9824 1436.0962,451.3105 Q1435.0181,451.7637 1433.7212,451.7637 Q1432.2056,451.7637 1431.0024,451.1387 Q1430.0181,450.6387 1429.3306,449.5762 Q1428.6431,448.498 1428.6431,447.2168 L1428.6431,446.0605 Q1428.6431,444.7324 1429.2524,443.5918 Q1429.8774,442.4355 1430.9712,441.8262 Q1432.0649,441.2012 1433.2993,441.2012 Q1434.0337,441.2012 1434.6743,441.373 Q1435.3306,441.5293 1435.8774,441.8887 Z " fill="#000000"/><text fill="#000000" font-family="sans-serif" font-size="14" lengthAdjust="spacing" textLength="17.124" x="1453.6118" y="451.8105">A6</text><line style="stroke:#181818;stroke-width:0.5;" x1="1356.5" x2="1535.3477" y1="462.0137" y2="462.0137"/><text fill="#000000" font-family="sans-serif" font-size="14" lengthAdjust="spacing" textLength="168.8477" x="1361.5" y="481.1211">Error Handler / Supervision</text><line style="stroke:#181818;stroke-width:0.5;" x1="1356.5" x2="1535.3477" y1="488.6348" y2="488.6348"/></g><!--class A7--><g id="elem_A7"><rect fill="#F1F1F1" height="66.6211" id="A7" rx="2.5" ry="2.5" style="stroke:#181818;stroke-width:0.5;" width="164.5098" x="2083.5" y="430.0137"/><ellipse cx="2152.9429" cy="446.0137" fill="#ADD1B2" rx="11" ry="11" style="stroke:#181818;stroke-width:1.0;"/><path d="M2155.7085,441.8887 Q2155.8647,441.6699 2156.0522,441.5605 Q2156.2397,441.4512 2156.4585,441.4512 Q2156.8335,441.4512 2157.0679,441.7168 Q2157.3022,441.9668 2157.3022,442.5762 L2157.3022,444.0293 Q2157.3022,444.6387 2157.0679,444.9043 Q2156.8335,445.1699 2156.4585,445.1699 Q2156.1147,445.1699 2155.9116,444.9668 Q2155.7085,444.7793 2155.5991,444.2637 Q2155.5522,443.9043 2155.3647,443.7168 Q2155.0366,443.3418 2154.4272,443.123 Q2153.8179,442.9043 2153.1929,442.9043 Q2152.4272,442.9043 2151.7866,443.2324 Q2151.1616,443.5605 2150.6616,444.3105 Q2150.1772,445.0605 2150.1772,446.0918 L2150.1772,447.1855 Q2150.1772,448.4199 2151.0679,449.248 Q2151.9585,450.0605 2153.5522,450.0605 Q2154.4897,450.0605 2155.146,449.8105 Q2155.5366,449.6543 2155.9585,449.2168 Q2156.2241,448.9512 2156.3647,448.873 Q2156.521,448.7949 2156.7241,448.7949 Q2157.0522,448.7949 2157.3022,449.0605 Q2157.5679,449.3105 2157.5679,449.6543 Q2157.5679,449.998 2157.2241,450.4043 Q2156.7241,450.9824 2155.9272,451.3105 Q2154.8491,451.7637 2153.5522,451.7637 Q2152.0366,451.7637 2150.8335,451.1387 Q2149.8491,450.6387 2149.1616,449.5762 Q2148.4741,448.498 2148.4741,447.2168 L2148.4741,446.0605 Q2148.4741,444.7324 2149.0835,443.5918 Q2149.7085,442.4355 2150.8022,441.8262 Q2151.896,441.2012 2153.1304,441.2012 Q2153.8647,441.2012 2154.5054,441.373 Q2155.1616,441.5293 2155.7085,441.8887 Z " fill="#000000"/><text fill="#000000" font-family="sans-serif" font-size="14" lengthAdjust="spacing" textLength="17.124" x="2173.4429" y="451.8105">A7</text><line style="stroke:#181818;stroke-width:0.5;" x1="2084.5" x2="2247.0098" y1="462.0137" y2="462.0137"/><text fill="#000000" font-family="sans-serif" font-size="14" lengthAdjust="spacing" textLength="152.5098" x="2089.5" y="481.1211">Zombie Coroutine Policy</text><line style="stroke:#181818;stroke-width:0.5;" x1="2084.5" x2="2247.0098" y1="488.6348" y2="488.6348"/></g><!--link R1 to F1--><g id="link_R1_F1"><path codeLine="44" d="M747.04,155.1437 C727.44,171.1437 708,187.0137 708,187.0137 C708,187.0137 708,206.0137 708,206.0137 C708,206.0137 801,214.0137 801,214.0137 C801,214.0137 811.1287,232.2773 822.8487,253.3973 " fill="none" id="R1-to-F1" style="stroke:#181818;stroke-width:1.0;"/><polygon fill="#181818" points="825.76,258.6437,824.8906,248.8333,823.3339,254.2717,817.8954,252.715,825.76,258.6437" style="stroke:#181818;stroke-width:1.0;"/><text fill="#000000" font-family="sans-serif" font-size="13" lengthAdjust="spacing" textLength="138.7534" x="709" y="202.042">Enable non-blocking I/O</text></g><!--link R1 to F2--><g id="link_R1_F2"><path codeLine="45" d="M702.18,140.9937 C614.71,160.0537 491,187.0137 491,187.0137 C491,187.0137 491,206.0137 491,206.0137 C491,206.0137 663.0537,260.9106 729.0237,281.9506 " fill="none" id="R1-to-F2" style="stroke:#181818;stroke-width:1.0;"/><polygon fill="#181818" points="734.74,283.7737,727.3809,277.2281,729.9764,282.2544,724.9501,284.8499,734.74,283.7737" style="stroke:#181818;stroke-width:1.0;"/><text fill="#000000" font-family="sans-serif" font-size="13" lengthAdjust="spacing" textLength="143.7744" x="492" y="202.042">Wait for coroutine results</text></g><!--link R2 to F4--><g id="link_R2_F4"><path codeLine="46" d="M1865.44,155.0537 C1887.22,167.6137 1907,179.0137 1907,179.0137 C1907,179.0137 2323,187.0137 2323,187.0137 C2323,187.0137 2323,206.0137 2323,206.0137 C2323,206.0137 2218,214.0137 2218,214.0137 C2218,214.0137 2207.6122,232.3059 2195.6222,253.4259 " fill="none" id="R2-to-F4" style="stroke:#181818;stroke-width:1.0;"/><polygon fill="#181818" points="2192.66,258.6437,2200.5818,252.7918,2195.1285,254.2955,2193.6247,248.8422,2192.66,258.6437" style="stroke:#181818;stroke-width:1.0;"/><text fill="#000000" font-family="sans-serif" font-size="13" lengthAdjust="spacing" textLength="148.8589" x="2324" y="202.042">Manage coroutine lifetime</text></g><!--link R2 to F12--><g id="link_R2_F12"><path codeLine="47" d="M1865.44,155.0537 C1887.22,167.6137 1907,179.0137 1907,179.0137 C1907,179.0137 1931,187.0137 1931,187.0137 C1931,187.0137 1944.2313,222.4727 1955.6713,253.1127 " fill="none" id="R2-to-F12" style="stroke:#181818;stroke-width:1.0;"/><polygon fill="#181818" points="1957.77,258.7337,1958.3693,248.9031,1956.0211,254.0495,1950.8746,251.7013,1957.77,258.7337" style="stroke:#181818;stroke-width:1.0;"/><text fill="#000000" font-family="sans-serif" font-size="13" lengthAdjust="spacing" textLength="168.3462" x="1938" y="202.042">Group tasks with async block</text></g><!--link R3 to F1--><g id="link_R3_F1"><path codeLine="48" d="M1186.56,155.0337 C1161.01,178.4837 1131,206.0137 1131,206.0137 C1131,206.0137 888,214.0137 888,214.0137 C888,214.0137 877.6122,232.3059 865.6222,253.4259 " fill="none" id="R3-to-F1" style="stroke:#181818;stroke-width:1.0;"/><polygon fill="#181818" points="862.66,258.6437,870.5818,252.7918,865.1285,254.2955,863.6247,248.8422,862.66,258.6437" style="stroke:#181818;stroke-width:1.0;"/><text fill="#000000" font-family="sans-serif" font-size="13" lengthAdjust="spacing" textLength="179.2261" x="1151" y="202.042">Launch functions as coroutines</text></g><!--link R3 to F3--><g id="link_R3_F3"><path codeLine="49" d="M1278.44,155.0537 C1300.22,167.6137 1320,179.0137 1320,179.0137 C1320,179.0137 2115,187.0137 2115,187.0137 C2115,187.0137 2115,206.0137 2115,206.0137 C2115,206.0137 2105.5731,229.0409 2095.7031,253.1509 " fill="none" id="R3-to-F3" style="stroke:#181818;stroke-width:1.0;"/><polygon fill="#181818" points="2093.43,258.7037,2100.5415,251.89,2095.3243,254.0764,2093.1379,248.8591,2093.43,258.7037" style="stroke:#181818;stroke-width:1.0;"/><text fill="#000000" font-family="sans-serif" font-size="13" lengthAdjust="spacing" textLength="140.9116" x="2116" y="202.042">Suspend/resume control</text></g><!--link R4 to F6--><g id="link_R4_F6"><path codeLine="50" d="M1005.48,155.1437 C1004.74,171.1437 1004,187.0137 1004,187.0137 C1004,187.0137 1004,206.0137 1004,206.0137 C1004,206.0137 1132,214.0137 1132,214.0137 C1132,214.0137 1150.8591,233.2397 1171.5691,254.3597 " fill="none" id="R4-to-F6" style="stroke:#181818;stroke-width:1.0;"/><polygon fill="#181818" points="1175.77,258.6437,1172.3247,249.4171,1172.2693,255.0737,1166.6127,255.0182,1175.77,258.6437" style="stroke:#181818;stroke-width:1.0;"/><text fill="#000000" font-family="sans-serif" font-size="13" lengthAdjust="spacing" textLength="121.3989" x="1005" y="202.042">Cancel running tasks</text></g><!--link R4 to F8--><g id="link_R4_F8"><path codeLine="51" d="M939.04,155.0537 C912.81,167.6137 889,179.0137 889,179.0137 C889,179.0137 856,187.0137 856,187.0137 C856,187.0137 856,206.0137 856,206.0137 C856,206.0137 888,214.0137 888,214.0137 C888,214.0137 920.2055,234.4764 953.5455,255.6564 " fill="none" id="R4-to-F8" style="stroke:#181818;stroke-width:1.0;"/><polygon fill="#181818" points="958.61,258.8737,953.1582,250.6714,954.3896,256.1926,948.8684,257.424,958.61,258.8737" style="stroke:#181818;stroke-width:1.0;"/><text fill="#000000" font-family="sans-serif" font-size="13" lengthAdjust="spacing" textLength="106.958" x="857" y="202.042">Handle exceptions</text></g><!--link R5 to F5--><g id="link_R5_F5"><path codeLine="52" d="M1413.89,155.0337 C1416.7,178.4837 1420,206.0137 1420,206.0137 C1420,206.0137 1450,214.0137 1450,214.0137 C1450,214.0137 1461.4009,232.4227 1474.4809,253.5427 " fill="none" id="R5-to-F5" style="stroke:#181818;stroke-width:1.0;"/><polygon fill="#181818" points="1477.64,258.6437,1476.302,248.8861,1475.0074,254.3929,1469.5007,253.0983,1477.64,258.6437" style="stroke:#181818;stroke-width:1.0;"/><text fill="#000000" font-family="sans-serif" font-size="13" lengthAdjust="spacing" textLength="150.3062" x="1421" y="202.042">Associate data with scope</text></g><!--link R6 to F7--><g id="link_R6_F7"><path codeLine="53" d="M1667.05,155.0537 C1690.61,167.6137 1712,179.0137 1712,179.0137 C1712,179.0137 1750,187.0137 1750,187.0137 C1750,187.0137 1762.195,222.4211 1772.755,253.0611 " fill="none" id="R6-to-F7" style="stroke:#181818;stroke-width:1.0;"/><polygon fill="#181818" points="1774.71,258.7337,1775.5592,248.9215,1773.0808,254.0065,1767.9958,251.5282,1774.71,258.7337" style="stroke:#181818;stroke-width:1.0;"/><text fill="#000000" font-family="sans-serif" font-size="13" lengthAdjust="spacing" textLength="139.458" x="1757" y="202.042">Group tasks into scopes</text></g><!--link R6 to F13--><g id="link_R6_F13"><path codeLine="54" d="M1592.85,155.1437 C1586.4,171.1437 1580,187.0137 1580,187.0137 C1580,187.0137 1580,206.0137 1580,206.0137 C1580,206.0137 1586.398,228.8171 1593.168,252.9271 " fill="none" id="R6-to-F13" style="stroke:#181818;stroke-width:1.0;"/><polygon fill="#181818" points="1594.79,258.7037,1596.208,248.9574,1593.4383,253.8898,1588.5059,251.1202,1594.79,258.7037" style="stroke:#181818;stroke-width:1.0;"/><text fill="#000000" font-family="sans-serif" font-size="13" lengthAdjust="spacing" textLength="164.728" x="1581" y="202.042">Group tasks with TaskGroup</text></g><!--link R7 to F10--><g id="link_R7_F10"><path codeLine="55" d="M2148.14,137.6737 C2289.14,156.7437 2513,187.0137 2513,187.0137 C2513,187.0137 2513,206.0137 2513,206.0137 C2513,206.0137 2429,214.0137 2429,214.0137 C2429,214.0137 2401.4636,234.1525 2372.4936,255.3325 " fill="none" id="R7-to-F10" style="stroke:#181818;stroke-width:1.0;"/><polygon fill="#181818" points="2367.65,258.8737,2377.2761,256.791,2371.6863,255.9227,2372.5546,250.3329,2367.65,258.8737" style="stroke:#181818;stroke-width:1.0;"/><text fill="#000000" font-family="sans-serif" font-size="13" lengthAdjust="spacing" textLength="187.8525" x="2514" y="202.042">Define explicit/implicit coroutines</text></g><!--link R7 to F11--><g id="link_R7_F11"><path codeLine="56" d="M2148.05,133.2337 C2339.71,151.5737 2710,187.0137 2710,187.0137 C2710,187.0137 2710,206.0137 2710,206.0137 C2710,206.0137 2639.713,236.2157 2581.673,261.1457 " fill="none" id="R7-to-F11" style="stroke:#181818;stroke-width:1.0;"/><polygon fill="#181818" points="2576.16,263.5137,2586.0081,263.637,2580.7541,261.5404,2582.8508,256.2864,2576.16,263.5137" style="stroke:#181818;stroke-width:1.0;"/><text fill="#000000" font-family="sans-serif" font-size="13" lengthAdjust="spacing" textLength="187.1606" x="2711" y="202.042">Introduce zombie coroutine logic</text></g><!--link F1 to A1--><g id="link_F1_A1"><path codeLine="59" d="M819.24,326.0537 C809.68,338.6137 801,350.0137 801,350.0137 C801,350.0137 251,358.0137 251,358.0137 C251,358.0137 251,377.0137 251,377.0137 C251,377.0137 852.0409,438.2656 1033.4409,456.7456 " fill="none" id="F1-to-A1" style="stroke:#181818;stroke-width:1.0;"/><polygon fill="#181818" points="1039.41,457.3537,1030.8617,452.4621,1034.4357,456.8469,1030.0509,460.4209,1039.41,457.3537" style="stroke:#181818;stroke-width:1.0;"/><text fill="#000000" font-family="sans-serif" font-size="13" lengthAdjust="spacing" textLength="188.6206" x="252" y="373.042">Launch coroutines via Scheduler</text></g><!--link F1 to A2--><g id="link_F1_A2"><path codeLine="60" d="M819.24,326.0537 C809.68,338.6137 801,350.0137 801,350.0137 C801,350.0137 481,358.0137 481,358.0137 C481,358.0137 481,377.0137 481,377.0137 C481,377.0137 1158,385.0137 1158,385.0137 C1158,385.0137 1180.9539,404.778 1205.5439,425.958 " fill="none" id="F1-to-A2" style="stroke:#181818;stroke-width:1.0;"/><polygon fill="#181818" points="1210.09,429.8737,1205.8813,420.9694,1206.3016,426.6106,1200.6603,427.0309,1210.09,429.8737" style="stroke:#181818;stroke-width:1.0;"/><text fill="#000000" font-family="sans-serif" font-size="13" lengthAdjust="spacing" textLength="166.1816" x="482" y="373.042">Non-blocking I/O via Reactor</text></g><!--link F2 to A1--><g id="link_F2_A1"><path codeLine="61" d="M734.65,295.8437 C613.99,307.4137 86,358.0137 86,358.0137 C86,358.0137 86,377.0137 86,377.0137 C86,377.0137 829.1016,440.2946 1033.2016,457.6746 " fill="none" id="F2-to-A1" style="stroke:#181818;stroke-width:1.0;"/><polygon fill="#181818" points="1039.18,458.1837,1030.5518,453.4345,1034.198,457.7594,1029.8731,461.4056,1039.18,458.1837" style="stroke:#181818;stroke-width:1.0;"/><text fill="#000000" font-family="sans-serif" font-size="13" lengthAdjust="spacing" textLength="155.3589" x="87" y="373.042">Await coroutine completion</text></g><!--link F3 to A3--><g id="link_F3_A3"><path codeLine="62" d="M2109.37,326.0537 C2120.71,338.6137 2131,350.0137 2131,350.0137 C2131,350.0137 2523,358.0137 2523,358.0137 C2523,358.0137 2523,377.0137 2523,377.0137 C2523,377.0137 2066,385.0137 2066,385.0137 C2066,385.0137 2041.0576,404.9485 2014.5476,426.1285 " fill="none" id="F3-to-A3" style="stroke:#181818;stroke-width:1.0;"/><polygon fill="#181818" points="2009.86,429.8737,2019.3882,427.381,2013.7664,426.7527,2014.3947,421.1309,2009.86,429.8737" style="stroke:#181818;stroke-width:1.0;"/><text fill="#000000" font-family="sans-serif" font-size="13" lengthAdjust="spacing" textLength="164.7725" x="2524" y="373.042">Suspend control in coroutine</text></g><!--link F4 to A4--><g id="link_F4_A4"><path codeLine="63" d="M2199.34,326.0537 C2209.12,338.6137 2218,350.0137 2218,350.0137 C2218,350.0137 2697,358.0137 2697,358.0137 C2697,358.0137 2697,377.0137 2697,377.0137 C2697,377.0137 1873,385.0137 1873,385.0137 C1873,385.0137 1854.1409,404.2397 1833.4309,425.3597 " fill="none" id="F4-to-A4" style="stroke:#181818;stroke-width:1.0;"/><polygon fill="#181818" points="1829.23,429.6437,1838.3873,426.0182,1832.7307,426.0737,1832.6753,420.4171,1829.23,429.6437" style="stroke:#181818;stroke-width:1.0;"/><text fill="#000000" font-family="sans-serif" font-size="13" lengthAdjust="spacing" textLength="141.6162" x="2698" y="373.042">Control Scope Hierarchy</text></g><!--link F5 to A5--><g id="link_F5_A5"><path codeLine="64" d="M1470.36,326.0537 C1459.69,338.6137 1450,350.0137 1450,350.0137 C1450,350.0137 1356,358.0137 1356,358.0137 C1356,358.0137 1356,377.0137 1356,377.0137 C1356,377.0137 1554,385.0137 1554,385.0137 C1554,385.0137 1575.0694,404.4559 1597.9694,425.5759 " fill="none" id="F5-to-A5" style="stroke:#181818;stroke-width:1.0;"/><polygon fill="#181818" points="1602.38,429.6437,1598.476,420.6016,1598.7045,426.2539,1593.0523,426.4824,1602.38,429.6437" style="stroke:#181818;stroke-width:1.0;"/><text fill="#000000" font-family="sans-serif" font-size="13" lengthAdjust="spacing" textLength="203.7852" x="1357" y="373.042">Context propagation across scopes</text></g><!--link F6 to A6--><g id="link_F6_A6"><path codeLine="65" d="M1164.23,326.0537 C1147.34,338.6137 1132,350.0137 1132,350.0137 C1132,350.0137 927,358.0137 927,358.0137 C927,358.0137 927,377.0137 927,377.0137 C927,377.0137 1338,385.0137 1338,385.0137 C1338,385.0137 1366.1255,405.1952 1395.6355,426.3752 " fill="none" id="F6-to-A6" style="stroke:#181818;stroke-width:1.0;"/><polygon fill="#181818" points="1400.51,429.8737,1395.5306,421.3763,1396.4479,426.9582,1390.866,427.8755,1400.51,429.8737" style="stroke:#181818;stroke-width:1.0;"/><text fill="#000000" font-family="sans-serif" font-size="13" lengthAdjust="spacing" textLength="192.2388" x="928" y="373.042">Propagate CancellationException</text></g><!--link F7 to A4--><g id="link_F7_A4"><path codeLine="66" d="M1857.41,326.0537 C1884.98,338.6137 1910,350.0137 1910,350.0137 C1910,350.0137 1985,358.0137 1985,358.0137 C1985,358.0137 1985,377.0137 1985,377.0137 C1985,377.0137 1873,385.0137 1873,385.0137 C1873,385.0137 1854.1409,404.2397 1833.4309,425.3597 " fill="none" id="F7-to-A4" style="stroke:#181818;stroke-width:1.0;"/><polygon fill="#181818" points="1829.23,429.6437,1838.3873,426.0182,1832.7307,426.0737,1832.6753,420.4171,1829.23,429.6437" style="stroke:#181818;stroke-width:1.0;"/><text fill="#000000" font-family="sans-serif" font-size="13" lengthAdjust="spacing" textLength="222.5679" x="1986" y="373.042">Structured concurrency through Scope</text></g><!--link F12 to A4--><g id="link_F12_A4"><path codeLine="67" d="M2004.55,326.0537 C2017.89,338.6137 2030,350.0137 2030,350.0137 C2030,350.0137 2217,358.0137 2217,358.0137 C2217,358.0137 2217,377.0137 2217,377.0137 C2217,377.0137 1873,385.0137 1873,385.0137 C1873,385.0137 1854.1409,404.2397 1833.4309,425.3597 " fill="none" id="F12-to-A4" style="stroke:#181818;stroke-width:1.0;"/><polygon fill="#181818" points="1829.23,429.6437,1838.3873,426.0182,1832.7307,426.0737,1832.6753,420.4171,1829.23,429.6437" style="stroke:#181818;stroke-width:1.0;"/><text fill="#000000" font-family="sans-serif" font-size="13" lengthAdjust="spacing" textLength="232.6543" x="2218" y="373.042">Structured concurrency with async block</text></g><!--link F8 to A6--><g id="link_F8_A6"><path codeLine="68" d="M939.74,326.0537 C912.62,338.6137 888,350.0137 888,350.0137 C888,350.0137 753,358.0137 753,358.0137 C753,358.0137 753,377.0137 753,377.0137 C753,377.0137 1338,385.0137 1338,385.0137 C1338,385.0137 1366.1255,405.1952 1395.6355,426.3752 " fill="none" id="F8-to-A6" style="stroke:#181818;stroke-width:1.0;"/><polygon fill="#181818" points="1400.51,429.8737,1395.5306,421.3763,1396.4479,426.9582,1390.866,427.8755,1400.51,429.8737" style="stroke:#181818;stroke-width:1.0;"/><text fill="#000000" font-family="sans-serif" font-size="13" lengthAdjust="spacing" textLength="164.0615" x="754" y="373.042">Handle uncaught exceptions</text></g><!--link F9 to A6--><g id="link_F9_A6"><path codeLine="69" d="M1319.2,326.0537 C1300.75,338.6137 1284,350.0137 1284,350.0137 C1284,350.0137 1129,358.0137 1129,358.0137 C1129,358.0137 1129,377.0137 1129,377.0137 C1129,377.0137 1338,385.0137 1338,385.0137 C1338,385.0137 1366.1255,405.1952 1395.6355,426.3752 " fill="none" id="F9-to-A6" style="stroke:#181818;stroke-width:1.0;"/><polygon fill="#181818" points="1400.51,429.8737,1395.5306,421.3763,1396.4479,426.9582,1390.866,427.8755,1400.51,429.8737" style="stroke:#181818;stroke-width:1.0;"/><text fill="#000000" font-family="sans-serif" font-size="13" lengthAdjust="spacing" textLength="185.707" x="1130" y="373.042">Graceful shutdown on fatal error</text></g><!--link F10 to A3--><g id="link_F10_A3"><path codeLine="70" d="M2384.05,326.0537 C2407.61,338.6137 2429,350.0137 2429,350.0137 C2429,350.0137 2912,358.0137 2912,358.0137 C2912,358.0137 2912,377.0137 2912,377.0137 C2912,377.0137 2066,385.0137 2066,385.0137 C2066,385.0137 2041.0576,404.9485 2014.5476,426.1285 " fill="none" id="F10-to-A3" style="stroke:#181818;stroke-width:1.0;"/><polygon fill="#181818" points="2009.86,429.8737,2019.3882,427.381,2013.7664,426.7527,2014.3947,421.1309,2009.86,429.8737" style="stroke:#181818;stroke-width:1.0;"/><text fill="#000000" font-family="sans-serif" font-size="13" lengthAdjust="spacing" textLength="211.0088" x="2913" y="373.042">Define coroutine management policy</text></g><!--link F11 to A7--><g id="link_F11_A7"><path codeLine="71" d="M2576.1,299.9337 C2741.52,316.2437 3165,358.0137 3165,358.0137 C3165,358.0137 3165,377.0137 3165,377.0137 C3165,377.0137 2493.9282,434.4522 2254.5782,454.9322 " fill="none" id="F11-to-A7" style="stroke:#181818;stroke-width:1.0;"/><polygon fill="#181818" points="2248.6,455.4437,2257.9082,458.6618,2253.5818,455.0174,2257.2262,450.691,2248.6,455.4437" style="stroke:#181818;stroke-width:1.0;"/><text fill="#000000" font-family="sans-serif" font-size="13" lengthAdjust="spacing" textLength="216.0679" x="3166" y="373.042">Implement zombie coroutine handling</text></g><!--link F13 to A4--><g id="link_F13_A4"><path codeLine="72" d="M1637.4,326.0537 C1650.3,338.6137 1662,350.0137 1662,350.0137 C1662,350.0137 1734,358.0137 1734,358.0137 C1734,358.0137 1755.6612,393.9558 1774.1412,424.5958 " fill="none" id="F13-to-A4" style="stroke:#181818;stroke-width:1.0;"/><polygon fill="#181818" points="1777.24,429.7337,1776.017,419.961,1774.6577,425.4521,1769.1666,424.0928,1777.24,429.7337" style="stroke:#181818;stroke-width:1.0;"/><text fill="#000000" font-family="sans-serif" font-size="13" lengthAdjust="spacing" textLength="185.7261" x="1745" y="373.042">Additional concurrency grouping</text></g><!--link F13 to A6--><g id="link_F13_A6"><path codeLine="73" d="M1588.81,326.0337 C1577.86,349.4837 1565,377.0137 1565,377.0137 C1565,377.0137 1529.8329,402.283 1496.2029,426.443 " fill="none" id="F13-to-A6" style="stroke:#181818;stroke-width:1.0;"/><polygon fill="#181818" points="1491.33,429.9437,1500.9731,427.9412,1495.3907,427.0264,1496.3055,421.444,1491.33,429.9437" style="stroke:#181818;stroke-width:1.0;"/><text fill="#000000" font-family="sans-serif" font-size="13" lengthAdjust="spacing" textLength="151.0488" x="1574" y="373.042">Aggregated error handling</text></g><!--SRC=[XLR1RkCs4BthAmPxwIb8axJhjeS2mZRQ6DYsHhp00hqnr5WY8fCgIILnY_ttpf0IIILkwuEXIC_3D- -z6SKzAZqAAuumA8t-D2ACPZZn7rNr3Vo21xe2toCSXT8m2laeEdJLV07lTdSx-6mdXDgTj8JxviCx-Bi2-YJ8FVuvAOj7rDuj3_bpVmK_mMz6NpmCHXAF3hQNlyD-6aTZVKPT4shlxIJzPB653qRBoLhKyfGnDuJvR8Lsr0iTGo1h9a_KNSPyHvXRQuq5eQcCq1A7GNXbDDVqrWmP-prX-IQ-UFXLQ6g3sUVdx_ayuHxX8vqpCdMkkPTcn0pQp4MeSa48lYZVqtM1_bgj1MjGSAyhiHeMYzfxrlaMAoEUXSh46XR2JMv4tUQRtFcQMrCqc6zoLojTwjqsFztygmzlF6j-I5hlh1b55yknHdVqHUdgClP7mdwqGk9X6c3VJxurPPDNttAjbt5GKldBxJ5Ud7EukMAD_Z371uNddmV1Gav3v8edDxEXmS-pfjHMzieZTo_8prxeRkrGVHLaxh6T1hGhxMe- -1w5zAJ89Tm-SKO_6JDcn4qmPEPyBdDrSX7k55f1TF80r6LWjxf7gpmRcG7laoF10MGUP1lQ9-N8cmpSdD4GTePKFyswV2qsWyKO5TUhqS71cYEKumxUm9BcYkRzukBdcEHRBHu61Frg-XE61Vj2oOO3CPQ91vMP1a-bhYECDObQ5Q117T2h8oPKy3qu2vuyTl1C8xWA0YsGHEsJcBJiuK3VeJC2vk8kGTcmVPoqIwPrP0fnZT2g2P0yJs0dhRd7S7u2y9X4Em1V98xXl8gsJtZAdjRE6Qc4HsY55v6u2wDCEoYWDgzwKveq3n2NC27URmJ8UQTL5N4yQxEpk8oSMaQk567v0GksvQxRIIBy5NDJM64w9VyxBaiyE2fdPwngOYRgmfnC1PwKo5ENiDVdNYqCdQUmQgvpqPftQC5Q6cePcMVLHBVhmkt5Pb8w_wPgegLXIfUb_tfQcsZiQbZ7SZzAQvnRp6kYUM5obosAg_ryksIcQZRvz697os97-vweTlty8k2P-BzVl9aIocjYDCUMt11KrPVvfOsUO6cnktcn0_Lve2WFWBoDAivSKdXEINRYcFOW_rl2AuWZ5_2SUtuRnATlajSlxnaEV-gqRbl59EduijDkVejdC7ElkyuYYzv6hhdcFm00]--></g></svg>