<svg xmlns="http://www.w3.org/2000/svg" xmlns:xlink="http://www.w3.org/1999/xlink" contentStyleType="text/css" height="544px" preserveAspectRatio="none" style="width:3025px;height:544px;background:#FFFFFF;" version="1.1" viewBox="0 0 3025 544" width="3025px" zoomAndPan="magnify"><defs/><g><!--cluster PHP True Async RFC--><g id="cluster_PHP True Async RFC"><path d="M8.5,6.0137 L151.0859,6.0137 A3.75,3.75 0 0 1 153.5859,8.5137 L160.5859,30.6348 L3015.5,30.6348 A2.5,2.5 0 0 1 3018,33.1348 L3018,534.5137 A2.5,2.5 0 0 1 3015.5,537.0137 L8.5,537.0137 A2.5,2.5 0 0 1 6,534.5137 L6,8.5137 A2.5,2.5 0 0 1 8.5,6.0137 " fill="none" style="stroke:#000000;stroke-width:1.5;"/><line style="stroke:#000000;stroke-width:1.5;" x1="6" x2="160.5859" y1="30.6348" y2="30.6348"/><text fill="#000000" font-family="sans-serif" font-size="14" font-weight="bold" lengthAdjust="spacing" textLength="141.5859" x="10" y="23.1211">PHP True Async RFC</text></g><!--cluster Requirements--><g id="cluster_Requirements"><path d="M836.5,51.0137 L930.8584,51.0137 A3.75,3.75 0 0 1 933.3584,53.5137 L940.3584,75.6348 L2308.5,75.6348 A2.5,2.5 0 0 1 2311,78.1348 L2311,168.5137 A2.5,2.5 0 0 1 2308.5,171.0137 L836.5,171.0137 A2.5,2.5 0 0 1 834,168.5137 L834,53.5137 A2.5,2.5 0 0 1 836.5,51.0137 " fill="none" style="stroke:#000000;stroke-width:1.5;"/><line style="stroke:#000000;stroke-width:1.5;" x1="834" x2="940.3584" y1="75.6348" y2="75.6348"/><text fill="#000000" font-family="sans-serif" font-size="14" font-weight="bold" lengthAdjust="spacing" textLength="93.3584" x="838" y="68.1211">Requirements</text></g><!--cluster Features--><g id="cluster_Features"><path d="M578.5,222.0137 L637.8584,222.0137 A3.75,3.75 0 0 1 640.3584,224.5137 L647.3584,246.6348 L2325.5,246.6348 A2.5,2.5 0 0 1 2328,249.1348 L2328,339.5137 A2.5,2.5 0 0 1 2325.5,342.0137 L578.5,342.0137 A2.5,2.5 0 0 1 576,339.5137 L576,224.5137 A2.5,2.5 0 0 1 578.5,222.0137 " fill="none" style="stroke:#000000;stroke-width:1.5;"/><line style="stroke:#000000;stroke-width:1.5;" x1="576" x2="647.3584" y1="246.6348" y2="246.6348"/><text fill="#000000" font-family="sans-serif" font-size="14" font-weight="bold" lengthAdjust="spacing" textLength="58.3584" x="580" y="239.1211">Features</text></g><!--cluster Architectural Changes--><g id="cluster_Architectural Changes"><path d="M910.5,393.0137 L1060.8721,393.0137 A3.75,3.75 0 0 1 1063.3721,395.5137 L1070.3721,417.6348 L2147.5,417.6348 A2.5,2.5 0 0 1 2150,420.1348 L2150,510.5137 A2.5,2.5 0 0 1 2147.5,513.0137 L910.5,513.0137 A2.5,2.5 0 0 1 908,510.5137 L908,395.5137 A2.5,2.5 0 0 1 910.5,393.0137 " fill="none" style="stroke:#000000;stroke-width:1.5;"/><line style="stroke:#000000;stroke-width:1.5;" x1="908" x2="1070.3721" y1="417.6348" y2="417.6348"/><text fill="#000000" font-family="sans-serif" font-size="14" font-weight="bold" lengthAdjust="spacing" textLength="149.3721" x="912" y="410.1211">Architectural Changes</text></g><!--class R1--><g id="elem_R1"><rect fill="#F1F1F1" height="66.6211" id="R1" rx="2.5" ry="2.5" style="stroke:#181818;stroke-width:0.5;" width="169.1924" x="850.5" y="88.0137"/><ellipse cx="921.8979" cy="104.0137" fill="#ADD1B2" rx="11" ry="11" style="stroke:#181818;stroke-width:1.0;"/><path d="M924.6636,99.8887 Q924.8198,99.6699 925.0073,99.5605 Q925.1948,99.4512 925.4136,99.4512 Q925.7886,99.4512 926.0229,99.7168 Q926.2573,99.9668 926.2573,100.5762 L926.2573,102.0293 Q926.2573,102.6387 926.0229,102.9043 Q925.7886,103.1699 925.4136,103.1699 Q925.0698,103.1699 924.8667,102.9668 Q924.6636,102.7793 924.5542,102.2637 Q924.5073,101.9043 924.3198,101.7168 Q923.9917,101.3418 923.3823,101.123 Q922.7729,100.9043 922.1479,100.9043 Q921.3823,100.9043 920.7417,101.2324 Q920.1167,101.5605 919.6167,102.3105 Q919.1323,103.0605 919.1323,104.0918 L919.1323,105.1855 Q919.1323,106.4199 920.0229,107.248 Q920.9136,108.0605 922.5073,108.0605 Q923.4448,108.0605 924.1011,107.8105 Q924.4917,107.6543 924.9136,107.2168 Q925.1792,106.9512 925.3198,106.873 Q925.4761,106.7949 925.6792,106.7949 Q926.0073,106.7949 926.2573,107.0605 Q926.5229,107.3105 926.5229,107.6543 Q926.5229,107.998 926.1792,108.4043 Q925.6792,108.9824 924.8823,109.3105 Q923.8042,109.7637 922.5073,109.7637 Q920.9917,109.7637 919.7886,109.1387 Q918.8042,108.6387 918.1167,107.5762 Q917.4292,106.498 917.4292,105.2168 L917.4292,104.0605 Q917.4292,102.7324 918.0386,101.5918 Q918.6636,100.4355 919.7573,99.8262 Q920.8511,99.2012 922.0854,99.2012 Q922.8198,99.2012 923.4604,99.373 Q924.1167,99.5293 924.6636,99.8887 Z " fill="#000000"/><text fill="#000000" font-family="sans-serif" font-size="14" lengthAdjust="spacing" textLength="17.8965" x="942.3979" y="109.8105">R1</text><line style="stroke:#181818;stroke-width:0.5;" x1="851.5" x2="1018.6924" y1="120.0137" y2="120.0137"/><text fill="#000000" font-family="sans-serif" font-size="14" lengthAdjust="spacing" textLength="157.1924" x="856.5" y="139.1211">Non-blocking I/O Support</text><line style="stroke:#181818;stroke-width:0.5;" x1="851.5" x2="1018.6924" y1="146.6348" y2="146.6348"/></g><!--class R2--><g id="elem_R2"><rect fill="#F1F1F1" height="66.6211" id="R2" rx="2.5" ry="2.5" style="stroke:#181818;stroke-width:0.5;" width="159.8408" x="1924" y="88.0137"/><ellipse cx="1990.7222" cy="104.0137" fill="#ADD1B2" rx="11" ry="11" style="stroke:#181818;stroke-width:1.0;"/><path d="M1993.4878,99.8887 Q1993.644,99.6699 1993.8315,99.5605 Q1994.019,99.4512 1994.2378,99.4512 Q1994.6128,99.4512 1994.8472,99.7168 Q1995.0815,99.9668 1995.0815,100.5762 L1995.0815,102.0293 Q1995.0815,102.6387 1994.8472,102.9043 Q1994.6128,103.1699 1994.2378,103.1699 Q1993.894,103.1699 1993.6909,102.9668 Q1993.4878,102.7793 1993.3784,102.2637 Q1993.3315,101.9043 1993.144,101.7168 Q1992.8159,101.3418 1992.2065,101.123 Q1991.5972,100.9043 1990.9722,100.9043 Q1990.2065,100.9043 1989.5659,101.2324 Q1988.9409,101.5605 1988.4409,102.3105 Q1987.9565,103.0605 1987.9565,104.0918 L1987.9565,105.1855 Q1987.9565,106.4199 1988.8472,107.248 Q1989.7378,108.0605 1991.3315,108.0605 Q1992.269,108.0605 1992.9253,107.8105 Q1993.3159,107.6543 1993.7378,107.2168 Q1994.0034,106.9512 1994.144,106.873 Q1994.3003,106.7949 1994.5034,106.7949 Q1994.8315,106.7949 1995.0815,107.0605 Q1995.3472,107.3105 1995.3472,107.6543 Q1995.3472,107.998 1995.0034,108.4043 Q1994.5034,108.9824 1993.7065,109.3105 Q1992.6284,109.7637 1991.3315,109.7637 Q1989.8159,109.7637 1988.6128,109.1387 Q1987.6284,108.6387 1986.9409,107.5762 Q1986.2534,106.498 1986.2534,105.2168 L1986.2534,104.0605 Q1986.2534,102.7324 1986.8628,101.5918 Q1987.4878,100.4355 1988.5815,99.8262 Q1989.6753,99.2012 1990.9097,99.2012 Q1991.644,99.2012 1992.2847,99.373 Q1992.9409,99.5293 1993.4878,99.8887 Z " fill="#000000"/><text fill="#000000" font-family="sans-serif" font-size="14" lengthAdjust="spacing" textLength="17.8965" x="2011.2222" y="109.8105">R2</text><line style="stroke:#181818;stroke-width:0.5;" x1="1925" x2="2082.8408" y1="120.0137" y2="120.0137"/><text fill="#000000" font-family="sans-serif" font-size="14" lengthAdjust="spacing" textLength="147.8408" x="1930" y="139.1211">Structured Concurrency</text><line style="stroke:#181818;stroke-width:0.5;" x1="1925" x2="2082.8408" y1="146.6348" y2="146.6348"/></g><!--class R3--><g id="elem_R3"><rect fill="#F1F1F1" height="66.6211" id="R3" rx="2.5" ry="2.5" style="stroke:#181818;stroke-width:0.5;" width="159.0752" x="1054.5" y="88.0137"/><ellipse cx="1120.8394" cy="104.0137" fill="#ADD1B2" rx="11" ry="11" style="stroke:#181818;stroke-width:1.0;"/><path d="M1123.605,99.8887 Q1123.7612,99.6699 1123.9487,99.5605 Q1124.1362,99.4512 1124.355,99.4512 Q1124.73,99.4512 1124.9644,99.7168 Q1125.1987,99.9668 1125.1987,100.5762 L1125.1987,102.0293 Q1125.1987,102.6387 1124.9644,102.9043 Q1124.73,103.1699 1124.355,103.1699 Q1124.0112,103.1699 1123.8081,102.9668 Q1123.605,102.7793 1123.4956,102.2637 Q1123.4487,101.9043 1123.2612,101.7168 Q1122.9331,101.3418 1122.3237,101.123 Q1121.7144,100.9043 1121.0894,100.9043 Q1120.3237,100.9043 1119.6831,101.2324 Q1119.0581,101.5605 1118.5581,102.3105 Q1118.0737,103.0605 1118.0737,104.0918 L1118.0737,105.1855 Q1118.0737,106.4199 1118.9644,107.248 Q1119.855,108.0605 1121.4487,108.0605 Q1122.3862,108.0605 1123.0425,107.8105 Q1123.4331,107.6543 1123.855,107.2168 Q1124.1206,106.9512 1124.2612,106.873 Q1124.4175,106.7949 1124.6206,106.7949 Q1124.9487,106.7949 1125.1987,107.0605 Q1125.4644,107.3105 1125.4644,107.6543 Q1125.4644,107.998 1125.1206,108.4043 Q1124.6206,108.9824 1123.8237,109.3105 Q1122.7456,109.7637 1121.4487,109.7637 Q1119.9331,109.7637 1118.73,109.1387 Q1117.7456,108.6387 1117.0581,107.5762 Q1116.3706,106.498 1116.3706,105.2168 L1116.3706,104.0605 Q1116.3706,102.7324 1116.98,101.5918 Q1117.605,100.4355 1118.6987,99.8262 Q1119.7925,99.2012 1121.0269,99.2012 Q1121.7612,99.2012 1122.4019,99.373 Q1123.0581,99.5293 1123.605,99.8887 Z " fill="#000000"/><text fill="#000000" font-family="sans-serif" font-size="14" lengthAdjust="spacing" textLength="17.8965" x="1141.3394" y="109.8105">R3</text><line style="stroke:#181818;stroke-width:0.5;" x1="1055.5" x2="1212.5752" y1="120.0137" y2="120.0137"/><text fill="#000000" font-family="sans-serif" font-size="14" lengthAdjust="spacing" textLength="147.0752" x="1060.5" y="139.1211">Transparent Coroutines</text><line style="stroke:#181818;stroke-width:0.5;" x1="1055.5" x2="1212.5752" y1="146.6348" y2="146.6348"/></g><!--class R4--><g id="elem_R4"><rect fill="#F1F1F1" height="66.6211" id="R4" rx="2.5" ry="2.5" style="stroke:#181818;stroke-width:0.5;" width="200.3164" x="1249" y="88.0137"/><ellipse cx="1335.96" cy="104.0137" fill="#ADD1B2" rx="11" ry="11" style="stroke:#181818;stroke-width:1.0;"/><path d="M1338.7256,99.8887 Q1338.8818,99.6699 1339.0693,99.5605 Q1339.2568,99.4512 1339.4756,99.4512 Q1339.8506,99.4512 1340.085,99.7168 Q1340.3193,99.9668 1340.3193,100.5762 L1340.3193,102.0293 Q1340.3193,102.6387 1340.085,102.9043 Q1339.8506,103.1699 1339.4756,103.1699 Q1339.1318,103.1699 1338.9287,102.9668 Q1338.7256,102.7793 1338.6162,102.2637 Q1338.5693,101.9043 1338.3818,101.7168 Q1338.0537,101.3418 1337.4443,101.123 Q1336.835,100.9043 1336.21,100.9043 Q1335.4443,100.9043 1334.8037,101.2324 Q1334.1787,101.5605 1333.6787,102.3105 Q1333.1943,103.0605 1333.1943,104.0918 L1333.1943,105.1855 Q1333.1943,106.4199 1334.085,107.248 Q1334.9756,108.0605 1336.5693,108.0605 Q1337.5068,108.0605 1338.1631,107.8105 Q1338.5537,107.6543 1338.9756,107.2168 Q1339.2412,106.9512 1339.3818,106.873 Q1339.5381,106.7949 1339.7412,106.7949 Q1340.0693,106.7949 1340.3193,107.0605 Q1340.585,107.3105 1340.585,107.6543 Q1340.585,107.998 1340.2412,108.4043 Q1339.7412,108.9824 1338.9443,109.3105 Q1337.8662,109.7637 1336.5693,109.7637 Q1335.0537,109.7637 1333.8506,109.1387 Q1332.8662,108.6387 1332.1787,107.5762 Q1331.4912,106.498 1331.4912,105.2168 L1331.4912,104.0605 Q1331.4912,102.7324 1332.1006,101.5918 Q1332.7256,100.4355 1333.8193,99.8262 Q1334.9131,99.2012 1336.1475,99.2012 Q1336.8818,99.2012 1337.5225,99.373 Q1338.1787,99.5293 1338.7256,99.8887 Z " fill="#000000"/><text fill="#000000" font-family="sans-serif" font-size="14" lengthAdjust="spacing" textLength="17.8965" x="1356.46" y="109.8105">R4</text><line style="stroke:#181818;stroke-width:0.5;" x1="1250" x2="1448.3164" y1="120.0137" y2="120.0137"/><text fill="#000000" font-family="sans-serif" font-size="14" lengthAdjust="spacing" textLength="188.3164" x="1255" y="139.1211">Error and Cancellation Control</text><line style="stroke:#181818;stroke-width:0.5;" x1="1250" x2="1448.3164" y1="146.6348" y2="146.6348"/></g><!--class R5--><g id="elem_R5"><rect fill="#F1F1F1" height="66.6211" id="R5" rx="2.5" ry="2.5" style="stroke:#181818;stroke-width:0.5;" width="145.8545" x="1743" y="88.0137"/><ellipse cx="1802.729" cy="104.0137" fill="#ADD1B2" rx="11" ry="11" style="stroke:#181818;stroke-width:1.0;"/><path d="M1805.4946,99.8887 Q1805.6509,99.6699 1805.8384,99.5605 Q1806.0259,99.4512 1806.2446,99.4512 Q1806.6196,99.4512 1806.854,99.7168 Q1807.0884,99.9668 1807.0884,100.5762 L1807.0884,102.0293 Q1807.0884,102.6387 1806.854,102.9043 Q1806.6196,103.1699 1806.2446,103.1699 Q1805.9009,103.1699 1805.6978,102.9668 Q1805.4946,102.7793 1805.3853,102.2637 Q1805.3384,101.9043 1805.1509,101.7168 Q1804.8228,101.3418 1804.2134,101.123 Q1803.604,100.9043 1802.979,100.9043 Q1802.2134,100.9043 1801.5728,101.2324 Q1800.9478,101.5605 1800.4478,102.3105 Q1799.9634,103.0605 1799.9634,104.0918 L1799.9634,105.1855 Q1799.9634,106.4199 1800.854,107.248 Q1801.7446,108.0605 1803.3384,108.0605 Q1804.2759,108.0605 1804.9321,107.8105 Q1805.3228,107.6543 1805.7446,107.2168 Q1806.0103,106.9512 1806.1509,106.873 Q1806.3071,106.7949 1806.5103,106.7949 Q1806.8384,106.7949 1807.0884,107.0605 Q1807.354,107.3105 1807.354,107.6543 Q1807.354,107.998 1807.0103,108.4043 Q1806.5103,108.9824 1805.7134,109.3105 Q1804.6353,109.7637 1803.3384,109.7637 Q1801.8228,109.7637 1800.6196,109.1387 Q1799.6353,108.6387 1798.9478,107.5762 Q1798.2603,106.498 1798.2603,105.2168 L1798.2603,104.0605 Q1798.2603,102.7324 1798.8696,101.5918 Q1799.4946,100.4355 1800.5884,99.8262 Q1801.6821,99.2012 1802.9165,99.2012 Q1803.6509,99.2012 1804.2915,99.373 Q1804.9478,99.5293 1805.4946,99.8887 Z " fill="#000000"/><text fill="#000000" font-family="sans-serif" font-size="14" lengthAdjust="spacing" textLength="17.8965" x="1823.229" y="109.8105">R5</text><line style="stroke:#181818;stroke-width:0.5;" x1="1744" x2="1887.8545" y1="120.0137" y2="120.0137"/><text fill="#000000" font-family="sans-serif" font-size="14" lengthAdjust="spacing" textLength="133.8545" x="1749" y="139.1211">Context Management</text><line style="stroke:#181818;stroke-width:0.5;" x1="1744" x2="1887.8545" y1="146.6348" y2="146.6348"/></g><!--class R6--><g id="elem_R6"><rect fill="#F1F1F1" height="66.6211" id="R6" rx="2.5" ry="2.5" style="stroke:#181818;stroke-width:0.5;" width="174.6543" x="2119.5" y="88.0137"/><ellipse cx="2193.6289" cy="104.0137" fill="#ADD1B2" rx="11" ry="11" style="stroke:#181818;stroke-width:1.0;"/><path d="M2196.3945,99.8887 Q2196.5508,99.6699 2196.7383,99.5605 Q2196.9258,99.4512 2197.1445,99.4512 Q2197.5195,99.4512 2197.7539,99.7168 Q2197.9883,99.9668 2197.9883,100.5762 L2197.9883,102.0293 Q2197.9883,102.6387 2197.7539,102.9043 Q2197.5195,103.1699 2197.1445,103.1699 Q2196.8008,103.1699 2196.5977,102.9668 Q2196.3945,102.7793 2196.2852,102.2637 Q2196.2383,101.9043 2196.0508,101.7168 Q2195.7227,101.3418 2195.1133,101.123 Q2194.5039,100.9043 2193.8789,100.9043 Q2193.1133,100.9043 2192.4727,101.2324 Q2191.8477,101.5605 2191.3477,102.3105 Q2190.8633,103.0605 2190.8633,104.0918 L2190.8633,105.1855 Q2190.8633,106.4199 2191.7539,107.248 Q2192.6445,108.0605 2194.2383,108.0605 Q2195.1758,108.0605 2195.832,107.8105 Q2196.2227,107.6543 2196.6445,107.2168 Q2196.9102,106.9512 2197.0508,106.873 Q2197.207,106.7949 2197.4102,106.7949 Q2197.7383,106.7949 2197.9883,107.0605 Q2198.2539,107.3105 2198.2539,107.6543 Q2198.2539,107.998 2197.9102,108.4043 Q2197.4102,108.9824 2196.6133,109.3105 Q2195.5352,109.7637 2194.2383,109.7637 Q2192.7227,109.7637 2191.5195,109.1387 Q2190.5352,108.6387 2189.8477,107.5762 Q2189.1602,106.498 2189.1602,105.2168 L2189.1602,104.0605 Q2189.1602,102.7324 2189.7695,101.5918 Q2190.3945,100.4355 2191.4883,99.8262 Q2192.582,99.2012 2193.8164,99.2012 Q2194.5508,99.2012 2195.1914,99.373 Q2195.8477,99.5293 2196.3945,99.8887 Z " fill="#000000"/><text fill="#000000" font-family="sans-serif" font-size="14" lengthAdjust="spacing" textLength="17.8965" x="2214.1289" y="109.8105">R6</text><line style="stroke:#181818;stroke-width:0.5;" x1="2120.5" x2="2293.1543" y1="120.0137" y2="120.0137"/><text fill="#000000" font-family="sans-serif" font-size="14" lengthAdjust="spacing" textLength="162.6543" x="2125.5" y="139.1211">Task Grouping and Scope</text><line style="stroke:#181818;stroke-width:0.5;" x1="2120.5" x2="2293.1543" y1="146.6348" y2="146.6348"/></g><!--class R7--><g id="elem_R7"><rect fill="#F1F1F1" height="66.6211" id="R7" rx="2.5" ry="2.5" style="stroke:#181818;stroke-width:0.5;" width="223.6611" x="1484" y="88.0137"/><ellipse cx="1582.6323" cy="104.0137" fill="#ADD1B2" rx="11" ry="11" style="stroke:#181818;stroke-width:1.0;"/><path d="M1585.3979,99.8887 Q1585.5542,99.6699 1585.7417,99.5605 Q1585.9292,99.4512 1586.1479,99.4512 Q1586.5229,99.4512 1586.7573,99.7168 Q1586.9917,99.9668 1586.9917,100.5762 L1586.9917,102.0293 Q1586.9917,102.6387 1586.7573,102.9043 Q1586.5229,103.1699 1586.1479,103.1699 Q1585.8042,103.1699 1585.6011,102.9668 Q1585.3979,102.7793 1585.2886,102.2637 Q1585.2417,101.9043 1585.0542,101.7168 Q1584.7261,101.3418 1584.1167,101.123 Q1583.5073,100.9043 1582.8823,100.9043 Q1582.1167,100.9043 1581.4761,101.2324 Q1580.8511,101.5605 1580.3511,102.3105 Q1579.8667,103.0605 1579.8667,104.0918 L1579.8667,105.1855 Q1579.8667,106.4199 1580.7573,107.248 Q1581.6479,108.0605 1583.2417,108.0605 Q1584.1792,108.0605 1584.8354,107.8105 Q1585.2261,107.6543 1585.6479,107.2168 Q1585.9136,106.9512 1586.0542,106.873 Q1586.2104,106.7949 1586.4136,106.7949 Q1586.7417,106.7949 1586.9917,107.0605 Q1587.2573,107.3105 1587.2573,107.6543 Q1587.2573,107.998 1586.9136,108.4043 Q1586.4136,108.9824 1585.6167,109.3105 Q1584.5386,109.7637 1583.2417,109.7637 Q1581.7261,109.7637 1580.5229,109.1387 Q1579.5386,108.6387 1578.8511,107.5762 Q1578.1636,106.498 1578.1636,105.2168 L1578.1636,104.0605 Q1578.1636,102.7324 1578.7729,101.5918 Q1579.3979,100.4355 1580.4917,99.8262 Q1581.5854,99.2012 1582.8198,99.2012 Q1583.5542,99.2012 1584.1948,99.373 Q1584.8511,99.5293 1585.3979,99.8887 Z " fill="#000000"/><text fill="#000000" font-family="sans-serif" font-size="14" lengthAdjust="spacing" textLength="17.8965" x="1603.1323" y="109.8105">R7</text><line style="stroke:#181818;stroke-width:0.5;" x1="1485" x2="1706.6611" y1="120.0137" y2="120.0137"/><text fill="#000000" font-family="sans-serif" font-size="14" lengthAdjust="spacing" textLength="211.6611" x="1490" y="139.1211">Control Coroutines Without Scope</text><line style="stroke:#181818;stroke-width:0.5;" x1="1485" x2="1706.6611" y1="146.6348" y2="146.6348"/></g><!--class F1--><g id="elem_F1"><rect fill="#F1F1F1" height="66.6211" id="F1" rx="2.5" ry="2.5" style="stroke:#181818;stroke-width:0.5;" width="52.4688" x="675" y="259.0137"/><ellipse cx="691.8589" cy="275.0137" fill="#ADD1B2" rx="11" ry="11" style="stroke:#181818;stroke-width:1.0;"/><path d="M694.6245,270.8887 Q694.7808,270.6699 694.9683,270.5605 Q695.1558,270.4512 695.3745,270.4512 Q695.7495,270.4512 695.9839,270.7168 Q696.2183,270.9668 696.2183,271.5762 L696.2183,273.0293 Q696.2183,273.6387 695.9839,273.9043 Q695.7495,274.1699 695.3745,274.1699 Q695.0308,274.1699 694.8276,273.9668 Q694.6245,273.7793 694.5151,273.2637 Q694.4683,272.9043 694.2808,272.7168 Q693.9526,272.3418 693.3433,272.123 Q692.7339,271.9043 692.1089,271.9043 Q691.3433,271.9043 690.7026,272.2324 Q690.0776,272.5605 689.5776,273.3105 Q689.0933,274.0605 689.0933,275.0918 L689.0933,276.1855 Q689.0933,277.4199 689.9839,278.248 Q690.8745,279.0605 692.4683,279.0605 Q693.4058,279.0605 694.062,278.8105 Q694.4526,278.6543 694.8745,278.2168 Q695.1401,277.9512 695.2808,277.873 Q695.437,277.7949 695.6401,277.7949 Q695.9683,277.7949 696.2183,278.0605 Q696.4839,278.3105 696.4839,278.6543 Q696.4839,278.998 696.1401,279.4043 Q695.6401,279.9824 694.8433,280.3105 Q693.7651,280.7637 692.4683,280.7637 Q690.9526,280.7637 689.7495,280.1387 Q688.7651,279.6387 688.0776,278.5762 Q687.3901,277.498 687.3901,276.2168 L687.3901,275.0605 Q687.3901,273.7324 687.9995,272.5918 Q688.6245,271.4355 689.7183,270.8262 Q690.812,270.2012 692.0464,270.2012 Q692.7808,270.2012 693.4214,270.373 Q694.0776,270.5293 694.6245,270.8887 Z " fill="#000000"/><text fill="#000000" font-family="sans-serif" font-size="14" lengthAdjust="spacing" textLength="16.3379" x="706.272" y="280.8105">F1</text><line style="stroke:#181818;stroke-width:0.5;" x1="676" x2="726.4688" y1="291.0137" y2="291.0137"/><text fill="#000000" font-family="sans-serif" font-size="14" lengthAdjust="spacing" textLength="40.4688" x="681" y="310.1211">spawn</text><line style="stroke:#181818;stroke-width:0.5;" x1="676" x2="726.4688" y1="317.6348" y2="317.6348"/></g><!--class F2--><g id="elem_F2"><rect fill="#F1F1F1" height="66.6211" id="F2" rx="2.5" ry="2.5" style="stroke:#181818;stroke-width:0.5;" width="48.3379" x="592" y="259.0137"/><ellipse cx="607" cy="275.0137" fill="#ADD1B2" rx="11" ry="11" style="stroke:#181818;stroke-width:1.0;"/><path d="M609.7656,270.8887 Q609.9219,270.6699 610.1094,270.5605 Q610.2969,270.4512 610.5156,270.4512 Q610.8906,270.4512 611.125,270.7168 Q611.3594,270.9668 611.3594,271.5762 L611.3594,273.0293 Q611.3594,273.6387 611.125,273.9043 Q610.8906,274.1699 610.5156,274.1699 Q610.1719,274.1699 609.9688,273.9668 Q609.7656,273.7793 609.6563,273.2637 Q609.6094,272.9043 609.4219,272.7168 Q609.0938,272.3418 608.4844,272.123 Q607.875,271.9043 607.25,271.9043 Q606.4844,271.9043 605.8438,272.2324 Q605.2188,272.5605 604.7188,273.3105 Q604.2344,274.0605 604.2344,275.0918 L604.2344,276.1855 Q604.2344,277.4199 605.125,278.248 Q606.0156,279.0605 607.6094,279.0605 Q608.5469,279.0605 609.2031,278.8105 Q609.5938,278.6543 610.0156,278.2168 Q610.2813,277.9512 610.4219,277.873 Q610.5781,277.7949 610.7813,277.7949 Q611.1094,277.7949 611.3594,278.0605 Q611.625,278.3105 611.625,278.6543 Q611.625,278.998 611.2813,279.4043 Q610.7813,279.9824 609.9844,280.3105 Q608.9063,280.7637 607.6094,280.7637 Q606.0938,280.7637 604.8906,280.1387 Q603.9063,279.6387 603.2188,278.5762 Q602.5313,277.498 602.5313,276.2168 L602.5313,275.0605 Q602.5313,273.7324 603.1406,272.5918 Q603.7656,271.4355 604.8594,270.8262 Q605.9531,270.2012 607.1875,270.2012 Q607.9219,270.2012 608.5625,270.373 Q609.2188,270.5293 609.7656,270.8887 Z " fill="#000000"/><text fill="#000000" font-family="sans-serif" font-size="14" lengthAdjust="spacing" textLength="16.3379" x="621" y="280.8105">F2</text><line style="stroke:#181818;stroke-width:0.5;" x1="593" x2="639.3379" y1="291.0137" y2="291.0137"/><text fill="#000000" font-family="sans-serif" font-size="14" lengthAdjust="spacing" textLength="32.6826" x="598" y="310.1211">await</text><line style="stroke:#181818;stroke-width:0.5;" x1="593" x2="639.3379" y1="317.6348" y2="317.6348"/></g><!--class F3--><g id="elem_F3"><rect fill="#F1F1F1" height="66.6211" id="F3" rx="2.5" ry="2.5" style="stroke:#181818;stroke-width:0.5;" width="64.9307" x="1172.5" y="259.0137"/><ellipse cx="1194.9667" cy="275.0137" fill="#ADD1B2" rx="11" ry="11" style="stroke:#181818;stroke-width:1.0;"/><path d="M1197.7324,270.8887 Q1197.8886,270.6699 1198.0761,270.5605 Q1198.2636,270.4512 1198.4824,270.4512 Q1198.8574,270.4512 1199.0917,270.7168 Q1199.3261,270.9668 1199.3261,271.5762 L1199.3261,273.0293 Q1199.3261,273.6387 1199.0917,273.9043 Q1198.8574,274.1699 1198.4824,274.1699 Q1198.1386,274.1699 1197.9355,273.9668 Q1197.7324,273.7793 1197.623,273.2637 Q1197.5761,272.9043 1197.3886,272.7168 Q1197.0605,272.3418 1196.4511,272.123 Q1195.8417,271.9043 1195.2167,271.9043 Q1194.4511,271.9043 1193.8105,272.2324 Q1193.1855,272.5605 1192.6855,273.3105 Q1192.2011,274.0605 1192.2011,275.0918 L1192.2011,276.1855 Q1192.2011,277.4199 1193.0917,278.248 Q1193.9824,279.0605 1195.5761,279.0605 Q1196.5136,279.0605 1197.1699,278.8105 Q1197.5605,278.6543 1197.9824,278.2168 Q1198.248,277.9512 1198.3886,277.873 Q1198.5449,277.7949 1198.748,277.7949 Q1199.0761,277.7949 1199.3261,278.0605 Q1199.5917,278.3105 1199.5917,278.6543 Q1199.5917,278.998 1199.248,279.4043 Q1198.748,279.9824 1197.9511,280.3105 Q1196.873,280.7637 1195.5761,280.7637 Q1194.0605,280.7637 1192.8574,280.1387 Q1191.873,279.6387 1191.1855,278.5762 Q1190.498,277.498 1190.498,276.2168 L1190.498,275.0605 Q1190.498,273.7324 1191.1074,272.5918 Q1191.7324,271.4355 1192.8261,270.8262 Q1193.9199,270.2012 1195.1542,270.2012 Q1195.8886,270.2012 1196.5292,270.373 Q1197.1855,270.5293 1197.7324,270.8887 Z " fill="#000000"/><text fill="#000000" font-family="sans-serif" font-size="14" lengthAdjust="spacing" textLength="16.3379" x="1210.626" y="280.8105">F3</text><line style="stroke:#181818;stroke-width:0.5;" x1="1173.5" x2="1236.4307" y1="291.0137" y2="291.0137"/><text fill="#000000" font-family="sans-serif" font-size="14" lengthAdjust="spacing" textLength="52.9307" x="1178.5" y="310.1211">suspend</text><line style="stroke:#181818;stroke-width:0.5;" x1="1173.5" x2="1236.4307" y1="317.6348" y2="317.6348"/></g><!--class F4--><g id="elem_F4"><rect fill="#F1F1F1" height="66.6211" id="F4" rx="2.5" ry="2.5" style="stroke:#181818;stroke-width:0.5;" width="51.6963" x="1895" y="259.0137"/><ellipse cx="1911.5113" cy="275.0137" fill="#ADD1B2" rx="11" ry="11" style="stroke:#181818;stroke-width:1.0;"/><path d="M1914.2769,270.8887 Q1914.4332,270.6699 1914.6207,270.5605 Q1914.8082,270.4512 1915.0269,270.4512 Q1915.4019,270.4512 1915.6363,270.7168 Q1915.8707,270.9668 1915.8707,271.5762 L1915.8707,273.0293 Q1915.8707,273.6387 1915.6363,273.9043 Q1915.4019,274.1699 1915.0269,274.1699 Q1914.6832,274.1699 1914.48,273.9668 Q1914.2769,273.7793 1914.1675,273.2637 Q1914.1207,272.9043 1913.9332,272.7168 Q1913.605,272.3418 1912.9957,272.123 Q1912.3863,271.9043 1911.7613,271.9043 Q1910.9957,271.9043 1910.355,272.2324 Q1909.73,272.5605 1909.23,273.3105 Q1908.7457,274.0605 1908.7457,275.0918 L1908.7457,276.1855 Q1908.7457,277.4199 1909.6363,278.248 Q1910.5269,279.0605 1912.1207,279.0605 Q1913.0582,279.0605 1913.7144,278.8105 Q1914.105,278.6543 1914.5269,278.2168 Q1914.7925,277.9512 1914.9332,277.873 Q1915.0894,277.7949 1915.2925,277.7949 Q1915.6207,277.7949 1915.8707,278.0605 Q1916.1363,278.3105 1916.1363,278.6543 Q1916.1363,278.998 1915.7925,279.4043 Q1915.2925,279.9824 1914.4957,280.3105 Q1913.4175,280.7637 1912.1207,280.7637 Q1910.605,280.7637 1909.4019,280.1387 Q1908.4175,279.6387 1907.73,278.5762 Q1907.0425,277.498 1907.0425,276.2168 L1907.0425,275.0605 Q1907.0425,273.7324 1907.6519,272.5918 Q1908.2769,271.4355 1909.3707,270.8262 Q1910.4644,270.2012 1911.6988,270.2012 Q1912.4332,270.2012 1913.0738,270.373 Q1913.73,270.5293 1914.2769,270.8887 Z " fill="#000000"/><text fill="#000000" font-family="sans-serif" font-size="14" lengthAdjust="spacing" textLength="16.3379" x="1925.8471" y="280.8105">F4</text><line style="stroke:#181818;stroke-width:0.5;" x1="1896" x2="1945.6963" y1="291.0137" y2="291.0137"/><text fill="#000000" font-family="sans-serif" font-size="14" lengthAdjust="spacing" textLength="39.6963" x="1901" y="310.1211">Scope</text><line style="stroke:#181818;stroke-width:0.5;" x1="1896" x2="1945.6963" y1="317.6348" y2="317.6348"/></g><!--class F5--><g id="elem_F5"><rect fill="#F1F1F1" height="66.6211" id="F5" rx="2.5" ry="2.5" style="stroke:#181818;stroke-width:0.5;" width="60.248" x="1800" y="259.0137"/><ellipse cx="1820.3596" cy="275.0137" fill="#ADD1B2" rx="11" ry="11" style="stroke:#181818;stroke-width:1.0;"/><path d="M1823.1252,270.8887 Q1823.2814,270.6699 1823.4689,270.5605 Q1823.6564,270.4512 1823.8752,270.4512 Q1824.2502,270.4512 1824.4846,270.7168 Q1824.7189,270.9668 1824.7189,271.5762 L1824.7189,273.0293 Q1824.7189,273.6387 1824.4846,273.9043 Q1824.2502,274.1699 1823.8752,274.1699 Q1823.5314,274.1699 1823.3283,273.9668 Q1823.1252,273.7793 1823.0158,273.2637 Q1822.9689,272.9043 1822.7814,272.7168 Q1822.4533,272.3418 1821.8439,272.123 Q1821.2346,271.9043 1820.6096,271.9043 Q1819.8439,271.9043 1819.2033,272.2324 Q1818.5783,272.5605 1818.0783,273.3105 Q1817.5939,274.0605 1817.5939,275.0918 L1817.5939,276.1855 Q1817.5939,277.4199 1818.4846,278.248 Q1819.3752,279.0605 1820.9689,279.0605 Q1821.9064,279.0605 1822.5627,278.8105 Q1822.9533,278.6543 1823.3752,278.2168 Q1823.6408,277.9512 1823.7814,277.873 Q1823.9377,277.7949 1824.1408,277.7949 Q1824.4689,277.7949 1824.7189,278.0605 Q1824.9846,278.3105 1824.9846,278.6543 Q1824.9846,278.998 1824.6408,279.4043 Q1824.1408,279.9824 1823.3439,280.3105 Q1822.2658,280.7637 1820.9689,280.7637 Q1819.4533,280.7637 1818.2502,280.1387 Q1817.2658,279.6387 1816.5783,278.5762 Q1815.8908,277.498 1815.8908,276.2168 L1815.8908,275.0605 Q1815.8908,273.7324 1816.5002,272.5918 Q1817.1252,271.4355 1818.2189,270.8262 Q1819.3127,270.2012 1820.5471,270.2012 Q1821.2814,270.2012 1821.9221,270.373 Q1822.5783,270.5293 1823.1252,270.8887 Z " fill="#000000"/><text fill="#000000" font-family="sans-serif" font-size="14" lengthAdjust="spacing" textLength="16.3379" x="1835.5506" y="280.8105">F5</text><line style="stroke:#181818;stroke-width:0.5;" x1="1801" x2="1859.248" y1="291.0137" y2="291.0137"/><text fill="#000000" font-family="sans-serif" font-size="14" lengthAdjust="spacing" textLength="48.248" x="1806" y="310.1211">Context</text><line style="stroke:#181818;stroke-width:0.5;" x1="1801" x2="1859.248" y1="317.6348" y2="317.6348"/></g><!--class F6--><g id="elem_F6"><rect fill="#F1F1F1" height="66.6211" id="F6" rx="2.5" ry="2.5" style="stroke:#181818;stroke-width:0.5;" width="115.5029" x="1273" y="259.0137"/><ellipse cx="1318.3325" cy="275.0137" fill="#ADD1B2" rx="11" ry="11" style="stroke:#181818;stroke-width:1.0;"/><path d="M1321.0981,270.8887 Q1321.2544,270.6699 1321.4419,270.5605 Q1321.6294,270.4512 1321.8481,270.4512 Q1322.2231,270.4512 1322.4575,270.7168 Q1322.6919,270.9668 1322.6919,271.5762 L1322.6919,273.0293 Q1322.6919,273.6387 1322.4575,273.9043 Q1322.2231,274.1699 1321.8481,274.1699 Q1321.5044,274.1699 1321.3013,273.9668 Q1321.0981,273.7793 1320.9888,273.2637 Q1320.9419,272.9043 1320.7544,272.7168 Q1320.4263,272.3418 1319.8169,272.123 Q1319.2075,271.9043 1318.5825,271.9043 Q1317.8169,271.9043 1317.1763,272.2324 Q1316.5513,272.5605 1316.0513,273.3105 Q1315.5669,274.0605 1315.5669,275.0918 L1315.5669,276.1855 Q1315.5669,277.4199 1316.4575,278.248 Q1317.3481,279.0605 1318.9419,279.0605 Q1319.8794,279.0605 1320.5356,278.8105 Q1320.9263,278.6543 1321.3481,278.2168 Q1321.6138,277.9512 1321.7544,277.873 Q1321.9106,277.7949 1322.1138,277.7949 Q1322.4419,277.7949 1322.6919,278.0605 Q1322.9575,278.3105 1322.9575,278.6543 Q1322.9575,278.998 1322.6138,279.4043 Q1322.1138,279.9824 1321.3169,280.3105 Q1320.2388,280.7637 1318.9419,280.7637 Q1317.4263,280.7637 1316.2231,280.1387 Q1315.2388,279.6387 1314.5513,278.5762 Q1313.8638,277.498 1313.8638,276.2168 L1313.8638,275.0605 Q1313.8638,273.7324 1314.4731,272.5918 Q1315.0981,271.4355 1316.1919,270.8262 Q1317.2856,270.2012 1318.52,270.2012 Q1319.2544,270.2012 1319.895,270.373 Q1320.5513,270.5293 1321.0981,270.8887 Z " fill="#000000"/><text fill="#000000" font-family="sans-serif" font-size="14" lengthAdjust="spacing" textLength="16.3379" x="1338.8325" y="280.8105">F6</text><line style="stroke:#181818;stroke-width:0.5;" x1="1274" x2="1387.5029" y1="291.0137" y2="291.0137"/><text fill="#000000" font-family="sans-serif" font-size="14" lengthAdjust="spacing" textLength="103.5029" x="1279" y="310.1211">Cancellation API</text><line style="stroke:#181818;stroke-width:0.5;" x1="1274" x2="1387.5029" y1="317.6348" y2="317.6348"/></g><!--class F7--><g id="elem_F7"><rect fill="#F1F1F1" height="66.6211" id="F7" rx="2.5" ry="2.5" style="stroke:#181818;stroke-width:0.5;" width="212.7646" x="2098.5" y="259.0137"/><ellipse cx="2192.4634" cy="275.0137" fill="#ADD1B2" rx="11" ry="11" style="stroke:#181818;stroke-width:1.0;"/><path d="M2195.229,270.8887 Q2195.3853,270.6699 2195.5728,270.5605 Q2195.7603,270.4512 2195.979,270.4512 Q2196.354,270.4512 2196.5884,270.7168 Q2196.8228,270.9668 2196.8228,271.5762 L2196.8228,273.0293 Q2196.8228,273.6387 2196.5884,273.9043 Q2196.354,274.1699 2195.979,274.1699 Q2195.6353,274.1699 2195.4321,273.9668 Q2195.229,273.7793 2195.1196,273.2637 Q2195.0728,272.9043 2194.8853,272.7168 Q2194.5571,272.3418 2193.9478,272.123 Q2193.3384,271.9043 2192.7134,271.9043 Q2191.9478,271.9043 2191.3071,272.2324 Q2190.6821,272.5605 2190.1821,273.3105 Q2189.6978,274.0605 2189.6978,275.0918 L2189.6978,276.1855 Q2189.6978,277.4199 2190.5884,278.248 Q2191.479,279.0605 2193.0728,279.0605 Q2194.0103,279.0605 2194.6665,278.8105 Q2195.0571,278.6543 2195.479,278.2168 Q2195.7446,277.9512 2195.8853,277.873 Q2196.0415,277.7949 2196.2446,277.7949 Q2196.5728,277.7949 2196.8228,278.0605 Q2197.0884,278.3105 2197.0884,278.6543 Q2197.0884,278.998 2196.7446,279.4043 Q2196.2446,279.9824 2195.4478,280.3105 Q2194.3696,280.7637 2193.0728,280.7637 Q2191.5571,280.7637 2190.354,280.1387 Q2189.3696,279.6387 2188.6821,278.5762 Q2187.9946,277.498 2187.9946,276.2168 L2187.9946,275.0605 Q2187.9946,273.7324 2188.604,272.5918 Q2189.229,271.4355 2190.3228,270.8262 Q2191.4165,270.2012 2192.6509,270.2012 Q2193.3853,270.2012 2194.0259,270.373 Q2194.6821,270.5293 2195.229,270.8887 Z " fill="#000000"/><text fill="#000000" font-family="sans-serif" font-size="14" lengthAdjust="spacing" textLength="16.3379" x="2212.9634" y="280.8105">F7</text><line style="stroke:#181818;stroke-width:0.5;" x1="2099.5" x2="2310.2646" y1="291.0137" y2="291.0137"/><text fill="#000000" font-family="sans-serif" font-size="14" lengthAdjust="spacing" textLength="200.7646" x="2104.5" y="310.1211">Structured Concurrency Support</text><line style="stroke:#181818;stroke-width:0.5;" x1="2099.5" x2="2310.2646" y1="317.6348" y2="317.6348"/></g><!--class F8--><g id="elem_F8"><rect fill="#F1F1F1" height="66.6211" id="F8" rx="2.5" ry="2.5" style="stroke:#181818;stroke-width:0.5;" width="208.9023" x="762.5" y="259.0137"/><ellipse cx="854.5322" cy="275.0137" fill="#ADD1B2" rx="11" ry="11" style="stroke:#181818;stroke-width:1.0;"/><path d="M857.2979,270.8887 Q857.4541,270.6699 857.6416,270.5605 Q857.8291,270.4512 858.0479,270.4512 Q858.4229,270.4512 858.6572,270.7168 Q858.8916,270.9668 858.8916,271.5762 L858.8916,273.0293 Q858.8916,273.6387 858.6572,273.9043 Q858.4229,274.1699 858.0479,274.1699 Q857.7041,274.1699 857.501,273.9668 Q857.2979,273.7793 857.1885,273.2637 Q857.1416,272.9043 856.9541,272.7168 Q856.626,272.3418 856.0166,272.123 Q855.4072,271.9043 854.7822,271.9043 Q854.0166,271.9043 853.376,272.2324 Q852.751,272.5605 852.251,273.3105 Q851.7666,274.0605 851.7666,275.0918 L851.7666,276.1855 Q851.7666,277.4199 852.6572,278.248 Q853.5479,279.0605 855.1416,279.0605 Q856.0791,279.0605 856.7354,278.8105 Q857.126,278.6543 857.5479,278.2168 Q857.8135,277.9512 857.9541,277.873 Q858.1104,277.7949 858.3135,277.7949 Q858.6416,277.7949 858.8916,278.0605 Q859.1572,278.3105 859.1572,278.6543 Q859.1572,278.998 858.8135,279.4043 Q858.3135,279.9824 857.5166,280.3105 Q856.4385,280.7637 855.1416,280.7637 Q853.626,280.7637 852.4229,280.1387 Q851.4385,279.6387 850.751,278.5762 Q850.0635,277.498 850.0635,276.2168 L850.0635,275.0605 Q850.0635,273.7324 850.6729,272.5918 Q851.2979,271.4355 852.3916,270.8262 Q853.4854,270.2012 854.7197,270.2012 Q855.4541,270.2012 856.0947,270.373 Q856.751,270.5293 857.2979,270.8887 Z " fill="#000000"/><text fill="#000000" font-family="sans-serif" font-size="14" lengthAdjust="spacing" textLength="16.3379" x="875.0322" y="280.8105">F8</text><line style="stroke:#181818;stroke-width:0.5;" x1="763.5" x2="970.4023" y1="291.0137" y2="291.0137"/><text fill="#000000" font-family="sans-serif" font-size="14" lengthAdjust="spacing" textLength="196.9023" x="768.5" y="310.1211">Error Propagation and Handling</text><line style="stroke:#181818;stroke-width:0.5;" x1="763.5" x2="970.4023" y1="317.6348" y2="317.6348"/></g><!--class F9--><g id="elem_F9"><rect fill="#F1F1F1" height="66.6211" id="F9" rx="2.5" ry="2.5" style="stroke:#181818;stroke-width:0.5;" width="131.0684" x="1006.5" y="259.0137"/><ellipse cx="1059.6152" cy="275.0137" fill="#ADD1B2" rx="11" ry="11" style="stroke:#181818;stroke-width:1.0;"/><path d="M1062.3809,270.8887 Q1062.5371,270.6699 1062.7246,270.5605 Q1062.9121,270.4512 1063.1309,270.4512 Q1063.5059,270.4512 1063.7402,270.7168 Q1063.9746,270.9668 1063.9746,271.5762 L1063.9746,273.0293 Q1063.9746,273.6387 1063.7402,273.9043 Q1063.5059,274.1699 1063.1309,274.1699 Q1062.7871,274.1699 1062.584,273.9668 Q1062.3809,273.7793 1062.2715,273.2637 Q1062.2246,272.9043 1062.0371,272.7168 Q1061.709,272.3418 1061.0996,272.123 Q1060.4902,271.9043 1059.8652,271.9043 Q1059.0996,271.9043 1058.459,272.2324 Q1057.834,272.5605 1057.334,273.3105 Q1056.8496,274.0605 1056.8496,275.0918 L1056.8496,276.1855 Q1056.8496,277.4199 1057.7402,278.248 Q1058.6309,279.0605 1060.2246,279.0605 Q1061.1621,279.0605 1061.8184,278.8105 Q1062.209,278.6543 1062.6309,278.2168 Q1062.8965,277.9512 1063.0371,277.873 Q1063.1934,277.7949 1063.3965,277.7949 Q1063.7246,277.7949 1063.9746,278.0605 Q1064.2402,278.3105 1064.2402,278.6543 Q1064.2402,278.998 1063.8965,279.4043 Q1063.3965,279.9824 1062.5996,280.3105 Q1061.5215,280.7637 1060.2246,280.7637 Q1058.709,280.7637 1057.5059,280.1387 Q1056.5215,279.6387 1055.834,278.5762 Q1055.1465,277.498 1055.1465,276.2168 L1055.1465,275.0605 Q1055.1465,273.7324 1055.7559,272.5918 Q1056.3809,271.4355 1057.4746,270.8262 Q1058.5684,270.2012 1059.8027,270.2012 Q1060.5371,270.2012 1061.1777,270.373 Q1061.834,270.5293 1062.3809,270.8887 Z " fill="#000000"/><text fill="#000000" font-family="sans-serif" font-size="14" lengthAdjust="spacing" textLength="16.3379" x="1080.1152" y="280.8105">F9</text><line style="stroke:#181818;stroke-width:0.5;" x1="1007.5" x2="1136.5684" y1="291.0137" y2="291.0137"/><text fill="#000000" font-family="sans-serif" font-size="14" lengthAdjust="spacing" textLength="119.0684" x="1012.5" y="310.1211">Graceful Shutdown</text><line style="stroke:#181818;stroke-width:0.5;" x1="1007.5" x2="1136.5684" y1="317.6348" y2="317.6348"/></g><!--class F10--><g id="elem_F10"><rect fill="#F1F1F1" height="66.6211" id="F10" rx="2.5" ry="2.5" style="stroke:#181818;stroke-width:0.5;" width="175.3857" x="1424.5" y="259.0137"/><ellipse cx="1495.8809" cy="275.0137" fill="#ADD1B2" rx="11" ry="11" style="stroke:#181818;stroke-width:1.0;"/><path d="M1498.6465,270.8887 Q1498.8027,270.6699 1498.9902,270.5605 Q1499.1777,270.4512 1499.3965,270.4512 Q1499.7715,270.4512 1500.0059,270.7168 Q1500.2402,270.9668 1500.2402,271.5762 L1500.2402,273.0293 Q1500.2402,273.6387 1500.0059,273.9043 Q1499.7715,274.1699 1499.3965,274.1699 Q1499.0527,274.1699 1498.8496,273.9668 Q1498.6465,273.7793 1498.5371,273.2637 Q1498.4902,272.9043 1498.3027,272.7168 Q1497.9746,272.3418 1497.3652,272.123 Q1496.7559,271.9043 1496.1309,271.9043 Q1495.3652,271.9043 1494.7246,272.2324 Q1494.0996,272.5605 1493.5996,273.3105 Q1493.1152,274.0605 1493.1152,275.0918 L1493.1152,276.1855 Q1493.1152,277.4199 1494.0059,278.248 Q1494.8965,279.0605 1496.4902,279.0605 Q1497.4277,279.0605 1498.084,278.8105 Q1498.4746,278.6543 1498.8965,278.2168 Q1499.1621,277.9512 1499.3027,277.873 Q1499.459,277.7949 1499.6621,277.7949 Q1499.9902,277.7949 1500.2402,278.0605 Q1500.5059,278.3105 1500.5059,278.6543 Q1500.5059,278.998 1500.1621,279.4043 Q1499.6621,279.9824 1498.8652,280.3105 Q1497.7871,280.7637 1496.4902,280.7637 Q1494.9746,280.7637 1493.7715,280.1387 Q1492.7871,279.6387 1492.0996,278.5762 Q1491.4121,277.498 1491.4121,276.2168 L1491.4121,275.0605 Q1491.4121,273.7324 1492.0215,272.5918 Q1492.6465,271.4355 1493.7402,270.8262 Q1494.834,270.2012 1496.0684,270.2012 Q1496.8027,270.2012 1497.4434,270.373 Q1498.0996,270.5293 1498.6465,270.8887 Z " fill="#000000"/><text fill="#000000" font-family="sans-serif" font-size="14" lengthAdjust="spacing" textLength="24.124" x="1516.3809" y="280.8105">F10</text><line style="stroke:#181818;stroke-width:0.5;" x1="1425.5" x2="1598.8857" y1="291.0137" y2="291.0137"/><text fill="#000000" font-family="sans-serif" font-size="14" lengthAdjust="spacing" textLength="163.3857" x="1430.5" y="310.1211">Explicit/Implicit Coroutines</text><line style="stroke:#181818;stroke-width:0.5;" x1="1425.5" x2="1598.8857" y1="317.6348" y2="317.6348"/></g><!--class F11--><g id="elem_F11"><rect fill="#F1F1F1" height="66.6211" id="F11" rx="2.5" ry="2.5" style="stroke:#181818;stroke-width:0.5;" width="130.2754" x="1635" y="259.0137"/><ellipse cx="1683.8257" cy="275.0137" fill="#ADD1B2" rx="11" ry="11" style="stroke:#181818;stroke-width:1.0;"/><path d="M1686.5913,270.8887 Q1686.7476,270.6699 1686.9351,270.5605 Q1687.1226,270.4512 1687.3413,270.4512 Q1687.7163,270.4512 1687.9507,270.7168 Q1688.1851,270.9668 1688.1851,271.5762 L1688.1851,273.0293 Q1688.1851,273.6387 1687.9507,273.9043 Q1687.7163,274.1699 1687.3413,274.1699 Q1686.9976,274.1699 1686.7944,273.9668 Q1686.5913,273.7793 1686.4819,273.2637 Q1686.4351,272.9043 1686.2476,272.7168 Q1685.9194,272.3418 1685.3101,272.123 Q1684.7007,271.9043 1684.0757,271.9043 Q1683.3101,271.9043 1682.6694,272.2324 Q1682.0444,272.5605 1681.5444,273.3105 Q1681.0601,274.0605 1681.0601,275.0918 L1681.0601,276.1855 Q1681.0601,277.4199 1681.9507,278.248 Q1682.8413,279.0605 1684.4351,279.0605 Q1685.3726,279.0605 1686.0288,278.8105 Q1686.4194,278.6543 1686.8413,278.2168 Q1687.1069,277.9512 1687.2476,277.873 Q1687.4038,277.7949 1687.6069,277.7949 Q1687.9351,277.7949 1688.1851,278.0605 Q1688.4507,278.3105 1688.4507,278.6543 Q1688.4507,278.998 1688.1069,279.4043 Q1687.6069,279.9824 1686.8101,280.3105 Q1685.7319,280.7637 1684.4351,280.7637 Q1682.9194,280.7637 1681.7163,280.1387 Q1680.7319,279.6387 1680.0444,278.5762 Q1679.3569,277.498 1679.3569,276.2168 L1679.3569,275.0605 Q1679.3569,273.7324 1679.9663,272.5918 Q1680.5913,271.4355 1681.6851,270.8262 Q1682.7788,270.2012 1684.0132,270.2012 Q1684.7476,270.2012 1685.3882,270.373 Q1686.0444,270.5293 1686.5913,270.8887 Z " fill="#000000"/><text fill="#000000" font-family="sans-serif" font-size="14" lengthAdjust="spacing" textLength="24.124" x="1704.3257" y="280.8105">F11</text><line style="stroke:#181818;stroke-width:0.5;" x1="1636" x2="1764.2754" y1="291.0137" y2="291.0137"/><text fill="#000000" font-family="sans-serif" font-size="14" lengthAdjust="spacing" textLength="118.2754" x="1641" y="310.1211">Zombie Coroutines</text><line style="stroke:#181818;stroke-width:0.5;" x1="1636" x2="1764.2754" y1="317.6348" y2="317.6348"/></g><!--class F12--><g id="elem_F12"><rect fill="#F1F1F1" height="66.6211" id="F12" rx="2.5" ry="2.5" style="stroke:#181818;stroke-width:0.5;" width="81.248" x="1982.5" y="259.0137"/><ellipse cx="2008.8058" cy="275.0137" fill="#ADD1B2" rx="11" ry="11" style="stroke:#181818;stroke-width:1.0;"/><path d="M2011.5714,270.8887 Q2011.7277,270.6699 2011.9152,270.5605 Q2012.1027,270.4512 2012.3214,270.4512 Q2012.6964,270.4512 2012.9308,270.7168 Q2013.1652,270.9668 2013.1652,271.5762 L2013.1652,273.0293 Q2013.1652,273.6387 2012.9308,273.9043 Q2012.6964,274.1699 2012.3214,274.1699 Q2011.9777,274.1699 2011.7746,273.9668 Q2011.5714,273.7793 2011.4621,273.2637 Q2011.4152,272.9043 2011.2277,272.7168 Q2010.8996,272.3418 2010.2902,272.123 Q2009.6808,271.9043 2009.0558,271.9043 Q2008.2902,271.9043 2007.6496,272.2324 Q2007.0246,272.5605 2006.5246,273.3105 Q2006.0402,274.0605 2006.0402,275.0918 L2006.0402,276.1855 Q2006.0402,277.4199 2006.9308,278.248 Q2007.8214,279.0605 2009.4152,279.0605 Q2010.3527,279.0605 2011.0089,278.8105 Q2011.3996,278.6543 2011.8214,278.2168 Q2012.0871,277.9512 2012.2277,277.873 Q2012.3839,277.7949 2012.5871,277.7949 Q2012.9152,277.7949 2013.1652,278.0605 Q2013.4308,278.3105 2013.4308,278.6543 Q2013.4308,278.998 2013.0871,279.4043 Q2012.5871,279.9824 2011.7902,280.3105 Q2010.7121,280.7637 2009.4152,280.7637 Q2007.8996,280.7637 2006.6964,280.1387 Q2005.7121,279.6387 2005.0246,278.5762 Q2004.3371,277.498 2004.3371,276.2168 L2004.3371,275.0605 Q2004.3371,273.7324 2004.9464,272.5918 Q2005.5714,271.4355 2006.6652,270.8262 Q2007.7589,270.2012 2008.9933,270.2012 Q2009.7277,270.2012 2010.3683,270.373 Q2011.0246,270.5293 2011.5714,270.8887 Z " fill="#000000"/><text fill="#000000" font-family="sans-serif" font-size="14" lengthAdjust="spacing" textLength="24.124" x="2025.3182" y="280.8105">F12</text><line style="stroke:#181818;stroke-width:0.5;" x1="1983.5" x2="2062.748" y1="291.0137" y2="291.0137"/><text fill="#000000" font-family="sans-serif" font-size="14" lengthAdjust="spacing" textLength="69.248" x="1988.5" y="310.1211">TaskGroup</text><line style="stroke:#181818;stroke-width:0.5;" x1="1983.5" x2="2062.748" y1="317.6348" y2="317.6348"/></g><!--class A1--><g id="elem_A1"><rect fill="#F1F1F1" height="66.6211" id="A1" rx="2.5" ry="2.5" style="stroke:#181818;stroke-width:0.5;" width="101.4961" x="924.5" y="430.0137"/><ellipse cx="963.0674" cy="446.0137" fill="#ADD1B2" rx="11" ry="11" style="stroke:#181818;stroke-width:1.0;"/><path d="M965.8331,441.8887 Q965.9893,441.6699 966.1768,441.5605 Q966.3643,441.4512 966.5831,441.4512 Q966.9581,441.4512 967.1924,441.7168 Q967.4268,441.9668 967.4268,442.5762 L967.4268,444.0293 Q967.4268,444.6387 967.1924,444.9043 Q966.9581,445.1699 966.5831,445.1699 Q966.2393,445.1699 966.0362,444.9668 Q965.8331,444.7793 965.7237,444.2637 Q965.6768,443.9043 965.4893,443.7168 Q965.1612,443.3418 964.5518,443.123 Q963.9424,442.9043 963.3174,442.9043 Q962.5518,442.9043 961.9112,443.2324 Q961.2862,443.5605 960.7862,444.3105 Q960.3018,445.0605 960.3018,446.0918 L960.3018,447.1855 Q960.3018,448.4199 961.1924,449.248 Q962.0831,450.0605 963.6768,450.0605 Q964.6143,450.0605 965.2706,449.8105 Q965.6612,449.6543 966.0831,449.2168 Q966.3487,448.9512 966.4893,448.873 Q966.6456,448.7949 966.8487,448.7949 Q967.1768,448.7949 967.4268,449.0605 Q967.6924,449.3105 967.6924,449.6543 Q967.6924,449.998 967.3487,450.4043 Q966.8487,450.9824 966.0518,451.3105 Q964.9737,451.7637 963.6768,451.7637 Q962.1612,451.7637 960.9581,451.1387 Q959.9737,450.6387 959.2862,449.5762 Q958.5987,448.498 958.5987,447.2168 L958.5987,446.0605 Q958.5987,444.7324 959.2081,443.5918 Q959.8331,442.4355 960.9268,441.8262 Q962.0206,441.2012 963.2549,441.2012 Q963.9893,441.2012 964.6299,441.373 Q965.2862,441.5293 965.8331,441.8887 Z " fill="#000000"/><text fill="#000000" font-family="sans-serif" font-size="14" lengthAdjust="spacing" textLength="17.124" x="982.3046" y="451.8105">A1</text><line style="stroke:#181818;stroke-width:0.5;" x1="925.5" x2="1024.9961" y1="462.0137" y2="462.0137"/><text fill="#000000" font-family="sans-serif" font-size="14" lengthAdjust="spacing" textLength="89.4961" x="930.5" y="481.1211">Scheduler API</text><line style="stroke:#181818;stroke-width:0.5;" x1="925.5" x2="1024.9961" y1="488.6348" y2="488.6348"/></g><!--class A2--><g id="elem_A2"><rect fill="#F1F1F1" height="66.6211" id="A2" rx="2.5" ry="2.5" style="stroke:#181818;stroke-width:0.5;" width="143.5234" x="1061" y="430.0137"/><ellipse cx="1119.9497" cy="446.0137" fill="#ADD1B2" rx="11" ry="11" style="stroke:#181818;stroke-width:1.0;"/><path d="M1122.7153,441.8887 Q1122.8716,441.6699 1123.0591,441.5605 Q1123.2466,441.4512 1123.4653,441.4512 Q1123.8403,441.4512 1124.0747,441.7168 Q1124.3091,441.9668 1124.3091,442.5762 L1124.3091,444.0293 Q1124.3091,444.6387 1124.0747,444.9043 Q1123.8403,445.1699 1123.4653,445.1699 Q1123.1216,445.1699 1122.9185,444.9668 Q1122.7153,444.7793 1122.606,444.2637 Q1122.5591,443.9043 1122.3716,443.7168 Q1122.0435,443.3418 1121.4341,443.123 Q1120.8247,442.9043 1120.1997,442.9043 Q1119.4341,442.9043 1118.7935,443.2324 Q1118.1685,443.5605 1117.6685,444.3105 Q1117.1841,445.0605 1117.1841,446.0918 L1117.1841,447.1855 Q1117.1841,448.4199 1118.0747,449.248 Q1118.9653,450.0605 1120.5591,450.0605 Q1121.4966,450.0605 1122.1528,449.8105 Q1122.5435,449.6543 1122.9653,449.2168 Q1123.231,448.9512 1123.3716,448.873 Q1123.5278,448.7949 1123.731,448.7949 Q1124.0591,448.7949 1124.3091,449.0605 Q1124.5747,449.3105 1124.5747,449.6543 Q1124.5747,449.998 1124.231,450.4043 Q1123.731,450.9824 1122.9341,451.3105 Q1121.856,451.7637 1120.5591,451.7637 Q1119.0435,451.7637 1117.8403,451.1387 Q1116.856,450.6387 1116.1685,449.5762 Q1115.481,448.498 1115.481,447.2168 L1115.481,446.0605 Q1115.481,444.7324 1116.0903,443.5918 Q1116.7153,442.4355 1117.8091,441.8262 Q1118.9028,441.2012 1120.1372,441.2012 Q1120.8716,441.2012 1121.5122,441.373 Q1122.1685,441.5293 1122.7153,441.8887 Z " fill="#000000"/><text fill="#000000" font-family="sans-serif" font-size="14" lengthAdjust="spacing" textLength="17.124" x="1140.4497" y="451.8105">A2</text><line style="stroke:#181818;stroke-width:0.5;" x1="1062" x2="1203.5234" y1="462.0137" y2="462.0137"/><text fill="#000000" font-family="sans-serif" font-size="14" lengthAdjust="spacing" textLength="131.5234" x="1067" y="481.1211">Reactor / Event Loop</text><line style="stroke:#181818;stroke-width:0.5;" x1="1062" x2="1203.5234" y1="488.6348" y2="488.6348"/></g><!--class A3--><g id="elem_A3"><rect fill="#F1F1F1" height="66.6211" id="A3" rx="2.5" ry="2.5" style="stroke:#181818;stroke-width:0.5;" width="158.3096" x="1457" y="430.0137"/><ellipse cx="1523.3428" cy="446.0137" fill="#ADD1B2" rx="11" ry="11" style="stroke:#181818;stroke-width:1.0;"/><path d="M1526.1084,441.8887 Q1526.2646,441.6699 1526.4521,441.5605 Q1526.6396,441.4512 1526.8584,441.4512 Q1527.2334,441.4512 1527.4678,441.7168 Q1527.7021,441.9668 1527.7021,442.5762 L1527.7021,444.0293 Q1527.7021,444.6387 1527.4678,444.9043 Q1527.2334,445.1699 1526.8584,445.1699 Q1526.5146,445.1699 1526.3115,444.9668 Q1526.1084,444.7793 1525.999,444.2637 Q1525.9521,443.9043 1525.7646,443.7168 Q1525.4365,443.3418 1524.8271,443.123 Q1524.2178,442.9043 1523.5928,442.9043 Q1522.8271,442.9043 1522.1865,443.2324 Q1521.5615,443.5605 1521.0615,444.3105 Q1520.5771,445.0605 1520.5771,446.0918 L1520.5771,447.1855 Q1520.5771,448.4199 1521.4678,449.248 Q1522.3584,450.0605 1523.9521,450.0605 Q1524.8896,450.0605 1525.5459,449.8105 Q1525.9365,449.6543 1526.3584,449.2168 Q1526.624,448.9512 1526.7646,448.873 Q1526.9209,448.7949 1527.124,448.7949 Q1527.4521,448.7949 1527.7021,449.0605 Q1527.9678,449.3105 1527.9678,449.6543 Q1527.9678,449.998 1527.624,450.4043 Q1527.124,450.9824 1526.3271,451.3105 Q1525.249,451.7637 1523.9521,451.7637 Q1522.4365,451.7637 1521.2334,451.1387 Q1520.249,450.6387 1519.5615,449.5762 Q1518.874,448.498 1518.874,447.2168 L1518.874,446.0605 Q1518.874,444.7324 1519.4834,443.5918 Q1520.1084,442.4355 1521.2021,441.8262 Q1522.2959,441.2012 1523.5303,441.2012 Q1524.2646,441.2012 1524.9053,441.373 Q1525.5615,441.5293 1526.1084,441.8887 Z " fill="#000000"/><text fill="#000000" font-family="sans-serif" font-size="14" lengthAdjust="spacing" textLength="17.124" x="1543.8428" y="451.8105">A3</text><line style="stroke:#181818;stroke-width:0.5;" x1="1458" x2="1614.3096" y1="462.0137" y2="462.0137"/><text fill="#000000" font-family="sans-serif" font-size="14" lengthAdjust="spacing" textLength="146.3096" x="1463" y="481.1211">Coroutine Management</text><line style="stroke:#181818;stroke-width:0.5;" x1="1458" x2="1614.3096" y1="488.6348" y2="488.6348"/></g><!--class A4--><g id="elem_A4"><rect fill="#F1F1F1" height="66.6211" id="A4" rx="2.5" ry="2.5" style="stroke:#181818;stroke-width:0.5;" width="115.4893" x="2018.5" y="430.0137"/><ellipse cx="2063.4326" cy="446.0137" fill="#ADD1B2" rx="11" ry="11" style="stroke:#181818;stroke-width:1.0;"/><path d="M2066.1982,441.8887 Q2066.3545,441.6699 2066.542,441.5605 Q2066.7295,441.4512 2066.9482,441.4512 Q2067.3232,441.4512 2067.5576,441.7168 Q2067.792,441.9668 2067.792,442.5762 L2067.792,444.0293 Q2067.792,444.6387 2067.5576,444.9043 Q2067.3232,445.1699 2066.9482,445.1699 Q2066.6045,445.1699 2066.4014,444.9668 Q2066.1982,444.7793 2066.0889,444.2637 Q2066.042,443.9043 2065.8545,443.7168 Q2065.5264,443.3418 2064.917,443.123 Q2064.3076,442.9043 2063.6826,442.9043 Q2062.917,442.9043 2062.2764,443.2324 Q2061.6514,443.5605 2061.1514,444.3105 Q2060.667,445.0605 2060.667,446.0918 L2060.667,447.1855 Q2060.667,448.4199 2061.5576,449.248 Q2062.4482,450.0605 2064.042,450.0605 Q2064.9795,450.0605 2065.6357,449.8105 Q2066.0264,449.6543 2066.4482,449.2168 Q2066.7139,448.9512 2066.8545,448.873 Q2067.0107,448.7949 2067.2139,448.7949 Q2067.542,448.7949 2067.792,449.0605 Q2068.0576,449.3105 2068.0576,449.6543 Q2068.0576,449.998 2067.7139,450.4043 Q2067.2139,450.9824 2066.417,451.3105 Q2065.3389,451.7637 2064.042,451.7637 Q2062.5264,451.7637 2061.3232,451.1387 Q2060.3389,450.6387 2059.6514,449.5762 Q2058.9639,448.498 2058.9639,447.2168 L2058.9639,446.0605 Q2058.9639,444.7324 2059.5732,443.5918 Q2060.1982,442.4355 2061.292,441.8262 Q2062.3857,441.2012 2063.6201,441.2012 Q2064.3545,441.2012 2064.9951,441.373 Q2065.6514,441.5293 2066.1982,441.8887 Z " fill="#000000"/><text fill="#000000" font-family="sans-serif" font-size="14" lengthAdjust="spacing" textLength="17.124" x="2083.9326" y="451.8105">A4</text><line style="stroke:#181818;stroke-width:0.5;" x1="2019.5" x2="2132.9893" y1="462.0137" y2="462.0137"/><text fill="#000000" font-family="sans-serif" font-size="14" lengthAdjust="spacing" textLength="103.4893" x="2024.5" y="481.1211">Scope Hierarchy</text><line style="stroke:#181818;stroke-width:0.5;" x1="2019.5" x2="2132.9893" y1="488.6348" y2="488.6348"/></g><!--class A5--><g id="elem_A5"><rect fill="#F1F1F1" height="66.6211" id="A5" rx="2.5" ry="2.5" style="stroke:#181818;stroke-width:0.5;" width="133.4063" x="1850.5" y="430.0137"/><ellipse cx="1904.3911" cy="446.0137" fill="#ADD1B2" rx="11" ry="11" style="stroke:#181818;stroke-width:1.0;"/><path d="M1907.1567,441.8887 Q1907.313,441.6699 1907.5005,441.5605 Q1907.688,441.4512 1907.9067,441.4512 Q1908.2817,441.4512 1908.5161,441.7168 Q1908.7505,441.9668 1908.7505,442.5762 L1908.7505,444.0293 Q1908.7505,444.6387 1908.5161,444.9043 Q1908.2817,445.1699 1907.9067,445.1699 Q1907.563,445.1699 1907.3599,444.9668 Q1907.1567,444.7793 1907.0474,444.2637 Q1907.0005,443.9043 1906.813,443.7168 Q1906.4849,443.3418 1905.8755,443.123 Q1905.2661,442.9043 1904.6411,442.9043 Q1903.8755,442.9043 1903.2349,443.2324 Q1902.6099,443.5605 1902.1099,444.3105 Q1901.6255,445.0605 1901.6255,446.0918 L1901.6255,447.1855 Q1901.6255,448.4199 1902.5161,449.248 Q1903.4067,450.0605 1905.0005,450.0605 Q1905.938,450.0605 1906.5942,449.8105 Q1906.9849,449.6543 1907.4067,449.2168 Q1907.6724,448.9512 1907.813,448.873 Q1907.9692,448.7949 1908.1724,448.7949 Q1908.5005,448.7949 1908.7505,449.0605 Q1909.0161,449.3105 1909.0161,449.6543 Q1909.0161,449.998 1908.6724,450.4043 Q1908.1724,450.9824 1907.3755,451.3105 Q1906.2974,451.7637 1905.0005,451.7637 Q1903.4849,451.7637 1902.2817,451.1387 Q1901.2974,450.6387 1900.6099,449.5762 Q1899.9224,448.498 1899.9224,447.2168 L1899.9224,446.0605 Q1899.9224,444.7324 1900.5317,443.5918 Q1901.1567,442.4355 1902.2505,441.8262 Q1903.3442,441.2012 1904.5786,441.2012 Q1905.313,441.2012 1905.9536,441.373 Q1906.6099,441.5293 1907.1567,441.8887 Z " fill="#000000"/><text fill="#000000" font-family="sans-serif" font-size="14" lengthAdjust="spacing" textLength="17.124" x="1924.8911" y="451.8105">A5</text><line style="stroke:#181818;stroke-width:0.5;" x1="1851.5" x2="1982.9063" y1="462.0137" y2="462.0137"/><text fill="#000000" font-family="sans-serif" font-size="14" lengthAdjust="spacing" textLength="121.4063" x="1856.5" y="481.1211">Context Inheritance</text><line style="stroke:#181818;stroke-width:0.5;" x1="1851.5" x2="1982.9063" y1="488.6348" y2="488.6348"/></g><!--class A6--><g id="elem_A6"><rect fill="#F1F1F1" height="66.6211" id="A6" rx="2.5" ry="2.5" style="stroke:#181818;stroke-width:0.5;" width="180.8477" x="1240.5" y="430.0137"/><ellipse cx="1318.1118" cy="446.0137" fill="#ADD1B2" rx="11" ry="11" style="stroke:#181818;stroke-width:1.0;"/><path d="M1320.8774,441.8887 Q1321.0337,441.6699 1321.2212,441.5605 Q1321.4087,441.4512 1321.6274,441.4512 Q1322.0024,441.4512 1322.2368,441.7168 Q1322.4712,441.9668 1322.4712,442.5762 L1322.4712,444.0293 Q1322.4712,444.6387 1322.2368,444.9043 Q1322.0024,445.1699 1321.6274,445.1699 Q1321.2837,445.1699 1321.0806,444.9668 Q1320.8774,444.7793 1320.7681,444.2637 Q1320.7212,443.9043 1320.5337,443.7168 Q1320.2056,443.3418 1319.5962,443.123 Q1318.9868,442.9043 1318.3618,442.9043 Q1317.5962,442.9043 1316.9556,443.2324 Q1316.3306,443.5605 1315.8306,444.3105 Q1315.3462,445.0605 1315.3462,446.0918 L1315.3462,447.1855 Q1315.3462,448.4199 1316.2368,449.248 Q1317.1274,450.0605 1318.7212,450.0605 Q1319.6587,450.0605 1320.3149,449.8105 Q1320.7056,449.6543 1321.1274,449.2168 Q1321.3931,448.9512 1321.5337,448.873 Q1321.6899,448.7949 1321.8931,448.7949 Q1322.2212,448.7949 1322.4712,449.0605 Q1322.7368,449.3105 1322.7368,449.6543 Q1322.7368,449.998 1322.3931,450.4043 Q1321.8931,450.9824 1321.0962,451.3105 Q1320.0181,451.7637 1318.7212,451.7637 Q1317.2056,451.7637 1316.0024,451.1387 Q1315.0181,450.6387 1314.3306,449.5762 Q1313.6431,448.498 1313.6431,447.2168 L1313.6431,446.0605 Q1313.6431,444.7324 1314.2524,443.5918 Q1314.8774,442.4355 1315.9712,441.8262 Q1317.0649,441.2012 1318.2993,441.2012 Q1319.0337,441.2012 1319.6743,441.373 Q1320.3306,441.5293 1320.8774,441.8887 Z " fill="#000000"/><text fill="#000000" font-family="sans-serif" font-size="14" lengthAdjust="spacing" textLength="17.124" x="1338.6118" y="451.8105">A6</text><line style="stroke:#181818;stroke-width:0.5;" x1="1241.5" x2="1420.3477" y1="462.0137" y2="462.0137"/><text fill="#000000" font-family="sans-serif" font-size="14" lengthAdjust="spacing" textLength="168.8477" x="1246.5" y="481.1211">Error Handler / Supervision</text><line style="stroke:#181818;stroke-width:0.5;" x1="1241.5" x2="1420.3477" y1="488.6348" y2="488.6348"/></g><!--class A7--><g id="elem_A7"><rect fill="#F1F1F1" height="66.6211" id="A7" rx="2.5" ry="2.5" style="stroke:#181818;stroke-width:0.5;" width="164.5098" x="1650.5" y="430.0137"/><ellipse cx="1719.9429" cy="446.0137" fill="#ADD1B2" rx="11" ry="11" style="stroke:#181818;stroke-width:1.0;"/><path d="M1722.7085,441.8887 Q1722.8647,441.6699 1723.0522,441.5605 Q1723.2397,441.4512 1723.4585,441.4512 Q1723.8335,441.4512 1724.0679,441.7168 Q1724.3022,441.9668 1724.3022,442.5762 L1724.3022,444.0293 Q1724.3022,444.6387 1724.0679,444.9043 Q1723.8335,445.1699 1723.4585,445.1699 Q1723.1147,445.1699 1722.9116,444.9668 Q1722.7085,444.7793 1722.5991,444.2637 Q1722.5522,443.9043 1722.3647,443.7168 Q1722.0366,443.3418 1721.4272,443.123 Q1720.8179,442.9043 1720.1929,442.9043 Q1719.4272,442.9043 1718.7866,443.2324 Q1718.1616,443.5605 1717.6616,444.3105 Q1717.1772,445.0605 1717.1772,446.0918 L1717.1772,447.1855 Q1717.1772,448.4199 1718.0679,449.248 Q1718.9585,450.0605 1720.5522,450.0605 Q1721.4897,450.0605 1722.146,449.8105 Q1722.5366,449.6543 1722.9585,449.2168 Q1723.2241,448.9512 1723.3647,448.873 Q1723.521,448.7949 1723.7241,448.7949 Q1724.0522,448.7949 1724.3022,449.0605 Q1724.5679,449.3105 1724.5679,449.6543 Q1724.5679,449.998 1724.2241,450.4043 Q1723.7241,450.9824 1722.9272,451.3105 Q1721.8491,451.7637 1720.5522,451.7637 Q1719.0366,451.7637 1717.8335,451.1387 Q1716.8491,450.6387 1716.1616,449.5762 Q1715.4741,448.498 1715.4741,447.2168 L1715.4741,446.0605 Q1715.4741,444.7324 1716.0835,443.5918 Q1716.7085,442.4355 1717.8022,441.8262 Q1718.896,441.2012 1720.1304,441.2012 Q1720.8647,441.2012 1721.5054,441.373 Q1722.1616,441.5293 1722.7085,441.8887 Z " fill="#000000"/><text fill="#000000" font-family="sans-serif" font-size="14" lengthAdjust="spacing" textLength="17.124" x="1740.4429" y="451.8105">A7</text><line style="stroke:#181818;stroke-width:0.5;" x1="1651.5" x2="1814.0098" y1="462.0137" y2="462.0137"/><text fill="#000000" font-family="sans-serif" font-size="14" lengthAdjust="spacing" textLength="152.5098" x="1656.5" y="481.1211">Zombie Coroutine Policy</text><line style="stroke:#181818;stroke-width:0.5;" x1="1651.5" x2="1814.0098" y1="488.6348" y2="488.6348"/></g><!--link R1 to F1--><g id="link_R1_F1"><path codeLine="43" d="M850.49,133.6337 C710.32,152.0937 445,187.0137 445,187.0137 C445,187.0137 445,206.0137 445,206.0137 C445,206.0137 658,214.0137 658,214.0137 C658,214.0137 668.1287,232.2773 679.8487,253.3973 " fill="none" id="R1-to-F1" style="stroke:#181818;stroke-width:1.0;"/><polygon fill="#181818" points="682.76,258.6437,681.8906,248.8333,680.3339,254.2717,674.8954,252.715,682.76,258.6437" style="stroke:#181818;stroke-width:1.0;"/><text fill="#000000" font-family="sans-serif" font-size="13" lengthAdjust="spacing" textLength="138.7534" x="446" y="202.042">Enable non-blocking I/O</text></g><!--link R1 to F2--><g id="link_R1_F2"><path codeLine="44" d="M850.28,131.0137 C675.68,148.5237 292,187.0137 292,187.0137 C292,187.0137 292,206.0137 292,206.0137 C292,206.0137 511.0185,263.8131 586.1085,283.6231 " fill="none" id="R1-to-F2" style="stroke:#181818;stroke-width:1.0;"/><polygon fill="#181818" points="591.91,285.1537,584.2281,278.9902,587.0754,283.8782,582.1874,286.7255,591.91,285.1537" style="stroke:#181818;stroke-width:1.0;"/><text fill="#000000" font-family="sans-serif" font-size="13" lengthAdjust="spacing" textLength="143.7744" x="293" y="202.042">Wait for coroutine results</text></g><!--link R2 to F4--><g id="link_R2_F4"><path codeLine="45" d="M2048.01,155.1437 C2069.59,171.1437 2091,187.0137 2091,187.0137 C2091,187.0137 2091,206.0137 2091,206.0137 C2091,206.0137 1965,214.0137 1965,214.0137 C1965,214.0137 1954.6122,232.3059 1942.6222,253.4259 " fill="none" id="R2-to-F4" style="stroke:#181818;stroke-width:1.0;"/><polygon fill="#181818" points="1939.66,258.6437,1947.5818,252.7918,1942.1285,254.2955,1940.6247,248.8422,1939.66,258.6437" style="stroke:#181818;stroke-width:1.0;"/><text fill="#000000" font-family="sans-serif" font-size="13" lengthAdjust="spacing" textLength="148.8589" x="2092" y="202.042">Manage coroutine lifetime</text></g><!--link R3 to F1--><g id="link_R3_F1"><path codeLine="46" d="M1078.14,155.0537 C1056.57,167.6137 1037,179.0137 1037,179.0137 C1037,179.0137 625,187.0137 625,187.0137 C625,187.0137 625,206.0137 625,206.0137 C625,206.0137 658,214.0137 658,214.0137 C658,214.0137 668.1287,232.2773 679.8487,253.3973 " fill="none" id="R3-to-F1" style="stroke:#181818;stroke-width:1.0;"/><polygon fill="#181818" points="682.76,258.6437,681.8906,248.8333,680.3339,254.2717,674.8954,252.715,682.76,258.6437" style="stroke:#181818;stroke-width:1.0;"/><text fill="#000000" font-family="sans-serif" font-size="13" lengthAdjust="spacing" textLength="179.2261" x="626" y="202.042">Launch functions as coroutines</text></g><!--link R3 to F3--><g id="link_R3_F3"><path codeLine="47" d="M1147.69,155.0937 C1160.22,184.9337 1176.3456,223.3222 1188.9056,253.2122 " fill="none" id="R3-to-F3" style="stroke:#181818;stroke-width:1.0;"/><polygon fill="#181818" points="1191.23,258.7437,1191.4311,248.8969,1189.293,254.1341,1184.0558,251.996,1191.23,258.7437" style="stroke:#181818;stroke-width:1.0;"/><text fill="#000000" font-family="sans-serif" font-size="13" lengthAdjust="spacing" textLength="140.9116" x="1168" y="202.042">Suspend/resume control</text></g><!--link R4 to F6--><g id="link_R4_F6"><path codeLine="48" d="M1345.53,155.0937 C1342.35,184.9337 1338.3048,222.8873 1335.1248,252.7773 " fill="none" id="R4-to-F6" style="stroke:#181818;stroke-width:1.0;"/><polygon fill="#181818" points="1334.49,258.7437,1339.4197,250.2174,1335.019,253.7717,1331.4646,249.371,1334.49,258.7437" style="stroke:#181818;stroke-width:1.0;"/><text fill="#000000" font-family="sans-serif" font-size="13" lengthAdjust="spacing" textLength="121.3989" x="1342" y="202.042">Cancel running tasks</text></g><!--link R4 to F9--><g id="link_R4_F9"><path codeLine="49" d="M1281.04,155.0537 C1254.81,167.6137 1231,179.0137 1231,179.0137 C1231,179.0137 1025,187.0137 1025,187.0137 C1025,187.0137 1025,206.0137 1025,206.0137 C1025,206.0137 1037.8202,229.3354 1051.0702,253.4454 " fill="none" id="R4-to-F9" style="stroke:#181818;stroke-width:1.0;"/><polygon fill="#181818" points="1053.96,258.7037,1053.1309,248.8898,1051.5519,254.3218,1046.1199,252.7428,1053.96,258.7037" style="stroke:#181818;stroke-width:1.0;"/><text fill="#000000" font-family="sans-serif" font-size="13" lengthAdjust="spacing" textLength="128.6479" x="1026" y="202.042">Unhandled exceptions</text></g><!--link R4 to F8--><g id="link_R4_F8"><path codeLine="50" d="M1281.04,155.0537 C1254.81,167.6137 1231,179.0137 1231,179.0137 C1231,179.0137 909,187.0137 909,187.0137 C909,187.0137 894.7284,222.5268 882.4084,253.1668 " fill="none" id="R4-to-F8" style="stroke:#181818;stroke-width:1.0;"/><polygon fill="#181818" points="880.17,258.7337,887.2388,251.8757,882.0353,254.0946,879.8163,248.8912,880.17,258.7337" style="stroke:#181818;stroke-width:1.0;"/><text fill="#000000" font-family="sans-serif" font-size="13" lengthAdjust="spacing" textLength="106.958" x="910" y="202.042">Handle exceptions</text></g><!--link R5 to F5--><g id="link_R5_F5"><path codeLine="51" d="M1868.41,155.0537 C1888.64,167.6137 1907,179.0137 1907,179.0137 C1907,179.0137 1931,187.0137 1931,187.0137 C1931,187.0137 1931,206.0137 1931,206.0137 C1931,206.0137 1878,214.0137 1878,214.0137 C1878,214.0137 1866.5991,232.4227 1853.5191,253.5427 " fill="none" id="R5-to-F5" style="stroke:#181818;stroke-width:1.0;"/><polygon fill="#181818" points="1850.36,258.6437,1858.4993,253.0983,1852.9926,254.3929,1851.698,248.8861,1850.36,258.6437" style="stroke:#181818;stroke-width:1.0;"/><text fill="#000000" font-family="sans-serif" font-size="13" lengthAdjust="spacing" textLength="150.3062" x="1932" y="202.042">Associate data with scope</text></g><!--link R6 to F7--><g id="link_R6_F7"><path codeLine="52" d="M2294.74,140.6537 C2387.02,159.7337 2519,187.0137 2519,187.0137 C2519,187.0137 2519,206.0137 2519,206.0137 C2519,206.0137 2408.5593,236.0877 2317.5293,260.8677 " fill="none" id="R6-to-F7" style="stroke:#181818;stroke-width:1.0;"/><polygon fill="#181818" points="2311.74,262.4437,2321.4746,263.9393,2316.5644,261.1304,2319.3734,256.2202,2311.74,262.4437" style="stroke:#181818;stroke-width:1.0;"/><text fill="#000000" font-family="sans-serif" font-size="13" lengthAdjust="spacing" textLength="139.458" x="2520" y="202.042">Group tasks into scopes</text></g><!--link R6 to F12--><g id="link_R6_F12"><path codeLine="53" d="M2228.25,155.1437 C2238.66,171.1437 2249,187.0137 2249,187.0137 C2249,187.0137 2249,206.0137 2249,206.0137 C2249,206.0137 2081,214.0137 2081,214.0137 C2081,214.0137 2067.0056,232.7204 2051.1956,253.8404 " fill="none" id="R6-to-F12" style="stroke:#181818;stroke-width:1.0;"/><polygon fill="#181818" points="2047.6,258.6437,2056.1956,253.8359,2050.5964,254.6409,2049.7913,249.0417,2047.6,258.6437" style="stroke:#181818;stroke-width:1.0;"/><text fill="#000000" font-family="sans-serif" font-size="13" lengthAdjust="spacing" textLength="164.728" x="2250" y="202.042">Group tasks with TaskGroup</text></g><!--link R7 to F10--><g id="link_R7_F10"><path codeLine="54" d="M1551.99,155.1437 C1530.41,171.1437 1509,187.0137 1509,187.0137 C1509,187.0137 1509,206.0137 1509,206.0137 C1509,206.0137 1509.7886,228.5974 1510.6386,252.7074 " fill="none" id="R7-to-F10" style="stroke:#181818;stroke-width:1.0;"/><polygon fill="#181818" points="1510.85,258.7037,1514.5304,249.5683,1510.6738,253.7068,1506.5354,249.8502,1510.85,258.7037" style="stroke:#181818;stroke-width:1.0;"/><text fill="#000000" font-family="sans-serif" font-size="13" lengthAdjust="spacing" textLength="187.8525" x="1510" y="202.042">Define explicit/implicit coroutines</text></g><!--link R7 to F11--><g id="link_R7_F11"><path codeLine="55" d="M1649.62,155.1437 C1675.91,171.1437 1702,187.0137 1702,187.0137 C1702,187.0137 1702,206.0137 1702,206.0137 C1702,206.0137 1701.4693,228.5953 1700.9093,252.7053 " fill="none" id="R7-to-F11" style="stroke:#181818;stroke-width:1.0;"/><polygon fill="#181818" points="1700.77,258.7037,1704.9779,249.799,1700.8861,253.705,1696.9801,249.6132,1700.77,258.7037" style="stroke:#181818;stroke-width:1.0;"/><text fill="#000000" font-family="sans-serif" font-size="13" lengthAdjust="spacing" textLength="187.1606" x="1703" y="202.042">Introduce zombie coroutine logic</text></g><!--link F1 to A1--><g id="link_F1_A1"><path codeLine="58" d="M676.24,326.0537 C666.68,338.6137 658,350.0137 658,350.0137 C658,350.0137 251,358.0137 251,358.0137 C251,358.0137 251,377.0137 251,377.0137 C251,377.0137 753.9214,436.4102 918.4214,455.8302 " fill="none" id="F1-to-A1" style="stroke:#181818;stroke-width:1.0;"/><polygon fill="#181818" points="924.38,456.5337,915.911,451.5061,919.4145,455.9475,914.9731,459.4509,924.38,456.5337" style="stroke:#181818;stroke-width:1.0;"/><text fill="#000000" font-family="sans-serif" font-size="13" lengthAdjust="spacing" textLength="188.6206" x="252" y="373.042">Launch coroutines via Scheduler</text></g><!--link F1 to A2--><g id="link_F1_A2"><path codeLine="59" d="M676.24,326.0537 C666.68,338.6137 658,350.0137 658,350.0137 C658,350.0137 481,358.0137 481,358.0137 C481,358.0137 481,377.0137 481,377.0137 C481,377.0137 1043,385.0137 1043,385.0137 C1043,385.0137 1065.9539,404.778 1090.5439,425.958 " fill="none" id="F1-to-A2" style="stroke:#181818;stroke-width:1.0;"/><polygon fill="#181818" points="1095.09,429.8737,1090.8813,420.9694,1091.3016,426.6106,1085.6603,427.0309,1095.09,429.8737" style="stroke:#181818;stroke-width:1.0;"/><text fill="#000000" font-family="sans-serif" font-size="13" lengthAdjust="spacing" textLength="166.1816" x="482" y="373.042">Non-blocking I/O via Reactor</text></g><!--link F2 to A1--><g id="link_F2_A1"><path codeLine="60" d="M591.85,296.4537 C488.17,309.0737 86,358.0137 86,358.0137 C86,358.0137 86,377.0137 86,377.0137 C86,377.0137 729.8776,438.9392 918.3576,457.0692 " fill="none" id="F2-to-A1" style="stroke:#181818;stroke-width:1.0;"/><polygon fill="#181818" points="924.33,457.6437,915.7543,452.8003,919.353,457.1649,914.9884,460.7636,924.33,457.6437" style="stroke:#181818;stroke-width:1.0;"/><text fill="#000000" font-family="sans-serif" font-size="13" lengthAdjust="spacing" textLength="155.3589" x="87" y="373.042">Await coroutine completion</text></g><!--link F3 to A3--><g id="link_F3_A3"><path codeLine="61" d="M1179.2,326.1437 C1166.55,342.1437 1154,358.0137 1154,358.0137 C1154,358.0137 1154,377.0137 1154,377.0137 C1154,377.0137 1439,385.0137 1439,385.0137 C1439,385.0137 1463.9424,404.9485 1490.4524,426.1285 " fill="none" id="F3-to-A3" style="stroke:#181818;stroke-width:1.0;"/><polygon fill="#181818" points="1495.14,429.8737,1490.6053,421.1309,1491.2336,426.7527,1485.6118,427.381,1495.14,429.8737" style="stroke:#181818;stroke-width:1.0;"/><text fill="#000000" font-family="sans-serif" font-size="13" lengthAdjust="spacing" textLength="164.7725" x="1155" y="373.042">Suspend control in coroutine</text></g><!--link F4 to A4--><g id="link_F4_A4"><path codeLine="62" d="M1946.34,326.0537 C1956.12,338.6137 1965,350.0137 1965,350.0137 C1965,350.0137 2187,358.0137 2187,358.0137 C2187,358.0137 2187,377.0137 2187,377.0137 C2187,377.0137 2154.4036,402.1226 2123.0336,426.2826 " fill="none" id="F4-to-A4" style="stroke:#181818;stroke-width:1.0;"/><polygon fill="#181818" points="2118.28,429.9437,2127.8511,427.6212,2122.2413,426.8928,2122.9697,421.283,2118.28,429.9437" style="stroke:#181818;stroke-width:1.0;"/><text fill="#000000" font-family="sans-serif" font-size="13" lengthAdjust="spacing" textLength="141.6162" x="2188" y="373.042">Control Scope Hierarchy</text></g><!--link F5 to A5--><g id="link_F5_A5"><path codeLine="63" d="M1857.64,326.0537 C1868.31,338.6137 1878,350.0137 1878,350.0137 C1878,350.0137 1974,358.0137 1974,358.0137 C1974,358.0137 1974,377.0137 1974,377.0137 C1974,377.0137 1958.2792,400.602 1942.1992,424.712 " fill="none" id="F5-to-A5" style="stroke:#181818;stroke-width:1.0;"/><polygon fill="#181818" points="1938.87,429.7037,1947.1915,424.4356,1941.6443,425.544,1940.536,419.9967,1938.87,429.7037" style="stroke:#181818;stroke-width:1.0;"/><text fill="#000000" font-family="sans-serif" font-size="13" lengthAdjust="spacing" textLength="203.7852" x="1975" y="373.042">Context propagation across scopes</text></g><!--link F6 to A6--><g id="link_F6_A6"><path codeLine="64" d="M1329.48,326.1437 C1328.74,342.1437 1328,358.0137 1328,358.0137 C1328,358.0137 1328,377.0137 1328,377.0137 C1328,377.0137 1328.7886,399.5974 1329.6386,423.7074 " fill="none" id="F6-to-A6" style="stroke:#181818;stroke-width:1.0;"/><polygon fill="#181818" points="1329.85,429.7037,1333.5304,420.5683,1329.6738,424.7068,1325.5354,420.8502,1329.85,429.7037" style="stroke:#181818;stroke-width:1.0;"/><text fill="#000000" font-family="sans-serif" font-size="13" lengthAdjust="spacing" textLength="192.2388" x="1329" y="373.042">Propagate CancellationException</text></g><!--link F7 to A4--><g id="link_F7_A4"><path codeLine="65" d="M2311.77,307.2337 C2459.16,326.1737 2707,358.0137 2707,358.0137 C2707,358.0137 2707,377.0137 2707,377.0137 C2707,377.0137 2295.3857,432.7879 2139.6157,453.8979 " fill="none" id="F7-to-A4" style="stroke:#181818;stroke-width:1.0;"/><polygon fill="#181818" points="2133.67,454.7037,2143.1256,457.4588,2138.6247,454.0322,2142.0513,449.5313,2133.67,454.7037" style="stroke:#181818;stroke-width:1.0;"/><text fill="#000000" font-family="sans-serif" font-size="13" lengthAdjust="spacing" textLength="222.5679" x="2708" y="373.042">Structured concurrency through Scope</text></g><!--link F12 to A4--><g id="link_F12_A4"><path codeLine="66" d="M2056.4,326.0537 C2069.3,338.6137 2081,350.0137 2081,350.0137 C2081,350.0137 2465,358.0137 2465,358.0137 C2465,358.0137 2465,377.0137 2465,377.0137 C2465,377.0137 2248.0401,424.6955 2139.6801,448.5155 " fill="none" id="F12-to-A4" style="stroke:#181818;stroke-width:1.0;"/><polygon fill="#181818" points="2133.82,449.8037,2143.4689,451.7781,2138.7034,448.7302,2141.7513,443.9647,2133.82,449.8037" style="stroke:#181818;stroke-width:1.0;"/><text fill="#000000" font-family="sans-serif" font-size="13" lengthAdjust="spacing" textLength="232.6543" x="2466" y="373.042">Structured concurrency with async block</text></g><!--link F8 to A6--><g id="link_F8_A6"><path codeLine="67" d="M796.74,326.0537 C769.62,338.6137 745,350.0137 745,350.0137 C745,350.0137 721,358.0137 721,358.0137 C721,358.0137 721,377.0137 721,377.0137 C721,377.0137 1223,385.0137 1223,385.0137 C1223,385.0137 1251.1255,405.1952 1280.6355,426.3752 " fill="none" id="F8-to-A6" style="stroke:#181818;stroke-width:1.0;"/><polygon fill="#181818" points="1285.51,429.8737,1280.5306,421.3763,1281.4479,426.9582,1275.866,427.8755,1285.51,429.8737" style="stroke:#181818;stroke-width:1.0;"/><text fill="#000000" font-family="sans-serif" font-size="13" lengthAdjust="spacing" textLength="164.0615" x="722" y="373.042">Handle uncaught exceptions</text></g><!--link F9 to A6--><g id="link_F9_A6"><path codeLine="68" d="M1024.2,326.0537 C1005.75,338.6137 989,350.0137 989,350.0137 C989,350.0137 895,358.0137 895,358.0137 C895,358.0137 895,377.0137 895,377.0137 C895,377.0137 1223,385.0137 1223,385.0137 C1223,385.0137 1251.1255,405.1952 1280.6355,426.3752 " fill="none" id="F9-to-A6" style="stroke:#181818;stroke-width:1.0;"/><polygon fill="#181818" points="1285.51,429.8737,1280.5306,421.3763,1281.4479,426.9582,1275.866,427.8755,1285.51,429.8737" style="stroke:#181818;stroke-width:1.0;"/><text fill="#000000" font-family="sans-serif" font-size="13" lengthAdjust="spacing" textLength="185.707" x="896" y="373.042">Graceful shutdown on fatal error</text></g><!--link F10 to A3--><g id="link_F10_A3"><path codeLine="69" d="M1519.08,326.1437 C1522.55,342.1437 1526,358.0137 1526,358.0137 C1526,358.0137 1529.3588,393.1209 1532.2888,423.7609 " fill="none" id="F10-to-A3" style="stroke:#181818;stroke-width:1.0;"/><polygon fill="#181818" points="1532.86,429.7337,1535.9851,420.3938,1532.384,424.7564,1528.0214,421.1553,1532.86,429.7337" style="stroke:#181818;stroke-width:1.0;"/><text fill="#000000" font-family="sans-serif" font-size="13" lengthAdjust="spacing" textLength="211.0088" x="1528" y="373.042">Define coroutine management policy</text></g><!--link F11 to A7--><g id="link_F11_A7"><path codeLine="70" d="M1724.28,326.1437 C1736.19,342.1437 1748,358.0137 1748,358.0137 C1748,358.0137 1748,377.0137 1748,377.0137 C1748,377.0137 1744.0268,399.6839 1739.7968,423.7939 " fill="none" id="F11-to-A7" style="stroke:#181818;stroke-width:1.0;"/><polygon fill="#181818" points="1738.76,429.7037,1744.2551,421.5303,1739.624,424.7789,1736.3754,420.1478,1738.76,429.7037" style="stroke:#181818;stroke-width:1.0;"/><text fill="#000000" font-family="sans-serif" font-size="13" lengthAdjust="spacing" textLength="216.0679" x="1749" y="373.042">Implement zombie coroutine handling</text></g><!--SRC=[XLR1Zjis4BthAmQvzBJOhDF4IGy5X7ILDP0cnZf5WDwuzDWYLY9LajfT9yY_PuQKI2fnMnq4MNmSphptPcHth_GWhEYXKnhzQK0OJ7VY7rNr2_o11te2toBqGcaOXBmNHtJLz03FjZTR-6H7XDgTj8JRvkqp-5e1NGboY_-CocAFshjvaQ_RA_WDFXXzSTSPINaSONFv4NRZC1ZhCsf5g9ste_IZnJsyDLgErgAMfunvGPXFLcX7jT0n1B9cz9IwovXV2NDjhR4WD8KHMcBN2Q-CvfZUcYvZNnAMN-AJXp-5fZ8u-xp-YiyJxXxUqJa3fyunTz8Cc47hAGX5BXA2pygtz5oWlrLBmXeKNEk2h8R9el8UTNx5p8X7eN9Y3HFXHZUWtkUNNFaojwOeCB_agXQyrDjDNbt_gmu_QTQyJbnlhHd4COPZZcxeHkuwPkmRmhwpGk9Xx63NZdvloYAlddEifw5JKldBJHyVpYdSN357Vvl-Jk7vzTKaMr3jBFMrbQtoo3KAKgqL-hZKeRuAPBQu7pkq2uPg3d-BGdgg-nAk7zY9xuqPCk95e7tAx9opwgGLt2YqWjB9DgzBMsvqYrPvbYi3NYNU0y_8UP0uQ1-K8mKoS7s6ATWQulOqyVAjw7-BqH2kLOE3WpKzb4qDti3isOgw-kBYz-ZNQotkEWJzGuyd31FscVmB1yfOfZmepDXv2hMACEOaSbM0EdL0htgigFdJWU_5g6KB1xg7V46ulCKbACkmYrrooOVr73YE01eJ0P9x0UoeDMVkoJak0TYsV-asqBm7V98uX2CJW7iWgh1OVHbNMShQEIELy0XxuGKyqc005_gK1an0hKDla5dZuQ0qKHqWBc62gqjGY9DjJdCeuhYH9a5nxYSrzrF9qho16TqmBVjH8do9TYaKC4Sb_zibiolO8MTRgsgY5Uf2lPmAF2YHcorXL-U-6moTcgzgLZbepGEoo5eQAXavpwg9TgWBEym-8ARpdgg9aeRcd2VwZqtQH64NFJgKmqzQuzmiNXF52mqxZqXS3D_hsJDLiywd5mDO5WFOjvJgiPscF5lY_tO4auZmpGuqLkJNbD5aMr93K5HV-fTyds1fQhjfQWFLUI0hTu0yX2hsN69uSabMea_ZZ_zpyEHXomKy-vv7VLpzoNdj_17v3W00]--></g></svg>