<svg xmlns="http://www.w3.org/2000/svg" xmlns:xlink="http://www.w3.org/1999/xlink" contentStyleType="text/css" height="1785px" preserveAspectRatio="none" style="width:752px;height:1785px;background:#FFFFFF;" version="1.1" viewBox="0 0 752 1785" width="752px" zoomAndPan="magnify"><defs/><g><rect fill="#ADD8E6" height="38.6211" rx="12.5" ry="12.5" style="stroke:#181818;stroke-width:1.5;" width="144.5098" x="10" y="20"/><text fill="#000000" font-family="sans-serif" font-size="14" lengthAdjust="spacing" textLength="124.5098" x="20" y="45.1074">Creating Coroutines</text><rect fill="#90EE90" height="38.6211" rx="12.5" ry="12.5" style="stroke:#181818;stroke-width:1.5;" width="60.4688" x="204.5098" y="20"/><text fill="#000000" font-family="sans-serif" font-size="14" lengthAdjust="spacing" textLength="40.4688" x="214.5098" y="45.1074">spawn</text><path d="M154.5098,39.3105 L164.5098,39.3105 C179.5098,39.3105 179.5098,39.3105 194.5098,39.3105 L204.5098,39.3105 " fill="none" style="stroke:#181818;stroke-width:1.0;"/><rect fill="#ADD8E6" height="38.6211" rx="12.5" ry="12.5" style="stroke:#181818;stroke-width:1.5;" width="162.4131" x="10" y="78.6211"/><text fill="#000000" font-family="sans-serif" font-size="14" lengthAdjust="spacing" textLength="142.4131" x="20" y="103.7285">Switching to Scheduler</text><rect fill="#90EE90" height="38.6211" rx="12.5" ry="12.5" style="stroke:#181818;stroke-width:1.5;" width="72.9307" x="222.4131" y="78.6211"/><text fill="#000000" font-family="sans-serif" font-size="14" lengthAdjust="spacing" textLength="52.9307" x="232.4131" y="103.7285">suspend</text><path d="M172.4131,97.9316 L182.4131,97.9316 C197.4131,97.9316 197.4131,97.9316 212.4131,97.9316 L222.4131,97.9316 " fill="none" style="stroke:#181818;stroke-width:1.0;"/><rect fill="#ADD8E6" height="38.6211" rx="12.5" ry="12.5" style="stroke:#181818;stroke-width:1.5;" width="167.8408" x="10" y="233.1055"/><text fill="#000000" font-family="sans-serif" font-size="14" lengthAdjust="spacing" textLength="147.8408" x="20" y="258.2129">Structured Concurrency</text><rect fill="#FFD700" height="38.6211" rx="12.5" ry="12.5" style="stroke:#181818;stroke-width:1.5;" width="114.1582" x="227.8408" y="137.2422"/><text fill="#000000" font-family="sans-serif" font-size="14" lengthAdjust="spacing" textLength="94.1582" x="237.8408" y="162.3496">Grouping tasks</text><rect fill="#90EE90" height="38.6211" rx="12.5" ry="12.5" style="stroke:#181818;stroke-width:1.5;" width="249.9199" x="391.999" y="137.2422"/><text fill="#000000" font-family="sans-serif" font-size="14" lengthAdjust="spacing" textLength="229.9199" x="401.999" y="162.3496">new TaskGroup() + await TaskGroup</text><path d="M341.999,156.5527 L351.999,156.5527 C366.999,156.5527 366.999,156.5527 381.999,156.5527 L391.999,156.5527 " fill="none" style="stroke:#181818;stroke-width:1.0;"/><path d="M177.8408,252.416 L187.8408,252.416 C202.8408,252.416 202.8408,156.5527 217.8408,156.5527 L227.8408,156.5527 " fill="none" style="stroke:#181818;stroke-width:1.0;"/><rect fill="#FFD700" height="38.6211" rx="12.5" ry="12.5" style="stroke:#181818;stroke-width:1.5;" width="230.8682" x="227.8408" y="233.1055"/><text fill="#000000" font-family="sans-serif" font-size="14" lengthAdjust="spacing" textLength="210.8682" x="237.8408" y="258.2129">The parent waits for all child tasks</text><rect fill="#90EE90" height="113.1055" rx="12.5" ry="12.5" style="stroke:#181818;stroke-width:1.5;" width="189.2578" x="508.709" y="195.8633"/><text fill="#000000" font-family="sans-serif" font-size="14" lengthAdjust="spacing" textLength="165.3682" x="522.5986" y="220.9707">async block + await Scope</text><text fill="#000000" font-family="sans-serif" font-size="14" lengthAdjust="spacing" textLength="3.8896" x="518.709" y="239.5918">&#160;</text><text fill="#000000" font-family="sans-serif" font-size="14" lengthAdjust="spacing" textLength="94.1719" x="518.709" y="258.2129">async $scope {</text><text fill="#000000" font-family="sans-serif" font-size="14" lengthAdjust="spacing" textLength="81.7168" x="580.9434" y="276.834">await $scope</text><text fill="#000000" font-family="sans-serif" font-size="14" lengthAdjust="spacing" textLength="4.6758" x="518.709" y="295.4551">}</text><path d="M458.709,252.416 L468.709,252.416 C483.709,252.416 483.709,252.416 498.709,252.416 L508.709,252.416 " fill="none" style="stroke:#181818;stroke-width:1.0;"/><path d="M177.8408,252.416 L187.8408,252.416 C202.8408,252.416 202.8408,252.416 217.8408,252.416 L227.8408,252.416 " fill="none" style="stroke:#181818;stroke-width:1.0;"/><rect fill="#FFD700" height="38.6211" rx="12.5" ry="12.5" style="stroke:#181818;stroke-width:1.5;" width="90.8066" x="227.8408" y="328.9688"/><text fill="#000000" font-family="sans-serif" font-size="14" lengthAdjust="spacing" textLength="70.8066" x="237.8408" y="354.0762">A hierarchy</text><rect fill="#90EE90" height="38.6211" rx="12.5" ry="12.5" style="stroke:#181818;stroke-width:1.5;" width="147.627" x="368.6475" y="328.9688"/><text fill="#000000" font-family="sans-serif" font-size="14" lengthAdjust="spacing" textLength="127.627" x="378.6475" y="354.0762">async inherit $scope</text><path d="M318.6475,348.2793 L328.6475,348.2793 C343.6475,348.2793 343.6475,348.2793 358.6475,348.2793 L368.6475,348.2793 " fill="none" style="stroke:#181818;stroke-width:1.0;"/><path d="M177.8408,252.416 L187.8408,252.416 C202.8408,252.416 202.8408,348.2793 217.8408,348.2793 L227.8408,348.2793 " fill="none" style="stroke:#181818;stroke-width:1.0;"/><rect fill="#ADD8E6" height="38.6211" rx="12.5" ry="12.5" style="stroke:#181818;stroke-width:1.5;" width="137.4824" x="10" y="523.4531"/><text fill="#000000" font-family="sans-serif" font-size="14" lengthAdjust="spacing" textLength="117.4824" x="20" y="548.5605">Waiting for Results</text><rect fill="#90EE90" height="38.6211" rx="12.5" ry="12.5" style="stroke:#181818;stroke-width:1.5;" width="175.6406" x="197.4824" y="387.5898"/><text fill="#000000" font-family="sans-serif" font-size="14" lengthAdjust="spacing" textLength="155.6406" x="207.4824" y="412.6973">await &lt;Async\Awaitable&gt;</text><path d="M147.4824,542.7637 L157.4824,542.7637 C172.4824,542.7637 172.4824,406.9004 187.4824,406.9004 L197.4824,406.9004 " fill="none" style="stroke:#181818;stroke-width:1.0;"/><rect fill="#FFD700" height="38.6211" rx="12.5" ry="12.5" style="stroke:#181818;stroke-width:1.5;" width="175.6064" x="197.4824" y="446.2109"/><text fill="#000000" font-family="sans-serif" font-size="14" lengthAdjust="spacing" textLength="155.6064" x="207.4824" y="471.3184">Waiting for multiple tasks</text><rect fill="#90EE90" height="38.6211" rx="12.5" ry="12.5" style="stroke:#181818;stroke-width:1.5;" width="125.8203" x="423.0889" y="446.2109"/><text fill="#000000" font-family="sans-serif" font-size="14" lengthAdjust="spacing" textLength="105.8203" x="433.0889" y="471.3184">await TaskGroup</text><path d="M373.0889,465.5215 L383.0889,465.5215 C398.0889,465.5215 398.0889,465.5215 413.0889,465.5215 L423.0889,465.5215 " fill="none" style="stroke:#181818;stroke-width:1.0;"/><path d="M147.4824,542.7637 L157.4824,542.7637 C172.4824,542.7637 172.4824,465.5215 187.4824,465.5215 L197.4824,465.5215 " fill="none" style="stroke:#181818;stroke-width:1.0;"/><rect fill="#FFD700" height="38.6211" rx="12.5" ry="12.5" style="stroke:#181818;stroke-width:1.5;" width="174.0547" x="197.4824" y="504.832"/><text fill="#000000" font-family="sans-serif" font-size="14" lengthAdjust="spacing" textLength="154.0547" x="207.4824" y="529.9395">Waiting for all child tasks</text><rect fill="#90EE90" height="38.6211" rx="12.5" ry="12.5" style="stroke:#181818;stroke-width:1.5;" width="96.2686" x="421.5371" y="504.832"/><text fill="#000000" font-family="sans-serif" font-size="14" lengthAdjust="spacing" textLength="76.2686" x="431.5371" y="529.9395">await Scope</text><path d="M371.5371,524.1426 L381.5371,524.1426 C396.5371,524.1426 396.5371,524.1426 411.5371,524.1426 L421.5371,524.1426 " fill="none" style="stroke:#181818;stroke-width:1.0;"/><path d="M147.4824,542.7637 L157.4824,542.7637 C172.4824,542.7637 172.4824,524.1426 187.4824,524.1426 L197.4824,524.1426 " fill="none" style="stroke:#181818;stroke-width:1.0;"/><rect fill="#FFD700" height="38.6211" rx="12.5" ry="12.5" style="stroke:#181818;stroke-width:1.5;" width="190.3652" x="197.4824" y="563.4531"/><text fill="#000000" font-family="sans-serif" font-size="14" lengthAdjust="spacing" textLength="170.3652" x="207.4824" y="588.5605">Waiting for first tasks (race)</text><rect fill="#90EE90" height="38.6211" rx="12.5" ry="12.5" style="stroke:#181818;stroke-width:1.5;" width="302.3994" x="437.8477" y="563.4531"/><text fill="#000000" font-family="sans-serif" font-size="14" lengthAdjust="spacing" textLength="282.3994" x="447.8477" y="588.5605">TaskGroup::race() or TaskGroup::firstResult()</text><path d="M387.8477,582.7637 L397.8477,582.7637 C412.8477,582.7637 412.8477,582.7637 427.8477,582.7637 L437.8477,582.7637 " fill="none" style="stroke:#181818;stroke-width:1.0;"/><path d="M147.4824,542.7637 L157.4824,542.7637 C172.4824,542.7637 172.4824,582.7637 187.4824,582.7637 L197.4824,582.7637 " fill="none" style="stroke:#181818;stroke-width:1.0;"/><rect fill="#FFD700" height="38.6211" rx="12.5" ry="12.5" style="stroke:#181818;stroke-width:1.5;" width="173.2959" x="197.4824" y="640.6953"/><text fill="#000000" font-family="sans-serif" font-size="14" lengthAdjust="spacing" textLength="153.2959" x="207.4824" y="665.8027">Waiting with cancellation</text><rect fill="#90EE90" height="75.8633" rx="12.5" ry="12.5" style="stroke:#181818;stroke-width:1.5;" width="237.1367" x="420.7783" y="622.0742"/><text fill="#000000" font-family="sans-serif" font-size="14" lengthAdjust="spacing" textLength="74.3203" x="434.668" y="647.1816">await + until</text><text fill="#000000" font-family="sans-serif" font-size="14" lengthAdjust="spacing" textLength="3.8896" x="430.7783" y="665.8027">&#160;</text><text fill="#000000" font-family="sans-serif" font-size="14" lengthAdjust="spacing" textLength="217.1367" x="430.7783" y="684.4238">await $coroutine until $cancellation</text><path d="M370.7783,660.0059 L380.7783,660.0059 C395.7783,660.0059 395.7783,660.0059 410.7783,660.0059 L420.7783,660.0059 " fill="none" style="stroke:#181818;stroke-width:1.0;"/><path d="M147.4824,542.7637 L157.4824,542.7637 C172.4824,542.7637 172.4824,660.0059 187.4824,660.0059 L197.4824,660.0059 " fill="none" style="stroke:#181818;stroke-width:1.0;"/><rect fill="#ADD8E6" height="38.6211" rx="12.5" ry="12.5" style="stroke:#181818;stroke-width:1.5;" width="147.6338" x="10" y="776.5586"/><text fill="#000000" font-family="sans-serif" font-size="14" lengthAdjust="spacing" textLength="127.6338" x="20" y="801.666">Handling Exceptions</text><rect fill="#FFD700" height="38.6211" rx="12.5" ry="12.5" style="stroke:#181818;stroke-width:1.5;" width="248.0332" x="207.6338" y="717.9375"/><text fill="#000000" font-family="sans-serif" font-size="14" lengthAdjust="spacing" textLength="228.0332" x="217.6338" y="743.0449">Handling exceptions inside coroutine</text><rect fill="#90EE90" height="38.6211" rx="12.5" ry="12.5" style="stroke:#181818;stroke-width:1.5;" width="139.0342" x="505.667" y="717.9375"/><text fill="#000000" font-family="sans-serif" font-size="14" lengthAdjust="spacing" textLength="119.0342" x="515.667" y="743.0449">try-catch with await</text><path d="M455.667,737.248 L465.667,737.248 C480.667,737.248 480.667,737.248 495.667,737.248 L505.667,737.248 " fill="none" style="stroke:#181818;stroke-width:1.0;"/><path d="M157.6338,795.8691 L167.6338,795.8691 C182.6338,795.8691 182.6338,737.248 197.6338,737.248 L207.6338,737.248 " fill="none" style="stroke:#181818;stroke-width:1.0;"/><rect fill="#FFD700" height="38.6211" rx="12.5" ry="12.5" style="stroke:#181818;stroke-width:1.5;" width="252.7021" x="207.6338" y="776.5586"/><text fill="#000000" font-family="sans-serif" font-size="14" lengthAdjust="spacing" textLength="232.7021" x="217.6338" y="801.666">Handling exceptions in grouped tasks</text><rect fill="#90EE90" height="38.6211" rx="12.5" ry="12.5" style="stroke:#181818;stroke-width:1.5;" width="177.9854" x="510.3359" y="776.5586"/><text fill="#000000" font-family="sans-serif" font-size="14" lengthAdjust="spacing" textLength="157.9854" x="520.3359" y="801.666">Scope Exception Handler</text><path d="M460.3359,795.8691 L470.3359,795.8691 C485.3359,795.8691 485.3359,795.8691 500.3359,795.8691 L510.3359,795.8691 " fill="none" style="stroke:#181818;stroke-width:1.0;"/><path d="M157.6338,795.8691 L167.6338,795.8691 C182.6338,795.8691 182.6338,795.8691 197.6338,795.8691 L207.6338,795.8691 " fill="none" style="stroke:#181818;stroke-width:1.0;"/><rect fill="#FFD700" height="38.6211" rx="12.5" ry="12.5" style="stroke:#181818;stroke-width:1.5;" width="244.9023" x="207.6338" y="835.1797"/><text fill="#000000" font-family="sans-serif" font-size="14" lengthAdjust="spacing" textLength="224.9023" x="217.6338" y="860.2871">Handling exceptions as a supervisor</text><rect fill="#90EE90" height="38.6211" rx="12.5" ry="12.5" style="stroke:#181818;stroke-width:1.5;" width="213.7783" x="502.5361" y="835.1797"/><text fill="#000000" font-family="sans-serif" font-size="14" lengthAdjust="spacing" textLength="193.7783" x="512.5361" y="860.2871">Child Scope Exception Handler</text><path d="M452.5361,854.4902 L462.5361,854.4902 C477.5361,854.4902 477.5361,854.4902 492.5361,854.4902 L502.5361,854.4902 " fill="none" style="stroke:#181818;stroke-width:1.0;"/><path d="M157.6338,795.8691 L167.6338,795.8691 C182.6338,795.8691 182.6338,854.4902 197.6338,854.4902 L207.6338,854.4902 " fill="none" style="stroke:#181818;stroke-width:1.0;"/><rect fill="#ADD8E6" height="38.6211" rx="12.5" ry="12.5" style="stroke:#181818;stroke-width:1.5;" width="111.8203" x="10" y="1074.8379"/><text fill="#000000" font-family="sans-serif" font-size="14" lengthAdjust="spacing" textLength="91.8203" x="20" y="1099.9453">Task Grouping</text><rect fill="#FFD700" height="38.6211" rx="12.5" ry="12.5" style="stroke:#181818;stroke-width:1.5;" width="152.2891" x="171.8203" y="893.8008"/><text fill="#000000" font-family="sans-serif" font-size="14" lengthAdjust="spacing" textLength="132.2891" x="181.8203" y="918.9082">Explicit task grouping</text><rect fill="#90EE90" height="38.6211" rx="12.5" ry="12.5" style="stroke:#181818;stroke-width:1.5;" width="89.248" x="374.1094" y="893.8008"/><text fill="#000000" font-family="sans-serif" font-size="14" lengthAdjust="spacing" textLength="69.248" x="384.1094" y="918.9082">TaskGroup</text><path d="M324.1094,913.1113 L334.1094,913.1113 C349.1094,913.1113 349.1094,913.1113 364.1094,913.1113 L374.1094,913.1113 " fill="none" style="stroke:#181818;stroke-width:1.0;"/><path d="M121.8203,1094.1484 L131.8203,1094.1484 C146.8203,1094.1484 146.8203,913.1113 161.8203,913.1113 L171.8203,913.1113 " fill="none" style="stroke:#181818;stroke-width:1.0;"/><rect fill="#FFD700" height="38.6211" rx="12.5" ry="12.5" style="stroke:#181818;stroke-width:1.5;" width="272.1367" x="171.8203" y="952.4219"/><text fill="#000000" font-family="sans-serif" font-size="14" lengthAdjust="spacing" textLength="252.1367" x="181.8203" y="977.5293">Shared task space for spawn expression</text><rect fill="#90EE90" height="38.6211" rx="12.5" ry="12.5" style="stroke:#181818;stroke-width:1.5;" width="59.6963" x="493.957" y="952.4219"/><text fill="#000000" font-family="sans-serif" font-size="14" lengthAdjust="spacing" textLength="39.6963" x="503.957" y="977.5293">Scope</text><path d="M443.957,971.7324 L453.957,971.7324 C468.957,971.7324 468.957,971.7324 483.957,971.7324 L493.957,971.7324 " fill="none" style="stroke:#181818;stroke-width:1.0;"/><path d="M121.8203,1094.1484 L131.8203,1094.1484 C146.8203,1094.1484 146.8203,971.7324 161.8203,971.7324 L171.8203,971.7324 " fill="none" style="stroke:#181818;stroke-width:1.0;"/><rect fill="#FFD700" height="38.6211" rx="12.5" ry="12.5" style="stroke:#181818;stroke-width:1.5;" width="235.5713" x="171.8203" y="1011.043"/><text fill="#000000" font-family="sans-serif" font-size="14" lengthAdjust="spacing" textLength="215.5713" x="181.8203" y="1036.1504">Binding of TaskGroup to the scope</text><rect fill="#90EE90" height="38.6211" rx="12.5" ry="12.5" style="stroke:#181818;stroke-width:1.5;" width="206.7373" x="457.3916" y="1011.043"/><text fill="#000000" font-family="sans-serif" font-size="14" lengthAdjust="spacing" textLength="186.7373" x="467.3916" y="1036.1504">new TaskGroup(new Scope())</text><path d="M407.3916,1030.3535 L417.3916,1030.3535 C432.3916,1030.3535 432.3916,1030.3535 447.3916,1030.3535 L457.3916,1030.3535 " fill="none" style="stroke:#181818;stroke-width:1.0;"/><path d="M121.8203,1094.1484 L131.8203,1094.1484 C146.8203,1094.1484 146.8203,1030.3535 161.8203,1030.3535 L171.8203,1030.3535 " fill="none" style="stroke:#181818;stroke-width:1.0;"/><rect fill="#FFD700" height="38.6211" rx="12.5" ry="12.5" style="stroke:#181818;stroke-width:1.5;" width="235.5576" x="171.8203" y="1162.7695"/><text fill="#000000" font-family="sans-serif" font-size="14" lengthAdjust="spacing" textLength="215.5576" x="181.8203" y="1187.877">Linking PHP object with coroutines</text><rect fill="#90EE90" height="224.832" rx="12.5" ry="12.5" style="stroke:#181818;stroke-width:1.5;" width="256.5508" x="457.3779" y="1069.6641"/><text fill="#000000" font-family="sans-serif" font-size="14" lengthAdjust="spacing" textLength="156.4199" x="471.2676" y="1094.7715">Scope or/and TaskGroup</text><text fill="#000000" font-family="sans-serif" font-size="14" lengthAdjust="spacing" textLength="3.8896" x="467.3779" y="1113.3926">&#160;</text><text fill="#000000" font-family="sans-serif" font-size="14" lengthAdjust="spacing" textLength="80.9238" x="467.3779" y="1132.0137">class Some {</text><text fill="#000000" font-family="sans-serif" font-size="14" lengthAdjust="spacing" textLength="183.6543" x="498.4951" y="1150.6348">public function __construct() {</text><text fill="#000000" font-family="sans-serif" font-size="14" lengthAdjust="spacing" textLength="174.3164" x="529.6123" y="1169.2559">$this-&gt;scope = new Scope()</text><text fill="#000000" font-family="sans-serif" font-size="14" lengthAdjust="spacing" textLength="4.6758" x="498.4951" y="1187.877">}</text><text fill="#000000" font-family="sans-serif" font-size="14" lengthAdjust="spacing" textLength="3.8896" x="467.3779" y="1206.498">&#160;</text><text fill="#000000" font-family="sans-serif" font-size="14" lengthAdjust="spacing" textLength="176.6543" x="498.4951" y="1225.1191">public function __destruct() {</text><text fill="#000000" font-family="sans-serif" font-size="14" lengthAdjust="spacing" textLength="150.1855" x="529.6123" y="1243.7402">$this-&gt;scope-&gt;dispose()</text><text fill="#000000" font-family="sans-serif" font-size="14" lengthAdjust="spacing" textLength="4.6758" x="498.4951" y="1262.3613">}</text><text fill="#000000" font-family="sans-serif" font-size="14" lengthAdjust="spacing" textLength="4.6758" x="467.3779" y="1280.9824">}</text><path d="M407.3779,1182.0801 L417.3779,1182.0801 C432.3779,1182.0801 432.3779,1182.0801 447.3779,1182.0801 L457.3779,1182.0801 " fill="none" style="stroke:#181818;stroke-width:1.0;"/><path d="M121.8203,1094.1484 L131.8203,1094.1484 C146.8203,1094.1484 146.8203,1182.0801 161.8203,1182.0801 L171.8203,1182.0801 " fill="none" style="stroke:#181818;stroke-width:1.0;"/><rect fill="#ADD8E6" height="38.6211" rx="12.5" ry="12.5" style="stroke:#181818;stroke-width:1.5;" width="131.2754" x="10" y="1431.7383"/><text fill="#000000" font-family="sans-serif" font-size="14" lengthAdjust="spacing" textLength="111.2754" x="20" y="1456.8457">Task Cancellation</text><rect fill="#FFD700" height="38.6211" rx="12.5" ry="12.5" style="stroke:#181818;stroke-width:1.5;" width="187.3301" x="191.2754" y="1314.4961"/><text fill="#000000" font-family="sans-serif" font-size="14" lengthAdjust="spacing" textLength="167.3301" x="201.2754" y="1339.6035">Cancel a running coroutine</text><rect fill="#90EE90" height="38.6211" rx="12.5" ry="12.5" style="stroke:#181818;stroke-width:1.5;" width="138.2754" x="428.6055" y="1314.4961"/><text fill="#000000" font-family="sans-serif" font-size="14" lengthAdjust="spacing" textLength="118.2754" x="438.6055" y="1339.6035">Coroutine::cancel()</text><path d="M378.6055,1333.8066 L388.6055,1333.8066 C403.6055,1333.8066 403.6055,1333.8066 418.6055,1333.8066 L428.6055,1333.8066 " fill="none" style="stroke:#181818;stroke-width:1.0;"/><path d="M141.2754,1451.0488 L151.2754,1451.0488 C166.2754,1451.0488 166.2754,1333.8066 181.2754,1333.8066 L191.2754,1333.8066 " fill="none" style="stroke:#181818;stroke-width:1.0;"/><rect fill="#FFD700" height="38.6211" rx="12.5" ry="12.5" style="stroke:#181818;stroke-width:1.5;" width="206.7578" x="191.2754" y="1373.1172"/><text fill="#000000" font-family="sans-serif" font-size="14" lengthAdjust="spacing" textLength="186.7578" x="201.2754" y="1398.2246">Cancel all child tasks in scope</text><rect fill="#90EE90" height="38.6211" rx="12.5" ry="12.5" style="stroke:#181818;stroke-width:1.5;" width="117.2686" x="448.0332" y="1373.1172"/><text fill="#000000" font-family="sans-serif" font-size="14" lengthAdjust="spacing" textLength="97.2686" x="458.0332" y="1398.2246">Scope::cancel()</text><path d="M398.0332,1392.4277 L408.0332,1392.4277 C423.0332,1392.4277 423.0332,1392.4277 438.0332,1392.4277 L448.0332,1392.4277 " fill="none" style="stroke:#181818;stroke-width:1.0;"/><path d="M141.2754,1451.0488 L151.2754,1451.0488 C166.2754,1451.0488 166.2754,1392.4277 181.2754,1392.4277 L191.2754,1392.4277 " fill="none" style="stroke:#181818;stroke-width:1.0;"/><rect fill="#FFD700" height="38.6211" rx="12.5" ry="12.5" style="stroke:#181818;stroke-width:1.5;" width="188.0684" x="191.2754" y="1431.7383"/><text fill="#000000" font-family="sans-serif" font-size="14" lengthAdjust="spacing" textLength="168.0684" x="201.2754" y="1456.8457">Cancel tasks in TaskGroup</text><rect fill="#90EE90" height="38.6211" rx="12.5" ry="12.5" style="stroke:#181818;stroke-width:1.5;" width="293.0957" x="429.3438" y="1431.7383"/><text fill="#000000" font-family="sans-serif" font-size="14" lengthAdjust="spacing" textLength="273.0957" x="439.3438" y="1456.8457">TaskGroup::cancel() / TaskGroup::dispose()</text><path d="M379.3438,1451.0488 L389.3438,1451.0488 C404.3438,1451.0488 404.3438,1451.0488 419.3438,1451.0488 L429.3438,1451.0488 " fill="none" style="stroke:#181818;stroke-width:1.0;"/><path d="M141.2754,1451.0488 L151.2754,1451.0488 C166.2754,1451.0488 166.2754,1451.0488 181.2754,1451.0488 L191.2754,1451.0488 " fill="none" style="stroke:#181818;stroke-width:1.0;"/><rect fill="#FFD700" height="38.6211" rx="12.5" ry="12.5" style="stroke:#181818;stroke-width:1.5;" width="232.4268" x="191.2754" y="1490.3594"/><text fill="#000000" font-family="sans-serif" font-size="14" lengthAdjust="spacing" textLength="212.4268" x="201.2754" y="1515.4668">Cancel all child tasks with warning</text><rect fill="#90EE90" height="38.6211" rx="12.5" ry="12.5" style="stroke:#181818;stroke-width:1.5;" width="125.0547" x="473.7021" y="1490.3594"/><text fill="#000000" font-family="sans-serif" font-size="14" lengthAdjust="spacing" textLength="105.0547" x="483.7021" y="1515.4668">Scope::dispose()</text><path d="M423.7021,1509.6699 L433.7021,1509.6699 C448.7021,1509.6699 448.7021,1509.6699 463.7021,1509.6699 L473.7021,1509.6699 " fill="none" style="stroke:#181818;stroke-width:1.0;"/><path d="M141.2754,1451.0488 L151.2754,1451.0488 C166.2754,1451.0488 166.2754,1509.6699 181.2754,1509.6699 L191.2754,1509.6699 " fill="none" style="stroke:#181818;stroke-width:1.0;"/><rect fill="#FFD700" height="38.6211" rx="12.5" ry="12.5" style="stroke:#181818;stroke-width:1.5;" width="290.0127" x="191.2754" y="1548.9805"/><text fill="#000000" font-family="sans-serif" font-size="14" lengthAdjust="spacing" textLength="270.0127" x="201.2754" y="1574.0879">Cancel all child tasks with zombie coroutine</text><rect fill="#90EE90" height="38.6211" rx="12.5" ry="12.5" style="stroke:#181818;stroke-width:1.5;" width="163.9648" x="531.2881" y="1548.9805"/><text fill="#000000" font-family="sans-serif" font-size="14" lengthAdjust="spacing" textLength="143.9648" x="541.2881" y="1574.0879">Scope::disposeSafely()</text><path d="M481.2881,1568.291 L491.2881,1568.291 C506.2881,1568.291 506.2881,1568.291 521.2881,1568.291 L531.2881,1568.291 " fill="none" style="stroke:#181818;stroke-width:1.0;"/><path d="M141.2754,1451.0488 L151.2754,1451.0488 C166.2754,1451.0488 166.2754,1568.291 181.2754,1568.291 L191.2754,1568.291 " fill="none" style="stroke:#181818;stroke-width:1.0;"/><rect fill="#ADD8E6" height="38.6211" rx="12.5" ry="12.5" style="stroke:#181818;stroke-width:1.5;" width="153.8545" x="10" y="1636.9121"/><text fill="#000000" font-family="sans-serif" font-size="14" lengthAdjust="spacing" textLength="133.8545" x="20" y="1662.0195">Context Management</text><rect fill="#FFD700" height="38.6211" rx="12.5" ry="12.5" style="stroke:#181818;stroke-width:1.5;" width="280.7158" x="213.8545" y="1607.6016"/><text fill="#000000" font-family="sans-serif" font-size="14" lengthAdjust="spacing" textLength="260.7158" x="223.8545" y="1632.709">Passing data across coroutine boundaries</text><rect fill="#90EE90" height="38.6211" rx="12.5" ry="12.5" style="stroke:#181818;stroke-width:1.5;" width="110.2617" x="544.5703" y="1607.6016"/><text fill="#000000" font-family="sans-serif" font-size="14" lengthAdjust="spacing" textLength="90.2617" x="554.5703" y="1632.709">Async\Context</text><path d="M494.5703,1626.9121 L504.5703,1626.9121 C519.5703,1626.9121 519.5703,1626.9121 534.5703,1626.9121 L544.5703,1626.9121 " fill="none" style="stroke:#181818;stroke-width:1.0;"/><path d="M163.8545,1656.2227 L173.8545,1656.2227 C188.8545,1656.2227 188.8545,1626.9121 203.8545,1626.9121 L213.8545,1626.9121 " fill="none" style="stroke:#181818;stroke-width:1.0;"/><rect fill="#FFD700" height="38.6211" rx="12.5" ry="12.5" style="stroke:#181818;stroke-width:1.5;" width="219.9922" x="213.8545" y="1666.2227"/><text fill="#000000" font-family="sans-serif" font-size="14" lengthAdjust="spacing" textLength="199.9922" x="223.8545" y="1691.3301">Inheriting context across scopes</text><rect fill="#90EE90" height="38.6211" rx="12.5" ry="12.5" style="stroke:#181818;stroke-width:1.5;" width="132.8545" x="483.8467" y="1666.2227"/><text fill="#000000" font-family="sans-serif" font-size="14" lengthAdjust="spacing" textLength="112.8545" x="493.8467" y="1691.3301">Scope Inheritance</text><path d="M433.8467,1685.5332 L443.8467,1685.5332 C458.8467,1685.5332 458.8467,1685.5332 473.8467,1685.5332 L483.8467,1685.5332 " fill="none" style="stroke:#181818;stroke-width:1.0;"/><path d="M163.8545,1656.2227 L173.8545,1656.2227 C188.8545,1656.2227 188.8545,1685.5332 203.8545,1685.5332 L213.8545,1685.5332 " fill="none" style="stroke:#181818;stroke-width:1.0;"/><rect fill="#ADD8E6" height="38.6211" rx="12.5" ry="12.5" style="stroke:#181818;stroke-width:1.5;" width="203.6543" x="10" y="1724.8438"/><text fill="#000000" font-family="sans-serif" font-size="14" lengthAdjust="spacing" textLength="183.6543" x="20" y="1749.9512">Managing Zombie Coroutines</text><rect fill="#90EE90" height="38.6211" rx="12.5" ry="12.5" style="stroke:#181818;stroke-width:1.5;" width="300.9023" x="263.6543" y="1724.8438"/><text fill="#000000" font-family="sans-serif" font-size="14" lengthAdjust="spacing" textLength="280.9023" x="273.6543" y="1749.9512">Zombie Coroutine Policy or Task cancellation</text><path d="M213.6543,1744.1543 L223.6543,1744.1543 C238.6543,1744.1543 238.6543,1744.1543 253.6543,1744.1543 L263.6543,1744.1543 " fill="none" style="stroke:#181818;stroke-width:1.0;"/><!--SRC=[bLPjRnev4FwS_HKZNJz0AzgaYYxLvYvgIaZRN51H83tfUb5bl0FhosAlR6y8hVBVExONs0MMQoK-i7vvPkQPcMVyrbYcxKp8PCRowFcNtp8nJUquA_0EkXgP5N8ANQLLGV_GHC-NHwOQKTw1oTbSRjmRpeNbgRje5GnvYacHeTw-MfWSPR9vsUg2sq9ZGcObBxH6oHV-ykNbnSdXuHsy9szo3y_ClNDf0rZY74QqvS-rsl02s9m9krwheOrIX9oH5Glkb869qi2o32Y4B6cm4GCp2ybXd2b-lp8mv2h7A0fRpupxWk_HmK7O3GlHqsdD_3ca0ZNJF5riHnAGX4nHhm7gVFrDq8uBv_KDcYApsqaAzlyuTsZ_dhiFDixmhEP75MT6A2BFi8dWVNHMSVwFnHfjJI0JeOqD0D3IZ6Dx6sVbIXox4vHpkbXPz1Y1dLPxfoKgsHGuanopZ8fUoLqfzzw-W49QaL6QGrRviZd2EYrKK4utilM1oIHpzdgF77DtmjJSMUtZQf_IRqI2iBAp7RxLYmvdr7CX3E_OJy32rB63ZTdnULbx6b3AHjw7pEX7tPsZVX16wMtWhg-9HlWQOowBguwlcUuzvfdW8jH6Y2KSQIgEskrXodGPkXCnZhxOl9nHBBb6OtPLmOvYVKVYwHXGaxKfftoMXANisFqAvRuyRAjTByvh8UyTyk330DJuF-IshDEg7czMQQ1LwLT4PoNsY6VC61YgcTUal1WJUJ0f9FVaV_tAANLUUwbxd6WziwamdREWOdz2nSdeu2dQXP1W8q3dB14cLwQy_NIwAylTUlkjUGWRL5IwaD8HigSNLhCgZaCZRZJy4gikJQuR6dBbWzuFjeAebbgpH2sXu5LrTKtGJxZhos3EjDnPyQNBluxuJSt6Og_KrA67R8BPmXceFnoKjFXeeSyac-ACHclDWm4LeijYmYm3nhMYkbohw5WLCc5Qx2Xk21EiXAzXVWmpCXH7i5uY-xGsgbjvpt6o4OHttk7z4qZPymZQF043HQsnM0wX-bnvIs-UvNih6cHCsjl-DJoWTde3HozV7xu-VddI6Z8QZ9Z3uGaS7ST7R-AZ4-ZrXYDm- -serVyu0gCAJS95oR1QZ0i7tuwks0E36pUBPXZ39tfYNLtyjLo0ddmGMacVawlF_VM1tuyxxzmi9j563P_xqGLE6CrBki6LqxSORaUNdJVHDPFJWj8QKpT6NKeMJPyORcv_0000]--></g></svg>