<svg xmlns="http://www.w3.org/2000/svg" xmlns:xlink="http://www.w3.org/1999/xlink" contentStyleType="text/css" height="959px" preserveAspectRatio="none" style="width:1026px;height:959px;background:#FFFFFF;" version="1.1" viewBox="0 0 1026 959" width="1026px" zoomAndPan="magnify"><defs/><g><rect fill="#F1F1F1" height="38.6211" rx="12.5" ry="12.5" style="stroke:#181818;stroke-width:1.5;" width="156.1377" x="10" y="459.6582"/><text fill="#000000" font-family="sans-serif" font-size="14" lengthAdjust="spacing" textLength="136.1377" x="20" y="484.7656">PHP True Async RFC</text><rect fill="#F1F1F1" height="38.6211" rx="12.5" ry="12.5" style="stroke:#181818;stroke-width:1.5;" width="144.5098" x="216.1377" y="20"/><text fill="#000000" font-family="sans-serif" font-size="14" lengthAdjust="spacing" textLength="124.5098" x="226.1377" y="45.1074">Creating Coroutines</text><rect fill="#F1F1F1" height="38.6211" rx="12.5" ry="12.5" style="stroke:#181818;stroke-width:1.5;" width="60.4688" x="410.6475" y="20"/><text fill="#000000" font-family="sans-serif" font-size="14" lengthAdjust="spacing" textLength="40.4688" x="420.6475" y="45.1074">spawn</text><path d="M360.6475,39.3105 L370.6475,39.3105 C385.6475,39.3105 385.6475,39.3105 400.6475,39.3105 L410.6475,39.3105 " fill="none" style="stroke:#181818;stroke-width:1.0;"/><path d="M166.1377,478.9688 L176.1377,478.9688 C191.1377,478.9688 191.1377,39.3105 206.1377,39.3105 L216.1377,39.3105 " fill="none" style="stroke:#181818;stroke-width:1.0;"/><rect fill="#F1F1F1" height="38.6211" rx="12.5" ry="12.5" style="stroke:#181818;stroke-width:1.5;" width="167.8408" x="216.1377" y="78.6211"/><text fill="#000000" font-family="sans-serif" font-size="14" lengthAdjust="spacing" textLength="147.8408" x="226.1377" y="103.7285">Structured Concurrency</text><rect fill="#F1F1F1" height="38.6211" rx="12.5" ry="12.5" style="stroke:#181818;stroke-width:1.5;" width="349.1367" x="433.9785" y="78.6211"/><text fill="#000000" font-family="sans-serif" font-size="14" lengthAdjust="spacing" textLength="329.1367" x="443.9785" y="103.7285">Problem: Grouping tasks with structured concurrency</text><rect fill="#F1F1F1" height="38.6211" rx="12.5" ry="12.5" style="stroke:#181818;stroke-width:1.5;" width="151.5166" x="833.1152" y="78.6211"/><text fill="#000000" font-family="sans-serif" font-size="14" lengthAdjust="spacing" textLength="131.5166" x="843.1152" y="103.7285">Solution: async block</text><path d="M783.1152,97.9316 L793.1152,97.9316 C808.1152,97.9316 808.1152,97.9316 823.1152,97.9316 L833.1152,97.9316 " fill="none" style="stroke:#181818;stroke-width:1.0;"/><path d="M383.9785,97.9316 L393.9785,97.9316 C408.9785,97.9316 408.9785,97.9316 423.9785,97.9316 L433.9785,97.9316 " fill="none" style="stroke:#181818;stroke-width:1.0;"/><path d="M166.1377,478.9688 L176.1377,478.9688 C191.1377,478.9688 191.1377,97.9316 206.1377,97.9316 L216.1377,97.9316 " fill="none" style="stroke:#181818;stroke-width:1.0;"/><rect fill="#F1F1F1" height="38.6211" rx="12.5" ry="12.5" style="stroke:#181818;stroke-width:1.5;" width="137.4824" x="216.1377" y="225.1738"/><text fill="#000000" font-family="sans-serif" font-size="14" lengthAdjust="spacing" textLength="117.4824" x="226.1377" y="250.2813">Waiting for Results</text><rect fill="#F1F1F1" height="38.6211" rx="12.5" ry="12.5" style="stroke:#181818;stroke-width:1.5;" width="52.6826" x="403.6201" y="137.2422"/><text fill="#000000" font-family="sans-serif" font-size="14" lengthAdjust="spacing" textLength="32.6826" x="413.6201" y="162.3496">await</text><path d="M353.6201,244.4844 L363.6201,244.4844 C378.6201,244.4844 378.6201,156.5527 393.6201,156.5527 L403.6201,156.5527 " fill="none" style="stroke:#181818;stroke-width:1.0;"/><rect fill="#F1F1F1" height="38.6211" rx="12.5" ry="12.5" style="stroke:#181818;stroke-width:1.5;" width="235.5166" x="403.6201" y="195.8633"/><text fill="#000000" font-family="sans-serif" font-size="14" lengthAdjust="spacing" textLength="215.5166" x="413.6201" y="220.9707">Problem: Waiting for multiple tasks</text><rect fill="#F1F1F1" height="38.6211" rx="12.5" ry="12.5" style="stroke:#181818;stroke-width:1.5;" width="138.2754" x="689.1367" y="195.8633"/><text fill="#000000" font-family="sans-serif" font-size="14" lengthAdjust="spacing" textLength="118.2754" x="699.1367" y="220.9707">Solution: await all()</text><path d="M639.1367,215.1738 L649.1367,215.1738 C664.1367,215.1738 664.1367,215.1738 679.1367,215.1738 L689.1367,215.1738 " fill="none" style="stroke:#181818;stroke-width:1.0;"/><path d="M353.6201,244.4844 L363.6201,244.4844 C378.6201,244.4844 378.6201,215.1738 393.6201,215.1738 L403.6201,215.1738 " fill="none" style="stroke:#181818;stroke-width:1.0;"/><rect fill="#F1F1F1" height="38.6211" rx="12.5" ry="12.5" style="stroke:#181818;stroke-width:1.5;" width="233.9648" x="403.6201" y="254.4844"/><text fill="#000000" font-family="sans-serif" font-size="14" lengthAdjust="spacing" textLength="213.9648" x="413.6201" y="279.5918">Problem: Waiting for all child tasks</text><rect fill="#F1F1F1" height="38.6211" rx="12.5" ry="12.5" style="stroke:#181818;stroke-width:1.5;" width="186.5166" x="687.585" y="254.4844"/><text fill="#000000" font-family="sans-serif" font-size="14" lengthAdjust="spacing" textLength="166.5166" x="697.585" y="279.5918">Solution: Scope::allTasks()</text><path d="M637.585,273.7949 L647.585,273.7949 C662.585,273.7949 662.585,273.7949 677.585,273.7949 L687.585,273.7949 " fill="none" style="stroke:#181818;stroke-width:1.0;"/><path d="M353.6201,244.4844 L363.6201,244.4844 C378.6201,244.4844 378.6201,273.7949 393.6201,273.7949 L403.6201,273.7949 " fill="none" style="stroke:#181818;stroke-width:1.0;"/><rect fill="#F1F1F1" height="38.6211" rx="12.5" ry="12.5" style="stroke:#181818;stroke-width:1.5;" width="254.1924" x="403.6201" y="313.1055"/><text fill="#000000" font-family="sans-serif" font-size="14" lengthAdjust="spacing" textLength="234.1924" x="413.6201" y="338.2129">Problem: Waiting for direct child tasks</text><rect fill="#F1F1F1" height="38.6211" rx="12.5" ry="12.5" style="stroke:#181818;stroke-width:1.5;" width="206.7441" x="707.8125" y="313.1055"/><text fill="#000000" font-family="sans-serif" font-size="14" lengthAdjust="spacing" textLength="186.7441" x="717.8125" y="338.2129">Solution: Scope::directTasks()</text><path d="M657.8125,332.416 L667.8125,332.416 C682.8125,332.416 682.8125,332.416 697.8125,332.416 L707.8125,332.416 " fill="none" style="stroke:#181818;stroke-width:1.0;"/><path d="M353.6201,244.4844 L363.6201,244.4844 C378.6201,244.4844 378.6201,332.416 393.6201,332.416 L403.6201,332.416 " fill="none" style="stroke:#181818;stroke-width:1.0;"/><path d="M166.1377,478.9688 L176.1377,478.9688 C191.1377,478.9688 191.1377,244.4844 206.1377,244.4844 L216.1377,244.4844 " fill="none" style="stroke:#181818;stroke-width:1.0;"/><rect fill="#F1F1F1" height="38.6211" rx="12.5" ry="12.5" style="stroke:#181818;stroke-width:1.5;" width="147.6338" x="216.1377" y="401.0371"/><text fill="#000000" font-family="sans-serif" font-size="14" lengthAdjust="spacing" textLength="127.6338" x="226.1377" y="426.1445">Handling Exceptions</text><rect fill="#F1F1F1" height="38.6211" rx="12.5" ry="12.5" style="stroke:#181818;stroke-width:1.5;" width="307.9434" x="413.7715" y="371.7266"/><text fill="#000000" font-family="sans-serif" font-size="14" lengthAdjust="spacing" textLength="287.9434" x="423.7715" y="396.834">Problem: Handling exceptions inside coroutine</text><rect fill="#F1F1F1" height="38.6211" rx="12.5" ry="12.5" style="stroke:#181818;stroke-width:1.5;" width="197.4063" x="771.7148" y="371.7266"/><text fill="#000000" font-family="sans-serif" font-size="14" lengthAdjust="spacing" textLength="177.4063" x="781.7148" y="396.834">Solution: try-catch with await</text><path d="M721.7148,391.0371 L731.7148,391.0371 C746.7148,391.0371 746.7148,391.0371 761.7148,391.0371 L771.7148,391.0371 " fill="none" style="stroke:#181818;stroke-width:1.0;"/><path d="M363.7715,420.3477 L373.7715,420.3477 C388.7715,420.3477 388.7715,391.0371 403.7715,391.0371 L413.7715,391.0371 " fill="none" style="stroke:#181818;stroke-width:1.0;"/><rect fill="#F1F1F1" height="38.6211" rx="12.5" ry="12.5" style="stroke:#181818;stroke-width:1.5;" width="312.6123" x="413.7715" y="430.3477"/><text fill="#000000" font-family="sans-serif" font-size="14" lengthAdjust="spacing" textLength="292.6123" x="423.7715" y="455.4551">Problem: Handling exceptions in grouped tasks</text><rect fill="#F1F1F1" height="38.6211" rx="12.5" ry="12.5" style="stroke:#181818;stroke-width:1.5;" width="236.3574" x="776.3838" y="430.3477"/><text fill="#000000" font-family="sans-serif" font-size="14" lengthAdjust="spacing" textLength="216.3574" x="786.3838" y="455.4551">Solution: Scope Exception Handler</text><path d="M726.3838,449.6582 L736.3838,449.6582 C751.3838,449.6582 751.3838,449.6582 766.3838,449.6582 L776.3838,449.6582 " fill="none" style="stroke:#181818;stroke-width:1.0;"/><path d="M363.7715,420.3477 L373.7715,420.3477 C388.7715,420.3477 388.7715,449.6582 403.7715,449.6582 L413.7715,449.6582 " fill="none" style="stroke:#181818;stroke-width:1.0;"/><path d="M166.1377,478.9688 L176.1377,478.9688 C191.1377,478.9688 191.1377,420.3477 206.1377,420.3477 L216.1377,420.3477 " fill="none" style="stroke:#181818;stroke-width:1.0;"/><rect fill="#F1F1F1" height="38.6211" rx="12.5" ry="12.5" style="stroke:#181818;stroke-width:1.5;" width="182.6543" x="216.1377" y="518.2793"/><text fill="#000000" font-family="sans-serif" font-size="14" lengthAdjust="spacing" textLength="162.6543" x="226.1377" y="543.3867">Task Grouping and Scope</text><rect fill="#F1F1F1" height="38.6211" rx="12.5" ry="12.5" style="stroke:#181818;stroke-width:1.5;" width="297.7852" x="448.792" y="488.9688"/><text fill="#000000" font-family="sans-serif" font-size="14" lengthAdjust="spacing" textLength="277.7852" x="458.792" y="514.0762">Problem: Grouping tasks with shared lifetime</text><rect fill="#F1F1F1" height="38.6211" rx="12.5" ry="12.5" style="stroke:#181818;stroke-width:1.5;" width="118.0684" x="796.5771" y="488.9688"/><text fill="#000000" font-family="sans-serif" font-size="14" lengthAdjust="spacing" textLength="98.0684" x="806.5771" y="514.0762">Solution: Scope</text><path d="M746.5771,508.2793 L756.5771,508.2793 C771.5771,508.2793 771.5771,508.2793 786.5771,508.2793 L796.5771,508.2793 " fill="none" style="stroke:#181818;stroke-width:1.0;"/><path d="M398.792,537.5898 L408.792,537.5898 C423.792,537.5898 423.792,508.2793 438.792,508.2793 L448.792,508.2793 " fill="none" style="stroke:#181818;stroke-width:1.0;"/><rect fill="#F1F1F1" height="38.6211" rx="12.5" ry="12.5" style="stroke:#181818;stroke-width:1.5;" width="295.4678" x="448.792" y="547.5898"/><text fill="#000000" font-family="sans-serif" font-size="14" lengthAdjust="spacing" textLength="275.4678" x="458.792" y="572.6973">Problem: Linking PHP object with coroutines</text><rect fill="#F1F1F1" height="38.6211" rx="12.5" ry="12.5" style="stroke:#181818;stroke-width:1.5;" width="118.0684" x="794.2598" y="547.5898"/><text fill="#000000" font-family="sans-serif" font-size="14" lengthAdjust="spacing" textLength="98.0684" x="804.2598" y="572.6973">Solution: Scope</text><path d="M744.2598,566.9004 L754.2598,566.9004 C769.2598,566.9004 769.2598,566.9004 784.2598,566.9004 L794.2598,566.9004 " fill="none" style="stroke:#181818;stroke-width:1.0;"/><path d="M398.792,537.5898 L408.792,537.5898 C423.792,537.5898 423.792,566.9004 438.792,566.9004 L448.792,566.9004 " fill="none" style="stroke:#181818;stroke-width:1.0;"/><path d="M166.1377,478.9688 L176.1377,478.9688 C191.1377,478.9688 191.1377,537.5898 206.1377,537.5898 L216.1377,537.5898 " fill="none" style="stroke:#181818;stroke-width:1.0;"/><rect fill="#F1F1F1" height="38.6211" rx="12.5" ry="12.5" style="stroke:#181818;stroke-width:1.5;" width="131.2754" x="216.1377" y="635.5215"/><text fill="#000000" font-family="sans-serif" font-size="14" lengthAdjust="spacing" textLength="111.2754" x="226.1377" y="660.6289">Task Cancellation</text><rect fill="#F1F1F1" height="38.6211" rx="12.5" ry="12.5" style="stroke:#181818;stroke-width:1.5;" width="247.2402" x="397.4131" y="606.2109"/><text fill="#000000" font-family="sans-serif" font-size="14" lengthAdjust="spacing" textLength="227.2402" x="407.4131" y="631.3184">Problem: Cancel a running coroutine</text><rect fill="#F1F1F1" height="38.6211" rx="12.5" ry="12.5" style="stroke:#181818;stroke-width:1.5;" width="128.165" x="694.6533" y="606.2109"/><text fill="#000000" font-family="sans-serif" font-size="14" lengthAdjust="spacing" textLength="108.165" x="704.6533" y="631.3184">Solution: cancel()</text><path d="M644.6533,625.5215 L654.6533,625.5215 C669.6533,625.5215 669.6533,625.5215 684.6533,625.5215 L694.6533,625.5215 " fill="none" style="stroke:#181818;stroke-width:1.0;"/><path d="M347.4131,654.832 L357.4131,654.832 C372.4131,654.832 372.4131,625.5215 387.4131,625.5215 L397.4131,625.5215 " fill="none" style="stroke:#181818;stroke-width:1.0;"/><rect fill="#F1F1F1" height="38.6211" rx="12.5" ry="12.5" style="stroke:#181818;stroke-width:1.5;" width="266.668" x="397.4131" y="664.832"/><text fill="#000000" font-family="sans-serif" font-size="14" lengthAdjust="spacing" textLength="246.668" x="407.4131" y="689.9395">Problem: Cancel all child tasks in scope</text><rect fill="#F1F1F1" height="38.6211" rx="12.5" ry="12.5" style="stroke:#181818;stroke-width:1.5;" width="135.9512" x="714.0811" y="664.832"/><text fill="#000000" font-family="sans-serif" font-size="14" lengthAdjust="spacing" textLength="115.9512" x="724.0811" y="689.9395">Solution: dispose()</text><path d="M664.0811,684.1426 L674.0811,684.1426 C689.0811,684.1426 689.0811,684.1426 704.0811,684.1426 L714.0811,684.1426 " fill="none" style="stroke:#181818;stroke-width:1.0;"/><path d="M347.4131,654.832 L357.4131,654.832 C372.4131,654.832 372.4131,684.1426 387.4131,684.1426 L397.4131,684.1426 " fill="none" style="stroke:#181818;stroke-width:1.0;"/><path d="M166.1377,478.9688 L176.1377,478.9688 C191.1377,478.9688 191.1377,654.832 206.1377,654.832 L216.1377,654.832 " fill="none" style="stroke:#181818;stroke-width:1.0;"/><rect fill="#F1F1F1" height="38.6211" rx="12.5" ry="12.5" style="stroke:#181818;stroke-width:1.5;" width="153.8545" x="216.1377" y="752.7637"/><text fill="#000000" font-family="sans-serif" font-size="14" lengthAdjust="spacing" textLength="133.8545" x="226.1377" y="777.8711">Context Management</text><rect fill="#F1F1F1" height="38.6211" rx="12.5" ry="12.5" style="stroke:#181818;stroke-width:1.5;" width="340.626" x="419.9922" y="723.4531"/><text fill="#000000" font-family="sans-serif" font-size="14" lengthAdjust="spacing" textLength="320.626" x="429.9922" y="748.5605">Problem: Passing data across coroutine boundaries</text><rect fill="#F1F1F1" height="38.6211" rx="12.5" ry="12.5" style="stroke:#181818;stroke-width:1.5;" width="126.6201" x="810.6182" y="723.4531"/><text fill="#000000" font-family="sans-serif" font-size="14" lengthAdjust="spacing" textLength="106.6201" x="820.6182" y="748.5605">Solution: Context</text><path d="M760.6182,742.7637 L770.6182,742.7637 C785.6182,742.7637 785.6182,742.7637 800.6182,742.7637 L810.6182,742.7637 " fill="none" style="stroke:#181818;stroke-width:1.0;"/><path d="M369.9922,772.0742 L379.9922,772.0742 C394.9922,772.0742 394.9922,742.7637 409.9922,742.7637 L419.9922,742.7637 " fill="none" style="stroke:#181818;stroke-width:1.0;"/><rect fill="#F1F1F1" height="38.6211" rx="12.5" ry="12.5" style="stroke:#181818;stroke-width:1.5;" width="279.9023" x="419.9922" y="782.0742"/><text fill="#000000" font-family="sans-serif" font-size="14" lengthAdjust="spacing" textLength="259.9023" x="429.9922" y="807.1816">Problem: Inheriting context across scopes</text><rect fill="#F1F1F1" height="38.6211" rx="12.5" ry="12.5" style="stroke:#181818;stroke-width:1.5;" width="199.7783" x="749.8945" y="782.0742"/><text fill="#000000" font-family="sans-serif" font-size="14" lengthAdjust="spacing" textLength="179.7783" x="759.8945" y="807.1816">Solution: Context Inheritance</text><path d="M699.8945,801.3848 L709.8945,801.3848 C724.8945,801.3848 724.8945,801.3848 739.8945,801.3848 L749.8945,801.3848 " fill="none" style="stroke:#181818;stroke-width:1.0;"/><path d="M369.9922,772.0742 L379.9922,772.0742 C394.9922,772.0742 394.9922,801.3848 409.9922,801.3848 L419.9922,801.3848 " fill="none" style="stroke:#181818;stroke-width:1.0;"/><path d="M166.1377,478.9688 L176.1377,478.9688 C191.1377,478.9688 191.1377,772.0742 206.1377,772.0742 L216.1377,772.0742 " fill="none" style="stroke:#181818;stroke-width:1.0;"/><rect fill="#F1F1F1" height="38.6211" rx="12.5" ry="12.5" style="stroke:#181818;stroke-width:1.5;" width="200.5303" x="216.1377" y="870.0059"/><text fill="#000000" font-family="sans-serif" font-size="14" lengthAdjust="spacing" textLength="180.5303" x="226.1377" y="895.1133">Managing Implicit Coroutines</text><rect fill="#F1F1F1" height="38.6211" rx="12.5" ry="12.5" style="stroke:#181818;stroke-width:1.5;" width="256.5508" x="466.668" y="840.6953"/><text fill="#000000" font-family="sans-serif" font-size="14" lengthAdjust="spacing" textLength="236.5508" x="476.668" y="865.8027">Problem: Managing implicit coroutines</text><rect fill="#F1F1F1" height="38.6211" rx="12.5" ry="12.5" style="stroke:#181818;stroke-width:1.5;" width="241.7578" x="773.2188" y="840.6953"/><text fill="#000000" font-family="sans-serif" font-size="14" lengthAdjust="spacing" textLength="221.7578" x="783.2188" y="865.8027">Solution: Explicit/Implicit Coroutines</text><path d="M723.2188,860.0059 L733.2188,860.0059 C748.2188,860.0059 748.2188,860.0059 763.2188,860.0059 L773.2188,860.0059 " fill="none" style="stroke:#181818;stroke-width:1.0;"/><path d="M416.668,889.3164 L426.668,889.3164 C441.668,889.3164 441.668,860.0059 456.668,860.0059 L466.668,860.0059 " fill="none" style="stroke:#181818;stroke-width:1.0;"/><rect fill="#F1F1F1" height="38.6211" rx="12.5" ry="12.5" style="stroke:#181818;stroke-width:1.5;" width="241.7715" x="466.668" y="899.3164"/><text fill="#000000" font-family="sans-serif" font-size="14" lengthAdjust="spacing" textLength="221.7715" x="476.668" y="924.4238">Problem: Preventing resource leaks</text><rect fill="#F1F1F1" height="38.6211" rx="12.5" ry="12.5" style="stroke:#181818;stroke-width:1.5;" width="230.8818" x="758.4395" y="899.3164"/><text fill="#000000" font-family="sans-serif" font-size="14" lengthAdjust="spacing" textLength="210.8818" x="768.4395" y="924.4238">Solution: Zombie Coroutine Policy</text><path d="M708.4395,918.627 L718.4395,918.627 C733.4395,918.627 733.4395,918.627 748.4395,918.627 L758.4395,918.627 " fill="none" style="stroke:#181818;stroke-width:1.0;"/><path d="M416.668,889.3164 L426.668,889.3164 C441.668,889.3164 441.668,918.627 456.668,918.627 L466.668,918.627 " fill="none" style="stroke:#181818;stroke-width:1.0;"/><path d="M166.1377,478.9688 L176.1377,478.9688 C191.1377,478.9688 191.1377,889.3164 206.1377,889.3164 L216.1377,889.3164 " fill="none" style="stroke:#181818;stroke-width:1.0;"/><!--SRC=[ZPHFKzim4CNl_XHxXCn02SCKnYVQ40gKJ3r9e3EzRUGbKP4bZoG7yksxQ-SF3Wdbvf7U_jwkzApB4D77Gjkym399Ef3TP33s5S6tiB0AXjUzfDE1dYUCsawXvxoh-8i2BtSWbFXYHJ2AlbAnyfIpnAhAUx9gKMioxoQ6YXH-S6afa8ZXES2BZZC8cphLhcEcCspbR0fOzp8nJZsBsM_KTJDFpiEGGcLYqms-y4RRywsqOA4k3JN-xpoa6D2OWyFz2Du6DTCctyqOALTIch9gBDiVaNBjISLFm1hXXWStQ7CZcFwhebAqeMsp5j1Q0De6dHEVyVBwjisYNnmfZ6hMNCkEaznDXQbSAdqqmgRFXa5Uff21DedWzKRyYSJCKD9Yz1D5NT1EopRbNjjdWKYqtUIl77jDKgqixu8qNVRGAZ86PQzDRdO0mLVMYiNUyrMrSZiGg_fsgkHOmsgCjv1SXz85QcB0lrcarmW3j3YbWkpMVMKOWhIKOqH0vLq8c_PWuYgRezVlPrzosx1REoFVX5SjVPV8kj5za5MTZ2azrxqAvBOeZLRylssz9sl3jLAlbFjlg__QIBxybvfvclD12TTJS9LN18RmVN3_k6AYQSE1p35vaIINn2_bwhNC3DhuCBY7EVaW-UuUdvwSdXsV7ummmeXAE3c7xbdQlKYxvz3lZyOW-uV9mU1s34j_ljJezQGsFapkS8umhAn4EuLV9Tcxgv-h1UZRkVRErfTzzpZO2BwU7NtNOkcv5NWS95VqXFpSSOLoES-RmiFu-kWYkKSxhJWlAKSswN48-CTFOVZm3m00]--></g></svg>