<svg xmlns="http://www.w3.org/2000/svg" xmlns:xlink="http://www.w3.org/1999/xlink" contentStyleType="text/css" height="1945px" preserveAspectRatio="none" style="width:752px;height:1945px;background:#FFFFFF;" version="1.1" viewBox="0 0 752 1945" width="752px" zoomAndPan="magnify"><defs/><g><rect fill="#ADD8E6" height="38.6211" rx="12.5" ry="12.5" style="stroke:#181818;stroke-width:1.5;" width="144.5098" x="10" y="49.3105"/><text fill="#000000" font-family="sans-serif" font-size="14" lengthAdjust="spacing" textLength="124.5098" x="20" y="74.418">Creating Coroutines</text><rect fill="#90EE90" height="38.6211" rx="12.5" ry="12.5" style="stroke:#181818;stroke-width:1.5;" width="60.4688" x="204.5098" y="20"/><text fill="#000000" font-family="sans-serif" font-size="14" lengthAdjust="spacing" textLength="40.4688" x="214.5098" y="45.1074">spawn</text><path d="M154.5098,68.6211 L164.5098,68.6211 C179.5098,68.6211 179.5098,39.3105 194.5098,39.3105 L204.5098,39.3105 " fill="none" style="stroke:#181818;stroke-width:1.0;"/><rect fill="#FFD700" height="38.6211" rx="12.5" ry="12.5" style="stroke:#181818;stroke-width:1.5;" width="247.2197" x="204.5098" y="78.6211"/><text fill="#000000" font-family="sans-serif" font-size="14" lengthAdjust="spacing" textLength="227.2197" x="214.5098" y="103.7285">Custom spawn behavior: spawn with</text><rect fill="#90EE90" height="38.6211" rx="12.5" ry="12.5" style="stroke:#181818;stroke-width:1.5;" width="172.5303" x="501.7295" y="78.6211"/><text fill="#000000" font-family="sans-serif" font-size="14" lengthAdjust="spacing" textLength="152.5303" x="511.7295" y="103.7285">SpawnStrategy interface</text><path d="M451.7295,97.9316 L461.7295,97.9316 C476.7295,97.9316 476.7295,97.9316 491.7295,97.9316 L501.7295,97.9316 " fill="none" style="stroke:#181818;stroke-width:1.0;"/><path d="M154.5098,68.6211 L164.5098,68.6211 C179.5098,68.6211 179.5098,97.9316 194.5098,97.9316 L204.5098,97.9316 " fill="none" style="stroke:#181818;stroke-width:1.0;"/><rect fill="#ADD8E6" height="38.6211" rx="12.5" ry="12.5" style="stroke:#181818;stroke-width:1.5;" width="162.4131" x="10" y="137.2422"/><text fill="#000000" font-family="sans-serif" font-size="14" lengthAdjust="spacing" textLength="142.4131" x="20" y="162.3496">Switching to Scheduler</text><rect fill="#90EE90" height="38.6211" rx="12.5" ry="12.5" style="stroke:#181818;stroke-width:1.5;" width="72.9307" x="222.4131" y="137.2422"/><text fill="#000000" font-family="sans-serif" font-size="14" lengthAdjust="spacing" textLength="52.9307" x="232.4131" y="162.3496">suspend</text><path d="M172.4131,156.5527 L182.4131,156.5527 C197.4131,156.5527 197.4131,156.5527 212.4131,156.5527 L222.4131,156.5527 " fill="none" style="stroke:#181818;stroke-width:1.0;"/><rect fill="#ADD8E6" height="38.6211" rx="12.5" ry="12.5" style="stroke:#181818;stroke-width:1.5;" width="167.8408" x="10" y="254.4844"/><text fill="#000000" font-family="sans-serif" font-size="14" lengthAdjust="spacing" textLength="147.8408" x="20" y="279.5918">Structured Concurrency</text><rect fill="#FFD700" height="38.6211" rx="12.5" ry="12.5" style="stroke:#181818;stroke-width:1.5;" width="114.1582" x="227.8408" y="195.8633"/><text fill="#000000" font-family="sans-serif" font-size="14" lengthAdjust="spacing" textLength="94.1582" x="237.8408" y="220.9707">Grouping tasks</text><rect fill="#90EE90" height="38.6211" rx="12.5" ry="12.5" style="stroke:#181818;stroke-width:1.5;" width="249.9199" x="391.999" y="195.8633"/><text fill="#000000" font-family="sans-serif" font-size="14" lengthAdjust="spacing" textLength="229.9199" x="401.999" y="220.9707">new TaskGroup() + await TaskGroup</text><path d="M341.999,215.1738 L351.999,215.1738 C366.999,215.1738 366.999,215.1738 381.999,215.1738 L391.999,215.1738 " fill="none" style="stroke:#181818;stroke-width:1.0;"/><path d="M177.8408,273.7949 L187.8408,273.7949 C202.8408,273.7949 202.8408,215.1738 217.8408,215.1738 L227.8408,215.1738 " fill="none" style="stroke:#181818;stroke-width:1.0;"/><rect fill="#FFD700" height="38.6211" rx="12.5" ry="12.5" style="stroke:#181818;stroke-width:1.5;" width="230.8682" x="227.8408" y="254.4844"/><text fill="#000000" font-family="sans-serif" font-size="14" lengthAdjust="spacing" textLength="210.8682" x="237.8408" y="279.5918">The parent waits for all child tasks</text><rect fill="#90EE90" height="38.6211" rx="12.5" ry="12.5" style="stroke:#181818;stroke-width:1.5;" width="181.4922" x="508.709" y="254.4844"/><text fill="#000000" font-family="sans-serif" font-size="14" lengthAdjust="spacing" textLength="161.4922" x="518.709" y="279.5918">new Scope + await Scope</text><path d="M458.709,273.7949 L468.709,273.7949 C483.709,273.7949 483.709,273.7949 498.709,273.7949 L508.709,273.7949 " fill="none" style="stroke:#181818;stroke-width:1.0;"/><path d="M177.8408,273.7949 L187.8408,273.7949 C202.8408,273.7949 202.8408,273.7949 217.8408,273.7949 L227.8408,273.7949 " fill="none" style="stroke:#181818;stroke-width:1.0;"/><rect fill="#FFD700" height="38.6211" rx="12.5" ry="12.5" style="stroke:#181818;stroke-width:1.5;" width="90.8066" x="227.8408" y="313.1055"/><text fill="#000000" font-family="sans-serif" font-size="14" lengthAdjust="spacing" textLength="70.8066" x="237.8408" y="338.2129">A hierarchy</text><rect fill="#90EE90" height="38.6211" rx="12.5" ry="12.5" style="stroke:#181818;stroke-width:1.5;" width="114.9307" x="368.6475" y="313.1055"/><text fill="#000000" font-family="sans-serif" font-size="14" lengthAdjust="spacing" textLength="94.9307" x="378.6475" y="338.2129">Scope::inherit()</text><path d="M318.6475,332.416 L328.6475,332.416 C343.6475,332.416 343.6475,332.416 358.6475,332.416 L368.6475,332.416 " fill="none" style="stroke:#181818;stroke-width:1.0;"/><path d="M177.8408,273.7949 L187.8408,273.7949 C202.8408,273.7949 202.8408,332.416 217.8408,332.416 L227.8408,332.416 " fill="none" style="stroke:#181818;stroke-width:1.0;"/><rect fill="#ADD8E6" height="38.6211" rx="12.5" ry="12.5" style="stroke:#181818;stroke-width:1.5;" width="137.4824" x="10" y="507.5898"/><text fill="#000000" font-family="sans-serif" font-size="14" lengthAdjust="spacing" textLength="117.4824" x="20" y="532.6973">Waiting for Results</text><rect fill="#90EE90" height="38.6211" rx="12.5" ry="12.5" style="stroke:#181818;stroke-width:1.5;" width="175.6406" x="197.4824" y="371.7266"/><text fill="#000000" font-family="sans-serif" font-size="14" lengthAdjust="spacing" textLength="155.6406" x="207.4824" y="396.834">await &lt;Async\Awaitable&gt;</text><path d="M147.4824,526.9004 L157.4824,526.9004 C172.4824,526.9004 172.4824,391.0371 187.4824,391.0371 L197.4824,391.0371 " fill="none" style="stroke:#181818;stroke-width:1.0;"/><rect fill="#FFD700" height="38.6211" rx="12.5" ry="12.5" style="stroke:#181818;stroke-width:1.5;" width="175.6064" x="197.4824" y="430.3477"/><text fill="#000000" font-family="sans-serif" font-size="14" lengthAdjust="spacing" textLength="155.6064" x="207.4824" y="455.4551">Waiting for multiple tasks</text><rect fill="#90EE90" height="38.6211" rx="12.5" ry="12.5" style="stroke:#181818;stroke-width:1.5;" width="125.8203" x="423.0889" y="430.3477"/><text fill="#000000" font-family="sans-serif" font-size="14" lengthAdjust="spacing" textLength="105.8203" x="433.0889" y="455.4551">await TaskGroup</text><path d="M373.0889,449.6582 L383.0889,449.6582 C398.0889,449.6582 398.0889,449.6582 413.0889,449.6582 L423.0889,449.6582 " fill="none" style="stroke:#181818;stroke-width:1.0;"/><path d="M147.4824,526.9004 L157.4824,526.9004 C172.4824,526.9004 172.4824,449.6582 187.4824,449.6582 L197.4824,449.6582 " fill="none" style="stroke:#181818;stroke-width:1.0;"/><rect fill="#FFD700" height="38.6211" rx="12.5" ry="12.5" style="stroke:#181818;stroke-width:1.5;" width="174.0547" x="197.4824" y="488.9688"/><text fill="#000000" font-family="sans-serif" font-size="14" lengthAdjust="spacing" textLength="154.0547" x="207.4824" y="514.0762">Waiting for all child tasks</text><rect fill="#90EE90" height="38.6211" rx="12.5" ry="12.5" style="stroke:#181818;stroke-width:1.5;" width="96.2686" x="421.5371" y="488.9688"/><text fill="#000000" font-family="sans-serif" font-size="14" lengthAdjust="spacing" textLength="76.2686" x="431.5371" y="514.0762">await Scope</text><path d="M371.5371,508.2793 L381.5371,508.2793 C396.5371,508.2793 396.5371,508.2793 411.5371,508.2793 L421.5371,508.2793 " fill="none" style="stroke:#181818;stroke-width:1.0;"/><path d="M147.4824,526.9004 L157.4824,526.9004 C172.4824,526.9004 172.4824,508.2793 187.4824,508.2793 L197.4824,508.2793 " fill="none" style="stroke:#181818;stroke-width:1.0;"/><rect fill="#FFD700" height="38.6211" rx="12.5" ry="12.5" style="stroke:#181818;stroke-width:1.5;" width="190.3652" x="197.4824" y="547.5898"/><text fill="#000000" font-family="sans-serif" font-size="14" lengthAdjust="spacing" textLength="170.3652" x="207.4824" y="572.6973">Waiting for first tasks (race)</text><rect fill="#90EE90" height="38.6211" rx="12.5" ry="12.5" style="stroke:#181818;stroke-width:1.5;" width="302.3994" x="437.8477" y="547.5898"/><text fill="#000000" font-family="sans-serif" font-size="14" lengthAdjust="spacing" textLength="282.3994" x="447.8477" y="572.6973">TaskGroup::race() or TaskGroup::firstResult()</text><path d="M387.8477,566.9004 L397.8477,566.9004 C412.8477,566.9004 412.8477,566.9004 427.8477,566.9004 L437.8477,566.9004 " fill="none" style="stroke:#181818;stroke-width:1.0;"/><path d="M147.4824,526.9004 L157.4824,526.9004 C172.4824,526.9004 172.4824,566.9004 187.4824,566.9004 L197.4824,566.9004 " fill="none" style="stroke:#181818;stroke-width:1.0;"/><rect fill="#FFD700" height="38.6211" rx="12.5" ry="12.5" style="stroke:#181818;stroke-width:1.5;" width="173.2959" x="197.4824" y="624.832"/><text fill="#000000" font-family="sans-serif" font-size="14" lengthAdjust="spacing" textLength="153.2959" x="207.4824" y="649.9395">Waiting with cancellation</text><rect fill="#90EE90" height="75.8633" rx="12.5" ry="12.5" style="stroke:#181818;stroke-width:1.5;" width="237.1367" x="420.7783" y="606.2109"/><text fill="#000000" font-family="sans-serif" font-size="14" lengthAdjust="spacing" textLength="74.3203" x="434.668" y="631.3184">await + until</text><text fill="#000000" font-family="sans-serif" font-size="14" lengthAdjust="spacing" textLength="3.8896" x="430.7783" y="649.9395">&#160;</text><text fill="#000000" font-family="sans-serif" font-size="14" lengthAdjust="spacing" textLength="217.1367" x="430.7783" y="668.5605">await $coroutine until $cancellation</text><path d="M370.7783,644.1426 L380.7783,644.1426 C395.7783,644.1426 395.7783,644.1426 410.7783,644.1426 L420.7783,644.1426 " fill="none" style="stroke:#181818;stroke-width:1.0;"/><path d="M147.4824,526.9004 L157.4824,526.9004 C172.4824,526.9004 172.4824,644.1426 187.4824,644.1426 L197.4824,644.1426 " fill="none" style="stroke:#181818;stroke-width:1.0;"/><rect fill="#ADD8E6" height="38.6211" rx="12.5" ry="12.5" style="stroke:#181818;stroke-width:1.5;" width="147.6338" x="10" y="760.6953"/><text fill="#000000" font-family="sans-serif" font-size="14" lengthAdjust="spacing" textLength="127.6338" x="20" y="785.8027">Handling Exceptions</text><rect fill="#FFD700" height="38.6211" rx="12.5" ry="12.5" style="stroke:#181818;stroke-width:1.5;" width="248.0332" x="207.6338" y="702.0742"/><text fill="#000000" font-family="sans-serif" font-size="14" lengthAdjust="spacing" textLength="228.0332" x="217.6338" y="727.1816">Handling exceptions inside coroutine</text><rect fill="#90EE90" height="38.6211" rx="12.5" ry="12.5" style="stroke:#181818;stroke-width:1.5;" width="139.0342" x="505.667" y="702.0742"/><text fill="#000000" font-family="sans-serif" font-size="14" lengthAdjust="spacing" textLength="119.0342" x="515.667" y="727.1816">try-catch with await</text><path d="M455.667,721.3848 L465.667,721.3848 C480.667,721.3848 480.667,721.3848 495.667,721.3848 L505.667,721.3848 " fill="none" style="stroke:#181818;stroke-width:1.0;"/><path d="M157.6338,780.0059 L167.6338,780.0059 C182.6338,780.0059 182.6338,721.3848 197.6338,721.3848 L207.6338,721.3848 " fill="none" style="stroke:#181818;stroke-width:1.0;"/><rect fill="#FFD700" height="38.6211" rx="12.5" ry="12.5" style="stroke:#181818;stroke-width:1.5;" width="252.7021" x="207.6338" y="760.6953"/><text fill="#000000" font-family="sans-serif" font-size="14" lengthAdjust="spacing" textLength="232.7021" x="217.6338" y="785.8027">Handling exceptions in grouped tasks</text><rect fill="#90EE90" height="38.6211" rx="12.5" ry="12.5" style="stroke:#181818;stroke-width:1.5;" width="177.9854" x="510.3359" y="760.6953"/><text fill="#000000" font-family="sans-serif" font-size="14" lengthAdjust="spacing" textLength="157.9854" x="520.3359" y="785.8027">Scope Exception Handler</text><path d="M460.3359,780.0059 L470.3359,780.0059 C485.3359,780.0059 485.3359,780.0059 500.3359,780.0059 L510.3359,780.0059 " fill="none" style="stroke:#181818;stroke-width:1.0;"/><path d="M157.6338,780.0059 L167.6338,780.0059 C182.6338,780.0059 182.6338,780.0059 197.6338,780.0059 L207.6338,780.0059 " fill="none" style="stroke:#181818;stroke-width:1.0;"/><rect fill="#FFD700" height="38.6211" rx="12.5" ry="12.5" style="stroke:#181818;stroke-width:1.5;" width="244.9023" x="207.6338" y="819.3164"/><text fill="#000000" font-family="sans-serif" font-size="14" lengthAdjust="spacing" textLength="224.9023" x="217.6338" y="844.4238">Handling exceptions as a supervisor</text><rect fill="#90EE90" height="38.6211" rx="12.5" ry="12.5" style="stroke:#181818;stroke-width:1.5;" width="213.7783" x="502.5361" y="819.3164"/><text fill="#000000" font-family="sans-serif" font-size="14" lengthAdjust="spacing" textLength="193.7783" x="512.5361" y="844.4238">Child Scope Exception Handler</text><path d="M452.5361,838.627 L462.5361,838.627 C477.5361,838.627 477.5361,838.627 492.5361,838.627 L502.5361,838.627 " fill="none" style="stroke:#181818;stroke-width:1.0;"/><path d="M157.6338,780.0059 L167.6338,780.0059 C182.6338,780.0059 182.6338,838.627 197.6338,838.627 L207.6338,838.627 " fill="none" style="stroke:#181818;stroke-width:1.0;"/><rect fill="#ADD8E6" height="38.6211" rx="12.5" ry="12.5" style="stroke:#181818;stroke-width:1.5;" width="111.8203" x="10" y="1029.6641"/><text fill="#000000" font-family="sans-serif" font-size="14" lengthAdjust="spacing" textLength="91.8203" x="20" y="1054.7715">Task Grouping</text><rect fill="#FFD700" height="38.6211" rx="12.5" ry="12.5" style="stroke:#181818;stroke-width:1.5;" width="152.2891" x="171.8203" y="877.9375"/><text fill="#000000" font-family="sans-serif" font-size="14" lengthAdjust="spacing" textLength="132.2891" x="181.8203" y="903.0449">Explicit task grouping</text><rect fill="#90EE90" height="38.6211" rx="12.5" ry="12.5" style="stroke:#181818;stroke-width:1.5;" width="89.248" x="374.1094" y="877.9375"/><text fill="#000000" font-family="sans-serif" font-size="14" lengthAdjust="spacing" textLength="69.248" x="384.1094" y="903.0449">TaskGroup</text><path d="M324.1094,897.248 L334.1094,897.248 C349.1094,897.248 349.1094,897.248 364.1094,897.248 L374.1094,897.248 " fill="none" style="stroke:#181818;stroke-width:1.0;"/><path d="M121.8203,1048.9746 L131.8203,1048.9746 C146.8203,1048.9746 146.8203,897.248 161.8203,897.248 L171.8203,897.248 " fill="none" style="stroke:#181818;stroke-width:1.0;"/><rect fill="#FFD700" height="38.6211" rx="12.5" ry="12.5" style="stroke:#181818;stroke-width:1.5;" width="272.1367" x="171.8203" y="936.5586"/><text fill="#000000" font-family="sans-serif" font-size="14" lengthAdjust="spacing" textLength="252.1367" x="181.8203" y="961.666">Shared task space for spawn expression</text><rect fill="#90EE90" height="38.6211" rx="12.5" ry="12.5" style="stroke:#181818;stroke-width:1.5;" width="59.6963" x="493.957" y="936.5586"/><text fill="#000000" font-family="sans-serif" font-size="14" lengthAdjust="spacing" textLength="39.6963" x="503.957" y="961.666">Scope</text><path d="M443.957,955.8691 L453.957,955.8691 C468.957,955.8691 468.957,955.8691 483.957,955.8691 L493.957,955.8691 " fill="none" style="stroke:#181818;stroke-width:1.0;"/><path d="M121.8203,1048.9746 L131.8203,1048.9746 C146.8203,1048.9746 146.8203,955.8691 161.8203,955.8691 L171.8203,955.8691 " fill="none" style="stroke:#181818;stroke-width:1.0;"/><rect fill="#FFD700" height="38.6211" rx="12.5" ry="12.5" style="stroke:#181818;stroke-width:1.5;" width="235.5576" x="171.8203" y="1088.2852"/><text fill="#000000" font-family="sans-serif" font-size="14" lengthAdjust="spacing" textLength="215.5576" x="181.8203" y="1113.3926">Linking PHP object with coroutines</text><rect fill="#90EE90" height="224.832" rx="12.5" ry="12.5" style="stroke:#181818;stroke-width:1.5;" width="256.5508" x="457.3779" y="995.1797"/><text fill="#000000" font-family="sans-serif" font-size="14" lengthAdjust="spacing" textLength="156.4199" x="471.2676" y="1020.2871">Scope or/and TaskGroup</text><text fill="#000000" font-family="sans-serif" font-size="14" lengthAdjust="spacing" textLength="3.8896" x="467.3779" y="1038.9082">&#160;</text><text fill="#000000" font-family="sans-serif" font-size="14" lengthAdjust="spacing" textLength="80.9238" x="467.3779" y="1057.5293">class Some {</text><text fill="#000000" font-family="sans-serif" font-size="14" lengthAdjust="spacing" textLength="183.6543" x="498.4951" y="1076.1504">public function __construct() {</text><text fill="#000000" font-family="sans-serif" font-size="14" lengthAdjust="spacing" textLength="174.3164" x="529.6123" y="1094.7715">$this-&gt;scope = new Scope()</text><text fill="#000000" font-family="sans-serif" font-size="14" lengthAdjust="spacing" textLength="4.6758" x="498.4951" y="1113.3926">}</text><text fill="#000000" font-family="sans-serif" font-size="14" lengthAdjust="spacing" textLength="3.8896" x="467.3779" y="1132.0137">&#160;</text><text fill="#000000" font-family="sans-serif" font-size="14" lengthAdjust="spacing" textLength="176.6543" x="498.4951" y="1150.6348">public function __destruct() {</text><text fill="#000000" font-family="sans-serif" font-size="14" lengthAdjust="spacing" textLength="150.1855" x="529.6123" y="1169.2559">$this-&gt;scope-&gt;dispose()</text><text fill="#000000" font-family="sans-serif" font-size="14" lengthAdjust="spacing" textLength="4.6758" x="498.4951" y="1187.877">}</text><text fill="#000000" font-family="sans-serif" font-size="14" lengthAdjust="spacing" textLength="4.6758" x="467.3779" y="1206.498">}</text><path d="M407.3779,1107.5957 L417.3779,1107.5957 C432.3779,1107.5957 432.3779,1107.5957 447.3779,1107.5957 L457.3779,1107.5957 " fill="none" style="stroke:#181818;stroke-width:1.0;"/><path d="M121.8203,1048.9746 L131.8203,1048.9746 C146.8203,1048.9746 146.8203,1107.5957 161.8203,1107.5957 L171.8203,1107.5957 " fill="none" style="stroke:#181818;stroke-width:1.0;"/><rect fill="#ADD8E6" height="38.6211" rx="12.5" ry="12.5" style="stroke:#181818;stroke-width:1.5;" width="131.2754" x="10" y="1386.5645"/><text fill="#000000" font-family="sans-serif" font-size="14" lengthAdjust="spacing" textLength="111.2754" x="20" y="1411.6719">Task Cancellation</text><rect fill="#FFD700" height="38.6211" rx="12.5" ry="12.5" style="stroke:#181818;stroke-width:1.5;" width="187.3301" x="191.2754" y="1240.0117"/><text fill="#000000" font-family="sans-serif" font-size="14" lengthAdjust="spacing" textLength="167.3301" x="201.2754" y="1265.1191">Cancel a running coroutine</text><rect fill="#90EE90" height="38.6211" rx="12.5" ry="12.5" style="stroke:#181818;stroke-width:1.5;" width="138.2754" x="428.6055" y="1240.0117"/><text fill="#000000" font-family="sans-serif" font-size="14" lengthAdjust="spacing" textLength="118.2754" x="438.6055" y="1265.1191">Coroutine::cancel()</text><path d="M378.6055,1259.3223 L388.6055,1259.3223 C403.6055,1259.3223 403.6055,1259.3223 418.6055,1259.3223 L428.6055,1259.3223 " fill="none" style="stroke:#181818;stroke-width:1.0;"/><path d="M141.2754,1405.875 L151.2754,1405.875 C166.2754,1405.875 166.2754,1259.3223 181.2754,1259.3223 L191.2754,1259.3223 " fill="none" style="stroke:#181818;stroke-width:1.0;"/><rect fill="#FFD700" height="38.6211" rx="12.5" ry="12.5" style="stroke:#181818;stroke-width:1.5;" width="206.7578" x="191.2754" y="1298.6328"/><text fill="#000000" font-family="sans-serif" font-size="14" lengthAdjust="spacing" textLength="186.7578" x="201.2754" y="1323.7402">Cancel all child tasks in scope</text><rect fill="#90EE90" height="38.6211" rx="12.5" ry="12.5" style="stroke:#181818;stroke-width:1.5;" width="117.2686" x="448.0332" y="1298.6328"/><text fill="#000000" font-family="sans-serif" font-size="14" lengthAdjust="spacing" textLength="97.2686" x="458.0332" y="1323.7402">Scope::cancel()</text><path d="M398.0332,1317.9434 L408.0332,1317.9434 C423.0332,1317.9434 423.0332,1317.9434 438.0332,1317.9434 L448.0332,1317.9434 " fill="none" style="stroke:#181818;stroke-width:1.0;"/><path d="M141.2754,1405.875 L151.2754,1405.875 C166.2754,1405.875 166.2754,1317.9434 181.2754,1317.9434 L191.2754,1317.9434 " fill="none" style="stroke:#181818;stroke-width:1.0;"/><rect fill="#FFD700" height="38.6211" rx="12.5" ry="12.5" style="stroke:#181818;stroke-width:1.5;" width="188.0684" x="191.2754" y="1357.2539"/><text fill="#000000" font-family="sans-serif" font-size="14" lengthAdjust="spacing" textLength="168.0684" x="201.2754" y="1382.3613">Cancel tasks in TaskGroup</text><rect fill="#90EE90" height="38.6211" rx="12.5" ry="12.5" style="stroke:#181818;stroke-width:1.5;" width="293.0957" x="429.3438" y="1357.2539"/><text fill="#000000" font-family="sans-serif" font-size="14" lengthAdjust="spacing" textLength="273.0957" x="439.3438" y="1382.3613">TaskGroup::cancel() / TaskGroup::dispose()</text><path d="M379.3438,1376.5645 L389.3438,1376.5645 C404.3438,1376.5645 404.3438,1376.5645 419.3438,1376.5645 L429.3438,1376.5645 " fill="none" style="stroke:#181818;stroke-width:1.0;"/><path d="M141.2754,1405.875 L151.2754,1405.875 C166.2754,1405.875 166.2754,1376.5645 181.2754,1376.5645 L191.2754,1376.5645 " fill="none" style="stroke:#181818;stroke-width:1.0;"/><rect fill="#FFD700" height="38.6211" rx="12.5" ry="12.5" style="stroke:#181818;stroke-width:1.5;" width="232.4268" x="191.2754" y="1415.875"/><text fill="#000000" font-family="sans-serif" font-size="14" lengthAdjust="spacing" textLength="212.4268" x="201.2754" y="1440.9824">Cancel all child tasks with warning</text><rect fill="#90EE90" height="38.6211" rx="12.5" ry="12.5" style="stroke:#181818;stroke-width:1.5;" width="125.0547" x="473.7021" y="1415.875"/><text fill="#000000" font-family="sans-serif" font-size="14" lengthAdjust="spacing" textLength="105.0547" x="483.7021" y="1440.9824">Scope::dispose()</text><path d="M423.7021,1435.1855 L433.7021,1435.1855 C448.7021,1435.1855 448.7021,1435.1855 463.7021,1435.1855 L473.7021,1435.1855 " fill="none" style="stroke:#181818;stroke-width:1.0;"/><path d="M141.2754,1405.875 L151.2754,1405.875 C166.2754,1405.875 166.2754,1435.1855 181.2754,1435.1855 L191.2754,1435.1855 " fill="none" style="stroke:#181818;stroke-width:1.0;"/><rect fill="#FFD700" height="38.6211" rx="12.5" ry="12.5" style="stroke:#181818;stroke-width:1.5;" width="290.0127" x="191.2754" y="1474.4961"/><text fill="#000000" font-family="sans-serif" font-size="14" lengthAdjust="spacing" textLength="270.0127" x="201.2754" y="1499.6035">Cancel all child tasks with zombie coroutine</text><rect fill="#90EE90" height="38.6211" rx="12.5" ry="12.5" style="stroke:#181818;stroke-width:1.5;" width="163.9648" x="531.2881" y="1474.4961"/><text fill="#000000" font-family="sans-serif" font-size="14" lengthAdjust="spacing" textLength="143.9648" x="541.2881" y="1499.6035">Scope::disposeSafely()</text><path d="M481.2881,1493.8066 L491.2881,1493.8066 C506.2881,1493.8066 506.2881,1493.8066 521.2881,1493.8066 L531.2881,1493.8066 " fill="none" style="stroke:#181818;stroke-width:1.0;"/><path d="M141.2754,1405.875 L151.2754,1405.875 C166.2754,1405.875 166.2754,1493.8066 181.2754,1493.8066 L191.2754,1493.8066 " fill="none" style="stroke:#181818;stroke-width:1.0;"/><rect fill="#FFD700" height="38.6211" rx="12.5" ry="12.5" style="stroke:#181818;stroke-width:1.5;" width="170.9443" x="191.2754" y="1533.1172"/><text fill="#000000" font-family="sans-serif" font-size="14" lengthAdjust="spacing" textLength="150.9443" x="201.2754" y="1558.2246">Protect critical sections?</text><rect fill="#90EE90" height="38.6211" rx="12.5" ry="12.5" style="stroke:#181818;stroke-width:1.5;" width="293.0957" x="412.2197" y="1533.1172"/><text fill="#000000" font-family="sans-serif" font-size="14" lengthAdjust="spacing" textLength="273.0957" x="422.2197" y="1558.2246">Use Async\protect(\Closure $criticalSection)</text><path d="M362.2197,1552.4277 L372.2197,1552.4277 C387.2197,1552.4277 387.2197,1552.4277 402.2197,1552.4277 L412.2197,1552.4277 " fill="none" style="stroke:#181818;stroke-width:1.0;"/><path d="M141.2754,1405.875 L151.2754,1405.875 C166.2754,1405.875 166.2754,1552.4277 181.2754,1552.4277 L191.2754,1552.4277 " fill="none" style="stroke:#181818;stroke-width:1.0;"/><rect fill="#ADD8E6" height="38.6211" rx="12.5" ry="12.5" style="stroke:#181818;stroke-width:1.5;" width="153.8545" x="10" y="1621.0488"/><text fill="#000000" font-family="sans-serif" font-size="14" lengthAdjust="spacing" textLength="133.8545" x="20" y="1646.1563">Context Management</text><rect fill="#FFD700" height="38.6211" rx="12.5" ry="12.5" style="stroke:#181818;stroke-width:1.5;" width="280.7158" x="213.8545" y="1591.7383"/><text fill="#000000" font-family="sans-serif" font-size="14" lengthAdjust="spacing" textLength="260.7158" x="223.8545" y="1616.8457">Passing data across coroutine boundaries</text><rect fill="#90EE90" height="38.6211" rx="12.5" ry="12.5" style="stroke:#181818;stroke-width:1.5;" width="110.2617" x="544.5703" y="1591.7383"/><text fill="#000000" font-family="sans-serif" font-size="14" lengthAdjust="spacing" textLength="90.2617" x="554.5703" y="1616.8457">Async\Context</text><path d="M494.5703,1611.0488 L504.5703,1611.0488 C519.5703,1611.0488 519.5703,1611.0488 534.5703,1611.0488 L544.5703,1611.0488 " fill="none" style="stroke:#181818;stroke-width:1.0;"/><path d="M163.8545,1640.3594 L173.8545,1640.3594 C188.8545,1640.3594 188.8545,1611.0488 203.8545,1611.0488 L213.8545,1611.0488 " fill="none" style="stroke:#181818;stroke-width:1.0;"/><rect fill="#FFD700" height="38.6211" rx="12.5" ry="12.5" style="stroke:#181818;stroke-width:1.5;" width="219.9922" x="213.8545" y="1650.3594"/><text fill="#000000" font-family="sans-serif" font-size="14" lengthAdjust="spacing" textLength="199.9922" x="223.8545" y="1675.4668">Inheriting context across scopes</text><rect fill="#90EE90" height="38.6211" rx="12.5" ry="12.5" style="stroke:#181818;stroke-width:1.5;" width="132.8545" x="483.8467" y="1650.3594"/><text fill="#000000" font-family="sans-serif" font-size="14" lengthAdjust="spacing" textLength="112.8545" x="493.8467" y="1675.4668">Scope Inheritance</text><path d="M433.8467,1669.6699 L443.8467,1669.6699 C458.8467,1669.6699 458.8467,1669.6699 473.8467,1669.6699 L483.8467,1669.6699 " fill="none" style="stroke:#181818;stroke-width:1.0;"/><path d="M163.8545,1640.3594 L173.8545,1640.3594 C188.8545,1640.3594 188.8545,1669.6699 203.8545,1669.6699 L213.8545,1669.6699 " fill="none" style="stroke:#181818;stroke-width:1.0;"/><rect fill="#ADD8E6" height="38.6211" rx="12.5" ry="12.5" style="stroke:#181818;stroke-width:1.5;" width="150.7305" x="10" y="1767.6016"/><text fill="#000000" font-family="sans-serif" font-size="14" lengthAdjust="spacing" textLength="130.7305" x="20" y="1792.709">Completion Handlers</text><rect fill="#90EE90" height="38.6211" rx="12.5" ry="12.5" style="stroke:#181818;stroke-width:1.5;" width="153.834" x="210.7305" y="1708.9805"/><text fill="#000000" font-family="sans-serif" font-size="14" lengthAdjust="spacing" textLength="133.834" x="220.7305" y="1734.0879">Coroutine::onFinally()</text><path d="M160.7305,1786.9121 L170.7305,1786.9121 C185.7305,1786.9121 185.7305,1728.291 200.7305,1728.291 L210.7305,1728.291 " fill="none" style="stroke:#181818;stroke-width:1.0;"/><rect fill="#90EE90" height="38.6211" rx="12.5" ry="12.5" style="stroke:#181818;stroke-width:1.5;" width="132.8271" x="210.7305" y="1767.6016"/><text fill="#000000" font-family="sans-serif" font-size="14" lengthAdjust="spacing" textLength="112.8271" x="220.7305" y="1792.709">Scope::onFinally()</text><path d="M160.7305,1786.9121 L170.7305,1786.9121 C185.7305,1786.9121 185.7305,1786.9121 200.7305,1786.9121 L210.7305,1786.9121 " fill="none" style="stroke:#181818;stroke-width:1.0;"/><rect fill="#90EE90" height="38.6211" rx="12.5" ry="12.5" style="stroke:#181818;stroke-width:1.5;" width="162.3789" x="210.7305" y="1826.2227"/><text fill="#000000" font-family="sans-serif" font-size="14" lengthAdjust="spacing" textLength="142.3789" x="220.7305" y="1851.3301">TaskGroup::onFinally()</text><path d="M160.7305,1786.9121 L170.7305,1786.9121 C185.7305,1786.9121 185.7305,1845.5332 200.7305,1845.5332 L210.7305,1845.5332 " fill="none" style="stroke:#181818;stroke-width:1.0;"/><rect fill="#ADD8E6" height="38.6211" rx="12.5" ry="12.5" style="stroke:#181818;stroke-width:1.5;" width="114.1445" x="10" y="1884.8438"/><text fill="#000000" font-family="sans-serif" font-size="14" lengthAdjust="spacing" textLength="94.1445" x="20" y="1909.9512">Error Detection</text><rect fill="#90EE90" height="38.6211" rx="12.5" ry="12.5" style="stroke:#181818;stroke-width:1.5;" width="172.5098" x="174.1445" y="1884.8438"/><text fill="#000000" font-family="sans-serif" font-size="14" lengthAdjust="spacing" textLength="152.5098" x="184.1445" y="1909.9512">Zombie Coroutine Policy</text><path d="M124.1445,1904.1543 L134.1445,1904.1543 C149.1445,1904.1543 149.1445,1904.1543 164.1445,1904.1543 L174.1445,1904.1543 " fill="none" style="stroke:#181818;stroke-width:1.0;"/><!--SRC=[bLPjRzis4FuS_Oe3rWzs2xT94Io5kcND76Tj5cD6v7J0rg2WgRF5LIO5ahBZ3VtlEugohJTx7U0F5ddttDjpTtndBDDsAMIyP5dm_C_lKh58x2pDyH666faLSW53fLLE_z04pxSY2uqe7y5aR2sBqvkRwulJqqU0OMwiMleRc672LaBfiFnU2vkGU0CbSdUHrSpYOWD2MjHpnZ5eE1IHDa-SHrP1n1ECynHrswVSP2ZZfhBLERUvnfZYaJpN6YNVr5p_XSBC2dXclfYscnBNCAMhGgxNXnV0rapO_LaDRPeWP8oiM71I1kPA0qjJe13I-9YDYAiCT-Z5Lmtv2XA1cccUR3fowSJ3KCW4jR2zVYCDlnEa2z4vSuycJssxgDxk3rTc8_cdA_V1PYbUrdoeuYm9HMGf7ehfM9QgEF-Pd4C9gOBCXJRM0q1F4ulwRPoTAs7e9AYKf5WvB31yTbm2Eomv7WDdacEQKfCesJ8Ibjw-W5nQaGQ1_tp6jytap-cWWlAsKQttJCQfipTwufWv2LDpPtUFktjg7oDYX9sTTlXMRmQSKIlvC0h7lW4M5YuxUB0wdhOxJprAsP_7a1dzg6apr2jXb6u33mjE78IlPSnLSTV8DTEZfomLN7Xk-5Yyo25orBIZXEaoT3VAE1PayqCDdpADndIne8EiTq9-SHcOl9-0cls5t9PigaxP9fTyy4g_eg0h7WOyPSP0f9O8_mGdMJwZ466UIrwawFDdJWak1Xznd0HEdjb4cC6bAU1-t4yReld9rw0B8SQ308FBM9XCcLBxwzkkMWphJRBFWx-WqkjSIfUG8upTRQ0mzEtIQCijLds0ECwQCl_TK_8Os0wYIeZ3WsGB1Q-gf_i4VOEx1GtMJCjENfOk_t_4lzLo9euEX3fqnEQORXe69bfPHrLEIqLmbeB1WY7cfpRSWq7mooFpMhrFmrGPshqqxKhzoAltcpkUThF59mjZ9ja2bxGzwsuGtHrNOcOPCAuLiNy_KMSgbp7JegE5IeTA-1hc1xygFGMzzHAv8C_1ILVgkSoterZIFgoEgVQMhN1QoHiXgNRRf7VKvfX8XMzLiOPF8wrfObsZzPbleVpXQR9p2oQAHi4c2DxHOshxGWmcAPFsONm7Auh9nNVsylNfw_EN5xs8qMh634uluEmyF7iJdbt0Q1HDmTttWzxumnICoZMDJYAQrMAMUmRSiXM3UxSDbnZ2R_Hskxt-TNi08xaIMic22RSVntk1xyy7FxlN0AqDrF1n75pZdD769WskOgfc20_Jcy6Ru8x9HKva2cdI14EY2Es_4EuV_WK0]--></g></svg>