<svg xmlns="http://www.w3.org/2000/svg" xmlns:xlink="http://www.w3.org/1999/xlink" contentStyleType="text/css" height="1742px" preserveAspectRatio="none" style="width:805px;height:1742px;background:#FFFFFF;" version="1.1" viewBox="0 0 805 1742" width="805px" zoomAndPan="magnify"><defs/><g><rect fill="#ADD8E6" height="38.6211" rx="12.5" ry="12.5" style="stroke:#181818;stroke-width:1.5;" width="144.5098" x="10" y="20"/><text fill="#000000" font-family="sans-serif" font-size="14" lengthAdjust="spacing" textLength="124.5098" x="20" y="45.1074">Creating Coroutines</text><rect fill="#90EE90" height="38.6211" rx="12.5" ry="12.5" style="stroke:#181818;stroke-width:1.5;" width="60.4688" x="204.5098" y="20"/><text fill="#000000" font-family="sans-serif" font-size="14" lengthAdjust="spacing" textLength="40.4688" x="214.5098" y="45.1074">spawn</text><path d="M154.5098,39.3105 L164.5098,39.3105 C179.5098,39.3105 179.5098,39.3105 194.5098,39.3105 L204.5098,39.3105 " fill="none" style="stroke:#181818;stroke-width:1.0;"/><rect fill="#ADD8E6" height="38.6211" rx="12.5" ry="12.5" style="stroke:#181818;stroke-width:1.5;" width="162.4131" x="10" y="78.6211"/><text fill="#000000" font-family="sans-serif" font-size="14" lengthAdjust="spacing" textLength="142.4131" x="20" y="103.7285">Switching to Scheduler</text><rect fill="#90EE90" height="38.6211" rx="12.5" ry="12.5" style="stroke:#181818;stroke-width:1.5;" width="72.9307" x="222.4131" y="78.6211"/><text fill="#000000" font-family="sans-serif" font-size="14" lengthAdjust="spacing" textLength="52.9307" x="232.4131" y="103.7285">suspend</text><path d="M172.4131,97.9316 L182.4131,97.9316 C197.4131,97.9316 197.4131,97.9316 212.4131,97.9316 L222.4131,97.9316 " fill="none" style="stroke:#181818;stroke-width:1.0;"/><rect fill="#ADD8E6" height="38.6211" rx="12.5" ry="12.5" style="stroke:#181818;stroke-width:1.5;" width="167.8408" x="10" y="241.0371"/><text fill="#000000" font-family="sans-serif" font-size="14" lengthAdjust="spacing" textLength="147.8408" x="20" y="266.1445">Structured Concurrency</text><rect fill="#FFD700" height="38.6211" rx="12.5" ry="12.5" style="stroke:#181818;stroke-width:1.5;" width="114.1582" x="227.8408" y="174.4844"/><text fill="#000000" font-family="sans-serif" font-size="14" lengthAdjust="spacing" textLength="94.1582" x="237.8408" y="199.5918">Grouping tasks</text><rect fill="#90EE90" height="113.1055" rx="12.5" ry="12.5" style="stroke:#181818;stroke-width:1.5;" width="248.3818" x="391.999" y="137.2422"/><text fill="#000000" font-family="sans-serif" font-size="14" lengthAdjust="spacing" textLength="224.4922" x="405.8887" y="162.3496">async block + await Scope::allTasks</text><text fill="#000000" font-family="sans-serif" font-size="14" lengthAdjust="spacing" textLength="3.8896" x="401.999" y="180.9707">&#160;</text><text fill="#000000" font-family="sans-serif" font-size="14" lengthAdjust="spacing" textLength="94.1719" x="401.999" y="199.5918">async $scope {</text><text fill="#000000" font-family="sans-serif" font-size="14" lengthAdjust="spacing" textLength="155.2236" x="464.2334" y="218.2129">await $scope-&gt;allTasks()</text><text fill="#000000" font-family="sans-serif" font-size="14" lengthAdjust="spacing" textLength="4.6758" x="401.999" y="236.834">}</text><path d="M341.999,193.7949 L351.999,193.7949 C366.999,193.7949 366.999,193.7949 381.999,193.7949 L391.999,193.7949 " fill="none" style="stroke:#181818;stroke-width:1.0;"/><path d="M177.8408,260.3477 L187.8408,260.3477 C202.8408,260.3477 202.8408,193.7949 217.8408,193.7949 L227.8408,193.7949 " fill="none" style="stroke:#181818;stroke-width:1.0;"/><rect fill="#FFD700" height="38.6211" rx="12.5" ry="12.5" style="stroke:#181818;stroke-width:1.5;" width="146.0615" x="227.8408" y="307.5898"/><text fill="#000000" font-family="sans-serif" font-size="14" lengthAdjust="spacing" textLength="126.0615" x="237.8408" y="332.6973">Creating a hierarchy</text><rect fill="#90EE90" height="113.1055" rx="12.5" ry="12.5" style="stroke:#181818;stroke-width:1.5;" width="237.458" x="423.9023" y="270.3477"/><text fill="#000000" font-family="sans-serif" font-size="14" lengthAdjust="spacing" textLength="115.165" x="437.792" y="295.4551">async inherit block</text><text fill="#000000" font-family="sans-serif" font-size="14" lengthAdjust="spacing" textLength="3.8896" x="433.9023" y="314.0762">&#160;</text><text fill="#000000" font-family="sans-serif" font-size="14" lengthAdjust="spacing" textLength="136.1924" x="433.9023" y="332.6973">async inherit $scope {</text><text fill="#000000" font-family="sans-serif" font-size="14" lengthAdjust="spacing" textLength="155.2236" x="496.1367" y="351.3184">await $scope-&gt;allTasks()</text><text fill="#000000" font-family="sans-serif" font-size="14" lengthAdjust="spacing" textLength="4.6758" x="433.9023" y="369.9395">}</text><path d="M373.9023,326.9004 L383.9023,326.9004 C398.9023,326.9004 398.9023,326.9004 413.9023,326.9004 L423.9023,326.9004 " fill="none" style="stroke:#181818;stroke-width:1.0;"/><path d="M177.8408,260.3477 L187.8408,260.3477 C202.8408,260.3477 202.8408,326.9004 217.8408,326.9004 L227.8408,326.9004 " fill="none" style="stroke:#181818;stroke-width:1.0;"/><rect fill="#ADD8E6" height="38.6211" rx="12.5" ry="12.5" style="stroke:#181818;stroke-width:1.5;" width="137.4824" x="10" y="539.3164"/><text fill="#000000" font-family="sans-serif" font-size="14" lengthAdjust="spacing" textLength="117.4824" x="20" y="564.4238">Waiting for Results</text><rect fill="#90EE90" height="38.6211" rx="12.5" ry="12.5" style="stroke:#181818;stroke-width:1.5;" width="175.6406" x="197.4824" y="403.4531"/><text fill="#000000" font-family="sans-serif" font-size="14" lengthAdjust="spacing" textLength="155.6406" x="207.4824" y="428.5605">await &lt;Async\Awaitable&gt;</text><path d="M147.4824,558.627 L157.4824,558.627 C172.4824,558.627 172.4824,422.7637 187.4824,422.7637 L197.4824,422.7637 " fill="none" style="stroke:#181818;stroke-width:1.0;"/><rect fill="#FFD700" height="38.6211" rx="12.5" ry="12.5" style="stroke:#181818;stroke-width:1.5;" width="175.6064" x="197.4824" y="462.0742"/><text fill="#000000" font-family="sans-serif" font-size="14" lengthAdjust="spacing" textLength="155.6064" x="207.4824" y="487.1816">Waiting for multiple tasks</text><rect fill="#90EE90" height="38.6211" rx="12.5" ry="12.5" style="stroke:#181818;stroke-width:1.5;" width="121.917" x="423.0889" y="462.0742"/><text fill="#000000" font-family="sans-serif" font-size="14" lengthAdjust="spacing" textLength="101.917" x="433.0889" y="487.1816">await Async\all()</text><path d="M373.0889,481.3848 L383.0889,481.3848 C398.0889,481.3848 398.0889,481.3848 413.0889,481.3848 L423.0889,481.3848 " fill="none" style="stroke:#181818;stroke-width:1.0;"/><path d="M147.4824,558.627 L157.4824,558.627 C172.4824,558.627 172.4824,481.3848 187.4824,481.3848 L197.4824,481.3848 " fill="none" style="stroke:#181818;stroke-width:1.0;"/><rect fill="#FFD700" height="38.6211" rx="12.5" ry="12.5" style="stroke:#181818;stroke-width:1.5;" width="174.0547" x="197.4824" y="520.6953"/><text fill="#000000" font-family="sans-serif" font-size="14" lengthAdjust="spacing" textLength="154.0547" x="207.4824" y="545.8027">Waiting for all child tasks</text><rect fill="#90EE90" height="38.6211" rx="12.5" ry="12.5" style="stroke:#181818;stroke-width:1.5;" width="128.1445" x="421.5371" y="520.6953"/><text fill="#000000" font-family="sans-serif" font-size="14" lengthAdjust="spacing" textLength="108.1445" x="431.5371" y="545.8027">Scope::allTasks()</text><path d="M371.5371,540.0059 L381.5371,540.0059 C396.5371,540.0059 396.5371,540.0059 411.5371,540.0059 L421.5371,540.0059 " fill="none" style="stroke:#181818;stroke-width:1.0;"/><path d="M147.4824,558.627 L157.4824,558.627 C172.4824,558.627 172.4824,540.0059 187.4824,540.0059 L197.4824,540.0059 " fill="none" style="stroke:#181818;stroke-width:1.0;"/><rect fill="#FFD700" height="38.6211" rx="12.5" ry="12.5" style="stroke:#181818;stroke-width:1.5;" width="194.2822" x="197.4824" y="579.3164"/><text fill="#000000" font-family="sans-serif" font-size="14" lengthAdjust="spacing" textLength="174.2822" x="207.4824" y="604.4238">Waiting for direct child tasks</text><rect fill="#90EE90" height="38.6211" rx="12.5" ry="12.5" style="stroke:#181818;stroke-width:1.5;" width="148.3721" x="441.7646" y="579.3164"/><text fill="#000000" font-family="sans-serif" font-size="14" lengthAdjust="spacing" textLength="128.3721" x="451.7646" y="604.4238">Scope::directTasks()</text><path d="M391.7646,598.627 L401.7646,598.627 C416.7646,598.627 416.7646,598.627 431.7646,598.627 L441.7646,598.627 " fill="none" style="stroke:#181818;stroke-width:1.0;"/><path d="M147.4824,558.627 L157.4824,558.627 C172.4824,558.627 172.4824,598.627 187.4824,598.627 L197.4824,598.627 " fill="none" style="stroke:#181818;stroke-width:1.0;"/><rect fill="#FFD700" height="38.6211" rx="12.5" ry="12.5" style="stroke:#181818;stroke-width:1.5;" width="173.2959" x="197.4824" y="656.5586"/><text fill="#000000" font-family="sans-serif" font-size="14" lengthAdjust="spacing" textLength="153.2959" x="207.4824" y="681.666">Waiting with cancellation</text><rect fill="#90EE90" height="75.8633" rx="12.5" ry="12.5" style="stroke:#181818;stroke-width:1.5;" width="237.1367" x="420.7783" y="637.9375"/><text fill="#000000" font-family="sans-serif" font-size="14" lengthAdjust="spacing" textLength="74.3203" x="434.668" y="663.0449">await + until</text><text fill="#000000" font-family="sans-serif" font-size="14" lengthAdjust="spacing" textLength="3.8896" x="430.7783" y="681.666">&#160;</text><text fill="#000000" font-family="sans-serif" font-size="14" lengthAdjust="spacing" textLength="217.1367" x="430.7783" y="700.2871">await $coroutine until $cancellation</text><path d="M370.7783,675.8691 L380.7783,675.8691 C395.7783,675.8691 395.7783,675.8691 410.7783,675.8691 L420.7783,675.8691 " fill="none" style="stroke:#181818;stroke-width:1.0;"/><path d="M147.4824,558.627 L157.4824,558.627 C172.4824,558.627 172.4824,675.8691 187.4824,675.8691 L197.4824,675.8691 " fill="none" style="stroke:#181818;stroke-width:1.0;"/><rect fill="#ADD8E6" height="38.6211" rx="12.5" ry="12.5" style="stroke:#181818;stroke-width:1.5;" width="147.6338" x="10" y="792.4219"/><text fill="#000000" font-family="sans-serif" font-size="14" lengthAdjust="spacing" textLength="127.6338" x="20" y="817.5293">Handling Exceptions</text><rect fill="#FFD700" height="38.6211" rx="12.5" ry="12.5" style="stroke:#181818;stroke-width:1.5;" width="248.0332" x="207.6338" y="733.8008"/><text fill="#000000" font-family="sans-serif" font-size="14" lengthAdjust="spacing" textLength="228.0332" x="217.6338" y="758.9082">Handling exceptions inside coroutine</text><rect fill="#90EE90" height="38.6211" rx="12.5" ry="12.5" style="stroke:#181818;stroke-width:1.5;" width="139.0342" x="505.667" y="733.8008"/><text fill="#000000" font-family="sans-serif" font-size="14" lengthAdjust="spacing" textLength="119.0342" x="515.667" y="758.9082">try-catch with await</text><path d="M455.667,753.1113 L465.667,753.1113 C480.667,753.1113 480.667,753.1113 495.667,753.1113 L505.667,753.1113 " fill="none" style="stroke:#181818;stroke-width:1.0;"/><path d="M157.6338,811.7324 L167.6338,811.7324 C182.6338,811.7324 182.6338,753.1113 197.6338,753.1113 L207.6338,753.1113 " fill="none" style="stroke:#181818;stroke-width:1.0;"/><rect fill="#FFD700" height="38.6211" rx="12.5" ry="12.5" style="stroke:#181818;stroke-width:1.5;" width="252.7021" x="207.6338" y="792.4219"/><text fill="#000000" font-family="sans-serif" font-size="14" lengthAdjust="spacing" textLength="232.7021" x="217.6338" y="817.5293">Handling exceptions in grouped tasks</text><rect fill="#90EE90" height="38.6211" rx="12.5" ry="12.5" style="stroke:#181818;stroke-width:1.5;" width="177.9854" x="510.3359" y="792.4219"/><text fill="#000000" font-family="sans-serif" font-size="14" lengthAdjust="spacing" textLength="157.9854" x="520.3359" y="817.5293">Scope Exception Handler</text><path d="M460.3359,811.7324 L470.3359,811.7324 C485.3359,811.7324 485.3359,811.7324 500.3359,811.7324 L510.3359,811.7324 " fill="none" style="stroke:#181818;stroke-width:1.0;"/><path d="M157.6338,811.7324 L167.6338,811.7324 C182.6338,811.7324 182.6338,811.7324 197.6338,811.7324 L207.6338,811.7324 " fill="none" style="stroke:#181818;stroke-width:1.0;"/><rect fill="#FFD700" height="38.6211" rx="12.5" ry="12.5" style="stroke:#181818;stroke-width:1.5;" width="244.9023" x="207.6338" y="851.043"/><text fill="#000000" font-family="sans-serif" font-size="14" lengthAdjust="spacing" textLength="224.9023" x="217.6338" y="876.1504">Handling exceptions as a supervisor</text><rect fill="#90EE90" height="38.6211" rx="12.5" ry="12.5" style="stroke:#181818;stroke-width:1.5;" width="213.7783" x="502.5361" y="851.043"/><text fill="#000000" font-family="sans-serif" font-size="14" lengthAdjust="spacing" textLength="193.7783" x="512.5361" y="876.1504">Child Scope Exception Handler</text><path d="M452.5361,870.3535 L462.5361,870.3535 C477.5361,870.3535 477.5361,870.3535 492.5361,870.3535 L502.5361,870.3535 " fill="none" style="stroke:#181818;stroke-width:1.0;"/><path d="M157.6338,811.7324 L167.6338,811.7324 C182.6338,811.7324 182.6338,870.3535 197.6338,870.3535 L207.6338,870.3535 " fill="none" style="stroke:#181818;stroke-width:1.0;"/><rect fill="#ADD8E6" height="38.6211" rx="12.5" ry="12.5" style="stroke:#181818;stroke-width:1.5;" width="111.8203" x="10" y="1032.0801"/><text fill="#000000" font-family="sans-serif" font-size="14" lengthAdjust="spacing" textLength="91.8203" x="20" y="1057.1875">Task Grouping</text><rect fill="#FFD700" height="38.6211" rx="12.5" ry="12.5" style="stroke:#181818;stroke-width:1.5;" width="237.875" x="171.8203" y="909.6641"/><text fill="#000000" font-family="sans-serif" font-size="14" lengthAdjust="spacing" textLength="217.875" x="181.8203" y="934.7715">Grouping tasks with shared lifetime</text><rect fill="#90EE90" height="38.6211" rx="12.5" ry="12.5" style="stroke:#181818;stroke-width:1.5;" width="59.6963" x="459.6953" y="909.6641"/><text fill="#000000" font-family="sans-serif" font-size="14" lengthAdjust="spacing" textLength="39.6963" x="469.6953" y="934.7715">Scope</text><path d="M409.6953,928.9746 L419.6953,928.9746 C434.6953,928.9746 434.6953,928.9746 449.6953,928.9746 L459.6953,928.9746 " fill="none" style="stroke:#181818;stroke-width:1.0;"/><path d="M121.8203,1051.3906 L131.8203,1051.3906 C146.8203,1051.3906 146.8203,928.9746 161.8203,928.9746 L171.8203,928.9746 " fill="none" style="stroke:#181818;stroke-width:1.0;"/><rect fill="#FFD700" height="38.6211" rx="12.5" ry="12.5" style="stroke:#181818;stroke-width:1.5;" width="235.5576" x="171.8203" y="1061.3906"/><text fill="#000000" font-family="sans-serif" font-size="14" lengthAdjust="spacing" textLength="215.5576" x="181.8203" y="1086.498">Linking PHP object with coroutines</text><rect fill="#90EE90" height="224.832" rx="12.5" ry="12.5" style="stroke:#181818;stroke-width:1.5;" width="256.5508" x="457.3779" y="968.2852"/><text fill="#000000" font-family="sans-serif" font-size="14" lengthAdjust="spacing" textLength="39.6963" x="471.2676" y="993.3926">Scope</text><text fill="#000000" font-family="sans-serif" font-size="14" lengthAdjust="spacing" textLength="3.8896" x="467.3779" y="1012.0137">&#160;</text><text fill="#000000" font-family="sans-serif" font-size="14" lengthAdjust="spacing" textLength="80.9238" x="467.3779" y="1030.6348">class Some {</text><text fill="#000000" font-family="sans-serif" font-size="14" lengthAdjust="spacing" textLength="183.6543" x="498.4951" y="1049.2559">public function __construct() {</text><text fill="#000000" font-family="sans-serif" font-size="14" lengthAdjust="spacing" textLength="174.3164" x="529.6123" y="1067.877">$this-&gt;scope = new Scope()</text><text fill="#000000" font-family="sans-serif" font-size="14" lengthAdjust="spacing" textLength="4.6758" x="498.4951" y="1086.498">}</text><text fill="#000000" font-family="sans-serif" font-size="14" lengthAdjust="spacing" textLength="3.8896" x="467.3779" y="1105.1191">&#160;</text><text fill="#000000" font-family="sans-serif" font-size="14" lengthAdjust="spacing" textLength="176.6543" x="498.4951" y="1123.7402">public function __destruct() {</text><text fill="#000000" font-family="sans-serif" font-size="14" lengthAdjust="spacing" textLength="150.1855" x="529.6123" y="1142.3613">$this-&gt;scope-&gt;dispose()</text><text fill="#000000" font-family="sans-serif" font-size="14" lengthAdjust="spacing" textLength="4.6758" x="498.4951" y="1160.9824">}</text><text fill="#000000" font-family="sans-serif" font-size="14" lengthAdjust="spacing" textLength="4.6758" x="467.3779" y="1179.6035">}</text><path d="M407.3779,1080.7012 L417.3779,1080.7012 C432.3779,1080.7012 432.3779,1080.7012 447.3779,1080.7012 L457.3779,1080.7012 " fill="none" style="stroke:#181818;stroke-width:1.0;"/><path d="M121.8203,1051.3906 L131.8203,1051.3906 C146.8203,1051.3906 146.8203,1080.7012 161.8203,1080.7012 L171.8203,1080.7012 " fill="none" style="stroke:#181818;stroke-width:1.0;"/><rect fill="#ADD8E6" height="38.6211" rx="12.5" ry="12.5" style="stroke:#181818;stroke-width:1.5;" width="131.2754" x="10" y="1301.0488"/><text fill="#000000" font-family="sans-serif" font-size="14" lengthAdjust="spacing" textLength="111.2754" x="20" y="1326.1563">Task Cancellation</text><rect fill="#FFD700" height="38.6211" rx="12.5" ry="12.5" style="stroke:#181818;stroke-width:1.5;" width="187.3301" x="191.2754" y="1213.1172"/><text fill="#000000" font-family="sans-serif" font-size="14" lengthAdjust="spacing" textLength="167.3301" x="201.2754" y="1238.2246">Cancel a running coroutine</text><rect fill="#90EE90" height="38.6211" rx="12.5" ry="12.5" style="stroke:#181818;stroke-width:1.5;" width="138.2754" x="428.6055" y="1213.1172"/><text fill="#000000" font-family="sans-serif" font-size="14" lengthAdjust="spacing" textLength="118.2754" x="438.6055" y="1238.2246">Coroutine::cancel()</text><path d="M378.6055,1232.4277 L388.6055,1232.4277 C403.6055,1232.4277 403.6055,1232.4277 418.6055,1232.4277 L428.6055,1232.4277 " fill="none" style="stroke:#181818;stroke-width:1.0;"/><path d="M141.2754,1320.3594 L151.2754,1320.3594 C166.2754,1320.3594 166.2754,1232.4277 181.2754,1232.4277 L191.2754,1232.4277 " fill="none" style="stroke:#181818;stroke-width:1.0;"/><rect fill="#FFD700" height="38.6211" rx="12.5" ry="12.5" style="stroke:#181818;stroke-width:1.5;" width="206.7578" x="191.2754" y="1271.7383"/><text fill="#000000" font-family="sans-serif" font-size="14" lengthAdjust="spacing" textLength="186.7578" x="201.2754" y="1296.8457">Cancel all child tasks in scope</text><rect fill="#90EE90" height="38.6211" rx="12.5" ry="12.5" style="stroke:#181818;stroke-width:1.5;" width="117.2686" x="448.0332" y="1271.7383"/><text fill="#000000" font-family="sans-serif" font-size="14" lengthAdjust="spacing" textLength="97.2686" x="458.0332" y="1296.8457">Scope::cancel()</text><path d="M398.0332,1291.0488 L408.0332,1291.0488 C423.0332,1291.0488 423.0332,1291.0488 438.0332,1291.0488 L448.0332,1291.0488 " fill="none" style="stroke:#181818;stroke-width:1.0;"/><path d="M141.2754,1320.3594 L151.2754,1320.3594 C166.2754,1320.3594 166.2754,1291.0488 181.2754,1291.0488 L191.2754,1291.0488 " fill="none" style="stroke:#181818;stroke-width:1.0;"/><rect fill="#FFD700" height="38.6211" rx="12.5" ry="12.5" style="stroke:#181818;stroke-width:1.5;" width="232.4268" x="191.2754" y="1330.3594"/><text fill="#000000" font-family="sans-serif" font-size="14" lengthAdjust="spacing" textLength="212.4268" x="201.2754" y="1355.4668">Cancel all child tasks with warning</text><rect fill="#90EE90" height="38.6211" rx="12.5" ry="12.5" style="stroke:#181818;stroke-width:1.5;" width="125.0547" x="473.7021" y="1330.3594"/><text fill="#000000" font-family="sans-serif" font-size="14" lengthAdjust="spacing" textLength="105.0547" x="483.7021" y="1355.4668">Scope::dispose()</text><path d="M423.7021,1349.6699 L433.7021,1349.6699 C448.7021,1349.6699 448.7021,1349.6699 463.7021,1349.6699 L473.7021,1349.6699 " fill="none" style="stroke:#181818;stroke-width:1.0;"/><path d="M141.2754,1320.3594 L151.2754,1320.3594 C166.2754,1320.3594 166.2754,1349.6699 181.2754,1349.6699 L191.2754,1349.6699 " fill="none" style="stroke:#181818;stroke-width:1.0;"/><rect fill="#FFD700" height="38.6211" rx="12.5" ry="12.5" style="stroke:#181818;stroke-width:1.5;" width="290.0127" x="191.2754" y="1388.9805"/><text fill="#000000" font-family="sans-serif" font-size="14" lengthAdjust="spacing" textLength="270.0127" x="201.2754" y="1414.0879">Cancel all child tasks with zombie coroutine</text><rect fill="#90EE90" height="38.6211" rx="12.5" ry="12.5" style="stroke:#181818;stroke-width:1.5;" width="163.9648" x="531.2881" y="1388.9805"/><text fill="#000000" font-family="sans-serif" font-size="14" lengthAdjust="spacing" textLength="143.9648" x="541.2881" y="1414.0879">Scope::disposeSafely()</text><path d="M481.2881,1408.291 L491.2881,1408.291 C506.2881,1408.291 506.2881,1408.291 521.2881,1408.291 L531.2881,1408.291 " fill="none" style="stroke:#181818;stroke-width:1.0;"/><path d="M141.2754,1320.3594 L151.2754,1320.3594 C166.2754,1320.3594 166.2754,1408.291 181.2754,1408.291 L191.2754,1408.291 " fill="none" style="stroke:#181818;stroke-width:1.0;"/><rect fill="#ADD8E6" height="38.6211" rx="12.5" ry="12.5" style="stroke:#181818;stroke-width:1.5;" width="153.8545" x="10" y="1476.9121"/><text fill="#000000" font-family="sans-serif" font-size="14" lengthAdjust="spacing" textLength="133.8545" x="20" y="1502.0195">Context Management</text><rect fill="#FFD700" height="38.6211" rx="12.5" ry="12.5" style="stroke:#181818;stroke-width:1.5;" width="280.7158" x="213.8545" y="1447.6016"/><text fill="#000000" font-family="sans-serif" font-size="14" lengthAdjust="spacing" textLength="260.7158" x="223.8545" y="1472.709">Passing data across coroutine boundaries</text><rect fill="#90EE90" height="38.6211" rx="12.5" ry="12.5" style="stroke:#181818;stroke-width:1.5;" width="110.2617" x="544.5703" y="1447.6016"/><text fill="#000000" font-family="sans-serif" font-size="14" lengthAdjust="spacing" textLength="90.2617" x="554.5703" y="1472.709">Async\Context</text><path d="M494.5703,1466.9121 L504.5703,1466.9121 C519.5703,1466.9121 519.5703,1466.9121 534.5703,1466.9121 L544.5703,1466.9121 " fill="none" style="stroke:#181818;stroke-width:1.0;"/><path d="M163.8545,1496.2227 L173.8545,1496.2227 C188.8545,1496.2227 188.8545,1466.9121 203.8545,1466.9121 L213.8545,1466.9121 " fill="none" style="stroke:#181818;stroke-width:1.0;"/><rect fill="#FFD700" height="38.6211" rx="12.5" ry="12.5" style="stroke:#181818;stroke-width:1.5;" width="219.9922" x="213.8545" y="1506.2227"/><text fill="#000000" font-family="sans-serif" font-size="14" lengthAdjust="spacing" textLength="199.9922" x="223.8545" y="1531.3301">Inheriting context across scopes</text><rect fill="#90EE90" height="38.6211" rx="12.5" ry="12.5" style="stroke:#181818;stroke-width:1.5;" width="132.8545" x="483.8467" y="1506.2227"/><text fill="#000000" font-family="sans-serif" font-size="14" lengthAdjust="spacing" textLength="112.8545" x="493.8467" y="1531.3301">Scope Inheritance</text><path d="M433.8467,1525.5332 L443.8467,1525.5332 C458.8467,1525.5332 458.8467,1525.5332 473.8467,1525.5332 L483.8467,1525.5332 " fill="none" style="stroke:#181818;stroke-width:1.0;"/><path d="M163.8545,1496.2227 L173.8545,1496.2227 C188.8545,1496.2227 188.8545,1525.5332 203.8545,1525.5332 L213.8545,1525.5332 " fill="none" style="stroke:#181818;stroke-width:1.0;"/><rect fill="#ADD8E6" height="38.6211" rx="12.5" ry="12.5" style="stroke:#181818;stroke-width:1.5;" width="200.5303" x="10" y="1623.4648"/><text fill="#000000" font-family="sans-serif" font-size="14" lengthAdjust="spacing" textLength="180.5303" x="20" y="1648.5723">Managing Implicit Coroutines</text><rect fill="#FFD700" height="38.6211" rx="12.5" ry="12.5" style="stroke:#181818;stroke-width:1.5;" width="188.0684" x="260.5303" y="1564.8438"/><text fill="#000000" font-family="sans-serif" font-size="14" lengthAdjust="spacing" textLength="168.0684" x="270.5303" y="1589.9512">Creating implicit coroutines</text><rect fill="#90EE90" height="38.6211" rx="12.5" ry="12.5" style="stroke:#181818;stroke-width:1.5;" width="152.3027" x="498.5986" y="1564.8438"/><text fill="#000000" font-family="sans-serif" font-size="14" lengthAdjust="spacing" textLength="132.3027" x="508.5986" y="1589.9512">spawn without Scope</text><path d="M448.5986,1584.1543 L458.5986,1584.1543 C473.5986,1584.1543 473.5986,1584.1543 488.5986,1584.1543 L498.5986,1584.1543 " fill="none" style="stroke:#181818;stroke-width:1.0;"/><path d="M210.5303,1642.7754 L220.5303,1642.7754 C235.5303,1642.7754 235.5303,1584.1543 250.5303,1584.1543 L260.5303,1584.1543 " fill="none" style="stroke:#181818;stroke-width:1.0;"/><rect fill="#FFD700" height="38.6211" rx="12.5" ry="12.5" style="stroke:#181818;stroke-width:1.5;" width="196.6406" x="260.5303" y="1623.4648"/><text fill="#000000" font-family="sans-serif" font-size="14" lengthAdjust="spacing" textLength="176.6406" x="270.5303" y="1648.5723">Managing implicit coroutines</text><rect fill="#90EE90" height="38.6211" rx="12.5" ry="12.5" style="stroke:#181818;stroke-width:1.5;" width="265.5264" x="507.1709" y="1623.4648"/><text fill="#000000" font-family="sans-serif" font-size="14" lengthAdjust="spacing" textLength="245.5264" x="517.1709" y="1648.5723">Create Scope + Scope::disposeSafely()</text><path d="M457.1709,1642.7754 L467.1709,1642.7754 C482.1709,1642.7754 482.1709,1642.7754 497.1709,1642.7754 L507.1709,1642.7754 " fill="none" style="stroke:#181818;stroke-width:1.0;"/><path d="M210.5303,1642.7754 L220.5303,1642.7754 C235.5303,1642.7754 235.5303,1642.7754 250.5303,1642.7754 L260.5303,1642.7754 " fill="none" style="stroke:#181818;stroke-width:1.0;"/><rect fill="#FFD700" height="38.6211" rx="12.5" ry="12.5" style="stroke:#181818;stroke-width:1.5;" width="181.8613" x="260.5303" y="1682.0859"/><text fill="#000000" font-family="sans-serif" font-size="14" lengthAdjust="spacing" textLength="161.8613" x="270.5303" y="1707.1934">Preventing resource leaks</text><rect fill="#90EE90" height="38.6211" rx="12.5" ry="12.5" style="stroke:#181818;stroke-width:1.5;" width="300.9023" x="492.3916" y="1682.0859"/><text fill="#000000" font-family="sans-serif" font-size="14" lengthAdjust="spacing" textLength="280.9023" x="502.3916" y="1707.1934">Zombie Coroutine Policy or Task cancellation</text><path d="M442.3916,1701.3965 L452.3916,1701.3965 C467.3916,1701.3965 467.3916,1701.3965 482.3916,1701.3965 L492.3916,1701.3965 " fill="none" style="stroke:#181818;stroke-width:1.0;"/><path d="M210.5303,1642.7754 L220.5303,1642.7754 C235.5303,1642.7754 235.5303,1701.3965 250.5303,1701.3965 L260.5303,1701.3965 " fill="none" style="stroke:#181818;stroke-width:1.0;"/><!--SRC=[bLPjRzis4FuS_Oe3rWz90nT94Io5jWNjd6HD5gD6d7J0jg2WgRF5XI85ahBh3VtlFPAIOzcMuG7vu537vzwUvuxlhMF65K9b1IkJrt_z8CKqTsDPuHFq3J8dr1JwskYAVg5DNZScKuEedi2MRAxMxetcml7SNtGQHZp7h99eDgzMjaILhLzsfkAkCfYHMyKhOr3nHRXyVNrvVdBo1BzHD6M0P_RPXzG6Je7PXU8mbfe_mp6mEHEEuj0bfYcJyY7SIgBHA-lFuR_au23QnOFUHMDuU9Hy-wdbVbaM1hb0mmpF5vr129MZ8TWGJEEqETpNUQj0Vv2XzpxH1kxHLj9jTYMY_Vp1U_lxW_-7ZILUjD9OnIa8HPGIEofQuqKuYet2waAYhq2zbraNr5eVTa1bmY1tUw55qrs0HCaSE5CSfQJkQRMjOo7BOwYK4v9w5Ll26_B7SpfOGLblpaUcCkdzNNtbM7eBsmfd-HsNtuaDLcG8Ip-RMJgpw756ceffXC3sW8Mf5mhkBjvBf16b5kekP4P_fDuIpKnORJQ1-w5bdV2jYlccBHMzG-OnTPipFncacA0J1NRar8Av4-hPemm_3a6F__6KYcHO7MhhL8Wm2PVCMXZf8eYqhCPIS9XKYeU4ldpXL8umhmwFWefVkLpOtaMKzI-WS1wHY9G7tv9j21bs0lGkCc5BRUlR6uCWLAxVflJAb0eVg56cKihdluDVo_cUff7SQo9giDhQzWopTRcto_B_W8MUp9bHaGPTEcyAiY_YlxeOYvtYQaEFs0JbmZjehqAj77vrC62AJR50rTRVa6ZYQvmnnu1neuarBtDZh2kLCIEsCAsUgJLy2_CcBedOkkYzHWv5xzHpVS_NP2s94Bp7kobAeY4DjxN5lh7XH6EuGopn2H2gJIPR1BXqknTQy8rrBiUTtLajli4PDSHxC6XrPJY2HBPjulqPsR1C6uQQ8be0RPkWfjQ2U4-Fa-PXb0mbK-vnS0SpDDPBz_JDsvEtPs_E3qUCaiOIJixXz2mzVPUUdiFLrUW1_FUZv71mym1rL9I5Cs9SUVYZv9RD6DpxfL9W2f_eBNHx-Njp05Tg9enMWMgtdmSl1Z-UzNxrxncQlcZWyo2vn0cZ_KqtkCwe2YayFbpttYLtJ4qhOcjA8o3f4mTfZQHm__WT]--></g></svg>