<svg xmlns="http://www.w3.org/2000/svg" xmlns:xlink="http://www.w3.org/1999/xlink" contentStyleType="text/css" height="1801px" preserveAspectRatio="none" style="width:805px;height:1801px;background:#FFFFFF;" version="1.1" viewBox="0 0 805 1801" width="805px" zoomAndPan="magnify"><defs/><g><rect fill="#ADD8E6" height="38.6211" rx="12.5" ry="12.5" style="stroke:#181818;stroke-width:1.5;" width="144.5098" x="10" y="20"/><text fill="#000000" font-family="sans-serif" font-size="14" lengthAdjust="spacing" textLength="124.5098" x="20" y="45.1074">Creating Coroutines</text><rect fill="#90EE90" height="38.6211" rx="12.5" ry="12.5" style="stroke:#181818;stroke-width:1.5;" width="60.4688" x="204.5098" y="20"/><text fill="#000000" font-family="sans-serif" font-size="14" lengthAdjust="spacing" textLength="40.4688" x="214.5098" y="45.1074">spawn</text><path d="M154.5098,39.3105 L164.5098,39.3105 C179.5098,39.3105 179.5098,39.3105 194.5098,39.3105 L204.5098,39.3105 " fill="none" style="stroke:#181818;stroke-width:1.0;"/><rect fill="#ADD8E6" height="38.6211" rx="12.5" ry="12.5" style="stroke:#181818;stroke-width:1.5;" width="162.4131" x="10" y="78.6211"/><text fill="#000000" font-family="sans-serif" font-size="14" lengthAdjust="spacing" textLength="142.4131" x="20" y="103.7285">Switching to Scheduler</text><rect fill="#90EE90" height="38.6211" rx="12.5" ry="12.5" style="stroke:#181818;stroke-width:1.5;" width="72.9307" x="222.4131" y="78.6211"/><text fill="#000000" font-family="sans-serif" font-size="14" lengthAdjust="spacing" textLength="52.9307" x="232.4131" y="103.7285">suspend</text><path d="M172.4131,97.9316 L182.4131,97.9316 C197.4131,97.9316 197.4131,97.9316 212.4131,97.9316 L222.4131,97.9316 " fill="none" style="stroke:#181818;stroke-width:1.0;"/><rect fill="#ADD8E6" height="38.6211" rx="12.5" ry="12.5" style="stroke:#181818;stroke-width:1.5;" width="167.8408" x="10" y="241.0371"/><text fill="#000000" font-family="sans-serif" font-size="14" lengthAdjust="spacing" textLength="147.8408" x="20" y="266.1445">Structured Concurrency</text><rect fill="#FFD700" height="38.6211" rx="12.5" ry="12.5" style="stroke:#181818;stroke-width:1.5;" width="114.1582" x="227.8408" y="174.4844"/><text fill="#000000" font-family="sans-serif" font-size="14" lengthAdjust="spacing" textLength="94.1582" x="237.8408" y="199.5918">Grouping tasks</text><rect fill="#90EE90" height="113.1055" rx="12.5" ry="12.5" style="stroke:#181818;stroke-width:1.5;" width="248.3818" x="391.999" y="137.2422"/><text fill="#000000" font-family="sans-serif" font-size="14" lengthAdjust="spacing" textLength="224.4922" x="405.8887" y="162.3496">async block + await Scope::allTasks</text><text fill="#000000" font-family="sans-serif" font-size="14" lengthAdjust="spacing" textLength="3.8896" x="401.999" y="180.9707">&#160;</text><text fill="#000000" font-family="sans-serif" font-size="14" lengthAdjust="spacing" textLength="94.1719" x="401.999" y="199.5918">async $scope {</text><text fill="#000000" font-family="sans-serif" font-size="14" lengthAdjust="spacing" textLength="155.2236" x="464.2334" y="218.2129">await $scope-&gt;allTasks()</text><text fill="#000000" font-family="sans-serif" font-size="14" lengthAdjust="spacing" textLength="4.6758" x="401.999" y="236.834">}</text><path d="M341.999,193.7949 L351.999,193.7949 C366.999,193.7949 366.999,193.7949 381.999,193.7949 L391.999,193.7949 " fill="none" style="stroke:#181818;stroke-width:1.0;"/><path d="M177.8408,260.3477 L187.8408,260.3477 C202.8408,260.3477 202.8408,193.7949 217.8408,193.7949 L227.8408,193.7949 " fill="none" style="stroke:#181818;stroke-width:1.0;"/><rect fill="#FFD700" height="38.6211" rx="12.5" ry="12.5" style="stroke:#181818;stroke-width:1.5;" width="146.0615" x="227.8408" y="307.5898"/><text fill="#000000" font-family="sans-serif" font-size="14" lengthAdjust="spacing" textLength="126.0615" x="237.8408" y="332.6973">Creating a hierarchy</text><rect fill="#90EE90" height="113.1055" rx="12.5" ry="12.5" style="stroke:#181818;stroke-width:1.5;" width="237.458" x="423.9023" y="270.3477"/><text fill="#000000" font-family="sans-serif" font-size="14" lengthAdjust="spacing" textLength="115.165" x="437.792" y="295.4551">async inherit block</text><text fill="#000000" font-family="sans-serif" font-size="14" lengthAdjust="spacing" textLength="3.8896" x="433.9023" y="314.0762">&#160;</text><text fill="#000000" font-family="sans-serif" font-size="14" lengthAdjust="spacing" textLength="136.1924" x="433.9023" y="332.6973">async inherit $scope {</text><text fill="#000000" font-family="sans-serif" font-size="14" lengthAdjust="spacing" textLength="155.2236" x="496.1367" y="351.3184">await $scope-&gt;allTasks()</text><text fill="#000000" font-family="sans-serif" font-size="14" lengthAdjust="spacing" textLength="4.6758" x="433.9023" y="369.9395">}</text><path d="M373.9023,326.9004 L383.9023,326.9004 C398.9023,326.9004 398.9023,326.9004 413.9023,326.9004 L423.9023,326.9004 " fill="none" style="stroke:#181818;stroke-width:1.0;"/><path d="M177.8408,260.3477 L187.8408,260.3477 C202.8408,260.3477 202.8408,326.9004 217.8408,326.9004 L227.8408,326.9004 " fill="none" style="stroke:#181818;stroke-width:1.0;"/><rect fill="#ADD8E6" height="38.6211" rx="12.5" ry="12.5" style="stroke:#181818;stroke-width:1.5;" width="137.4824" x="10" y="568.627"/><text fill="#000000" font-family="sans-serif" font-size="14" lengthAdjust="spacing" textLength="117.4824" x="20" y="593.7344">Waiting for Results</text><rect fill="#90EE90" height="38.6211" rx="12.5" ry="12.5" style="stroke:#181818;stroke-width:1.5;" width="175.6406" x="197.4824" y="403.4531"/><text fill="#000000" font-family="sans-serif" font-size="14" lengthAdjust="spacing" textLength="155.6406" x="207.4824" y="428.5605">await &lt;Async\Awaitable&gt;</text><path d="M147.4824,587.9375 L157.4824,587.9375 C172.4824,587.9375 172.4824,422.7637 187.4824,422.7637 L197.4824,422.7637 " fill="none" style="stroke:#181818;stroke-width:1.0;"/><rect fill="#FFD700" height="38.6211" rx="12.5" ry="12.5" style="stroke:#181818;stroke-width:1.5;" width="175.6064" x="197.4824" y="462.0742"/><text fill="#000000" font-family="sans-serif" font-size="14" lengthAdjust="spacing" textLength="155.6064" x="207.4824" y="487.1816">Waiting for multiple tasks</text><rect fill="#90EE90" height="38.6211" rx="12.5" ry="12.5" style="stroke:#181818;stroke-width:1.5;" width="121.917" x="423.0889" y="462.0742"/><text fill="#000000" font-family="sans-serif" font-size="14" lengthAdjust="spacing" textLength="101.917" x="433.0889" y="487.1816">await Async\all()</text><path d="M373.0889,481.3848 L383.0889,481.3848 C398.0889,481.3848 398.0889,481.3848 413.0889,481.3848 L423.0889,481.3848 " fill="none" style="stroke:#181818;stroke-width:1.0;"/><path d="M147.4824,587.9375 L157.4824,587.9375 C172.4824,587.9375 172.4824,481.3848 187.4824,481.3848 L197.4824,481.3848 " fill="none" style="stroke:#181818;stroke-width:1.0;"/><rect fill="#FFD700" height="38.6211" rx="12.5" ry="12.5" style="stroke:#181818;stroke-width:1.5;" width="174.0547" x="197.4824" y="520.6953"/><text fill="#000000" font-family="sans-serif" font-size="14" lengthAdjust="spacing" textLength="154.0547" x="207.4824" y="545.8027">Waiting for all child tasks</text><rect fill="#90EE90" height="38.6211" rx="12.5" ry="12.5" style="stroke:#181818;stroke-width:1.5;" width="128.1445" x="421.5371" y="520.6953"/><text fill="#000000" font-family="sans-serif" font-size="14" lengthAdjust="spacing" textLength="108.1445" x="431.5371" y="545.8027">Scope::allTasks()</text><path d="M371.5371,540.0059 L381.5371,540.0059 C396.5371,540.0059 396.5371,540.0059 411.5371,540.0059 L421.5371,540.0059 " fill="none" style="stroke:#181818;stroke-width:1.0;"/><path d="M147.4824,587.9375 L157.4824,587.9375 C172.4824,587.9375 172.4824,540.0059 187.4824,540.0059 L197.4824,540.0059 " fill="none" style="stroke:#181818;stroke-width:1.0;"/><rect fill="#FFD700" height="38.6211" rx="12.5" ry="12.5" style="stroke:#181818;stroke-width:1.5;" width="194.2822" x="197.4824" y="579.3164"/><text fill="#000000" font-family="sans-serif" font-size="14" lengthAdjust="spacing" textLength="174.2822" x="207.4824" y="604.4238">Waiting for direct child tasks</text><rect fill="#90EE90" height="38.6211" rx="12.5" ry="12.5" style="stroke:#181818;stroke-width:1.5;" width="148.3721" x="441.7646" y="579.3164"/><text fill="#000000" font-family="sans-serif" font-size="14" lengthAdjust="spacing" textLength="128.3721" x="451.7646" y="604.4238">Scope::directTasks()</text><path d="M391.7646,598.627 L401.7646,598.627 C416.7646,598.627 416.7646,598.627 431.7646,598.627 L441.7646,598.627 " fill="none" style="stroke:#181818;stroke-width:1.0;"/><path d="M147.4824,587.9375 L157.4824,587.9375 C172.4824,587.9375 172.4824,598.627 187.4824,598.627 L197.4824,598.627 " fill="none" style="stroke:#181818;stroke-width:1.0;"/><rect fill="#FFD700" height="38.6211" rx="12.5" ry="12.5" style="stroke:#181818;stroke-width:1.5;" width="261.1719" x="197.4824" y="637.9375"/><text fill="#000000" font-family="sans-serif" font-size="14" lengthAdjust="spacing" textLength="241.1719" x="207.4824" y="663.0449">Waiting for first direct child tasks (race)</text><rect fill="#90EE90" height="38.6211" rx="12.5" ry="12.5" style="stroke:#181818;stroke-width:1.5;" width="173.2686" x="508.6543" y="637.9375"/><text fill="#000000" font-family="sans-serif" font-size="14" lengthAdjust="spacing" textLength="153.2686" x="518.6543" y="663.0449">Scope::anyDirectTasks()</text><path d="M458.6543,657.248 L468.6543,657.248 C483.6543,657.248 483.6543,657.248 498.6543,657.248 L508.6543,657.248 " fill="none" style="stroke:#181818;stroke-width:1.0;"/><path d="M147.4824,587.9375 L157.4824,587.9375 C172.4824,587.9375 172.4824,657.248 187.4824,657.248 L197.4824,657.248 " fill="none" style="stroke:#181818;stroke-width:1.0;"/><rect fill="#FFD700" height="38.6211" rx="12.5" ry="12.5" style="stroke:#181818;stroke-width:1.5;" width="173.2959" x="197.4824" y="715.1797"/><text fill="#000000" font-family="sans-serif" font-size="14" lengthAdjust="spacing" textLength="153.2959" x="207.4824" y="740.2871">Waiting with cancellation</text><rect fill="#90EE90" height="75.8633" rx="12.5" ry="12.5" style="stroke:#181818;stroke-width:1.5;" width="237.1367" x="420.7783" y="696.5586"/><text fill="#000000" font-family="sans-serif" font-size="14" lengthAdjust="spacing" textLength="74.3203" x="434.668" y="721.666">await + until</text><text fill="#000000" font-family="sans-serif" font-size="14" lengthAdjust="spacing" textLength="3.8896" x="430.7783" y="740.2871">&#160;</text><text fill="#000000" font-family="sans-serif" font-size="14" lengthAdjust="spacing" textLength="217.1367" x="430.7783" y="758.9082">await $coroutine until $cancellation</text><path d="M370.7783,734.4902 L380.7783,734.4902 C395.7783,734.4902 395.7783,734.4902 410.7783,734.4902 L420.7783,734.4902 " fill="none" style="stroke:#181818;stroke-width:1.0;"/><path d="M147.4824,587.9375 L157.4824,587.9375 C172.4824,587.9375 172.4824,734.4902 187.4824,734.4902 L197.4824,734.4902 " fill="none" style="stroke:#181818;stroke-width:1.0;"/><rect fill="#ADD8E6" height="38.6211" rx="12.5" ry="12.5" style="stroke:#181818;stroke-width:1.5;" width="147.6338" x="10" y="851.043"/><text fill="#000000" font-family="sans-serif" font-size="14" lengthAdjust="spacing" textLength="127.6338" x="20" y="876.1504">Handling Exceptions</text><rect fill="#FFD700" height="38.6211" rx="12.5" ry="12.5" style="stroke:#181818;stroke-width:1.5;" width="248.0332" x="207.6338" y="792.4219"/><text fill="#000000" font-family="sans-serif" font-size="14" lengthAdjust="spacing" textLength="228.0332" x="217.6338" y="817.5293">Handling exceptions inside coroutine</text><rect fill="#90EE90" height="38.6211" rx="12.5" ry="12.5" style="stroke:#181818;stroke-width:1.5;" width="139.0342" x="505.667" y="792.4219"/><text fill="#000000" font-family="sans-serif" font-size="14" lengthAdjust="spacing" textLength="119.0342" x="515.667" y="817.5293">try-catch with await</text><path d="M455.667,811.7324 L465.667,811.7324 C480.667,811.7324 480.667,811.7324 495.667,811.7324 L505.667,811.7324 " fill="none" style="stroke:#181818;stroke-width:1.0;"/><path d="M157.6338,870.3535 L167.6338,870.3535 C182.6338,870.3535 182.6338,811.7324 197.6338,811.7324 L207.6338,811.7324 " fill="none" style="stroke:#181818;stroke-width:1.0;"/><rect fill="#FFD700" height="38.6211" rx="12.5" ry="12.5" style="stroke:#181818;stroke-width:1.5;" width="252.7021" x="207.6338" y="851.043"/><text fill="#000000" font-family="sans-serif" font-size="14" lengthAdjust="spacing" textLength="232.7021" x="217.6338" y="876.1504">Handling exceptions in grouped tasks</text><rect fill="#90EE90" height="38.6211" rx="12.5" ry="12.5" style="stroke:#181818;stroke-width:1.5;" width="177.9854" x="510.3359" y="851.043"/><text fill="#000000" font-family="sans-serif" font-size="14" lengthAdjust="spacing" textLength="157.9854" x="520.3359" y="876.1504">Scope Exception Handler</text><path d="M460.3359,870.3535 L470.3359,870.3535 C485.3359,870.3535 485.3359,870.3535 500.3359,870.3535 L510.3359,870.3535 " fill="none" style="stroke:#181818;stroke-width:1.0;"/><path d="M157.6338,870.3535 L167.6338,870.3535 C182.6338,870.3535 182.6338,870.3535 197.6338,870.3535 L207.6338,870.3535 " fill="none" style="stroke:#181818;stroke-width:1.0;"/><rect fill="#FFD700" height="38.6211" rx="12.5" ry="12.5" style="stroke:#181818;stroke-width:1.5;" width="244.9023" x="207.6338" y="909.6641"/><text fill="#000000" font-family="sans-serif" font-size="14" lengthAdjust="spacing" textLength="224.9023" x="217.6338" y="934.7715">Handling exceptions as a supervisor</text><rect fill="#90EE90" height="38.6211" rx="12.5" ry="12.5" style="stroke:#181818;stroke-width:1.5;" width="213.7783" x="502.5361" y="909.6641"/><text fill="#000000" font-family="sans-serif" font-size="14" lengthAdjust="spacing" textLength="193.7783" x="512.5361" y="934.7715">Child Scope Exception Handler</text><path d="M452.5361,928.9746 L462.5361,928.9746 C477.5361,928.9746 477.5361,928.9746 492.5361,928.9746 L502.5361,928.9746 " fill="none" style="stroke:#181818;stroke-width:1.0;"/><path d="M157.6338,870.3535 L167.6338,870.3535 C182.6338,870.3535 182.6338,928.9746 197.6338,928.9746 L207.6338,928.9746 " fill="none" style="stroke:#181818;stroke-width:1.0;"/><rect fill="#ADD8E6" height="38.6211" rx="12.5" ry="12.5" style="stroke:#181818;stroke-width:1.5;" width="111.8203" x="10" y="1090.7012"/><text fill="#000000" font-family="sans-serif" font-size="14" lengthAdjust="spacing" textLength="91.8203" x="20" y="1115.8086">Task Grouping</text><rect fill="#FFD700" height="38.6211" rx="12.5" ry="12.5" style="stroke:#181818;stroke-width:1.5;" width="237.875" x="171.8203" y="968.2852"/><text fill="#000000" font-family="sans-serif" font-size="14" lengthAdjust="spacing" textLength="217.875" x="181.8203" y="993.3926">Grouping tasks with shared lifetime</text><rect fill="#90EE90" height="38.6211" rx="12.5" ry="12.5" style="stroke:#181818;stroke-width:1.5;" width="59.6963" x="459.6953" y="968.2852"/><text fill="#000000" font-family="sans-serif" font-size="14" lengthAdjust="spacing" textLength="39.6963" x="469.6953" y="993.3926">Scope</text><path d="M409.6953,987.5957 L419.6953,987.5957 C434.6953,987.5957 434.6953,987.5957 449.6953,987.5957 L459.6953,987.5957 " fill="none" style="stroke:#181818;stroke-width:1.0;"/><path d="M121.8203,1110.0117 L131.8203,1110.0117 C146.8203,1110.0117 146.8203,987.5957 161.8203,987.5957 L171.8203,987.5957 " fill="none" style="stroke:#181818;stroke-width:1.0;"/><rect fill="#FFD700" height="38.6211" rx="12.5" ry="12.5" style="stroke:#181818;stroke-width:1.5;" width="235.5576" x="171.8203" y="1120.0117"/><text fill="#000000" font-family="sans-serif" font-size="14" lengthAdjust="spacing" textLength="215.5576" x="181.8203" y="1145.1191">Linking PHP object with coroutines</text><rect fill="#90EE90" height="224.832" rx="12.5" ry="12.5" style="stroke:#181818;stroke-width:1.5;" width="256.5508" x="457.3779" y="1026.9063"/><text fill="#000000" font-family="sans-serif" font-size="14" lengthAdjust="spacing" textLength="39.6963" x="471.2676" y="1052.0137">Scope</text><text fill="#000000" font-family="sans-serif" font-size="14" lengthAdjust="spacing" textLength="3.8896" x="467.3779" y="1070.6348">&#160;</text><text fill="#000000" font-family="sans-serif" font-size="14" lengthAdjust="spacing" textLength="80.9238" x="467.3779" y="1089.2559">class Some {</text><text fill="#000000" font-family="sans-serif" font-size="14" lengthAdjust="spacing" textLength="183.6543" x="498.4951" y="1107.877">public function __construct() {</text><text fill="#000000" font-family="sans-serif" font-size="14" lengthAdjust="spacing" textLength="174.3164" x="529.6123" y="1126.498">$this-&gt;scope = new Scope()</text><text fill="#000000" font-family="sans-serif" font-size="14" lengthAdjust="spacing" textLength="4.6758" x="498.4951" y="1145.1191">}</text><text fill="#000000" font-family="sans-serif" font-size="14" lengthAdjust="spacing" textLength="3.8896" x="467.3779" y="1163.7402">&#160;</text><text fill="#000000" font-family="sans-serif" font-size="14" lengthAdjust="spacing" textLength="176.6543" x="498.4951" y="1182.3613">public function __destruct() {</text><text fill="#000000" font-family="sans-serif" font-size="14" lengthAdjust="spacing" textLength="150.1855" x="529.6123" y="1200.9824">$this-&gt;scope-&gt;dispose()</text><text fill="#000000" font-family="sans-serif" font-size="14" lengthAdjust="spacing" textLength="4.6758" x="498.4951" y="1219.6035">}</text><text fill="#000000" font-family="sans-serif" font-size="14" lengthAdjust="spacing" textLength="4.6758" x="467.3779" y="1238.2246">}</text><path d="M407.3779,1139.3223 L417.3779,1139.3223 C432.3779,1139.3223 432.3779,1139.3223 447.3779,1139.3223 L457.3779,1139.3223 " fill="none" style="stroke:#181818;stroke-width:1.0;"/><path d="M121.8203,1110.0117 L131.8203,1110.0117 C146.8203,1110.0117 146.8203,1139.3223 161.8203,1139.3223 L171.8203,1139.3223 " fill="none" style="stroke:#181818;stroke-width:1.0;"/><rect fill="#ADD8E6" height="38.6211" rx="12.5" ry="12.5" style="stroke:#181818;stroke-width:1.5;" width="131.2754" x="10" y="1359.6699"/><text fill="#000000" font-family="sans-serif" font-size="14" lengthAdjust="spacing" textLength="111.2754" x="20" y="1384.7773">Task Cancellation</text><rect fill="#FFD700" height="38.6211" rx="12.5" ry="12.5" style="stroke:#181818;stroke-width:1.5;" width="187.3301" x="191.2754" y="1271.7383"/><text fill="#000000" font-family="sans-serif" font-size="14" lengthAdjust="spacing" textLength="167.3301" x="201.2754" y="1296.8457">Cancel a running coroutine</text><rect fill="#90EE90" height="38.6211" rx="12.5" ry="12.5" style="stroke:#181818;stroke-width:1.5;" width="138.2754" x="428.6055" y="1271.7383"/><text fill="#000000" font-family="sans-serif" font-size="14" lengthAdjust="spacing" textLength="118.2754" x="438.6055" y="1296.8457">Coroutine::cancel()</text><path d="M378.6055,1291.0488 L388.6055,1291.0488 C403.6055,1291.0488 403.6055,1291.0488 418.6055,1291.0488 L428.6055,1291.0488 " fill="none" style="stroke:#181818;stroke-width:1.0;"/><path d="M141.2754,1378.9805 L151.2754,1378.9805 C166.2754,1378.9805 166.2754,1291.0488 181.2754,1291.0488 L191.2754,1291.0488 " fill="none" style="stroke:#181818;stroke-width:1.0;"/><rect fill="#FFD700" height="38.6211" rx="12.5" ry="12.5" style="stroke:#181818;stroke-width:1.5;" width="206.7578" x="191.2754" y="1330.3594"/><text fill="#000000" font-family="sans-serif" font-size="14" lengthAdjust="spacing" textLength="186.7578" x="201.2754" y="1355.4668">Cancel all child tasks in scope</text><rect fill="#90EE90" height="38.6211" rx="12.5" ry="12.5" style="stroke:#181818;stroke-width:1.5;" width="117.2686" x="448.0332" y="1330.3594"/><text fill="#000000" font-family="sans-serif" font-size="14" lengthAdjust="spacing" textLength="97.2686" x="458.0332" y="1355.4668">Scope::cancel()</text><path d="M398.0332,1349.6699 L408.0332,1349.6699 C423.0332,1349.6699 423.0332,1349.6699 438.0332,1349.6699 L448.0332,1349.6699 " fill="none" style="stroke:#181818;stroke-width:1.0;"/><path d="M141.2754,1378.9805 L151.2754,1378.9805 C166.2754,1378.9805 166.2754,1349.6699 181.2754,1349.6699 L191.2754,1349.6699 " fill="none" style="stroke:#181818;stroke-width:1.0;"/><rect fill="#FFD700" height="38.6211" rx="12.5" ry="12.5" style="stroke:#181818;stroke-width:1.5;" width="232.4268" x="191.2754" y="1388.9805"/><text fill="#000000" font-family="sans-serif" font-size="14" lengthAdjust="spacing" textLength="212.4268" x="201.2754" y="1414.0879">Cancel all child tasks with warning</text><rect fill="#90EE90" height="38.6211" rx="12.5" ry="12.5" style="stroke:#181818;stroke-width:1.5;" width="125.0547" x="473.7021" y="1388.9805"/><text fill="#000000" font-family="sans-serif" font-size="14" lengthAdjust="spacing" textLength="105.0547" x="483.7021" y="1414.0879">Scope::dispose()</text><path d="M423.7021,1408.291 L433.7021,1408.291 C448.7021,1408.291 448.7021,1408.291 463.7021,1408.291 L473.7021,1408.291 " fill="none" style="stroke:#181818;stroke-width:1.0;"/><path d="M141.2754,1378.9805 L151.2754,1378.9805 C166.2754,1378.9805 166.2754,1408.291 181.2754,1408.291 L191.2754,1408.291 " fill="none" style="stroke:#181818;stroke-width:1.0;"/><rect fill="#FFD700" height="38.6211" rx="12.5" ry="12.5" style="stroke:#181818;stroke-width:1.5;" width="290.0127" x="191.2754" y="1447.6016"/><text fill="#000000" font-family="sans-serif" font-size="14" lengthAdjust="spacing" textLength="270.0127" x="201.2754" y="1472.709">Cancel all child tasks with zombie coroutine</text><rect fill="#90EE90" height="38.6211" rx="12.5" ry="12.5" style="stroke:#181818;stroke-width:1.5;" width="163.9648" x="531.2881" y="1447.6016"/><text fill="#000000" font-family="sans-serif" font-size="14" lengthAdjust="spacing" textLength="143.9648" x="541.2881" y="1472.709">Scope::disposeSafely()</text><path d="M481.2881,1466.9121 L491.2881,1466.9121 C506.2881,1466.9121 506.2881,1466.9121 521.2881,1466.9121 L531.2881,1466.9121 " fill="none" style="stroke:#181818;stroke-width:1.0;"/><path d="M141.2754,1378.9805 L151.2754,1378.9805 C166.2754,1378.9805 166.2754,1466.9121 181.2754,1466.9121 L191.2754,1466.9121 " fill="none" style="stroke:#181818;stroke-width:1.0;"/><rect fill="#ADD8E6" height="38.6211" rx="12.5" ry="12.5" style="stroke:#181818;stroke-width:1.5;" width="153.8545" x="10" y="1535.5332"/><text fill="#000000" font-family="sans-serif" font-size="14" lengthAdjust="spacing" textLength="133.8545" x="20" y="1560.6406">Context Management</text><rect fill="#FFD700" height="38.6211" rx="12.5" ry="12.5" style="stroke:#181818;stroke-width:1.5;" width="280.7158" x="213.8545" y="1506.2227"/><text fill="#000000" font-family="sans-serif" font-size="14" lengthAdjust="spacing" textLength="260.7158" x="223.8545" y="1531.3301">Passing data across coroutine boundaries</text><rect fill="#90EE90" height="38.6211" rx="12.5" ry="12.5" style="stroke:#181818;stroke-width:1.5;" width="110.2617" x="544.5703" y="1506.2227"/><text fill="#000000" font-family="sans-serif" font-size="14" lengthAdjust="spacing" textLength="90.2617" x="554.5703" y="1531.3301">Async\Context</text><path d="M494.5703,1525.5332 L504.5703,1525.5332 C519.5703,1525.5332 519.5703,1525.5332 534.5703,1525.5332 L544.5703,1525.5332 " fill="none" style="stroke:#181818;stroke-width:1.0;"/><path d="M163.8545,1554.8438 L173.8545,1554.8438 C188.8545,1554.8438 188.8545,1525.5332 203.8545,1525.5332 L213.8545,1525.5332 " fill="none" style="stroke:#181818;stroke-width:1.0;"/><rect fill="#FFD700" height="38.6211" rx="12.5" ry="12.5" style="stroke:#181818;stroke-width:1.5;" width="219.9922" x="213.8545" y="1564.8438"/><text fill="#000000" font-family="sans-serif" font-size="14" lengthAdjust="spacing" textLength="199.9922" x="223.8545" y="1589.9512">Inheriting context across scopes</text><rect fill="#90EE90" height="38.6211" rx="12.5" ry="12.5" style="stroke:#181818;stroke-width:1.5;" width="132.8545" x="483.8467" y="1564.8438"/><text fill="#000000" font-family="sans-serif" font-size="14" lengthAdjust="spacing" textLength="112.8545" x="493.8467" y="1589.9512">Scope Inheritance</text><path d="M433.8467,1584.1543 L443.8467,1584.1543 C458.8467,1584.1543 458.8467,1584.1543 473.8467,1584.1543 L483.8467,1584.1543 " fill="none" style="stroke:#181818;stroke-width:1.0;"/><path d="M163.8545,1554.8438 L173.8545,1554.8438 C188.8545,1554.8438 188.8545,1584.1543 203.8545,1584.1543 L213.8545,1584.1543 " fill="none" style="stroke:#181818;stroke-width:1.0;"/><rect fill="#ADD8E6" height="38.6211" rx="12.5" ry="12.5" style="stroke:#181818;stroke-width:1.5;" width="200.5303" x="10" y="1682.0859"/><text fill="#000000" font-family="sans-serif" font-size="14" lengthAdjust="spacing" textLength="180.5303" x="20" y="1707.1934">Managing Implicit Coroutines</text><rect fill="#FFD700" height="38.6211" rx="12.5" ry="12.5" style="stroke:#181818;stroke-width:1.5;" width="188.0684" x="260.5303" y="1623.4648"/><text fill="#000000" font-family="sans-serif" font-size="14" lengthAdjust="spacing" textLength="168.0684" x="270.5303" y="1648.5723">Creating implicit coroutines</text><rect fill="#90EE90" height="38.6211" rx="12.5" ry="12.5" style="stroke:#181818;stroke-width:1.5;" width="152.3027" x="498.5986" y="1623.4648"/><text fill="#000000" font-family="sans-serif" font-size="14" lengthAdjust="spacing" textLength="132.3027" x="508.5986" y="1648.5723">spawn without Scope</text><path d="M448.5986,1642.7754 L458.5986,1642.7754 C473.5986,1642.7754 473.5986,1642.7754 488.5986,1642.7754 L498.5986,1642.7754 " fill="none" style="stroke:#181818;stroke-width:1.0;"/><path d="M210.5303,1701.3965 L220.5303,1701.3965 C235.5303,1701.3965 235.5303,1642.7754 250.5303,1642.7754 L260.5303,1642.7754 " fill="none" style="stroke:#181818;stroke-width:1.0;"/><rect fill="#FFD700" height="38.6211" rx="12.5" ry="12.5" style="stroke:#181818;stroke-width:1.5;" width="196.6406" x="260.5303" y="1682.0859"/><text fill="#000000" font-family="sans-serif" font-size="14" lengthAdjust="spacing" textLength="176.6406" x="270.5303" y="1707.1934">Managing implicit coroutines</text><rect fill="#90EE90" height="38.6211" rx="12.5" ry="12.5" style="stroke:#181818;stroke-width:1.5;" width="265.5264" x="507.1709" y="1682.0859"/><text fill="#000000" font-family="sans-serif" font-size="14" lengthAdjust="spacing" textLength="245.5264" x="517.1709" y="1707.1934">Create Scope + Scope::disposeSafely()</text><path d="M457.1709,1701.3965 L467.1709,1701.3965 C482.1709,1701.3965 482.1709,1701.3965 497.1709,1701.3965 L507.1709,1701.3965 " fill="none" style="stroke:#181818;stroke-width:1.0;"/><path d="M210.5303,1701.3965 L220.5303,1701.3965 C235.5303,1701.3965 235.5303,1701.3965 250.5303,1701.3965 L260.5303,1701.3965 " fill="none" style="stroke:#181818;stroke-width:1.0;"/><rect fill="#FFD700" height="38.6211" rx="12.5" ry="12.5" style="stroke:#181818;stroke-width:1.5;" width="181.8613" x="260.5303" y="1740.707"/><text fill="#000000" font-family="sans-serif" font-size="14" lengthAdjust="spacing" textLength="161.8613" x="270.5303" y="1765.8145">Preventing resource leaks</text><rect fill="#90EE90" height="38.6211" rx="12.5" ry="12.5" style="stroke:#181818;stroke-width:1.5;" width="300.9023" x="492.3916" y="1740.707"/><text fill="#000000" font-family="sans-serif" font-size="14" lengthAdjust="spacing" textLength="280.9023" x="502.3916" y="1765.8145">Zombie Coroutine Policy or Task cancellation</text><path d="M442.3916,1760.0176 L452.3916,1760.0176 C467.3916,1760.0176 467.3916,1760.0176 482.3916,1760.0176 L492.3916,1760.0176 " fill="none" style="stroke:#181818;stroke-width:1.0;"/><path d="M210.5303,1701.3965 L220.5303,1701.3965 C235.5303,1701.3965 235.5303,1760.0176 250.5303,1760.0176 L260.5303,1760.0176 " fill="none" style="stroke:#181818;stroke-width:1.0;"/><!--SRC=[bLPjRzis4FuS_Oe3rWzs0nT94Io5jWNjd6HD5cD6d7J0jg2WgRF5XIO5ahBh3VtlEvAIOzcMwm7vu51tpxqzzv3lhMF6pOJAPgn8Nl_vdHJJt8rbYK_GDyYSK5FeQwDB-eKsULsRJ0sYUW9Ri8NQy1ijXEEvTtGQHZp7h9HejbrBMw3ADfsTARah3MOKLl7I65Hy6Polho_FJqwUu1VAfWZmp3xxb9h0AJ2xL1p6KlDdE0QsOC9H7hh0D6LIFWIl91gziluS_asEZg9TFEXTr8QTRlBrXqRuLLiOv08DCpnVjYOXL8w6O4CoTT3wyD3WZGRzJeO- -aGRk4TRIhSzbOZsumSVxQyF_XysbdZHA6CTPqOeef3Oqj4ABy9HRfHM6n9z1PgzpDgWDkQm1oeJ1hax22sQVWjm8enrEs2XOnZ7RdkkQddvpG34-HmuKnob97fejOiIeOt7K2ed994XpfpNsnNFwM0DPNFw7vdAf8ztzOLZuIri8vtLTrnz9xfPaI6iucmNwioonnajRImZ97O0B4pz9kB-wRna6b4g9TY7pEYFvA50CnTMcstWVXXUAtoZOtveAydOeoEnT9ipBprIJD296RRKr82v4-hPemm_3a6F__RaYcHOLyrDAaIOX4jcBOpqBAX0KOwbu30f5Gy5VVxCgHr143lT81ElN2vixoBgna-WS16HY9H7NvDT21cs0lGkCc4BRIllBQK9dUitARqcW-433SgKIldwz_1hTO6aQIJtnXBLM4tny0opLRjtR-R_0GipMJ2Z8WtQXAHkoA68_-ZPMEnThYRqY4rGBds0vbshbSCl3WPCiIdEK3NtRqWqyJtEc6F0kD74cXVT6EjIPSo87KohHBk2Rs3Un5ieZYv6hv13qrltkVBpFTae8YJlyMvc1T6Gn6tZvR1rXOhQSC-on3T6w3QPx5Z0LTY3q49ih6evRftEUlCDpcaWFe91gql34IIoNOhtHsJ3gcmOQife2NJxX6rgN13lwVLJlxoIeMJAFGxkO8x6-jKzVVFsvEtPc_FEY57HMC39EPoUfQVlqjDpkBeQFO3_taqwWvi7gBAYAfmHuzB3TvDRDcTmxo-L6QRm6pssRYz_hG_WIis5qIfGxVRJuCNW-xFUp_x1HEgB1ZuDaakSC7eWa0VN6NKXXSU7wzwxv8wfQKbiJKa2aZvnaAwH5EuV_mC0]--></g></svg>