<svg xmlns="http://www.w3.org/2000/svg" xmlns:xlink="http://www.w3.org/1999/xlink" contentStyleType="text/css" height="1710px" preserveAspectRatio="none" style="width:752px;height:1710px;background:#FFFFFF;" version="1.1" viewBox="0 0 752 1710" width="752px" zoomAndPan="magnify"><defs/><g><rect fill="#ADD8E6" height="38.6211" rx="12.5" ry="12.5" style="stroke:#181818;stroke-width:1.5;" width="144.5098" x="10" y="20"/><text fill="#000000" font-family="sans-serif" font-size="14" lengthAdjust="spacing" textLength="124.5098" x="20" y="45.1074">Creating Coroutines</text><rect fill="#90EE90" height="38.6211" rx="12.5" ry="12.5" style="stroke:#181818;stroke-width:1.5;" width="60.4688" x="204.5098" y="20"/><text fill="#000000" font-family="sans-serif" font-size="14" lengthAdjust="spacing" textLength="40.4688" x="214.5098" y="45.1074">spawn</text><path d="M154.5098,39.3105 L164.5098,39.3105 C179.5098,39.3105 179.5098,39.3105 194.5098,39.3105 L204.5098,39.3105 " fill="none" style="stroke:#181818;stroke-width:1.0;"/><rect fill="#ADD8E6" height="38.6211" rx="12.5" ry="12.5" style="stroke:#181818;stroke-width:1.5;" width="162.4131" x="10" y="78.6211"/><text fill="#000000" font-family="sans-serif" font-size="14" lengthAdjust="spacing" textLength="142.4131" x="20" y="103.7285">Switching to Scheduler</text><rect fill="#90EE90" height="38.6211" rx="12.5" ry="12.5" style="stroke:#181818;stroke-width:1.5;" width="72.9307" x="222.4131" y="78.6211"/><text fill="#000000" font-family="sans-serif" font-size="14" lengthAdjust="spacing" textLength="52.9307" x="232.4131" y="103.7285">suspend</text><path d="M172.4131,97.9316 L182.4131,97.9316 C197.4131,97.9316 197.4131,97.9316 212.4131,97.9316 L222.4131,97.9316 " fill="none" style="stroke:#181818;stroke-width:1.0;"/><rect fill="#ADD8E6" height="38.6211" rx="12.5" ry="12.5" style="stroke:#181818;stroke-width:1.5;" width="167.8408" x="10" y="195.8633"/><text fill="#000000" font-family="sans-serif" font-size="14" lengthAdjust="spacing" textLength="147.8408" x="20" y="220.9707">Structured Concurrency</text><rect fill="#FFD700" height="38.6211" rx="12.5" ry="12.5" style="stroke:#181818;stroke-width:1.5;" width="114.1582" x="227.8408" y="137.2422"/><text fill="#000000" font-family="sans-serif" font-size="14" lengthAdjust="spacing" textLength="94.1582" x="237.8408" y="162.3496">Grouping tasks</text><rect fill="#90EE90" height="38.6211" rx="12.5" ry="12.5" style="stroke:#181818;stroke-width:1.5;" width="249.9199" x="391.999" y="137.2422"/><text fill="#000000" font-family="sans-serif" font-size="14" lengthAdjust="spacing" textLength="229.9199" x="401.999" y="162.3496">new TaskGroup() + await TaskGroup</text><path d="M341.999,156.5527 L351.999,156.5527 C366.999,156.5527 366.999,156.5527 381.999,156.5527 L391.999,156.5527 " fill="none" style="stroke:#181818;stroke-width:1.0;"/><path d="M177.8408,215.1738 L187.8408,215.1738 C202.8408,215.1738 202.8408,156.5527 217.8408,156.5527 L227.8408,156.5527 " fill="none" style="stroke:#181818;stroke-width:1.0;"/><rect fill="#FFD700" height="38.6211" rx="12.5" ry="12.5" style="stroke:#181818;stroke-width:1.5;" width="230.8682" x="227.8408" y="195.8633"/><text fill="#000000" font-family="sans-serif" font-size="14" lengthAdjust="spacing" textLength="210.8682" x="237.8408" y="220.9707">The parent waits for all child tasks</text><rect fill="#90EE90" height="38.6211" rx="12.5" ry="12.5" style="stroke:#181818;stroke-width:1.5;" width="181.4922" x="508.709" y="195.8633"/><text fill="#000000" font-family="sans-serif" font-size="14" lengthAdjust="spacing" textLength="161.4922" x="518.709" y="220.9707">new Scope + await Scope</text><path d="M458.709,215.1738 L468.709,215.1738 C483.709,215.1738 483.709,215.1738 498.709,215.1738 L508.709,215.1738 " fill="none" style="stroke:#181818;stroke-width:1.0;"/><path d="M177.8408,215.1738 L187.8408,215.1738 C202.8408,215.1738 202.8408,215.1738 217.8408,215.1738 L227.8408,215.1738 " fill="none" style="stroke:#181818;stroke-width:1.0;"/><rect fill="#FFD700" height="38.6211" rx="12.5" ry="12.5" style="stroke:#181818;stroke-width:1.5;" width="90.8066" x="227.8408" y="254.4844"/><text fill="#000000" font-family="sans-serif" font-size="14" lengthAdjust="spacing" textLength="70.8066" x="237.8408" y="279.5918">A hierarchy</text><rect fill="#90EE90" height="38.6211" rx="12.5" ry="12.5" style="stroke:#181818;stroke-width:1.5;" width="114.9307" x="368.6475" y="254.4844"/><text fill="#000000" font-family="sans-serif" font-size="14" lengthAdjust="spacing" textLength="94.9307" x="378.6475" y="279.5918">Scope::inherit()</text><path d="M318.6475,273.7949 L328.6475,273.7949 C343.6475,273.7949 343.6475,273.7949 358.6475,273.7949 L368.6475,273.7949 " fill="none" style="stroke:#181818;stroke-width:1.0;"/><path d="M177.8408,215.1738 L187.8408,215.1738 C202.8408,215.1738 202.8408,273.7949 217.8408,273.7949 L227.8408,273.7949 " fill="none" style="stroke:#181818;stroke-width:1.0;"/><rect fill="#ADD8E6" height="38.6211" rx="12.5" ry="12.5" style="stroke:#181818;stroke-width:1.5;" width="137.4824" x="10" y="448.9688"/><text fill="#000000" font-family="sans-serif" font-size="14" lengthAdjust="spacing" textLength="117.4824" x="20" y="474.0762">Waiting for Results</text><rect fill="#90EE90" height="38.6211" rx="12.5" ry="12.5" style="stroke:#181818;stroke-width:1.5;" width="175.6406" x="197.4824" y="313.1055"/><text fill="#000000" font-family="sans-serif" font-size="14" lengthAdjust="spacing" textLength="155.6406" x="207.4824" y="338.2129">await &lt;Async\Awaitable&gt;</text><path d="M147.4824,468.2793 L157.4824,468.2793 C172.4824,468.2793 172.4824,332.416 187.4824,332.416 L197.4824,332.416 " fill="none" style="stroke:#181818;stroke-width:1.0;"/><rect fill="#FFD700" height="38.6211" rx="12.5" ry="12.5" style="stroke:#181818;stroke-width:1.5;" width="175.6064" x="197.4824" y="371.7266"/><text fill="#000000" font-family="sans-serif" font-size="14" lengthAdjust="spacing" textLength="155.6064" x="207.4824" y="396.834">Waiting for multiple tasks</text><rect fill="#90EE90" height="38.6211" rx="12.5" ry="12.5" style="stroke:#181818;stroke-width:1.5;" width="125.8203" x="423.0889" y="371.7266"/><text fill="#000000" font-family="sans-serif" font-size="14" lengthAdjust="spacing" textLength="105.8203" x="433.0889" y="396.834">await TaskGroup</text><path d="M373.0889,391.0371 L383.0889,391.0371 C398.0889,391.0371 398.0889,391.0371 413.0889,391.0371 L423.0889,391.0371 " fill="none" style="stroke:#181818;stroke-width:1.0;"/><path d="M147.4824,468.2793 L157.4824,468.2793 C172.4824,468.2793 172.4824,391.0371 187.4824,391.0371 L197.4824,391.0371 " fill="none" style="stroke:#181818;stroke-width:1.0;"/><rect fill="#FFD700" height="38.6211" rx="12.5" ry="12.5" style="stroke:#181818;stroke-width:1.5;" width="174.0547" x="197.4824" y="430.3477"/><text fill="#000000" font-family="sans-serif" font-size="14" lengthAdjust="spacing" textLength="154.0547" x="207.4824" y="455.4551">Waiting for all child tasks</text><rect fill="#90EE90" height="38.6211" rx="12.5" ry="12.5" style="stroke:#181818;stroke-width:1.5;" width="96.2686" x="421.5371" y="430.3477"/><text fill="#000000" font-family="sans-serif" font-size="14" lengthAdjust="spacing" textLength="76.2686" x="431.5371" y="455.4551">await Scope</text><path d="M371.5371,449.6582 L381.5371,449.6582 C396.5371,449.6582 396.5371,449.6582 411.5371,449.6582 L421.5371,449.6582 " fill="none" style="stroke:#181818;stroke-width:1.0;"/><path d="M147.4824,468.2793 L157.4824,468.2793 C172.4824,468.2793 172.4824,449.6582 187.4824,449.6582 L197.4824,449.6582 " fill="none" style="stroke:#181818;stroke-width:1.0;"/><rect fill="#FFD700" height="38.6211" rx="12.5" ry="12.5" style="stroke:#181818;stroke-width:1.5;" width="190.3652" x="197.4824" y="488.9688"/><text fill="#000000" font-family="sans-serif" font-size="14" lengthAdjust="spacing" textLength="170.3652" x="207.4824" y="514.0762">Waiting for first tasks (race)</text><rect fill="#90EE90" height="38.6211" rx="12.5" ry="12.5" style="stroke:#181818;stroke-width:1.5;" width="302.3994" x="437.8477" y="488.9688"/><text fill="#000000" font-family="sans-serif" font-size="14" lengthAdjust="spacing" textLength="282.3994" x="447.8477" y="514.0762">TaskGroup::race() or TaskGroup::firstResult()</text><path d="M387.8477,508.2793 L397.8477,508.2793 C412.8477,508.2793 412.8477,508.2793 427.8477,508.2793 L437.8477,508.2793 " fill="none" style="stroke:#181818;stroke-width:1.0;"/><path d="M147.4824,468.2793 L157.4824,468.2793 C172.4824,468.2793 172.4824,508.2793 187.4824,508.2793 L197.4824,508.2793 " fill="none" style="stroke:#181818;stroke-width:1.0;"/><rect fill="#FFD700" height="38.6211" rx="12.5" ry="12.5" style="stroke:#181818;stroke-width:1.5;" width="173.2959" x="197.4824" y="566.2109"/><text fill="#000000" font-family="sans-serif" font-size="14" lengthAdjust="spacing" textLength="153.2959" x="207.4824" y="591.3184">Waiting with cancellation</text><rect fill="#90EE90" height="75.8633" rx="12.5" ry="12.5" style="stroke:#181818;stroke-width:1.5;" width="237.1367" x="420.7783" y="547.5898"/><text fill="#000000" font-family="sans-serif" font-size="14" lengthAdjust="spacing" textLength="74.3203" x="434.668" y="572.6973">await + until</text><text fill="#000000" font-family="sans-serif" font-size="14" lengthAdjust="spacing" textLength="3.8896" x="430.7783" y="591.3184">&#160;</text><text fill="#000000" font-family="sans-serif" font-size="14" lengthAdjust="spacing" textLength="217.1367" x="430.7783" y="609.9395">await $coroutine until $cancellation</text><path d="M370.7783,585.5215 L380.7783,585.5215 C395.7783,585.5215 395.7783,585.5215 410.7783,585.5215 L420.7783,585.5215 " fill="none" style="stroke:#181818;stroke-width:1.0;"/><path d="M147.4824,468.2793 L157.4824,468.2793 C172.4824,468.2793 172.4824,585.5215 187.4824,585.5215 L197.4824,585.5215 " fill="none" style="stroke:#181818;stroke-width:1.0;"/><rect fill="#ADD8E6" height="38.6211" rx="12.5" ry="12.5" style="stroke:#181818;stroke-width:1.5;" width="147.6338" x="10" y="702.0742"/><text fill="#000000" font-family="sans-serif" font-size="14" lengthAdjust="spacing" textLength="127.6338" x="20" y="727.1816">Handling Exceptions</text><rect fill="#FFD700" height="38.6211" rx="12.5" ry="12.5" style="stroke:#181818;stroke-width:1.5;" width="248.0332" x="207.6338" y="643.4531"/><text fill="#000000" font-family="sans-serif" font-size="14" lengthAdjust="spacing" textLength="228.0332" x="217.6338" y="668.5605">Handling exceptions inside coroutine</text><rect fill="#90EE90" height="38.6211" rx="12.5" ry="12.5" style="stroke:#181818;stroke-width:1.5;" width="139.0342" x="505.667" y="643.4531"/><text fill="#000000" font-family="sans-serif" font-size="14" lengthAdjust="spacing" textLength="119.0342" x="515.667" y="668.5605">try-catch with await</text><path d="M455.667,662.7637 L465.667,662.7637 C480.667,662.7637 480.667,662.7637 495.667,662.7637 L505.667,662.7637 " fill="none" style="stroke:#181818;stroke-width:1.0;"/><path d="M157.6338,721.3848 L167.6338,721.3848 C182.6338,721.3848 182.6338,662.7637 197.6338,662.7637 L207.6338,662.7637 " fill="none" style="stroke:#181818;stroke-width:1.0;"/><rect fill="#FFD700" height="38.6211" rx="12.5" ry="12.5" style="stroke:#181818;stroke-width:1.5;" width="252.7021" x="207.6338" y="702.0742"/><text fill="#000000" font-family="sans-serif" font-size="14" lengthAdjust="spacing" textLength="232.7021" x="217.6338" y="727.1816">Handling exceptions in grouped tasks</text><rect fill="#90EE90" height="38.6211" rx="12.5" ry="12.5" style="stroke:#181818;stroke-width:1.5;" width="177.9854" x="510.3359" y="702.0742"/><text fill="#000000" font-family="sans-serif" font-size="14" lengthAdjust="spacing" textLength="157.9854" x="520.3359" y="727.1816">Scope Exception Handler</text><path d="M460.3359,721.3848 L470.3359,721.3848 C485.3359,721.3848 485.3359,721.3848 500.3359,721.3848 L510.3359,721.3848 " fill="none" style="stroke:#181818;stroke-width:1.0;"/><path d="M157.6338,721.3848 L167.6338,721.3848 C182.6338,721.3848 182.6338,721.3848 197.6338,721.3848 L207.6338,721.3848 " fill="none" style="stroke:#181818;stroke-width:1.0;"/><rect fill="#FFD700" height="38.6211" rx="12.5" ry="12.5" style="stroke:#181818;stroke-width:1.5;" width="244.9023" x="207.6338" y="760.6953"/><text fill="#000000" font-family="sans-serif" font-size="14" lengthAdjust="spacing" textLength="224.9023" x="217.6338" y="785.8027">Handling exceptions as a supervisor</text><rect fill="#90EE90" height="38.6211" rx="12.5" ry="12.5" style="stroke:#181818;stroke-width:1.5;" width="213.7783" x="502.5361" y="760.6953"/><text fill="#000000" font-family="sans-serif" font-size="14" lengthAdjust="spacing" textLength="193.7783" x="512.5361" y="785.8027">Child Scope Exception Handler</text><path d="M452.5361,780.0059 L462.5361,780.0059 C477.5361,780.0059 477.5361,780.0059 492.5361,780.0059 L502.5361,780.0059 " fill="none" style="stroke:#181818;stroke-width:1.0;"/><path d="M157.6338,721.3848 L167.6338,721.3848 C182.6338,721.3848 182.6338,780.0059 197.6338,780.0059 L207.6338,780.0059 " fill="none" style="stroke:#181818;stroke-width:1.0;"/><rect fill="#ADD8E6" height="38.6211" rx="12.5" ry="12.5" style="stroke:#181818;stroke-width:1.5;" width="111.8203" x="10" y="1000.3535"/><text fill="#000000" font-family="sans-serif" font-size="14" lengthAdjust="spacing" textLength="91.8203" x="20" y="1025.4609">Task Grouping</text><rect fill="#FFD700" height="38.6211" rx="12.5" ry="12.5" style="stroke:#181818;stroke-width:1.5;" width="152.2891" x="171.8203" y="819.3164"/><text fill="#000000" font-family="sans-serif" font-size="14" lengthAdjust="spacing" textLength="132.2891" x="181.8203" y="844.4238">Explicit task grouping</text><rect fill="#90EE90" height="38.6211" rx="12.5" ry="12.5" style="stroke:#181818;stroke-width:1.5;" width="89.248" x="374.1094" y="819.3164"/><text fill="#000000" font-family="sans-serif" font-size="14" lengthAdjust="spacing" textLength="69.248" x="384.1094" y="844.4238">TaskGroup</text><path d="M324.1094,838.627 L334.1094,838.627 C349.1094,838.627 349.1094,838.627 364.1094,838.627 L374.1094,838.627 " fill="none" style="stroke:#181818;stroke-width:1.0;"/><path d="M121.8203,1019.6641 L131.8203,1019.6641 C146.8203,1019.6641 146.8203,838.627 161.8203,838.627 L171.8203,838.627 " fill="none" style="stroke:#181818;stroke-width:1.0;"/><rect fill="#FFD700" height="38.6211" rx="12.5" ry="12.5" style="stroke:#181818;stroke-width:1.5;" width="272.1367" x="171.8203" y="877.9375"/><text fill="#000000" font-family="sans-serif" font-size="14" lengthAdjust="spacing" textLength="252.1367" x="181.8203" y="903.0449">Shared task space for spawn expression</text><rect fill="#90EE90" height="38.6211" rx="12.5" ry="12.5" style="stroke:#181818;stroke-width:1.5;" width="59.6963" x="493.957" y="877.9375"/><text fill="#000000" font-family="sans-serif" font-size="14" lengthAdjust="spacing" textLength="39.6963" x="503.957" y="903.0449">Scope</text><path d="M443.957,897.248 L453.957,897.248 C468.957,897.248 468.957,897.248 483.957,897.248 L493.957,897.248 " fill="none" style="stroke:#181818;stroke-width:1.0;"/><path d="M121.8203,1019.6641 L131.8203,1019.6641 C146.8203,1019.6641 146.8203,897.248 161.8203,897.248 L171.8203,897.248 " fill="none" style="stroke:#181818;stroke-width:1.0;"/><rect fill="#FFD700" height="38.6211" rx="12.5" ry="12.5" style="stroke:#181818;stroke-width:1.5;" width="235.5713" x="171.8203" y="936.5586"/><text fill="#000000" font-family="sans-serif" font-size="14" lengthAdjust="spacing" textLength="215.5713" x="181.8203" y="961.666">Binding of TaskGroup to the scope</text><rect fill="#90EE90" height="38.6211" rx="12.5" ry="12.5" style="stroke:#181818;stroke-width:1.5;" width="206.7373" x="457.3916" y="936.5586"/><text fill="#000000" font-family="sans-serif" font-size="14" lengthAdjust="spacing" textLength="186.7373" x="467.3916" y="961.666">new TaskGroup(new Scope())</text><path d="M407.3916,955.8691 L417.3916,955.8691 C432.3916,955.8691 432.3916,955.8691 447.3916,955.8691 L457.3916,955.8691 " fill="none" style="stroke:#181818;stroke-width:1.0;"/><path d="M121.8203,1019.6641 L131.8203,1019.6641 C146.8203,1019.6641 146.8203,955.8691 161.8203,955.8691 L171.8203,955.8691 " fill="none" style="stroke:#181818;stroke-width:1.0;"/><rect fill="#FFD700" height="38.6211" rx="12.5" ry="12.5" style="stroke:#181818;stroke-width:1.5;" width="235.5576" x="171.8203" y="1088.2852"/><text fill="#000000" font-family="sans-serif" font-size="14" lengthAdjust="spacing" textLength="215.5576" x="181.8203" y="1113.3926">Linking PHP object with coroutines</text><rect fill="#90EE90" height="224.832" rx="12.5" ry="12.5" style="stroke:#181818;stroke-width:1.5;" width="256.5508" x="457.3779" y="995.1797"/><text fill="#000000" font-family="sans-serif" font-size="14" lengthAdjust="spacing" textLength="156.4199" x="471.2676" y="1020.2871">Scope or/and TaskGroup</text><text fill="#000000" font-family="sans-serif" font-size="14" lengthAdjust="spacing" textLength="3.8896" x="467.3779" y="1038.9082">&#160;</text><text fill="#000000" font-family="sans-serif" font-size="14" lengthAdjust="spacing" textLength="80.9238" x="467.3779" y="1057.5293">class Some {</text><text fill="#000000" font-family="sans-serif" font-size="14" lengthAdjust="spacing" textLength="183.6543" x="498.4951" y="1076.1504">public function __construct() {</text><text fill="#000000" font-family="sans-serif" font-size="14" lengthAdjust="spacing" textLength="174.3164" x="529.6123" y="1094.7715">$this-&gt;scope = new Scope()</text><text fill="#000000" font-family="sans-serif" font-size="14" lengthAdjust="spacing" textLength="4.6758" x="498.4951" y="1113.3926">}</text><text fill="#000000" font-family="sans-serif" font-size="14" lengthAdjust="spacing" textLength="3.8896" x="467.3779" y="1132.0137">&#160;</text><text fill="#000000" font-family="sans-serif" font-size="14" lengthAdjust="spacing" textLength="176.6543" x="498.4951" y="1150.6348">public function __destruct() {</text><text fill="#000000" font-family="sans-serif" font-size="14" lengthAdjust="spacing" textLength="150.1855" x="529.6123" y="1169.2559">$this-&gt;scope-&gt;dispose()</text><text fill="#000000" font-family="sans-serif" font-size="14" lengthAdjust="spacing" textLength="4.6758" x="498.4951" y="1187.877">}</text><text fill="#000000" font-family="sans-serif" font-size="14" lengthAdjust="spacing" textLength="4.6758" x="467.3779" y="1206.498">}</text><path d="M407.3779,1107.5957 L417.3779,1107.5957 C432.3779,1107.5957 432.3779,1107.5957 447.3779,1107.5957 L457.3779,1107.5957 " fill="none" style="stroke:#181818;stroke-width:1.0;"/><path d="M121.8203,1019.6641 L131.8203,1019.6641 C146.8203,1019.6641 146.8203,1107.5957 161.8203,1107.5957 L171.8203,1107.5957 " fill="none" style="stroke:#181818;stroke-width:1.0;"/><rect fill="#ADD8E6" height="38.6211" rx="12.5" ry="12.5" style="stroke:#181818;stroke-width:1.5;" width="131.2754" x="10" y="1357.2539"/><text fill="#000000" font-family="sans-serif" font-size="14" lengthAdjust="spacing" textLength="111.2754" x="20" y="1382.3613">Task Cancellation</text><rect fill="#FFD700" height="38.6211" rx="12.5" ry="12.5" style="stroke:#181818;stroke-width:1.5;" width="187.3301" x="191.2754" y="1240.0117"/><text fill="#000000" font-family="sans-serif" font-size="14" lengthAdjust="spacing" textLength="167.3301" x="201.2754" y="1265.1191">Cancel a running coroutine</text><rect fill="#90EE90" height="38.6211" rx="12.5" ry="12.5" style="stroke:#181818;stroke-width:1.5;" width="138.2754" x="428.6055" y="1240.0117"/><text fill="#000000" font-family="sans-serif" font-size="14" lengthAdjust="spacing" textLength="118.2754" x="438.6055" y="1265.1191">Coroutine::cancel()</text><path d="M378.6055,1259.3223 L388.6055,1259.3223 C403.6055,1259.3223 403.6055,1259.3223 418.6055,1259.3223 L428.6055,1259.3223 " fill="none" style="stroke:#181818;stroke-width:1.0;"/><path d="M141.2754,1376.5645 L151.2754,1376.5645 C166.2754,1376.5645 166.2754,1259.3223 181.2754,1259.3223 L191.2754,1259.3223 " fill="none" style="stroke:#181818;stroke-width:1.0;"/><rect fill="#FFD700" height="38.6211" rx="12.5" ry="12.5" style="stroke:#181818;stroke-width:1.5;" width="206.7578" x="191.2754" y="1298.6328"/><text fill="#000000" font-family="sans-serif" font-size="14" lengthAdjust="spacing" textLength="186.7578" x="201.2754" y="1323.7402">Cancel all child tasks in scope</text><rect fill="#90EE90" height="38.6211" rx="12.5" ry="12.5" style="stroke:#181818;stroke-width:1.5;" width="117.2686" x="448.0332" y="1298.6328"/><text fill="#000000" font-family="sans-serif" font-size="14" lengthAdjust="spacing" textLength="97.2686" x="458.0332" y="1323.7402">Scope::cancel()</text><path d="M398.0332,1317.9434 L408.0332,1317.9434 C423.0332,1317.9434 423.0332,1317.9434 438.0332,1317.9434 L448.0332,1317.9434 " fill="none" style="stroke:#181818;stroke-width:1.0;"/><path d="M141.2754,1376.5645 L151.2754,1376.5645 C166.2754,1376.5645 166.2754,1317.9434 181.2754,1317.9434 L191.2754,1317.9434 " fill="none" style="stroke:#181818;stroke-width:1.0;"/><rect fill="#FFD700" height="38.6211" rx="12.5" ry="12.5" style="stroke:#181818;stroke-width:1.5;" width="188.0684" x="191.2754" y="1357.2539"/><text fill="#000000" font-family="sans-serif" font-size="14" lengthAdjust="spacing" textLength="168.0684" x="201.2754" y="1382.3613">Cancel tasks in TaskGroup</text><rect fill="#90EE90" height="38.6211" rx="12.5" ry="12.5" style="stroke:#181818;stroke-width:1.5;" width="293.0957" x="429.3438" y="1357.2539"/><text fill="#000000" font-family="sans-serif" font-size="14" lengthAdjust="spacing" textLength="273.0957" x="439.3438" y="1382.3613">TaskGroup::cancel() / TaskGroup::dispose()</text><path d="M379.3438,1376.5645 L389.3438,1376.5645 C404.3438,1376.5645 404.3438,1376.5645 419.3438,1376.5645 L429.3438,1376.5645 " fill="none" style="stroke:#181818;stroke-width:1.0;"/><path d="M141.2754,1376.5645 L151.2754,1376.5645 C166.2754,1376.5645 166.2754,1376.5645 181.2754,1376.5645 L191.2754,1376.5645 " fill="none" style="stroke:#181818;stroke-width:1.0;"/><rect fill="#FFD700" height="38.6211" rx="12.5" ry="12.5" style="stroke:#181818;stroke-width:1.5;" width="232.4268" x="191.2754" y="1415.875"/><text fill="#000000" font-family="sans-serif" font-size="14" lengthAdjust="spacing" textLength="212.4268" x="201.2754" y="1440.9824">Cancel all child tasks with warning</text><rect fill="#90EE90" height="38.6211" rx="12.5" ry="12.5" style="stroke:#181818;stroke-width:1.5;" width="125.0547" x="473.7021" y="1415.875"/><text fill="#000000" font-family="sans-serif" font-size="14" lengthAdjust="spacing" textLength="105.0547" x="483.7021" y="1440.9824">Scope::dispose()</text><path d="M423.7021,1435.1855 L433.7021,1435.1855 C448.7021,1435.1855 448.7021,1435.1855 463.7021,1435.1855 L473.7021,1435.1855 " fill="none" style="stroke:#181818;stroke-width:1.0;"/><path d="M141.2754,1376.5645 L151.2754,1376.5645 C166.2754,1376.5645 166.2754,1435.1855 181.2754,1435.1855 L191.2754,1435.1855 " fill="none" style="stroke:#181818;stroke-width:1.0;"/><rect fill="#FFD700" height="38.6211" rx="12.5" ry="12.5" style="stroke:#181818;stroke-width:1.5;" width="290.0127" x="191.2754" y="1474.4961"/><text fill="#000000" font-family="sans-serif" font-size="14" lengthAdjust="spacing" textLength="270.0127" x="201.2754" y="1499.6035">Cancel all child tasks with zombie coroutine</text><rect fill="#90EE90" height="38.6211" rx="12.5" ry="12.5" style="stroke:#181818;stroke-width:1.5;" width="163.9648" x="531.2881" y="1474.4961"/><text fill="#000000" font-family="sans-serif" font-size="14" lengthAdjust="spacing" textLength="143.9648" x="541.2881" y="1499.6035">Scope::disposeSafely()</text><path d="M481.2881,1493.8066 L491.2881,1493.8066 C506.2881,1493.8066 506.2881,1493.8066 521.2881,1493.8066 L531.2881,1493.8066 " fill="none" style="stroke:#181818;stroke-width:1.0;"/><path d="M141.2754,1376.5645 L151.2754,1376.5645 C166.2754,1376.5645 166.2754,1493.8066 181.2754,1493.8066 L191.2754,1493.8066 " fill="none" style="stroke:#181818;stroke-width:1.0;"/><rect fill="#ADD8E6" height="38.6211" rx="12.5" ry="12.5" style="stroke:#181818;stroke-width:1.5;" width="153.8545" x="10" y="1562.4277"/><text fill="#000000" font-family="sans-serif" font-size="14" lengthAdjust="spacing" textLength="133.8545" x="20" y="1587.5352">Context Management</text><rect fill="#FFD700" height="38.6211" rx="12.5" ry="12.5" style="stroke:#181818;stroke-width:1.5;" width="280.7158" x="213.8545" y="1533.1172"/><text fill="#000000" font-family="sans-serif" font-size="14" lengthAdjust="spacing" textLength="260.7158" x="223.8545" y="1558.2246">Passing data across coroutine boundaries</text><rect fill="#90EE90" height="38.6211" rx="12.5" ry="12.5" style="stroke:#181818;stroke-width:1.5;" width="110.2617" x="544.5703" y="1533.1172"/><text fill="#000000" font-family="sans-serif" font-size="14" lengthAdjust="spacing" textLength="90.2617" x="554.5703" y="1558.2246">Async\Context</text><path d="M494.5703,1552.4277 L504.5703,1552.4277 C519.5703,1552.4277 519.5703,1552.4277 534.5703,1552.4277 L544.5703,1552.4277 " fill="none" style="stroke:#181818;stroke-width:1.0;"/><path d="M163.8545,1581.7383 L173.8545,1581.7383 C188.8545,1581.7383 188.8545,1552.4277 203.8545,1552.4277 L213.8545,1552.4277 " fill="none" style="stroke:#181818;stroke-width:1.0;"/><rect fill="#FFD700" height="38.6211" rx="12.5" ry="12.5" style="stroke:#181818;stroke-width:1.5;" width="219.9922" x="213.8545" y="1591.7383"/><text fill="#000000" font-family="sans-serif" font-size="14" lengthAdjust="spacing" textLength="199.9922" x="223.8545" y="1616.8457">Inheriting context across scopes</text><rect fill="#90EE90" height="38.6211" rx="12.5" ry="12.5" style="stroke:#181818;stroke-width:1.5;" width="132.8545" x="483.8467" y="1591.7383"/><text fill="#000000" font-family="sans-serif" font-size="14" lengthAdjust="spacing" textLength="112.8545" x="493.8467" y="1616.8457">Scope Inheritance</text><path d="M433.8467,1611.0488 L443.8467,1611.0488 C458.8467,1611.0488 458.8467,1611.0488 473.8467,1611.0488 L483.8467,1611.0488 " fill="none" style="stroke:#181818;stroke-width:1.0;"/><path d="M163.8545,1581.7383 L173.8545,1581.7383 C188.8545,1581.7383 188.8545,1611.0488 203.8545,1611.0488 L213.8545,1611.0488 " fill="none" style="stroke:#181818;stroke-width:1.0;"/><rect fill="#ADD8E6" height="38.6211" rx="12.5" ry="12.5" style="stroke:#181818;stroke-width:1.5;" width="203.6543" x="10" y="1650.3594"/><text fill="#000000" font-family="sans-serif" font-size="14" lengthAdjust="spacing" textLength="183.6543" x="20" y="1675.4668">Managing Zombie Coroutines</text><rect fill="#90EE90" height="38.6211" rx="12.5" ry="12.5" style="stroke:#181818;stroke-width:1.5;" width="300.9023" x="263.6543" y="1650.3594"/><text fill="#000000" font-family="sans-serif" font-size="14" lengthAdjust="spacing" textLength="280.9023" x="273.6543" y="1675.4668">Zombie Coroutine Policy or Task cancellation</text><path d="M213.6543,1669.6699 L223.6543,1669.6699 C238.6543,1669.6699 238.6543,1669.6699 253.6543,1669.6699 L263.6543,1669.6699 " fill="none" style="stroke:#181818;stroke-width:1.0;"/><!--SRC=[bLPjRzD84FvS_ugHu4D25MXHTQqCLr7I5EWr8cfIaEwkGflr9Dx3sRLsrqq3uhypwtKSsua39-L3l3lppDipC_l6MARjGiXemTBWsJzF4Z6FxJJ9y1xw6faLSWvzfLL6_z04pzOYSuqexy6aR2aRUkEbi3nsYbR1cCSOPGdgRTNCf2YZfhBL6RUPneZCIfvfZPAlSkMhgylJewDxU4VUf3ayCr-TImrWYKkOq5Kkr-d28R0b4tPpLaERn0Wf8oiMd9I1cTB0aWGeX2JQPsFCLOebUlvLGxw0MA1cciUhRO1SF0o5Z54Bs-asql2P85s8pfbRD5bYjtFlxRw-C2l9_xrm7soQu7dDXohEWb14cc1RJFkoLCNvPNBQ4b85cGbjh0U0ZcOSkziufIjXw2IebAHOESmnV7PS0dTO8YR6m9dac2J4PIMtZ8I5juUGIIkI8F2VJ_cQy_wS3YeehnhLUizab3XxWqUEgPCmDNVAUoplGKWZ8eJIpdRuLgzwd54h-J1ontu35kOkEzXQ7K_RqbEFKlJdFcH6FshQ5FM3C4fl0_TpJhJ2rpBcgbWsSitqu35D11UU6puMBz96ZfhsE6Qw2DtD9euvsV8fHR6a6etPnO8TP7rBCz5bGCqsfjn0ipGlJ26zT_2K8wBJhPFpHiYl3ddqVWHg-XzoM_2qEcQRBFLfLVe5fRCIUy0JPWoCrGBXUt2GPbDA7imooVFaV_d2gNJvIANk8O63fpOMfdUUHm1_GiN9uE17i0iXmbQ0tdaaJAfCeVtZrQugz-ljjyc3lo1IwKnAbv0zlL2ke33qZTXe-3LMVJIvRcYfLJ5_zu6L45MgjO-eDHIyg9vk4lGRxkOqM38jTpA-SFd_8tvJYwdOEshgq6CsmsIrjPDe7rjyj31aairnGHkpvi68YEYg637BW76jY9URAJfLcOoO5Zl83Nw35V0rp0z-FNfoUEi5SbxMrkbMwBcSD8B8dNTuV_kax7dRD2LWfAWrLkibLDyhR-Wfitv61QE4INitl847r6xUmF7pbqSlJvwVTiQC5YEcS7GAnoVXyLbuV0g3mNW2xhuRT8OV9c1KfcbmKJ6i5jFCmNU3Q_R0uDRjeWM6y95UJjUNVwqFO20VX5Oohydrf-56u8-JtbktYsbeeuPFm-0IPups9MbmvUPR27UJgzvPSCFaFAEoXjIDGP-AHTidXDkxdm00]--></g></svg>